<svg xmlns="http://www.w3.org/2000/svg" width="1032.5" height="2164.266" viewBox="0 0 1032.5 2164.266">
  <g id="Group_1079126" data-name="Group 1079126" transform="translate(-284 -10169.734)">
    <rect id="Rectangle_381239" data-name="Rectangle 381239" width="369" height="138" transform="translate(455 10315)" fill="#ffe3d2"/>
    <rect id="Rectangle_381241" data-name="Rectangle 381241" width="369" height="144" transform="translate(455 10453)" fill="#d5fff5"/>
    <rect id="Rectangle_381243" data-name="Rectangle 381243" width="369" height="115" transform="translate(455 10597)" fill="#c1e29a"/>
    <rect id="Rectangle_381246" data-name="Rectangle 381246" width="185" height="147" transform="translate(455 10906)" fill="#cc8b64"/>
    <rect id="Rectangle_381251" data-name="Rectangle 381251" width="492" height="143" transform="translate(455 11053)" fill="#d0adea"/>
    <rect id="Rectangle_381257" data-name="Rectangle 381257" width="370" height="156" transform="translate(455 11699)" fill="#d0adea"/>
    <rect id="Rectangle_381258" data-name="Rectangle 381258" width="61" height="156" transform="translate(886 11699)" fill="#d0adea"/>
    <rect id="Rectangle_381259" data-name="Rectangle 381259" width="185" height="156" transform="translate(1130 11699)" fill="#d0adea"/>
    <rect id="Rectangle_381252" data-name="Rectangle 381252" width="246" height="140" transform="translate(455 11196)" fill="#aaccc4"/>
    <rect id="Rectangle_381253" data-name="Rectangle 381253" width="246" height="191" transform="translate(455 11336)" fill="#ffe3d2"/>
    <rect id="Rectangle_381254" data-name="Rectangle 381254" width="122" height="84" transform="translate(825 11527)" fill="#d5fff5"/>
    <rect id="Rectangle_381255" data-name="Rectangle 381255" width="61" height="88" transform="translate(824 11611)" fill="#c1e29a"/>
    <rect id="Rectangle_381260" data-name="Rectangle 381260" width="61" height="111" transform="translate(947 11855)" fill="#cc8b64"/>
    <rect id="Rectangle_381261" data-name="Rectangle 381261" width="61" height="106" transform="translate(1009 11966)" fill="#d0adea"/>
    <rect id="Rectangle_381262" data-name="Rectangle 381262" width="61" height="110" transform="translate(1070 12072)" fill="#aaccc4"/>
    <rect id="Rectangle_381263" data-name="Rectangle 381263" width="185" height="110" transform="translate(455 12072)" fill="#aaccc4"/>
    <rect id="Rectangle_381264" data-name="Rectangle 381264" width="123" height="151" transform="translate(701 12182)" fill="#ffe3d2"/>
    <rect id="Rectangle_381265" data-name="Rectangle 381265" width="184" height="151" transform="translate(1131 12182)" fill="#ffe3d2"/>
    <rect id="Rectangle_381256" data-name="Rectangle 381256" width="61" height="88" transform="translate(1254 11611)" fill="#c1e29a"/>
    <rect id="Rectangle_381247" data-name="Rectangle 381247" width="123" height="147" transform="translate(701 10906)" fill="#cc8b64"/>
    <rect id="Rectangle_381248" data-name="Rectangle 381248" width="185" height="147" transform="translate(1130 10906)" fill="#cc8b64"/>
    <rect id="Rectangle_381249" data-name="Rectangle 381249" width="185" height="143" transform="translate(1130 11053)" fill="#d0adea"/>
    <rect id="Rectangle_381245" data-name="Rectangle 381245" width="63" height="194" transform="translate(1130 10712)" fill="#d0adea"/>
    <rect id="Rectangle_381244" data-name="Rectangle 381244" width="184" height="115" transform="translate(1131 10597)" fill="#c1e29a"/>
    <rect id="Rectangle_381242" data-name="Rectangle 381242" width="184" height="144" transform="translate(1131 10453)" fill="#d5fff5"/>
    <rect id="Rectangle_381240" data-name="Rectangle 381240" width="184" height="138" transform="translate(1131 10315)" fill="#ffe3d2"/>
    <g id="Group_1078656" data-name="Group 1078656" transform="translate(0 73)">
      <g id="Group_1074165" data-name="Group 1074165" transform="translate(340.14 10302.727)">
        <text id="Plantas_de_tratamiento_de_agua_residual._" data-name="Plantas de tratamiento de agua residual. 							" transform="translate(-30 -22)" fill="#12263f" font-size="16" font-family="Roboto-Regular, Roboto"><tspan x="0" y="15">Plantas de </tspan><tspan x="0" y="39">tratamiento de </tspan><tspan x="0" y="63" xml:space="preserve">agua residual. 							</tspan></text>
      </g>
      <path id="Path_832553" data-name="Path 832553" d="M0,0H170.5V145H0Z" transform="translate(285.001 10380.264)" fill="#e6e7ee"/>
      <path id="Path_832554" data-name="Path 832554" d="M0,0H170.5V145H0Z" transform="translate(285 10977.431)" fill="#e6e7ee"/>
      <path id="Path_832555" data-name="Path 832555" d="M0,0H170.5V189.826H0Z" transform="translate(285 11263.005)" fill="#e6e7ee"/>
      <path id="Path_832556" data-name="Path 832556" d="M0,0H170.5V87.826H0Z" transform="translate(285 11538.005)" fill="#e6e7ee"/>
      <path id="Path_832557" data-name="Path 832557" d="M0,0H170.5V110.826H0Z" transform="translate(285 11782.005)" fill="#e6e7ee"/>
      <path id="Path_832558" data-name="Path 832558" d="M0,0H170.5V110.826H0Z" transform="translate(285 11998.005)" fill="#e6e7ee"/>
      <path id="Path_832559" data-name="Path 832559" d="M0,0H170.5V196H0Z" transform="translate(285.001 10637.596)" fill="#e6e7ee"/>
      <path id="Path_832560" data-name="Path 832560" d="M0,0H1030V144H0Z" transform="translate(285.001 10097.725)" fill="#ffae7e"/>
      <path id="Path_832561" data-name="Path 832561" d="M8.367-2.637H3.744L2.865,0H.062L4.825-12.8H7.269L12.059,0h-2.8ZM4.456-4.772h3.2L6.047-9.562Zm12.5,2.9a1.666,1.666,0,0,0,1.143-.387,1.355,1.355,0,0,0,.457-1.028h2.382a3.258,3.258,0,0,1-.527,1.771A3.48,3.48,0,0,1,18.987-.268,4.442,4.442,0,0,1,17,.176a4.129,4.129,0,0,1-3.217-1.3A5.13,5.13,0,0,1,12.6-4.7v-.167A5.071,5.071,0,0,1,13.77-8.376a4.08,4.08,0,0,1,3.208-1.31A4,4,0,0,1,19.839-8.67a3.594,3.594,0,0,1,1.094,2.7H18.552a1.745,1.745,0,0,0-.457-1.206,1.524,1.524,0,0,0-1.16-.464,1.53,1.53,0,0,0-1.34.647,3.749,3.749,0,0,0-.453,2.1v.264a3.8,3.8,0,0,0,.448,2.113A1.549,1.549,0,0,0,16.952-1.872Zm8.383-9.976V-9.51h1.626v1.863H25.335V-2.9a1.133,1.133,0,0,0,.2.756,1.015,1.015,0,0,0,.773.229,4.051,4.051,0,0,0,.747-.062V-.053a5.229,5.229,0,0,1-1.538.229,2.425,2.425,0,0,1-2.725-2.7V-7.646H21.406V-9.51h1.389v-2.338ZM30.966,0H28.417V-9.51h2.549Zm-2.7-11.971a1.251,1.251,0,0,1,.382-.94,1.436,1.436,0,0,1,1.042-.369,1.44,1.44,0,0,1,1.037.369,1.244,1.244,0,0,1,.387.94,1.247,1.247,0,0,1-.391.949,1.443,1.443,0,0,1-1.033.369,1.443,1.443,0,0,1-1.033-.369A1.247,1.247,0,0,1,28.268-11.971ZM36.528-3.1,38.294-9.51h2.654L37.741,0H35.315L32.107-9.51h2.654ZM44.655,0H42.107V-9.51h2.549Zm-2.7-11.971a1.251,1.251,0,0,1,.382-.94,1.436,1.436,0,0,1,1.042-.369,1.44,1.44,0,0,1,1.037.369,1.244,1.244,0,0,1,.387.94,1.247,1.247,0,0,1-.391.949,1.443,1.443,0,0,1-1.033.369,1.443,1.443,0,0,1-1.033-.369A1.247,1.247,0,0,1,41.957-11.971Zm4.3,7.146a5.731,5.731,0,0,1,1-3.542,3.237,3.237,0,0,1,2.729-1.318,2.913,2.913,0,0,1,2.294,1.037V-13.5h2.549V0H52.537l-.123-1.011A2.989,2.989,0,0,1,49.971.176a3.228,3.228,0,0,1-2.694-1.323A5.916,5.916,0,0,1,46.262-4.825Zm2.54.189a3.754,3.754,0,0,0,.466,2.051,1.517,1.517,0,0,0,1.354.713,1.7,1.7,0,0,0,1.661-.995V-6.625a1.675,1.675,0,0,0-1.644-.995Q48.8-7.62,48.8-4.636ZM62.221,0a2.821,2.821,0,0,1-.255-.853,3.073,3.073,0,0,1-2.4,1.028A3.376,3.376,0,0,1,57.25-.633a2.6,2.6,0,0,1-.918-2.039,2.687,2.687,0,0,1,1.121-2.32,5.529,5.529,0,0,1,3.239-.817H61.86v-.545a1.567,1.567,0,0,0-.338-1.055,1.331,1.331,0,0,0-1.068-.4,1.513,1.513,0,0,0-1.006.308,1.045,1.045,0,0,0-.365.844h-2.54a2.551,2.551,0,0,1,.51-1.529,3.37,3.37,0,0,1,1.441-1.1,5.253,5.253,0,0,1,2.092-.4,4.15,4.15,0,0,1,2.791.883,3.09,3.09,0,0,1,1.033,2.483V-2.2a4.546,4.546,0,0,0,.378,2.048V0Zm-2.1-1.767a2.188,2.188,0,0,0,1.037-.25,1.645,1.645,0,0,0,.7-.672V-4.324h-.949q-1.907,0-2.03,1.318l-.009.149a1.017,1.017,0,0,0,.334.782A1.3,1.3,0,0,0,60.12-1.767Zm5.755-3.059a5.731,5.731,0,0,1,1-3.542A3.237,3.237,0,0,1,69.6-9.686,2.913,2.913,0,0,1,71.9-8.648V-13.5h2.549V0H72.15l-.123-1.011A2.989,2.989,0,0,1,69.584.176,3.228,3.228,0,0,1,66.89-1.147,5.916,5.916,0,0,1,65.875-4.825Zm2.54.189a3.754,3.754,0,0,0,.466,2.051,1.517,1.517,0,0,0,1.354.713A1.7,1.7,0,0,0,71.9-2.867V-6.625a1.675,1.675,0,0,0-1.644-.995Q68.415-7.62,68.415-4.636Z" transform="translate(334 10175.725)"/>
      <path id="Path_832562" data-name="Path 832562" d="M-14.748-2.637h-4.623L-20.25,0h-2.8l4.764-12.8h2.443L-11.057,0h-2.8Zm-3.911-2.136h3.2l-1.608-4.79Zm2.136-11.452h2.769L-16.19-13.5h-2.065ZM-6.163-1.872a1.666,1.666,0,0,0,1.143-.387,1.355,1.355,0,0,0,.457-1.028h2.382a3.258,3.258,0,0,1-.527,1.771A3.48,3.48,0,0,1-4.129-.268,4.442,4.442,0,0,1-6.119.176a4.129,4.129,0,0,1-3.217-1.3A5.13,5.13,0,0,1-10.514-4.7v-.167A5.071,5.071,0,0,1-9.345-8.376a4.08,4.08,0,0,1,3.208-1.31A4,4,0,0,1-3.276-8.67a3.594,3.594,0,0,1,1.094,2.7H-4.564a1.745,1.745,0,0,0-.457-1.206,1.524,1.524,0,0,0-1.16-.464,1.53,1.53,0,0,0-1.34.647,3.749,3.749,0,0,0-.453,2.1v.264a3.8,3.8,0,0,0,.448,2.113A1.549,1.549,0,0,0-6.163-1.872ZM1.859,0H-.69V-9.51H1.859Zm-2.7-11.971a1.251,1.251,0,0,1,.382-.94A1.436,1.436,0,0,1,.584-13.28a1.44,1.44,0,0,1,1.037.369,1.244,1.244,0,0,1,.387.94,1.247,1.247,0,0,1-.391.949,1.443,1.443,0,0,1-1.033.369,1.443,1.443,0,0,1-1.033-.369A1.247,1.247,0,0,1-.839-11.971Zm4.3,7.146a5.731,5.731,0,0,1,1-3.542A3.237,3.237,0,0,1,7.192-9.686,2.913,2.913,0,0,1,9.486-8.648V-13.5h2.549V0H9.741L9.618-1.011A2.989,2.989,0,0,1,7.174.176,3.228,3.228,0,0,1,4.48-1.147,5.916,5.916,0,0,1,3.465-4.825Zm2.54.189a3.754,3.754,0,0,0,.466,2.051,1.517,1.517,0,0,0,1.354.713,1.7,1.7,0,0,0,1.661-.995V-6.625A1.675,1.675,0,0,0,7.842-7.62Q6.005-7.62,6.005-4.636Zm7.513-.207a5.64,5.64,0,0,1,.545-2.522,3.989,3.989,0,0,1,1.569-1.714,4.577,4.577,0,0,1,2.377-.606,4.33,4.33,0,0,1,3.142,1.178,4.727,4.727,0,0,1,1.358,3.2l.018.65A4.97,4.97,0,0,1,21.3-1.147,4.247,4.247,0,0,1,18.027.176a4.268,4.268,0,0,1-3.283-1.318,5.058,5.058,0,0,1-1.226-3.586Zm2.54.18a3.555,3.555,0,0,0,.51,2.073,1.682,1.682,0,0,0,1.459.717,1.686,1.686,0,0,0,1.441-.709,3.89,3.89,0,0,0,.519-2.267,3.519,3.519,0,0,0-.519-2.06,1.686,1.686,0,0,0-1.459-.731,1.658,1.658,0,0,0-1.441.726A3.955,3.955,0,0,0,16.058-4.662ZM-35.976,18.243A1.353,1.353,0,0,0-36.5,17.1a6.917,6.917,0,0,0-1.9-.844,13.458,13.458,0,0,1-2.171-.875,3.547,3.547,0,0,1-2.18-3.173,3.09,3.09,0,0,1,.584-1.85,3.812,3.812,0,0,1,1.679-1.27,6.318,6.318,0,0,1,2.457-.457,5.751,5.751,0,0,1,2.443.5,3.891,3.891,0,0,1,1.666,1.4,3.668,3.668,0,0,1,.593,2.057h-2.637a1.726,1.726,0,0,0-.554-1.367,2.276,2.276,0,0,0-1.556-.488,2.432,2.432,0,0,0-1.5.409,1.289,1.289,0,0,0-.536,1.077,1.235,1.235,0,0,0,.628,1.046,7.1,7.1,0,0,0,1.85.791,7.994,7.994,0,0,1,3.278,1.679,3.343,3.343,0,0,1,1.028,2.5,3.08,3.08,0,0,1-1.257,2.606,5.5,5.5,0,0,1-3.384.945,6.534,6.534,0,0,1-2.689-.541,4.256,4.256,0,0,1-1.85-1.481,3.793,3.793,0,0,1-.637-2.18H-40.5q0,2.118,2.531,2.118A2.462,2.462,0,0,0-36.5,19.31,1.244,1.244,0,0,0-35.976,18.243Zm9.868,2.391a3.185,3.185,0,0,1-2.6,1.143,3,3,0,0,1-2.333-.879,3.752,3.752,0,0,1-.822-2.575V12.09h2.54v6.151q0,1.487,1.354,1.487a1.834,1.834,0,0,0,1.775-.9V12.09h2.549V21.6h-2.391Zm6.968.967h-2.549V8.1h2.549Zm2.7,0V13.954H-17.86V12.09h1.415v-.809A3.283,3.283,0,0,1-15.526,8.8a3.557,3.557,0,0,1,2.571-.883,5.938,5.938,0,0,1,1.292.176l-.026,1.969a3.238,3.238,0,0,0-.773-.079q-1.433,0-1.433,1.345v.765h1.89v1.863H-13.9V21.6ZM-8.3,13.127a3.17,3.17,0,0,1,2.54-1.213q3.094,0,3.138,3.595V21.6h-2.54V15.579a1.767,1.767,0,0,0-.352-1.208,1.507,1.507,0,0,0-1.169-.391,1.729,1.729,0,0,0-1.617.861V21.6h-2.54V8.1H-8.3ZM1.947,21.6H-.593V12.09h2.54ZM1.2,8.232H3.968L1.534,10.956H-.532Zm2.45,8.543a5.731,5.731,0,0,1,1-3.542,3.237,3.237,0,0,1,2.729-1.318A2.913,2.913,0,0,1,9.67,12.952V8.1h2.549V21.6H9.925L9.8,20.589a2.989,2.989,0,0,1-2.443,1.187,3.228,3.228,0,0,1-2.694-1.323A5.916,5.916,0,0,1,3.65,16.775Zm2.54.189a3.754,3.754,0,0,0,.466,2.051,1.517,1.517,0,0,0,1.354.713,1.7,1.7,0,0,0,1.661-.995V14.975a1.675,1.675,0,0,0-1.644-.995Q6.19,13.98,6.19,16.964Zm13.252-2.492a6.9,6.9,0,0,0-.914-.07,1.86,1.86,0,0,0-1.89.976V21.6H14.1V12.09h2.4l.07,1.134a2.354,2.354,0,0,1,2.118-1.31,2.662,2.662,0,0,1,.791.114ZM23.254,21.6H20.705V12.09h2.549Zm-2.7-11.971a1.251,1.251,0,0,1,.382-.94,1.648,1.648,0,0,1,2.079,0,1.342,1.342,0,0,1,0,1.89,1.629,1.629,0,0,1-2.065,0A1.247,1.247,0,0,1,20.556,9.629Zm8.655,10.1a1.666,1.666,0,0,0,1.143-.387,1.355,1.355,0,0,0,.457-1.028h2.382a3.258,3.258,0,0,1-.527,1.771,3.48,3.48,0,0,1-1.419,1.248,4.442,4.442,0,0,1-1.991.444,4.129,4.129,0,0,1-3.217-1.3A5.13,5.13,0,0,1,24.86,16.9v-.167a5.071,5.071,0,0,1,1.169-3.507,4.08,4.08,0,0,1,3.208-1.31A4,4,0,0,1,32.1,12.93a3.594,3.594,0,0,1,1.094,2.7H30.81a1.745,1.745,0,0,0-.457-1.206,1.7,1.7,0,0,0-2.5.183,3.749,3.749,0,0,0-.453,2.1v.264a3.8,3.8,0,0,0,.448,2.113A1.549,1.549,0,0,0,29.211,19.728Zm4.946-2.971a5.64,5.64,0,0,1,.545-2.522,3.989,3.989,0,0,1,1.569-1.714,4.577,4.577,0,0,1,2.377-.606,4.33,4.33,0,0,1,3.142,1.178,4.727,4.727,0,0,1,1.358,3.2l.018.65a4.97,4.97,0,0,1-1.222,3.511,4.247,4.247,0,0,1-3.278,1.323,4.268,4.268,0,0,1-3.283-1.318,5.058,5.058,0,0,1-1.226-3.586Zm2.54.18a3.555,3.555,0,0,0,.51,2.073,1.831,1.831,0,0,0,2.9.009,3.89,3.89,0,0,0,.519-2.267,3.519,3.519,0,0,0-.519-2.06,1.686,1.686,0,0,0-1.459-.731,1.658,1.658,0,0,0-1.441.726A3.955,3.955,0,0,0,36.7,16.938Z" transform="translate(483 10169.725) rotate(-90)"/>
      <path id="Path_832563" data-name="Path 832563" d="M-23.578-3.357A1.353,1.353,0,0,0-24.105-4.5,6.917,6.917,0,0,0-26-5.348a13.458,13.458,0,0,1-2.171-.875A3.547,3.547,0,0,1-30.354-9.4a3.09,3.09,0,0,1,.584-1.85,3.812,3.812,0,0,1,1.679-1.27,6.318,6.318,0,0,1,2.457-.457,5.751,5.751,0,0,1,2.443.5,3.891,3.891,0,0,1,1.666,1.4,3.668,3.668,0,0,1,.593,2.057h-2.637a1.726,1.726,0,0,0-.554-1.367,2.276,2.276,0,0,0-1.556-.488,2.432,2.432,0,0,0-1.5.409,1.289,1.289,0,0,0-.536,1.077,1.235,1.235,0,0,0,.628,1.046,7.1,7.1,0,0,0,1.85.791,7.994,7.994,0,0,1,3.278,1.679,3.343,3.343,0,0,1,1.028,2.5A3.08,3.08,0,0,1-22.189-.769a5.5,5.5,0,0,1-3.384.945,6.534,6.534,0,0,1-2.689-.541,4.256,4.256,0,0,1-1.85-1.481,3.793,3.793,0,0,1-.637-2.18H-28.1q0,2.118,2.531,2.118a2.462,2.462,0,0,0,1.468-.382A1.244,1.244,0,0,0-23.578-3.357ZM-13.71-.967a3.185,3.185,0,0,1-2.6,1.143A3,3,0,0,1-18.645-.7a3.752,3.752,0,0,1-.822-2.575V-9.51h2.54v6.151q0,1.487,1.354,1.487a1.834,1.834,0,0,0,1.775-.9V-9.51h2.549V0H-13.64ZM-6.742,0H-9.291V-13.5h2.549Zm2.7,0V-7.646H-5.461V-9.51h1.415v-.809A3.283,3.283,0,0,1-3.128-12.8a3.557,3.557,0,0,1,2.571-.883,5.938,5.938,0,0,1,1.292.176L.709-11.54a3.238,3.238,0,0,0-.773-.079q-1.433,0-1.433,1.345v.765H.392v1.863H-1.5V0ZM7.316-.967A3.185,3.185,0,0,1,4.714.176,3,3,0,0,1,2.381-.7a3.752,3.752,0,0,1-.822-2.575V-9.51H4.1v6.151q0,1.487,1.354,1.487a1.834,1.834,0,0,0,1.775-.9V-9.51H9.777V0H7.386Zm9.631-6.161a6.9,6.9,0,0,0-.914-.07,1.86,1.86,0,0,0-1.89.976V0H11.6V-9.51H14l.07,1.134a2.354,2.354,0,0,1,2.118-1.31,2.662,2.662,0,0,1,.791.114Zm.42,2.285a5.64,5.64,0,0,1,.545-2.522A3.989,3.989,0,0,1,19.48-9.079a4.577,4.577,0,0,1,2.377-.606A4.33,4.33,0,0,1,25-8.508a4.727,4.727,0,0,1,1.358,3.2l.018.65a4.97,4.97,0,0,1-1.222,3.511A4.247,4.247,0,0,1,21.875.176a4.268,4.268,0,0,1-3.283-1.318,5.058,5.058,0,0,1-1.226-3.586Zm2.54.18a3.555,3.555,0,0,0,.51,2.073,1.682,1.682,0,0,0,1.459.717,1.686,1.686,0,0,0,1.441-.709,3.89,3.89,0,0,0,.519-2.267,3.519,3.519,0,0,0-.519-2.06,1.686,1.686,0,0,0-1.459-.731,1.658,1.658,0,0,0-1.441.726A3.955,3.955,0,0,0,19.906-4.662Zm-64.07,21.437a5.731,5.731,0,0,1,1-3.542,3.237,3.237,0,0,1,2.729-1.318,2.913,2.913,0,0,1,2.294,1.037V8.1h2.549V21.6h-2.294l-.123-1.011a2.989,2.989,0,0,1-2.443,1.187,3.228,3.228,0,0,1-2.694-1.323A5.916,5.916,0,0,1-44.163,16.775Zm2.54.189a3.754,3.754,0,0,0,.466,2.051,1.517,1.517,0,0,0,1.354.713,1.7,1.7,0,0,0,1.661-.995V14.975a1.675,1.675,0,0,0-1.644-.995Q-41.623,13.98-41.623,16.964Zm12.285,4.812a4.668,4.668,0,0,1-3.406-1.283,4.561,4.561,0,0,1-1.314-3.419v-.246a5.745,5.745,0,0,1,.554-2.562,4.064,4.064,0,0,1,1.569-1.74,4.4,4.4,0,0,1,2.316-.611,3.947,3.947,0,0,1,3.072,1.23,5,5,0,0,1,1.121,3.489v1.037h-6.056a2.36,2.36,0,0,0,.743,1.494,2.245,2.245,0,0,0,1.569.563,2.742,2.742,0,0,0,2.294-1.063l1.248,1.4a3.813,3.813,0,0,1-1.547,1.261A5.075,5.075,0,0,1-29.338,21.776Zm-.29-7.813a1.587,1.587,0,0,0-1.226.512,2.651,2.651,0,0,0-.6,1.466h3.533v-.2a1.891,1.891,0,0,0-.457-1.311A1.638,1.638,0,0,0-29.628,13.962Zm9.549,2.813a5.731,5.731,0,0,1,1-3.542,3.237,3.237,0,0,1,2.729-1.318,2.913,2.913,0,0,1,2.294,1.037V8.1h2.549V21.6H-13.8l-.123-1.011a2.989,2.989,0,0,1-2.443,1.187,3.228,3.228,0,0,1-2.694-1.323A5.916,5.916,0,0,1-20.079,16.775Zm2.54.189a3.754,3.754,0,0,0,.466,2.051,1.517,1.517,0,0,0,1.354.713,1.7,1.7,0,0,0,1.661-.995V14.975A1.675,1.675,0,0,0-15.7,13.98Q-17.539,13.98-17.539,16.964ZM-6.95,21.6H-9.5V12.09H-6.95Zm-2.7-11.971a1.251,1.251,0,0,1,.382-.94A1.436,1.436,0,0,1-8.224,8.32a1.44,1.44,0,0,1,1.037.369,1.244,1.244,0,0,1,.387.94,1.247,1.247,0,0,1-.391.949,1.443,1.443,0,0,1-1.033.369,1.443,1.443,0,0,1-1.033-.369A1.247,1.247,0,0,1-9.648,9.629Zm7.082,2.461.079,1.063A3.342,3.342,0,0,1,.246,11.914a2.536,2.536,0,0,1,2.522,1.45,3.265,3.265,0,0,1,2.856-1.45,2.836,2.836,0,0,1,2.3.9,4.141,4.141,0,0,1,.756,2.711V21.6H6.135V15.536a1.811,1.811,0,0,0-.316-1.182A1.4,1.4,0,0,0,4.7,13.98,1.585,1.585,0,0,0,3.12,15.07l.009,6.53H.589V15.544a1.789,1.789,0,0,0-.325-1.2A1.416,1.416,0,0,0-.844,13.98a1.646,1.646,0,0,0-1.564.9V21.6h-2.54V12.09Zm17.488,9.686a4.668,4.668,0,0,1-3.406-1.283A4.561,4.561,0,0,1,10.2,17.074v-.246a5.745,5.745,0,0,1,.554-2.562,4.064,4.064,0,0,1,1.569-1.74,4.4,4.4,0,0,1,2.316-.611,3.947,3.947,0,0,1,3.072,1.23,5,5,0,0,1,1.121,3.489v1.037H12.777a2.36,2.36,0,0,0,.743,1.494,2.245,2.245,0,0,0,1.569.563,2.742,2.742,0,0,0,2.294-1.063l1.248,1.4a3.813,3.813,0,0,1-1.547,1.261A5.075,5.075,0,0,1,14.922,21.776Zm-.29-7.813a1.587,1.587,0,0,0-1.226.512,2.651,2.651,0,0,0-.6,1.466h3.533v-.2a1.891,1.891,0,0,0-.457-1.311A1.638,1.638,0,0,0,14.632,13.962Zm8.594-4.21V12.09h1.626v1.863H23.225V18.7a1.133,1.133,0,0,0,.2.756,1.015,1.015,0,0,0,.773.229,4.051,4.051,0,0,0,.747-.062v1.925a5.229,5.229,0,0,1-1.538.229,2.425,2.425,0,0,1-2.725-2.7V13.954H19.3V12.09h1.389V9.752ZM28.857,21.6H26.308V12.09h2.549Zm-2.7-11.971a1.251,1.251,0,0,1,.382-.94,1.648,1.648,0,0,1,2.079,0,1.342,1.342,0,0,1,0,1.89,1.629,1.629,0,0,1-2.065,0A1.247,1.247,0,0,1,26.159,9.629ZM33.539,21.6H30.991V8.1h2.549Zm1.606-4.843a5.64,5.64,0,0,1,.545-2.522,3.989,3.989,0,0,1,1.569-1.714,4.577,4.577,0,0,1,2.377-.606,4.33,4.33,0,0,1,3.142,1.178,4.727,4.727,0,0,1,1.358,3.2l.018.65a4.97,4.97,0,0,1-1.222,3.511,4.735,4.735,0,0,1-6.561,0,5.058,5.058,0,0,1-1.226-3.586Zm2.54.18a3.555,3.555,0,0,0,.51,2.073,1.831,1.831,0,0,0,2.9.009,3.89,3.89,0,0,0,.519-2.267,3.519,3.519,0,0,0-.519-2.06,1.686,1.686,0,0,0-1.459-.731,1.658,1.658,0,0,0-1.441.726A3.955,3.955,0,0,0,37.686,16.938Z" transform="translate(544 10169.725) rotate(-90)"/>
      <path id="Path_832564" data-name="Path 832564" d="M-35.433,0V-12.8H-31.5a5.98,5.98,0,0,1,3.019.76A5.3,5.3,0,0,1-26.4-9.875a6.669,6.669,0,0,1,.747,3.186V-6.1a6.688,6.688,0,0,1-.734,3.173,5.256,5.256,0,0,1-2.07,2.153A6.025,6.025,0,0,1-31.47,0ZM-32.8-10.661v8.543h1.274a2.863,2.863,0,0,0,2.364-1.011,4.567,4.567,0,0,0,.835-2.892V-6.7a4.64,4.64,0,0,0-.809-2.958A2.854,2.854,0,0,0-31.5-10.661ZM-21.312,0H-23.86V-9.51h2.549Zm-2.7-11.971a1.251,1.251,0,0,1,.382-.94,1.436,1.436,0,0,1,1.042-.369,1.44,1.44,0,0,1,1.037.369,1.244,1.244,0,0,1,.387.94,1.247,1.247,0,0,1-.391.949,1.443,1.443,0,0,1-1.033.369,1.443,1.443,0,0,1-1.033-.369A1.247,1.247,0,0,1-24.01-11.971Zm8.655,10.1a1.666,1.666,0,0,0,1.143-.387,1.355,1.355,0,0,0,.457-1.028h2.382A3.258,3.258,0,0,1-11.9-1.516,3.48,3.48,0,0,1-13.32-.268a4.442,4.442,0,0,1-1.991.444,4.129,4.129,0,0,1-3.217-1.3A5.13,5.13,0,0,1-19.705-4.7v-.167a5.071,5.071,0,0,1,1.169-3.507,4.08,4.08,0,0,1,3.208-1.31A4,4,0,0,1-12.467-8.67a3.594,3.594,0,0,1,1.094,2.7h-2.382a1.745,1.745,0,0,0-.457-1.206,1.524,1.524,0,0,0-1.16-.464,1.53,1.53,0,0,0-1.34.647,3.749,3.749,0,0,0-.453,2.1v.264a3.8,3.8,0,0,0,.448,2.113A1.549,1.549,0,0,0-15.355-1.872ZM-7.332,0H-9.881V-13.5h2.549Zm1.606-4.843a5.64,5.64,0,0,1,.545-2.522A3.989,3.989,0,0,1-3.612-9.079a4.577,4.577,0,0,1,2.377-.606A4.33,4.33,0,0,1,1.907-8.508a4.727,4.727,0,0,1,1.358,3.2l.018.65A4.97,4.97,0,0,1,2.061-1.147,4.247,4.247,0,0,1-1.217.176,4.268,4.268,0,0,1-4.5-1.143,5.058,5.058,0,0,1-5.726-4.729Zm2.54.18a3.555,3.555,0,0,0,.51,2.073,1.682,1.682,0,0,0,1.459.717A1.686,1.686,0,0,0,.224-2.581,3.89,3.89,0,0,0,.743-4.847a3.519,3.519,0,0,0-.519-2.06,1.686,1.686,0,0,0-1.459-.731,1.658,1.658,0,0,0-1.441.726A3.955,3.955,0,0,0-3.186-4.662ZM10.1-7.128a6.9,6.9,0,0,0-.914-.07,1.86,1.86,0,0,0-1.89.976V0H4.757V-9.51h2.4l.07,1.134a2.354,2.354,0,0,1,2.118-1.31,2.662,2.662,0,0,1,.791.114ZM16.928-.967a3.185,3.185,0,0,1-2.6,1.143A3,3,0,0,1,11.993-.7a3.752,3.752,0,0,1-.822-2.575V-9.51h2.54v6.151q0,1.487,1.354,1.487a1.834,1.834,0,0,0,1.775-.9V-9.51h2.549V0H17Zm9.631-6.161a6.9,6.9,0,0,0-.914-.07,1.86,1.86,0,0,0-1.89.976V0h-2.54V-9.51h2.4l.07,1.134A2.354,2.354,0,0,1,25.8-9.686a2.662,2.662,0,0,1,.791.114Zm.42,2.285a5.64,5.64,0,0,1,.545-2.522,3.989,3.989,0,0,1,1.569-1.714,4.577,4.577,0,0,1,2.377-.606,4.33,4.33,0,0,1,3.142,1.178,4.727,4.727,0,0,1,1.358,3.2l.018.65a4.97,4.97,0,0,1-1.222,3.511A4.247,4.247,0,0,1,31.487.176,4.268,4.268,0,0,1,28.2-1.143a5.058,5.058,0,0,1-1.226-3.586Zm2.54.18a3.555,3.555,0,0,0,.51,2.073,1.682,1.682,0,0,0,1.459.717,1.686,1.686,0,0,0,1.441-.709,3.89,3.89,0,0,0,.519-2.267,3.519,3.519,0,0,0-.519-2.06,1.686,1.686,0,0,0-1.459-.731,1.658,1.658,0,0,0-1.441.726A3.955,3.955,0,0,0,29.518-4.662ZM-36.967,16.775a5.731,5.731,0,0,1,1-3.542,3.237,3.237,0,0,1,2.729-1.318,2.913,2.913,0,0,1,2.294,1.037V8.1H-28.4V21.6h-2.294l-.123-1.011a2.989,2.989,0,0,1-2.443,1.187,3.228,3.228,0,0,1-2.694-1.323A5.916,5.916,0,0,1-36.967,16.775Zm2.54.189a3.754,3.754,0,0,0,.466,2.051,1.517,1.517,0,0,0,1.354.713,1.7,1.7,0,0,0,1.661-.995V14.975a1.675,1.675,0,0,0-1.644-.995Q-34.427,13.98-34.427,16.964Zm12.285,4.812a4.668,4.668,0,0,1-3.406-1.283,4.561,4.561,0,0,1-1.314-3.419v-.246a5.745,5.745,0,0,1,.554-2.562,4.064,4.064,0,0,1,1.569-1.74,4.4,4.4,0,0,1,2.316-.611,3.947,3.947,0,0,1,3.072,1.23,5,5,0,0,1,1.121,3.489v1.037h-6.056a2.36,2.36,0,0,0,.743,1.494,2.245,2.245,0,0,0,1.569.563,2.742,2.742,0,0,0,2.294-1.063l1.248,1.4a3.813,3.813,0,0,1-1.547,1.261A5.075,5.075,0,0,1-22.142,21.776Zm-.29-7.813a1.587,1.587,0,0,0-1.226.512,2.651,2.651,0,0,0-.6,1.466h3.533v-.2a1.891,1.891,0,0,0-.457-1.311A1.638,1.638,0,0,0-22.432,13.962ZM-6.976,21.6a2.821,2.821,0,0,1-.255-.853,3.073,3.073,0,0,1-2.4,1.028,3.376,3.376,0,0,1-2.316-.809,2.6,2.6,0,0,1-.918-2.039,2.687,2.687,0,0,1,1.121-2.32,5.529,5.529,0,0,1,3.239-.817h1.169v-.545a1.567,1.567,0,0,0-.338-1.055,1.331,1.331,0,0,0-1.068-.4,1.513,1.513,0,0,0-1.006.308,1.045,1.045,0,0,0-.365.844h-2.54a2.551,2.551,0,0,1,.51-1.529,3.37,3.37,0,0,1,1.441-1.1,5.253,5.253,0,0,1,2.092-.4,4.15,4.15,0,0,1,2.791.883,3.09,3.09,0,0,1,1.033,2.483V19.4a4.546,4.546,0,0,0,.378,2.048V21.6Zm-2.1-1.767a2.188,2.188,0,0,0,1.037-.25,1.645,1.645,0,0,0,.7-.672V17.276h-.949q-1.907,0-2.03,1.318l-.009.149a1.017,1.017,0,0,0,.334.782A1.3,1.3,0,0,0-9.077,19.833Zm9.068-.281H4.641V21.6H-3.252V20.053l4.474-5.915H-3.12V12.09H4.5v1.5Zm11.846,1.081a3.185,3.185,0,0,1-2.6,1.143A3,3,0,0,1,6.9,20.9a3.752,3.752,0,0,1-.822-2.575V12.09H8.62v6.151q0,1.487,1.354,1.487a1.834,1.834,0,0,0,1.775-.9V12.09H14.3V21.6H11.907Zm4.981.967V13.954H15.4V12.09h1.415v-.809A3.283,3.283,0,0,1,17.737,8.8a3.557,3.557,0,0,1,2.571-.883,5.938,5.938,0,0,1,1.292.176l-.026,1.969a3.238,3.238,0,0,0-.773-.079q-1.433,0-1.433,1.345v.765h1.89v1.863h-1.89V21.6Zm11.011-7.128a6.9,6.9,0,0,0-.914-.07,1.86,1.86,0,0,0-1.89.976V21.6h-2.54V12.09h2.4l.07,1.134a2.354,2.354,0,0,1,2.118-1.31,2.662,2.662,0,0,1,.791.114Zm5.342,7.3a4.668,4.668,0,0,1-3.406-1.283,4.561,4.561,0,0,1-1.314-3.419v-.246A5.745,5.745,0,0,1,29,14.266a4.064,4.064,0,0,1,1.569-1.74,4.4,4.4,0,0,1,2.316-.611,3.947,3.947,0,0,1,3.072,1.23,5,5,0,0,1,1.121,3.489v1.037H31.026a2.36,2.36,0,0,0,.743,1.494,2.245,2.245,0,0,0,1.569.563,2.742,2.742,0,0,0,2.294-1.063l1.248,1.4a3.813,3.813,0,0,1-1.547,1.261A5.075,5.075,0,0,1,33.17,21.776Zm-.29-7.813a1.587,1.587,0,0,0-1.226.512,2.651,2.651,0,0,0-.6,1.466h3.533v-.2a1.891,1.891,0,0,0-.457-1.311A1.638,1.638,0,0,0,32.88,13.962Z" transform="translate(606 10169.725) rotate(-90)"/>
      <path id="Path_832565" data-name="Path 832565" d="M-48.118-12.8l3.287,9.281,3.27-9.281H-38.1V0h-2.646V-3.5l.264-6.038L-43.935,0h-1.811l-3.445-9.527.264,6.029V0h-2.637V-12.8ZM-31.676.176a4.668,4.668,0,0,1-3.406-1.283A4.561,4.561,0,0,1-36.4-4.526v-.246a5.745,5.745,0,0,1,.554-2.562,4.064,4.064,0,0,1,1.569-1.74,4.4,4.4,0,0,1,2.316-.611,3.947,3.947,0,0,1,3.072,1.23,5,5,0,0,1,1.121,3.489v1.037h-6.056a2.36,2.36,0,0,0,.743,1.494,2.245,2.245,0,0,0,1.569.563,2.742,2.742,0,0,0,2.294-1.063l1.248,1.4A3.813,3.813,0,0,1-29.514-.277,5.075,5.075,0,0,1-31.676.176Zm-.29-7.813a1.587,1.587,0,0,0-1.226.512,2.651,2.651,0,0,0-.6,1.466h3.533v-.2a1.891,1.891,0,0,0-.457-1.311A1.638,1.638,0,0,0-31.966-7.638Zm10.9.51a6.9,6.9,0,0,0-.914-.07,1.86,1.86,0,0,0-1.89.976V0h-2.54V-9.51h2.4l.07,1.134a2.354,2.354,0,0,1,2.118-1.31,2.662,2.662,0,0,1,.791.114Zm4.92,5.256a1.666,1.666,0,0,0,1.143-.387,1.355,1.355,0,0,0,.457-1.028h2.382A3.258,3.258,0,0,1-12.7-1.516,3.48,3.48,0,0,1-14.115-.268a4.442,4.442,0,0,1-1.991.444,4.129,4.129,0,0,1-3.217-1.3A5.13,5.13,0,0,1-20.5-4.7v-.167a5.071,5.071,0,0,1,1.169-3.507,4.08,4.08,0,0,1,3.208-1.31A4,4,0,0,1-13.263-8.67a3.594,3.594,0,0,1,1.094,2.7H-14.55a1.745,1.745,0,0,0-.457-1.206,1.524,1.524,0,0,0-1.16-.464,1.53,1.53,0,0,0-1.34.647,3.749,3.749,0,0,0-.453,2.1v.264a3.8,3.8,0,0,0,.448,2.113A1.549,1.549,0,0,0-16.15-1.872ZM-5.3,0a2.821,2.821,0,0,1-.255-.853A3.073,3.073,0,0,1-7.952.176a3.376,3.376,0,0,1-2.316-.809,2.6,2.6,0,0,1-.918-2.039,2.687,2.687,0,0,1,1.121-2.32A5.529,5.529,0,0,1-6.827-5.81h1.169v-.545A1.567,1.567,0,0,0-6-7.409a1.331,1.331,0,0,0-1.068-.4A1.513,1.513,0,0,0-8.071-7.5a1.045,1.045,0,0,0-.365.844h-2.54a2.551,2.551,0,0,1,.51-1.529,3.37,3.37,0,0,1,1.441-1.1,5.253,5.253,0,0,1,2.092-.4A4.15,4.15,0,0,1-4.142-8.8,3.09,3.09,0,0,1-3.109-6.319V-2.2A4.546,4.546,0,0,0-2.731-.149V0ZM-7.4-1.767a2.188,2.188,0,0,0,1.037-.25,1.645,1.645,0,0,0,.7-.672V-4.324h-.949q-1.907,0-2.03,1.318l-.009.149a1.017,1.017,0,0,0,.334.782A1.3,1.3,0,0,0-7.4-1.767Zm14.711-2.9a5.7,5.7,0,0,1-1,3.52A3.2,3.2,0,0,1,3.621.176a2.963,2.963,0,0,1-2.329-1V3.656h-2.54V-9.51H1.107l.088.932A2.985,2.985,0,0,1,3.6-9.686a3.22,3.22,0,0,1,2.733,1.3A5.858,5.858,0,0,1,7.312-4.8Zm-2.54-.185A3.743,3.743,0,0,0,4.3-6.9,1.532,1.532,0,0,0,2.936-7.62a1.663,1.663,0,0,0-1.644.914v3.894a1.692,1.692,0,0,0,1.661.94Q4.772-1.872,4.772-4.852Zm7.064-7V-9.51h1.626v1.863H11.837V-2.9a1.133,1.133,0,0,0,.2.756,1.015,1.015,0,0,0,.773.229,4.051,4.051,0,0,0,.747-.062V-.053a5.229,5.229,0,0,1-1.538.229A2.425,2.425,0,0,1,9.3-2.522V-7.646H7.908V-9.51H9.3v-2.338ZM20.3,0a2.821,2.821,0,0,1-.255-.853,3.073,3.073,0,0,1-2.4,1.028,3.376,3.376,0,0,1-2.316-.809,2.6,2.6,0,0,1-.918-2.039,2.687,2.687,0,0,1,1.121-2.32,5.529,5.529,0,0,1,3.239-.817h1.169v-.545A1.567,1.567,0,0,0,19.6-7.409a1.331,1.331,0,0,0-1.068-.4,1.513,1.513,0,0,0-1.006.308,1.045,1.045,0,0,0-.365.844h-2.54a2.551,2.551,0,0,1,.51-1.529,3.37,3.37,0,0,1,1.441-1.1,5.253,5.253,0,0,1,2.092-.4,4.15,4.15,0,0,1,2.791.883,3.09,3.09,0,0,1,1.033,2.483V-2.2a4.546,4.546,0,0,0,.378,2.048V0ZM18.2-1.767a2.188,2.188,0,0,0,1.037-.25,1.645,1.645,0,0,0,.7-.672V-4.324h-.949q-1.907,0-2.03,1.318l-.009.149a1.017,1.017,0,0,0,.334.782A1.3,1.3,0,0,0,18.2-1.767ZM26.686-9.51l.079,1.1A3.32,3.32,0,0,1,29.5-9.686a2.759,2.759,0,0,1,2.25.888A4.142,4.142,0,0,1,32.5-6.144V0h-2.54V-6.082a1.648,1.648,0,0,0-.352-1.173,1.574,1.574,0,0,0-1.169-.365,1.747,1.747,0,0,0-1.608.914V0H24.3V-9.51Zm7.258,4.667a5.64,5.64,0,0,1,.545-2.522,3.989,3.989,0,0,1,1.569-1.714,4.577,4.577,0,0,1,2.377-.606,4.33,4.33,0,0,1,3.142,1.178,4.727,4.727,0,0,1,1.358,3.2l.018.65a4.97,4.97,0,0,1-1.222,3.511A4.247,4.247,0,0,1,38.452.176,4.268,4.268,0,0,1,35.17-1.143a5.058,5.058,0,0,1-1.226-3.586Zm2.54.18a3.555,3.555,0,0,0,.51,2.073,1.682,1.682,0,0,0,1.459.717,1.686,1.686,0,0,0,1.441-.709,3.89,3.89,0,0,0,.519-2.267,3.519,3.519,0,0,0-.519-2.06,1.686,1.686,0,0,0-1.459-.731,1.658,1.658,0,0,0-1.441.726A3.955,3.955,0,0,0,36.484-4.662ZM49.577-2.628a.818.818,0,0,0-.461-.734,5.241,5.241,0,0,0-1.481-.479q-3.393-.712-3.393-2.883a2.613,2.613,0,0,1,1.05-2.114,4.237,4.237,0,0,1,2.747-.848,4.56,4.56,0,0,1,2.9.853,2.687,2.687,0,0,1,1.085,2.215h-2.54a1.229,1.229,0,0,0-.352-.9,1.488,1.488,0,0,0-1.1-.356,1.52,1.52,0,0,0-.993.29.916.916,0,0,0-.352.738.783.783,0,0,0,.4.681,4.114,4.114,0,0,0,1.349.448,11.019,11.019,0,0,1,1.6.426,2.628,2.628,0,0,1,2.013,2.558,2.481,2.481,0,0,1-1.116,2.1,4.815,4.815,0,0,1-2.883.8A5.029,5.029,0,0,1,45.925-.25a3.561,3.561,0,0,1-1.455-1.169,2.716,2.716,0,0,1-.527-1.6h2.408a1.326,1.326,0,0,0,.5,1.037,1.987,1.987,0,0,0,1.248.36A1.839,1.839,0,0,0,49.2-1.9.861.861,0,0,0,49.577-2.628Z" transform="translate(680 10169.725) rotate(-90)"/>
      <path id="Path_832566" data-name="Path 832566" d="M-32.077-2.637H-36.7L-37.579,0h-2.8l4.764-12.8h2.443L-28.386,0h-2.8Zm-3.911-2.136h3.2L-34.4-9.562Zm10.5-4.737.079,1.063a3.342,3.342,0,0,1,2.733-1.239,2.536,2.536,0,0,1,2.522,1.45A3.265,3.265,0,0,1-17.3-9.686a2.836,2.836,0,0,1,2.3.9,4.141,4.141,0,0,1,.756,2.711V0h-2.549V-6.064A1.811,1.811,0,0,0-17.1-7.247a1.4,1.4,0,0,0-1.116-.374A1.585,1.585,0,0,0-19.8-6.53L-19.792,0h-2.54V-6.056a1.789,1.789,0,0,0-.325-1.2,1.416,1.416,0,0,0-1.107-.369,1.646,1.646,0,0,0-1.564.9V0h-2.54V-9.51Zm12.716,4.667a5.64,5.64,0,0,1,.545-2.522,3.989,3.989,0,0,1,1.569-1.714,4.577,4.577,0,0,1,2.377-.606A4.33,4.33,0,0,1-5.138-8.508a4.727,4.727,0,0,1,1.358,3.2l.018.65A4.97,4.97,0,0,1-4.985-1.147,4.247,4.247,0,0,1-8.263.176a4.268,4.268,0,0,1-3.283-1.318,5.058,5.058,0,0,1-1.226-3.586Zm2.54.18a3.555,3.555,0,0,0,.51,2.073,1.682,1.682,0,0,0,1.459.717,1.686,1.686,0,0,0,1.441-.709A3.89,3.89,0,0,0-6.3-4.847a3.519,3.519,0,0,0-.519-2.06,1.686,1.686,0,0,0-1.459-.731,1.658,1.658,0,0,0-1.441.726A3.955,3.955,0,0,0-10.232-4.662ZM.049-9.51l.079,1.1A3.32,3.32,0,0,1,2.862-9.686a2.759,2.759,0,0,1,2.25.888,4.142,4.142,0,0,1,.756,2.654V0H3.328V-6.082a1.648,1.648,0,0,0-.352-1.173A1.574,1.574,0,0,0,1.807-7.62,1.747,1.747,0,0,0,.2-6.706V0h-2.54V-9.51ZM10.383,0H7.834V-9.51h2.549Zm-2.7-11.971a1.251,1.251,0,0,1,.382-.94,1.436,1.436,0,0,1,1.042-.369,1.44,1.44,0,0,1,1.037.369,1.244,1.244,0,0,1,.387.94,1.247,1.247,0,0,1-.391.949,1.443,1.443,0,0,1-1.033.369,1.443,1.443,0,0,1-1.033-.369A1.247,1.247,0,0,1,7.685-11.971ZM17.9,0a2.821,2.821,0,0,1-.255-.853,3.073,3.073,0,0,1-2.4,1.028,3.376,3.376,0,0,1-2.316-.809,2.6,2.6,0,0,1-.918-2.039,2.687,2.687,0,0,1,1.121-2.32,5.529,5.529,0,0,1,3.239-.817h1.169v-.545A1.567,1.567,0,0,0,17.2-7.409a1.331,1.331,0,0,0-1.068-.4,1.513,1.513,0,0,0-1.006.308,1.045,1.045,0,0,0-.365.844h-2.54a2.551,2.551,0,0,1,.51-1.529,3.37,3.37,0,0,1,1.441-1.1,5.253,5.253,0,0,1,2.092-.4,4.15,4.15,0,0,1,2.791.883,3.09,3.09,0,0,1,1.033,2.483V-2.2a4.546,4.546,0,0,0,.378,2.048V0ZM15.8-1.767a2.188,2.188,0,0,0,1.037-.25,1.645,1.645,0,0,0,.7-.672V-4.324h-.949q-1.907,0-2.03,1.318l-.009.149a1.017,1.017,0,0,0,.334.782A1.3,1.3,0,0,0,15.8-1.767ZM25.9-1.872a1.666,1.666,0,0,0,1.143-.387A1.355,1.355,0,0,0,27.5-3.287h2.382a3.258,3.258,0,0,1-.527,1.771A3.48,3.48,0,0,1,27.935-.268a4.442,4.442,0,0,1-1.991.444,4.129,4.129,0,0,1-3.217-1.3A5.13,5.13,0,0,1,21.55-4.7v-.167a5.071,5.071,0,0,1,1.169-3.507,4.08,4.08,0,0,1,3.208-1.31A4,4,0,0,1,28.788-8.67a3.594,3.594,0,0,1,1.094,2.7H27.5a1.745,1.745,0,0,0-.457-1.206,1.524,1.524,0,0,0-1.16-.464,1.53,1.53,0,0,0-1.34.647,3.749,3.749,0,0,0-.453,2.1v.264a3.8,3.8,0,0,0,.448,2.113A1.549,1.549,0,0,0,25.9-1.872Zm4.946-2.971a5.64,5.64,0,0,1,.545-2.522A3.989,3.989,0,0,1,32.96-9.079a4.577,4.577,0,0,1,2.377-.606A4.33,4.33,0,0,1,38.48-8.508a4.727,4.727,0,0,1,1.358,3.2l.018.65a4.97,4.97,0,0,1-1.222,3.511A4.247,4.247,0,0,1,35.355.176a4.268,4.268,0,0,1-3.283-1.318,5.058,5.058,0,0,1-1.226-3.586Zm2.54.18a3.555,3.555,0,0,0,.51,2.073,1.682,1.682,0,0,0,1.459.717A1.686,1.686,0,0,0,36.8-2.581a3.89,3.89,0,0,0,.519-2.267,3.519,3.519,0,0,0-.519-2.06,1.686,1.686,0,0,0-1.459-.731,1.658,1.658,0,0,0-1.441.726A3.955,3.955,0,0,0,33.387-4.662Z" transform="translate(735 10169.725) rotate(-90)"/>
      <path id="Path_832567" data-name="Path 832567" d="M-40.438-12.8l3.287,9.281,3.27-9.281h3.463V0h-2.646V-3.5l.264-6.038L-36.254,0h-1.811L-41.51-9.527l.264,6.029V0h-2.637V-12.8ZM-24,.176A4.668,4.668,0,0,1-27.4-1.107a4.561,4.561,0,0,1-1.314-3.419v-.246a5.745,5.745,0,0,1,.554-2.562,4.064,4.064,0,0,1,1.569-1.74,4.4,4.4,0,0,1,2.316-.611,3.947,3.947,0,0,1,3.072,1.23,5,5,0,0,1,1.121,3.489v1.037H-26.14A2.36,2.36,0,0,0-25.4-2.435a2.245,2.245,0,0,0,1.569.563,2.742,2.742,0,0,0,2.294-1.063l1.248,1.4A3.813,3.813,0,0,1-21.833-.277,5.075,5.075,0,0,1-24,.176Zm-.29-7.813a1.587,1.587,0,0,0-1.226.512,2.651,2.651,0,0,0-.6,1.466h3.533v-.2a1.891,1.891,0,0,0-.457-1.311A1.638,1.638,0,0,0-24.286-7.638Zm8.594-4.21V-9.51h1.626v1.863h-1.626V-2.9a1.133,1.133,0,0,0,.2.756,1.015,1.015,0,0,0,.773.229,4.051,4.051,0,0,0,.747-.062V-.053a5.229,5.229,0,0,1-1.538.229,2.425,2.425,0,0,1-2.725-2.7V-7.646h-1.389V-9.51h1.389v-2.338ZM-10.06,0h-2.549V-9.51h2.549Zm-2.7-11.971a1.251,1.251,0,0,1,.382-.94,1.436,1.436,0,0,1,1.042-.369,1.44,1.44,0,0,1,1.037.369,1.244,1.244,0,0,1,.387.94,1.247,1.247,0,0,1-.391.949,1.443,1.443,0,0,1-1.033.369,1.443,1.443,0,0,1-1.033-.369A1.247,1.247,0,0,1-12.759-11.971ZM-5.378,0H-7.927V-13.5h2.549ZM2.135,0A2.821,2.821,0,0,1,1.88-.853,3.073,3.073,0,0,1-.52.176,3.376,3.376,0,0,1-2.836-.633a2.6,2.6,0,0,1-.918-2.039,2.687,2.687,0,0,1,1.121-2.32A5.529,5.529,0,0,1,.605-5.81H1.774v-.545a1.567,1.567,0,0,0-.338-1.055A1.331,1.331,0,0,0,.368-7.8,1.513,1.513,0,0,0-.638-7.5,1.045,1.045,0,0,0-1-6.653h-2.54a2.551,2.551,0,0,1,.51-1.529,3.37,3.37,0,0,1,1.441-1.1A5.253,5.253,0,0,1,.5-9.686,4.15,4.15,0,0,1,3.29-8.8,3.09,3.09,0,0,1,4.323-6.319V-2.2A4.546,4.546,0,0,0,4.7-.149V0ZM.034-1.767a2.188,2.188,0,0,0,1.037-.25,1.645,1.645,0,0,0,.7-.672V-4.324H.825q-1.907,0-2.03,1.318l-.009.149a1.017,1.017,0,0,0,.334.782A1.3,1.3,0,0,0,.034-1.767ZM8.566-9.51l.079,1.063a3.342,3.342,0,0,1,2.733-1.239A2.536,2.536,0,0,1,13.9-8.235a3.265,3.265,0,0,1,2.856-1.45,2.836,2.836,0,0,1,2.3.9,4.141,4.141,0,0,1,.756,2.711V0H17.267V-6.064a1.811,1.811,0,0,0-.316-1.182,1.4,1.4,0,0,0-1.116-.374,1.585,1.585,0,0,0-1.582,1.09L14.261,0h-2.54V-6.056a1.789,1.789,0,0,0-.325-1.2,1.416,1.416,0,0,0-1.107-.369,1.646,1.646,0,0,0-1.564.9V0H6.184V-9.51ZM24.358,0H21.809V-9.51h2.549Zm-2.7-11.971a1.251,1.251,0,0,1,.382-.94,1.436,1.436,0,0,1,1.042-.369,1.44,1.44,0,0,1,1.037.369,1.244,1.244,0,0,1,.387.94,1.247,1.247,0,0,1-.391.949,1.443,1.443,0,0,1-1.033.369,1.443,1.443,0,0,1-1.033-.369A1.247,1.247,0,0,1,21.66-11.971ZM28.7-9.51l.079,1.1A3.32,3.32,0,0,1,31.51-9.686a2.759,2.759,0,0,1,2.25.888,4.142,4.142,0,0,1,.756,2.654V0h-2.54V-6.082a1.648,1.648,0,0,0-.352-1.173,1.574,1.574,0,0,0-1.169-.365,1.747,1.747,0,0,0-1.608.914V0h-2.54V-9.51ZM41.862,0a2.821,2.821,0,0,1-.255-.853,3.073,3.073,0,0,1-2.4,1.028,3.376,3.376,0,0,1-2.316-.809,2.6,2.6,0,0,1-.918-2.039,2.687,2.687,0,0,1,1.121-2.32,5.529,5.529,0,0,1,3.239-.817H41.5v-.545a1.567,1.567,0,0,0-.338-1.055A1.331,1.331,0,0,0,40.1-7.8a1.513,1.513,0,0,0-1.006.308,1.045,1.045,0,0,0-.365.844h-2.54a2.551,2.551,0,0,1,.51-1.529,3.37,3.37,0,0,1,1.441-1.1,5.253,5.253,0,0,1,2.092-.4,4.15,4.15,0,0,1,2.791.883A3.09,3.09,0,0,1,44.05-6.319V-2.2a4.546,4.546,0,0,0,.378,2.048V0Zm-2.1-1.767a2.188,2.188,0,0,0,1.037-.25,1.645,1.645,0,0,0,.7-.672V-4.324h-.949q-1.907,0-2.03,1.318l-.009.149a1.017,1.017,0,0,0,.334.782A1.3,1.3,0,0,0,39.761-1.767Z" transform="translate(805 10169.725) rotate(-90)"/>
      <path id="Path_832568" data-name="Path 832568" d="M-44.6-2.637h-4.623L-50.1,0h-2.8l4.764-12.8H-45.7L-40.91,0h-2.8Zm-3.911-2.136h3.2l-1.608-4.79Zm12.5,2.9a1.666,1.666,0,0,0,1.143-.387,1.355,1.355,0,0,0,.457-1.028h2.382a3.258,3.258,0,0,1-.527,1.771A3.48,3.48,0,0,1-33.982-.268a4.442,4.442,0,0,1-1.991.444,4.129,4.129,0,0,1-3.217-1.3A5.13,5.13,0,0,1-40.367-4.7v-.167A5.071,5.071,0,0,1-39.2-8.376a4.08,4.08,0,0,1,3.208-1.31A4,4,0,0,1-33.13-8.67a3.594,3.594,0,0,1,1.094,2.7h-2.382a1.745,1.745,0,0,0-.457-1.206,1.524,1.524,0,0,0-1.16-.464,1.53,1.53,0,0,0-1.34.647,3.749,3.749,0,0,0-.453,2.1v.264a3.8,3.8,0,0,0,.448,2.113A1.549,1.549,0,0,0-36.017-1.872ZM-26.3.176A4.668,4.668,0,0,1-29.7-1.107a4.561,4.561,0,0,1-1.314-3.419v-.246a5.745,5.745,0,0,1,.554-2.562A4.064,4.064,0,0,1-28.9-9.075a4.4,4.4,0,0,1,2.316-.611,3.947,3.947,0,0,1,3.072,1.23,5,5,0,0,1,1.121,3.489v1.037h-6.056A2.36,2.36,0,0,0-27.7-2.435a2.245,2.245,0,0,0,1.569.563,2.742,2.742,0,0,0,2.294-1.063l1.248,1.4A3.813,3.813,0,0,1-24.136-.277,5.075,5.075,0,0,1-26.3.176Zm-.29-7.813a1.587,1.587,0,0,0-1.226.512,2.651,2.651,0,0,0-.6,1.466h3.533v-.2a1.891,1.891,0,0,0-.457-1.311A1.638,1.638,0,0,0-26.588-7.638Zm8.594-4.21V-9.51h1.626v1.863h-1.626V-2.9a1.133,1.133,0,0,0,.2.756,1.015,1.015,0,0,0,.773.229,4.051,4.051,0,0,0,.747-.062V-.053A5.229,5.229,0,0,1-17.81.176a2.425,2.425,0,0,1-2.725-2.7V-7.646h-1.389V-9.51h1.389v-2.338ZM-9.533,0a2.821,2.821,0,0,1-.255-.853,3.073,3.073,0,0,1-2.4,1.028A3.376,3.376,0,0,1-14.5-.633a2.6,2.6,0,0,1-.918-2.039A2.687,2.687,0,0,1-14.3-4.992a5.529,5.529,0,0,1,3.239-.817h1.169v-.545a1.567,1.567,0,0,0-.338-1.055A1.331,1.331,0,0,0-11.3-7.8a1.513,1.513,0,0,0-1.006.308,1.045,1.045,0,0,0-.365.844h-2.54a2.551,2.551,0,0,1,.51-1.529,3.37,3.37,0,0,1,1.441-1.1,5.253,5.253,0,0,1,2.092-.4A4.15,4.15,0,0,1-8.377-8.8,3.09,3.09,0,0,1-7.344-6.319V-2.2A4.546,4.546,0,0,0-6.967-.149V0Zm-2.1-1.767a2.188,2.188,0,0,0,1.037-.25,1.645,1.645,0,0,0,.7-.672V-4.324h-.949q-1.907,0-2.03,1.318l-.009.149a1.017,1.017,0,0,0,.334.782A1.3,1.3,0,0,0-11.634-1.767ZM-2.8,0H-5.351V-13.5H-2.8ZM-1.2-4.825a5.731,5.731,0,0,1,1-3.542A3.237,3.237,0,0,1,2.53-9.686,2.913,2.913,0,0,1,4.824-8.648V-13.5H7.373V0H5.079L4.956-1.011A2.989,2.989,0,0,1,2.513.176,3.228,3.228,0,0,1-.181-1.147,5.916,5.916,0,0,1-1.2-4.825Zm2.54.189a3.754,3.754,0,0,0,.466,2.051,1.517,1.517,0,0,0,1.354.713,1.7,1.7,0,0,0,1.661-.995V-6.625A1.675,1.675,0,0,0,3.181-7.62Q1.344-7.62,1.344-4.636ZM13.629.176a4.668,4.668,0,0,1-3.406-1.283A4.561,4.561,0,0,1,8.909-4.526v-.246a5.745,5.745,0,0,1,.554-2.562,4.064,4.064,0,0,1,1.569-1.74,4.4,4.4,0,0,1,2.316-.611,3.947,3.947,0,0,1,3.072,1.23A5,5,0,0,1,17.54-4.966v1.037H11.484a2.36,2.36,0,0,0,.743,1.494,2.245,2.245,0,0,0,1.569.563A2.742,2.742,0,0,0,16.09-2.936l1.248,1.4A3.813,3.813,0,0,1,15.791-.277,5.075,5.075,0,0,1,13.629.176Zm-.29-7.813a1.587,1.587,0,0,0-1.226.512,2.651,2.651,0,0,0-.6,1.466h3.533v-.2a1.891,1.891,0,0,0-.457-1.311A1.638,1.638,0,0,0,13.339-7.638Zm8.031-.835a3.17,3.17,0,0,1,2.54-1.213q3.094,0,3.138,3.595V0h-2.54V-6.021a1.767,1.767,0,0,0-.352-1.208,1.507,1.507,0,0,0-1.169-.391,1.729,1.729,0,0,0-1.617.861V0H18.83V-13.5h2.54ZM31.616,0h-2.54V-9.51h2.54Zm-.747-13.368h2.769L31.2-10.644H29.137Zm2.45,8.543a5.731,5.731,0,0,1,1-3.542,3.237,3.237,0,0,1,2.729-1.318,2.913,2.913,0,0,1,2.294,1.037V-13.5h2.549V0H39.594l-.123-1.011A2.989,2.989,0,0,1,37.028.176a3.228,3.228,0,0,1-2.694-1.323A5.916,5.916,0,0,1,33.319-4.825Zm2.54.189a3.754,3.754,0,0,0,.466,2.051,1.517,1.517,0,0,0,1.354.713,1.7,1.7,0,0,0,1.661-.995V-6.625A1.675,1.675,0,0,0,37.7-7.62Q35.859-7.62,35.859-4.636Zm7.513-.207a5.64,5.64,0,0,1,.545-2.522,3.989,3.989,0,0,1,1.569-1.714,4.577,4.577,0,0,1,2.377-.606A4.33,4.33,0,0,1,51-8.508a4.727,4.727,0,0,1,1.358,3.2l.018.65a4.97,4.97,0,0,1-1.222,3.511A4.247,4.247,0,0,1,47.88.176,4.268,4.268,0,0,1,44.6-1.143a5.058,5.058,0,0,1-1.226-3.586Zm2.54.18a3.555,3.555,0,0,0,.51,2.073,1.682,1.682,0,0,0,1.459.717,1.686,1.686,0,0,0,1.441-.709,3.89,3.89,0,0,0,.519-2.267,3.519,3.519,0,0,0-.519-2.06,1.686,1.686,0,0,0-1.459-.731,1.658,1.658,0,0,0-1.441.726A3.955,3.955,0,0,0,45.911-4.662Z" transform="translate(864 10169.725) rotate(-90)"/>
      <path id="Path_832569" data-name="Path 832569" d="M-48.322-2.637h-4.623L-53.824,0h-2.8l4.764-12.8h2.443L-44.63,0h-2.8Zm-3.911-2.136h3.2l-1.608-4.79ZM-50.1-16.225h2.769L-49.763-13.5h-2.065Zm10.36,14.353a1.666,1.666,0,0,0,1.143-.387,1.355,1.355,0,0,0,.457-1.028h2.382a3.258,3.258,0,0,1-.527,1.771A3.48,3.48,0,0,1-37.7-.268a4.442,4.442,0,0,1-1.991.444,4.129,4.129,0,0,1-3.217-1.3A5.13,5.13,0,0,1-44.088-4.7v-.167a5.071,5.071,0,0,1,1.169-3.507,4.08,4.08,0,0,1,3.208-1.31A4,4,0,0,1-36.85-8.67a3.594,3.594,0,0,1,1.094,2.7h-2.382a1.745,1.745,0,0,0-.457-1.206,1.524,1.524,0,0,0-1.16-.464,1.53,1.53,0,0,0-1.34.647,3.749,3.749,0,0,0-.453,2.1v.264A3.8,3.8,0,0,0-41.1-2.515,1.549,1.549,0,0,0-39.737-1.872ZM-31.715,0h-2.549V-9.51h2.549Zm-2.7-11.971a1.251,1.251,0,0,1,.382-.94,1.436,1.436,0,0,1,1.042-.369,1.44,1.44,0,0,1,1.037.369,1.244,1.244,0,0,1,.387.94,1.247,1.247,0,0,1-.391.949,1.443,1.443,0,0,1-1.033.369,1.443,1.443,0,0,1-1.033-.369A1.247,1.247,0,0,1-34.413-11.971Zm4.3,7.146a5.731,5.731,0,0,1,1-3.542,3.237,3.237,0,0,1,2.729-1.318,2.913,2.913,0,0,1,2.294,1.037V-13.5h2.549V0h-2.294l-.123-1.011A2.989,2.989,0,0,1-26.4.176a3.228,3.228,0,0,1-2.694-1.323A5.916,5.916,0,0,1-30.108-4.825Zm2.54.189A3.754,3.754,0,0,0-27.1-2.585a1.517,1.517,0,0,0,1.354.713,1.7,1.7,0,0,0,1.661-.995V-6.625a1.675,1.675,0,0,0-1.644-.995Q-27.568-7.62-27.568-4.636Zm7.513-.207a5.64,5.64,0,0,1,.545-2.522,3.989,3.989,0,0,1,1.569-1.714,4.577,4.577,0,0,1,2.377-.606,4.33,4.33,0,0,1,3.142,1.178,4.727,4.727,0,0,1,1.358,3.2l.018.65a4.97,4.97,0,0,1-1.222,3.511A4.247,4.247,0,0,1-15.547.176,4.268,4.268,0,0,1-18.83-1.143a5.058,5.058,0,0,1-1.226-3.586Zm2.54.18a3.555,3.555,0,0,0,.51,2.073,1.682,1.682,0,0,0,1.459.717,1.686,1.686,0,0,0,1.441-.709,3.89,3.89,0,0,0,.519-2.267,3.519,3.519,0,0,0-.519-2.06,1.686,1.686,0,0,0-1.459-.731,1.658,1.658,0,0,0-1.441.726A3.955,3.955,0,0,0-17.516-4.662ZM-5.013,0V-12.8H-.531A5.886,5.886,0,0,1,3-11.9a3.05,3.05,0,0,1,1.2,2.615,2.891,2.891,0,0,1-.483,1.657,2.792,2.792,0,0,1-1.345,1.05A2.7,2.7,0,0,1,3.93-5.59,2.936,2.936,0,0,1,4.5-3.762,3.377,3.377,0,0,1,3.319-.967,5.3,5.3,0,0,1-.039,0Zm2.637-5.572v3.454H-.118a2.18,2.18,0,0,0,1.455-.444A1.522,1.522,0,0,0,1.86-3.788,1.607,1.607,0,0,0,.041-5.572Zm0-1.863H-.425q2-.035,2-1.591a1.47,1.47,0,0,0-.505-1.252,2.658,2.658,0,0,0-1.6-.382H-2.376ZM11.913-.967A3.185,3.185,0,0,1,9.311.176,3,3,0,0,1,6.977-.7a3.752,3.752,0,0,1-.822-2.575V-9.51H8.7v6.151q0,1.487,1.354,1.487a1.834,1.834,0,0,0,1.775-.9V-9.51h2.549V0H11.983ZM19.24-11.848V-9.51h1.626v1.863H19.24V-2.9a1.133,1.133,0,0,0,.2.756,1.015,1.015,0,0,0,.773.229,4.051,4.051,0,0,0,.747-.062V-.053a5.229,5.229,0,0,1-1.538.229,2.425,2.425,0,0,1-2.725-2.7V-7.646H15.312V-9.51H16.7v-2.338ZM24.934,0h-2.54V-9.51h2.54Zm-.747-13.368h2.769l-2.435,2.725H22.455Zm8.189,6.24a6.9,6.9,0,0,0-.914-.07,1.86,1.86,0,0,0-1.89.976V0h-2.54V-9.51h2.4l.07,1.134a2.354,2.354,0,0,1,2.118-1.31,2.662,2.662,0,0,1,.791.114ZM36.188,0H33.639V-9.51h2.549Zm-2.7-11.971a1.251,1.251,0,0,1,.382-.94,1.436,1.436,0,0,1,1.042-.369,1.44,1.44,0,0,1,1.037.369,1.244,1.244,0,0,1,.387.94,1.247,1.247,0,0,1-.391.949,1.443,1.443,0,0,1-1.033.369,1.443,1.443,0,0,1-1.033-.369A1.247,1.247,0,0,1,33.49-11.971Zm8.655,10.1a1.666,1.666,0,0,0,1.143-.387,1.355,1.355,0,0,0,.457-1.028h2.382A3.258,3.258,0,0,1,45.6-1.516,3.48,3.48,0,0,1,44.18-.268a4.442,4.442,0,0,1-1.991.444,4.129,4.129,0,0,1-3.217-1.3A5.13,5.13,0,0,1,37.795-4.7v-.167a5.071,5.071,0,0,1,1.169-3.507,4.08,4.08,0,0,1,3.208-1.31A4,4,0,0,1,45.032-8.67a3.594,3.594,0,0,1,1.094,2.7H43.745a1.745,1.745,0,0,0-.457-1.206,1.524,1.524,0,0,0-1.16-.464,1.53,1.53,0,0,0-1.34.647,3.749,3.749,0,0,0-.453,2.1v.264a3.8,3.8,0,0,0,.448,2.113A1.549,1.549,0,0,0,42.145-1.872Zm4.946-2.971a5.64,5.64,0,0,1,.545-2.522,3.989,3.989,0,0,1,1.569-1.714,4.577,4.577,0,0,1,2.377-.606,4.33,4.33,0,0,1,3.142,1.178,4.727,4.727,0,0,1,1.358,3.2l.018.65a4.97,4.97,0,0,1-1.222,3.511A4.247,4.247,0,0,1,51.6.176a4.268,4.268,0,0,1-3.283-1.318,5.058,5.058,0,0,1-1.226-3.586Zm2.54.18a3.555,3.555,0,0,0,.51,2.073,1.682,1.682,0,0,0,1.459.717,1.686,1.686,0,0,0,1.441-.709,3.89,3.89,0,0,0,.519-2.267,3.519,3.519,0,0,0-.519-2.06,1.686,1.686,0,0,0-1.459-.731,1.658,1.658,0,0,0-1.441.726A3.955,3.955,0,0,0,49.631-4.662Z" transform="translate(925 10169.725) rotate(-90)"/>
      <path id="Path_832570" data-name="Path 832570" d="M-33.936-5.546H-39v3.428h5.941V0h-8.578V-12.8h8.561v2.136H-39v3.05h5.063Zm5.21-6.3V-9.51H-27.1v1.863h-1.626V-2.9a1.133,1.133,0,0,0,.2.756,1.015,1.015,0,0,0,.773.229A4.051,4.051,0,0,0-27-1.978V-.053a5.229,5.229,0,0,1-1.538.229,2.425,2.425,0,0,1-2.725-2.7V-7.646h-1.389V-9.51h1.389v-2.338ZM-23.095,0h-2.549V-9.51h2.549Zm-2.7-11.971a1.251,1.251,0,0,1,.382-.94,1.436,1.436,0,0,1,1.042-.369,1.44,1.44,0,0,1,1.037.369,1.244,1.244,0,0,1,.387.94,1.247,1.247,0,0,1-.391.949,1.443,1.443,0,0,1-1.033.369,1.443,1.443,0,0,1-1.033-.369A1.247,1.247,0,0,1-25.793-11.971ZM-18.412,0h-2.549V-13.5h2.549ZM-10.9,0a2.821,2.821,0,0,1-.255-.853,3.073,3.073,0,0,1-2.4,1.028A3.376,3.376,0,0,1-15.87-.633a2.6,2.6,0,0,1-.918-2.039,2.687,2.687,0,0,1,1.121-2.32,5.529,5.529,0,0,1,3.239-.817h1.169v-.545A1.567,1.567,0,0,0-11.6-7.409a1.331,1.331,0,0,0-1.068-.4,1.513,1.513,0,0,0-1.006.308,1.045,1.045,0,0,0-.365.844h-2.54a2.551,2.551,0,0,1,.51-1.529,3.37,3.37,0,0,1,1.441-1.1,5.253,5.253,0,0,1,2.092-.4A4.15,4.15,0,0,1-9.744-8.8,3.09,3.09,0,0,1-8.711-6.319V-2.2A4.546,4.546,0,0,0-8.333-.149V0ZM-13-1.767a2.188,2.188,0,0,0,1.037-.25,1.645,1.645,0,0,0,.7-.672V-4.324h-.949q-1.907,0-2.03,1.318l-.009.149a1.017,1.017,0,0,0,.334.782A1.3,1.3,0,0,0-13-1.767Zm10.105-.105a1.666,1.666,0,0,0,1.143-.387A1.355,1.355,0,0,0-1.3-3.287H1.087A3.258,3.258,0,0,1,.559-1.516,3.48,3.48,0,0,1-.86-.268,4.442,4.442,0,0,1-2.851.176a4.129,4.129,0,0,1-3.217-1.3A5.13,5.13,0,0,1-7.246-4.7v-.167A5.071,5.071,0,0,1-6.077-8.376a4.08,4.08,0,0,1,3.208-1.31A4,4,0,0,1-.008-8.67a3.594,3.594,0,0,1,1.094,2.7H-1.3a1.745,1.745,0,0,0-.457-1.206,1.524,1.524,0,0,0-1.16-.464,1.53,1.53,0,0,0-1.34.647,3.749,3.749,0,0,0-.453,2.1v.264a3.8,3.8,0,0,0,.448,2.113A1.549,1.549,0,0,0-2.895-1.872ZM7.79-7.128a6.9,6.9,0,0,0-.914-.07,1.86,1.86,0,0,0-1.89.976V0H2.447V-9.51h2.4l.07,1.134a2.354,2.354,0,0,1,2.118-1.31,2.662,2.662,0,0,1,.791.114ZM11.6,0H9.054V-9.51H11.6ZM8.9-11.971a1.251,1.251,0,0,1,.382-.94,1.436,1.436,0,0,1,1.042-.369,1.44,1.44,0,0,1,1.037.369,1.244,1.244,0,0,1,.387.94,1.247,1.247,0,0,1-.391.949,1.443,1.443,0,0,1-1.033.369A1.443,1.443,0,0,1,9.3-11.021,1.247,1.247,0,0,1,8.9-11.971ZM16.285,0H13.736V-13.5h2.549ZM23.8,0a2.821,2.821,0,0,1-.255-.853,3.073,3.073,0,0,1-2.4,1.028,3.376,3.376,0,0,1-2.316-.809,2.6,2.6,0,0,1-.918-2.039,2.687,2.687,0,0,1,1.121-2.32,5.529,5.529,0,0,1,3.239-.817h1.169v-.545A1.567,1.567,0,0,0,23.1-7.409a1.331,1.331,0,0,0-1.068-.4,1.513,1.513,0,0,0-1.006.308,1.045,1.045,0,0,0-.365.844H18.12a2.551,2.551,0,0,1,.51-1.529,3.37,3.37,0,0,1,1.441-1.1,5.253,5.253,0,0,1,2.092-.4,4.15,4.15,0,0,1,2.791.883,3.09,3.09,0,0,1,1.033,2.483V-2.2a4.546,4.546,0,0,0,.378,2.048V0ZM21.7-1.767a2.188,2.188,0,0,0,1.037-.25,1.645,1.645,0,0,0,.7-.672V-4.324h-.949q-1.907,0-2.03,1.318l-.009.149a1.017,1.017,0,0,0,.334.782A1.3,1.3,0,0,0,21.7-1.767Zm9.191-10.081V-9.51h1.626v1.863H30.888V-2.9a1.133,1.133,0,0,0,.2.756,1.015,1.015,0,0,0,.773.229,4.051,4.051,0,0,0,.747-.062V-.053a5.229,5.229,0,0,1-1.538.229,2.425,2.425,0,0,1-2.725-2.7V-7.646H26.96V-9.51h1.389v-2.338Zm2.292,7a5.64,5.64,0,0,1,.545-2.522,3.989,3.989,0,0,1,1.569-1.714,4.577,4.577,0,0,1,2.377-.606,4.33,4.33,0,0,1,3.142,1.178,4.727,4.727,0,0,1,1.358,3.2l.018.65a4.97,4.97,0,0,1-1.222,3.511A4.247,4.247,0,0,1,37.689.176a4.268,4.268,0,0,1-3.283-1.318A5.058,5.058,0,0,1,33.18-4.729Zm2.54.18a3.555,3.555,0,0,0,.51,2.073,1.682,1.682,0,0,0,1.459.717,1.686,1.686,0,0,0,1.441-.709,3.89,3.89,0,0,0,.519-2.267,3.519,3.519,0,0,0-.519-2.06,1.686,1.686,0,0,0-1.459-.731,1.658,1.658,0,0,0-1.441.726A3.955,3.955,0,0,0,35.72-4.662Z" transform="translate(986 10169.725) rotate(-90)"/>
      <path id="Path_832571" data-name="Path 832571" d="M-30.484-4.263a4.528,4.528,0,0,1-1.525,3.252A5.355,5.355,0,0,1-35.635.176a4.816,4.816,0,0,1-3.872-1.657,6.793,6.793,0,0,1-1.411-4.548v-.782a7.671,7.671,0,0,1,.65-3.252,4.874,4.874,0,0,1,1.859-2.158,5.207,5.207,0,0,1,2.808-.751,5.217,5.217,0,0,1,3.568,1.187,4.866,4.866,0,0,1,1.564,3.331H-33.1a2.673,2.673,0,0,0-.69-1.8,2.555,2.555,0,0,0-1.806-.558,2.24,2.24,0,0,0-1.973.945,5.3,5.3,0,0,0-.672,2.931v.967a5.667,5.667,0,0,0,.628,3.032,2.2,2.2,0,0,0,1.982.958,2.6,2.6,0,0,0,1.824-.558,2.521,2.521,0,0,0,.69-1.727ZM-26.329,0h-2.549V-13.5h2.549Zm1.606-4.843a5.64,5.64,0,0,1,.545-2.522,3.989,3.989,0,0,1,1.569-1.714,4.577,4.577,0,0,1,2.377-.606,4.33,4.33,0,0,1,3.142,1.178,4.727,4.727,0,0,1,1.358,3.2l.018.65a4.97,4.97,0,0,1-1.222,3.511A4.247,4.247,0,0,1-20.214.176,4.268,4.268,0,0,1-23.5-1.143a5.058,5.058,0,0,1-1.226-3.586Zm2.54.18a3.555,3.555,0,0,0,.51,2.073,1.682,1.682,0,0,0,1.459.717,1.686,1.686,0,0,0,1.441-.709,3.89,3.89,0,0,0,.519-2.267,3.519,3.519,0,0,0-.519-2.06,1.686,1.686,0,0,0-1.459-.731,1.658,1.658,0,0,0-1.441.726A3.955,3.955,0,0,0-22.183-4.662ZM-8.9-7.128A6.9,6.9,0,0,0-9.81-7.2a1.86,1.86,0,0,0-1.89.976V0h-2.54V-9.51h2.4l.07,1.134a2.354,2.354,0,0,1,2.118-1.31,2.662,2.662,0,0,1,.791.114Zm.42,2.285a5.64,5.64,0,0,1,.545-2.522A3.989,3.989,0,0,1-6.362-9.079a4.577,4.577,0,0,1,2.377-.606A4.33,4.33,0,0,1-.843-8.508a4.727,4.727,0,0,1,1.358,3.2l.018.65A4.97,4.97,0,0,1-.689-1.147,4.247,4.247,0,0,1-3.967.176,4.268,4.268,0,0,1-7.25-1.143,5.058,5.058,0,0,1-8.476-4.729Zm2.54.18a3.555,3.555,0,0,0,.51,2.073,1.682,1.682,0,0,0,1.459.717,1.686,1.686,0,0,0,1.441-.709,3.89,3.89,0,0,0,.519-2.267,3.519,3.519,0,0,0-.519-2.06,1.686,1.686,0,0,0-1.459-.731,1.658,1.658,0,0,0-1.441.726A3.955,3.955,0,0,0-5.936-4.662ZM2.7,0V-7.646H1.287V-9.51H2.7v-.809A3.283,3.283,0,0,1,3.62-12.8a3.557,3.557,0,0,1,2.571-.883,5.938,5.938,0,0,1,1.292.176L7.456-11.54a3.238,3.238,0,0,0-.773-.079q-1.433,0-1.433,1.345v.765H7.14v1.863H5.25V0Zm9.833.176A4.668,4.668,0,0,1,9.129-1.107,4.561,4.561,0,0,1,7.815-4.526v-.246a5.745,5.745,0,0,1,.554-2.562,4.064,4.064,0,0,1,1.569-1.74,4.4,4.4,0,0,1,2.316-.611,3.947,3.947,0,0,1,3.072,1.23,5,5,0,0,1,1.121,3.489v1.037H10.39a2.36,2.36,0,0,0,.743,1.494,2.245,2.245,0,0,0,1.569.563A2.742,2.742,0,0,0,15-2.936l1.248,1.4A3.813,3.813,0,0,1,14.7-.277,5.075,5.075,0,0,1,12.534.176Zm-.29-7.813a1.587,1.587,0,0,0-1.226.512,2.651,2.651,0,0,0-.6,1.466h3.533v-.2a1.891,1.891,0,0,0-.457-1.311A1.638,1.638,0,0,0,12.244-7.638Zm7.89-1.872.079,1.1a3.32,3.32,0,0,1,2.733-1.274A2.759,2.759,0,0,1,25.2-8.8a4.142,4.142,0,0,1,.756,2.654V0h-2.54V-6.082a1.648,1.648,0,0,0-.352-1.173,1.574,1.574,0,0,0-1.169-.365,1.747,1.747,0,0,0-1.608.914V0h-2.54V-9.51Zm7.258,4.667a5.64,5.64,0,0,1,.545-2.522,3.989,3.989,0,0,1,1.569-1.714,4.577,4.577,0,0,1,2.377-.606,4.33,4.33,0,0,1,3.142,1.178,4.727,4.727,0,0,1,1.358,3.2l.018.65A4.97,4.97,0,0,1,35.18-1.147,4.247,4.247,0,0,1,31.9.176a4.268,4.268,0,0,1-3.283-1.318,5.058,5.058,0,0,1-1.226-3.586Zm2.54.18a3.555,3.555,0,0,0,.51,2.073,1.682,1.682,0,0,0,1.459.717,1.686,1.686,0,0,0,1.441-.709,3.89,3.89,0,0,0,.519-2.267,3.519,3.519,0,0,0-.519-2.06,1.686,1.686,0,0,0-1.459-.731,1.658,1.658,0,0,0-1.441.726A3.955,3.955,0,0,0,29.933-4.662ZM40.556,0H38.008V-13.5h2.549Z" transform="translate(1048 10169.725) rotate(-90)"/>
      <path id="Path_832572" data-name="Path 832572" d="M-24.154-5.546h-5.062v3.428h5.941V0h-8.578V-12.8h8.561v2.136h-5.924v3.05h5.063Zm7.319,2.918a.818.818,0,0,0-.461-.734,5.241,5.241,0,0,0-1.481-.479q-3.393-.712-3.393-2.883a2.613,2.613,0,0,1,1.05-2.114,4.237,4.237,0,0,1,2.747-.848,4.56,4.56,0,0,1,2.9.853,2.687,2.687,0,0,1,1.085,2.215h-2.54a1.229,1.229,0,0,0-.352-.9,1.488,1.488,0,0,0-1.1-.356,1.52,1.52,0,0,0-.993.29.916.916,0,0,0-.352.738.783.783,0,0,0,.4.681,4.114,4.114,0,0,0,1.349.448,11.019,11.019,0,0,1,1.6.426,2.628,2.628,0,0,1,2.013,2.558,2.481,2.481,0,0,1-1.116,2.1,4.815,4.815,0,0,1-2.883.8A5.029,5.029,0,0,1-20.486-.25a3.561,3.561,0,0,1-1.455-1.169,2.716,2.716,0,0,1-.527-1.6h2.408a1.326,1.326,0,0,0,.5,1.037,1.987,1.987,0,0,0,1.248.36,1.839,1.839,0,0,0,1.1-.277A.861.861,0,0,0-16.835-2.628Zm7.056-9.22V-9.51h1.626v1.863H-9.779V-2.9a1.133,1.133,0,0,0,.2.756,1.015,1.015,0,0,0,.773.229,4.051,4.051,0,0,0,.747-.062V-.053A5.229,5.229,0,0,1-9.594.176a2.425,2.425,0,0,1-2.725-2.7V-7.646h-1.389V-9.51h1.389v-2.338ZM-4.147,0H-6.7V-9.51h2.549Zm-2.7-11.971a1.251,1.251,0,0,1,.382-.94,1.436,1.436,0,0,1,1.042-.369,1.44,1.44,0,0,1,1.037.369,1.244,1.244,0,0,1,.387.94,1.247,1.247,0,0,1-.391.949,1.443,1.443,0,0,1-1.033.369,1.443,1.443,0,0,1-1.033-.369A1.247,1.247,0,0,1-6.846-11.971ZM3.2-7.128a6.9,6.9,0,0,0-.914-.07,1.86,1.86,0,0,0-1.89.976V0h-2.54V-9.51h2.4l.07,1.134a2.354,2.354,0,0,1,2.118-1.31,2.662,2.662,0,0,1,.791.114ZM8.54.176A4.668,4.668,0,0,1,5.134-1.107,4.561,4.561,0,0,1,3.82-4.526v-.246a5.745,5.745,0,0,1,.554-2.562,4.064,4.064,0,0,1,1.569-1.74,4.4,4.4,0,0,1,2.316-.611,3.947,3.947,0,0,1,3.072,1.23,5,5,0,0,1,1.121,3.489v1.037H6.4a2.36,2.36,0,0,0,.743,1.494,2.245,2.245,0,0,0,1.569.563A2.742,2.742,0,0,0,11-2.936l1.248,1.4A3.813,3.813,0,0,1,10.7-.277,5.075,5.075,0,0,1,8.54.176ZM8.25-7.638a1.587,1.587,0,0,0-1.226.512,2.651,2.651,0,0,0-.6,1.466H9.955v-.2A1.891,1.891,0,0,0,9.5-7.174,1.638,1.638,0,0,0,8.25-7.638ZM16.14-9.51l.079,1.1a3.32,3.32,0,0,1,2.733-1.274A2.759,2.759,0,0,1,21.2-8.8a4.142,4.142,0,0,1,.756,2.654V0h-2.54V-6.082a1.648,1.648,0,0,0-.352-1.173A1.574,1.574,0,0,0,17.9-7.62a1.747,1.747,0,0,0-1.608.914V0H13.75V-9.51ZM23.4-4.843a5.64,5.64,0,0,1,.545-2.522,3.989,3.989,0,0,1,1.569-1.714,4.577,4.577,0,0,1,2.377-.606,4.33,4.33,0,0,1,3.142,1.178,4.727,4.727,0,0,1,1.358,3.2l.018.65a4.97,4.97,0,0,1-1.222,3.511A4.247,4.247,0,0,1,27.907.176a4.268,4.268,0,0,1-3.283-1.318A5.058,5.058,0,0,1,23.4-4.729Zm2.54.18a3.555,3.555,0,0,0,.51,2.073,1.682,1.682,0,0,0,1.459.717,1.686,1.686,0,0,0,1.441-.709,3.89,3.89,0,0,0,.519-2.267,3.519,3.519,0,0,0-.519-2.06,1.686,1.686,0,0,0-1.459-.731,1.658,1.658,0,0,0-1.441.726A3.955,3.955,0,0,0,25.938-4.662Z" transform="translate(1108 10169.725) rotate(-90)"/>
      <path id="Path_832573" data-name="Path 832573" d="M-44.974-10.661h-3.92V0h-2.637V-10.661H-55.4V-12.8h10.424Zm6.018,3.533a6.9,6.9,0,0,0-.914-.07,1.86,1.86,0,0,0-1.89.976V0H-44.3V-9.51h2.4l.07,1.134a2.354,2.354,0,0,1,2.118-1.31,2.662,2.662,0,0,1,.791.114ZM-35.143,0h-2.549V-9.51h2.549Zm-2.7-11.971a1.251,1.251,0,0,1,.382-.94,1.436,1.436,0,0,1,1.042-.369,1.44,1.44,0,0,1,1.037.369,1.244,1.244,0,0,1,.387.94,1.247,1.247,0,0,1-.391.949,1.443,1.443,0,0,1-1.033.369,1.443,1.443,0,0,1-1.033-.369A1.247,1.247,0,0,1-37.842-11.971ZM-30.76-9.51l.079,1.063a3.342,3.342,0,0,1,2.733-1.239,2.536,2.536,0,0,1,2.522,1.45,3.265,3.265,0,0,1,2.856-1.45,2.836,2.836,0,0,1,2.3.9,4.141,4.141,0,0,1,.756,2.711V0h-2.549V-6.064a1.811,1.811,0,0,0-.316-1.182,1.4,1.4,0,0,0-1.116-.374,1.585,1.585,0,0,0-1.582,1.09L-25.064,0H-27.6V-6.056a1.789,1.789,0,0,0-.325-1.2,1.416,1.416,0,0,0-1.107-.369,1.646,1.646,0,0,0-1.564.9V0h-2.54V-9.51ZM-13.272.176a4.668,4.668,0,0,1-3.406-1.283,4.561,4.561,0,0,1-1.314-3.419v-.246a5.745,5.745,0,0,1,.554-2.562,4.064,4.064,0,0,1,1.569-1.74,4.4,4.4,0,0,1,2.316-.611,3.947,3.947,0,0,1,3.072,1.23A5,5,0,0,1-9.361-4.966v1.037h-6.056a2.36,2.36,0,0,0,.743,1.494,2.245,2.245,0,0,0,1.569.563,2.742,2.742,0,0,0,2.294-1.063l1.248,1.4A3.813,3.813,0,0,1-11.11-.277,5.075,5.075,0,0,1-13.272.176Zm-.29-7.813a1.587,1.587,0,0,0-1.226.512,2.651,2.651,0,0,0-.6,1.466h3.533v-.2a1.891,1.891,0,0,0-.457-1.311A1.638,1.638,0,0,0-13.562-7.638Zm8.594-4.21V-9.51h1.626v1.863H-4.968V-2.9a1.133,1.133,0,0,0,.2.756,1.015,1.015,0,0,0,.773.229,4.051,4.051,0,0,0,.747-.062V-.053A5.229,5.229,0,0,1-4.784.176a2.425,2.425,0,0,1-2.725-2.7V-7.646H-8.9V-9.51h1.389v-2.338ZM.664,0H-1.885V-9.51H.664Zm-2.7-11.971a1.251,1.251,0,0,1,.382-.94A1.436,1.436,0,0,1-.611-13.28a1.44,1.44,0,0,1,1.037.369,1.244,1.244,0,0,1,.387.94,1.247,1.247,0,0,1-.391.949,1.443,1.443,0,0,1-1.033.369,1.443,1.443,0,0,1-1.033-.369A1.247,1.247,0,0,1-2.035-11.971ZM5.346,0H2.8V-13.5H5.346Zm7.513,0A2.821,2.821,0,0,1,12.6-.853,3.073,3.073,0,0,1,10.2.176,3.376,3.376,0,0,1,7.888-.633,2.6,2.6,0,0,1,6.97-2.672,2.687,2.687,0,0,1,8.09-4.992a5.529,5.529,0,0,1,3.239-.817H12.5v-.545a1.567,1.567,0,0,0-.338-1.055,1.331,1.331,0,0,0-1.068-.4,1.513,1.513,0,0,0-1.006.308,1.045,1.045,0,0,0-.365.844H7.181a2.551,2.551,0,0,1,.51-1.529,3.37,3.37,0,0,1,1.441-1.1,5.253,5.253,0,0,1,2.092-.4,4.15,4.15,0,0,1,2.791.883,3.09,3.09,0,0,1,1.033,2.483V-2.2a4.546,4.546,0,0,0,.378,2.048V0Zm-2.1-1.767a2.188,2.188,0,0,0,1.037-.25,1.645,1.645,0,0,0,.7-.672V-4.324h-.949q-1.907,0-2.03,1.318l-.009.149a1.017,1.017,0,0,0,.334.782A1.3,1.3,0,0,0,10.758-1.767ZM19.29-9.51l.079,1.063A3.342,3.342,0,0,1,22.1-9.686a2.536,2.536,0,0,1,2.522,1.45,3.265,3.265,0,0,1,2.856-1.45,2.836,2.836,0,0,1,2.3.9,4.141,4.141,0,0,1,.756,2.711V0H27.991V-6.064a1.811,1.811,0,0,0-.316-1.182,1.4,1.4,0,0,0-1.116-.374,1.585,1.585,0,0,0-1.582,1.09L24.985,0h-2.54V-6.056a1.789,1.789,0,0,0-.325-1.2,1.416,1.416,0,0,0-1.107-.369,1.646,1.646,0,0,0-1.564.9V0h-2.54V-9.51ZM35.082,0H32.533V-9.51h2.549Zm-2.7-11.971a1.251,1.251,0,0,1,.382-.94,1.436,1.436,0,0,1,1.042-.369,1.44,1.44,0,0,1,1.037.369,1.244,1.244,0,0,1,.387.94,1.247,1.247,0,0,1-.391.949,1.443,1.443,0,0,1-1.033.369,1.443,1.443,0,0,1-1.033-.369A1.247,1.247,0,0,1,32.384-11.971ZM39.422-9.51l.079,1.1a3.32,3.32,0,0,1,2.733-1.274,2.759,2.759,0,0,1,2.25.888,4.142,4.142,0,0,1,.756,2.654V0H42.7V-6.082a1.648,1.648,0,0,0-.352-1.173,1.574,1.574,0,0,0-1.169-.365,1.747,1.747,0,0,0-1.608.914V0h-2.54V-9.51ZM52.585,0a2.821,2.821,0,0,1-.255-.853,3.073,3.073,0,0,1-2.4,1.028,3.376,3.376,0,0,1-2.316-.809A2.6,2.6,0,0,1,46.7-2.672a2.687,2.687,0,0,1,1.121-2.32,5.529,5.529,0,0,1,3.239-.817h1.169v-.545a1.567,1.567,0,0,0-.338-1.055,1.331,1.331,0,0,0-1.068-.4,1.513,1.513,0,0,0-1.006.308,1.045,1.045,0,0,0-.365.844h-2.54a2.551,2.551,0,0,1,.51-1.529,3.37,3.37,0,0,1,1.441-1.1,5.253,5.253,0,0,1,2.092-.4,4.15,4.15,0,0,1,2.791.883,3.09,3.09,0,0,1,1.033,2.483V-2.2a4.546,4.546,0,0,0,.378,2.048V0Zm-2.1-1.767a2.188,2.188,0,0,0,1.037-.25,1.645,1.645,0,0,0,.7-.672V-4.324h-.949q-1.907,0-2.03,1.318l-.009.149a1.017,1.017,0,0,0,.334.782A1.3,1.3,0,0,0,50.485-1.767Z" transform="translate(1165 10169.725) rotate(-90)"/>
      <path id="Path_832574" data-name="Path 832574" d="M-16.084,0h-2.637V-12.8h2.637Zm4.524-9.51.079,1.1A3.32,3.32,0,0,1-8.747-9.686,2.759,2.759,0,0,1-6.5-8.8a4.142,4.142,0,0,1,.756,2.654V0h-2.54V-6.082a1.648,1.648,0,0,0-.352-1.173A1.574,1.574,0,0,0-9.8-7.62a1.747,1.747,0,0,0-1.608.914V0h-2.54V-9.51ZM-4.3-4.825a5.731,5.731,0,0,1,1-3.542A3.237,3.237,0,0,1-.576-9.686,2.913,2.913,0,0,1,1.718-8.648V-13.5H4.267V0H1.973L1.85-1.011A2.989,2.989,0,0,1-.593.176,3.228,3.228,0,0,1-3.287-1.147,5.916,5.916,0,0,1-4.3-4.825Zm2.54.189A3.754,3.754,0,0,0-1.3-2.585a1.517,1.517,0,0,0,1.354.713,1.7,1.7,0,0,0,1.661-.995V-6.625A1.675,1.675,0,0,0,.075-7.62Q-1.762-7.62-1.762-4.636ZM5.75-4.843A5.64,5.64,0,0,1,6.3-7.365,3.989,3.989,0,0,1,7.864-9.079a4.577,4.577,0,0,1,2.377-.606,4.33,4.33,0,0,1,3.142,1.178,4.727,4.727,0,0,1,1.358,3.2l.018.65a4.97,4.97,0,0,1-1.222,3.511A4.247,4.247,0,0,1,10.259.176,4.268,4.268,0,0,1,6.976-1.143,5.058,5.058,0,0,1,5.75-4.729Zm2.54.18A3.555,3.555,0,0,0,8.8-2.589a1.682,1.682,0,0,0,1.459.717A1.686,1.686,0,0,0,11.7-2.581a3.89,3.89,0,0,0,.519-2.267,3.519,3.519,0,0,0-.519-2.06,1.686,1.686,0,0,0-1.459-.731A1.658,1.658,0,0,0,8.8-6.911,3.955,3.955,0,0,0,8.29-4.662ZM18.914,0H16.365V-13.5h2.549Z" transform="translate(1232 10169.725) rotate(-90)"/>
      <path id="Path_832575" data-name="Path 832575" d="M-22.366-3.357A1.353,1.353,0,0,0-22.894-4.5a6.917,6.917,0,0,0-1.9-.844,13.458,13.458,0,0,1-2.171-.875A3.547,3.547,0,0,1-29.143-9.4a3.09,3.09,0,0,1,.584-1.85,3.812,3.812,0,0,1,1.679-1.27,6.318,6.318,0,0,1,2.457-.457,5.751,5.751,0,0,1,2.443.5,3.891,3.891,0,0,1,1.666,1.4,3.668,3.668,0,0,1,.593,2.057h-2.637a1.726,1.726,0,0,0-.554-1.367,2.276,2.276,0,0,0-1.556-.488,2.432,2.432,0,0,0-1.5.409,1.289,1.289,0,0,0-.536,1.077,1.235,1.235,0,0,0,.628,1.046,7.1,7.1,0,0,0,1.85.791,7.994,7.994,0,0,1,3.278,1.679,3.343,3.343,0,0,1,1.028,2.5A3.08,3.08,0,0,1-20.978-.769a5.5,5.5,0,0,1-3.384.945,6.534,6.534,0,0,1-2.689-.541A4.256,4.256,0,0,1-28.9-1.846a3.793,3.793,0,0,1-.637-2.18h2.646q0,2.118,2.531,2.118a2.462,2.462,0,0,0,1.468-.382A1.244,1.244,0,0,0-22.366-3.357Zm7.627-.457-.914.914V0h-2.54V-13.5h2.54v7.479l.492-.633,2.435-2.856h3.05l-3.437,3.964L-9.378,0H-12.3ZM-3.158,0a2.821,2.821,0,0,1-.255-.853A3.073,3.073,0,0,1-5.812.176,3.376,3.376,0,0,1-8.128-.633a2.6,2.6,0,0,1-.918-2.039,2.687,2.687,0,0,1,1.121-2.32A5.529,5.529,0,0,1-4.687-5.81h1.169v-.545a1.567,1.567,0,0,0-.338-1.055,1.331,1.331,0,0,0-1.068-.4A1.513,1.513,0,0,0-5.931-7.5a1.045,1.045,0,0,0-.365.844h-2.54a2.551,2.551,0,0,1,.51-1.529,3.37,3.37,0,0,1,1.441-1.1,5.253,5.253,0,0,1,2.092-.4A4.15,4.15,0,0,1-2-8.8,3.09,3.09,0,0,1-.969-6.319V-2.2A4.546,4.546,0,0,0-.591-.149V0Zm-2.1-1.767a2.188,2.188,0,0,0,1.037-.25,1.645,1.645,0,0,0,.7-.672V-4.324h-.949q-1.907,0-2.03,1.318l-.009.149a1.017,1.017,0,0,0,.334.782A1.3,1.3,0,0,0-5.258-1.767ZM3.933-11.848V-9.51H5.559v1.863H3.933V-2.9a1.133,1.133,0,0,0,.2.756,1.015,1.015,0,0,0,.773.229,4.051,4.051,0,0,0,.747-.062V-.053A5.229,5.229,0,0,1,4.118.176a2.425,2.425,0,0,1-2.725-2.7V-7.646H0V-9.51H1.393v-2.338Zm2.292,7A5.64,5.64,0,0,1,6.77-7.365,3.989,3.989,0,0,1,8.339-9.079a4.577,4.577,0,0,1,2.377-.606,4.33,4.33,0,0,1,3.142,1.178,4.727,4.727,0,0,1,1.358,3.2l.018.65a4.97,4.97,0,0,1-1.222,3.511A4.247,4.247,0,0,1,10.734.176,4.268,4.268,0,0,1,7.451-1.143,5.058,5.058,0,0,1,6.225-4.729Zm2.54.18a3.555,3.555,0,0,0,.51,2.073,1.682,1.682,0,0,0,1.459.717,1.686,1.686,0,0,0,1.441-.709,3.89,3.89,0,0,0,.519-2.267,3.519,3.519,0,0,0-.519-2.06,1.686,1.686,0,0,0-1.459-.731,1.658,1.658,0,0,0-1.441.726A3.955,3.955,0,0,0,8.765-4.662ZM19.389,0H16.84V-13.5h2.549Zm6.379.176a4.668,4.668,0,0,1-3.406-1.283,4.561,4.561,0,0,1-1.314-3.419v-.246A5.745,5.745,0,0,1,21.6-7.334a4.064,4.064,0,0,1,1.569-1.74,4.4,4.4,0,0,1,2.316-.611,3.947,3.947,0,0,1,3.072,1.23,5,5,0,0,1,1.121,3.489v1.037H23.623a2.36,2.36,0,0,0,.743,1.494,2.245,2.245,0,0,0,1.569.563,2.742,2.742,0,0,0,2.294-1.063l1.248,1.4A3.813,3.813,0,0,1,27.93-.277,5.075,5.075,0,0,1,25.768.176Zm-.29-7.813a1.587,1.587,0,0,0-1.226.512,2.651,2.651,0,0,0-.6,1.466h3.533v-.2a1.891,1.891,0,0,0-.457-1.311A1.638,1.638,0,0,0,25.478-7.638Z" transform="translate(1288 10169.725) rotate(-90)"/>
      <path id="Path_823977" data-name="Path 823977" d="M685,5701.6V7863.875" transform="translate(-229.5 4396.125)" fill="none" stroke="#707070" stroke-width="2"/>
      <path id="Path_831434" data-name="Path 831434" d="M685,5701.6V7863.875" transform="translate(-167.5 4396.125)" fill="none" stroke="#707070" stroke-width="2"/>
      <path id="Path_831435" data-name="Path 831435" d="M685,5701.6V7863.875" transform="translate(-106.5 4396.125)" fill="none" stroke="#707070" stroke-width="2"/>
      <path id="Path_831436" data-name="Path 831436" d="M685,5701.6V7863.875" transform="translate(-44.5 4396.125)" fill="none" stroke="#707070" stroke-width="2"/>
      <path id="Path_831437" data-name="Path 831437" d="M685,5701.6V7863.875" transform="translate(16.5 4396.125)" fill="none" stroke="#707070" stroke-width="2"/>
      <path id="Path_831438" data-name="Path 831438" d="M685,5701.6V7863.875" transform="translate(77.5 4396.125)" fill="none" stroke="#707070" stroke-width="2"/>
      <path id="Path_831439" data-name="Path 831439" d="M685,5701.6V7863.875" transform="translate(139.5 4396.125)" fill="none" stroke="#707070" stroke-width="2"/>
      <path id="Path_831440" data-name="Path 831440" d="M685,5701.6V7863.875" transform="translate(200.5 4396.125)" fill="none" stroke="#707070" stroke-width="2"/>
      <path id="Path_831441" data-name="Path 831441" d="M685,5701.6V7863.875" transform="translate(261.5 4396.125)" fill="none" stroke="#707070" stroke-width="2"/>
      <path id="Path_831442" data-name="Path 831442" d="M685,5701.6V7863.875" transform="translate(323.5 4396.125)" fill="none" stroke="#707070" stroke-width="2"/>
      <path id="Path_831443" data-name="Path 831443" d="M685,5701.6V7863.875" transform="translate(384.5 4396.125)" fill="none" stroke="#707070" stroke-width="2"/>
      <path id="Path_831444" data-name="Path 831444" d="M685,5701.6V7863.875" transform="translate(445.5 4396.125)" fill="none" stroke="#707070" stroke-width="2"/>
      <path id="Path_831445" data-name="Path 831445" d="M685,5701.6V7863.875" transform="translate(507.5 4396.125)" fill="none" stroke="#707070" stroke-width="2"/>
      <path id="Path_831446" data-name="Path 831446" d="M685,5701.6V7863.875" transform="translate(568.5 4396.125)" fill="none" stroke="#707070" stroke-width="2"/>
      <path id="Path_823978" data-name="Path 823978" d="M685,5701.6V7862.884" transform="translate(-400 4396.126)" fill="none" stroke="#707070" stroke-width="2"/>
      <path id="Path_823979" data-name="Path 823979" d="M685,5701.6V7863.875" transform="translate(630.5 4395.135)" fill="none" stroke="#707070" stroke-width="2"/>
      <path id="Path_823980" data-name="Path 823980" d="M685,5701.6v1030" transform="translate(-5416.598 10926.726) rotate(-90)" fill="none" stroke="#707070" stroke-width="2"/>
      <path id="Path_831447" data-name="Path 831447" d="M685,5701.6v1030" transform="translate(-5416.598 11065.264) rotate(-90)" fill="none" stroke="#707070" stroke-width="2"/>
      <path id="Path_831448" data-name="Path 831448" d="M685,5701.6v1030" transform="translate(-5416.598 11210.264) rotate(-90)" fill="none" stroke="#707070" stroke-width="2"/>
      <path id="Path_831449" data-name="Path 831449" d="M685,5701.6v1030" transform="translate(-5416.598 11322.596) rotate(-90)" fill="none" stroke="#707070" stroke-width="2"/>
      <path id="Path_831450" data-name="Path 831450" d="M685,5701.6v1030" transform="translate(-5416.598 11517.283) rotate(-90)" fill="none" stroke="#707070" stroke-width="2"/>
      <path id="Path_831451" data-name="Path 831451" d="M685,5701.6v1030" transform="translate(-5416.598 11664.431) rotate(-90)" fill="none" stroke="#707070" stroke-width="2"/>
      <path id="Path_831452" data-name="Path 831452" d="M685,5701.6v1030" transform="translate(-5416.598 11807.432) rotate(-90)" fill="none" stroke="#707070" stroke-width="2"/>
      <path id="Path_831453" data-name="Path 831453" d="M685,5701.6v1030" transform="translate(-5416.598 11948.431) rotate(-90)" fill="none" stroke="#707070" stroke-width="2"/>
      <path id="Path_831454" data-name="Path 831454" d="M685,5701.6v1030" transform="translate(-5416.598 12138.782) rotate(-90)" fill="none" stroke="#707070" stroke-width="2"/>
      <path id="Path_831455" data-name="Path 831455" d="M685,5701.6v1030" transform="translate(-5416.598 12223.005) rotate(-90)" fill="none" stroke="#707070" stroke-width="2"/>
      <path id="Path_831456" data-name="Path 831456" d="M685,5701.6v1030" transform="translate(-5416.598 12311.005) rotate(-90)" fill="none" stroke="#707070" stroke-width="2"/>
      <path id="Path_831457" data-name="Path 831457" d="M685,5701.6v1030" transform="translate(-5416.598 12466.809) rotate(-90)" fill="none" stroke="#707070" stroke-width="2"/>
      <path id="Path_831458" data-name="Path 831458" d="M685,5701.6v1030" transform="translate(-5416.598 12577.831) rotate(-90)" fill="none" stroke="#707070" stroke-width="2"/>
      <path id="Path_831459" data-name="Path 831459" d="M685,5701.6v1030" transform="translate(-5416.598 12683.005) rotate(-90)" fill="none" stroke="#707070" stroke-width="2"/>
      <path id="Path_831460" data-name="Path 831460" d="M685,5701.6v1030" transform="translate(-5416.598 12793.831) rotate(-90)" fill="none" stroke="#707070" stroke-width="2"/>
      <path id="Path_823981" data-name="Path 823981" d="M0,0V1030" transform="translate(285 12260) rotate(-90)" fill="none" stroke="#707070" stroke-width="2"/>
      <g id="Group_1078656-2" data-name="Group 1078656" transform="translate(340.14 10428.471)">
        <text id="Rellenos_sanitarios_y_sitios_de_disposicin_de_residuos._Cra_y_sacrificio_de_animales._Industria_de_procesamiento_de_pescado_y_sus_derivados_harina_aceites_concentrados_._Industrias_de_procesamiento_de_cuero" data-name="Rellenos sanitarios y sitios de disposicin de residuos. 														
Cra y sacrificio de animales. 														
Industria de procesamiento de pescado y sus derivados (harina, aceites, concentrados). 														
Industrias de procesamiento de cuero" transform="translate(-30 -22)" fill="#12263f" font-size="16" font-family="Roboto-Regular, Roboto"><tspan x="0" y="15">Rellenos </tspan><tspan x="0" y="39">sanitarios y sitios </tspan><tspan x="0" y="63">de disposicin de </tspan><tspan x="0" y="87" xml:space="preserve">residuos. 														</tspan></text>
      </g>
      <g id="Group_1078657" data-name="Group 1078657" transform="translate(340.14 10558.059)">
        <text id="Cra_y_sacrificio_de_animales._Industria_de_procesamiento_de_pescado_y_sus_derivados_harina_aceites_concentrados_._Industrias_de_procesamiento_de_cueros_curtiembres_._Industrias_de_subproductos_de_origen_animal_y_vegetal." data-name="Cra y sacrificio de animales. 	Industria de procesamiento de pescado y sus derivados (harina, aceites, concentrados). 														
Industrias de procesamiento de cueros (curtiembres). 														
Industrias de subproductos de origen animal y vegetal." transform="translate(-30 2)" fill="#12263f" font-size="16" font-family="Roboto-Regular, Roboto"><tspan x="0" y="15">Cra y sacrificio </tspan><tspan x="0" y="39" xml:space="preserve">de animales. 	</tspan></text>
      </g>
      <g id="Group_1078658" data-name="Group 1078658" transform="translate(340.14 10662.646)">
        <text id="Industria_de_procesamiento_de_pescado_y_sus_derivados_harina_aceites_concentrados_._Industrias_de_procesamiento_de_cueros_curtiembres_._Industrias_de_subproductos_de_origen_animal_y_vegetal._Industria_petroq" data-name="Industria de procesamiento de pescado y sus derivados (harina, aceites, concentrados). 														
Industrias de procesamiento de cueros (curtiembres). 														
Industrias de subproductos de origen animal y vegetal. 														
Industria petroq" transform="translate(-30 2)" fill="#12263f" font-size="16" font-family="Roboto-Regular, Roboto"><tspan x="0" y="15">Industria de </tspan><tspan x="0" y="39">procesamiento </tspan><tspan x="0" y="63">de pescado y sus </tspan><tspan x="0" y="87">derivados (harina, </tspan><tspan x="0" y="111">aceites, </tspan><tspan x="0" y="135" xml:space="preserve">concentrados). 														</tspan></text>
      </g>
      <g id="Group_1078659" data-name="Group 1078659" transform="translate(340.14 10856.234)">
        <text id="Industrias_de_procesamiento_de_cueros_curtiembres_._Industrias_de_subproductos_de_origen_animal_y_vegetal._Industria_petroqumica_y_de_explotacin_de_gas_natural._Industria_de_pulpas_de_madera_y_fabricacin_de_" data-name="Industrias de procesamiento de cueros (curtiembres). 														
Industrias de subproductos de origen animal y vegetal. 														
Industria petroqumica y de explotacin de gas natural. 														
Industria de pulpas de madera y fabricacin de " transform="translate(-30 2)" fill="#12263f" font-size="16" font-family="Roboto-Regular, Roboto"><tspan x="0" y="15">Industrias de </tspan><tspan x="0" y="39">procesamiento </tspan><tspan x="0" y="63">de cueros </tspan><tspan x="0" y="87" xml:space="preserve">(curtiembres). 														</tspan></text>
      </g>
      <g id="Group_1078660" data-name="Group 1078660" transform="translate(340.14 10998.809)">
        <text id="Industrias_de_subproductos_de_origen_animal_y_vegetal._Industria_petroqumica_y_de_explotacin_de_gas_natural._Industria_de_pulpas_de_madera_y_fabricacin_de_papel_cartn_celulosa._Elaboracin_de_productos_lc" data-name="Industrias de subproductos de origen animal y vegetal. 														
Industria petroqumica y de explotacin de gas natural. 														
Industria de pulpas de madera y fabricacin de papel, cartn, celulosa. 														
Elaboracin de productos lc" transform="translate(-30 2)" fill="#12263f" font-size="16" font-family="Roboto-Regular, Roboto"><tspan x="0" y="15">Industrias de </tspan><tspan x="0" y="39">subproductos de </tspan><tspan x="0" y="63">origen animal y </tspan><tspan x="0" y="87" xml:space="preserve">vegetal. 														</tspan></text>
      </g>
      <g id="Group_1078662" data-name="Group 1078662" transform="translate(340.14 11284.809)">
        <text id="Industria_de_pulpas_de_madera_y_fabricacin_de_papel_cartn_celulosa._Elaboracin_de_productos_lcteos._Elaboracin_de_productos_de_caf._Elaboracin_de_aceites_y_grasas_de_origen_animal_y_vegetal_y_sus_derivad" data-name="Industria de pulpas de madera y fabricacin de papel, cartn, celulosa. 														
Elaboracin de productos lcteos.														
Elaboracin de productos de caf. 														
Elaboracin de aceites y grasas de origen animal y vegetal y sus derivad" transform="translate(-30 2)" fill="#12263f" font-size="16" font-family="Roboto-Regular, Roboto"><tspan x="0" y="15">Industria de </tspan><tspan x="0" y="39">pulpas de </tspan><tspan x="0" y="63">madera y </tspan><tspan x="0" y="87">fabricacin de </tspan><tspan x="0" y="111">papel, cartn, </tspan><tspan x="0" y="135" xml:space="preserve">celulosa. 														</tspan></text>
      </g>
      <g id="Group_1078663" data-name="Group 1078663" transform="translate(340.14 11472.809)">
        <text id="Elaboracin_de_productos_lcteos._Elaboracin_de_aceites_y_grasas_de_origen_animal_y_vegetal_y_sus_derivados._Fabricacin_de_resinas_sintticas_y_adhesivos._Fabricacin_de_antispticos_y_plaguicidas._" data-name="Elaboracin de productos lcteos.														
Elaboracin de aceites y grasas de origen animal y vegetal y sus derivados. 														
Fabricacin de resinas sintticas y adhesivos. 														
Fabricacin de antispticos y plaguicidas. 												" transform="translate(-30 2)" fill="#12263f" font-size="16" font-family="Roboto-Regular, Roboto"><tspan x="0" y="15">Elaboracin de </tspan><tspan x="0" y="39" xml:space="preserve">productos lcteos.														</tspan></text>
      </g>
      <g id="Group_1078664" data-name="Group 1078664" transform="translate(340.14 11552.896)">
        <text id="Elaboracin_de_productos_de_caf._Elaboracin_de_aceites_y_grasas_de_origen_animal_y_vegetal_y_sus_derivados._Fabricacin_de_resinas_sintticas_y_adhesivos._Fabricacin_de_antispticos_y_plaguicidas._" data-name="Elaboracin de productos de caf. 														
Elaboracin de aceites y grasas de origen animal y vegetal y sus derivados. 														
Fabricacin de resinas sintticas y adhesivos. 														
Fabricacin de antispticos y plaguicidas. 											" transform="translate(-30 2)" fill="#12263f" font-size="16" font-family="Roboto-Regular, Roboto"><tspan x="0" y="15">Elaboracin de </tspan><tspan x="0" y="39" xml:space="preserve">productos de caf. 														</tspan></text>
      </g>
      <g id="Group_1078666" data-name="Group 1078666" transform="translate(340.14 11801.896)">
        <text id="Fabricacin_de_resinas_sintticas_y_adhesivos._Fabricacin_de_antispticos_y_plaguicidas._Fabricacin_de_plsticos_y_cauchos._Fabricacin_de_abonos_y_compuestos_orgnicos_nitrogenados._" data-name="Fabricacin de resinas sintticas y adhesivos. 														
Fabricacin de antispticos y plaguicidas. 														
Fabricacin de plsticos y cauchos. 														
Fabricacin de abonos y compuestos orgnicos nitrogenados. 														
" transform="translate(-30 2)" fill="#12263f" font-size="16" font-family="Roboto-Regular, Roboto"><tspan x="0" y="15">Fabricacin de </tspan><tspan x="0" y="39">resinas sintticas </tspan><tspan x="0" y="63" xml:space="preserve">y adhesivos. 														</tspan></text>
      </g>
      <g id="Group_1078667" data-name="Group 1078667" transform="translate(340.14 11910.896)">
        <text id="Fabricacin_de_antispticos_y_plaguicidas._Fabricacin_de_plsticos_y_cauchos._Fabricacin_de_abonos_y_compuestos_orgnicos_nitrogenados._" data-name="Fabricacin de antispticos y plaguicidas. 														
Fabricacin de plsticos y cauchos. 														
Fabricacin de abonos y compuestos orgnicos nitrogenados. 														
" transform="translate(-30 2)" fill="#12263f" font-size="16" font-family="Roboto-Regular, Roboto"><tspan x="0" y="15">Fabricacin de </tspan><tspan x="0" y="39">antispticos y </tspan><tspan x="0" y="63" xml:space="preserve">plaguicidas. 														</tspan></text>
      </g>
      <g id="Group_1078669" data-name="Group 1078669" transform="translate(340.14 12120.896)">
        <text id="Fabricacin_de_abonos_y_compuestos_orgnicos_nitrogenados._" data-name="Fabricacin de abonos y compuestos orgnicos nitrogenados. 														
" transform="translate(-30 2)" fill="#12263f" font-size="16" font-family="Roboto-Regular, Roboto"><tspan x="0" y="15">Fabricacin de </tspan><tspan x="0" y="39">abonos y </tspan><tspan x="0" y="63">compuestos </tspan><tspan x="0" y="87">orgnicos </tspan><tspan x="0" y="111" xml:space="preserve">nitrogenados. 														</tspan></text>
      </g>
      <g id="Group_1078668" data-name="Group 1078668" transform="translate(340.14 12019.896)">
        <text id="Fabricacin_de_plsticos_y_cauchos._Fabricacin_de_abonos_y_compuestos_orgnicos_nitrogenados._" data-name="Fabricacin de plsticos y cauchos. 														
Fabricacin de abonos y compuestos orgnicos nitrogenados. 														
" transform="translate(-30 2)" fill="#12263f" font-size="16" font-family="Roboto-Regular, Roboto"><tspan x="0" y="15">Fabricacin de </tspan><tspan x="0" y="39">plsticos y </tspan><tspan x="0" y="63" xml:space="preserve">cauchos. 														</tspan></text>
      </g>
      <g id="Group_1078665" data-name="Group 1078665" transform="translate(340.14 11642.896)">
        <text id="Elaboracin_de_aceites_y_grasas_de_origen_animal_y_vegetal_y_sus_derivados._Fabricacin_de_resinas_sintticas_y_adhesivos._Fabricacin_de_antispticos_y_plaguicidas._Fabricacin_de_plsticos_y_cauchos._" data-name="Elaboracin de aceites y grasas de origen animal y vegetal y sus derivados. 														
Fabricacin de resinas sintticas y adhesivos. 														
Fabricacin de antispticos y plaguicidas. 														
Fabricacin de plsticos y cauchos. 									" transform="translate(-30 2)" fill="#12263f" font-size="16" font-family="Roboto-Regular, Roboto"><tspan x="0" y="15">Elaboracin de </tspan><tspan x="0" y="39">aceites y grasas </tspan><tspan x="0" y="63">de origen animal y </tspan><tspan x="0" y="87">vegetal y sus </tspan><tspan x="0" y="111" xml:space="preserve">derivados. 														</tspan></text>
      </g>
      <g id="Group_1078661" data-name="Group 1078661" transform="translate(340.14 11141.809)">
        <text id="Industria_petroqumica_y_de_explotacin_de_gas_natural._Industria_de_pulpas_de_madera_y_fabricacin_de_papel_cartn_celulosa._Elaboracin_de_productos_lcteos._Elaboracin_de_productos_de_caf._E" data-name="Industria petroqumica y de explotacin de gas natural. 														
Industria de pulpas de madera y fabricacin de papel, cartn, celulosa. 														
Elaboracin de productos lcteos.														
Elaboracin de productos de caf. 														
E" transform="translate(-30 2)" fill="#12263f" font-size="16" font-family="Roboto-Regular, Roboto"><tspan x="0" y="15">Industria </tspan><tspan x="0" y="39">petroqumica y </tspan><tspan x="0" y="63">de explotacin de </tspan><tspan x="0" y="87" xml:space="preserve">gas natural. 														</tspan></text>
      </g>
    </g>
  </g>
</svg>
