<svg xmlns="http://www.w3.org/2000/svg" xmlns:xlink="http://www.w3.org/1999/xlink" width="452" height="287" viewBox="0 0 452 287">
  <defs>
    <clipPath id="clip-path">
      <rect id="Rectangle_381352" data-name="Rectangle 381352" width="343" height="223" transform="translate(180.292 387)" fill="#fff" stroke="#707070" stroke-width="1"/>
    </clipPath>
    <clipPath id="clip-path-2">
      <rect id="Rectangle_381351" data-name="Rectangle 381351" width="356.499" height="408.563" fill="none"/>
    </clipPath>
    <clipPath id="clip-path-3">
      <rect id="Rectangle_381350" data-name="Rectangle 381350" width="352.217" height="271.564" fill="none"/>
    </clipPath>
    <clipPath id="clip-path-4">
      <rect id="Rectangle_381346" data-name="Rectangle 381346" width="60.798" height="81.388" fill="none"/>
    </clipPath>
    <clipPath id="clip-path-5">
      <rect id="Rectangle_381347" data-name="Rectangle 381347" width="62.047" height="46.485" fill="none"/>
    </clipPath>
  </defs>
  <g id="Group_1079123" data-name="Group 1079123" transform="translate(-183 -414)">
    <rect id="Rectangle_381066" data-name="Rectangle 381066" width="452" height="287" transform="translate(183 414)" fill="#f3f9ff"/>
    <g id="Mask_Group_473" data-name="Mask Group 473" transform="translate(34.708 59)" clip-path="url(#clip-path)">
      <g id="Group_1078765" data-name="Group 1078765" transform="translate(180 336.364)">
        <g id="Group_1078764" data-name="Group 1078764" clip-path="url(#clip-path-2)">
          <rect id="Rectangle_381329" data-name="Rectangle 381329" width="64.619" height="78.382" transform="translate(263.329 71.873)" fill="#ebebeb"/>
          <rect id="Rectangle_381330" data-name="Rectangle 381330" width="49.851" height="64.075" transform="translate(270.713 79.027)" fill="#fff"/>
          <rect id="Rectangle_381331" data-name="Rectangle 381331" width="1.946" height="64.075" transform="translate(270.712 79.027)" fill="#c7c7c7"/>
          <rect id="Rectangle_381332" data-name="Rectangle 381332" width="1.946" height="78.382" transform="translate(327.948 71.873)" fill="#c7c7c7"/>
          <rect id="Rectangle_381333" data-name="Rectangle 381333" width="11.754" height="35.02" transform="translate(287.419 93.844)" fill="#dbdbdb"/>
          <rect id="Rectangle_381334" data-name="Rectangle 381334" width="31.343" height="17.158" transform="translate(282.291 87.861)" fill="none" stroke="#ebebeb" stroke-miterlimit="10" stroke-width="1"/>
          <rect id="Rectangle_381335" data-name="Rectangle 381335" width="78.382" height="64.619" transform="translate(255.819 248.776) rotate(-77.837)" fill="#ebebeb"/>
          <rect id="Rectangle_381336" data-name="Rectangle 381336" width="64.074" height="49.851" transform="matrix(0.211, -0.978, 0.978, 0.211, 264.545, 243.34)" fill="#fff"/>
          <rect id="Rectangle_381337" data-name="Rectangle 381337" width="64.074" height="1.945" transform="translate(264.539 243.338) rotate(-77.828)" fill="#c7c7c7"/>
          <rect id="Rectangle_381338" data-name="Rectangle 381338" width="78.382" height="1.945" transform="translate(318.998 262.394) rotate(-77.853)" fill="#c7c7c7"/>
          <rect id="Rectangle_381339" data-name="Rectangle 381339" width="25.462" height="10.07" transform="translate(288.838 226.019) rotate(-77.838)" fill="#ebebeb"/>
          <rect id="Rectangle_381340" data-name="Rectangle 381340" width="17.552" height="27.052" transform="translate(281.008 232.07) rotate(-77.838)" fill="none" stroke="#dbdbdb" stroke-miterlimit="10" stroke-width="1"/>
          <path id="Path_831596" data-name="Path 831596" d="M15.1,83.834V283.449H20.33V89.066H159.689V283.449h5.23V83.834Z" transform="translate(-2.141 -11.885)" fill="#ebebeb"/>
          <rect id="Rectangle_381341" data-name="Rectangle 381341" width="5.232" height="193.017" transform="translate(85.253 78.547)" fill="#ebebeb"/>
          <rect id="Rectangle_381342" data-name="Rectangle 381342" width="139.358" height="5.231" transform="translate(18.189 163.373)" fill="#ebebeb"/>
          <path id="Path_831597" data-name="Path 831597" d="M9.573,99.468l159.305,3.973V96.156H9.573Z" transform="translate(-1.357 -13.632)" fill="#ebebeb"/>
          <path id="Path_831598" data-name="Path 831598" d="M9.573,104.388l159.305,7.945v-7.284L9.573,101.076Z" transform="translate(-1.357 -14.33)" fill="#ebebeb"/>
          <path id="Path_831599" data-name="Path 831599" d="M9.573,109.308l159.305,11.917v-7.284L9.573,106Z" transform="translate(-1.357 -15.027)" fill="#ebebeb"/>
          <path id="Path_831600" data-name="Path 831600" d="M9.573,114.228l159.305,15.89v-7.285L9.573,110.916Z" transform="translate(-1.357 -15.725)" fill="#ebebeb"/>
          <path id="Path_831601" data-name="Path 831601" d="M9.573,119.148l159.305,19.863v-7.285L9.573,115.836Z" transform="translate(-1.357 -16.422)" fill="#ebebeb"/>
          <path id="Path_831602" data-name="Path 831602" d="M9.573,124.068,168.878,147.9v-7.285L9.573,120.756Z" transform="translate(-1.357 -17.12)" fill="#ebebeb"/>
          <path id="Path_831603" data-name="Path 831603" d="M9.573,130.531l159.305,26.483V149.73L9.573,127.219Z" transform="translate(-1.357 -18.036)" fill="#ebebeb"/>
          <path id="Path_831604" data-name="Path 831604" d="M9.573,138.537l159.305,27.807V159.06L9.573,135.225Z" transform="translate(-1.357 -19.171)" fill="#ebebeb"/>
          <path id="Path_831605" data-name="Path 831605" d="M9.573,143.457l159.305,31.78v-7.285L9.573,140.145Z" transform="translate(-1.357 -19.868)" fill="#ebebeb"/>
          <rect id="Rectangle_381343" data-name="Rectangle 381343" width="1.308" height="141.748" transform="translate(23.753 81.046)" fill="#263238"/>
          <path id="Path_831606" data-name="Path 831606" d="M25.73,265.594h4.643l-1.165-6.669H26.894Z" transform="translate(-3.648 -36.708)" fill="#263238"/>
          <rect id="Rectangle_381344" data-name="Rectangle 381344" width="1.308" height="177.508" transform="translate(19.039 81.047)" fill="#263238"/>
          <path id="Path_831607" data-name="Path 831607" d="M20.242,305.877h4.643l-1.165-6.669H21.405Z" transform="translate(-2.87 -42.419)" fill="#263238"/>
          <rect id="Rectangle_381345" data-name="Rectangle 381345" width="175.541" height="15.24" transform="translate(0.098 70.927)" fill="#dbdbdb"/>
          <g id="Group_1078763" data-name="Group 1078763">
            <g id="Group_1078762" data-name="Group 1078762" clip-path="url(#clip-path-3)">
              <path id="Path_831608" data-name="Path 831608" d="M196.646,128.61c2.566-.481,12.9-5.186,23.2,2.261,9.75,7.046,21.186,34.361,24.606,40.011s11.744,3.982,15.925,10.476c3.6,5.585-.128,9.265.861,13.9.766,3.591,5.948,7.678,4.437,13.843-1.375,5.609-6.771,6.256-9.362,8.708s-2.213,10.163-7.267,13.906-11.74.188-14.735,1.189-3.591,11.386-13.672,13.745-15.6-5.036-20.183-5.367-13.85,5.778-20.131,2.213-9.263-10.075-12.159-11.89-7.143-.007-11.606-4.93-.282-10.31-1.14-15.553c-.6-3.652-4.723-5.853-4.264-11.874.632-8.28,10.087-9.6,11.077-18.212.778-6.753-1.947-34.152,11.5-45.45,9.285-7.8,22.915-6.972,22.915-6.972" transform="translate(-21.425 -17.963)" fill="#263238"/>
              <path id="Path_831609" data-name="Path 831609" d="M258.974,176.577a9.24,9.24,0,0,0,3.685,2.446l4.088,1.731a27.77,27.77,0,0,1,7.582,4.151,8.91,8.91,0,0,1,3.352,7.151,13.484,13.484,0,0,1-.957,4.069,15.87,15.87,0,0,0-1.222,4.511,7.608,7.608,0,0,0,1.887,4.489c.9,1.217,1.82,2.348,2.625,3.536,1.633,2.336,2.721,5.038,2.228,7.777a6.042,6.042,0,0,1-1.835,3.508,11.078,11.078,0,0,1-3.646,2.111c-1.347.543-2.767.952-4.174,1.431a7.464,7.464,0,0,0-3.793,2.251,7.886,7.886,0,0,1,3.919-1.821c1.427-.352,2.883-.637,4.323-1.078a11.8,11.8,0,0,0,4.082-2.1,7.249,7.249,0,0,0,2.4-4.064c.8-3.169-.572-6.409-2.225-8.872-.831-1.272-1.759-2.449-2.593-3.625a6.154,6.154,0,0,1-1.513-3.511c.121-2.512,2-5.334,2.025-8.557a9.939,9.939,0,0,0-4.071-8.212,28.34,28.34,0,0,0-8.108-3.92l-4.212-1.373a10.014,10.014,0,0,1-3.851-2.031" transform="translate(-36.715 -25.033)" fill="#263238"/>
              <path id="Path_831610" data-name="Path 831610" d="M163.542,159.26c-1.287,5.171-1.4,10.518-2.041,15.743-.322,2.613-.555,5.239-1.067,7.782a17.526,17.526,0,0,1-1.055,3.622,2.442,2.442,0,0,1-.4.74,2.943,2.943,0,0,1-.531.662c-.438.451-.919.88-1.408,1.307a76.407,76.407,0,0,0-5.876,5.439,13.528,13.528,0,0,0-3.744,7.323,8.429,8.429,0,0,0,.486,4.192,10.919,10.919,0,0,0,2.357,3.378c1.9,1.858,3.727,3.747,4.628,6.286-.513-2.648-2.346-4.837-4.005-6.834a10.175,10.175,0,0,1-1.98-3.208,7.241,7.241,0,0,1-.2-3.619,13.131,13.131,0,0,1,3.59-6.475,77.333,77.333,0,0,1,5.866-5.22c.5-.453,1-.914,1.471-1.42a5.784,5.784,0,0,0,1.22-1.89,18.9,18.9,0,0,0,1.093-4,64.684,64.684,0,0,0,.848-7.963l.313-7.941a68.892,68.892,0,0,1,.437-7.908" transform="translate(-20.889 -22.578)" fill="#263238"/>
              <path id="Path_831611" data-name="Path 831611" d="M167.542,247.84c1.542,1.1,2.287,2.935,3.255,4.536.946,1.637,1.9,3.288,2.935,4.9a27.654,27.654,0,0,0,3.565,4.585,12.485,12.485,0,0,0,5.035,3.3c4.144,1.089,8.129-.483,11.445-2.264,1.689-.908,3.3-1.9,4.967-2.752a11.784,11.784,0,0,1,5.292-1.683,10.977,10.977,0,0,0-5.636.929c-1.781.724-3.475,1.59-5.193,2.337-3.361,1.5-7.065,2.751-10.4,1.813a11.208,11.208,0,0,1-4.392-2.815,34.415,34.415,0,0,1-3.628-4.193c-1.143-1.486-2.206-3.047-3.3-4.6-.567-.764-1.142-1.527-1.753-2.266a5.5,5.5,0,0,0-2.194-1.825" transform="translate(-23.752 -35.136)" fill="#263238"/>
              <path id="Path_831612" data-name="Path 831612" d="M226.907,231.957c35.26,33.123,60.24,61.569,59.668,74.284-1.28,28.49-16.421,34.37-19.079,33.413-28.1-10.107-45.086-64.257-56.38-96.988-11.211-32.493,5.693-20.195,15.791-10.709" transform="translate(-29.406 -31.411)" fill="#d3766a"/>
              <path id="Path_831613" data-name="Path 831613" d="M276.748,278.821l-45.61,23.295s-17.665-40.481-23.491-64.594,3.78-23.171,24.467-4,44.634,45.3,44.634,45.3" transform="translate(-29.2 -31.086)" fill="#d0adea"/>
              <path id="Path_831614" data-name="Path 831614" d="M271.538,280.3c-17.647,11.286-34.652,18.482-38.07,20.335-.161.088-.284-.183-.116-.263,3.448-1.643,22.2-12.659,38.057-20.361.184-.089.3.18.129.288" transform="translate(-33.071 -39.694)" fill="#263238"/>
              <g id="Group_1078758" data-name="Group 1078758" transform="translate(176.766 189.642)" opacity="0.1">
                <g id="Group_1078757" data-name="Group 1078757">
                  <g id="Group_1078756" data-name="Group 1078756" clip-path="url(#clip-path-4)">
                    <path id="Path_831615" data-name="Path 831615" d="M266.764,284.669l-35.623,17.688s-17.669-40.479-23.5-64.6c-2.141-8.885-2.194-14.369-.367-16.79Z" transform="translate(-205.966 -220.969)"/>
                  </g>
                </g>
              </g>
              <path id="Path_831616" data-name="Path 831616" d="M245.82,347.185l-5.876-36.947s11.527-14.481,3.966-30.345c-3.818-8.035-23.126-47.537-37.005-57.376-11.4-8.079-30.743-3.715-37.189,7.43-14.586,25.225-29.087,54.873-37.517,117.272Z" transform="translate(-18.742 -30.958)" fill="#d0adea"/>
              <path id="Path_831617" data-name="Path 831617" d="M229.711,314.56a120.365,120.365,0,0,0-17.5,3.237c-2.846.79-5.635,1.706-8.42,2.685-1.389.488-2.784.928-4.189,1.362a18.991,18.991,0,0,1-4.507.943.106.106,0,0,0,.008.211,32.38,32.38,0,0,0,4.356-.167,31.274,31.274,0,0,0,4.138-.867c2.894-.773,5.75-1.68,8.635-2.484,5.821-1.621,11.641-3.239,17.566-4.436.273-.055.195-.52-.083-.486" transform="translate(-27.644 -44.595)" fill="#263238"/>
              <path id="Path_831618" data-name="Path 831618" d="M161.4,235.713c-33.452,34.947-56.931,62.962-55.685,75.629,2.79,28.383,19.033,32.892,21.637,31.8,27.521-11.585,40.845-64.286,50.385-97.569,9.471-33.042-6.756-19.865-16.336-9.856" transform="translate(-14.98 -31.824)" fill="#d3766a"/>
              <path id="Path_831619" data-name="Path 831619" d="M115.243,283.449l46.781,20.841s15.536-39.645,20.075-64.032-5.005-22.938-24.647-2.7-42.209,45.89-42.209,45.89" transform="translate(-16.338 -31.497)" fill="#d0adea"/>
              <path id="Path_831620" data-name="Path 831620" d="M125.353,284.661c18.221,10.333,35.584,16.618,39.095,18.286.166.078.275-.2.1-.269-3.53-1.457-22.844-11.462-39.085-18.312-.188-.08-.288.2-.113.294" transform="translate(-17.758 -40.313)" fill="#263238"/>
              <path id="Path_831621" data-name="Path 831621" d="M166.21,309.308a24.539,24.539,0,0,1,2.789.933c3.44-8.887,2.853-6.868,6.375-15.725q2.589-6.51,5.177-13.02c1.786-4.516,3.326-9.188,5.357-13.6a.109.109,0,0,1,.2.078c-1.019,4.214-2.548,8.345-3.978,12.449.343-.648.663-1.308,1.043-1.938.85-1.412,1.681-2.821,2.417-4.3.114-.226.485-.087.371.142-.7,1.407-1.3,2.842-1.9,4.3s-1.271,2.86-1.964,4.275c-.669,1.363-1.428,2.671-2.193,3.981-.093.16-.185.323-.276.483-.923,2.571-1.81,5.155-2.791,7.706a116.8,116.8,0,0,1-7.334,16.036,23.633,23.633,0,0,1-3.394-1.555c-.132-.078-.027-.251.1-.251" transform="translate(-23.541 -37.97)" fill="#263238"/>
              <path id="Path_831622" data-name="Path 831622" d="M188.778,223.5c.693,2.246,13.06,20.02,25.051,16.9,5.039-1.31-.016-20.791-.016-20.791l3.178-20.916-26.983-14.613s-1.51,38.462-1.23,39.417" transform="translate(-26.758 -26.097)" fill="#d3766a"/>
              <path id="Path_831623" data-name="Path 831623" d="M217.106,198.693,214.023,219c-3.05-.276-16.646-2.6-24.445-20.449.291-7.828.549-14.465.549-14.465Z" transform="translate(-26.877 -26.097)" fill="#263238"/>
              <path id="Path_831624" data-name="Path 831624" d="M239.619,158.54c10.577,33-7.994,43.062-15.113,45.334-6.462,2.063-28.728,8.268-42.658-23.463s-1.93-47.081,12.6-52.581,34.594-2.291,45.171,30.71" transform="translate(-24.905 -17.816)" fill="#d3766a"/>
              <g id="Group_1078761" data-name="Group 1078761" transform="translate(150.769 107.844)" opacity="0.1">
                <g id="Group_1078760" data-name="Group 1078760">
                  <g id="Group_1078759" data-name="Group 1078759" clip-path="url(#clip-path-5)">
                    <path id="Path_831625" data-name="Path 831625" d="M237.722,153.194c-6.78,2.377-14.427,2.729-17.173,3.647-3.433,1.141-9.518,8.505-17.345,10.96a110.531,110.531,0,0,1-24.528,4.343c-8.548-26.176,2.566-39.315,15.774-44.319,13.706-5.192,32.329-2.626,43.272,25.369" transform="translate(-175.675 -125.659)"/>
                  </g>
                </g>
              </g>
              <path id="Path_831626" data-name="Path 831626" d="M229.862,195.778c1.292-.794,2.107-5.97-.372-5.581s-7.655,3.2-8.806,6.677c-1.012,3.05,5.458-.82,6.712-.76,1.045.051,1.536.235,2.467-.336" transform="translate(-31.271 -26.961)" fill="#fff"/>
              <path id="Path_831627" data-name="Path 831627" d="M232.278,193.293a5.569,5.569,0,0,1-.094.661c-1,.026-2.017.051-3.072.094a7.908,7.908,0,0,1,3.167-.755" transform="translate(-32.481 -27.403)" fill="#dbdbdb"/>
              <path id="Path_831628" data-name="Path 831628" d="M225.183,195.253a41.809,41.809,0,0,1-4.592,2.8,1.721,1.721,0,0,1,.094-.455c.034-.094.069-.2.1-.292a12.065,12.065,0,0,1,4.394-2.051" transform="translate(-31.273 -27.681)" fill="#dbdbdb"/>
              <path id="Path_831629" data-name="Path 831629" d="M234.98,155.364a22.8,22.8,0,0,0-1.97,1.359c-.75.53-1.4.875-1.745,1.77a1.233,1.233,0,0,0,.582,1.388,3.056,3.056,0,0,0,3.056-.5,4.494,4.494,0,0,0,1.989-2.553,1.315,1.315,0,0,0-1.911-1.46" transform="translate(-32.779 -22.004)" fill="#263238"/>
              <path id="Path_831630" data-name="Path 831630" d="M212.993,167.312a22.645,22.645,0,0,1,2.3.669,3.87,3.87,0,0,1,2.214,1.129,1.233,1.233,0,0,1-.115,1.5,3.056,3.056,0,0,1-3.059.487,4.486,4.486,0,0,1-2.691-1.8,1.315,1.315,0,0,1,1.353-1.989" transform="translate(-29.972 -23.717)" fill="#263238"/>
              <path id="Path_831631" data-name="Path 831631" d="M219.017,176.179c-.041-.082-.148.156-.121.249.687,2.258,1.093,4.961-.763,6.273-.057.041-.021.154.053.122,2.419-1.032,1.843-4.614.831-6.644" transform="translate(-30.921 -24.975)" fill="#263238"/>
              <path id="Path_831632" data-name="Path 831632" d="M215.7,174.043c-3.739.711-2.043,8.137,1.421,7.478,3.409-.647,1.713-8.073-1.421-7.478" transform="translate(-30.28 -24.669)" fill="#263238"/>
              <path id="Path_831633" data-name="Path 831633" d="M213.728,174.882c-.553.568-1.019,1.455-1.783,1.71-.885.3-1.746-.325-2.508-.938-.079-.064-.128.016-.107.115.3,1.428,1.184,2.763,2.758,2.626,1.436-.124,2.147-1.613,2.176-3.124.005-.28-.314-.619-.536-.39" transform="translate(-29.676 -24.782)" fill="#263238"/>
              <path id="Path_831634" data-name="Path 831634" d="M234.643,171.429c0-.092.2.069.222.165.434,2.32,1.323,4.9,3.575,5.21.07.009.089.126.009.133-2.623.2-3.768-3.241-3.807-5.508" transform="translate(-33.265 -24.3)" fill="#263238"/>
              <path id="Path_831635" data-name="Path 831635" d="M236.17,168.084c3.645-1.1,5.572,6.272,2.2,7.289-3.323,1-5.251-6.369-2.2-7.289" transform="translate(-33.265 -23.814)" fill="#263238"/>
              <path id="Path_831636" data-name="Path 831636" d="M238.312,167.967c.684.239,1.446.8,2.153.661.82-.158,1.208-1.111,1.523-2.01.033-.093.106-.046.135.051.408,1.4.325,2.987-.957,3.611-1.17.57-2.393-.4-3.095-1.717-.131-.243-.035-.692.24-.6" transform="translate(-33.743 -23.614)" fill="#263238"/>
              <path id="Path_831637" data-name="Path 831637" d="M220.4,201.98c.654.443,1.345,1.091,2.2,1.009a6.232,6.232,0,0,0,2.389-1.036.082.082,0,0,1,.122.1,3.178,3.178,0,0,1-2.718,1.795,2.512,2.512,0,0,1-2.2-1.722c-.06-.129.109-.21.2-.146" transform="translate(-31.216 -28.629)" fill="#263238"/>
              <path id="Path_831638" data-name="Path 831638" d="M222.515,190.069c4.531-4.049,7.488-3.508,9.865-3.952.244-.119.76-.485.727-.74l-.006-.016c-.027-.08-1.636-4.638-1.636-4.638.714.112,4.307.524,3.976-.342-2.763-7.154-5.833-15.11-10.092-21.646a.213.213,0,0,0-.383.183c2.382,6.981,5.977,13.5,8.481,20.471a13.693,13.693,0,0,0-3.86.053c-.218.146,1.983,4.822,2.143,5.6a14.332,14.332,0,0,0-9.751,5.06c-.735.92-.593.972.536-.036" transform="translate(-31.406 -22.489)" fill="#263238"/>
              <path id="Path_831639" data-name="Path 831639" d="M184.459,186.163a14.447,14.447,0,0,0,4.037-13.695,37.721,37.721,0,0,0,10.769-16.526c0,.761.007,6.245-.078,9.041,19.853-10.852,21.114-29.165,21.114-29.165,9.089,4.6,11.887,8.535,13.593,10.395,0,0-4.079-13.022-13.583-19.53-11.632-7.97-22.111-2.317-22.111-2.317a31.434,31.434,0,0,0-26.251,18.505c-8.849,19.444,12.51,43.292,12.51,43.292" transform="translate(-24.073 -17.356)" fill="#263238"/>
              <path id="Path_831640" data-name="Path 831640" d="M219.852,157.856a41.025,41.025,0,0,1-9.545,7.522c-.028.017-.051-.027-.024-.045a34.863,34.863,0,0,0,12.456-14.449,33.072,33.072,0,0,0,2.482-7.866,22.875,22.875,0,0,0,.178-8.978.173.173,0,0,1,.336-.078,26.748,26.748,0,0,1,1.041,8.878,24.391,24.391,0,0,1-2.412,8.533,28.019,28.019,0,0,1-4.512,6.482" transform="translate(-29.81 -18.974)" fill="#263238"/>
              <path id="Path_831641" data-name="Path 831641" d="M197.964,124.67a29.593,29.593,0,0,0-27.02,19.849c-1.807,5.6-1.35,11.747.158,17.5a64.019,64.019,0,0,0,7.183,16.542,52,52,0,0,1-8.465-16.176c-1.838-5.9-2.4-12.4-.511-18.388,3.835-11.868,16.2-20.5,28.654-19.33" transform="translate(-23.837 -17.66)" fill="#263238"/>
              <path id="Path_831642" data-name="Path 831642" d="M204.666,123.495c13.92-7.64,27.571,2.566,32.608,15.842a66.074,66.074,0,0,0-6.054-7.989c-6.746-7.753-16.607-11.335-26.554-7.853" transform="translate(-29.016 -17.136)" fill="#263238"/>
              <path id="Path_831643" data-name="Path 831643" d="M189.435,185.063s-9.774-8.871-13.962-5.152,4.835,17.746,10.93,18.56a5.86,5.86,0,0,0,6.959-4.813Z" transform="translate(-24.725 -25.377)" fill="#d3766a"/>
              <path id="Path_831644" data-name="Path 831644" d="M178.77,184.661a.08.08,0,0,0,0,.157c4.3.7,7.207,3.882,9.521,7.339-1.5-1.191-3.28-1.627-4.916.211-.086.1.049.235.154.187a3.6,3.6,0,0,1,4.147.346,17.349,17.349,0,0,1,2.564,2.709c.264.31.857-.023.632-.4-.017-.027-.036-.056-.053-.084-1.043-5.046-6.546-11.187-12.054-10.466" transform="translate(-25.335 -26.171)" fill="#263238"/>
              <path id="Path_831645" data-name="Path 831645" d="M127.679,346.82c7.965-10.042,16.481-34.194,11.579-84.772-.679-7-47.728-5.743-47.387,1.768.428,9.461.469,46.05,1.079,48.694,5.143,22.3,29.326,41.122,34.729,34.31" transform="translate(-13.024 -36.496)" fill="#d3766a"/>
              <path id="Path_831646" data-name="Path 831646" d="M140.167,344.273a55.647,55.647,0,0,0,4.58-10.666c.576-1.852,1.118-3.717,1.553-5.609a47.773,47.773,0,0,0,.948-5.773,115.106,115.106,0,0,0,.714-11.588,87.526,87.526,0,0,0-.522-11.579c-.034,3.861-.253,7.7-.506,11.537-.269,3.835-.591,7.665-1.054,11.465-.247,1.9-.5,3.793-.916,5.633-.425,1.865-.862,3.73-1.362,5.578-.99,3.7-2.079,7.383-3.435,11" transform="translate(-19.872 -42.397)" fill="#263238"/>
              <path id="Path_831647" data-name="Path 831647" d="M130.241,241.267c5.461,7.74,6.583,23.932,6.583,23.932l-46.548.927a177,177,0,0,0-4.519-18.48c-2.089-6.4-6.678-28.357-6.663-28.36.515.027,24.714-6.333,30.154-3.638,5.546,2.746,20.522,23.96,20.993,25.62" transform="translate(-11.213 -30.478)" fill="#d3766a"/>
              <path id="Path_831648" data-name="Path 831648" d="M78.206,219.27c-3.82-10.672-7.543-13.574-8.671-17.994S57.5,171.6,58.45,168.627s6.163-3.145,11.644,3.839,13.674,22.6,14.427,23.4S102.039,205.9,103.3,207.229s-25.09,12.041-25.09,12.041" transform="translate(-8.278 -23.63)" fill="#d3766a"/>
              <path id="Path_831649" data-name="Path 831649" d="M81.611,219.7s-5.182-17.643-5.6-22.213-6.057-36.122-4.642-38.907,6.611-.516,10.921,7.331,8.517,28.554,9.134,29.472,12.227,16.873,13.258,18.406S81.611,219.7,81.611,219.7" transform="translate(-10.086 -22.32)" fill="#d3766a"/>
              <path id="Path_831650" data-name="Path 831650" d="M103.692,227.956s-6.238-16.1-7.449-19.949-2.774-35.974-2.137-38.455,4.338-1.77,9.431,6.426c4.272,6.875,6.875,25.744,7.558,26.476s9.584,13.9,10.725,15.122-18.129,10.38-18.129,10.38" transform="translate(-13.321 -23.859)" fill="#d3766a"/>
              <path id="Path_831651" data-name="Path 831651" d="M142.639,263.632c3.611-21.324,2.762-30.8,3.822-34,2.42-7.295,13.636-20.41,12.241-24.2s-13.932-.319-20.024,9.3c-7.331,11.574-18.564.322-18.564.322Z" transform="translate(-17.028 -28.911)" fill="#d3766a"/>
              <path id="Path_831652" data-name="Path 831652" d="M113.928,208.1c3.619,9.3,8.739,17.916,13.953,26.39l1.616,2.5a23.41,23.41,0,0,1,3.791,8.341,29.414,29.414,0,0,1,.853,6A56.027,56.027,0,0,0,129.7,240.39c-1.009-1.675-2.254-3.317-3.26-4.992-5.18-8.551-10.132-17.525-12.511-27.3" transform="translate(-16.152 -29.502)" fill="#263238"/>
              <path id="Path_831653" data-name="Path 831653" d="M95.165,202.091a73.6,73.6,0,0,1,1.567,8.3c.865,3.469,2.114,6.88,2.553,10.484a34.706,34.706,0,0,1-4.223-10.211,33.448,33.448,0,0,1,.1-8.577" transform="translate(-13.445 -28.651)" fill="#263238"/>
              <path id="Path_831654" data-name="Path 831654" d="M72.487,174.764c1.948,7.816,3.166,15.766,4.444,23.7,1.319,4.594,3.388,8.963,5.013,13.469a34.894,34.894,0,0,1,1.623,5.312c-2.694-6.152-6.365-11.882-8.273-18.373a227.241,227.241,0,0,1-2.806-24.108" transform="translate(-10.277 -24.776)" fill="#263238"/>
              <path id="Path_831655" data-name="Path 831655" d="M275.407,343.967c-7-10.752-13.243-35.622-3.678-85.593,1.323-6.916,46.955-.721,45.92,6.735-1.3,9.393-6.247,45.442-7.1,48.022-7.186,21.754-30.393,38.129-35.143,30.835" transform="translate(-37.83 -36.204)" fill="#d3766a"/>
              <path id="Path_831656" data-name="Path 831656" d="M270.358,340.619a55.7,55.7,0,0,1-3.573-11.06c-.4-1.9-.77-3.81-1.026-5.736a47.939,47.939,0,0,1-.409-5.845,115.537,115.537,0,0,1,.361-11.62,87.987,87.987,0,0,1,1.593-11.5c-.324,3.853-.462,7.7-.565,11.55-.087,3.847-.121,7.7-.012,11.529.07,1.915.149,3.827.39,5.7.251,1.9.513,3.8.839,5.689.644,3.781,1.387,7.554,2.4,11.287" transform="translate(-37.615 -41.803)" fill="#263238"/>
              <path id="Path_831657" data-name="Path 831657" d="M281.3,231.709c-6.189,7.171-8.882,23.176-8.882,23.176l45.487,6.065s4.044-10.462,7.817-19.778c.887-2.191,8.636-26.355,8.623-26.36-.515-.023-23.98-8.709-29.656-6.558-5.787,2.194-22.758,21.848-23.388,23.454" transform="translate(-38.621 -29.476)" fill="#d3766a"/>
              <path id="Path_831658" data-name="Path 831658" d="M337.483,215.264c4.84-10.25,8.829-12.775,10.382-17.065s14.872-28.359,14.211-31.414-5.827-3.731-11.963,2.686-15.809,21.159-16.636,21.88-18.412,8.281-19.793,9.486,23.8,14.427,23.8,14.427" transform="translate(-44.463 -23.326)" fill="#d3766a"/>
              <path id="Path_831659" data-name="Path 831659" d="M335.668,215.376s6.876-17.055,7.733-21.562,9.545-35.36,8.409-38.27-6.53-1.157-11.584,6.232-11.257,27.59-11.96,28.443-13.812,15.6-14.988,17.028,22.39,8.129,22.39,8.129" transform="translate(-44.408 -21.862)" fill="#d3766a"/>
              <path id="Path_831660" data-name="Path 831660" d="M313.931,221.452s7.776-15.412,9.356-19.128,6.264-35.533,5.872-38.063-4.145-2.185-10.012,5.476c-4.921,6.426-9.35,24.951-10.1,25.613s-10.891,12.9-12.146,14.006,17.032,12.1,17.032,12.1" transform="translate(-42.083 -23.087)" fill="#d3766a"/>
              <path id="Path_831661" data-name="Path 831661" d="M270.677,252.617c-1.517-21.573.251-30.926-.493-34.208-1.7-7.5-11.584-21.641-9.826-25.277s13.9,1.038,19.024,11.2c6.169,12.233,18.444,2.128,18.444,2.128Z" transform="translate(-36.882 -27.207)" fill="#d3766a"/>
              <path id="Path_831662" data-name="Path 831662" d="M307.044,200.718c-3.32,9.5-9.122,17.946-15.11,25.952-1.165,1.569-2.564,3.083-3.73,4.651a55.973,55.973,0,0,0-5.487,10.462,29.378,29.378,0,0,1,1.433-5.892,23.4,23.4,0,0,1,4.586-7.932l1.851-2.335c6.014-7.927,11.95-16,16.457-24.906" transform="translate(-40.081 -28.456)" fill="#263238"/>
              <path id="Path_831663" data-name="Path 831663" d="M329.286,196.562a33.478,33.478,0,0,1-.733,8.546,34.7,34.7,0,0,1-5.2,9.752c.788-3.544,2.364-6.819,3.562-10.186a73.536,73.536,0,0,1,2.369-8.112" transform="translate(-45.842 -27.867)" fill="#263238"/>
              <path id="Path_831664" data-name="Path 831664" d="M353.048,171.579a227.074,227.074,0,0,1-5.141,23.72c-2.531,6.275-6.743,11.62-10.023,17.48a34.945,34.945,0,0,1,2.133-5.129c2.055-4.326,4.54-8.473,6.3-12.917,2.043-7.771,4.03-15.564,6.73-23.153" transform="translate(-47.902 -24.325)" fill="#263238"/>
              <path id="Path_831665" data-name="Path 831665" d="M136.579,171a8.082,8.082,0,1,1-16.031,1.487,8.86,8.86,0,0,1-4.4-2.493,9.114,9.114,0,0,1,9.736-14.881l.216-.288a8.094,8.094,0,0,1,14.151,7.443,8.2,8.2,0,0,1-1.746,2.921" transform="translate(-16.103 -21.489)" fill="#fff"/>
              <path id="Path_831666" data-name="Path 831666" d="M136.484,170.921c1.911,12.078-16.056,13.581-16.61,1.488l.455.565c-8.777-1.91-10.155-14.317-2.028-18.143a9.811,9.811,0,0,1,7.695-.34l-.666.195c7.188-9.547,21.151,1.383,13.085,10.425,7.093-8.669-6.074-18.793-12.4-9.38a8.527,8.527,0,1,0-4.975,16.215c-.051,11.473,16.7,10.246,15.449-1.025" transform="translate(-16.008 -21.406)" fill="#263238"/>
              <path id="Path_831667" data-name="Path 831667" d="M149.234,167.172a83.214,83.214,0,0,1,12.9,7.571,83.187,83.187,0,0,1-12.9-7.571" transform="translate(-21.157 -23.7)" fill="#263238"/>
              <path id="Path_831668" data-name="Path 831668" d="M146.519,176.4a70.666,70.666,0,0,1,13.159,4.085,70.6,70.6,0,0,1-13.159-4.085" transform="translate(-20.772 -25.008)" fill="#263238"/>
              <path id="Path_831669" data-name="Path 831669" d="M144.562,170.368a85.141,85.141,0,0,1,13.89,5.984,85.066,85.066,0,0,1-13.89-5.984" transform="translate(-20.495 -24.153)" fill="#263238"/>
              <path id="Path_831670" data-name="Path 831670" d="M268,145.891a8.082,8.082,0,1,1,7.915-14.02,8.868,8.868,0,0,1,4.554-2.19,9.114,9.114,0,0,1,6.678,16.481l.114.342a8.094,8.094,0,0,1-14.182,7.385,8.206,8.206,0,0,1-1.406-3.1" transform="translate(-37.322 -18.367)" fill="#fff"/>
              <path id="Path_831671" data-name="Path 831671" d="M267.949,145.789c-11.014-5.314-2.007-20.933,8.246-14.5l-.724.051c6.573-6.122,17.553-.183,16.063,8.676a9.809,9.809,0,0,1-4.107,6.517l.22-.658c3.747,11.348-13.193,16.59-16.024,4.809,3.079,10.77,18.9,5.721,14.779-4.846a8.527,8.527,0,1,0-10.488-13.33c-9.4-6.582-17.935,7.879-7.964,13.278" transform="translate(-37.273 -18.265)" fill="#263238"/>
              <path id="Path_831672" data-name="Path 831672" d="M267.277,159.878A83.226,83.226,0,0,1,253.7,166.16a83.152,83.152,0,0,1,13.573-6.282" transform="translate(-35.968 -22.666)" fill="#263238"/>
              <path id="Path_831673" data-name="Path 831673" d="M261.689,152.387a70.678,70.678,0,0,1-10.857,8.484,70.679,70.679,0,0,1,10.857-8.484" transform="translate(-35.561 -21.604)" fill="#263238"/>
              <path id="Path_831674" data-name="Path 831674" d="M267.435,154.218a85.085,85.085,0,0,1-12.833,8,85.038,85.038,0,0,1,12.833-8" transform="translate(-36.095 -21.864)" fill="#263238"/>
              <path id="Path_831675" data-name="Path 831675" d="M168.315,115.271l-19.187-13.646,6.78-5.46L141.454,84.082l7.307-5.7L161.3,97.134l-6.6,4.252Z" transform="translate(-20.054 -11.112)" fill="#ffae7e"/>
              <path id="Path_831676" data-name="Path 831676" d="M229.53,106.1l6.426-16.99,4.44,3.729,7.6-9.877,4.81,3.9L241.066,98.807l-3.607-4.753Z" transform="translate(-32.541 -11.762)" fill="#ffae7e"/>
              <path id="Path_831677" data-name="Path 831677" d="M163.869,126.322l-17.847.027.747-5.7-14.545-.862-.795-6.462,18.861,4.913-1.04,5.041Z" transform="translate(-18.633 -16.067)" fill="#ffae7e"/>
              <path id="Path_831678" data-name="Path 831678" d="M174.4,165.49c1.82-.243,3.483-1.231,3.726-3.163.243-2.245.449-2.26.669.023a3.236,3.236,0,0,1-4.4,3.139" transform="translate(-24.725 -22.774)" fill="#fff"/>
              <path id="Path_831679" data-name="Path 831679" d="M185.08,165.45a3.256,3.256,0,0,1-3.787-1.093c-.9-1.171-.619-2.676-.28-4a12.466,12.466,0,0,1,.341,1.927c.245,1.932,1.905,2.92,3.726,3.163" transform="translate(-25.616 -22.734)" fill="#fff"/>
              <path id="Path_831680" data-name="Path 831680" d="M185.077,168.015c-1.82.243-3.483,1.231-3.726,3.163-.243,2.244-.449,2.259-.669-.023a3.236,3.236,0,0,1,4.4-3.139" transform="translate(-25.614 -23.788)" fill="#fff"/>
              <path id="Path_831681" data-name="Path 831681" d="M174.4,168.018a3.256,3.256,0,0,1,3.787,1.093c.9,1.171.619,2.676.28,4a12.466,12.466,0,0,1-.341-1.927c-.245-1.932-1.905-2.92-3.726-3.163" transform="translate(-24.725 -23.79)" fill="#fff"/>
              <path id="Path_831682" data-name="Path 831682" d="M27,97.29a37.42,37.42,0,0,0,59.736,30.053l18.339,4.683-7.634-17.076A37.434,37.434,0,1,0,27,97.29" transform="translate(-3.828 -8.486)" fill="#fff"/>
              <path id="Path_831683" data-name="Path 831683" d="M27,97.231A37.614,37.614,0,0,0,43.264,127.9c12.8,8.8,30.8,8.455,43.106-1.11l.228-.173.289.071c6.129,1.5,12.258,2.993,18.373,4.544l-.874,1.038-7.7-17.046-.166-.367a36.534,36.534,0,0,0,3.226-8.073C105.266,87.363,93,66.309,73.418,61.413,50.215,55.107,26.954,73.238,27,97.231m0,0c.2-32.978,39.241-50.007,63.56-27.674a38.163,38.163,0,0,1,10.84,37.677,37.674,37.674,0,0,1-3.233,8.047l.027-.729,7.568,17.105.63,1.425-1.5-.387c-6.111-1.569-12.207-3.2-18.3-4.819l.517-.1A37.835,37.835,0,0,1,27,97.231" transform="translate(-3.828 -8.426)" fill="#263238"/>
              <path id="Path_831684" data-name="Path 831684" d="M78.539,80.01l8.711.9-3.921,32.042-7.538-.783Z" transform="translate(-10.745 -11.343)" fill="#7816c2"/>
              <rect id="Rectangle_381348" data-name="Rectangle 381348" width="7.573" height="7.573" transform="translate(63.848 112.385) rotate(-84.068)" fill="#7816c2"/>
              <path id="Path_831685" data-name="Path 831685" d="M53.491,76.078l8.7-.99,3.064,32.135-7.53.857Z" transform="translate(-7.583 -10.645)" fill="#7816c2"/>
              <rect id="Rectangle_381349" data-name="Rectangle 381349" width="7.573" height="7.573" transform="translate(50.604 101.451) rotate(-6.494)" fill="#7816c2"/>
              <path id="Path_831686" data-name="Path 831686" d="M.114,316.358c114.166-.525,242.235-.53,356.4,0-114.167.53-242.235.525-356.4,0" transform="translate(-0.016 -44.794)" fill="#263238"/>
            </g>
          </g>
        </g>
      </g>
    </g>
  </g>
</svg>
