<svg xmlns="http://www.w3.org/2000/svg" xmlns:xlink="http://www.w3.org/1999/xlink" width="400" height="235" viewBox="0 0 400 235">
  <defs>
    <clipPath id="clip-path">
      <rect id="Rectangle_381378" data-name="Rectangle 381378" width="400" height="235" transform="translate(1020 3612)" fill="#fff" stroke="#707070" stroke-width="1"/>
    </clipPath>
    <clipPath id="clip-path-2">
      <rect id="Rectangle_381377" data-name="Rectangle 381377" width="320.652" height="275.337" fill="none"/>
    </clipPath>
    <clipPath id="clip-path-12">
      <rect id="Rectangle_381374" data-name="Rectangle 381374" width="12.006" height="8.999" fill="none"/>
    </clipPath>
    <clipPath id="clip-path-13">
      <rect id="Rectangle_381375" data-name="Rectangle 381375" width="11.715" height="25.348" fill="none"/>
    </clipPath>
  </defs>
  <g id="Mask_Group_477" data-name="Mask Group 477" transform="translate(-1020 -3612)" clip-path="url(#clip-path)">
    <g id="Group_1078823" data-name="Group 1078823" transform="translate(1056.853 3612)">
      <g id="Group_1078822" data-name="Group 1078822" clip-path="url(#clip-path-2)">
        <g id="Group_1078799" data-name="Group 1078799">
          <g id="Group_1078798" data-name="Group 1078798" clip-path="url(#clip-path-2)">
            <path id="Path_831714" data-name="Path 831714" d="M48.011,79.938a11.865,11.865,0,0,1,2.871-1.318l.538-2.88,4.843-.184.756,2.83a11.867,11.867,0,0,1,2.963,1.1L62.4,77.827l3.555,3.294-1.466,2.534A11.882,11.882,0,0,1,65.8,86.527l2.879.538.184,4.843-2.83.756a11.886,11.886,0,0,1-1.1,2.963L66.6,98.042,63.3,101.6l-2.534-1.467a11.86,11.86,0,0,1-2.871,1.319l-.538,2.88-4.843.184-.756-2.83a11.887,11.887,0,0,1-2.963-1.1l-2.416,1.656-3.556-3.294,1.467-2.534a11.85,11.85,0,0,1-1.319-2.871L40.1,93l-.184-4.843,2.83-.756a11.89,11.89,0,0,1,1.1-2.963l-1.656-2.416,3.294-3.555Zm2.715,6.4a5.2,5.2,0,1,0,7.347-.28,5.2,5.2,0,0,0-7.347.28" transform="translate(-17 -32.184)" fill="#f5f5f5"/>
            <path id="Path_831715" data-name="Path 831715" d="M460.092,258.495a11.846,11.846,0,0,1,2.871-1.319l.538-2.88,4.843-.184.756,2.83a11.868,11.868,0,0,1,2.963,1.1l2.416-1.655,3.555,3.294-1.466,2.534a11.862,11.862,0,0,1,1.318,2.871l2.88.538.184,4.843-2.83.756a11.889,11.889,0,0,1-1.1,2.963l1.655,2.416-3.294,3.555-2.534-1.467a11.858,11.858,0,0,1-2.871,1.319l-.538,2.88-4.843.184-.756-2.83a11.9,11.9,0,0,1-2.963-1.1l-2.415,1.656-3.556-3.294,1.467-2.534a11.829,11.829,0,0,1-1.319-2.871l-2.88-.538-.184-4.843,2.83-.756a11.889,11.889,0,0,1,1.1-2.963l-1.656-2.416,3.294-3.555Zm2.715,6.4a5.2,5.2,0,1,0,7.347-.28,5.2,5.2,0,0,0-7.347.28" transform="translate(-192.529 -108.241)" fill="#f5f5f5"/>
            <path id="Path_831716" data-name="Path 831716" d="M30.655,36.556a5.524,5.524,0,0,1,1.334-.612l.25-1.339,2.251-.086.351,1.315a5.506,5.506,0,0,1,1.377.51l1.123-.769,1.652,1.531-.681,1.178a5.5,5.5,0,0,1,.613,1.335l1.338.25.086,2.251-1.316.351a5.516,5.516,0,0,1-.509,1.378l.769,1.123-1.531,1.652-1.178-.681a5.528,5.528,0,0,1-1.335.612L35,47.892l-2.251.086L32.4,46.663a5.537,5.537,0,0,1-1.377-.51l-1.123.769-1.652-1.531.681-1.178a5.5,5.5,0,0,1-.613-1.335l-1.338-.25-.086-2.251,1.316-.351a5.539,5.539,0,0,1,.509-1.378l-.769-1.122,1.531-1.653Zm1.262,2.975a2.417,2.417,0,1,0,3.415-.13,2.416,2.416,0,0,0-3.415.13" transform="translate(-11.454 -14.704)" fill="#f5f5f5"/>
            <path id="Path_831717" data-name="Path 831717" d="M42.27,308.527l-5.987,2.45s2.057,5.027-3.13,7.254a5.233,5.233,0,0,1-5.956-1.172,5.8,5.8,0,0,1-1.558-5.023c.33-2.09,1.933-4.522,6.259-5.463l-5.524-13.5-5.92,2.422,3.236,7.907A12.492,12.492,0,0,0,20.008,318.1c3.583,8.755,12.266,7.575,15.626,6.2,2.57-1.052,11.071-5.255,6.636-15.771" transform="translate(-8.073 -124.837)" fill="#ebebeb"/>
            <rect id="Rectangle_381361" data-name="Rectangle 381361" width="6.491" height="6.063" transform="translate(8.875 162.296) rotate(-22.256)" fill="#ebebeb"/>
            <path id="Path_831718" data-name="Path 831718" d="M512.834,122.853l5.541,2.323a5.106,5.106,0,0,1,6.82-2.708,4.861,4.861,0,0,1,3.142,4.681,5.385,5.385,0,0,1-2.276,4.323c-1.589,1.156-4.24,1.7-7.7-.523l-5.238,12.493,5.479,2.3,3.068-7.318a11.6,11.6,0,0,0,12.067-7.233c3.4-8.1-3.08-13.03-6.19-14.334-2.379-1-10.722-3.819-14.716,6" transform="translate(-218.445 -49.284)" fill="#ebebeb"/>
            <rect id="Rectangle_381362" data-name="Rectangle 381362" width="5.631" height="6.029" transform="translate(291.408 101.918) rotate(-67.254)" fill="#ebebeb"/>
            <path id="Path_831719" data-name="Path 831719" d="M476.746,78.412,464.82,83.505l1.424,1.773-9.489,5.649,13.811-5.452L469.1,83.646Z" transform="translate(-194.558 -33.4)" fill="#e0e0e0"/>
            <path id="Path_831720" data-name="Path 831720" d="M543.751,231.429l-11.927,5.093,1.424,1.773-9.489,5.649,13.812-5.453-1.469-1.828Z" transform="translate(-223.099 -98.579)" fill="#e0e0e0"/>
            <path id="Path_831721" data-name="Path 831721" d="M417.936,17.447l-2.378,21.761,3.786-.629.458,18.635,3.408-24.832-3.905.649Z" transform="translate(-177.01 -7.432)" fill="#e0e0e0"/>
            <path id="Path_831722" data-name="Path 831722" d="M480.671,2.282l-6.747,19.05a3.273,3.273,0,0,0,5.935,2.7L489.88,6.27a2.568,2.568,0,0,0-1.261-3.637L484.067.764a2.569,2.569,0,0,0-3.4,1.518" transform="translate(-201.791 -0.243)" fill="#e0e0e0"/>
            <path id="Path_831723" data-name="Path 831723" d="M471.305,59.5a4.923,4.923,0,1,1-.426-6.948,4.922,4.922,0,0,1,.426,6.948" transform="translate(-197.088 -21.859)" fill="#e0e0e0"/>
          </g>
        </g>
        <g id="Group_1078801" data-name="Group 1078801">
          <g id="Group_1078800" data-name="Group 1078800" clip-path="url(#clip-path-2)">
            <path id="Path_831724" data-name="Path 831724" d="M297.833,113.1a32.357,32.357,0,0,0,4.75-23.811c-.061-.325-.134-.649-.221-.971-.656-2.817-1.16-5.1-2.658-7.5q-.227-.449-.471-.891t-.5-.878C292.531,68.6,280,61.487,266.945,61.009c-2.222-19.132-16.934-36.629-36.664-43.6S186.7,14.3,170.833,27.038C154.072,15.63,130.914,12.462,111.2,18.881S75.812,41.112,70.839,59.6c-1.521,5.653-2.155,11.643-5.329,16.7-2.4,3.815-6.065,6.805-9.2,10.147C46.3,97.1,41.791,111.865,44.324,125.691s12.059,26.463,25.333,33.6c-10.6,13.235-6.883,34.079,7.78,43.589,8.421,5.461,19.654,7.553,26.07,14.927,2.73,3.137,4.31,6.961,6.679,10.332,8.053,11.458,25.947,16.15,39.479,10.349l71.874-16.6c24.157,1.761,48.961-5.417,67.549-19.548,6.891-5.239,13.085-11.595,16.071-19.3s2.274-16.922-3.457-23.21c13.532-12.664,11.6-36.051-3.868-46.733" transform="translate(-18.585 -5.952)" fill="#e0e0e0"/>
          </g>
        </g>
        <g id="Group_1078803" data-name="Group 1078803">
          <g id="Group_1078802" data-name="Group 1078802" clip-path="url(#clip-path-2)">
            <path id="Path_831725" data-name="Path 831725" d="M182.168,236.477a12.377,12.377,0,0,1,2.993-1.374l.561-3,5.049-.192.788,2.951A12.37,12.37,0,0,1,194.648,236l2.518-1.726,3.707,3.434-1.529,2.642a12.359,12.359,0,0,1,1.374,2.994l3,.561.192,5.049-2.951.788a12.37,12.37,0,0,1-1.142,3.089l1.725,2.518-3.433,3.707-2.642-1.529a12.383,12.383,0,0,1-2.994,1.374l-.561,3-5.049.192-.788-2.951A12.4,12.4,0,0,1,182.989,258l-2.518,1.726-3.707-3.434,1.529-2.642a12.376,12.376,0,0,1-1.374-2.993l-3-.561-.192-5.049,2.951-.788a12.371,12.371,0,0,1,1.143-3.089l-1.726-2.518,3.433-3.707ZM185,243.15a5.42,5.42,0,1,0,7.659-.292,5.42,5.42,0,0,0-7.659.292" transform="translate(-73.999 -98.783)" fill="#f5f5f5"/>
            <path id="Path_831726" data-name="Path 831726" d="M347.023,97.071a6.69,6.69,0,0,1,1.617-.742l.3-1.622,2.728-.1L352.1,96.2a6.687,6.687,0,0,1,1.669.617l1.36-.932,2,1.855-.826,1.427a6.7,6.7,0,0,1,.742,1.618l1.622.3.1,2.728-1.594.425a6.655,6.655,0,0,1-.617,1.669l.932,1.36-1.855,2-1.428-.826a6.692,6.692,0,0,1-1.617.743l-.3,1.622-2.727.1-.425-1.594a6.687,6.687,0,0,1-1.669-.617l-1.36.932-2-1.855.826-1.427a6.668,6.668,0,0,1-.743-1.617l-1.622-.3-.1-2.727,1.594-.426a6.7,6.7,0,0,1,.618-1.669l-.932-1.36,1.855-2Zm1.529,3.6a2.928,2.928,0,1,0,4.138-.158,2.927,2.927,0,0,0-4.138.158" transform="translate(-145.874 -40.297)" fill="#f5f5f5"/>
            <path id="Path_831727" data-name="Path 831727" d="M116.406,294.319a8.659,8.659,0,0,1,2.092-.96l.391-2.1,3.529-.134.551,2.062a8.667,8.667,0,0,1,2.159.8l1.76-1.206,2.591,2.4-1.068,1.847a8.613,8.613,0,0,1,.96,2.092l2.1.392.135,3.529-2.063.551a8.645,8.645,0,0,1-.8,2.159l1.206,1.76-2.4,2.591-1.847-1.069a8.638,8.638,0,0,1-2.092.961l-.392,2.1-3.529.134-.55-2.062a8.67,8.67,0,0,1-2.159-.8l-1.76,1.206-2.591-2.4,1.069-1.847a8.633,8.633,0,0,1-.961-2.092l-2.1-.392-.135-3.529,2.063-.551a8.668,8.668,0,0,1,.8-2.159l-1.206-1.761,2.4-2.59Zm1.978,4.664a3.788,3.788,0,1,0,5.354-.2,3.788,3.788,0,0,0-5.354.2" transform="translate(-47.07 -124.007)" fill="#f5f5f5"/>
            <path id="Path_831728" data-name="Path 831728" d="M395.5,303.344a8.664,8.664,0,0,1,2.092-.96l.391-2.1,3.529-.134.551,2.062a8.67,8.67,0,0,1,2.159.8l1.76-1.206,2.591,2.4-1.068,1.846a8.625,8.625,0,0,1,.96,2.093l2.1.391.135,3.529-2.063.551a8.655,8.655,0,0,1-.8,2.159l1.206,1.76-2.4,2.591-1.847-1.069a8.634,8.634,0,0,1-2.092.961l-.392,2.1-3.529.134-.55-2.062a8.669,8.669,0,0,1-2.159-.8l-1.76,1.206-2.591-2.4,1.069-1.847a8.659,8.659,0,0,1-.961-2.092l-2.1-.392-.135-3.529,2.063-.551a8.67,8.67,0,0,1,.8-2.159l-1.206-1.761,2.4-2.59Zm1.978,4.664a3.788,3.788,0,1,0,5.354-.2,3.788,3.788,0,0,0-5.354.2" transform="translate(-165.953 -127.851)" fill="#f5f5f5"/>
          </g>
        </g>
        <g id="Group_1078805" data-name="Group 1078805">
          <g id="Group_1078804" data-name="Group 1078804" clip-path="url(#clip-path-2)">
            <path id="Path_831729" data-name="Path 831729" d="M89.174,185.93a7.412,7.412,0,0,0-4.705-4.357c-1.828-.522-3.979-.317-5.4-1.575a21.77,21.77,0,0,1-1.675-2.123,6.846,6.846,0,0,0-4.291-2.011c-5.363-.723-10.282,2.947-12.237,7.242a25.875,25.875,0,0,0-6.077,4.973,8.746,8.746,0,0,0-2.063,7.327c.451,1.877,1.72,3.476,2.183,5.351.422,1.711.141,3.51.277,5.267s.883,3.684,2.524,4.327c2.023.792,4.531-.7,6.4.41,1.27.753,1.679,2.4,2.716,3.454,1.8,1.824,4.832,1.355,7.253.517a39.18,39.18,0,0,0,8-3.829,15.817,15.817,0,0,0,4.391-3.754A7.279,7.279,0,0,0,88,201.708a34.166,34.166,0,0,1-.827-3.44c-.128-2.077,1.239-3.906,1.978-5.851a9,9,0,0,0,.025-6.487" transform="translate(-22.38 -74.872)" fill="#f5f5f5"/>
            <path id="Path_831730" data-name="Path 831730" d="M105.482,232.724l-5.236,3.608-.008.006,5.359,1.9Z" transform="translate(-42.697 -99.13)" fill="#f5f5f5"/>
            <path id="Path_831731" data-name="Path 831731" d="M76.416,208.465a2.16,2.16,0,1,1-2.16-2.16,2.16,2.16,0,0,1,2.16,2.16" transform="translate(-30.71 -87.877)" fill="#ffae7e"/>
            <path id="Path_831732" data-name="Path 831732" d="M88.1,208.465a2.16,2.16,0,1,1-2.16-2.16,2.16,2.16,0,0,1,2.16,2.16" transform="translate(-35.687 -87.877)" fill="#ffae7e"/>
            <path id="Path_831733" data-name="Path 831733" d="M99.785,208.465a2.16,2.16,0,1,1-2.16-2.16,2.16,2.16,0,0,1,2.16,2.16" transform="translate(-40.664 -87.877)" fill="#ffae7e"/>
            <path id="Path_831734" data-name="Path 831734" d="M396.3,123.162a3.061,3.061,0,0,0-2.451-1.059,40.3,40.3,0,0,0-10.019.35c-1.169.188-2.835.081-2.948-1.1a1.662,1.662,0,0,1,1.214-1.526,10.734,10.734,0,0,1,3.6-.255c1.211-.028,2.587-.431,3.075-1.54.74-1.683-1.182-3.426-3-3.692s-3.731.235-5.486-.309l-3.829.082a33.39,33.39,0,0,0-8.37,1.215c-.762.212-1.66.62-1.715,1.409-.054.774.742,1.3,1.11,1.986.742,1.374-.467,3.106-1.932,3.646s-3.084.323-4.641.441-3.292.772-3.806,2.246c-.406,1.164.082,2.487-.276,3.667-.454,1.5-2.106,2.282-3.645,2.557s-3.166.233-4.589.882a5.065,5.065,0,0,0,1.979,9.672c1.1.027,2.182-.305,3.284-.363a3.753,3.753,0,0,1,2.316.565,5.791,5.791,0,0,0,4.029,5.219c1.522.408,3.152.152,4.694.477s3.126,1.634,2.832,3.182c-.21,1.1-1.307,1.914-1.394,3.034-.107,1.37,1.38,2.372,2.749,2.5s2.739-.3,4.111-.218,2.9.954,2.936,2.328c.035,1.528-1.764,2.607-1.8,4.135-.027,1.28,1.2,2.227,2.393,2.689s2.534.7,3.474,1.568,1.1,2.72-.072,3.238a2.606,2.606,0,0,0,1.692-4.177c-.812-.845-2.179-1.075-2.807-2.064-.7-1.1-.088-2.631.918-3.463a14.668,14.668,0,0,1,3.5-1.727,4.384,4.384,0,0,0,2.693-2.653c.463-1.9-1.361-3.7-3.271-4.127s-3.889.055-5.843.171-4.175-.281-5.277-1.9l6.385-3.036a2.416,2.416,0,0,0,1.418-1.228c.354-1.1-.9-1.991-1.947-2.468l-4.158-1.89a2.376,2.376,0,0,0-.164-.738c2.523-1.038,5.376-.64,8.08-.274s5.6.654,8.037-.564,4.013-4.548,2.444-6.78c-.847-1.2-2.485-2.029-2.52-3.5-.029-1.218,1.131-2.141,2.285-2.53a20.773,20.773,0,0,0,3.489-1.053c1.067-.587,1.86-1.991,1.217-3.026" transform="translate(-147.228 -48.573)" fill="#f5f5f5"/>
            <path id="Path_831735" data-name="Path 831735" d="M381.609,140.57a2.066,2.066,0,1,1-2.066-2.066,2.066,2.066,0,0,1,2.066,2.066" transform="translate(-160.789 -58.997)" fill="#ffae7e"/>
            <path id="Path_831736" data-name="Path 831736" d="M392.786,140.57a2.066,2.066,0,1,1-2.066-2.066,2.066,2.066,0,0,1,2.066,2.066" transform="translate(-165.55 -58.997)" fill="#ffae7e"/>
            <path id="Path_831737" data-name="Path 831737" d="M403.963,140.57A2.066,2.066,0,1,1,401.9,138.5a2.066,2.066,0,0,1,2.066,2.066" transform="translate(-170.311 -58.997)" fill="#ffae7e"/>
            <path id="Path_831738" data-name="Path 831738" d="M120.91,22.083a12.067,12.067,0,0,0-10.87,7.128A12.065,12.065,0,0,0,112.354,42c-5.641,1.219-9.263,7.822-7.75,13.391s7.463,9.378,13.22,8.977,10.913-4.61,13.029-9.979a11.759,11.759,0,0,0,21.924.69c2.54,4.731,9.787,5.522,13.934,2.11s5.1-9.747,3.111-14.734-6.416-8.69-11.288-10.948c3.1-2.8,3.494-7.934,1.281-11.483A12.034,12.034,0,0,0,149.06,14.79,17.251,17.251,0,0,0,138,20.085a8.635,8.635,0,0,0-16.607,1.75" transform="translate(-44.41 -6.185)" fill="#f5f5f5"/>
            <path id="Path_831739" data-name="Path 831739" d="M144.254,43.126l5.392,9.5a1.769,1.769,0,0,0,3.2-1.468l-3.707-10.381A1.388,1.388,0,0,0,147.21,40l-2.375,1.2a1.389,1.389,0,0,0-.582,1.925" transform="translate(-61.369 -16.976)" fill="#ffae7e"/>
            <path id="Path_831740" data-name="Path 831740" d="M162.912,69.114a2.661,2.661,0,1,1-2.989-2.286,2.661,2.661,0,0,1,2.989,2.286" transform="translate(-67.137 -28.456)" fill="#ffae7e"/>
            <path id="Path_831741" data-name="Path 831741" d="M174.779,34.8l.173,9.428a1.527,1.527,0,0,0,3.035.207l1.468-9.4a1.2,1.2,0,0,0-1.147-1.382l-2.294-.071a1.2,1.2,0,0,0-1.235,1.219" transform="translate(-74.448 -14.304)" fill="#ebebeb"/>
            <path id="Path_831742" data-name="Path 831742" d="M178.094,61.817a2.3,2.3,0,1,1-1.324-2.965,2.3,2.3,0,0,1,1.324,2.965" transform="translate(-73.968 -25.003)" fill="#ebebeb"/>
          </g>
        </g>
        <g id="Group_1078807" data-name="Group 1078807">
          <g id="Group_1078806" data-name="Group 1078806" clip-path="url(#clip-path-2)">
            <path id="Path_831743" data-name="Path 831743" d="M339.877,230.83l-4.885,13.794a2.369,2.369,0,0,0,4.3,1.955l7.255-12.861a1.859,1.859,0,0,0-.913-2.633l-3.3-1.354a1.86,1.86,0,0,0-2.459,1.1" transform="translate(-142.634 -97.796)" fill="#f5f5f5"/>
            <path id="Path_831744" data-name="Path 831744" d="M333.1,272.26a3.564,3.564,0,1,1-.308-5.031,3.564,3.564,0,0,1,.308,5.031" transform="translate(-139.229 -113.447)" fill="#f5f5f5"/>
            <path id="Path_831745" data-name="Path 831745" d="M244.338,61.623h4.654s0-4.288,4.061-4.364A3.8,3.8,0,0,1,256.7,59.9a4.965,4.965,0,0,1-.331,4.136c-.789,1.428-2.519,2.726-5.655,2.119V77.665h4.6V70.921s6.454-1.831,6.454-9.635a8.689,8.689,0,0,0-8.715-9.2c-2,0-8.8.53-8.715,9.538" transform="translate(-104.077 -22.186)" fill="#f5f5f5"/>
            <rect id="Rectangle_381367" data-name="Rectangle 381367" width="4.67" height="4.786" transform="translate(146.623 57.851)" fill="#f5f5f5"/>
          </g>
        </g>
        <g id="Group_1078809" data-name="Group 1078809">
          <g id="Group_1078808" data-name="Group 1078808" clip-path="url(#clip-path-2)">
            <path id="Path_831746" data-name="Path 831746" d="M438.352,209a1.867,1.867,0,0,1,.195-.176,2.04,2.04,0,0,1,.7-.347,2.533,2.533,0,0,1,1.277-.02,2.606,2.606,0,0,1,1.48.943,3.643,3.643,0,0,1,.746,2.107,5.284,5.284,0,0,1-.64,2.63,15.838,15.838,0,0,1-4.541,4.992,38.065,38.065,0,0,1-3.364,2.241c-1.215.728-2.5,1.475-3.891,2.173a27.405,27.405,0,0,1-4.506,1.824,16.94,16.94,0,0,1-2.521.56,13.817,13.817,0,0,1-2.676.147,4.9,4.9,0,0,1-2.686-.689,1.977,1.977,0,0,1-.812-1.2,2.437,2.437,0,0,1,.18-1.459,7.381,7.381,0,0,1,1.811-2.346,21.63,21.63,0,0,1,2.359-1.93c1.684-1.19,3.482-2.3,5.329-3.44a27.778,27.778,0,0,1,6.037-2.869,15.358,15.358,0,0,1,3.412-.669,9.423,9.423,0,0,1,3.545.331,4.989,4.989,0,0,1,2.921,2.131,3.989,3.989,0,0,1,.066,3.659,6.347,6.347,0,0,1-2.591,2.755,15.1,15.1,0,0,1-3.56,1.505,23.673,23.673,0,0,1-7.871.759,58.282,58.282,0,0,1-8.1-1.176,37.278,37.278,0,0,1-4.081-1,17.443,17.443,0,0,1-1.99-.769,5.076,5.076,0,0,1-1.8-1.225,2.007,2.007,0,0,1-.482-1.023,1.911,1.911,0,0,1,.192-1.121,3.9,3.9,0,0,1,1.577-1.55,10.125,10.125,0,0,1,4.23-1.207,51.671,51.671,0,0,1,8.944.026,39,39,0,0,1,4.512.68c.75.154,1.495.345,2.238.55a6.153,6.153,0,0,1,2.153.935,2.3,2.3,0,0,1,.962,2.15,2.912,2.912,0,0,1-1.523,1.829,12.413,12.413,0,0,1-4.5,1.484,12.892,12.892,0,0,1-2.4.078,8.429,8.429,0,0,1-2.377-.446,3.593,3.593,0,0,1-1.944-1.487,2.562,2.562,0,0,1,.009-2.445,4.3,4.3,0,0,1,4.188-2.228,3.2,3.2,0,0,1,2.992,3.493,2.621,2.621,0,0,1-.417,1.221,2.594,2.594,0,0,1-.972.854,3.718,3.718,0,0,1-2.516.248A2.873,2.873,0,0,1,425.6,219a1.373,1.373,0,0,1,.131-1.328,1.9,1.9,0,0,1,1.11-.728,5.25,5.25,0,0,1,2.538.3,8.055,8.055,0,0,1,2.328,1.051,4.378,4.378,0,0,1,1.619,2,3.057,3.057,0,0,1-.14,2.575,4.639,4.639,0,0,1-1.856,1.813,6.433,6.433,0,0,1-2.471.8,7.366,7.366,0,0,1-4.982-1.23,8.972,8.972,0,0,1-3.214-4.065,7.59,7.59,0,0,1-.346-5.188,4.357,4.357,0,0,1,1.543-2.159,6.776,6.776,0,0,1,2.422-1.051,18.762,18.762,0,0,1,5.18-.406,26.775,26.775,0,0,1,5.129.576,7.277,7.277,0,0,1,4.3,2.733,4.835,4.835,0,0,1,.855,2.439,6.106,6.106,0,0,1-.4,2.54,8.747,8.747,0,0,1-3.181,3.906,18.916,18.916,0,0,1-2.134,1.332,20.522,20.522,0,0,1-2.258,1.081,8.728,8.728,0,0,1-4.917.614,14.309,14.309,0,0,1-8.124-5.229,9.186,9.186,0,0,1-1.651-4.534,11.084,11.084,0,0,1,.636-4.741,11.36,11.36,0,0,1,2.489-4.026,12.977,12.977,0,0,1,3.8-2.74,13.548,13.548,0,0,1,4.467-1.222,12.229,12.229,0,0,1,4.552.462,7.231,7.231,0,0,1,3.761,2.478,8.1,8.1,0,0,1,1.393,4.23,18.9,18.9,0,0,1-1.5,8.547,17.319,17.319,0,0,1-2.13,3.707,10.4,10.4,0,0,1-3.153,2.793,7.478,7.478,0,0,1-4.032.941,6.447,6.447,0,0,1-3.739-1.589,22.833,22.833,0,0,1-2.752-2.909,13.123,13.123,0,0,1-2.166-3.289,5.844,5.844,0,0,1-.436-1.914,5.552,5.552,0,0,1,.277-1.925,10.026,10.026,0,0,1,1.917-3.273,11.819,11.819,0,0,1,6.073-3.989,8.867,8.867,0,0,1,6.836.931,10.313,10.313,0,0,1,4.075,5.219,13.024,13.024,0,0,1,.763,6.274,8.73,8.73,0,0,1-2.6,5.325,10.49,10.49,0,0,1-5.06,2.4,15.556,15.556,0,0,1-5.242.223,7.94,7.94,0,0,1-4.362-2.051,8.95,8.95,0,0,1-2.374-3.749,9.2,9.2,0,0,1-.385-4.011,11.593,11.593,0,0,1,2.747-6.123,14.263,14.263,0,0,1,3.854-3.114,17.006,17.006,0,0,1,2.788-1.249c.652-.224.995-.306.995-.306s-.083.031-.248.085-.413.134-.737.25a17.661,17.661,0,0,0-2.768,1.272A14.3,14.3,0,0,0,421,212.874a11.518,11.518,0,0,0-2.7,6.079,9.085,9.085,0,0,0,.393,3.957,8.82,8.82,0,0,0,2.348,3.685,7.793,7.793,0,0,0,4.289,2,15.416,15.416,0,0,0,5.184-.234A10.33,10.33,0,0,0,435.483,226a8.549,8.549,0,0,0,2.533-5.22,12.831,12.831,0,0,0-.762-6.177,10.111,10.111,0,0,0-4-5.111,8.649,8.649,0,0,0-6.672-.9,11.593,11.593,0,0,0-5.95,3.922,9.8,9.8,0,0,0-1.87,3.2,5.318,5.318,0,0,0-.263,1.843,5.621,5.621,0,0,0,.421,1.833,12.886,12.886,0,0,0,2.132,3.223,22.6,22.6,0,0,0,2.722,2.874,6.192,6.192,0,0,0,3.6,1.53,7.23,7.23,0,0,0,3.892-.914,10.156,10.156,0,0,0,3.071-2.728,17.087,17.087,0,0,0,2.094-3.651,18.633,18.633,0,0,0,1.478-8.423,7.834,7.834,0,0,0-1.343-4.088,6.961,6.961,0,0,0-3.623-2.377,11.943,11.943,0,0,0-4.446-.448,13.283,13.283,0,0,0-4.371,1.2,11.832,11.832,0,0,0-6.139,6.608,10.805,10.805,0,0,0-.618,4.619,8.89,8.89,0,0,0,1.6,4.393,14.018,14.018,0,0,0,7.939,5.108,8.432,8.432,0,0,0,4.757-.6,20.258,20.258,0,0,0,2.226-1.066,18.466,18.466,0,0,0,2.1-1.312,8.442,8.442,0,0,0,3.079-3.772,5.811,5.811,0,0,0,.381-2.415,4.533,4.533,0,0,0-.8-2.29,6.984,6.984,0,0,0-4.131-2.614,26.57,26.57,0,0,0-5.066-.567,18.462,18.462,0,0,0-5.1.4,6.481,6.481,0,0,0-2.315,1,4.055,4.055,0,0,0-1.437,2.014,7.3,7.3,0,0,0,.34,4.98,8.681,8.681,0,0,0,3.1,3.93,7.067,7.067,0,0,0,4.781,1.181,6.145,6.145,0,0,0,2.359-.757,4.355,4.355,0,0,0,1.74-1.694,2.757,2.757,0,0,0,.126-2.331,4.081,4.081,0,0,0-1.511-1.866,7.76,7.76,0,0,0-2.242-1.01,5.017,5.017,0,0,0-2.384-.3,1.606,1.606,0,0,0-.937.609,1.076,1.076,0,0,0-.1,1.048,2.594,2.594,0,0,0,1.84,1.321,3.431,3.431,0,0,0,2.314-.222,2.235,2.235,0,0,0,1.232-1.842,2.905,2.905,0,0,0-2.728-3.176,4.009,4.009,0,0,0-3.9,2.067,2.269,2.269,0,0,0-.017,2.174,3.314,3.314,0,0,0,1.792,1.359,8.153,8.153,0,0,0,2.3.43,12.6,12.6,0,0,0,2.341-.076,12.125,12.125,0,0,0,4.39-1.444,2.643,2.643,0,0,0,1.391-1.636,2.022,2.022,0,0,0-.856-1.878,5.893,5.893,0,0,0-2.057-.888c-.737-.2-1.475-.394-2.219-.547a38.863,38.863,0,0,0-4.48-.678,51.468,51.468,0,0,0-8.891-.032,9.865,9.865,0,0,0-4.12,1.168,3.646,3.646,0,0,0-1.475,1.437,1.638,1.638,0,0,0,.253,1.859,4.829,4.829,0,0,0,1.7,1.157,17.1,17.1,0,0,0,1.959.759,37.025,37.025,0,0,0,4.052.993,58.145,58.145,0,0,0,8.069,1.179,23.461,23.461,0,0,0,7.79-.742,14.9,14.9,0,0,0,3.5-1.475,6.115,6.115,0,0,0,2.5-2.649,3.76,3.76,0,0,0-.052-3.452,4.771,4.771,0,0,0-2.791-2.032,9.2,9.2,0,0,0-3.463-.327,15.141,15.141,0,0,0-3.366.655,27.574,27.574,0,0,0-6,2.839c-1.843,1.135-3.648,2.244-5.322,3.423a21.4,21.4,0,0,0-2.342,1.909,7.219,7.219,0,0,0-1.773,2.281,2.27,2.27,0,0,0-.173,1.352,1.8,1.8,0,0,0,.741,1.093,4.744,4.744,0,0,0,2.592.664,13.7,13.7,0,0,0,2.646-.139,16.864,16.864,0,0,0,2.5-.549,27.3,27.3,0,0,0,4.486-1.8c1.386-.692,2.673-1.433,3.888-2.157a38.075,38.075,0,0,0,3.36-2.223,15.8,15.8,0,0,0,4.533-4.94,5.215,5.215,0,0,0,.644-2.587,3.584,3.584,0,0,0-.719-2.073,2.558,2.558,0,0,0-1.443-.936,2.522,2.522,0,0,0-1.259.005,2.153,2.153,0,0,0-.9.494" transform="translate(-175.611 -86.923)" fill="#f5f5f5"/>
            <path id="Path_831747" data-name="Path 831747" d="M334.23,7.827a3.536,3.536,0,0,1,.315-.279A3.3,3.3,0,0,1,335.659,7a4.064,4.064,0,0,1,2.041-.028,4.161,4.161,0,0,1,2.36,1.509,5.816,5.816,0,0,1,1.187,3.366,8.453,8.453,0,0,1-1.026,4.2,25.368,25.368,0,0,1-7.274,7.982,60.942,60.942,0,0,1-5.387,3.585c-1.947,1.165-4.008,2.36-6.233,3.476A43.9,43.9,0,0,1,314.114,34a27.174,27.174,0,0,1-4.033.894,22.145,22.145,0,0,1-4.279.232,7.8,7.8,0,0,1-4.275-1.1,3.12,3.12,0,0,1-1.28-1.886,3.865,3.865,0,0,1,.287-2.305,11.772,11.772,0,0,1,2.89-3.739,34.486,34.486,0,0,1,3.774-3.086c1.339-.962,2.743-1.869,4.172-2.777s2.874-1.831,4.364-2.729a44.427,44.427,0,0,1,9.659-4.588,24.587,24.587,0,0,1,5.453-1.067,15.011,15.011,0,0,1,5.654.53,9.888,9.888,0,0,1,2.623,1.248,6.418,6.418,0,0,1,2.018,2.136,6.323,6.323,0,0,1,.1,5.8,10.1,10.1,0,0,1-4.124,4.382,24.168,24.168,0,0,1-5.688,2.4,37.88,37.88,0,0,1-12.585,1.211,93.443,93.443,0,0,1-12.975-1.885,59.739,59.739,0,0,1-6.53-1.6,27.794,27.794,0,0,1-3.179-1.228,8.058,8.058,0,0,1-2.85-1.943,3.126,3.126,0,0,1-.754-1.6,2.973,2.973,0,0,1,.3-1.75,6.177,6.177,0,0,1,2.5-2.449,16.147,16.147,0,0,1,6.744-1.922,82.807,82.807,0,0,1,14.314.043,62.767,62.767,0,0,1,7.22,1.088c1.2.247,2.391.552,3.579.881a9.783,9.783,0,0,1,3.421,1.484,4.272,4.272,0,0,1,1.215,1.468,3.02,3.02,0,0,1,.294,1.895,3.379,3.379,0,0,1-.9,1.7,6.729,6.729,0,0,1-1.5,1.176,19.789,19.789,0,0,1-7.175,2.366,20.524,20.524,0,0,1-3.822.125,13.419,13.419,0,0,1-3.784-.71,5.672,5.672,0,0,1-3.068-2.344,3.711,3.711,0,0,1-.483-1.921,4.56,4.56,0,0,1,.5-1.916A6.8,6.8,0,0,1,318.532,17a5.036,5.036,0,0,1,4.715,5.5,4.124,4.124,0,0,1-.654,1.916,4.075,4.075,0,0,1-1.525,1.339,5.868,5.868,0,0,1-3.969.389,4.518,4.518,0,0,1-3.216-2.343,2.112,2.112,0,0,1,.2-2.044,2.954,2.954,0,0,1,1.728-1.131,5.064,5.064,0,0,1,2.052,0,19.925,19.925,0,0,1,1.967.487,12.8,12.8,0,0,1,3.7,1.672,6.911,6.911,0,0,1,2.563,3.169A5.1,5.1,0,0,1,326.438,28a4.808,4.808,0,0,1-.562,2,7.344,7.344,0,0,1-2.938,2.87,9.348,9.348,0,0,1-1.9.828,10.24,10.24,0,0,1-2.028.433,11.706,11.706,0,0,1-7.921-1.956,14.294,14.294,0,0,1-5.117-6.472,13.9,13.9,0,0,1-1-4.068,10.282,10.282,0,0,1,.449-4.181,6.893,6.893,0,0,1,2.44-3.416,10.772,10.772,0,0,1,3.848-1.669,29.945,29.945,0,0,1,8.275-.648,42.769,42.769,0,0,1,8.2.92,11.567,11.567,0,0,1,6.841,4.343,7.656,7.656,0,0,1,1.354,3.862,9.7,9.7,0,0,1-.635,4.032,13.912,13.912,0,0,1-5.066,6.218,30.126,30.126,0,0,1-3.408,2.129,32.964,32.964,0,0,1-3.609,1.728,16.94,16.94,0,0,1-3.851,1.061,12.339,12.339,0,0,1-3.979-.083,20.6,20.6,0,0,1-7.236-3.064,20.487,20.487,0,0,1-5.724-5.277,14.635,14.635,0,0,1-2.63-7.222,18.145,18.145,0,0,1,2.668-10.986c.319-.548.72-1.041,1.077-1.563.41-.479.8-.983,1.238-1.431a20.72,20.72,0,0,1,6.06-4.372,21.639,21.639,0,0,1,7.127-1.95,19.494,19.494,0,0,1,7.262.736,11.5,11.5,0,0,1,5.984,3.939,12.891,12.891,0,0,1,2.216,6.735,30.182,30.182,0,0,1-2.4,13.655,27.652,27.652,0,0,1-3.4,5.922,16.6,16.6,0,0,1-5.027,4.456,11.907,11.907,0,0,1-6.418,1.5,9.372,9.372,0,0,1-3.193-.786,11.915,11.915,0,0,1-2.754-1.742,36.43,36.43,0,0,1-4.4-4.65,20.935,20.935,0,0,1-3.461-5.249,9.31,9.31,0,0,1-.695-3.042,8.88,8.88,0,0,1,.439-3.06,15.992,15.992,0,0,1,3.057-5.22A18.861,18.861,0,0,1,315.306,6.9a14.137,14.137,0,0,1,10.9,1.481,14.689,14.689,0,0,1,3.981,3.679,19.108,19.108,0,0,1,2.525,4.65,20.8,20.8,0,0,1,1.222,10.023,15.863,15.863,0,0,1-1.358,4.682,12.721,12.721,0,0,1-2.787,3.819,16.765,16.765,0,0,1-8.08,3.828,24.9,24.9,0,0,1-8.38.361A13.563,13.563,0,0,1,309.52,38.3a12.36,12.36,0,0,1-3.155-2.145,14.3,14.3,0,0,1-3.8-5.987,14.708,14.708,0,0,1-.619-6.411,17.674,17.674,0,0,1,1.619-5.542,19.411,19.411,0,0,1,2.768-4.254A22.9,22.9,0,0,1,312.5,8.965a27.454,27.454,0,0,1,4.461-2.007c1.042-.361,1.591-.5,1.591-.5s-.134.046-.4.131-.662.212-1.182.4a28.117,28.117,0,0,0-4.441,2.031,22.891,22.891,0,0,0-6.124,5,19.361,19.361,0,0,0-2.743,4.24,17.574,17.574,0,0,0-1.6,5.512,14.593,14.593,0,0,0,.627,6.357,14.183,14.183,0,0,0,3.77,5.924,12.536,12.536,0,0,0,6.893,3.223,24.762,24.762,0,0,0,8.324-.371,16.6,16.6,0,0,0,7.992-3.8,12.551,12.551,0,0,0,2.742-3.767,15.686,15.686,0,0,0,1.336-4.628,20.606,20.606,0,0,0-1.222-9.926,18.9,18.9,0,0,0-2.5-4.6A14.472,14.472,0,0,0,326.1,8.56a13.925,13.925,0,0,0-10.739-1.447,18.642,18.642,0,0,0-9.569,6.3,15.765,15.765,0,0,0-3.01,5.144,8.593,8.593,0,0,0-.427,2.978,9.07,9.07,0,0,0,.679,2.961,20.724,20.724,0,0,0,3.426,5.184A36.271,36.271,0,0,0,310.83,34.3a9.991,9.991,0,0,0,5.808,2.468,11.653,11.653,0,0,0,6.278-1.472,16.348,16.348,0,0,0,4.944-4.39,27.414,27.414,0,0,0,3.366-5.867A29.936,29.936,0,0,0,333.6,11.507a12.632,12.632,0,0,0-2.167-6.593,11.232,11.232,0,0,0-5.847-3.837,19.22,19.22,0,0,0-7.155-.722A21.353,21.353,0,0,0,311.4,2.28a20.426,20.426,0,0,0-5.975,4.313c-.436.441-.815.937-1.219,1.409-.35.514-.746,1-1.06,1.539a17.864,17.864,0,0,0-2.623,10.81,14.345,14.345,0,0,0,2.58,7.081,20.2,20.2,0,0,0,5.645,5.2,20.308,20.308,0,0,0,7.131,3.021,12.047,12.047,0,0,0,3.887.08,16.606,16.606,0,0,0,3.783-1.044,32.44,32.44,0,0,0,3.576-1.713,29.838,29.838,0,0,0,3.375-2.108,13.623,13.623,0,0,0,4.964-6.084,9.4,9.4,0,0,0,.616-3.907,7.359,7.359,0,0,0-1.3-3.714,9.642,9.642,0,0,0-2.933-2.7,13.4,13.4,0,0,0-3.736-1.521,42.564,42.564,0,0,0-8.135-.91,29.636,29.636,0,0,0-8.192.639,10.482,10.482,0,0,0-3.742,1.618,6.6,6.6,0,0,0-2.334,3.271,9.993,9.993,0,0,0-.434,4.06,13.575,13.575,0,0,0,.98,3.982,13.989,13.989,0,0,0,5.008,6.337,11.407,11.407,0,0,0,7.719,1.908,9.984,9.984,0,0,0,1.971-.422,9.04,9.04,0,0,0,1.841-.8,7.052,7.052,0,0,0,2.823-2.749,4.505,4.505,0,0,0,.206-3.808,6.624,6.624,0,0,0-2.455-3.031,12.506,12.506,0,0,0-3.618-1.631,8.109,8.109,0,0,0-3.866-.483,2.661,2.661,0,0,0-1.554,1.011,1.814,1.814,0,0,0-.172,1.764,3.409,3.409,0,0,0,1.238,1.418,5.213,5.213,0,0,0,1.771.751,5.579,5.579,0,0,0,3.768-.363,3.787,3.787,0,0,0,1.416-1.242,3.838,3.838,0,0,0,.606-1.78,4.743,4.743,0,0,0-4.451-5.184,6.511,6.511,0,0,0-6.336,3.36,4.267,4.267,0,0,0-.47,1.793,3.425,3.425,0,0,0,.445,1.773,5.394,5.394,0,0,0,2.916,2.216,13.148,13.148,0,0,0,3.7.694,20.24,20.24,0,0,0,3.767-.122,19.509,19.509,0,0,0,7.066-2.326,6.458,6.458,0,0,0,1.44-1.124A3.1,3.1,0,0,0,331.866,22a3.323,3.323,0,0,0-1.4-3.091,9.527,9.527,0,0,0-3.325-1.437c-1.182-.327-2.367-.631-3.561-.878a62.251,62.251,0,0,0-7.188-1.086,82.612,82.612,0,0,0-14.262-.049,15.89,15.89,0,0,0-6.635,1.883A5.913,5.913,0,0,0,293.1,19.68a2.713,2.713,0,0,0-.278,1.6,2.869,2.869,0,0,0,.694,1.467,7.811,7.811,0,0,0,2.759,1.875,27.479,27.479,0,0,0,3.148,1.219,59.436,59.436,0,0,0,6.5,1.592,93.243,93.243,0,0,0,12.938,1.888,37.644,37.644,0,0,0,12.506-1.193A23.945,23.945,0,0,0,337,25.75a9.872,9.872,0,0,0,4.036-4.275,6.094,6.094,0,0,0-.087-5.593A6.2,6.2,0,0,0,339,13.817a9.7,9.7,0,0,0-2.563-1.222,14.809,14.809,0,0,0-5.572-.525,24.364,24.364,0,0,0-5.407,1.054,44.237,44.237,0,0,0-9.618,4.558c-1.487.895-2.934,1.816-4.363,2.722s-2.83,1.811-4.165,2.767a34.322,34.322,0,0,0-3.757,3.065,11.607,11.607,0,0,0-2.852,3.674,3.684,3.684,0,0,0-.28,2.2,2.946,2.946,0,0,0,1.208,1.782,7.645,7.645,0,0,0,4.182,1.071,21.945,21.945,0,0,0,4.249-.225,27.025,27.025,0,0,0,4.013-.883,43.793,43.793,0,0,0,7.193-2.895c2.222-1.11,4.282-2.3,6.23-3.459a61.094,61.094,0,0,0,5.384-3.568A25.311,25.311,0,0,0,340.143,16a8.381,8.381,0,0,0,1.031-4.157,5.758,5.758,0,0,0-1.16-3.332,4.119,4.119,0,0,0-2.324-1.5,4.051,4.051,0,0,0-2.022.013,3.366,3.366,0,0,0-1.438.8" transform="translate(-124.604 0)"/>
            <path id="Path_831748" data-name="Path 831748" d="M127.843,158.24s-.108-.007-.318-.037l-.927-.145a13.71,13.71,0,0,1-3.47-1,6.521,6.521,0,0,1-2.116-1.537,4.865,4.865,0,0,1-1.29-2.815,3.276,3.276,0,0,1,.322-1.72,3.65,3.65,0,0,1,1.25-1.385,2.922,2.922,0,0,1,1.914-.482,2.445,2.445,0,0,1,1.739,1.122,3.5,3.5,0,0,1,.471,2.129,5.46,5.46,0,0,1-.64,2.186,4.729,4.729,0,0,1-.69.958,7.406,7.406,0,0,1-.861.835,8.273,8.273,0,0,1-2.143,1.2,8.586,8.586,0,0,1-2.488.506,7.925,7.925,0,0,1-2.607-.264,7.549,7.549,0,0,1-2.445-1.15,6.734,6.734,0,0,1-1.862-2.06,8.435,8.435,0,0,1-1.022-5.577,7.839,7.839,0,0,1,1.014-2.8,7.241,7.241,0,0,1,.921-1.207,4.086,4.086,0,0,1,1.227-.941,2.131,2.131,0,0,1,1.579-.187,1.885,1.885,0,0,1,.707.431,1.82,1.82,0,0,1,.409.723,3.38,3.38,0,0,1,0,1.6,6.655,6.655,0,0,1-.522,1.5c-.492.94-1.025,1.829-1.6,2.726a13.7,13.7,0,0,1-2.034,2.488,7.978,7.978,0,0,1-2.742,1.7,5.413,5.413,0,0,1-3.178.188,5.883,5.883,0,0,1-2.7-1.6,8.149,8.149,0,0,1-1.707-2.572,17.36,17.36,0,0,1-1.061-5.858,14.391,14.391,0,0,1,.052-2.9,4.06,4.06,0,0,1,1.224-2.572,2.57,2.57,0,0,1,1.31-.591,2.91,2.91,0,0,1,1.4.164,3.7,3.7,0,0,1,2.009,1.813,4.878,4.878,0,0,1,.4,2.6,7.877,7.877,0,0,1-.673,2.449,10.74,10.74,0,0,1-1.238,2.115,11.7,11.7,0,0,1-5.431,3.934,10.808,10.808,0,0,1-3.963.6,10.413,10.413,0,0,1-3.494-.758,11.575,11.575,0,0,1-4.579-3.366,10.643,10.643,0,0,1-1.807-3.118,6.985,6.985,0,0,1-.281-.9c-.055-.2-.075-.311-.075-.311.024-.007.109.421.412,1.185a10.916,10.916,0,0,0,1.84,3.065,11.526,11.526,0,0,0,4.552,3.285,10.252,10.252,0,0,0,3.439.724,10.621,10.621,0,0,0,3.886-.612,11.489,11.489,0,0,0,5.309-3.878,10.542,10.542,0,0,0,1.2-2.069,7.621,7.621,0,0,0,.646-2.375,4.623,4.623,0,0,0-.384-2.461,3.435,3.435,0,0,0-1.865-1.674,2.408,2.408,0,0,0-2.444.385,3.8,3.8,0,0,0-1.125,2.4,14.171,14.171,0,0,0-.045,2.843,17.134,17.134,0,0,0,1.046,5.759,7.867,7.867,0,0,0,1.646,2.477,5.6,5.6,0,0,0,2.566,1.521,5.113,5.113,0,0,0,3.006-.181,7.688,7.688,0,0,0,2.637-1.634A20.365,20.365,0,0,0,115.726,148a4.475,4.475,0,0,0,.507-2.886,1.523,1.523,0,0,0-.337-.6,1.59,1.59,0,0,0-.585-.356,1.839,1.839,0,0,0-1.361.17,3.8,3.8,0,0,0-1.145.879,6.939,6.939,0,0,0-.884,1.156,7.548,7.548,0,0,0-.98,2.692,8.161,8.161,0,0,0,.977,5.39,6.728,6.728,0,0,0,4.138,3.1,8.279,8.279,0,0,0,4.942-.22,8.043,8.043,0,0,0,2.079-1.154,6.328,6.328,0,0,0,1.5-1.716,5.249,5.249,0,0,0,.622-2.09,3.3,3.3,0,0,0-.429-2,2.244,2.244,0,0,0-1.587-1.036,2.73,2.73,0,0,0-1.785.443,3.476,3.476,0,0,0-1.193,1.305,3.1,3.1,0,0,0-.315,1.628,4.723,4.723,0,0,0,1.23,2.731,6.431,6.431,0,0,0,2.06,1.527,14.245,14.245,0,0,0,3.43,1.041l.921.175c.208.039.313.067.313.067" transform="translate(-36.559 -59.254)"/>
          </g>
        </g>
        <g id="Group_1078811" data-name="Group 1078811">
          <g id="Group_1078810" data-name="Group 1078810" clip-path="url(#clip-path-2)">
            <path id="Path_831749" data-name="Path 831749" d="M31.546,374.376a7.2,7.2,0,0,0,2.724,6.131,9.5,9.5,0,0,0,5.709,1.614,18.246,18.246,0,0,0,4.111-.5c2.686,4.625,7.38,8.3,15.582,7.923a18.211,18.211,0,0,0,5.071-.947c13.043-4.317,12.114-23.831,12.114-23.831H40.613s-.058.79-.048,2.07a9.9,9.9,0,0,0-6.645,1.913,7.014,7.014,0,0,0-2.374,5.626m3.572,0a3.553,3.553,0,0,1,1.107-2.9c1.211-1.023,3.3-1.126,4.539-1.05a31.917,31.917,0,0,0,1.765,7.87c-1.805.325-4.577.5-6.125-.656a3.794,3.794,0,0,1-1.285-3.266" transform="translate(-13.437 -155.375)" fill="#9ab47b"/>
            <path id="Path_831750" data-name="Path 831750" d="M96.393,386.1a12.765,12.765,0,0,1,.8-1.422,29.642,29.642,0,0,0,2.982-7.216,12.718,12.718,0,0,1,.439-1.57,6.807,6.807,0,0,1-.233,1.62,22.433,22.433,0,0,1-3.007,7.276,6.805,6.805,0,0,1-.979,1.312" transform="translate(-41.058 -160.114)" fill="#f5f5f5"/>
            <path id="Path_831751" data-name="Path 831751" d="M91.374,386.79a90.978,90.978,0,0,1,2.251-10.174,45.639,45.639,0,0,1-.98,5.12,45.641,45.641,0,0,1-1.272,5.054" transform="translate(-38.917 -160.422)" fill="#f5f5f5"/>
            <path id="Path_831752" data-name="Path 831752" d="M83.794,386.234a8.087,8.087,0,0,1,.187-1.467c.144-.9.338-2.141.519-3.517s.312-2.626.4-3.532a8.081,8.081,0,0,1,.2-1.465,6.629,6.629,0,0,1,.014,1.48c-.04.913-.139,2.172-.32,3.556s-.41,2.625-.608,3.517a6.62,6.62,0,0,1-.394,1.427" transform="translate(-35.688 -160.268)" fill="#f5f5f5"/>
            <path id="Path_831753" data-name="Path 831753" d="M77.419,377.141a7.22,7.22,0,0,1,.046,1.365c0,.84.021,2,.1,3.277s.195,2.431.29,3.266a7.278,7.278,0,0,1,.114,1.36,5.415,5.415,0,0,1-.323-1.329,29.369,29.369,0,0,1-.387-6.579,5.436,5.436,0,0,1,.165-1.359" transform="translate(-32.889 -160.646)" fill="#f5f5f5"/>
            <path id="Path_831754" data-name="Path 831754" d="M67.671,374.66a11.374,11.374,0,0,1,.118,1.541,27.212,27.212,0,0,0,1.467,7.252,11.228,11.228,0,0,1,.49,1.466,6.165,6.165,0,0,1-.688-1.392,20.51,20.51,0,0,1-1.48-7.317,6.173,6.173,0,0,1,.093-1.55" transform="translate(-28.785 -159.589)" fill="#f5f5f5"/>
            <path id="Path_831755" data-name="Path 831755" d="M57.367,378.547c.093-.02.452,2,1.453,4.289.985,2.3,2.208,3.942,2.131,4a4.7,4.7,0,0,1-.845-1.041,17.11,17.11,0,0,1-2.559-5.914,4.744,4.744,0,0,1-.18-1.329" transform="translate(-24.431 -161.245)" fill="#f5f5f5"/>
            <path id="Path_831756" data-name="Path 831756" d="M79.95,301.234a1.815,1.815,0,0,1,.317.215,4.087,4.087,0,0,1,.754.8,6.11,6.11,0,0,1,1.028,3.862,12.249,12.249,0,0,1-2.013,5.6c-1.117,1.935-2.569,3.991-3.1,6.508a6.627,6.627,0,0,0,.2,3.644,11.649,11.649,0,0,0,1.727,3c.67.892,1.36,1.708,1.941,2.527a10.871,10.871,0,0,1,1.36,2.442,5.45,5.45,0,0,1,.061,3.984,3.584,3.584,0,0,1-.568.943,1.46,1.46,0,0,1-.274.268,4.863,4.863,0,0,0,.735-1.253,5.433,5.433,0,0,0-.15-3.865,10.808,10.808,0,0,0-1.365-2.373c-.582-.8-1.276-1.61-1.959-2.506a11.765,11.765,0,0,1-1.783-3.068,6.885,6.885,0,0,1-.222-3.8c.549-2.6,2.035-4.673,3.154-6.588a12.243,12.243,0,0,0,2.04-5.473,6.127,6.127,0,0,0-.913-3.785,6.191,6.191,0,0,0-.975-1.083" transform="translate(-32.577 -128.312)" fill="#263238"/>
            <path id="Path_831757" data-name="Path 831757" d="M72.1,306.39a1.443,1.443,0,0,1,.221.262,3.712,3.712,0,0,1,.454.875,5.889,5.889,0,0,1,.027,3.586,17.2,17.2,0,0,1-2.505,4.717,16.51,16.51,0,0,0-1.493,2.735,11.944,11.944,0,0,0-.778,3.232,11.706,11.706,0,0,0,1.149,6.261c.439.889.981,1.674,1.44,2.444a10.325,10.325,0,0,1,1.077,2.259,4.471,4.471,0,0,1-.3,3.548,2.725,2.725,0,0,1-.655.739,1.282,1.282,0,0,1-.3.177,3.492,3.492,0,0,0,.85-.974,4.428,4.428,0,0,0,.2-3.426,10.368,10.368,0,0,0-1.087-2.194c-.463-.757-1.017-1.541-1.474-2.449a11.832,11.832,0,0,1-1.2-6.412,12.059,12.059,0,0,1,.8-3.315,16.446,16.446,0,0,1,1.533-2.775,17.539,17.539,0,0,0,2.533-4.625,5.935,5.935,0,0,0,.067-3.491,6.111,6.111,0,0,0-.565-1.175" transform="translate(-28.827 -130.509)" fill="#263238"/>
            <path id="Path_831873" data-name="Path 831873" d="M0,0H15.417V2.94H0Z" transform="translate(37.718 232.039)" fill="#74875c"/>
          </g>
        </g>
        <g id="Group_1078813" data-name="Group 1078813">
          <g id="Group_1078812" data-name="Group 1078812" clip-path="url(#clip-path-2)">
            <path id="Path_831758" data-name="Path 831758" d="M518.092,317.238c-.054.068-.506-.2-1.009-.607s-.867-.784-.813-.852.506.2,1.009.607.867.784.813.851" transform="translate(-219.907 -134.504)" fill="#263238"/>
            <path id="Path_831759" data-name="Path 831759" d="M532.4,275.414a15.876,15.876,0,0,0-.468-5.7,5.621,5.621,0,0,0-3.888-3.884c-2.144-.444-4.341.909-5.542,2.74a15.789,15.789,0,0,0-1.97,6.214,219.438,219.438,0,0,0-2.689,45.1l8.774,1.231c3.854-15.745,5.083-29.507,5.784-45.7" transform="translate(-220.491 -113.195)" fill="#74875c"/>
            <path id="Path_831760" data-name="Path 831760" d="M528.86,265.772a.507.507,0,0,1-.04.14l-.145.4-.584,1.515c-.122.331-.285.688-.416,1.1l-.426,1.329-.492,1.526q-.214.826-.453,1.74a76.394,76.394,0,0,0-1.695,8.683c-.475,3.3-.786,6.954-1.031,10.794-.449,7.688-.519,14.666-.716,19.711-.094,2.523-.18,4.565-.277,5.974l-.11,1.622c-.015.169-.026.308-.037.421a.477.477,0,0,1-.023.143.522.522,0,0,1-.009-.145c0-.114,0-.253.005-.423q.019-.6.051-1.625c.059-1.41.112-3.452.177-5.975.141-5.045.176-12.023.625-19.724.245-3.846.566-7.508,1.058-10.816a72.577,72.577,0,0,1,1.766-8.7l.476-1.74q.274-.808.517-1.524t.452-1.325c.139-.406.311-.762.443-1.09l.641-1.5.173-.386a.506.506,0,0,1,.069-.127" transform="translate(-222.523 -113.207)" fill="#263238"/>
            <path id="Path_831761" data-name="Path 831761" d="M533.54,265.781a6.285,6.285,0,0,1,1.071,1.815,13.445,13.445,0,0,1,.8,5.676c-.234,4.848-.667,11.529-1.244,18.9s-1.224,14.046-1.742,18.867c-.259,2.41-.483,4.359-.649,5.7q-.125.977-.2,1.549c-.024.161-.044.292-.06.4a.442.442,0,0,1-.031.136.489.489,0,0,1,0-.14c.008-.11.017-.243.028-.405q.053-.573.141-1.555c.133-1.378.319-3.323.549-5.714.462-4.825,1.069-11.494,1.649-18.869s1.046-14.055,1.336-18.888a13.742,13.742,0,0,0-.692-5.623,11.9,11.9,0,0,0-.958-1.86" transform="translate(-226.39 -113.211)" fill="#263238"/>
            <path id="Path_831762" data-name="Path 831762" d="M543.271,304.468a9.416,9.416,0,0,1-3.22-1.155,9.4,9.4,0,0,1,3.22,1.155" transform="translate(-230.038 -129.19)" fill="#263238"/>
            <path id="Path_831763" data-name="Path 831763" d="M545.059,289.752a10.475,10.475,0,0,1-3.292,1.473,10.445,10.445,0,0,1,3.292-1.473" transform="translate(-230.769 -123.416)" fill="#263238"/>
            <path id="Path_831764" data-name="Path 831764" d="M544.623,276.848a5.462,5.462,0,0,1-2.595-.179,5.48,5.48,0,0,1,2.595.179" transform="translate(-230.881 -117.811)" fill="#263238"/>
            <path id="Path_831765" data-name="Path 831765" d="M529.69,267.189c-.073.046-.457-.433-.858-1.069s-.666-1.19-.592-1.236.457.432.858,1.069.666,1.19.592,1.236" transform="translate(-225.002 -112.828)" fill="#263238"/>
            <path id="Path_831766" data-name="Path 831766" d="M523.719,276.452a5.008,5.008,0,0,1-2.486-.053,5.007,5.007,0,0,1,2.486.053" transform="translate(-222.023 -117.678)" fill="#263238"/>
            <path id="Path_831767" data-name="Path 831767" d="M519.961,291.206a3.045,3.045,0,0,1-1.311-.36c-.692-.279-1.227-.57-1.194-.65a3.046,3.046,0,0,1,1.311.36c.692.279,1.226.57,1.194.65" transform="translate(-220.413 -123.602)" fill="#263238"/>
            <path id="Path_831768" data-name="Path 831768" d="M519.716,304.874c.018.085-.482.261-1.117.394s-1.162.172-1.18.087.482-.261,1.116-.394,1.163-.172,1.181-.087" transform="translate(-220.398 -129.844)" fill="#263238"/>
            <path id="Path_831769" data-name="Path 831769" d="M517.861,326.031c.016.085-.515.251-1.185.371a2.546,2.546,0,0,1-1.24.063c-.015-.085.515-.251,1.185-.371a2.563,2.563,0,0,1,1.241-.063" transform="translate(-219.553 -138.854)" fill="#263238"/>
            <path id="Path_831770" data-name="Path 831770" d="M516.914,337.734c.04.076-.4.39-.988.7s-1.095.5-1.135.422.4-.39.988-.7,1.095-.5,1.135-.423" transform="translate(-219.278 -143.853)" fill="#263238"/>
            <path id="Path_831771" data-name="Path 831771" d="M526.943,349.123c-.075.043-.461-.489-.862-1.189a3.527,3.527,0,0,1-.589-1.344c.075-.043.46.489.861,1.189a3.527,3.527,0,0,1,.589,1.344" transform="translate(-223.832 -147.632)" fill="#263238"/>
            <path id="Path_831772" data-name="Path 831772" d="M529.19,328.968c.061.062-.369.581-.959,1.16s-1.118,1-1.179.936.368-.581.959-1.16,1.118-1,1.178-.936" transform="translate(-224.499 -140.124)" fill="#263238"/>
            <path id="Path_831773" data-name="Path 831773" d="M529.016,316.167c-.064.059-.462-.268-.89-.73s-.724-.884-.66-.943.462.268.89.73.724.885.66.943" transform="translate(-224.674 -133.958)" fill="#263238"/>
            <path id="Path_831774" data-name="Path 831774" d="M530.7,302.639c.064.059-.293.563-.8,1.127s-.968.976-1.033.918.294-.562.8-1.127.969-.976,1.033-.918" transform="translate(-225.271 -128.909)" fill="#263238"/>
            <path id="Path_831775" data-name="Path 831775" d="M531.633,290.452c-.061.062-.56-.331-1.116-.877s-.956-1.039-.9-1.1.56.331,1.116.877.957,1.038.9,1.1" transform="translate(-225.593 -122.875)" fill="#263238"/>
            <path id="Path_831776" data-name="Path 831776" d="M534.181,277.432a3.059,3.059,0,0,1-.56,1.245c-.383.643-.755,1.129-.829,1.085a3.08,3.08,0,0,1,.56-1.246c.384-.643.755-1.129.83-1.084" transform="translate(-226.941 -118.173)" fill="#263238"/>
            <path id="Path_831777" data-name="Path 831777" d="M538.207,264a2.965,2.965,0,0,1-.5,1.247c-.35.647-.7,1.138-.771,1.1a2.978,2.978,0,0,1,.5-1.246c.35-.648.7-1.139.771-1.1" transform="translate(-228.707 -112.453)" fill="#263238"/>
            <path id="Path_831778" data-name="Path 831778" d="M542.359,270.087c.037.078-.313.324-.784.549s-.882.344-.919.266.313-.324.784-.549.882-.344.919-.266" transform="translate(-230.295 -115.035)" fill="#263238"/>
            <path id="Path_831779" data-name="Path 831779" d="M541.353,317.308a5.357,5.357,0,0,1-3.2-1.366,68.95,68.95,0,0,1,3.2,1.366" transform="translate(-229.227 -134.573)" fill="#263238"/>
            <path id="Path_831780" data-name="Path 831780" d="M540.11,328.51c.017.085-.512.258-1.18.387a2.562,2.562,0,0,1-1.24.079c-.016-.085.512-.258,1.181-.387a2.555,2.555,0,0,1,1.239-.08" transform="translate(-229.033 -139.911)" fill="#263238"/>
            <path id="Path_831781" data-name="Path 831781" d="M538.041,344.022a4.966,4.966,0,0,1-2.174-2.741,338.865,338.865,0,0,0,2.174,2.741" transform="translate(-228.252 -145.37)" fill="#263238"/>
            <path id="Path_831782" data-name="Path 831782" d="M515.091,352.92c-.056-.066.3-.463.8-.887s.944-.715,1-.649-.3.463-.8.887-.944.714-1,.649" transform="translate(-219.404 -149.671)" fill="#263238"/>
            <path id="Path_831783" data-name="Path 831783" d="M502.94,312.956c-.571-1.784-1.643-3.862-3.515-3.889a3.111,3.111,0,0,0-2.633,1.761,6.5,6.5,0,0,0-.711,3.228,84.111,84.111,0,0,0,4.024,23.37h6.85a81.381,81.381,0,0,0-4.015-24.471" transform="translate(-211.308 -131.65)" fill="#74875c"/>
            <path id="Path_831784" data-name="Path 831784" d="M477.715,291.769a7.615,7.615,0,0,0-7.132-6.091c-3.028.531-4.2,3.512-4.562,6.565s.588,6.092,1.525,9.02q4.509,14.1,9.018,28.2l8.522-.931c-2.7-12.6-4.246-24.271-7.371-36.768" transform="translate(-198.472 -121.687)" fill="#74875c"/>
            <path id="Path_831785" data-name="Path 831785" d="M501.058,309.068a7.184,7.184,0,0,0-.58.97,6.391,6.391,0,0,0-.321,3.029c.133,1.3.282,2.87.5,4.588s.534,3.606.918,5.574c.775,3.936,1.647,7.467,2.2,10.041.281,1.286.492,2.331.626,3.055.057.334.1.609.143.836a1.086,1.086,0,0,1,.029.3,1.045,1.045,0,0,1-.091-.282c-.054-.224-.121-.5-.2-.824l-.723-3.03c-.608-2.56-1.516-6.083-2.293-10.031-.386-1.974-.689-3.867-.9-5.6-.109-.865-.181-1.691-.251-2.463s-.146-1.486-.183-2.147a6.216,6.216,0,0,1,.431-3.095,2.707,2.707,0,0,1,.691-.918" transform="translate(-212.941 -131.65)" fill="#263238"/>
            <path id="Path_831786" data-name="Path 831786" d="M472.325,285.256a11.284,11.284,0,0,0-1.03,1.384A9.73,9.73,0,0,0,470,291.1a20.632,20.632,0,0,0,1.054,6.862l2.432,8.241,4.362,14.994,1.288,4.553.335,1.243a2.423,2.423,0,0,1,.1.439,2.377,2.377,0,0,1-.157-.421l-.392-1.226-1.383-4.525-4.451-14.968-2.409-8.251a20.388,20.388,0,0,1-1-6.955,9.553,9.553,0,0,1,1.415-4.51,5.241,5.241,0,0,1,1.133-1.319" transform="translate(-200.09 -121.507)" fill="#263238"/>
            <path id="Path_831787" data-name="Path 831787" d="M486.335,327.574a2.478,2.478,0,0,1-.192-.408c-.112-.274-.293-.671-.486-1.2-.406-1.047-.927-2.59-1.466-4.526s-1.074-4.269-1.588-6.873c-.494-2.61-1.036-5.472-1.6-8.478-.593-3-1.253-5.839-2.018-8.372a46.548,46.548,0,0,0-2.485-6.566,34.772,34.772,0,0,0-2.3-4.141c-.293-.478-.56-.822-.718-1.071a2.392,2.392,0,0,1-.238-.384,2.458,2.458,0,0,1,.289.346c.175.238.459.572.768,1.041a30.919,30.919,0,0,1,2.4,4.112,44.473,44.473,0,0,1,2.561,6.579,84.172,84.172,0,0,1,2.05,8.4l1.581,8.483c.5,2.6,1.006,4.934,1.519,6.871s1,3.484,1.366,4.542c.174.533.336.937.429,1.217a2.456,2.456,0,0,1,.134.432" transform="translate(-201.58 -121.634)" fill="#263238"/>
            <path id="Path_831788" data-name="Path 831788" d="M467.408,310.346c.02.084-.443.269-1.036.413s-1.089.192-1.109.108.443-.269,1.035-.413,1.089-.192,1.11-.108" transform="translate(-198.182 -132.176)" fill="#263238"/>
            <path id="Path_831789" data-name="Path 831789" d="M465.288,300.122a10.54,10.54,0,0,1-2.882.113,4.955,4.955,0,0,1,2.882-.113" transform="translate(-196.965 -127.77)" fill="#263238"/>
            <path id="Path_831790" data-name="Path 831790" d="M467.712,289.809c-.056.066-.519-.235-1.034-.672s-.887-.844-.831-.91.519.234,1.034.672.887.844.831.91" transform="translate(-198.428 -122.769)" fill="#263238"/>
            <path id="Path_831791" data-name="Path 831791" d="M473.432,282.423c.087.02.063.433.05.935s-.017.916-.1.931-.226-.4-.21-.94.181-.945.263-.925" transform="translate(-201.549 -120.3)" fill="#263238"/>
            <path id="Path_831792" data-name="Path 831792" d="M481.993,286.455c.071.05-.137.47-.466.937s-.65.808-.722.758.138-.47.465-.938.651-.807.723-.758" transform="translate(-204.797 -122.016)" fill="#263238"/>
            <path id="Path_831793" data-name="Path 831793" d="M487.337,296.875c.033.08-.409.336-.986.571s-1.071.361-1.1.281.409-.336.986-.571,1.071-.361,1.1-.281" transform="translate(-206.694 -126.446)" fill="#263238"/>
            <path id="Path_831794" data-name="Path 831794" d="M490.437,307.614a3.937,3.937,0,0,1-2.825.641,27.863,27.863,0,0,1,2.825-.641" transform="translate(-207.702 -131.022)" fill="#263238"/>
            <path id="Path_831795" data-name="Path 831795" d="M475.776,303.236c-.083-.026-.023-.452.134-.951s.35-.883.433-.857.023.452-.134.951-.35.883-.433.857" transform="translate(-202.645 -128.395)" fill="#263238"/>
            <path id="Path_831796" data-name="Path 831796" d="M478.124,316.247a2.949,2.949,0,0,1,.385-1.281c.293-.673.594-1.191.673-1.156a2.947,2.947,0,0,1-.386,1.281c-.292.673-.594,1.191-.673,1.156" transform="translate(-203.652 -133.669)" fill="#263238"/>
            <path id="Path_831797" data-name="Path 831797" d="M470.6,321.163a3.093,3.093,0,0,1-1.227-.27c-.653-.2-1.181-.392-1.162-.478a2.313,2.313,0,0,1,1.256.179c.668.208,1.166.49,1.134.569" transform="translate(-199.437 -136.467)" fill="#263238"/>
            <path id="Path_831798" data-name="Path 831798" d="M474.348,332.725c.051.071-.315.417-.816.774s-.947.59-1,.52.315-.417.815-.775.947-.59,1-.519" transform="translate(-201.278 -141.721)" fill="#263238"/>
            <path id="Path_831799" data-name="Path 831799" d="M476.81,343.659c.021.084-.431.266-1.009.406s-1.062.187-1.083.1.431-.266,1.009-.406,1.062-.186,1.083-.1" transform="translate(-202.209 -146.366)" fill="#263238"/>
            <path id="Path_831800" data-name="Path 831800" d="M491.36,316.766c.044.072-.343.381-.905.591s-1.055.237-1.07.153.426-.244.96-.447.971-.374,1.015-.3" transform="translate(-208.457 -134.921)" fill="#263238"/>
            <path id="Path_831801" data-name="Path 831801" d="M493.465,333.137c-.037.078-.5-.061-1.027-.31s-.931-.516-.894-.594.5.06,1.028.31.931.516.894.594" transform="translate(-209.376 -141.508)" fill="#263238"/>
            <path id="Path_831802" data-name="Path 831802" d="M496.611,345.25a3.238,3.238,0,0,1-1.357-.363c-.718-.281-1.274-.575-1.242-.656a6.3,6.3,0,0,1,2.6,1.019" transform="translate(-210.427 -146.619)" fill="#263238"/>
            <path id="Path_831803" data-name="Path 831803" d="M478.944,354.189c-.043-.079.517-.455,1.162-.964s1.146-.961,1.212-.9-.346.621-1.018,1.147a2.8,2.8,0,0,1-1.355.718" transform="translate(-204.009 -150.073)" fill="#263238"/>
            <path id="Path_831804" data-name="Path 831804" d="M488,347.86c-.089.01-.21-.46-.423-1.007s-.436-.978-.363-1.029.429.325.656.917.214,1.113.131,1.119" transform="translate(-207.525 -147.304)" fill="#263238"/>
            <path id="Path_831805" data-name="Path 831805" d="M484.98,333.94c-.051.07-.408-.1-.8-.381s-.666-.564-.616-.635.408.1.8.381.666.564.616.634" transform="translate(-205.976 -141.805)" fill="#263238"/>
            <path id="Path_831806" data-name="Path 831806" d="M507.218,311.709c.052.069-.3.414-.778.769s-.913.586-.964.516.3-.413.778-.769.912-.586.964-.516" transform="translate(-215.309 -132.769)" fill="#263238"/>
            <path id="Path_831807" data-name="Path 831807" d="M510.143,320.764c.008.084-.537.2-1.212.125s-1.184-.3-1.158-.381.549,0,1.191.069,1.172.1,1.178.187" transform="translate(-216.289 -136.508)" fill="#263238"/>
            <path id="Path_831808" data-name="Path 831808" d="M495.626,323.019c.018.083-.486.264-1.139.306s-1.177-.068-1.169-.152.522-.118,1.149-.161,1.141-.08,1.16.007" transform="translate(-210.132 -137.57)" fill="#263238"/>
            <path id="Path_831809" data-name="Path 831809" d="M497.177,313.646c-.006.083-.517.1-1.075-.162s-.882-.652-.823-.71.444.195.954.425.955.358.944.447" transform="translate(-210.965 -133.224)" fill="#263238"/>
            <path id="Path_831810" data-name="Path 831810" d="M511.542,329.9c-.046.073-.569-.173-1.167-.549s-1.046-.742-1-.815.568.172,1.167.549,1.046.741,1,.815" transform="translate(-216.97 -139.937)" fill="#263238"/>
            <rect id="Rectangle_381372" data-name="Rectangle 381372" width="44.602" height="7.905" transform="translate(270.368 204.885)" fill="#cc8b64"/>
            <path id="Path_831811" data-name="Path 831811" d="M476.792,367.954l5.424,23.623H508.8l5.934-23.623Z" transform="translate(-203.093 -156.733)" fill="#cc8b64"/>
            <path id="Path_831812" data-name="Path 831812" d="M515.3,370.587c0,.087-10.061.157-22.468.157s-22.47-.07-22.47-.157,10.058-.157,22.47-.157,22.468.07,22.468.157" transform="translate(-200.353 -157.787)" fill="#263238"/>
            <path id="Path_831813" data-name="Path 831813" d="M504.609,322.054c-.073.046-.378-.309-.681-.793s-.488-.914-.415-.96.378.309.681.794.489.913.415.959" transform="translate(-214.468 -136.433)" fill="#263238"/>
            <path id="Path_831814" data-name="Path 831814" d="M505.441,332.729c-.082-.028.022-.565.234-1.2s.449-1.129.531-1.1-.022.565-.234,1.2-.449,1.129-.531,1.1" transform="translate(-215.284 -140.747)" fill="#263238"/>
            <path id="Path_831815" data-name="Path 831815" d="M508.348,344.2c-.078.037-.412-.5-.745-1.192a3.248,3.248,0,0,1-.462-1.327c.078-.037.412.5.745,1.192a3.244,3.244,0,0,1,.462,1.327" transform="translate(-216.014 -145.54)" fill="#263238"/>
            <path id="Path_831816" data-name="Path 831816" d="M501.042,354.2c-.065-.057.2-.47.594-.924s.766-.776.831-.719-.2.47-.594.924-.766.776-.831.719" transform="translate(-213.418 -150.173)" fill="#263238"/>
            <path id="Path_831817" data-name="Path 831817" d="M497.944,338.147c-.015.085-.444.081-.959-.01s-.919-.234-.9-.319.444-.08.959.01.919.234.9.319" transform="translate(-211.309 -143.87)" fill="#263238"/>
          </g>
        </g>
        <g id="Group_1078821" data-name="Group 1078821">
          <g id="Group_1078820" data-name="Group 1078820" clip-path="url(#clip-path-2)">
            <path id="Path_831818" data-name="Path 831818" d="M196.066,138.818c-1.591-3.956-4.783-7.5-8.944-8.437-4.23-.951-8.586.9-12.255,3.212-3.621,2.281-7.067,5.235-8.591,9.234-1.472,3.862-.591,8.831,2.776,11.15-3.492-2.174-8.833.457-9.685,4.562-.881,4.248,2.433,8.654,6.626,9.772a12.64,12.64,0,0,0,10.677-2.51,8.912,8.912,0,0,0-.947,10.422c2.276,3.666,7.1,5.342,11.312,4.394a14.152,14.152,0,0,0,9.445-8.161L198,151.39c-.1-4.262-.343-8.616-1.934-12.572" transform="translate(-67.823 -55.428)" fill="#263238"/>
            <path id="Path_831819" data-name="Path 831819" d="M213.694,162.109c-4.052,1.312-4.881,4.593-5.722,7.327-1.812,5.884.225,14.593,3.518,19.8s6.9,7.847,13,8.727q.3-14.012.595-28.024Z" transform="translate(-88.298 -69.051)" fill="#ff725e"/>
            <path id="Path_831820" data-name="Path 831820" d="M213.089,160.933a9.705,9.705,0,0,1,.862-12.413c-1.774-2.228-1.137-5.665.666-7.871s4.48-3.47,7.065-4.665a13.064,13.064,0,0,1,15.224-9.539c3.379-4.967,10.577-5.746,16.345-4.065a15.368,15.368,0,0,0,4.283.935,24.9,24.9,0,0,0,3.2-.443c5.867-.789,11.691,3.341,13.979,8.8a10.842,10.842,0,0,0,1.246,2.541,14.708,14.708,0,0,0,2.9,2.317,9.37,9.37,0,0,1,3.589,6.928c.1,2.278-.63,4.7.33,6.766.481,1.037,1.35,1.874,1.724,2.955,1.085,3.13-2.385,6.331-1.742,9.581.131.663.43,1.281.614,1.931a5.782,5.782,0,0,1-.352,4.042,8.291,8.291,0,0,0-1.273,2.906,9.362,9.362,0,0,0,.474,2.371c.4,1.94-3.79,9.422-5.466,10.477l-50.1.448a9.361,9.361,0,0,1-7.244-8.061,3.427,3.427,0,0,0-.467-1.843,4.012,4.012,0,0,0-1.367-.889c-3.226-1.732-3.615-6.161-3.275-9.806a4.456,4.456,0,0,0-.028-1.53,5.6,5.6,0,0,0-1.183-1.877" transform="translate(-89.981 -51.787)" fill="#263238"/>
            <path id="Path_831821" data-name="Path 831821" d="M239.46,170.525c-.148-8.866,5.413-19.055,14.22-23.391,5.552-2.733,9.883-2.751,12.8-3.091a20.291,20.291,0,0,1,11.815,2.478c2.761.648,12.881,9.914,13.406,19.969.584,11.17.856,24.83-.556,33.145-2.839,16.719-15.7,18.713-15.7,18.713,0-.026,1.2,27.791,1.2,27.791l-24.713,20.253-9.623-32.171Z" transform="translate(-101.998 -61.307)" fill="#ffc09d"/>
            <path id="Path_831822" data-name="Path 831822" d="M285.507,268.954a42.777,42.777,0,0,1-22.44-6.22s5.845,11.868,22.623,10.48Z" transform="translate(-112.055 -111.913)" fill="#ff9b6c"/>
            <path id="Path_831823" data-name="Path 831823" d="M234.966,214.555c.01-1.247-1.4-4.2-2.629-4.409-3.284-.548-9.215-.347-9.36,8.005-.2,11.418,11.306,9.261,11.333,8.934.02-.255.621-8.224.656-12.53" transform="translate(-94.978 -89.436)" fill="#ffc09d"/>
            <path id="Path_831824" data-name="Path 831824" d="M233.631,225.7c-.049-.037-.2.137-.54.285a2,2,0,0,1-1.488.005c-1.2-.464-2.181-2.4-2.2-4.455a6.568,6.568,0,0,1,.605-2.839,2.3,2.3,0,0,1,1.523-1.5,1.013,1.013,0,0,1,1.165.565c.148.321.071.549.131.569.032.03.249-.186.165-.659a1.268,1.268,0,0,0-.437-.724,1.5,1.5,0,0,0-1.095-.309,2.794,2.794,0,0,0-2.108,1.734,6.747,6.747,0,0,0-.745,3.171c.033,2.3,1.173,4.475,2.816,4.981a2.133,2.133,0,0,0,1.824-.271c.358-.276.422-.531.383-.552" transform="translate(-97.377 -92.274)" fill="#ff9b6c"/>
            <path id="Path_831825" data-name="Path 831825" d="M289.589,160.717a30.279,30.279,0,0,0-4.016-11.731,24.308,24.308,0,0,0-5.158-6.877,26.8,26.8,0,0,0-6.166-3.719c-5.72-2.713-12.1-5.015-18.277-3.623-3.315.747-6.3,2.509-9.2,4.275a34.474,34.474,0,0,0-6.324,4.56,25.894,25.894,0,0,0-4.11,5.462,35.419,35.419,0,0,0-5.091,15.376c-.374,5.435-4.486,10.24-1.3,14.659.247.342,5.922,1.517,6.314,1.673.922.367,1.936-.634,1.929-1.626a3.657,3.657,0,0,0-1.426-2.515c1.413-.048,2.382-1.621,2.293-3.032a7.475,7.475,0,0,0-1.763-3.792,1.1,1.1,0,0,1-.246-.489c-.059-.482.486-.778.9-1.025a3.843,3.843,0,0,0,.408-6.018,5.156,5.156,0,0,0,3.518-6.529,1.65,1.65,0,0,1-.164-1.274c.191-.379.662-.5,1.069-.619a6.549,6.549,0,0,0,4.385-7.373,16.4,16.4,0,0,0,4.738-.211,5.542,5.542,0,0,0,3.738-2.7,6.184,6.184,0,0,0,10.461.561,16.178,16.178,0,0,0,7.838-1.214,7.651,7.651,0,0,0,4.984,5.367c.471.152,1.013.3,1.24.741a1.8,1.8,0,0,1,.1.928c-.084,1.594,1,2.273,1.881,3.606s2.412,3.317,3.947,2.878c-.171,2.715,1.281,4.692,3.574,6.157Z" transform="translate(-97.434 -57.227)" fill="#263238"/>
            <path id="Path_831826" data-name="Path 831826" d="M284.41,153.063a4.365,4.365,0,0,0-.6-1.231c-.239-.382-.576-.828-.894-1.4a5.313,5.313,0,0,1-.621-2.139,16.653,16.653,0,0,1,.075-2.824,12.558,12.558,0,0,0-.06-3.391,9.518,9.518,0,0,0-1.47-3.611,9.368,9.368,0,0,0-1.39-1.629,13.985,13.985,0,0,0-1.792-1.358,7.062,7.062,0,0,1-1.722-1.513,9.22,9.22,0,0,1-1.063-2.158,15.322,15.322,0,0,0-7.13-7.882,13.625,13.625,0,0,0-2.74-1.057,12.256,12.256,0,0,0-3-.366,14.063,14.063,0,0,0-1.54.109c-.511.075-1.016.178-1.522.263a7.36,7.36,0,0,1-3.052-.023c-1.02-.211-2.019-.588-3.072-.859a20.064,20.064,0,0,0-6.578-.66,17.4,17.4,0,0,0-3.355.588,11.258,11.258,0,0,0-5.781,3.744l-.428.558.183-.07a13.248,13.248,0,0,0-15.425,9.671l.091-.114A36.178,36.178,0,0,0,217.5,137.8a12.045,12.045,0,0,0-3.292,2.9,7.833,7.833,0,0,0-1.519,3.929,5.394,5.394,0,0,0,1.059,3.87l.011-.191a9.454,9.454,0,0,0-2.678,5.84,9.684,9.684,0,0,0,1.139,5.685,9.463,9.463,0,0,0,.749,1.137,12.217,12.217,0,0,1,.778,1.026,2.436,2.436,0,0,1,.4,1.123,6.93,6.93,0,0,1-.042,1.185,18.738,18.738,0,0,0,.085,4.335,9.078,9.078,0,0,0,1.1,3.308,5.615,5.615,0,0,0,1.761,1.868c.586.394,1.106.549,1.394.763a2.624,2.624,0,0,1,.413.348,1.334,1.334,0,0,0-.388-.384c-.286-.23-.806-.4-1.371-.8a5.567,5.567,0,0,1-1.7-1.86,9.007,9.007,0,0,1-1.042-3.267,18.722,18.722,0,0,1-.049-4.294,7.032,7.032,0,0,0,.05-1.22,2.648,2.648,0,0,0-.421-1.219,12.337,12.337,0,0,0-.785-1.05,9.153,9.153,0,0,1-.722-1.111,9.448,9.448,0,0,1-1.083-5.546,9.2,9.2,0,0,1,2.619-5.662l.092-.091-.081-.1a5.1,5.1,0,0,1-.984-3.665,7.532,7.532,0,0,1,1.47-3.769,11.742,11.742,0,0,1,3.213-2.811,36.027,36.027,0,0,1,3.989-2.052l.074-.034.018-.08a12.925,12.925,0,0,1,15.023-9.407l.109.026.074-.1.414-.538a10.919,10.919,0,0,1,5.607-3.629,17.041,17.041,0,0,1,3.283-.578,19.737,19.737,0,0,1,6.467.642c1.034.265,2.041.644,3.093.859a7.859,7.859,0,0,0,1.6.179A9.375,9.375,0,0,0,259,123.2c.513-.087,1.016-.191,1.514-.265a13.706,13.706,0,0,1,1.5-.108,11.979,11.979,0,0,1,2.919.349A13.308,13.308,0,0,1,267.6,124.2a15.062,15.062,0,0,1,7.021,7.711,9.454,9.454,0,0,0,1.106,2.213,7.3,7.3,0,0,0,1.788,1.56,13.852,13.852,0,0,1,1.772,1.327,9.129,9.129,0,0,1,1.366,1.581,9.331,9.331,0,0,1,1.462,3.523,12.431,12.431,0,0,1,.086,3.344,16.488,16.488,0,0,0-.045,2.85,5.374,5.374,0,0,0,.665,2.176c.332.574.678,1.011.925,1.385a6.736,6.736,0,0,1,.515.877c.1.207.138.319.146.316" transform="translate(-89.893 -51.667)" fill="#455a64"/>
            <path id="Path_831827" data-name="Path 831827" d="M265.321,124.682c.017.026.3-.17.86-.438a7.68,7.68,0,0,1,2.5-.707,7.214,7.214,0,0,1,3.749.576,7.453,7.453,0,0,1,3.391,3.121,6.3,6.3,0,0,1,.557,1.3,1.424,1.424,0,0,1-.092,1.2l-.282.386.462-.127a4.726,4.726,0,0,1,3.527.448,4.561,4.561,0,0,1,1.92,2.129,5.007,5.007,0,0,1,.432,1.885c.011.458-.026.708,0,.712.01,0,.028-.06.053-.179a3.148,3.148,0,0,0,.063-.533,4.768,4.768,0,0,0-2.322-4.266,4.97,4.97,0,0,0-3.761-.519l.18.259a1.746,1.746,0,0,0,.151-1.488,6.548,6.548,0,0,0-.587-1.375,7.643,7.643,0,0,0-3.563-3.243,7.285,7.285,0,0,0-3.907-.529,7.154,7.154,0,0,0-2.527.829,5.008,5.008,0,0,0-.609.391c-.131.1-.2.157-.19.166" transform="translate(-113.015 -52.489)" fill="#455a64"/>
            <path id="Path_831828" data-name="Path 831828" d="M232.864,148.342c-.014.015.12.167.4.411a7.384,7.384,0,0,0,1.285.908,5.457,5.457,0,0,0,2.272.7,4.078,4.078,0,0,0,2.842-.835l-.253-.04.331.471c.121.154.256.3.386.453a6.912,6.912,0,0,0,2.839,1.8,7.083,7.083,0,0,0,2.718.363,6.279,6.279,0,0,0,1.8-.4,2.251,2.251,0,0,0,.6-.313,9.93,9.93,0,0,1-2.412.467,7.237,7.237,0,0,1-2.6-.42,6.818,6.818,0,0,1-2.692-1.733c-.122-.145-.251-.282-.365-.427l-.315-.444-.111-.157-.142.117a3.845,3.845,0,0,1-2.608.8,5.5,5.5,0,0,1-2.184-.6c-1.16-.6-1.749-1.167-1.786-1.118" transform="translate(-99.19 -63.186)" fill="#455a64"/>
            <path id="Path_831829" data-name="Path 831829" d="M222.2,165.993c-.012,0,0,.074.026.211a1.973,1.973,0,0,0,.25.555A3.044,3.044,0,0,0,224.31,168a5.809,5.809,0,0,0,3.264-.328,18.494,18.494,0,0,0,1.808-.7,3.122,3.122,0,0,0,1.589-1.425l.072-.183-.27.08a13.065,13.065,0,0,0,3.371,2.06,5.881,5.881,0,0,0,3.2.357,4.241,4.241,0,0,0,1.983-.882,2.653,2.653,0,0,0,.417-.42c.082-.107.121-.166.112-.173-.024-.022-.2.2-.61.487a4.409,4.409,0,0,1-1.941.75,5.8,5.8,0,0,1-3.05-.412,13.406,13.406,0,0,1-3.272-2.037l-.181-.144-.089.224c-.02.048-.04.1-.061.152a2.825,2.825,0,0,1-1.421,1.262c-.583.279-1.2.493-1.763.7a5.743,5.743,0,0,1-3.1.392,3.034,3.034,0,0,1-1.777-1.078,4.96,4.96,0,0,1-.386-.688" transform="translate(-94.647 -70.295)" fill="#455a64"/>
            <path id="Path_831830" data-name="Path 831830" d="M316.125,203.808c-.253.284-1.89-.848-4.163-.77-2.27.047-3.9,1.269-4.155,1-.126-.119.126-.625.834-1.177a5.8,5.8,0,0,1,3.316-1.14,5.567,5.567,0,0,1,3.324.956c.716.514.969,1,.844,1.131" transform="translate(-131.099 -85.923)" fill="#263238"/>
            <path id="Path_831831" data-name="Path 831831" d="M277.333,206.294c-.281.256-1.8-1.038-4.062-1.193-2.263-.188-4.01.861-4.236.567-.111-.132.187-.608.952-1.085a5.793,5.793,0,0,1,3.415-.794,5.571,5.571,0,0,1,3.209,1.293c.657.584.86,1.1.723,1.212" transform="translate(-114.587 -86.798)" fill="#263238"/>
            <path id="Path_831832" data-name="Path 831832" d="M297.7,211.586a15.073,15.073,0,0,1,3.669-.785c.578-.079,1.124-.211,1.209-.61a2.955,2.955,0,0,0-.443-1.707q-.886-2.079-1.858-4.363c-2.584-6.213-4.476-11.33-4.225-11.432s2.551,4.852,5.135,11.065q.935,2.3,1.786,4.391a3.36,3.36,0,0,1,.374,2.267,1.456,1.456,0,0,1-.926.879,3.929,3.929,0,0,1-.982.169,14.756,14.756,0,0,1-3.74.125" transform="translate(-126.094 -82.077)" fill="#263238"/>
            <path id="Path_831833" data-name="Path 831833" d="M289.747,231.473a6.4,6.4,0,0,0-3.278,2.236c-.5.93-1.162,2.388-.669,3.234.421.722,3.486-.172,4.777-.384.6-.1,2.064.605,2.262-.138l.36-2.653a2.128,2.128,0,0,0-1.607-2.131,3.292,3.292,0,0,0-1.844-.165" transform="translate(-121.665 -98.572)" fill="#ff9b6c"/>
            <path id="Path_831834" data-name="Path 831834" d="M263.745,185.059c.22-.619,2.492-.342,5.156-.682,2.672-.286,4.817-1.081,5.175-.529.16.264-.211.848-1.076,1.452a9.044,9.044,0,0,1-7.871.923c-.982-.388-1.478-.87-1.383-1.164" transform="translate(-112.339 -78.23)" fill="#263238"/>
            <path id="Path_831835" data-name="Path 831835" d="M305.144,180.16c.534-.443,2.249.354,4.4.7,2.143.41,4.036.249,4.377.846.146.287-.218.755-1.088,1.121a6.914,6.914,0,0,1-3.709.3,6.815,6.815,0,0,1-3.364-1.549c-.684-.638-.856-1.2-.617-1.421" transform="translate(-129.935 -76.685)" fill="#263238"/>
            <path id="Path_831836" data-name="Path 831836" d="M291.8,236.509a22.17,22.17,0,0,0-2.5.342,8.736,8.736,0,0,0-1.2.392,4.747,4.747,0,0,1-1.493.478,1.371,1.371,0,0,1-.944-.276,1.634,1.634,0,0,1-.544-.838,2.929,2.929,0,0,1,.128-1.921,6.1,6.1,0,0,1,2.294-2.691,4.977,4.977,0,0,1,2.769-.8,4.064,4.064,0,0,1,1.873.474c.4.216.581.4.564.424-.026.043-.247-.07-.657-.21a4.58,4.58,0,0,0-1.776-.265,4.813,4.813,0,0,0-2.474.836,5.342,5.342,0,0,0-1.156,1.042,5.265,5.265,0,0,0-.881,1.406,2.4,2.4,0,0,0-.123,1.534.874.874,0,0,0,.9.731,4.641,4.641,0,0,0,1.338-.389,8.041,8.041,0,0,1,1.288-.343,4.528,4.528,0,0,1,2.594.072" transform="translate(-121.403 -98.479)" fill="#263238"/>
            <path id="Path_831837" data-name="Path 831837" d="M238.562,236.151a4.595,4.595,0,1,1-4.6-4.6,4.6,4.6,0,0,1,4.6,4.6" transform="translate(-97.703 -98.633)" fill="#60119b"/>
            <path id="Path_831838" data-name="Path 831838" d="M270.866,161.731A1.2,1.2,0,0,1,271,161.3a4.446,4.446,0,0,1,.706-1.073,5.171,5.171,0,0,1,1.644-1.213,4.945,4.945,0,0,1,2.683-.437,2.954,2.954,0,0,1,1.526.6,1.675,1.675,0,0,1,.557.757,1.31,1.31,0,0,1-.075,1.012,1.885,1.885,0,0,1-1.715.954,4.758,4.758,0,0,1-1.945-.46,5.339,5.339,0,0,1-2.845-3.07,4.957,4.957,0,0,1,.657-4.435,4.5,4.5,0,0,1,4.1-1.778,3.618,3.618,0,0,1,2.047.869,2.534,2.534,0,0,1,.65.921,1.621,1.621,0,0,1,.02,1.162,1.777,1.777,0,0,1-.727.846,2.924,2.924,0,0,1-.949.377,4.311,4.311,0,0,1-1.886-.021,4.582,4.582,0,0,1-2.736-1.852,4.074,4.074,0,0,1-.672-2.638,4.454,4.454,0,0,1,.619-1.95,3.76,3.76,0,0,1,.834-.979c.231-.183.369-.253.378-.239a6.872,6.872,0,0,0-1.009,1.332,4.391,4.391,0,0,0-.489,1.856,3.762,3.762,0,0,0,.685,2.377,4.177,4.177,0,0,0,2.5,1.611,3.848,3.848,0,0,0,1.66-.007,1.72,1.72,0,0,0,1.279-.906,1.4,1.4,0,0,0-.54-1.467,3.068,3.068,0,0,0-1.726-.708,3.93,3.93,0,0,0-3.557,1.548,4.4,4.4,0,0,0-.586,3.9,4.811,4.811,0,0,0,2.521,2.757,4.288,4.288,0,0,0,1.709.434,1.38,1.38,0,0,0,1.278-.654.943.943,0,0,0-.334-1.187,2.533,2.533,0,0,0-1.292-.537,4.674,4.674,0,0,0-2.489.324,5.2,5.2,0,0,0-1.61,1.067,8.689,8.689,0,0,0-1.007,1.341" transform="translate(-115.375 -63.319)" fill="#263238"/>
            <path id="Path_831839" data-name="Path 831839" d="M171.263,147.465a3.717,3.717,0,0,1-.739.148c-.488.074-1.212.183-2.158.245a11.023,11.023,0,0,1-3.459-.27,7.287,7.287,0,0,1-2.019-.868,5.47,5.47,0,0,1-1.774-1.743,5.37,5.37,0,0,1-.763-2.641,11.011,11.011,0,0,1,.329-2.943,12.853,12.853,0,0,1,3.007-5.769,9.282,9.282,0,0,1,2.9-2.117,7.653,7.653,0,0,1,1.79-.579,8.21,8.21,0,0,1,1.916-.1,7.936,7.936,0,0,1,3.739,1.184,6.913,6.913,0,0,1,1.542,1.341,6.282,6.282,0,0,1,1.023,1.82l.257.7-.671-.342a4.707,4.707,0,0,1-1.932-1.853,5.974,5.974,0,0,1-.786-2.63,6.125,6.125,0,0,1,.272-2.3,7.837,7.837,0,0,1,1.006-2.033,11.255,11.255,0,0,1,3.188-2.986,15.771,15.771,0,0,1,7.758-2.485,12.78,12.78,0,0,1,7.156,1.743,11.791,11.791,0,0,1,4.443,4.638,10.032,10.032,0,0,1,.036,9.052,8.311,8.311,0,0,1-1.467,2.058,5.287,5.287,0,0,1-.484.444c-.114.095-.174.139-.181.131a7.137,7.137,0,0,1,.577-.657,9.093,9.093,0,0,0,1.347-2.079,9.84,9.84,0,0,0,.916-3.78,9.538,9.538,0,0,0-1.118-4.973,11.419,11.419,0,0,0-4.319-4.407,12.326,12.326,0,0,0-6.88-1.621,15.293,15.293,0,0,0-7.465,2.426,10.709,10.709,0,0,0-3.015,2.831,6.176,6.176,0,0,0-1.172,3.955A4.743,4.743,0,0,0,176.443,135l-.413.36a5.7,5.7,0,0,0-.915-1.633,6.336,6.336,0,0,0-1.4-1.223,7.388,7.388,0,0,0-3.463-1.108,7.726,7.726,0,0,0-6.18,2.592,12.437,12.437,0,0,0-2.935,5.517,10.66,10.66,0,0,0-.351,2.816,4.972,4.972,0,0,0,.668,2.45,5.122,5.122,0,0,0,1.627,1.65,7.029,7.029,0,0,0,1.91.867,11.217,11.217,0,0,0,3.366.355c.936-.028,1.662-.1,2.154-.139a3.95,3.95,0,0,1,.753-.037" transform="translate(-68.299 -51.638)" fill="#263238"/>
            <path id="Path_831840" data-name="Path 831840" d="M189.578,198.056a2.117,2.117,0,0,1-.834.344,8.251,8.251,0,0,1-2.445.29,9.183,9.183,0,0,1-3.573-.831,6.635,6.635,0,0,1-1.85-1.205,2.937,2.937,0,0,1-.994-2.241,3.82,3.82,0,0,1,1-2.215,10.516,10.516,0,0,1,1.608-1.473,13.832,13.832,0,0,1,3.165-1.813,12.112,12.112,0,0,1,2.348-.7,2.3,2.3,0,0,1,.9-.078c.023.1-1.241.314-3.074,1.17a15.076,15.076,0,0,0-3,1.86,10.565,10.565,0,0,0-1.5,1.414,3.3,3.3,0,0,0-.852,1.866,2.375,2.375,0,0,0,.805,1.8,6.311,6.311,0,0,0,1.677,1.126,9.39,9.39,0,0,0,3.359.906,17.351,17.351,0,0,0,3.258-.211" transform="translate(-76.62 -80.126)" fill="#263238"/>
            <path id="Path_831841" data-name="Path 831841" d="M276.885,213.6a10.1,10.1,0,0,1-1.751-.426,13.232,13.232,0,0,0-1.895-.3,12.65,12.65,0,0,0-4.638.475,13.262,13.262,0,0,0-1.8.677,10.067,10.067,0,0,1-1.628.772c-.043-.052.448-.567,1.433-1.147a10.064,10.064,0,0,1,1.825-.827,10.978,10.978,0,0,1,4.86-.5,10.019,10.019,0,0,1,1.955.44,3.905,3.905,0,0,1,1.636.833" transform="translate(-112.953 -90.409)" fill="#ff9b6c"/>
            <path id="Path_831842" data-name="Path 831842" d="M290.484,393.647l-6.6-16.621,4.229-24.7,1.146-14.585c-.215-9.41-1.015-16.678-4.9-25.252l-12.068-29.809-14.737,4a23.162,23.162,0,0,0-1.87-5.473c-2.755-5.233-38.373-3.458-40.677-1.574-1.464,1.2-2.185,5.513-2.517,8.5l-12.392-.067L185.491,325.6c.464,1.03,9.473,13.057,9.473,13.057l8.94,49.492-2.883,5.164Z" transform="translate(-79.011 -118.31)" fill="#d0adea"/>
            <path id="Path_831843" data-name="Path 831843" d="M241.934,294.8a2.334,2.334,0,0,1-.2-.57,14.087,14.087,0,0,1-.373-1.606,19.628,19.628,0,0,1,1.115-10.71,14,14,0,0,1,.7-1.495,2.358,2.358,0,0,1,.316-.516c.048.024-.342.79-.814,2.087a21.9,21.9,0,0,0-1.1,10.6c.2,1.366.418,2.2.367,2.21" transform="translate(-102.683 -119.229)" fill="#263238"/>
            <path id="Path_831844" data-name="Path 831844" d="M259.236,294.714a2.666,2.666,0,0,1-.16-.621c-.087-.4-.182-.991-.277-1.721a43.3,43.3,0,0,1-.3-5.74c.021-2.246.148-4.274.251-5.739.055-.681.1-1.26.139-1.734a2.634,2.634,0,0,1,.092-.634,2.65,2.65,0,0,1,.025.639c0,.411-.02,1.005-.045,1.739-.049,1.467-.141,3.493-.162,5.729s.075,4.258.212,5.716.274,2.356.226,2.364" transform="translate(-110.108 -118.64)" fill="#263238"/>
            <path id="Path_831845" data-name="Path 831845" d="M277.425,292.632a20.143,20.143,0,0,1,.079-2.17,48.6,48.6,0,0,0,0-5.22,31,31,0,0,0-.749-5.155c-.308-1.3-.572-2.087-.525-2.1a2.2,2.2,0,0,1,.239.534c.139.35.309.868.491,1.517a25.5,25.5,0,0,1,.843,5.189,36.092,36.092,0,0,1-.086,5.253c-.059.669-.121,1.209-.176,1.581a2.21,2.21,0,0,1-.114.574" transform="translate(-117.659 -118.409)" fill="#263238"/>
            <path id="Path_831846" data-name="Path 831846" d="M294.88,294.566c-.05-.018.25-.851.568-2.235a18.7,18.7,0,0,0,.452-5.5,18.068,18.068,0,0,0-1.237-5.372c-.532-1.316-.965-2.088-.915-2.116a2.466,2.466,0,0,1,.341.521,15.166,15.166,0,0,1,.769,1.514,16.439,16.439,0,0,1,1.34,5.432,16.967,16.967,0,0,1-.545,5.567,14.432,14.432,0,0,1-.518,1.616,2.5,2.5,0,0,1-.255.568" transform="translate(-125.122 -118.99)" fill="#263238"/>
            <path id="Path_831847" data-name="Path 831847" d="M310.582,295.893a10.965,10.965,0,0,1-.257-1.714c-.134-1.059-.309-2.524-.653-4.11s-.8-2.99-1.115-4.009a10.645,10.645,0,0,1-.477-1.666,9.347,9.347,0,0,1,.677,1.6,29.489,29.489,0,0,1,1.207,4.014,30.357,30.357,0,0,1,.571,4.152,9.184,9.184,0,0,1,.046,1.735" transform="translate(-131.227 -121.14)" fill="#263238"/>
            <path id="Path_831848" data-name="Path 831848" d="M207.5,161.175l.85-5.91s.218-4.424-.85-6.636.26-3.392,2.914-1.328,2.949,3.835,2.949,3.835,3.982-11.061,5.456-14.01a85,85,0,0,1,5.309-8.258s6.046-9.291,6.489-9.438,1.475-.148,1.032,1.475l2.359-1.536s2.655,1.093.738,4.633-4.424,8.7-4.424,8.7l-.148,2.507,6.783-8.258s2.95-1.327,1.917,2.212-4.572,9.143-4.572,9.143l-1.77,9a21.843,21.843,0,0,1-.295,7.522c-.885,4.129-6.77,16.234-10.39,17.408s-14.35-11.056-14.35-11.056" transform="translate(-88.227 -50.846)" fill="#ffc09d"/>
            <path id="Path_831849" data-name="Path 831849" d="M207.438,161.052s.054.05.155.158l.444.477c.392.42.974,1.044,1.746,1.84s1.734,1.766,2.9,2.868a48.72,48.72,0,0,0,4.173,3.567,15.941,15.941,0,0,0,2.74,1.693,4.31,4.31,0,0,0,1.631.431,2.589,2.589,0,0,0,1.583-.663,14.178,14.178,0,0,0,2.54-2.837,39.385,39.385,0,0,0,2.2-3.478,56.967,56.967,0,0,0,3.815-8.154,19.071,19.071,0,0,0,.693-2.287,22.993,22.993,0,0,0,.369-2.421,21.377,21.377,0,0,0-.084-5.043l0-.027,0-.022c.559-2.852,1.152-5.882,1.763-9l.005-.025.014-.024a62.957,62.957,0,0,0,3.412-6.211,18.358,18.358,0,0,0,1.257-3.383,3.416,3.416,0,0,0,.084-.874.972.972,0,0,0-.293-.724,1.056,1.056,0,0,0-.774-.174,2.982,2.982,0,0,0-.851.222l.054-.041-6.783,8.259-.292.355.027-.459c.012-.2.025-.417.037-.634q.055-.939.11-1.873l0-.032.013-.025,3.472-6.828.853-1.676c.145-.28.27-.551.405-.826a5.826,5.826,0,0,0,.276-.86,2.9,2.9,0,0,0-.082-1.727,2.389,2.389,0,0,0-1.159-1.215l.135-.013-2.36,1.534-.315.2.1-.365c.111-.421.183-.933-.075-1.2a.667.667,0,0,0-.536-.149,1.134,1.134,0,0,0-.152.024l-.073.02c-.022.01-.006.011-.021.017a3.031,3.031,0,0,0-.215.244c-.565.719-1.085,1.483-1.6,2.231-1.033,1.5-2.028,3-3,4.469l-1.441,2.19-1.475,2.111c-.963,1.4-1.887,2.778-2.736,4.162-.423.692-.832,1.382-1.19,2.085s-.664,1.424-.961,2.138c-.6,1.428-1.145,2.835-1.673,4.2-1.053,2.74-2.014,5.336-2.9,7.758l-.116.318-.085-.336a5.935,5.935,0,0,0-1.32-2.292,11.55,11.55,0,0,0-1.886-1.7,3.373,3.373,0,0,0-2.139-.819.8.8,0,0,0-.462.219.937.937,0,0,0-.214.463,2.161,2.161,0,0,0,.122,1.045c.111.333.269.65.4.983a9.7,9.7,0,0,1,.285.992,15.46,15.46,0,0,1,.283,1.905,25.516,25.516,0,0,1,.075,3.322v.005c-.288,1.916-.509,3.386-.66,4.388-.077.491-.135.866-.176,1.129s-.069.385-.069.385.009-.126.041-.377.084-.636.148-1.126c.138-1.008.342-2.487.606-4.414v0a25.782,25.782,0,0,0-.1-3.3,10.9,10.9,0,0,0-.985-3.842,2.314,2.314,0,0,1-.134-1.126,1.113,1.113,0,0,1,.255-.552.983.983,0,0,1,.559-.273,3.514,3.514,0,0,1,2.276.839,11.71,11.71,0,0,1,1.927,1.727A6.085,6.085,0,0,1,213.4,151l-.2-.018c.874-2.427,1.826-5.026,2.872-7.771.525-1.372,1.07-2.781,1.664-4.215.3-.717.608-1.441.964-2.158s.772-1.409,1.2-2.105c.849-1.392,1.773-2.778,2.735-4.179l1.468-2.108,1.438-2.193c.972-1.473,1.966-2.97,3-4.477.521-.752,1.036-1.511,1.615-2.251a3.1,3.1,0,0,1,.246-.277.478.478,0,0,1,.125-.077l.095-.026a1.369,1.369,0,0,1,.192-.031.951.951,0,0,1,.763.23,1.023,1.023,0,0,1,.264.748,2.94,2.94,0,0,1-.11.733l-.219-.16,2.359-1.536.068-.044.068.032a2.666,2.666,0,0,1,1.319,1.374,3.19,3.19,0,0,1,.1,1.9,6.058,6.058,0,0,1-.291.91c-.138.283-.274.577-.417.852l-.851,1.674-3.467,6.82.015-.057q-.055.933-.11,1.874c-.013.217-.025.434-.037.634l-.265-.1,6.785-8.258.024-.029.03-.012a3.241,3.241,0,0,1,.946-.247,1.344,1.344,0,0,1,.988.241,1.25,1.25,0,0,1,.4.932,3.7,3.7,0,0,1-.09.954,18.586,18.586,0,0,1-1.282,3.446,63.055,63.055,0,0,1-3.436,6.24l.019-.048-1.777,8.995v-.049a21.594,21.594,0,0,1,.077,5.115,23.083,23.083,0,0,1-.379,2.449,19.274,19.274,0,0,1-.707,2.319,56.973,56.973,0,0,1-3.855,8.18,39.513,39.513,0,0,1-2.223,3.49,14.309,14.309,0,0,1-2.591,2.868,2.774,2.774,0,0,1-1.7.7,4.464,4.464,0,0,1-1.7-.456,15.986,15.986,0,0,1-2.763-1.726,47.951,47.951,0,0,1-4.162-3.606c-1.157-1.113-2.111-2.093-2.874-2.9s-1.335-1.439-1.717-1.87l-.429-.491c-.094-.111-.138-.173-.138-.173" transform="translate(-88.169 -50.723)" fill="#ff9b6c"/>
            <path id="Path_831850" data-name="Path 831850" d="M242.241,122.206a6.108,6.108,0,0,1-.512.837l-1.471,2.228a58.7,58.7,0,0,0-4.375,7.614,33.128,33.128,0,0,0-2.573,8.364c-.189,1.108-.286,2.014-.348,2.641a7.281,7.281,0,0,1-.114.974.82.82,0,0,1-.017-.254c0-.166,0-.412.016-.727a26.022,26.022,0,0,1,.255-2.665,30.818,30.818,0,0,1,2.51-8.456,51.318,51.318,0,0,1,4.472-7.608c.642-.928,1.177-1.668,1.551-2.176a6.164,6.164,0,0,1,.607-.771" transform="translate(-99.176 -52.054)" fill="#ff9b6c"/>
            <path id="Path_831851" data-name="Path 831851" d="M244.658,146.659c.037.041-.556.52-1.267,1.5a12.935,12.935,0,0,0-1.952,4.265,29.3,29.3,0,0,0-.75,4.678,14.459,14.459,0,0,1-.228,1.963,1.826,1.826,0,0,1-.028-.532c0-.342.014-.836.046-1.447a23.545,23.545,0,0,1,.671-4.739,11.854,11.854,0,0,1,2.073-4.315,7.653,7.653,0,0,1,1-1.058,1.652,1.652,0,0,1,.433-.313" transform="translate(-102.414 -62.47)" fill="#ff9b6c"/>
            <path id="Path_831852" data-name="Path 831852" d="M231.9,140.272a12.038,12.038,0,0,1-.533,1.653c-.35,1.012-.814,2.415-1.259,3.984s-.785,3.009-1.018,4.053a12.058,12.058,0,0,1-.414,1.687,8.591,8.591,0,0,1,.207-1.728,41.234,41.234,0,0,1,2.287-8.07,8.573,8.573,0,0,1,.731-1.579" transform="translate(-97.4 -59.75)" fill="#ff9b6c"/>
            <path id="Path_831853" data-name="Path 831853" d="M216.595,173.015a6.45,6.45,0,0,1-.282,1.323c-.236.916-.51,1.978-.811,3.15s-.561,2.238-.79,3.156a6.426,6.426,0,0,1-.382,1.3,5.775,5.775,0,0,1,.176-1.342c.151-.821.393-1.949.707-3.184s.639-2.342.9-3.135a5.809,5.809,0,0,1,.486-1.263" transform="translate(-91.29 -73.697)" fill="#ff9b6c"/>
            <path id="Path_831854" data-name="Path 831854" d="M305.7,129.425a1.621,1.621,0,0,0-2.613,1.885l.048.082c1.65,2.75,7.289,11.75,7.289,11.75l1.375,3.1s2.972,4.717,3.522,6.092,8.1,13.71,9.095,14.81,6.223,0,6.223,0l5.638-11.136-5.638-12.868s.275-1.849-.825-1.436a7.19,7.19,0,0,0-1.65.825L315.711,124.5s-3.253-5.455-5.595-1.763c0,0-2.736.825-1.186,4.545a26.719,26.719,0,0,0,4.247,7l2.2,5.775Z" transform="translate(-129.005 -51.734)" fill="#ffc09d"/>
            <path id="Path_831855" data-name="Path 831855" d="M305.668,129.333s.061.056.174.173l.5.527,1.91,2.064,7.16,7.806-.148.091-2.215-5.77.02.033a26.8,26.8,0,0,1-3.524-5.379q-.381-.762-.722-1.567a6.409,6.409,0,0,1-.485-1.72,3.176,3.176,0,0,1,.278-1.824,2.632,2.632,0,0,1,1.433-1.242l-.07.053a3.122,3.122,0,0,1,1.2-1.165,2.039,2.039,0,0,1,1.707.028,6.889,6.889,0,0,1,2.526,2.325l4.06,5.885,8.785,12.7-.21-.034a7.529,7.529,0,0,1,1.765-.868.682.682,0,0,1,.6.056.845.845,0,0,1,.315.5,3.007,3.007,0,0,1,.032,1.061l-.011-.082,2.428,5.541,3.209,7.328.028.064-.032.063-5.642,11.133-.032.063-.067.013a22.387,22.387,0,0,1-4.377.487,5.985,5.985,0,0,1-1.095-.114,1.547,1.547,0,0,1-.986-.55c-.444-.577-.818-1.164-1.2-1.749-1.518-2.34-2.924-4.635-4.267-6.845l-1.943-3.26a33.747,33.747,0,0,1-1.727-3.193c-1.061-2.084-2.266-3.979-3.361-5.763l0-.007,0-.006-1.369-3.1.006.013-7.2-11.689a1.838,1.838,0,0,1-.33-1.095,1.613,1.613,0,0,1,.382-.927,1.737,1.737,0,0,1,1.392-.629,1.585,1.585,0,0,1,.884.34c.156.149.23.229.23.229s-.087-.067-.246-.207a1.6,1.6,0,0,0-.87-.307,1.681,1.681,0,0,0-1.326.625,1.529,1.529,0,0,0-.351.879,1.743,1.743,0,0,0,.328,1.034L310.475,143l0,.006,0,.006,1.382,3.1-.007-.014c1.106,1.787,2.312,3.665,3.395,5.775a33.5,33.5,0,0,0,1.727,3.169l1.95,3.252c1.346,2.2,2.758,4.5,4.276,6.829.382.577.767,1.176,1.188,1.72a1.256,1.256,0,0,0,.832.455,5.677,5.677,0,0,0,1.04.106,22.118,22.118,0,0,0,4.313-.487l-.1.075,5.634-11.138,0,.126L332.9,148.65l-2.427-5.541-.017-.037.006-.044a2.74,2.74,0,0,0-.025-.943c-.074-.307-.258-.451-.543-.347a7.347,7.347,0,0,0-1.672.819l-.127.087-.084-.121L319.233,129.8l-4.044-5.883a6.667,6.667,0,0,0-2.412-2.242,1.779,1.779,0,0,0-1.495-.034,2.88,2.88,0,0,0-1.1,1.068l-.024.036-.047.017a2.392,2.392,0,0,0-1.287,1.117,2.93,2.93,0,0,0-.257,1.681,10.789,10.789,0,0,0,1.174,3.212,26.709,26.709,0,0,0,3.471,5.343l.013.016.006.017,2.187,5.781.166.439-.314-.348-7.1-7.862-1.875-2.1-.478-.543c-.106-.123-.156-.189-.156-.189" transform="translate(-128.969 -51.642)" fill="#ff9b6c"/>
            <path id="Path_831856" data-name="Path 831856" d="M328.792,159.878c-.082.026-.5-1.138-1.184-2.494a2.5,2.5,0,0,0-1.166-1.391,1.814,1.814,0,0,0-.757-.079c-.033-.022.282-.272.825-.122a1.634,1.634,0,0,1,.779.517,4.273,4.273,0,0,1,.587.941,7.711,7.711,0,0,1,.916,2.627" transform="translate(-138.727 -66.341)" fill="#ff9b6c"/>
            <path id="Path_831857" data-name="Path 831857" d="M327.222,140.872a4.168,4.168,0,0,1-.405-.7c-.241-.461-.595-1.125-1.044-1.939-.893-1.63-2.215-3.831-3.823-6.167s-3.131-4.41-4.211-5.926l-1.272-1.8a4.17,4.17,0,0,1-.433-.685,4.2,4.2,0,0,1,.527.616l1.348,1.745c1.123,1.484,2.679,3.534,4.287,5.883a57.82,57.82,0,0,1,3.763,6.236c.427.829.753,1.51.962,1.987a4.226,4.226,0,0,1,.3.753" transform="translate(-134.616 -52.671)" fill="#ff9b6c"/>
            <path id="Path_831858" data-name="Path 831858" d="M338.4,158.074a4.9,4.9,0,0,0-1.988-4c.015-.032.28.049.642.307a3.7,3.7,0,0,1,1.489,2.994c-.013.444-.108.7-.142.7" transform="translate(-143.298 -65.627)" fill="#ff9b6c"/>
            <path id="Path_831859" data-name="Path 831859" d="M350.833,165.715a6.647,6.647,0,0,1-.706-1.155c-.46-.828-.992-1.789-1.58-2.85-.611-1.118-1.145-2.141-1.505-2.9a5.6,5.6,0,0,1-.518-1.253,6.672,6.672,0,0,1,.705,1.155l1.58,2.85c.61,1.117,1.144,2.141,1.5,2.895a5.623,5.623,0,0,1,.518,1.253" transform="translate(-147.603 -67.115)" fill="#ff9b6c"/>
            <path id="Path_831860" data-name="Path 831860" d="M267.717,396.115a1.344,1.344,0,0,1,.309-.116l.9-.276.65-.192c.235-.077.486-.175.759-.272.541-.2,1.17-.4,1.832-.706l1.048-.451c.363-.16.725-.36,1.108-.548.775-.364,1.554-.842,2.385-1.324a33.763,33.763,0,0,0,9.226-8.334c.563-.778,1.118-1.506,1.559-2.239.226-.362.463-.7.658-1.048l.556-1c.371-.626.631-1.232.888-1.751.124-.261.247-.5.347-.727l.257-.627.365-.865a1.415,1.415,0,0,1,.147-.3,1.328,1.328,0,0,1-.09.316l-.314.887-.234.64c-.092.231-.209.475-.326.741-.243.527-.491,1.144-.853,1.781l-.542,1.014c-.192.351-.425.7-.648,1.064-.435.745-.986,1.483-1.549,2.273a32.726,32.726,0,0,1-9.3,8.4c-.842.479-1.633.953-2.418,1.31-.389.185-.756.382-1.125.537l-1.063.437c-.67.3-1.309.48-1.858.669-.277.09-.531.181-.77.25l-.66.168-.915.222a1.376,1.376,0,0,1-.323.058" transform="translate(-114.036 -159.881)" fill="#263238"/>
            <path id="Path_831861" data-name="Path 831861" d="M175.237,194.155c-1.077.119-55.333,26.616-55.6,39.069s4.3,18.019,8.908,25.1,29.366,33.664,30.723,34.152,19.771-25.067,19.771-25.067l-7.595-17.337S169,243.241,161.4,246.535l-6.239-5.985L188.8,208.318s6.239-16.36-13.562-14.163" transform="translate(-50.953 -82.615)" fill="#d0adea"/>
            <path id="Path_831862" data-name="Path 831862" d="M195.871,321.893a1.015,1.015,0,0,1,.068-.274c.067-.208.15-.46.249-.765a12.534,12.534,0,0,0,.37-1.215c.124-.479.3-1.016.405-1.63l.2-.956c.066-.333.1-.685.156-1.046.123-.722.164-1.5.23-2.323a27.687,27.687,0,0,0-1.475-10.527c-.288-.77-.542-1.51-.859-2.17-.153-.332-.282-.661-.438-.963l-.452-.866c-.272-.561-.587-1.029-.838-1.456a12.594,12.594,0,0,0-.689-1.067l-.449-.666a1.007,1.007,0,0,1-.141-.245c.008-.006.073.065.189.208l.5.636a10.718,10.718,0,0,1,.735,1.044c.266.421.6.885.882,1.444l.474.864c.162.3.3.631.458.965.329.662.6,1.406.893,2.181a26.77,26.77,0,0,1,1.49,10.634c-.073.827-.125,1.615-.259,2.342-.061.364-.1.719-.174,1.053s-.148.654-.218.961c-.122.616-.311,1.153-.451,1.631a10.649,10.649,0,0,1-.42,1.206c-.12.3-.22.545-.3.748a.976.976,0,0,1-.124.253" transform="translate(-81.871 -125.965)" fill="#263238"/>
            <path id="Path_831863" data-name="Path 831863" d="M204.716,348.456a2.778,2.778,0,0,1,.2-.42q.238-.438.633-1.173.211-.384.463-.844c.162-.312.319-.661.5-1.03.347-.745.785-1.572,1.154-2.538q.3-.717.618-1.5c.212-.522.384-1.084.589-1.656.428-1.138.759-2.394,1.136-3.706a51.318,51.318,0,0,0,1.5-17.617c-.151-1.357-.265-2.651-.5-3.845-.106-.6-.181-1.181-.3-1.731l-.356-1.582c-.2-1.015-.494-1.9-.71-2.7-.115-.394-.211-.765-.317-1.1s-.219-.634-.315-.91l-.426-1.263a2.672,2.672,0,0,1-.13-.448,2.784,2.784,0,0,1,.186.427l.479,1.246.34.9c.115.334.219.7.342,1.1.232.79.54,1.68.755,2.7q.181.759.377,1.585c.127.552.208,1.137.32,1.737.242,1.2.366,2.5.525,3.862a50.092,50.092,0,0,1-1.5,17.713c-.386,1.317-.728,2.577-1.168,3.717-.211.573-.39,1.135-.609,1.658s-.435,1.021-.638,1.5c-.384.965-.837,1.789-1.2,2.529-.188.367-.352.714-.522,1.023s-.34.58-.488.833l-.683,1.147a2.731,2.731,0,0,1-.255.389" transform="translate(-87.2 -129.66)" fill="#263238"/>
            <path id="Path_831864" data-name="Path 831864" d="M177.829,266.76a4.864,4.864,0,0,1-.609.621c-.4.386-1,.931-1.755,1.59-1.5,1.321-3.633,3.083-6.065,4.925s-4.7,3.429-6.349,4.553c-.828.56-1.5,1.007-1.974,1.308a4.827,4.827,0,0,1-.749.443,4.9,4.9,0,0,1,.683-.538l1.918-1.385c1.621-1.166,3.863-2.776,6.29-4.618s4.575-3.569,6.109-4.848l1.815-1.517a4.828,4.828,0,0,1,.687-.534" transform="translate(-68.293 -113.628)" fill="#263238"/>
            <path id="Path_831865" data-name="Path 831865" d="M336.1,190.066s3.188-13.514,17.774-10.731c0,0,31.484,21.963,40.642,33.631s6.419,16.047,3.955,22.089-11.121,16.116-26.923,29.246l-21.016,15.861s-17.635-36.211-15.865-38.822c.854-1.261,27.9-12.932,27.9-12.932s-1.057-1.25.739-3.244l-10.8-13.2Z" transform="translate(-142.499 -76.228)" fill="#d0adea"/>
            <path id="Path_831866" data-name="Path 831866" d="M435.329,253.914a2.744,2.744,0,0,1,.343,1.315,4.706,4.706,0,0,1-.917,3.137,4.989,4.989,0,0,1-2.734,1.8,2.874,2.874,0,0,1-1.354.106c0-.052.517-.06,1.3-.308a5.214,5.214,0,0,0,2.553-1.774,4.865,4.865,0,0,0,.944-2.949c-.009-.816-.183-1.309-.131-1.323" transform="translate(-183.446 -108.156)" fill="#263238"/>
            <path id="Path_831867" data-name="Path 831867" d="M354.547,368.873a.663.663,0,0,1,.011-.163c.016-.125.037-.28.062-.476.064-.438.153-1.047.266-1.821.256-1.577.553-3.872.884-6.708a82.486,82.486,0,0,0-.319-22.225,65.093,65.093,0,0,0-3.25-11.813c-.346-.877-.665-1.74-1.009-2.565l-1.068-2.371c-.175-.381-.336-.761-.513-1.125l-.541-1.062-1.017-2c-1.367-2.506-2.513-4.515-3.369-5.864l-.953-1.575-.242-.413a.662.662,0,0,1-.074-.147.679.679,0,0,1,.1.13l.267.4,1,1.545c.887,1.332,2.063,3.327,3.456,5.827l1.037,1.993.551,1.06c.18.364.344.744.522,1.126L351.434,323c.348.826.673,1.691,1.024,2.571a63.992,63.992,0,0,1,3.286,11.859,80.1,80.1,0,0,1,.235,22.3c-.358,2.838-.687,5.13-.979,6.7-.137.771-.245,1.377-.322,1.813l-.091.47a.64.64,0,0,1-.041.158" transform="translate(-146.28 -131.429)" fill="#263238"/>
            <path id="Path_831868" data-name="Path 831868" d="M386.859,271.11a4.077,4.077,0,0,1-.884-.852,15.968,15.968,0,0,1-2.985-5.09,4.069,4.069,0,0,1-.312-1.188c.088-.03.661,1.751,1.825,3.721s2.425,3.347,2.356,3.409" transform="translate(-163.002 -112.444)" fill="#263238"/>
            <path id="Path_831869" data-name="Path 831869" d="M394.6,268.824a2.086,2.086,0,0,1-.491-.281c-.306-.2-.738-.5-1.264-.877-1.052-.762-2.465-1.87-3.946-3.189s-2.743-2.6-3.62-3.556c-.439-.479-.785-.874-1.015-1.155a2.1,2.1,0,0,1-.336-.456,18.047,18.047,0,0,1,1.5,1.464c.913.917,2.194,2.165,3.667,3.479s2.859,2.441,3.875,3.244a18.2,18.2,0,0,1,1.627,1.326" transform="translate(-163.537 -110.455)" fill="#263238"/>
            <g id="Group_1078816" data-name="Group 1078816" transform="translate(92.512 157.252)" opacity="0.3">
              <g id="Group_1078815" data-name="Group 1078815">
                <g id="Group_1078814" data-name="Group 1078814" clip-path="url(#clip-path-12)">
                  <path id="Path_831870" data-name="Path 831870" d="M161.159,282.825a10.564,10.564,0,0,0,12.006-8.887c-3.85,2.464-8.414,6.059-12.006,8.887" transform="translate(-161.159 -273.938)"/>
                </g>
              </g>
            </g>
            <g id="Group_1078819" data-name="Group 1078819" transform="translate(198.294 178.996)" opacity="0.3">
              <g id="Group_1078818" data-name="Group 1078818">
                <g id="Group_1078817" data-name="Group 1078817" clip-path="url(#clip-path-13)">
                  <path id="Path_831871" data-name="Path 831871" d="M355.5,322.477a21.643,21.643,0,0,0-10.022-10.661l-.042.083c5.166,7.536,8.549,16.4,10.77,25.265a21.85,21.85,0,0,0-.706-14.687" transform="translate(-345.434 -311.816)"/>
                </g>
              </g>
            </g>
            <path id="Path_831872" data-name="Path 831872" d="M287.628,409.23s.164-.007.486-.011l1.436-.011,5.588-.021,21.115-.038v.164l-143.805.067L50.5,409.336l-36.953-.048L3.5,409.26.89,409.246C.3,409.241,0,409.23,0,409.23s.3-.01.89-.016L3.5,409.2l10.047-.028,36.953-.048,121.945-.044,143.805.067v.164l-21.115-.038-5.588-.021-1.436-.011c-.322,0-.486-.011-.486-.011" transform="translate(0 -174.251)"/>
          </g>
        </g>
      </g>
    </g>
  </g>
</svg>
