<svg xmlns="http://www.w3.org/2000/svg" width="1031.5" height="707.468" viewBox="0 0 1031.5 707.468">
  <g id="Group_1079124" data-name="Group 1079124" transform="translate(-285 -4063.001)">
    <g id="Group_1074165" data-name="Group 1074165" transform="translate(656.501 4120.229)">
      <text id="_180" data-name="180" transform="translate(-11 0)" fill="#12263f" font-size="16" font-family="Roboto-Regular, Roboto"><tspan x="16.273" y="15">180</tspan></text>
    </g>
    <g id="Group_1078828" data-name="Group 1078828" transform="translate(656.501 4218.264)">
      <text id="_130" data-name="130" transform="translate(-11 0)" fill="#12263f" font-size="16" font-family="Roboto-Regular, Roboto"><tspan x="16.273" y="15">130</tspan></text>
    </g>
    <g id="Group_1078832" data-name="Group 1078832" transform="translate(656.501 4316.298)">
      <text id="_100" data-name="100" transform="translate(-11 0)" fill="#12263f" font-size="16" font-family="Roboto-Regular, Roboto"><tspan x="16.273" y="15">100</tspan></text>
    </g>
    <g id="Group_1078836" data-name="Group 1078836" transform="translate(656.501 4408.917)">
      <text id="_80" data-name="80" transform="translate(-11 0)" fill="#12263f" font-size="16" font-family="Roboto-Regular, Roboto"><tspan x="20.765" y="15">80</tspan></text>
    </g>
    <g id="Group_1078840" data-name="Group 1078840" transform="translate(656.501 4501.535)">
      <text id="_50" data-name="50" transform="translate(-11 0)" fill="#12263f" font-size="16" font-family="Roboto-Regular, Roboto"><tspan x="20.765" y="15">50</tspan></text>
    </g>
    <g id="Group_1078844" data-name="Group 1078844" transform="translate(656.501 4599.569)">
      <text id="_30" data-name="30" transform="translate(-11 0)" fill="#12263f" font-size="16" font-family="Roboto-Regular, Roboto"><tspan x="20.765" y="15">30</tspan></text>
    </g>
    <g id="Group_1078825" data-name="Group 1078825" transform="translate(882 4120.229)">
      <text id="Insoportable_" data-name="Insoportable	 
" transform="translate(-11 0)" fill="#12263f" font-size="16" font-family="Roboto-Regular, Roboto"><tspan x="14.886" y="15" xml:space="preserve">Insoportable	 </tspan></text>
    </g>
    <g id="Group_1078829" data-name="Group 1078829" transform="translate(882 4218.264)">
      <text id="Insoportable_2" data-name="Insoportable	 
" transform="translate(-11 0)" fill="#12263f" font-size="16" font-family="Roboto-Regular, Roboto"><tspan x="14.886" y="15" xml:space="preserve">Insoportable	 </tspan></text>
    </g>
    <g id="Group_1078833" data-name="Group 1078833" transform="translate(882 4316.298)">
      <text id="Molesto_" data-name="Molesto
" transform="translate(-11 0)" fill="#12263f" font-size="16" font-family="Roboto-Regular, Roboto"><tspan x="30.8" y="15">Molesto</tspan></text>
    </g>
    <path id="Path_832456" data-name="Path 832456" d="M0,0H772.5V46H0Z" transform="translate(285.001 4156.925)" fill="#e6e7ee"/>
    <path id="Path_832461" data-name="Path 832461" d="M0,0H772.5V46H0Z" transform="translate(285.001 4254.959)" fill="#e6e7ee"/>
    <path id="Path_832479" data-name="Path 832479" d="M0,0H257.5V46H0Z" transform="translate(1057.5 4300.96)" fill="#99684b"/>
    <path id="Path_832480" data-name="Path 832480" d="M0,0H257.5V195.053H0Z" transform="translate(1057.5 4105.907)" fill="#e86266"/>
    <path id="Path_832464" data-name="Path 832464" d="M0,0H772.5V46H0Z" transform="translate(285.001 4347.578)" fill="#e6e7ee"/>
    <path id="Path_832481" data-name="Path 832481" d="M0,0H257.5V92.619H0Z" transform="translate(1057.5 4347.578)" fill="#ffd500"/>
    <path id="Path_832468" data-name="Path 832468" d="M0,0H772.5V46H0Z" transform="translate(285.001 4440.197)" fill="#e6e7ee"/>
    <path id="Path_832482" data-name="Path 832482" d="M0,0H257.5V190.653H0Z" transform="translate(1057.5 4440.197)" fill="#ffe3d2"/>
    <path id="Path_832471" data-name="Path 832471" d="M0,0H772.5V46H0Z" transform="translate(285.001 4538.231)" fill="#e6e7ee"/>
    <path id="Path_832475" data-name="Path 832475" d="M0,0H772.5V46H0Z" transform="translate(285.001 4630.85)" fill="#e6e7ee"/>
    <path id="Path_832478" data-name="Path 832478" d="M0,0H772.5V46H0Z" transform="translate(285.001 4723.468)" fill="#e6e7ee"/>
    <path id="Path_832483" data-name="Path 832483" d="M0,0H257.5V92.619H0Z" transform="translate(1057.5 4630.85)" fill="#c1e29a"/>
    <path id="Path_832455" data-name="Path 832455" d="M0,0H1030V43.61H0Z" transform="translate(285.001 4063.001)" fill="#ffae7e"/>
    <path id="Path_832459" data-name="Path 832459" d="M-27.1-4.93h-4.5v3.047h5.281V0h-7.625V-11.375h7.609v1.9H-31.6v2.711h4.5Zm5.227-1,1.422-2.523h2.414l-2.406,4.141L-17.934,0h-2.422l-1.508-2.656L-23.363,0h-2.43l2.508-4.312-2.4-4.141h2.422ZM-9.34-4.148a5.07,5.07,0,0,1-.887,3.129A2.843,2.843,0,0,1-12.621.156a2.633,2.633,0,0,1-2.07-.891V3.25h-2.258v-11.7h2.094l.078.828a2.654,2.654,0,0,1,2.141-.984,2.862,2.862,0,0,1,2.43,1.156A5.207,5.207,0,0,1-9.34-4.266ZM-11.6-4.312a3.327,3.327,0,0,0-.418-1.82,1.361,1.361,0,0,0-1.215-.641,1.478,1.478,0,0,0-1.461.813V-2.5a1.5,1.5,0,0,0,1.477.836Q-11.6-1.664-11.6-4.312ZM-5.559,0H-7.824V-12h2.266Zm1.508-4.3a5.013,5.013,0,0,1,.484-2.242A3.546,3.546,0,0,1-2.172-8.07,4.069,4.069,0,0,1-.059-8.609,3.849,3.849,0,0,1,2.734-7.562,4.2,4.2,0,0,1,3.941-4.719l.016.578A4.418,4.418,0,0,1,2.871-1.02,3.775,3.775,0,0,1-.043.156,3.793,3.793,0,0,1-2.961-1.016,4.5,4.5,0,0,1-4.051-4.2Zm2.258.16A3.16,3.16,0,0,0-1.34-2.3a1.5,1.5,0,0,0,1.3.638,1.5,1.5,0,0,0,1.281-.63A3.457,3.457,0,0,0,1.7-4.309,3.128,3.128,0,0,0,1.238-6.14a1.5,1.5,0,0,0-1.3-.649,1.474,1.474,0,0,0-1.281.646A3.516,3.516,0,0,0-1.793-4.144ZM9.926-2.336a.727.727,0,0,0-.41-.652A4.659,4.659,0,0,0,8.2-3.414Q5.184-4.047,5.184-5.977a2.323,2.323,0,0,1,.934-1.879,3.766,3.766,0,0,1,2.441-.754,4.053,4.053,0,0,1,2.574.758A2.388,2.388,0,0,1,12.1-5.883H9.84a1.092,1.092,0,0,0-.312-.8A1.322,1.322,0,0,0,8.551-7a1.351,1.351,0,0,0-.883.258.814.814,0,0,0-.312.656.7.7,0,0,0,.355.605,3.657,3.657,0,0,0,1.2.4,9.8,9.8,0,0,1,1.422.379A2.336,2.336,0,0,1,12.121-2.43a2.2,2.2,0,0,1-.992,1.871A4.28,4.28,0,0,1,8.566.156,4.47,4.47,0,0,1,6.68-.223,3.166,3.166,0,0,1,5.387-1.262a2.414,2.414,0,0,1-.469-1.426H7.059a1.179,1.179,0,0,0,.445.922,1.766,1.766,0,0,0,1.109.32,1.635,1.635,0,0,0,.98-.246A.766.766,0,0,0,9.926-2.336ZM15.957,0H13.691V-8.453h2.266Zm-2.4-10.641a1.112,1.112,0,0,1,.34-.836,1.277,1.277,0,0,1,.926-.328,1.28,1.28,0,0,1,.922.328,1.105,1.105,0,0,1,.344.836,1.108,1.108,0,0,1-.348.844,1.283,1.283,0,0,1-.918.328,1.283,1.283,0,0,1-.918-.328A1.108,1.108,0,0,1,13.559-10.641ZM17.465-4.3a5.013,5.013,0,0,1,.484-2.242A3.546,3.546,0,0,1,19.344-8.07a4.069,4.069,0,0,1,2.113-.539A3.849,3.849,0,0,1,24.25-7.562a4.2,4.2,0,0,1,1.207,2.844l.016.578A4.418,4.418,0,0,1,24.387-1.02,3.775,3.775,0,0,1,21.473.156a3.793,3.793,0,0,1-2.918-1.172A4.5,4.5,0,0,1,17.465-4.2Zm2.258.16A3.16,3.16,0,0,0,20.176-2.3a1.5,1.5,0,0,0,1.3.638,1.5,1.5,0,0,0,1.281-.63,3.457,3.457,0,0,0,.461-2.015,3.128,3.128,0,0,0-.461-1.831,1.5,1.5,0,0,0-1.3-.649,1.474,1.474,0,0,0-1.281.646A3.516,3.516,0,0,0,19.723-4.144ZM21.9-12h2.461L22.2-9.578H20.363Zm7.039,3.547.07.977a2.951,2.951,0,0,1,2.43-1.133,2.453,2.453,0,0,1,2,.789,3.682,3.682,0,0,1,.672,2.359V0H31.855V-5.406a1.465,1.465,0,0,0-.312-1.043A1.4,1.4,0,0,0,30.5-6.773a1.553,1.553,0,0,0-1.43.813V0H26.816V-8.453Z" transform="translate(416.999 4135.229)" fill="#12263f"/>
    <path id="Path_832458" data-name="Path 832458" d="M-63.93-11.375l2.922,8.25,2.906-8.25h3.078V0h-2.352V-3.109l.234-5.367L-60.211,0H-61.82l-3.062-8.469.234,5.359V0h-2.344V-11.375ZM-48.227,0a2.507,2.507,0,0,1-.227-.758,2.732,2.732,0,0,1-2.133.914,3,3,0,0,1-2.059-.719,2.312,2.312,0,0,1-.816-1.812,2.389,2.389,0,0,1,1-2.062,4.915,4.915,0,0,1,2.879-.727h1.039v-.484a1.393,1.393,0,0,0-.3-.937,1.183,1.183,0,0,0-.949-.352,1.345,1.345,0,0,0-.895.273.929.929,0,0,0-.324.75h-2.258a2.268,2.268,0,0,1,.453-1.359,3,3,0,0,1,1.281-.98,4.669,4.669,0,0,1,1.859-.355,3.689,3.689,0,0,1,2.48.785,2.747,2.747,0,0,1,.918,2.207v3.664a4.041,4.041,0,0,0,.336,1.82V0Zm-1.867-1.57a1.945,1.945,0,0,0,.922-.223,1.462,1.462,0,0,0,.625-.6V-3.844h-.844q-1.7,0-1.8,1.172l-.008.133a.9.9,0,0,0,.3.7A1.153,1.153,0,0,0-50.094-1.57Zm10.3-4.766a6.134,6.134,0,0,0-.812-.062,1.654,1.654,0,0,0-1.68.867V0h-2.258V-8.453h2.133l.063,1.008a2.092,2.092,0,0,1,1.883-1.164,2.366,2.366,0,0,1,.7.1Zm4.18-4.2v2.078h1.445V-6.8h-1.445v4.219a1.007,1.007,0,0,0,.18.672.9.9,0,0,0,.688.2,3.6,3.6,0,0,0,.664-.055V-.047a4.648,4.648,0,0,1-1.367.2,2.156,2.156,0,0,1-2.422-2.4V-6.8h-1.234V-8.453h1.234v-2.078ZM-30.531,0H-32.8V-8.453h2.266Zm-2.4-10.641a1.112,1.112,0,0,1,.34-.836,1.277,1.277,0,0,1,.926-.328,1.28,1.28,0,0,1,.922.328,1.105,1.105,0,0,1,.344.836,1.108,1.108,0,0,1-.348.844,1.283,1.283,0,0,1-.918.328,1.283,1.283,0,0,1-.918-.328A1.108,1.108,0,0,1-32.93-10.641ZM-26.289,0h-2.266V-12h2.266Zm4.242,0h-2.266V-12h2.266Zm1.508-4.3a5.013,5.013,0,0,1,.484-2.242A3.546,3.546,0,0,1-18.66-8.07a4.069,4.069,0,0,1,2.113-.539,3.849,3.849,0,0,1,2.793,1.047,4.2,4.2,0,0,1,1.207,2.844l.016.578A4.418,4.418,0,0,1-13.617-1.02,3.775,3.775,0,0,1-16.531.156a3.793,3.793,0,0,1-2.918-1.172A4.5,4.5,0,0,1-20.539-4.2Zm2.258.16A3.16,3.16,0,0,0-17.828-2.3a1.5,1.5,0,0,0,1.3.638,1.5,1.5,0,0,0,1.281-.63,3.457,3.457,0,0,0,.461-2.015A3.128,3.128,0,0,0-15.25-6.14a1.5,1.5,0,0,0-1.3-.649,1.474,1.474,0,0,0-1.281.646A3.516,3.516,0,0,0-18.281-4.144Zm13.2-4.309.07.977a2.951,2.951,0,0,1,2.43-1.133,2.453,2.453,0,0,1,2,.789A3.682,3.682,0,0,1,.094-5.461V0H-2.164V-5.406a1.465,1.465,0,0,0-.312-1.043,1.4,1.4,0,0,0-1.039-.324,1.553,1.553,0,0,0-1.43.813V0H-7.2V-8.453ZM5.7.156A4.15,4.15,0,0,1,2.668-.984,4.054,4.054,0,0,1,1.5-4.023v-.219A5.106,5.106,0,0,1,1.992-6.52,3.612,3.612,0,0,1,3.387-8.066a3.914,3.914,0,0,1,2.059-.543,3.508,3.508,0,0,1,2.73,1.094,4.444,4.444,0,0,1,1,3.1v.922H3.789a2.1,2.1,0,0,0,.66,1.328,2,2,0,0,0,1.395.5,2.437,2.437,0,0,0,2.039-.945L8.992-1.367A3.389,3.389,0,0,1,7.617-.246,4.511,4.511,0,0,1,5.7.156ZM5.438-6.789a1.411,1.411,0,0,0-1.09.455,2.357,2.357,0,0,0-.535,1.3H6.953v-.181a1.681,1.681,0,0,0-.406-1.165A1.456,1.456,0,0,0,5.438-6.789ZM15.516-.859A2.831,2.831,0,0,1,13.2.156a2.67,2.67,0,0,1-2.074-.781,3.335,3.335,0,0,1-.73-2.289V-8.453h2.258v5.467q0,1.322,1.2,1.322a1.63,1.63,0,0,0,1.578-.8V-8.453H17.7V0H15.578Zm6.008-7.594.07.945a2.971,2.971,0,0,1,2.43-1.1A2.255,2.255,0,0,1,26.266-7.32,2.9,2.9,0,0,1,28.8-8.609a2.521,2.521,0,0,1,2.047.8,3.681,3.681,0,0,1,.672,2.41V0H29.258V-5.391a1.61,1.61,0,0,0-.281-1.051,1.246,1.246,0,0,0-.992-.332,1.409,1.409,0,0,0-1.406.969L26.586,0H24.328V-5.383a1.59,1.59,0,0,0-.289-1.062,1.259,1.259,0,0,0-.984-.328,1.463,1.463,0,0,0-1.391.8V0H19.406V-8.453ZM38.156,0a2.507,2.507,0,0,1-.227-.758A2.732,2.732,0,0,1,35.8.156a3,3,0,0,1-2.059-.719,2.312,2.312,0,0,1-.816-1.812,2.389,2.389,0,0,1,1-2.062A4.915,4.915,0,0,1,36.8-5.164h1.039v-.484a1.393,1.393,0,0,0-.3-.937,1.183,1.183,0,0,0-.949-.352,1.345,1.345,0,0,0-.895.273.929.929,0,0,0-.324.75H33.109a2.268,2.268,0,0,1,.453-1.359,3,3,0,0,1,1.281-.98A4.669,4.669,0,0,1,36.7-8.609a3.689,3.689,0,0,1,2.48.785A2.747,2.747,0,0,1,40.1-5.617v3.664a4.041,4.041,0,0,0,.336,1.82V0ZM36.289-1.57a1.945,1.945,0,0,0,.922-.223,1.462,1.462,0,0,0,.625-.6V-3.844h-.844q-1.7,0-1.8,1.172l-.008.133a.9.9,0,0,0,.3.7A1.153,1.153,0,0,0,36.289-1.57ZM37.148-12h2.461L37.445-9.578H35.609Zm7.391,1.469v2.078h1.445V-6.8H44.539v4.219a1.007,1.007,0,0,0,.18.672.9.9,0,0,0,.688.2,3.6,3.6,0,0,0,.664-.055V-.047a4.648,4.648,0,0,1-1.367.2,2.156,2.156,0,0,1-2.422-2.4V-6.8H41.047V-8.453h1.234v-2.078ZM49.625,0H47.359V-8.453h2.266Zm-2.4-10.641a1.112,1.112,0,0,1,.34-.836,1.277,1.277,0,0,1,.926-.328,1.28,1.28,0,0,1,.922.328,1.105,1.105,0,0,1,.344.836,1.108,1.108,0,0,1-.348.844,1.283,1.283,0,0,1-.918.328,1.283,1.283,0,0,1-.918-.328A1.108,1.108,0,0,1,47.227-10.641ZM55-1.664a1.481,1.481,0,0,0,1.016-.344,1.2,1.2,0,0,0,.406-.914h2.117a2.9,2.9,0,0,1-.469,1.574A3.093,3.093,0,0,1,56.809-.238a3.949,3.949,0,0,1-1.77.395A3.67,3.67,0,0,1,52.18-1,4.56,4.56,0,0,1,51.133-4.18v-.148a4.508,4.508,0,0,1,1.039-3.117,3.627,3.627,0,0,1,2.852-1.164,3.555,3.555,0,0,1,2.543.9,3.2,3.2,0,0,1,.973,2.4H56.422a1.551,1.551,0,0,0-.406-1.072,1.354,1.354,0,0,0-1.031-.412,1.36,1.36,0,0,0-1.191.575,3.333,3.333,0,0,0-.4,1.866v.235a3.375,3.375,0,0,0,.4,1.878A1.377,1.377,0,0,0,55-1.664ZM59.477-4.3a5.013,5.013,0,0,1,.484-2.242A3.546,3.546,0,0,1,61.355-8.07a4.069,4.069,0,0,1,2.113-.539,3.849,3.849,0,0,1,2.793,1.047,4.2,4.2,0,0,1,1.207,2.844l.016.578A4.418,4.418,0,0,1,66.4-1.02,3.775,3.775,0,0,1,63.484.156a3.793,3.793,0,0,1-2.918-1.172A4.5,4.5,0,0,1,59.477-4.2Zm2.258.16A3.16,3.16,0,0,0,62.188-2.3a1.5,1.5,0,0,0,1.3.638,1.5,1.5,0,0,0,1.281-.63,3.457,3.457,0,0,0,.461-2.015,3.128,3.128,0,0,0-.461-1.831,1.5,1.5,0,0,0-1.3-.649,1.474,1.474,0,0,0-1.281.646A3.516,3.516,0,0,0,61.734-4.144Z" transform="translate(416.999 4233.263)" fill="#12263f"/>
    <path id="Path_832463" data-name="Path 832463" d="M-67.406-11.375l2.922,8.25,2.906-8.25H-58.5V0h-2.352V-3.109l.234-5.367L-63.687,0H-65.3l-3.062-8.469.234,5.359V0h-2.344V-11.375ZM-56.953-4.3a5.013,5.013,0,0,1,.484-2.242A3.546,3.546,0,0,1-55.074-8.07a4.069,4.069,0,0,1,2.113-.539,3.849,3.849,0,0,1,2.793,1.047,4.2,4.2,0,0,1,1.207,2.844l.016.578A4.418,4.418,0,0,1-50.031-1.02,3.775,3.775,0,0,1-52.945.156a3.793,3.793,0,0,1-2.918-1.172A4.5,4.5,0,0,1-56.953-4.2Zm2.258.16A3.16,3.16,0,0,0-54.242-2.3a1.5,1.5,0,0,0,1.3.638,1.5,1.5,0,0,0,1.281-.63A3.457,3.457,0,0,0-51.2-4.309a3.128,3.128,0,0,0-.461-1.831,1.5,1.5,0,0,0-1.3-.649,1.474,1.474,0,0,0-1.281.646A3.516,3.516,0,0,0-54.7-4.144Zm9.844-6.387v2.078h1.445V-6.8h-1.445v4.219a1.007,1.007,0,0,0,.18.672.9.9,0,0,0,.688.2,3.6,3.6,0,0,0,.664-.055V-.047a4.648,4.648,0,0,1-1.367.2,2.156,2.156,0,0,1-2.422-2.4V-6.8h-1.234V-8.453h1.234v-2.078ZM-42.734-4.3a5.013,5.013,0,0,1,.484-2.242A3.546,3.546,0,0,1-40.855-8.07a4.069,4.069,0,0,1,2.113-.539,3.849,3.849,0,0,1,2.793,1.047,4.2,4.2,0,0,1,1.207,2.844l.016.578A4.418,4.418,0,0,1-35.812-1.02,3.775,3.775,0,0,1-38.727.156a3.793,3.793,0,0,1-2.918-1.172A4.5,4.5,0,0,1-42.734-4.2Zm2.258.16A3.16,3.16,0,0,0-40.023-2.3a1.5,1.5,0,0,0,1.3.638,1.5,1.5,0,0,0,1.281-.63,3.457,3.457,0,0,0,.461-2.015,3.128,3.128,0,0,0-.461-1.831,1.5,1.5,0,0,0-1.3-.649,1.474,1.474,0,0,0-1.281.646A3.516,3.516,0,0,0-40.477-4.144Zm10.656,2.48A1.481,1.481,0,0,0-28.8-2.008a1.2,1.2,0,0,0,.406-.914h2.117a2.9,2.9,0,0,1-.469,1.574A3.093,3.093,0,0,1-28.012-.238a3.949,3.949,0,0,1-1.77.395A3.67,3.67,0,0,1-32.641-1,4.56,4.56,0,0,1-33.687-4.18v-.148a4.508,4.508,0,0,1,1.039-3.117A3.627,3.627,0,0,1-29.8-8.609a3.555,3.555,0,0,1,2.543.9,3.2,3.2,0,0,1,.973,2.4H-28.4A1.551,1.551,0,0,0-28.8-6.377a1.354,1.354,0,0,0-1.031-.412,1.36,1.36,0,0,0-1.191.575,3.333,3.333,0,0,0-.4,1.866v.235a3.375,3.375,0,0,0,.4,1.878A1.377,1.377,0,0,0-29.82-1.664ZM-22.609,0h-2.266V-8.453h2.266Zm-2.4-10.641a1.112,1.112,0,0,1,.34-.836,1.277,1.277,0,0,1,.926-.328,1.28,1.28,0,0,1,.922.328,1.105,1.105,0,0,1,.344.836,1.108,1.108,0,0,1-.348.844,1.283,1.283,0,0,1-.918.328A1.283,1.283,0,0,1-24.66-9.8,1.108,1.108,0,0,1-25.008-10.641Zm7.773,8.977a1.481,1.481,0,0,0,1.016-.344,1.2,1.2,0,0,0,.406-.914H-13.7a2.9,2.9,0,0,1-.469,1.574A3.093,3.093,0,0,1-15.426-.238,3.949,3.949,0,0,1-17.2.156,3.67,3.67,0,0,1-20.055-1,4.56,4.56,0,0,1-21.1-4.18v-.148a4.508,4.508,0,0,1,1.039-3.117,3.627,3.627,0,0,1,2.852-1.164,3.555,3.555,0,0,1,2.543.9A3.2,3.2,0,0,1-13.7-5.3h-2.117a1.551,1.551,0,0,0-.406-1.072,1.354,1.354,0,0,0-1.031-.412,1.36,1.36,0,0,0-1.191.575,3.333,3.333,0,0,0-.4,1.866v.235a3.375,3.375,0,0,0,.4,1.878A1.377,1.377,0,0,0-17.234-1.664ZM-10.023,0h-2.266V-12h2.266Zm5.75.156A4.15,4.15,0,0,1-7.3-.984,4.054,4.054,0,0,1-8.469-4.023v-.219A5.106,5.106,0,0,1-7.977-6.52,3.612,3.612,0,0,1-6.582-8.066a3.914,3.914,0,0,1,2.059-.543,3.508,3.508,0,0,1,2.73,1.094,4.444,4.444,0,0,1,1,3.1v.922H-6.18a2.1,2.1,0,0,0,.66,1.328,2,2,0,0,0,1.395.5,2.437,2.437,0,0,0,2.039-.945L-.977-1.367A3.389,3.389,0,0,1-2.352-.246,4.511,4.511,0,0,1-4.273.156Zm-.258-6.945a1.411,1.411,0,0,0-1.09.455,2.357,2.357,0,0,0-.535,1.3h3.141v-.181a1.681,1.681,0,0,0-.406-1.165A1.456,1.456,0,0,0-4.531-6.789Zm7.719-3.742v2.078H4.633V-6.8H3.188v4.219a1.007,1.007,0,0,0,.18.672.9.9,0,0,0,.688.2,3.6,3.6,0,0,0,.664-.055V-.047a4.648,4.648,0,0,1-1.367.2A2.156,2.156,0,0,1,.93-2.242V-6.8H-.3V-8.453H.93v-2.078ZM10.789,0a2.507,2.507,0,0,1-.227-.758A2.732,2.732,0,0,1,8.43.156,3,3,0,0,1,6.371-.562a2.312,2.312,0,0,1-.816-1.812,2.389,2.389,0,0,1,1-2.062A4.915,4.915,0,0,1,9.43-5.164h1.039v-.484a1.393,1.393,0,0,0-.3-.937,1.183,1.183,0,0,0-.949-.352,1.345,1.345,0,0,0-.895.273A.929.929,0,0,0,8-5.914H5.742A2.268,2.268,0,0,1,6.2-7.273a3,3,0,0,1,1.281-.98,4.669,4.669,0,0,1,1.859-.355,3.689,3.689,0,0,1,2.48.785,2.747,2.747,0,0,1,.918,2.207v3.664a4.041,4.041,0,0,0,.336,1.82V0ZM8.922-1.57a1.945,1.945,0,0,0,.922-.223,1.462,1.462,0,0,0,.625-.6V-3.844H9.625q-1.7,0-1.8,1.172l-.008.133a.9.9,0,0,0,.3.7A1.153,1.153,0,0,0,8.922-1.57ZM23.2-6.336a6.134,6.134,0,0,0-.812-.062,1.654,1.654,0,0,0-1.68.867V0H18.453V-8.453h2.133l.063,1.008a2.092,2.092,0,0,1,1.883-1.164,2.366,2.366,0,0,1,.7.1ZM29.352-.859A2.831,2.831,0,0,1,27.039.156a2.67,2.67,0,0,1-2.074-.781,3.335,3.335,0,0,1-.73-2.289V-8.453h2.258v5.467q0,1.322,1.2,1.322a1.63,1.63,0,0,0,1.578-.8V-8.453h2.266V0H29.414ZM35.625,0H33.359V-8.453h2.266Zm-2.4-10.641a1.112,1.112,0,0,1,.34-.836,1.277,1.277,0,0,1,.926-.328,1.28,1.28,0,0,1,.922.328,1.105,1.105,0,0,1,.344.836,1.108,1.108,0,0,1-.348.844,1.283,1.283,0,0,1-.918.328,1.283,1.283,0,0,1-.918-.328A1.108,1.108,0,0,1,33.227-10.641Zm3.906,6.352a5.094,5.094,0,0,1,.887-3.148,2.877,2.877,0,0,1,2.426-1.172,2.589,2.589,0,0,1,2.039.922V-12H44.75V0H42.711L42.6-.9A2.657,2.657,0,0,1,40.43.156,2.869,2.869,0,0,1,38.035-1.02,5.258,5.258,0,0,1,37.133-4.289Zm2.258.168A3.337,3.337,0,0,0,39.8-2.3a1.349,1.349,0,0,0,1.2.634,1.511,1.511,0,0,0,1.477-.884V-5.889a1.489,1.489,0,0,0-1.461-.884Q39.391-6.773,39.391-4.121ZM46.148-4.3a5.013,5.013,0,0,1,.484-2.242A3.546,3.546,0,0,1,48.027-8.07a4.069,4.069,0,0,1,2.113-.539,3.849,3.849,0,0,1,2.793,1.047,4.2,4.2,0,0,1,1.207,2.844l.016.578A4.418,4.418,0,0,1,53.07-1.02,3.775,3.775,0,0,1,50.156.156a3.793,3.793,0,0,1-2.918-1.172A4.5,4.5,0,0,1,46.148-4.2Zm2.258.16A3.16,3.16,0,0,0,48.859-2.3a1.5,1.5,0,0,0,1.3.638,1.5,1.5,0,0,0,1.281-.63A3.457,3.457,0,0,0,51.9-4.309a3.128,3.128,0,0,0-.461-1.831,1.5,1.5,0,0,0-1.3-.649,1.474,1.474,0,0,0-1.281.646A3.516,3.516,0,0,0,48.406-4.144ZM60.125-2.336a.727.727,0,0,0-.41-.652A4.659,4.659,0,0,0,58.4-3.414q-3.016-.633-3.016-2.562a2.323,2.323,0,0,1,.934-1.879,3.766,3.766,0,0,1,2.441-.754,4.053,4.053,0,0,1,2.574.758A2.388,2.388,0,0,1,62.3-5.883H60.039a1.092,1.092,0,0,0-.312-.8A1.322,1.322,0,0,0,58.75-7a1.351,1.351,0,0,0-.883.258.814.814,0,0,0-.312.656.7.7,0,0,0,.355.605,3.657,3.657,0,0,0,1.2.4,9.8,9.8,0,0,1,1.422.379A2.336,2.336,0,0,1,62.32-2.43a2.2,2.2,0,0,1-.992,1.871,4.28,4.28,0,0,1-2.562.715,4.47,4.47,0,0,1-1.887-.379,3.166,3.166,0,0,1-1.293-1.039,2.414,2.414,0,0,1-.469-1.426h2.141a1.179,1.179,0,0,0,.445.922,1.766,1.766,0,0,0,1.109.32,1.635,1.635,0,0,0,.98-.246A.766.766,0,0,0,60.125-2.336ZM68.672,0a2.507,2.507,0,0,1-.227-.758,2.732,2.732,0,0,1-2.133.914,3,3,0,0,1-2.059-.719,2.312,2.312,0,0,1-.816-1.812,2.389,2.389,0,0,1,1-2.062,4.915,4.915,0,0,1,2.879-.727h1.039v-.484a1.393,1.393,0,0,0-.3-.937,1.183,1.183,0,0,0-.949-.352,1.345,1.345,0,0,0-.895.273.929.929,0,0,0-.324.75H63.625a2.268,2.268,0,0,1,.453-1.359,3,3,0,0,1,1.281-.98,4.669,4.669,0,0,1,1.859-.355,3.689,3.689,0,0,1,2.48.785,2.747,2.747,0,0,1,.918,2.207v3.664a4.041,4.041,0,0,0,.336,1.82V0ZM66.8-1.57a1.945,1.945,0,0,0,.922-.223,1.462,1.462,0,0,0,.625-.6V-3.844h-.844q-1.7,0-1.8,1.172l-.008.133a.9.9,0,0,0,.3.7A1.153,1.153,0,0,0,66.8-1.57Z" transform="translate(416.999 4331.297)" fill="#12263f"/>
    <path id="Path_832467" data-name="Path 832467" d="M-42.953-9.477h-3.484V0h-2.344V-9.477h-3.437v-1.9h9.266Zm5.43,3.141a6.134,6.134,0,0,0-.812-.062,1.654,1.654,0,0,0-1.68.867V0h-2.258V-8.453h2.133l.063,1.008A2.092,2.092,0,0,1-38.2-8.609a2.366,2.366,0,0,1,.7.1ZM-31.773,0A2.507,2.507,0,0,1-32-.758a2.732,2.732,0,0,1-2.133.914,3,3,0,0,1-2.059-.719,2.312,2.312,0,0,1-.816-1.812,2.389,2.389,0,0,1,1-2.062,4.915,4.915,0,0,1,2.879-.727h1.039v-.484a1.393,1.393,0,0,0-.3-.937,1.183,1.183,0,0,0-.949-.352,1.345,1.345,0,0,0-.895.273.929.929,0,0,0-.324.75H-36.82a2.268,2.268,0,0,1,.453-1.359,3,3,0,0,1,1.281-.98,4.669,4.669,0,0,1,1.859-.355,3.689,3.689,0,0,1,2.48.785,2.747,2.747,0,0,1,.918,2.207v3.664a4.041,4.041,0,0,0,.336,1.82V0Zm-1.867-1.57a1.945,1.945,0,0,0,.922-.223,1.462,1.462,0,0,0,.625-.6V-3.844h-.844q-1.7,0-1.8,1.172l-.008.133a.9.9,0,0,0,.3.7A1.153,1.153,0,0,0-33.641-1.57ZM-32.781-12h2.461l-2.164,2.422H-34.32Zm5.234,12V-6.8H-28.8V-8.453h1.258v-.391a3.17,3.17,0,0,1,.98-2.457,3.945,3.945,0,0,1,2.723-.863,9.031,9.031,0,0,1,2.563.461l-.328,1.867a10,10,0,0,0-1.187-.293A5.835,5.835,0,0,0-23.7-10.2q-1.578,0-1.578,1.4v.344h1.664V-6.8h-1.664V0Zm7.32,0h-2.266V-8.453h2.266Zm5.383-1.664a1.481,1.481,0,0,0,1.016-.344,1.2,1.2,0,0,0,.406-.914H-11.3a2.9,2.9,0,0,1-.469,1.574A3.093,3.093,0,0,1-13.035-.238,3.949,3.949,0,0,1-14.8.156,3.67,3.67,0,0,1-17.664-1,4.56,4.56,0,0,1-18.711-4.18v-.148a4.508,4.508,0,0,1,1.039-3.117A3.627,3.627,0,0,1-14.82-8.609a3.555,3.555,0,0,1,2.543.9A3.2,3.2,0,0,1-11.3-5.3h-2.117a1.551,1.551,0,0,0-.406-1.072,1.354,1.354,0,0,0-1.031-.412,1.36,1.36,0,0,0-1.191.575,3.333,3.333,0,0,0-.4,1.866v.235a3.375,3.375,0,0,0,.4,1.878A1.377,1.377,0,0,0-14.844-1.664ZM-10.367-4.3a5.013,5.013,0,0,1,.484-2.242A3.546,3.546,0,0,1-8.488-8.07a4.069,4.069,0,0,1,2.113-.539A3.849,3.849,0,0,1-3.582-7.562,4.2,4.2,0,0,1-2.375-4.719l.016.578A4.418,4.418,0,0,1-3.445-1.02,3.775,3.775,0,0,1-6.359.156,3.793,3.793,0,0,1-9.277-1.016,4.5,4.5,0,0,1-10.367-4.2Zm2.258.16A3.16,3.16,0,0,0-7.656-2.3a1.5,1.5,0,0,0,1.3.638,1.5,1.5,0,0,0,1.281-.63,3.457,3.457,0,0,0,.461-2.015A3.128,3.128,0,0,0-5.078-6.14a1.5,1.5,0,0,0-1.3-.649,1.474,1.474,0,0,0-1.281.646A3.516,3.516,0,0,0-8.109-4.144ZM8.078-.859A2.831,2.831,0,0,1,5.766.156,2.67,2.67,0,0,1,3.691-.625a3.335,3.335,0,0,1-.73-2.289V-8.453H5.219v5.467q0,1.322,1.2,1.322A1.63,1.63,0,0,0,8-2.462V-8.453h2.266V0H8.141Zm8.641-5.477a6.134,6.134,0,0,0-.812-.062,1.654,1.654,0,0,0-1.68.867V0H11.969V-8.453H14.1l.063,1.008a2.092,2.092,0,0,1,1.883-1.164,2.366,2.366,0,0,1,.7.1Zm8.7,2.188A5.119,5.119,0,0,1,24.555-.98,2.872,2.872,0,0,1,22.133.156,2.639,2.639,0,0,1,19.938-.9l-.1.9H17.8V-12h2.258v4.3a2.571,2.571,0,0,1,2.055-.914,2.9,2.9,0,0,1,2.426,1.137,5.126,5.126,0,0,1,.879,3.2Zm-2.258-.164a3.363,3.363,0,0,0-.406-1.871,1.374,1.374,0,0,0-1.211-.59,1.489,1.489,0,0,0-1.484.883v3.336a1.509,1.509,0,0,0,1.5.891A1.394,1.394,0,0,0,23-2.742,5.562,5.562,0,0,0,23.164-4.312ZM31.711,0a2.507,2.507,0,0,1-.227-.758,2.732,2.732,0,0,1-2.133.914,3,3,0,0,1-2.059-.719,2.312,2.312,0,0,1-.816-1.812,2.389,2.389,0,0,1,1-2.062,4.915,4.915,0,0,1,2.879-.727h1.039v-.484a1.393,1.393,0,0,0-.3-.937,1.183,1.183,0,0,0-.949-.352,1.345,1.345,0,0,0-.895.273.929.929,0,0,0-.324.75H26.664a2.268,2.268,0,0,1,.453-1.359,3,3,0,0,1,1.281-.98,4.669,4.669,0,0,1,1.859-.355,3.689,3.689,0,0,1,2.48.785,2.747,2.747,0,0,1,.918,2.207v3.664a4.041,4.041,0,0,0,.336,1.82V0ZM29.844-1.57a1.945,1.945,0,0,0,.922-.223,1.462,1.462,0,0,0,.625-.6V-3.844h-.844q-1.7,0-1.8,1.172l-.008.133a.9.9,0,0,0,.3.7A1.153,1.153,0,0,0,29.844-1.57Zm7.625-6.883.07.977a2.951,2.951,0,0,1,2.43-1.133,2.453,2.453,0,0,1,2,.789,3.682,3.682,0,0,1,.672,2.359V0H40.383V-5.406a1.465,1.465,0,0,0-.312-1.043,1.4,1.4,0,0,0-1.039-.324,1.553,1.553,0,0,0-1.43.813V0H35.344V-8.453ZM44-4.3a5.013,5.013,0,0,1,.484-2.242A3.546,3.546,0,0,1,45.879-8.07a4.069,4.069,0,0,1,2.113-.539,3.849,3.849,0,0,1,2.793,1.047,4.2,4.2,0,0,1,1.207,2.844l.016.578A4.418,4.418,0,0,1,50.922-1.02,3.775,3.775,0,0,1,48.008.156,3.793,3.793,0,0,1,45.09-1.016,4.5,4.5,0,0,1,44-4.2Zm2.258.16A3.16,3.16,0,0,0,46.711-2.3a1.5,1.5,0,0,0,1.3.638,1.5,1.5,0,0,0,1.281-.63,3.457,3.457,0,0,0,.461-2.015,3.128,3.128,0,0,0-.461-1.831,1.5,1.5,0,0,0-1.3-.649,1.474,1.474,0,0,0-1.281.646A3.516,3.516,0,0,0,46.258-4.144Z" transform="translate(416.999 4423.916)" fill="#12263f"/>
    <path id="Path_832470" data-name="Path 832470" d="M-68.613,0V-11.375h3.5a5.315,5.315,0,0,1,2.684.676,4.712,4.712,0,0,1,1.848,1.922,5.928,5.928,0,0,1,.664,2.832v.523A5.945,5.945,0,0,1-60.57-2.6,4.672,4.672,0,0,1-62.41-.687,5.355,5.355,0,0,1-65.09,0Zm2.344-9.477v7.594h1.133a2.545,2.545,0,0,0,2.1-.9,4.06,4.06,0,0,0,.742-2.57v-.6a4.124,4.124,0,0,0-.719-2.629,2.537,2.537,0,0,0-2.1-.895Zm11.8,9.633A4.15,4.15,0,0,1-57.5-.984a4.054,4.054,0,0,1-1.168-3.039v-.219a5.106,5.106,0,0,1,.492-2.277,3.612,3.612,0,0,1,1.395-1.547,3.914,3.914,0,0,1,2.059-.543,3.508,3.508,0,0,1,2.73,1.094,4.444,4.444,0,0,1,1,3.1v.922h-5.383a2.1,2.1,0,0,0,.66,1.328,2,2,0,0,0,1.395.5,2.437,2.437,0,0,0,2.039-.945l1.109,1.242A3.389,3.389,0,0,1-52.551-.246,4.511,4.511,0,0,1-54.473.156Zm-.258-6.945a1.411,1.411,0,0,0-1.09.455,2.357,2.357,0,0,0-.535,1.3h3.141v-.181a1.681,1.681,0,0,0-.406-1.165A1.456,1.456,0,0,0-54.73-6.789Zm9.594,4.453a.727.727,0,0,0-.41-.652,4.659,4.659,0,0,0-1.316-.426q-3.016-.633-3.016-2.562a2.323,2.323,0,0,1,.934-1.879A3.766,3.766,0,0,1-46.5-8.609a4.053,4.053,0,0,1,2.574.758,2.388,2.388,0,0,1,.965,1.969h-2.258a1.092,1.092,0,0,0-.312-.8A1.322,1.322,0,0,0-46.512-7a1.351,1.351,0,0,0-.883.258.814.814,0,0,0-.312.656.7.7,0,0,0,.355.605,3.657,3.657,0,0,0,1.2.4A9.8,9.8,0,0,1-44.73-4.7,2.336,2.336,0,0,1-42.941-2.43a2.2,2.2,0,0,1-.992,1.871A4.28,4.28,0,0,1-46.5.156a4.47,4.47,0,0,1-1.887-.379,3.166,3.166,0,0,1-1.293-1.039,2.414,2.414,0,0,1-.469-1.426H-48a1.179,1.179,0,0,0,.445.922,1.766,1.766,0,0,0,1.109.32,1.635,1.635,0,0,0,.98-.246A.766.766,0,0,0-45.137-2.336Zm11.258-1.812a5.07,5.07,0,0,1-.887,3.129A2.843,2.843,0,0,1-37.16.156a2.633,2.633,0,0,1-2.07-.891V3.25h-2.258v-11.7h2.094l.078.828a2.654,2.654,0,0,1,2.141-.984,2.862,2.862,0,0,1,2.43,1.156,5.207,5.207,0,0,1,.867,3.188Zm-2.258-.164a3.327,3.327,0,0,0-.418-1.82,1.361,1.361,0,0,0-1.215-.641,1.479,1.479,0,0,0-1.461.813V-2.5a1.5,1.5,0,0,0,1.477.836Q-36.137-1.664-36.137-4.312ZM-27.582,0a2.507,2.507,0,0,1-.227-.758,2.732,2.732,0,0,1-2.133.914A3,3,0,0,1-32-.562a2.312,2.312,0,0,1-.816-1.812,2.389,2.389,0,0,1,1-2.062,4.915,4.915,0,0,1,2.879-.727H-27.9v-.484a1.393,1.393,0,0,0-.3-.937,1.183,1.183,0,0,0-.949-.352,1.345,1.345,0,0,0-.895.273.929.929,0,0,0-.324.75h-2.258a2.268,2.268,0,0,1,.453-1.359,3,3,0,0,1,1.281-.98,4.669,4.669,0,0,1,1.859-.355,3.689,3.689,0,0,1,2.48.785,2.747,2.747,0,0,1,.918,2.207v3.664A4.041,4.041,0,0,0-25.3-.133V0Zm-1.867-1.57a1.945,1.945,0,0,0,.922-.223,1.462,1.462,0,0,0,.625-.6V-3.844h-.844q-1.7,0-1.8,1.172l-.008.133a.9.9,0,0,0,.3.7A1.153,1.153,0,0,0-29.449-1.57Zm9.063-.094a1.481,1.481,0,0,0,1.016-.344,1.2,1.2,0,0,0,.406-.914h2.117a2.9,2.9,0,0,1-.469,1.574A3.093,3.093,0,0,1-18.578-.238a3.949,3.949,0,0,1-1.77.395A3.67,3.67,0,0,1-23.207-1,4.56,4.56,0,0,1-24.254-4.18v-.148a4.508,4.508,0,0,1,1.039-3.117,3.627,3.627,0,0,1,2.852-1.164,3.555,3.555,0,0,1,2.543.9,3.2,3.2,0,0,1,.973,2.4h-2.117a1.551,1.551,0,0,0-.406-1.072A1.354,1.354,0,0,0-20.4-6.789a1.36,1.36,0,0,0-1.191.575A3.333,3.333,0,0,0-22-4.348v.235a3.375,3.375,0,0,0,.4,1.878A1.377,1.377,0,0,0-20.387-1.664Zm7.031-5.867A2.818,2.818,0,0,1-11.1-8.609q2.75,0,2.789,3.2V0h-2.258V-5.352a1.57,1.57,0,0,0-.312-1.074,1.34,1.34,0,0,0-1.039-.348,1.537,1.537,0,0,0-1.437.766V0h-2.258V-12h2.258Zm6.4,3.227a5.013,5.013,0,0,1,.484-2.242A3.546,3.546,0,0,1-5.078-8.07a4.069,4.069,0,0,1,2.113-.539A3.849,3.849,0,0,1-.172-7.562,4.2,4.2,0,0,1,1.035-4.719l.016.578A4.418,4.418,0,0,1-.035-1.02,3.775,3.775,0,0,1-2.949.156,3.793,3.793,0,0,1-5.867-1.016,4.5,4.5,0,0,1-6.957-4.2Zm2.258.16A3.16,3.16,0,0,0-4.246-2.3a1.5,1.5,0,0,0,1.3.638,1.5,1.5,0,0,0,1.281-.63,3.457,3.457,0,0,0,.461-2.015A3.128,3.128,0,0,0-1.668-6.14a1.5,1.5,0,0,0-1.3-.649,1.474,1.474,0,0,0-1.281.646A3.516,3.516,0,0,0-4.7-4.144ZM9.129-10.531v2.078h1.445V-6.8H9.129v4.219a1.007,1.007,0,0,0,.18.672A.9.9,0,0,0,10-1.7a3.6,3.6,0,0,0,.664-.055V-.047a4.648,4.648,0,0,1-1.367.2,2.156,2.156,0,0,1-2.422-2.4V-6.8H5.637V-8.453H6.871v-2.078Zm7.453,4.2A6.134,6.134,0,0,0,15.77-6.4a1.654,1.654,0,0,0-1.68.867V0H11.832V-8.453h2.133l.063,1.008A2.092,2.092,0,0,1,15.91-8.609a2.366,2.366,0,0,1,.7.1ZM22.332,0a2.507,2.507,0,0,1-.227-.758,2.732,2.732,0,0,1-2.133.914,3,3,0,0,1-2.059-.719A2.312,2.312,0,0,1,17.1-2.375a2.389,2.389,0,0,1,1-2.062,4.915,4.915,0,0,1,2.879-.727h1.039v-.484a1.393,1.393,0,0,0-.3-.937,1.183,1.183,0,0,0-.949-.352,1.345,1.345,0,0,0-.895.273.929.929,0,0,0-.324.75H17.285a2.268,2.268,0,0,1,.453-1.359,3,3,0,0,1,1.281-.98,4.669,4.669,0,0,1,1.859-.355,3.689,3.689,0,0,1,2.48.785,2.747,2.747,0,0,1,.918,2.207v3.664a4.041,4.041,0,0,0,.336,1.82V0ZM20.465-1.57a1.945,1.945,0,0,0,.922-.223,1.462,1.462,0,0,0,.625-.6V-3.844h-.844q-1.7,0-1.8,1.172l-.008.133a.9.9,0,0,0,.3.7A1.153,1.153,0,0,0,20.465-1.57ZM28.09-8.453l.07.977a2.951,2.951,0,0,1,2.43-1.133,2.453,2.453,0,0,1,2,.789,3.682,3.682,0,0,1,.672,2.359V0H31V-5.406a1.465,1.465,0,0,0-.312-1.043,1.4,1.4,0,0,0-1.039-.324,1.553,1.553,0,0,0-1.43.813V0H25.965V-8.453ZM34.621-4.3a5.053,5.053,0,0,1,.887-3.148,2.9,2.9,0,0,1,2.434-1.156A2.6,2.6,0,0,1,40.105-7.57l.148-.883h1.984V3.25H39.973V-.727a2.6,2.6,0,0,1-2.047.883A2.878,2.878,0,0,1,35.52-1.016,5.3,5.3,0,0,1,34.621-4.3Zm2.258.16A3.314,3.314,0,0,0,37.3-2.3a1.363,1.363,0,0,0,1.2.634,1.518,1.518,0,0,0,1.469-.829v-3.5a1.506,1.506,0,0,0-1.453-.8,1.38,1.38,0,0,0-1.211.634A3.661,3.661,0,0,0,36.879-4.144Zm12.2,3.285A2.831,2.831,0,0,1,46.762.156a2.67,2.67,0,0,1-2.074-.781,3.335,3.335,0,0,1-.73-2.289V-8.453h2.258v5.467q0,1.322,1.2,1.322A1.63,1.63,0,0,0,49-2.462V-8.453h2.266V0H49.137ZM55.348,0H53.082V-8.453h2.266Zm-2.4-10.641a1.112,1.112,0,0,1,.34-.836,1.277,1.277,0,0,1,.926-.328,1.28,1.28,0,0,1,.922.328,1.105,1.105,0,0,1,.344.836,1.108,1.108,0,0,1-.348.844,1.283,1.283,0,0,1-.918.328A1.283,1.283,0,0,1,53.3-9.8,1.108,1.108,0,0,1,52.949-10.641ZM59.59,0H57.324V-12H59.59ZM61.1-4.3a5.013,5.013,0,0,1,.484-2.242A3.546,3.546,0,0,1,62.977-8.07a4.069,4.069,0,0,1,2.113-.539,3.849,3.849,0,0,1,2.793,1.047A4.2,4.2,0,0,1,69.09-4.719l.016.578A4.418,4.418,0,0,1,68.02-1.02,3.775,3.775,0,0,1,65.105.156a3.793,3.793,0,0,1-2.918-1.172A4.5,4.5,0,0,1,61.1-4.2Zm2.258.16A3.16,3.16,0,0,0,63.809-2.3a1.5,1.5,0,0,0,1.3.638,1.5,1.5,0,0,0,1.281-.63,3.457,3.457,0,0,0,.461-2.015,3.128,3.128,0,0,0-.461-1.831,1.5,1.5,0,0,0-1.3-.649,1.474,1.474,0,0,0-1.281.646A3.516,3.516,0,0,0,63.355-4.144Z" transform="translate(416.999 4516.535)" fill="#12263f"/>
    <path id="Path_832474" data-name="Path 832474" d="M-45.043-3.789A4.025,4.025,0,0,1-46.4-.9,4.76,4.76,0,0,1-49.621.156a4.28,4.28,0,0,1-3.441-1.473,6.038,6.038,0,0,1-1.254-4.043v-.7a6.819,6.819,0,0,1,.578-2.891,4.332,4.332,0,0,1,1.652-1.918,4.629,4.629,0,0,1,2.5-.668,4.637,4.637,0,0,1,3.172,1.055,4.326,4.326,0,0,1,1.391,2.961h-2.344a2.376,2.376,0,0,0-.613-1.6,2.271,2.271,0,0,0-1.605-.5,1.991,1.991,0,0,0-1.754.84,4.707,4.707,0,0,0-.6,2.605V-5.3a5.038,5.038,0,0,0,.559,2.7,1.954,1.954,0,0,0,1.762.852A2.314,2.314,0,0,0-48-2.254a2.241,2.241,0,0,0,.613-1.535Zm3.594-3.742a2.818,2.818,0,0,1,2.258-1.078q2.75,0,2.789,3.2V0H-38.66V-5.352a1.57,1.57,0,0,0-.312-1.074,1.34,1.34,0,0,0-1.039-.348,1.537,1.537,0,0,0-1.437.766V0h-2.258V-12h2.258ZM-29.8,0a2.507,2.507,0,0,1-.227-.758A2.732,2.732,0,0,1-32.16.156a3,3,0,0,1-2.059-.719,2.312,2.312,0,0,1-.816-1.812,2.389,2.389,0,0,1,1-2.062,4.915,4.915,0,0,1,2.879-.727h1.039v-.484a1.393,1.393,0,0,0-.3-.937,1.183,1.183,0,0,0-.949-.352,1.345,1.345,0,0,0-.895.273.929.929,0,0,0-.324.75h-2.258a2.268,2.268,0,0,1,.453-1.359,3,3,0,0,1,1.281-.98,4.669,4.669,0,0,1,1.859-.355,3.689,3.689,0,0,1,2.48.785,2.747,2.747,0,0,1,.918,2.207v3.664a4.041,4.041,0,0,0,.336,1.82V0Zm-1.867-1.57a1.945,1.945,0,0,0,.922-.223,1.462,1.462,0,0,0,.625-.6V-3.844h-.844q-1.7,0-1.8,1.172l-.008.133a.9.9,0,0,0,.3.7A1.153,1.153,0,0,0-31.668-1.57Zm10.3-4.766a6.134,6.134,0,0,0-.812-.062,1.654,1.654,0,0,0-1.68.867V0h-2.258V-8.453h2.133l.063,1.008a2.092,2.092,0,0,1,1.883-1.164,2.366,2.366,0,0,1,.7.1ZM-17.9,0h-2.266V-12H-17.9Zm6.758,0a2.507,2.507,0,0,1-.227-.758A2.732,2.732,0,0,1-13.5.156a3,3,0,0,1-2.059-.719,2.312,2.312,0,0,1-.816-1.812,2.389,2.389,0,0,1,1-2.062A4.915,4.915,0,0,1-12.5-5.164h1.039v-.484a1.393,1.393,0,0,0-.3-.937,1.183,1.183,0,0,0-.949-.352,1.345,1.345,0,0,0-.895.273.929.929,0,0,0-.324.75h-2.258a2.268,2.268,0,0,1,.453-1.359,3,3,0,0,1,1.281-.98A4.669,4.669,0,0,1-12.6-8.609a3.689,3.689,0,0,1,2.48.785A2.747,2.747,0,0,1-9.2-5.617v3.664a4.041,4.041,0,0,0,.336,1.82V0Zm-1.867-1.57a1.945,1.945,0,0,0,.922-.223,1.462,1.462,0,0,0,.625-.6V-3.844h-.844q-1.7,0-1.8,1.172l-.008.133a.9.9,0,0,0,.3.7A1.153,1.153,0,0,0-13.012-1.57Zm12.7-1.187,1.57-5.7H3.613L.762,0H-1.395L-4.246-8.453h2.359ZM4.137-4.3a5.013,5.013,0,0,1,.484-2.242A3.546,3.546,0,0,1,6.016-8.07a4.069,4.069,0,0,1,2.113-.539,3.849,3.849,0,0,1,2.793,1.047,4.2,4.2,0,0,1,1.207,2.844l.016.578A4.418,4.418,0,0,1,11.059-1.02,3.775,3.775,0,0,1,8.145.156,3.793,3.793,0,0,1,5.227-1.016,4.5,4.5,0,0,1,4.137-4.2Zm2.258.16A3.16,3.16,0,0,0,6.848-2.3a1.5,1.5,0,0,0,1.3.638,1.5,1.5,0,0,0,1.281-.63,3.457,3.457,0,0,0,.461-2.015A3.128,3.128,0,0,0,9.426-6.14a1.5,1.5,0,0,0-1.3-.649,1.474,1.474,0,0,0-1.281.646A3.516,3.516,0,0,0,6.395-4.144ZM16-1.82h4.133V0H13.121V-1.375L17.1-6.633H13.238v-1.82h6.773v1.33ZM33.152-4.148A5.119,5.119,0,0,1,32.285-.98,2.872,2.872,0,0,1,29.863.156,2.639,2.639,0,0,1,27.668-.9l-.1.9H25.535V-12h2.258v4.3a2.571,2.571,0,0,1,2.055-.914,2.9,2.9,0,0,1,2.426,1.137,5.126,5.126,0,0,1,.879,3.2Zm-2.258-.164a3.363,3.363,0,0,0-.406-1.871,1.374,1.374,0,0,0-1.211-.59,1.489,1.489,0,0,0-1.484.883v3.336a1.509,1.509,0,0,0,1.5.891A1.394,1.394,0,0,0,30.73-2.742,5.562,5.562,0,0,0,30.895-4.312ZM39.441,0a2.507,2.507,0,0,1-.227-.758,2.732,2.732,0,0,1-2.133.914,3,3,0,0,1-2.059-.719,2.312,2.312,0,0,1-.816-1.812,2.389,2.389,0,0,1,1-2.062,4.915,4.915,0,0,1,2.879-.727h1.039v-.484a1.393,1.393,0,0,0-.3-.937,1.183,1.183,0,0,0-.949-.352,1.345,1.345,0,0,0-.895.273.929.929,0,0,0-.324.75H34.395a2.268,2.268,0,0,1,.453-1.359,3,3,0,0,1,1.281-.98,4.669,4.669,0,0,1,1.859-.355,3.689,3.689,0,0,1,2.48.785,2.747,2.747,0,0,1,.918,2.207v3.664a4.041,4.041,0,0,0,.336,1.82V0ZM37.574-1.57a1.945,1.945,0,0,0,.922-.223,1.462,1.462,0,0,0,.625-.6V-3.844h-.844q-1.7,0-1.8,1.172l-.008.133a.9.9,0,0,0,.3.7A1.153,1.153,0,0,0,37.574-1.57Zm7.938-6.883V.461a3.024,3.024,0,0,1-.742,2.176,2.821,2.821,0,0,1-2.141.777,4.591,4.591,0,0,1-1.117-.133V1.492a4.238,4.238,0,0,0,.711.07q1.023,0,1.023-1.086v-8.93Zm-2.445-2.187a1.112,1.112,0,0,1,.34-.836,1.277,1.277,0,0,1,.926-.328,1.277,1.277,0,0,1,.926.328,1.112,1.112,0,0,1,.34.836,1.108,1.108,0,0,1-.348.844,1.283,1.283,0,0,1-.918.328,1.283,1.283,0,0,1-.918-.328A1.108,1.108,0,0,1,43.066-10.641ZM52.176,0a2.507,2.507,0,0,1-.227-.758,2.732,2.732,0,0,1-2.133.914,3,3,0,0,1-2.059-.719,2.312,2.312,0,0,1-.816-1.812,2.389,2.389,0,0,1,1-2.062,4.915,4.915,0,0,1,2.879-.727h1.039v-.484a1.393,1.393,0,0,0-.3-.937,1.183,1.183,0,0,0-.949-.352,1.345,1.345,0,0,0-.895.273.929.929,0,0,0-.324.75H47.129a2.268,2.268,0,0,1,.453-1.359,3,3,0,0,1,1.281-.98,4.669,4.669,0,0,1,1.859-.355,3.689,3.689,0,0,1,2.48.785,2.747,2.747,0,0,1,.918,2.207v3.664a4.041,4.041,0,0,0,.336,1.82V0ZM50.309-1.57a1.945,1.945,0,0,0,.922-.223,1.462,1.462,0,0,0,.625-.6V-3.844h-.844q-1.7,0-1.8,1.172l-.008.133a.9.9,0,0,0,.3.7A1.153,1.153,0,0,0,50.309-1.57Z" transform="translate(416.999 4614.569)" fill="#12263f"/>
    <path id="Path_832457" data-name="Path 832457" d="M-67.031,0V-11.375h3.5a5.315,5.315,0,0,1,2.684.676A4.712,4.712,0,0,1-59-8.777a5.928,5.928,0,0,1,.664,2.832v.523a5.945,5.945,0,0,1-.652,2.82,4.672,4.672,0,0,1-1.84,1.914A5.355,5.355,0,0,1-63.508,0Zm2.344-9.477v7.594h1.133a2.545,2.545,0,0,0,2.1-.9,4.06,4.06,0,0,0,.742-2.57v-.6a4.124,4.124,0,0,0-.719-2.629,2.537,2.537,0,0,0-2.1-.895Zm11.8,9.633A4.15,4.15,0,0,1-55.918-.984a4.054,4.054,0,0,1-1.168-3.039v-.219a5.106,5.106,0,0,1,.492-2.277A3.612,3.612,0,0,1-55.2-8.066a3.914,3.914,0,0,1,2.059-.543,3.508,3.508,0,0,1,2.73,1.094,4.444,4.444,0,0,1,1,3.1v.922H-54.8a2.1,2.1,0,0,0,.66,1.328,2,2,0,0,0,1.395.5A2.437,2.437,0,0,0-50.7-2.609l1.109,1.242A3.389,3.389,0,0,1-50.969-.246,4.511,4.511,0,0,1-52.891.156Zm-.258-6.945a1.411,1.411,0,0,0-1.09.455,2.357,2.357,0,0,0-.535,1.3h3.141v-.181a1.681,1.681,0,0,0-.406-1.165A1.456,1.456,0,0,0-53.148-6.789Zm9.594,4.453a.727.727,0,0,0-.41-.652,4.659,4.659,0,0,0-1.316-.426Q-48.3-4.047-48.3-5.977a2.323,2.323,0,0,1,.934-1.879,3.766,3.766,0,0,1,2.441-.754,4.053,4.053,0,0,1,2.574.758,2.388,2.388,0,0,1,.965,1.969h-2.258a1.092,1.092,0,0,0-.312-.8A1.322,1.322,0,0,0-44.93-7a1.351,1.351,0,0,0-.883.258.814.814,0,0,0-.312.656.7.7,0,0,0,.355.605,3.657,3.657,0,0,0,1.2.4,9.8,9.8,0,0,1,1.422.379A2.336,2.336,0,0,1-41.359-2.43a2.2,2.2,0,0,1-.992,1.871,4.28,4.28,0,0,1-2.562.715A4.47,4.47,0,0,1-46.8-.223a3.166,3.166,0,0,1-1.293-1.039,2.414,2.414,0,0,1-.469-1.426h2.141a1.179,1.179,0,0,0,.445.922,1.766,1.766,0,0,0,1.109.32,1.635,1.635,0,0,0,.98-.246A.766.766,0,0,0-43.555-2.336ZM-32.3-4.148a5.07,5.07,0,0,1-.887,3.129A2.843,2.843,0,0,1-35.578.156a2.633,2.633,0,0,1-2.07-.891V3.25h-2.258v-11.7h2.094l.078.828a2.654,2.654,0,0,1,2.141-.984,2.862,2.862,0,0,1,2.43,1.156A5.207,5.207,0,0,1-32.3-4.266Zm-2.258-.164a3.327,3.327,0,0,0-.418-1.82,1.361,1.361,0,0,0-1.215-.641,1.479,1.479,0,0,0-1.461.813V-2.5a1.5,1.5,0,0,0,1.477.836Q-34.555-1.664-34.555-4.312ZM-27.008.156A4.15,4.15,0,0,1-30.035-.984,4.054,4.054,0,0,1-31.2-4.023v-.219a5.106,5.106,0,0,1,.492-2.277,3.612,3.612,0,0,1,1.395-1.547,3.914,3.914,0,0,1,2.059-.543,3.508,3.508,0,0,1,2.73,1.094,4.444,4.444,0,0,1,1,3.1v.922h-5.383a2.1,2.1,0,0,0,.66,1.328,2,2,0,0,0,1.395.5,2.437,2.437,0,0,0,2.039-.945l1.109,1.242A3.389,3.389,0,0,1-25.086-.246,4.511,4.511,0,0,1-27.008.156Zm-.258-6.945a1.411,1.411,0,0,0-1.09.455,2.357,2.357,0,0,0-.535,1.3h3.141v-.181a1.681,1.681,0,0,0-.406-1.165A1.456,1.456,0,0,0-27.266-6.789Zm4.688,2.5a4.954,4.954,0,0,1,.926-3.133,3,3,0,0,1,2.5-1.187,2.631,2.631,0,0,1,2.164.953l.094-.8h2.047V-.281a3.613,3.613,0,0,1-.5,1.93A3.236,3.236,0,0,1-16.773,2.9a4.985,4.985,0,0,1-2.141.43,4.635,4.635,0,0,1-1.812-.371A3.217,3.217,0,0,1-22.062,2l1-1.375a2.645,2.645,0,0,0,2.047.945,1.936,1.936,0,0,0,1.4-.48,1.8,1.8,0,0,0,.5-1.363V-.727a2.612,2.612,0,0,1-2.055.883,2.992,2.992,0,0,1-2.465-1.191,4.953,4.953,0,0,1-.941-3.16Zm2.258.168a3.085,3.085,0,0,0,.461,1.8,1.466,1.466,0,0,0,1.266.653,1.568,1.568,0,0,0,1.477-.775V-6a1.564,1.564,0,0,0-1.461-.775,1.476,1.476,0,0,0-1.277.665A3.477,3.477,0,0,0-20.32-4.121ZM-8.055-.859A2.831,2.831,0,0,1-10.367.156a2.67,2.67,0,0,1-2.074-.781,3.335,3.335,0,0,1-.73-2.289V-8.453h2.258v5.467q0,1.322,1.2,1.322a1.63,1.63,0,0,0,1.578-.8V-8.453h2.266V0H-7.992ZM-.273.156A4.15,4.15,0,0,1-3.3-.984,4.054,4.054,0,0,1-4.469-4.023v-.219A5.106,5.106,0,0,1-3.977-6.52,3.612,3.612,0,0,1-2.582-8.066,3.914,3.914,0,0,1-.523-8.609a3.508,3.508,0,0,1,2.73,1.094,4.444,4.444,0,0,1,1,3.1v.922H-2.18a2.1,2.1,0,0,0,.66,1.328,2,2,0,0,0,1.395.5,2.437,2.437,0,0,0,2.039-.945L3.023-1.367A3.389,3.389,0,0,1,1.648-.246,4.511,4.511,0,0,1-.273.156ZM-.531-6.789a1.411,1.411,0,0,0-1.09.455,2.357,2.357,0,0,0-.535,1.3H.984v-.181A1.681,1.681,0,0,0,.578-6.377,1.456,1.456,0,0,0-.531-6.789Zm8.648,2.5A5.094,5.094,0,0,1,9-7.437,2.877,2.877,0,0,1,11.43-8.609a2.589,2.589,0,0,1,2.039.922V-12h2.266V0H13.7l-.109-.9A2.657,2.657,0,0,1,11.414.156,2.869,2.869,0,0,1,9.02-1.02,5.258,5.258,0,0,1,8.117-4.289Zm2.258.168A3.337,3.337,0,0,0,10.789-2.3a1.349,1.349,0,0,0,1.2.634,1.511,1.511,0,0,0,1.477-.884V-5.889a1.489,1.489,0,0,0-1.461-.884Q10.375-6.773,10.375-4.121Zm11,4.277A4.15,4.15,0,0,1,18.348-.984,4.054,4.054,0,0,1,17.18-4.023v-.219a5.106,5.106,0,0,1,.492-2.277,3.612,3.612,0,0,1,1.395-1.547,3.914,3.914,0,0,1,2.059-.543,3.508,3.508,0,0,1,2.73,1.094,4.444,4.444,0,0,1,1,3.1v.922H19.469a2.1,2.1,0,0,0,.66,1.328,2,2,0,0,0,1.395.5,2.437,2.437,0,0,0,2.039-.945l1.109,1.242A3.389,3.389,0,0,1,23.3-.246,4.511,4.511,0,0,1,21.375.156Zm-.258-6.945a1.411,1.411,0,0,0-1.09.455,2.357,2.357,0,0,0-.535,1.3h3.141v-.181a1.681,1.681,0,0,0-.406-1.165A1.456,1.456,0,0,0,21.117-6.789ZM35.016,0a2.507,2.507,0,0,1-.227-.758,2.732,2.732,0,0,1-2.133.914A3,3,0,0,1,30.6-.562a2.312,2.312,0,0,1-.816-1.812,2.389,2.389,0,0,1,1-2.062,4.915,4.915,0,0,1,2.879-.727H34.7v-.484a1.393,1.393,0,0,0-.3-.937,1.183,1.183,0,0,0-.949-.352,1.345,1.345,0,0,0-.895.273.929.929,0,0,0-.324.75H29.969a2.268,2.268,0,0,1,.453-1.359,3,3,0,0,1,1.281-.98,4.669,4.669,0,0,1,1.859-.355,3.689,3.689,0,0,1,2.48.785,2.747,2.747,0,0,1,.918,2.207v3.664A4.041,4.041,0,0,0,37.3-.133V0ZM33.148-1.57a1.945,1.945,0,0,0,.922-.223,1.462,1.462,0,0,0,.625-.6V-3.844h-.844q-1.7,0-1.8,1.172l-.008.133a.9.9,0,0,0,.3.7A1.153,1.153,0,0,0,33.148-1.57Zm8.594-1.187,1.57-5.7h2.359L42.82,0H40.664L37.813-8.453h2.359ZM49.047,0H46.781V-8.453h2.266Zm-2.4-10.641a1.112,1.112,0,0,1,.34-.836,1.277,1.277,0,0,1,.926-.328,1.28,1.28,0,0,1,.922.328,1.105,1.105,0,0,1,.344.836,1.108,1.108,0,0,1-.348.844,1.283,1.283,0,0,1-.918.328A1.283,1.283,0,0,1,47-9.8,1.108,1.108,0,0,1,46.648-10.641ZM50.555-4.3a5.013,5.013,0,0,1,.484-2.242A3.546,3.546,0,0,1,52.434-8.07a4.069,4.069,0,0,1,2.113-.539A3.849,3.849,0,0,1,57.34-7.562a4.2,4.2,0,0,1,1.207,2.844l.016.578A4.418,4.418,0,0,1,57.477-1.02,3.775,3.775,0,0,1,54.563.156a3.793,3.793,0,0,1-2.918-1.172A4.5,4.5,0,0,1,50.555-4.2Zm2.258.16A3.16,3.16,0,0,0,53.266-2.3a1.5,1.5,0,0,0,1.3.638,1.5,1.5,0,0,0,1.281-.63A3.457,3.457,0,0,0,56.3-4.309a3.128,3.128,0,0,0-.461-1.831,1.5,1.5,0,0,0-1.3-.649,1.474,1.474,0,0,0-1.281.646A3.516,3.516,0,0,0,52.813-4.144ZM54.992-12h2.461L55.289-9.578H53.453Zm7.039,3.547.07.977a2.951,2.951,0,0,1,2.43-1.133,2.453,2.453,0,0,1,2,.789A3.682,3.682,0,0,1,67.2-5.461V0H64.945V-5.406a1.465,1.465,0,0,0-.312-1.043,1.4,1.4,0,0,0-1.039-.324,1.553,1.553,0,0,0-1.43.813V0H59.906V-8.453Z" transform="translate(416.999 4183.888)" fill="#12263f"/>
    <path id="Path_832462" data-name="Path 832462" d="M-53.7-3.789A4.025,4.025,0,0,1-55.051-.9,4.76,4.76,0,0,1-58.273.156a4.28,4.28,0,0,1-3.441-1.473,6.038,6.038,0,0,1-1.254-4.043v-.7a6.819,6.819,0,0,1,.578-2.891,4.332,4.332,0,0,1,1.652-1.918,4.629,4.629,0,0,1,2.5-.668,4.637,4.637,0,0,1,3.172,1.055A4.326,4.326,0,0,1-53.68-7.516h-2.344a2.376,2.376,0,0,0-.613-1.6,2.271,2.271,0,0,0-1.605-.5A1.991,1.991,0,0,0-60-8.77a4.707,4.707,0,0,0-.6,2.605V-5.3a5.038,5.038,0,0,0,.559,2.7,1.954,1.954,0,0,0,1.762.852,2.314,2.314,0,0,0,1.621-.5,2.241,2.241,0,0,0,.613-1.535Zm1.039-.516a5.013,5.013,0,0,1,.484-2.242A3.546,3.546,0,0,1-50.777-8.07a4.069,4.069,0,0,1,2.113-.539,3.849,3.849,0,0,1,2.793,1.047,4.2,4.2,0,0,1,1.207,2.844l.016.578A4.418,4.418,0,0,1-45.734-1.02,3.775,3.775,0,0,1-48.648.156a3.793,3.793,0,0,1-2.918-1.172A4.5,4.5,0,0,1-52.656-4.2Zm2.258.16A3.16,3.16,0,0,0-49.945-2.3a1.5,1.5,0,0,0,1.3.638,1.5,1.5,0,0,0,1.281-.63,3.457,3.457,0,0,0,.461-2.015,3.128,3.128,0,0,0-.461-1.831,1.5,1.5,0,0,0-1.3-.649,1.474,1.474,0,0,0-1.281.646A3.516,3.516,0,0,0-50.4-4.144Zm9.219-4.309.07.977a2.951,2.951,0,0,1,2.43-1.133,2.453,2.453,0,0,1,2,.789,3.682,3.682,0,0,1,.672,2.359V0h-2.258V-5.406a1.465,1.465,0,0,0-.312-1.043,1.4,1.4,0,0,0-1.039-.324,1.553,1.553,0,0,0-1.43.813V0H-43.3V-8.453Zm10.4,6.789a1.481,1.481,0,0,0,1.016-.344,1.2,1.2,0,0,0,.406-.914h2.117a2.9,2.9,0,0,1-.469,1.574A3.093,3.093,0,0,1-28.973-.238a3.949,3.949,0,0,1-1.77.395A3.67,3.67,0,0,1-33.6-1,4.56,4.56,0,0,1-34.648-4.18v-.148a4.508,4.508,0,0,1,1.039-3.117,3.627,3.627,0,0,1,2.852-1.164,3.555,3.555,0,0,1,2.543.9,3.2,3.2,0,0,1,.973,2.4h-2.117a1.551,1.551,0,0,0-.406-1.072A1.354,1.354,0,0,0-30.8-6.789a1.36,1.36,0,0,0-1.191.575,3.333,3.333,0,0,0-.4,1.866v.235a3.375,3.375,0,0,0,.4,1.878A1.377,1.377,0,0,0-30.781-1.664ZM-23.57,0h-2.266V-8.453h2.266Zm-2.4-10.641a1.112,1.112,0,0,1,.34-.836A1.277,1.277,0,0,1-24.7-11.8a1.28,1.28,0,0,1,.922.328,1.105,1.105,0,0,1,.344.836,1.108,1.108,0,0,1-.348.844,1.283,1.283,0,0,1-.918.328,1.283,1.283,0,0,1-.918-.328A1.108,1.108,0,0,1-25.969-10.641ZM-17.82.156A4.15,4.15,0,0,1-20.848-.984a4.054,4.054,0,0,1-1.168-3.039v-.219a5.106,5.106,0,0,1,.492-2.277,3.612,3.612,0,0,1,1.395-1.547,3.914,3.914,0,0,1,2.059-.543,3.508,3.508,0,0,1,2.73,1.094,4.444,4.444,0,0,1,1,3.1v.922h-5.383a2.1,2.1,0,0,0,.66,1.328,2,2,0,0,0,1.395.5,2.437,2.437,0,0,0,2.039-.945l1.109,1.242A3.389,3.389,0,0,1-15.9-.246,4.511,4.511,0,0,1-17.82.156Zm-.258-6.945a1.411,1.411,0,0,0-1.09.455,2.357,2.357,0,0,0-.535,1.3h3.141v-.181a1.681,1.681,0,0,0-.406-1.165A1.456,1.456,0,0,0-18.078-6.789Zm9.766.453A6.134,6.134,0,0,0-9.125-6.4a1.654,1.654,0,0,0-1.68.867V0h-2.258V-8.453h2.133l.063,1.008A2.092,2.092,0,0,1-8.984-8.609a2.366,2.366,0,0,1,.7.1Zm4.18-4.2v2.078h1.445V-6.8H-4.133v4.219a1.007,1.007,0,0,0,.18.672.9.9,0,0,0,.688.2A3.6,3.6,0,0,0-2.6-1.758V-.047a4.648,4.648,0,0,1-1.367.2,2.156,2.156,0,0,1-2.422-2.4V-6.8H-7.625V-8.453h1.234v-2.078ZM-2.016-4.3a5.013,5.013,0,0,1,.484-2.242A3.546,3.546,0,0,1-.137-8.07a4.069,4.069,0,0,1,2.113-.539A3.849,3.849,0,0,1,4.77-7.562,4.2,4.2,0,0,1,5.977-4.719l.016.578A4.418,4.418,0,0,1,4.906-1.02,3.775,3.775,0,0,1,1.992.156,3.793,3.793,0,0,1-.926-1.016,4.5,4.5,0,0,1-2.016-4.2Zm2.258.16A3.16,3.16,0,0,0,.7-2.3a1.5,1.5,0,0,0,1.3.638,1.5,1.5,0,0,0,1.281-.63,3.457,3.457,0,0,0,.461-2.015A3.128,3.128,0,0,0,3.273-6.14a1.5,1.5,0,0,0-1.3-.649A1.474,1.474,0,0,0,.7-6.144,3.516,3.516,0,0,0,.242-4.144Zm10.773-.145A5.094,5.094,0,0,1,11.9-7.437a2.877,2.877,0,0,1,2.426-1.172,2.589,2.589,0,0,1,2.039.922V-12h2.266V0H16.594l-.109-.9A2.657,2.657,0,0,1,14.313.156,2.869,2.869,0,0,1,11.918-1.02,5.258,5.258,0,0,1,11.016-4.289Zm2.258.168A3.337,3.337,0,0,0,13.688-2.3a1.349,1.349,0,0,0,1.2.634,1.511,1.511,0,0,0,1.477-.884V-5.889a1.489,1.489,0,0,0-1.461-.884Q13.273-6.773,13.273-4.121Zm11,4.277A4.15,4.15,0,0,1,21.246-.984a4.054,4.054,0,0,1-1.168-3.039v-.219A5.106,5.106,0,0,1,20.57-6.52a3.612,3.612,0,0,1,1.395-1.547,3.914,3.914,0,0,1,2.059-.543,3.508,3.508,0,0,1,2.73,1.094,4.444,4.444,0,0,1,1,3.1v.922H22.367a2.1,2.1,0,0,0,.66,1.328,2,2,0,0,0,1.395.5,2.437,2.437,0,0,0,2.039-.945L27.57-1.367A3.389,3.389,0,0,1,26.2-.246,4.511,4.511,0,0,1,24.273.156Zm-.258-6.945a1.411,1.411,0,0,0-1.09.455,2.357,2.357,0,0,0-.535,1.3h3.141v-.181a1.681,1.681,0,0,0-.406-1.165A1.456,1.456,0,0,0,24.016-6.789Zm13.75.453a6.134,6.134,0,0,0-.812-.062,1.654,1.654,0,0,0-1.68.867V0H33.016V-8.453h2.133l.063,1.008a2.092,2.092,0,0,1,1.883-1.164,2.366,2.366,0,0,1,.7.1ZM38.219-4.3A5.013,5.013,0,0,1,38.7-6.547,3.546,3.546,0,0,1,40.1-8.07a4.069,4.069,0,0,1,2.113-.539A3.849,3.849,0,0,1,45-7.562a4.2,4.2,0,0,1,1.207,2.844l.016.578A4.418,4.418,0,0,1,45.141-1.02,3.775,3.775,0,0,1,42.227.156a3.793,3.793,0,0,1-2.918-1.172A4.5,4.5,0,0,1,38.219-4.2Zm2.258.16A3.16,3.16,0,0,0,40.93-2.3a1.5,1.5,0,0,0,1.3.638,1.5,1.5,0,0,0,1.281-.63,3.457,3.457,0,0,0,.461-2.015,3.128,3.128,0,0,0-.461-1.831,1.5,1.5,0,0,0-1.3-.649,1.474,1.474,0,0,0-1.281.646A3.516,3.516,0,0,0,40.477-4.144Zm10.656,2.48a1.481,1.481,0,0,0,1.016-.344,1.2,1.2,0,0,0,.406-.914h2.117A2.9,2.9,0,0,1,54.2-1.348,3.093,3.093,0,0,1,52.941-.238a3.949,3.949,0,0,1-1.77.395A3.67,3.67,0,0,1,48.313-1,4.56,4.56,0,0,1,47.266-4.18v-.148A4.508,4.508,0,0,1,48.3-7.445a3.627,3.627,0,0,1,2.852-1.164,3.555,3.555,0,0,1,2.543.9,3.2,3.2,0,0,1,.973,2.4H52.555a1.551,1.551,0,0,0-.406-1.072,1.354,1.354,0,0,0-1.031-.412,1.36,1.36,0,0,0-1.191.575,3.333,3.333,0,0,0-.4,1.866v.235a3.375,3.375,0,0,0,.4,1.878A1.377,1.377,0,0,0,51.133-1.664Zm7.9-1.727-.812.813V0H55.961V-12h2.258v6.648l.438-.562L60.82-8.453h2.711L60.477-4.93,63.8,0H61.2Z" transform="translate(416.999 4281.922)" fill="#12263f"/>
    <path id="Path_832465" data-name="Path 832465" d="M-31.895-2.344H-36L-36.785,0h-2.492l4.234-11.375h2.172L-28.613,0h-2.492Zm-3.477-1.9h2.844L-33.957-8.5Zm12.25,1.906a.727.727,0,0,0-.41-.652,4.659,4.659,0,0,0-1.316-.426q-3.016-.633-3.016-2.562a2.323,2.323,0,0,1,.934-1.879,3.766,3.766,0,0,1,2.441-.754,4.053,4.053,0,0,1,2.574.758,2.388,2.388,0,0,1,.965,1.969h-2.258a1.092,1.092,0,0,0-.312-.8A1.322,1.322,0,0,0-24.5-7a1.351,1.351,0,0,0-.883.258.814.814,0,0,0-.312.656.7.7,0,0,0,.355.605,3.657,3.657,0,0,0,1.2.4,9.8,9.8,0,0,1,1.422.379A2.336,2.336,0,0,1-20.926-2.43a2.2,2.2,0,0,1-.992,1.871A4.28,4.28,0,0,1-24.48.156a4.47,4.47,0,0,1-1.887-.379A3.166,3.166,0,0,1-27.66-1.262a2.414,2.414,0,0,1-.469-1.426h2.141a1.179,1.179,0,0,0,.445.922,1.766,1.766,0,0,0,1.109.32,1.635,1.635,0,0,0,.98-.246A.766.766,0,0,0-23.121-2.336Zm11.258-1.812A5.07,5.07,0,0,1-12.75-1.02,2.843,2.843,0,0,1-15.145.156a2.633,2.633,0,0,1-2.07-.891V3.25h-2.258v-11.7h2.094l.078.828a2.654,2.654,0,0,1,2.141-.984,2.862,2.862,0,0,1,2.43,1.156,5.207,5.207,0,0,1,.867,3.188Zm-2.258-.164a3.327,3.327,0,0,0-.418-1.82,1.361,1.361,0,0,0-1.215-.641,1.478,1.478,0,0,0-1.461.813V-2.5a1.5,1.5,0,0,0,1.477.836Q-14.121-1.664-14.121-4.312ZM-8.082,0h-2.266V-8.453h2.266Zm-2.4-10.641a1.112,1.112,0,0,1,.34-.836,1.277,1.277,0,0,1,.926-.328,1.28,1.28,0,0,1,.922.328,1.105,1.105,0,0,1,.344.836A1.108,1.108,0,0,1-8.3-9.8a1.283,1.283,0,0,1-.918.328,1.283,1.283,0,0,1-.918-.328A1.108,1.108,0,0,1-10.48-10.641Zm9.008,4.3A6.134,6.134,0,0,0-2.285-6.4a1.654,1.654,0,0,0-1.68.867V0H-6.223V-8.453H-4.09l.063,1.008A2.092,2.092,0,0,1-2.145-8.609a2.366,2.366,0,0,1,.7.1ZM4.277,0a2.507,2.507,0,0,1-.227-.758A2.732,2.732,0,0,1,1.918.156,3,3,0,0,1-.141-.562,2.312,2.312,0,0,1-.957-2.375a2.389,2.389,0,0,1,1-2.062,4.915,4.915,0,0,1,2.879-.727H3.957v-.484a1.393,1.393,0,0,0-.3-.937,1.183,1.183,0,0,0-.949-.352,1.345,1.345,0,0,0-.895.273.929.929,0,0,0-.324.75H-.77A2.268,2.268,0,0,1-.316-7.273a3,3,0,0,1,1.281-.98,4.669,4.669,0,0,1,1.859-.355,3.689,3.689,0,0,1,2.48.785,2.747,2.747,0,0,1,.918,2.207v3.664a4.041,4.041,0,0,0,.336,1.82V0ZM2.41-1.57a1.945,1.945,0,0,0,.922-.223,1.462,1.462,0,0,0,.625-.6V-3.844H3.113q-1.7,0-1.8,1.172L1.3-2.539a.9.9,0,0,0,.3.7A1.153,1.153,0,0,0,2.41-1.57Zm5.2-2.719a5.094,5.094,0,0,1,.887-3.148,2.877,2.877,0,0,1,2.426-1.172,2.589,2.589,0,0,1,2.039.922V-12h2.266V0H13.184l-.109-.9A2.657,2.657,0,0,1,10.9.156,2.869,2.869,0,0,1,8.508-1.02,5.258,5.258,0,0,1,7.605-4.289Zm2.258.168A3.337,3.337,0,0,0,10.277-2.3a1.349,1.349,0,0,0,1.2.634,1.511,1.511,0,0,0,1.477-.884V-5.889A1.489,1.489,0,0,0,11.5-6.773Q9.863-6.773,9.863-4.121ZM16.621-4.3a5.013,5.013,0,0,1,.484-2.242A3.546,3.546,0,0,1,18.5-8.07a4.069,4.069,0,0,1,2.113-.539,3.849,3.849,0,0,1,2.793,1.047,4.2,4.2,0,0,1,1.207,2.844l.016.578A4.418,4.418,0,0,1,23.543-1.02,3.775,3.775,0,0,1,20.629.156a3.793,3.793,0,0,1-2.918-1.172A4.5,4.5,0,0,1,16.621-4.2Zm2.258.16A3.16,3.16,0,0,0,19.332-2.3a1.5,1.5,0,0,0,1.3.638,1.5,1.5,0,0,0,1.281-.63,3.457,3.457,0,0,0,.461-2.015A3.128,3.128,0,0,0,21.91-6.14a1.5,1.5,0,0,0-1.3-.649,1.474,1.474,0,0,0-1.281.646A3.516,3.516,0,0,0,18.879-4.144ZM30.77-6.336a6.134,6.134,0,0,0-.812-.062,1.654,1.654,0,0,0-1.68.867V0H26.02V-8.453h2.133l.063,1.008A2.092,2.092,0,0,1,30.1-8.609a2.366,2.366,0,0,1,.7.1ZM36.52,0a2.507,2.507,0,0,1-.227-.758A2.732,2.732,0,0,1,34.16.156,3,3,0,0,1,32.1-.562a2.312,2.312,0,0,1-.816-1.812,2.389,2.389,0,0,1,1-2.062,4.915,4.915,0,0,1,2.879-.727H36.2v-.484a1.393,1.393,0,0,0-.3-.937,1.183,1.183,0,0,0-.949-.352,1.345,1.345,0,0,0-.895.273.929.929,0,0,0-.324.75H31.473a2.268,2.268,0,0,1,.453-1.359,3,3,0,0,1,1.281-.98,4.669,4.669,0,0,1,1.859-.355,3.689,3.689,0,0,1,2.48.785,2.747,2.747,0,0,1,.918,2.207v3.664A4.041,4.041,0,0,0,38.8-.133V0ZM34.652-1.57a1.945,1.945,0,0,0,.922-.223,1.462,1.462,0,0,0,.625-.6V-3.844h-.844q-1.7,0-1.8,1.172l-.008.133a.9.9,0,0,0,.3.7A1.153,1.153,0,0,0,34.652-1.57Z" transform="translate(416.999 4374.541)" fill="#12263f"/>
    <path id="Path_832469" data-name="Path 832469" d="M-39.227-3.789A4.025,4.025,0,0,1-40.582-.9,4.76,4.76,0,0,1-43.8.156a4.28,4.28,0,0,1-3.441-1.473A6.038,6.038,0,0,1-48.5-5.359v-.7a6.819,6.819,0,0,1,.578-2.891,4.332,4.332,0,0,1,1.652-1.918,4.629,4.629,0,0,1,2.5-.668A4.637,4.637,0,0,1-40.6-10.477a4.326,4.326,0,0,1,1.391,2.961h-2.344a2.376,2.376,0,0,0-.613-1.6,2.271,2.271,0,0,0-1.605-.5,1.991,1.991,0,0,0-1.754.84,4.707,4.707,0,0,0-.6,2.605V-5.3a5.038,5.038,0,0,0,.559,2.7,1.954,1.954,0,0,0,1.762.852,2.314,2.314,0,0,0,1.621-.5,2.241,2.241,0,0,0,.613-1.535Zm1.039-.516A5.013,5.013,0,0,1-37.7-6.547,3.546,3.546,0,0,1-36.309-8.07,4.069,4.069,0,0,1-34.2-8.609,3.849,3.849,0,0,1-31.4-7.562,4.2,4.2,0,0,1-30.2-4.719l.016.578A4.418,4.418,0,0,1-31.266-1.02,3.775,3.775,0,0,1-34.18.156,3.793,3.793,0,0,1-37.1-1.016,4.5,4.5,0,0,1-38.187-4.2Zm2.258.16A3.16,3.16,0,0,0-35.477-2.3a1.5,1.5,0,0,0,1.3.638,1.5,1.5,0,0,0,1.281-.63,3.457,3.457,0,0,0,.461-2.015A3.128,3.128,0,0,0-32.9-6.14a1.5,1.5,0,0,0-1.3-.649,1.474,1.474,0,0,0-1.281.646A3.516,3.516,0,0,0-35.93-4.144Zm9.219-4.309.07.977a2.951,2.951,0,0,1,2.43-1.133,2.453,2.453,0,0,1,2,.789,3.682,3.682,0,0,1,.672,2.359V0H-23.8V-5.406a1.465,1.465,0,0,0-.312-1.043,1.4,1.4,0,0,0-1.039-.324,1.553,1.553,0,0,0-1.43.813V0h-2.258V-8.453Zm10.047,5.7,1.57-5.7h2.359L-15.586,0h-2.156l-2.852-8.453h2.359ZM-7.953.156A4.15,4.15,0,0,1-10.98-.984a4.054,4.054,0,0,1-1.168-3.039v-.219a5.106,5.106,0,0,1,.492-2.277,3.612,3.612,0,0,1,1.395-1.547A3.914,3.914,0,0,1-8.2-8.609a3.508,3.508,0,0,1,2.73,1.094,4.444,4.444,0,0,1,1,3.1v.922H-9.859A2.1,2.1,0,0,0-9.2-2.164a2,2,0,0,0,1.395.5,2.437,2.437,0,0,0,2.039-.945l1.109,1.242A3.389,3.389,0,0,1-6.031-.246,4.511,4.511,0,0,1-7.953.156Zm-.258-6.945a1.411,1.411,0,0,0-1.09.455,2.357,2.357,0,0,0-.535,1.3H-6.7v-.181A1.681,1.681,0,0,0-7.1-6.377,1.456,1.456,0,0,0-8.211-6.789Zm9.766.453A6.134,6.134,0,0,0,.742-6.4a1.654,1.654,0,0,0-1.68.867V0H-3.2V-8.453h2.133L-1-7.445A2.092,2.092,0,0,1,.883-8.609a2.366,2.366,0,0,1,.7.1Zm5.664,4a.727.727,0,0,0-.41-.652,4.659,4.659,0,0,0-1.316-.426Q2.477-4.047,2.477-5.977A2.323,2.323,0,0,1,3.41-7.855a3.766,3.766,0,0,1,2.441-.754,4.053,4.053,0,0,1,2.574.758,2.388,2.388,0,0,1,.965,1.969H7.133a1.092,1.092,0,0,0-.312-.8A1.322,1.322,0,0,0,5.844-7a1.351,1.351,0,0,0-.883.258.814.814,0,0,0-.312.656A.7.7,0,0,0,5-5.48a3.657,3.657,0,0,0,1.2.4A9.8,9.8,0,0,1,7.625-4.7,2.336,2.336,0,0,1,9.414-2.43,2.2,2.2,0,0,1,8.422-.559,4.28,4.28,0,0,1,5.859.156,4.47,4.47,0,0,1,3.973-.223,3.166,3.166,0,0,1,2.68-1.262a2.414,2.414,0,0,1-.469-1.426H4.352a1.179,1.179,0,0,0,.445.922,1.766,1.766,0,0,0,1.109.32,1.635,1.635,0,0,0,.98-.246A.766.766,0,0,0,7.219-2.336ZM15.766,0a2.507,2.507,0,0,1-.227-.758,2.732,2.732,0,0,1-2.133.914,3,3,0,0,1-2.059-.719,2.312,2.312,0,0,1-.816-1.812,2.389,2.389,0,0,1,1-2.062,4.915,4.915,0,0,1,2.879-.727h1.039v-.484a1.393,1.393,0,0,0-.3-.937,1.183,1.183,0,0,0-.949-.352,1.345,1.345,0,0,0-.895.273.929.929,0,0,0-.324.75H10.719a2.268,2.268,0,0,1,.453-1.359,3,3,0,0,1,1.281-.98,4.669,4.669,0,0,1,1.859-.355,3.689,3.689,0,0,1,2.48.785,2.747,2.747,0,0,1,.918,2.207v3.664a4.041,4.041,0,0,0,.336,1.82V0ZM13.9-1.57a1.945,1.945,0,0,0,.922-.223,1.462,1.462,0,0,0,.625-.6V-3.844H14.6q-1.7,0-1.8,1.172l-.008.133a.9.9,0,0,0,.3.7A1.153,1.153,0,0,0,13.9-1.57Zm9.063-.094a1.481,1.481,0,0,0,1.016-.344,1.2,1.2,0,0,0,.406-.914H26.5a2.9,2.9,0,0,1-.469,1.574A3.093,3.093,0,0,1,24.77-.238,3.949,3.949,0,0,1,23,.156,3.67,3.67,0,0,1,20.141-1,4.56,4.56,0,0,1,19.094-4.18v-.148a4.508,4.508,0,0,1,1.039-3.117,3.627,3.627,0,0,1,2.852-1.164,3.555,3.555,0,0,1,2.543.9A3.2,3.2,0,0,1,26.5-5.3H24.383a1.551,1.551,0,0,0-.406-1.072,1.354,1.354,0,0,0-1.031-.412,1.36,1.36,0,0,0-1.191.575,3.333,3.333,0,0,0-.4,1.866v.235a3.375,3.375,0,0,0,.4,1.878A1.377,1.377,0,0,0,22.961-1.664ZM30.172,0H27.906V-8.453h2.266Zm-2.4-10.641a1.112,1.112,0,0,1,.34-.836,1.277,1.277,0,0,1,.926-.328,1.28,1.28,0,0,1,.922.328,1.105,1.105,0,0,1,.344.836,1.108,1.108,0,0,1-.348.844,1.283,1.283,0,0,1-.918.328,1.283,1.283,0,0,1-.918-.328A1.108,1.108,0,0,1,27.773-10.641ZM31.68-4.3a5.013,5.013,0,0,1,.484-2.242A3.546,3.546,0,0,1,33.559-8.07a4.069,4.069,0,0,1,2.113-.539,3.849,3.849,0,0,1,2.793,1.047,4.2,4.2,0,0,1,1.207,2.844l.016.578A4.418,4.418,0,0,1,38.6-1.02,3.775,3.775,0,0,1,35.688.156,3.793,3.793,0,0,1,32.77-1.016,4.5,4.5,0,0,1,31.68-4.2Zm2.258.16A3.16,3.16,0,0,0,34.391-2.3a1.5,1.5,0,0,0,1.3.638,1.5,1.5,0,0,0,1.281-.63,3.457,3.457,0,0,0,.461-2.015,3.128,3.128,0,0,0-.461-1.831,1.5,1.5,0,0,0-1.3-.649,1.474,1.474,0,0,0-1.281.646A3.516,3.516,0,0,0,33.938-4.144ZM36.117-12h2.461L36.414-9.578H34.578Zm7.039,3.547.07.977a2.951,2.951,0,0,1,2.43-1.133,2.453,2.453,0,0,1,2,.789,3.682,3.682,0,0,1,.672,2.359V0H46.07V-5.406a1.465,1.465,0,0,0-.312-1.043,1.4,1.4,0,0,0-1.039-.324,1.553,1.553,0,0,0-1.43.813V0H41.031V-8.453Z" transform="translate(416.999 4467.16)" fill="#12263f"/>
    <path id="Path_832472" data-name="Path 832472" d="M-34.969,0V-11.375h3.984a5.232,5.232,0,0,1,3.141.793,2.712,2.712,0,0,1,1.07,2.324,2.57,2.57,0,0,1-.43,1.473,2.482,2.482,0,0,1-1.2.934,2.4,2.4,0,0,1,1.379.883,2.61,2.61,0,0,1,.5,1.625A3,3,0,0,1-27.562-.859,4.713,4.713,0,0,1-30.547,0Zm2.344-4.953v3.07h2.008a1.938,1.938,0,0,0,1.293-.395,1.353,1.353,0,0,0,.465-1.09,1.428,1.428,0,0,0-1.617-1.586Zm0-1.656h1.734q1.773-.031,1.773-1.414a1.307,1.307,0,0,0-.449-1.113,2.363,2.363,0,0,0-1.418-.34h-1.641ZM-22.523,0h-2.266V-8.453h2.266Zm-2.4-10.641a1.112,1.112,0,0,1,.34-.836,1.277,1.277,0,0,1,.926-.328,1.28,1.28,0,0,1,.922.328,1.105,1.105,0,0,1,.344.836,1.108,1.108,0,0,1-.348.844,1.283,1.283,0,0,1-.918.328,1.283,1.283,0,0,1-.918-.328A1.108,1.108,0,0,1-24.922-10.641Zm11.875,6.492A5.119,5.119,0,0,1-13.914-.98,2.872,2.872,0,0,1-16.336.156,2.639,2.639,0,0,1-18.531-.9l-.1.9h-2.031V-12h2.258v4.3a2.571,2.571,0,0,1,2.055-.914,2.9,2.9,0,0,1,2.426,1.137,5.126,5.126,0,0,1,.879,3.2ZM-15.3-4.312a3.363,3.363,0,0,0-.406-1.871,1.374,1.374,0,0,0-1.211-.59,1.489,1.489,0,0,0-1.484.883v3.336a1.509,1.509,0,0,0,1.5.891,1.394,1.394,0,0,0,1.438-1.078A5.562,5.562,0,0,0-15.3-4.312ZM-9.273,0h-2.266V-12h2.266Zm4.242,0H-7.3V-8.453h2.266Zm-2.4-10.641a1.112,1.112,0,0,1,.34-.836,1.277,1.277,0,0,1,.926-.328,1.28,1.28,0,0,1,.922.328,1.105,1.105,0,0,1,.344.836,1.108,1.108,0,0,1-.348.844,1.283,1.283,0,0,1-.918.328A1.283,1.283,0,0,1-7.082-9.8,1.108,1.108,0,0,1-7.43-10.641ZM-3.523-4.3a5.013,5.013,0,0,1,.484-2.242A3.546,3.546,0,0,1-1.645-8.07,4.069,4.069,0,0,1,.469-8.609,3.849,3.849,0,0,1,3.262-7.562,4.2,4.2,0,0,1,4.469-4.719l.016.578A4.418,4.418,0,0,1,3.4-1.02,3.775,3.775,0,0,1,.484.156,3.793,3.793,0,0,1-2.434-1.016,4.5,4.5,0,0,1-3.523-4.2Zm2.258.16A3.16,3.16,0,0,0-.812-2.3a1.5,1.5,0,0,0,1.3.638,1.5,1.5,0,0,0,1.281-.63,3.457,3.457,0,0,0,.461-2.015A3.128,3.128,0,0,0,1.766-6.14a1.5,1.5,0,0,0-1.3-.649,1.474,1.474,0,0,0-1.281.646A3.516,3.516,0,0,0-1.266-4.144Zm9.844-6.387v2.078h1.445V-6.8H8.578v4.219a1.007,1.007,0,0,0,.18.672.9.9,0,0,0,.688.2,3.6,3.6,0,0,0,.664-.055V-.047a4.648,4.648,0,0,1-1.367.2,2.156,2.156,0,0,1-2.422-2.4V-6.8H5.086V-8.453H6.32v-2.078ZM15.172.156A4.15,4.15,0,0,1,12.145-.984a4.054,4.054,0,0,1-1.168-3.039v-.219a5.106,5.106,0,0,1,.492-2.277,3.612,3.612,0,0,1,1.395-1.547,3.914,3.914,0,0,1,2.059-.543,3.508,3.508,0,0,1,2.73,1.094,4.444,4.444,0,0,1,1,3.1v.922H13.266a2.1,2.1,0,0,0,.66,1.328,2,2,0,0,0,1.395.5,2.437,2.437,0,0,0,2.039-.945l1.109,1.242A3.389,3.389,0,0,1,17.094-.246,4.511,4.511,0,0,1,15.172.156Zm-.258-6.945a1.411,1.411,0,0,0-1.09.455,2.357,2.357,0,0,0-.535,1.3H16.43v-.181a1.681,1.681,0,0,0-.406-1.165A1.456,1.456,0,0,0,14.914-6.789Zm8.531,5.125a1.481,1.481,0,0,0,1.016-.344,1.2,1.2,0,0,0,.406-.914h2.117a2.9,2.9,0,0,1-.469,1.574A3.093,3.093,0,0,1,25.254-.238a3.949,3.949,0,0,1-1.77.395A3.67,3.67,0,0,1,20.625-1,4.56,4.56,0,0,1,19.578-4.18v-.148a4.508,4.508,0,0,1,1.039-3.117,3.627,3.627,0,0,1,2.852-1.164,3.555,3.555,0,0,1,2.543.9,3.2,3.2,0,0,1,.973,2.4H24.867a1.551,1.551,0,0,0-.406-1.072,1.354,1.354,0,0,0-1.031-.412,1.36,1.36,0,0,0-1.191.575,3.333,3.333,0,0,0-.4,1.866v.235a3.375,3.375,0,0,0,.4,1.878A1.377,1.377,0,0,0,23.445-1.664ZM33.172,0a2.507,2.507,0,0,1-.227-.758,2.732,2.732,0,0,1-2.133.914,3,3,0,0,1-2.059-.719,2.312,2.312,0,0,1-.816-1.812,2.389,2.389,0,0,1,1-2.062,4.915,4.915,0,0,1,2.879-.727h1.039v-.484a1.393,1.393,0,0,0-.3-.937,1.183,1.183,0,0,0-.949-.352,1.345,1.345,0,0,0-.895.273.929.929,0,0,0-.324.75H28.125a2.268,2.268,0,0,1,.453-1.359,3,3,0,0,1,1.281-.98,4.669,4.669,0,0,1,1.859-.355,3.689,3.689,0,0,1,2.48.785,2.747,2.747,0,0,1,.918,2.207v3.664a4.041,4.041,0,0,0,.336,1.82V0ZM31.3-1.57a1.945,1.945,0,0,0,.922-.223,1.462,1.462,0,0,0,.625-.6V-3.844h-.844q-1.7,0-1.8,1.172l-.008.133a.9.9,0,0,0,.3.7A1.153,1.153,0,0,0,31.3-1.57Z" transform="translate(416.999 4565.194)" fill="#12263f"/>
    <path id="Path_832476" data-name="Path 832476" d="M-57.629-2.82l2.578-8.555h2.609L-56.4,0h-2.445l-3.945-11.375h2.6ZM-49.137,0H-51.4V-8.453h2.266Zm-2.4-10.641a1.112,1.112,0,0,1,.34-.836,1.277,1.277,0,0,1,.926-.328,1.28,1.28,0,0,1,.922.328,1.105,1.105,0,0,1,.344.836,1.108,1.108,0,0,1-.348.844,1.283,1.283,0,0,1-.918.328,1.283,1.283,0,0,1-.918-.328A1.108,1.108,0,0,1-51.535-10.641Zm8.148,10.8A4.15,4.15,0,0,1-46.414-.984a4.054,4.054,0,0,1-1.168-3.039v-.219A5.106,5.106,0,0,1-47.09-6.52,3.612,3.612,0,0,1-45.7-8.066a3.914,3.914,0,0,1,2.059-.543,3.508,3.508,0,0,1,2.73,1.094,4.444,4.444,0,0,1,1,3.1v.922h-5.383a2.1,2.1,0,0,0,.66,1.328,2,2,0,0,0,1.395.5A2.437,2.437,0,0,0-41.2-2.609l1.109,1.242A3.389,3.389,0,0,1-41.465-.246,4.511,4.511,0,0,1-43.387.156Zm-.258-6.945a1.411,1.411,0,0,0-1.09.455,2.357,2.357,0,0,0-.535,1.3h3.141v-.181a1.681,1.681,0,0,0-.406-1.165A1.456,1.456,0,0,0-43.645-6.789Zm7.094-1.664.07.977a2.951,2.951,0,0,1,2.43-1.133,2.453,2.453,0,0,1,2,.789,3.682,3.682,0,0,1,.672,2.359V0h-2.258V-5.406a1.465,1.465,0,0,0-.312-1.043,1.4,1.4,0,0,0-1.039-.324,1.553,1.553,0,0,0-1.43.813V0h-2.258V-8.453Zm9.586-2.078v2.078h1.445V-6.8h-1.445v4.219a1.007,1.007,0,0,0,.18.672.9.9,0,0,0,.688.2,3.6,3.6,0,0,0,.664-.055V-.047a4.648,4.648,0,0,1-1.367.2,2.156,2.156,0,0,1-2.422-2.4V-6.8h-1.234V-8.453h1.234v-2.078ZM-24.848-4.3a5.013,5.013,0,0,1,.484-2.242A3.546,3.546,0,0,1-22.969-8.07a4.069,4.069,0,0,1,2.113-.539,3.849,3.849,0,0,1,2.793,1.047,4.2,4.2,0,0,1,1.207,2.844l.016.578A4.418,4.418,0,0,1-17.926-1.02,3.775,3.775,0,0,1-20.84.156a3.793,3.793,0,0,1-2.918-1.172A4.5,4.5,0,0,1-24.848-4.2Zm2.258.16A3.16,3.16,0,0,0-22.137-2.3a1.5,1.5,0,0,0,1.3.638,1.5,1.5,0,0,0,1.281-.63A3.457,3.457,0,0,0-19.1-4.309a3.128,3.128,0,0,0-.461-1.831,1.5,1.5,0,0,0-1.3-.649,1.474,1.474,0,0,0-1.281.646A3.516,3.516,0,0,0-22.59-4.144ZM-7.574.156A4.15,4.15,0,0,1-10.6-.984,4.054,4.054,0,0,1-11.77-4.023v-.219a5.106,5.106,0,0,1,.492-2.277A3.612,3.612,0,0,1-9.883-8.066a3.914,3.914,0,0,1,2.059-.543,3.508,3.508,0,0,1,2.73,1.094,4.444,4.444,0,0,1,1,3.1v.922H-9.48a2.1,2.1,0,0,0,.66,1.328,2,2,0,0,0,1.395.5,2.437,2.437,0,0,0,2.039-.945l1.109,1.242A3.389,3.389,0,0,1-5.652-.246,4.511,4.511,0,0,1-7.574.156Zm-.258-6.945a1.411,1.411,0,0,0-1.09.455,2.357,2.357,0,0,0-.535,1.3h3.141v-.181a1.681,1.681,0,0,0-.406-1.165A1.456,1.456,0,0,0-7.832-6.789ZM-.738-8.453l.07.977a2.951,2.951,0,0,1,2.43-1.133,2.453,2.453,0,0,1,2,.789,3.682,3.682,0,0,1,.672,2.359V0H2.176V-5.406a1.465,1.465,0,0,0-.312-1.043A1.4,1.4,0,0,0,.824-6.773a1.553,1.553,0,0,0-1.43.813V0H-2.863V-8.453ZM15.027,0A2.507,2.507,0,0,1,14.8-.758a2.732,2.732,0,0,1-2.133.914,3,3,0,0,1-2.059-.719,2.312,2.312,0,0,1-.816-1.812,2.389,2.389,0,0,1,1-2.062,4.915,4.915,0,0,1,2.879-.727h1.039v-.484a1.393,1.393,0,0,0-.3-.937,1.183,1.183,0,0,0-.949-.352,1.345,1.345,0,0,0-.895.273.929.929,0,0,0-.324.75H9.98a2.268,2.268,0,0,1,.453-1.359,3,3,0,0,1,1.281-.98,4.669,4.669,0,0,1,1.859-.355,3.689,3.689,0,0,1,2.48.785,2.747,2.747,0,0,1,.918,2.207v3.664a4.041,4.041,0,0,0,.336,1.82V0ZM13.16-1.57a1.945,1.945,0,0,0,.922-.223,1.462,1.462,0,0,0,.625-.6V-3.844h-.844q-1.7,0-1.8,1.172l-.008.133a.9.9,0,0,0,.3.7A1.153,1.153,0,0,0,13.16-1.57ZM14.02-12H16.48L14.316-9.578H12.48Zm9.438,5.664a6.134,6.134,0,0,0-.812-.062,1.654,1.654,0,0,0-1.68.867V0H18.707V-8.453H20.84L20.9-7.445a2.092,2.092,0,0,1,1.883-1.164,2.366,2.366,0,0,1,.7.1Zm8.7,2.188A5.119,5.119,0,0,1,31.293-.98,2.872,2.872,0,0,1,28.871.156,2.639,2.639,0,0,1,26.676-.9l-.1.9H24.543V-12H26.8v4.3a2.571,2.571,0,0,1,2.055-.914,2.9,2.9,0,0,1,2.426,1.137,5.126,5.126,0,0,1,.879,3.2ZM29.9-4.312A3.363,3.363,0,0,0,29.5-6.184a1.374,1.374,0,0,0-1.211-.59,1.489,1.489,0,0,0-1.484.883v3.336a1.509,1.509,0,0,0,1.5.891,1.394,1.394,0,0,0,1.438-1.078A5.562,5.562,0,0,0,29.9-4.312Zm3.3.008a5.013,5.013,0,0,1,.484-2.242A3.546,3.546,0,0,1,35.078-8.07a4.069,4.069,0,0,1,2.113-.539,3.849,3.849,0,0,1,2.793,1.047,4.2,4.2,0,0,1,1.207,2.844l.016.578A4.418,4.418,0,0,1,40.121-1.02,3.775,3.775,0,0,1,37.207.156a3.793,3.793,0,0,1-2.918-1.172A4.5,4.5,0,0,1,33.2-4.2Zm2.258.16A3.16,3.16,0,0,0,35.91-2.3a1.5,1.5,0,0,0,1.3.638,1.5,1.5,0,0,0,1.281-.63,3.457,3.457,0,0,0,.461-2.015,3.128,3.128,0,0,0-.461-1.831,1.5,1.5,0,0,0-1.3-.649,1.474,1.474,0,0,0-1.281.646A3.516,3.516,0,0,0,35.457-4.144ZM44.98,0H42.715V-12H44.98Zm5.75.156A4.15,4.15,0,0,1,47.7-.984a4.054,4.054,0,0,1-1.168-3.039v-.219a5.106,5.106,0,0,1,.492-2.277,3.612,3.612,0,0,1,1.395-1.547,3.914,3.914,0,0,1,2.059-.543,3.508,3.508,0,0,1,2.73,1.094,4.444,4.444,0,0,1,1,3.1v.922H48.824a2.1,2.1,0,0,0,.66,1.328,2,2,0,0,0,1.395.5,2.437,2.437,0,0,0,2.039-.945l1.109,1.242A3.389,3.389,0,0,1,52.652-.246,4.511,4.511,0,0,1,50.73.156Zm-.258-6.945a1.411,1.411,0,0,0-1.09.455,2.357,2.357,0,0,0-.535,1.3h3.141v-.181a1.681,1.681,0,0,0-.406-1.165A1.456,1.456,0,0,0,50.473-6.789Zm9.594,4.453a.727.727,0,0,0-.41-.652,4.659,4.659,0,0,0-1.316-.426q-3.016-.633-3.016-2.562a2.323,2.323,0,0,1,.934-1.879A3.766,3.766,0,0,1,58.7-8.609a4.053,4.053,0,0,1,2.574.758,2.388,2.388,0,0,1,.965,1.969H59.98a1.092,1.092,0,0,0-.312-.8A1.322,1.322,0,0,0,58.691-7a1.351,1.351,0,0,0-.883.258.814.814,0,0,0-.312.656.7.7,0,0,0,.355.605,3.657,3.657,0,0,0,1.2.4,9.8,9.8,0,0,1,1.422.379A2.336,2.336,0,0,1,62.262-2.43,2.2,2.2,0,0,1,61.27-.559a4.28,4.28,0,0,1-2.562.715A4.47,4.47,0,0,1,56.82-.223a3.166,3.166,0,0,1-1.293-1.039,2.414,2.414,0,0,1-.469-1.426H57.2a1.179,1.179,0,0,0,.445.922,1.766,1.766,0,0,0,1.109.32,1.635,1.635,0,0,0,.98-.246A.766.766,0,0,0,60.066-2.336Z" transform="translate(416.999 4657.813)" fill="#12263f"/>
    <path id="Path_832484" data-name="Path 832484" d="M-19.875-2.984A1.2,1.2,0,0,0-20.344-4a6.148,6.148,0,0,0-1.687-.75,11.963,11.963,0,0,1-1.93-.777A3.153,3.153,0,0,1-25.9-8.352,2.747,2.747,0,0,1-25.379-10a3.389,3.389,0,0,1,1.492-1.129,5.616,5.616,0,0,1,2.184-.406,5.112,5.112,0,0,1,2.172.441,3.458,3.458,0,0,1,1.48,1.246,3.261,3.261,0,0,1,.527,1.828h-2.344a1.534,1.534,0,0,0-.492-1.215,2.023,2.023,0,0,0-1.383-.434,2.162,2.162,0,0,0-1.336.363,1.146,1.146,0,0,0-.477.957,1.1,1.1,0,0,0,.559.93,6.311,6.311,0,0,0,1.645.7,7.106,7.106,0,0,1,2.914,1.492A2.972,2.972,0,0,1-17.523-3,2.737,2.737,0,0,1-18.641-.684a4.891,4.891,0,0,1-3.008.84,5.808,5.808,0,0,1-2.391-.48,3.783,3.783,0,0,1-1.645-1.316,3.371,3.371,0,0,1-.566-1.937H-23.9q0,1.883,2.25,1.883a2.189,2.189,0,0,0,1.3-.34A1.106,1.106,0,0,0-19.875-2.984ZM-13.7,0h-2.266V-8.453H-13.7Zm-2.4-10.641a1.112,1.112,0,0,1,.34-.836,1.277,1.277,0,0,1,.926-.328,1.28,1.28,0,0,1,.922.328,1.105,1.105,0,0,1,.344.836,1.108,1.108,0,0,1-.348.844,1.283,1.283,0,0,1-.918.328,1.283,1.283,0,0,1-.918-.328A1.108,1.108,0,0,1-16.1-10.641ZM-9.461,0h-2.266V-12h2.266Zm5.75.156A4.15,4.15,0,0,1-6.738-.984,4.054,4.054,0,0,1-7.906-4.023v-.219A5.106,5.106,0,0,1-7.414-6.52,3.612,3.612,0,0,1-6.02-8.066a3.914,3.914,0,0,1,2.059-.543A3.508,3.508,0,0,1-1.23-7.516a4.444,4.444,0,0,1,1,3.1v.922H-5.617a2.1,2.1,0,0,0,.66,1.328,2,2,0,0,0,1.395.5,2.437,2.437,0,0,0,2.039-.945L-.414-1.367A3.389,3.389,0,0,1-1.789-.246,4.511,4.511,0,0,1-3.711.156Zm-.258-6.945a1.411,1.411,0,0,0-1.09.455,2.357,2.357,0,0,0-.535,1.3h3.141v-.181a1.681,1.681,0,0,0-.406-1.165A1.456,1.456,0,0,0-3.969-6.789ZM3.125-8.453l.07.977a2.951,2.951,0,0,1,2.43-1.133,2.453,2.453,0,0,1,2,.789A3.682,3.682,0,0,1,8.3-5.461V0H6.039V-5.406a1.465,1.465,0,0,0-.312-1.043,1.4,1.4,0,0,0-1.039-.324,1.553,1.553,0,0,0-1.43.813V0H1V-8.453Zm10.4,6.789a1.481,1.481,0,0,0,1.016-.344,1.2,1.2,0,0,0,.406-.914h2.117a2.9,2.9,0,0,1-.469,1.574A3.093,3.093,0,0,1,15.332-.238a3.949,3.949,0,0,1-1.77.395A3.67,3.67,0,0,1,10.7-1,4.56,4.56,0,0,1,9.656-4.18v-.148A4.508,4.508,0,0,1,10.7-7.445a3.627,3.627,0,0,1,2.852-1.164,3.555,3.555,0,0,1,2.543.9,3.2,3.2,0,0,1,.973,2.4H14.945a1.551,1.551,0,0,0-.406-1.072,1.354,1.354,0,0,0-1.031-.412,1.36,1.36,0,0,0-1.191.575,3.333,3.333,0,0,0-.4,1.866v.235a3.375,3.375,0,0,0,.4,1.878A1.377,1.377,0,0,0,13.523-1.664ZM20.734,0H18.469V-8.453h2.266Zm-2.4-10.641a1.112,1.112,0,0,1,.34-.836A1.277,1.277,0,0,1,19.6-11.8a1.28,1.28,0,0,1,.922.328,1.105,1.105,0,0,1,.344.836,1.108,1.108,0,0,1-.348.844,1.283,1.283,0,0,1-.918.328,1.283,1.283,0,0,1-.918-.328A1.108,1.108,0,0,1,18.336-10.641ZM22.242-4.3a5.013,5.013,0,0,1,.484-2.242A3.546,3.546,0,0,1,24.121-8.07a4.069,4.069,0,0,1,2.113-.539,3.849,3.849,0,0,1,2.793,1.047,4.2,4.2,0,0,1,1.207,2.844l.016.578A4.418,4.418,0,0,1,29.164-1.02,3.775,3.775,0,0,1,26.25.156a3.793,3.793,0,0,1-2.918-1.172A4.5,4.5,0,0,1,22.242-4.2Zm2.258.16A3.16,3.16,0,0,0,24.953-2.3a1.5,1.5,0,0,0,1.3.638,1.5,1.5,0,0,0,1.281-.63,3.457,3.457,0,0,0,.461-2.015,3.128,3.128,0,0,0-.461-1.831,1.5,1.5,0,0,0-1.3-.649,1.474,1.474,0,0,0-1.281.646A3.516,3.516,0,0,0,24.5-4.144Z" transform="translate(416.999 4750.431)" fill="#12263f"/>
    <path id="Path_832477" data-name="Path 832477" d="M-21.121-4.008V0h-2.344V-11.375h4.438a5.134,5.134,0,0,1,2.254.469,3.454,3.454,0,0,1,1.5,1.332,3.714,3.714,0,0,1,.523,1.965A3.266,3.266,0,0,1-15.9-4.973a4.767,4.767,0,0,1-3.168.965Zm0-1.9h2.094a2.059,2.059,0,0,0,1.418-.437,1.591,1.591,0,0,0,.488-1.25,1.876,1.876,0,0,0-.492-1.352,1.839,1.839,0,0,0-1.359-.531h-2.148ZM-10.91,0h-2.266V-8.453h2.266Zm-2.4-10.641a1.112,1.112,0,0,1,.34-.836,1.277,1.277,0,0,1,.926-.328,1.28,1.28,0,0,1,.922.328,1.105,1.105,0,0,1,.344.836,1.108,1.108,0,0,1-.348.844,1.283,1.283,0,0,1-.918.328,1.283,1.283,0,0,1-.918-.328A1.108,1.108,0,0,1-13.309-10.641Zm8.836,8.3a.727.727,0,0,0-.41-.652A4.659,4.659,0,0,0-6.2-3.414q-3.016-.633-3.016-2.562a2.323,2.323,0,0,1,.934-1.879A3.766,3.766,0,0,1-5.84-8.609a4.053,4.053,0,0,1,2.574.758A2.388,2.388,0,0,1-2.3-5.883H-4.559a1.092,1.092,0,0,0-.312-.8A1.322,1.322,0,0,0-5.848-7a1.351,1.351,0,0,0-.883.258.814.814,0,0,0-.312.656.7.7,0,0,0,.355.605,3.657,3.657,0,0,0,1.2.4A9.8,9.8,0,0,1-4.066-4.7,2.336,2.336,0,0,1-2.277-2.43,2.2,2.2,0,0,1-3.27-.559,4.28,4.28,0,0,1-5.832.156,4.47,4.47,0,0,1-7.719-.223,3.166,3.166,0,0,1-9.012-1.262,2.414,2.414,0,0,1-9.48-2.687H-7.34a1.179,1.179,0,0,0,.445.922,1.766,1.766,0,0,0,1.109.32,1.635,1.635,0,0,0,.98-.246A.766.766,0,0,0-4.473-2.336ZM4.074,0a2.507,2.507,0,0,1-.227-.758A2.732,2.732,0,0,1,1.715.156,3,3,0,0,1-.344-.562,2.312,2.312,0,0,1-1.16-2.375a2.389,2.389,0,0,1,1-2.062,4.915,4.915,0,0,1,2.879-.727H3.754v-.484a1.393,1.393,0,0,0-.3-.937A1.183,1.183,0,0,0,2.5-6.937a1.345,1.345,0,0,0-.895.273.929.929,0,0,0-.324.75H-.973A2.268,2.268,0,0,1-.52-7.273a3,3,0,0,1,1.281-.98,4.669,4.669,0,0,1,1.859-.355,3.689,3.689,0,0,1,2.48.785A2.747,2.747,0,0,1,6.02-5.617v3.664a4.041,4.041,0,0,0,.336,1.82V0ZM2.207-1.57a1.945,1.945,0,0,0,.922-.223,1.462,1.462,0,0,0,.625-.6V-3.844H2.91q-1.7,0-1.8,1.172L1.1-2.539a.9.9,0,0,0,.3.7A1.153,1.153,0,0,0,2.207-1.57ZM7.4-4.289a5.094,5.094,0,0,1,.887-3.148,2.877,2.877,0,0,1,2.426-1.172,2.589,2.589,0,0,1,2.039.922V-12H15.02V0H12.98l-.109-.9A2.657,2.657,0,0,1,10.7.156,2.869,2.869,0,0,1,8.3-1.02,5.258,5.258,0,0,1,7.4-4.289Zm2.258.168A3.337,3.337,0,0,0,10.074-2.3a1.349,1.349,0,0,0,1.2.634,1.511,1.511,0,0,0,1.477-.884V-5.889a1.489,1.489,0,0,0-1.461-.884Q9.66-6.773,9.66-4.121ZM21.668,0a2.507,2.507,0,0,1-.227-.758,2.732,2.732,0,0,1-2.133.914A3,3,0,0,1,17.25-.562a2.312,2.312,0,0,1-.816-1.812,2.389,2.389,0,0,1,1-2.062,4.915,4.915,0,0,1,2.879-.727h1.039v-.484a1.393,1.393,0,0,0-.3-.937,1.183,1.183,0,0,0-.949-.352,1.345,1.345,0,0,0-.895.273.929.929,0,0,0-.324.75H16.621a2.268,2.268,0,0,1,.453-1.359,3,3,0,0,1,1.281-.98,4.669,4.669,0,0,1,1.859-.355,3.689,3.689,0,0,1,2.48.785,2.747,2.747,0,0,1,.918,2.207v3.664a4.041,4.041,0,0,0,.336,1.82V0ZM19.8-1.57a1.945,1.945,0,0,0,.922-.223,1.462,1.462,0,0,0,.625-.6V-3.844H20.5q-1.7,0-1.8,1.172l-.008.133a.9.9,0,0,0,.3.7A1.153,1.153,0,0,0,19.8-1.57Z" transform="translate(416.999 4707.188)" fill="#12263f"/>
    <path id="Path_832460" data-name="Path 832460" d="M10.775-10.661H6.855V0H4.219V-10.661H.352V-12.8H10.775ZM14.7,0H12.153V-9.51H14.7ZM12-11.971a1.251,1.251,0,0,1,.382-.94,1.436,1.436,0,0,1,1.042-.369,1.44,1.44,0,0,1,1.037.369,1.244,1.244,0,0,1,.387.94,1.247,1.247,0,0,1-.391.949,1.443,1.443,0,0,1-1.033.369,1.443,1.443,0,0,1-1.033-.369A1.247,1.247,0,0,1,12-11.971Zm13.261,7.3a5.7,5.7,0,0,1-1,3.52A3.2,3.2,0,0,1,21.573.176a2.963,2.963,0,0,1-2.329-1V3.656H16.7V-9.51h2.355l.088.932a2.985,2.985,0,0,1,2.408-1.107,3.22,3.22,0,0,1,2.733,1.3A5.858,5.858,0,0,1,25.264-4.8Zm-2.54-.185a3.743,3.743,0,0,0-.47-2.048,1.532,1.532,0,0,0-1.367-.721,1.663,1.663,0,0,0-1.644.914v3.894a1.692,1.692,0,0,0,1.661.94Q22.724-1.872,22.724-4.852Zm3.628.009A5.64,5.64,0,0,1,26.9-7.365a3.989,3.989,0,0,1,1.569-1.714,4.577,4.577,0,0,1,2.377-.606,4.33,4.33,0,0,1,3.142,1.178,4.727,4.727,0,0,1,1.358,3.2l.018.65a4.97,4.97,0,0,1-1.222,3.511A4.247,4.247,0,0,1,30.861.176a4.268,4.268,0,0,1-3.283-1.318,5.058,5.058,0,0,1-1.226-3.586Zm2.54.18a3.555,3.555,0,0,0,.51,2.073,1.682,1.682,0,0,0,1.459.717A1.686,1.686,0,0,0,32.3-2.581a3.89,3.89,0,0,0,.519-2.267,3.519,3.519,0,0,0-.519-2.06,1.686,1.686,0,0,0-1.459-.731,1.658,1.658,0,0,0-1.441.726A3.955,3.955,0,0,0,28.892-4.662Zm11.94-.163a5.731,5.731,0,0,1,1-3.542,3.237,3.237,0,0,1,2.729-1.318,2.913,2.913,0,0,1,2.294,1.037V-13.5H49.4V0H47.108l-.123-1.011A2.989,2.989,0,0,1,44.541.176a3.228,3.228,0,0,1-2.694-1.323A5.916,5.916,0,0,1,40.832-4.825Zm2.54.189a3.754,3.754,0,0,0,.466,2.051,1.517,1.517,0,0,0,1.354.713,1.7,1.7,0,0,0,1.661-.995V-6.625a1.675,1.675,0,0,0-1.644-.995Q43.372-7.62,43.372-4.636ZM55.657.176a4.668,4.668,0,0,1-3.406-1.283,4.561,4.561,0,0,1-1.314-3.419v-.246a5.745,5.745,0,0,1,.554-2.562,4.064,4.064,0,0,1,1.569-1.74,4.4,4.4,0,0,1,2.316-.611,3.947,3.947,0,0,1,3.072,1.23,5,5,0,0,1,1.121,3.489v1.037H53.513a2.36,2.36,0,0,0,.743,1.494,2.245,2.245,0,0,0,1.569.563,2.742,2.742,0,0,0,2.294-1.063l1.248,1.4A3.813,3.813,0,0,1,57.819-.277,5.075,5.075,0,0,1,55.657.176Zm-.29-7.813a1.587,1.587,0,0,0-1.226.512,2.651,2.651,0,0,0-.6,1.466h3.533v-.2a1.891,1.891,0,0,0-.457-1.311A1.638,1.638,0,0,0,55.367-7.638Zm15.289.51a6.9,6.9,0,0,0-.914-.07,1.86,1.86,0,0,0-1.89.976V0h-2.54V-9.51h2.4l.07,1.134A2.354,2.354,0,0,1,69.9-9.686a2.662,2.662,0,0,1,.791.114ZM77.483-.967a3.185,3.185,0,0,1-2.6,1.143A3,3,0,0,1,72.548-.7a3.752,3.752,0,0,1-.822-2.575V-9.51h2.54v6.151q0,1.487,1.354,1.487a1.834,1.834,0,0,0,1.775-.9V-9.51h2.549V0H77.553ZM84.451,0H81.9V-9.51h2.549Zm-2.7-11.971a1.251,1.251,0,0,1,.382-.94,1.436,1.436,0,0,1,1.042-.369,1.44,1.44,0,0,1,1.037.369,1.244,1.244,0,0,1,.387.94,1.247,1.247,0,0,1-.391.949,1.443,1.443,0,0,1-1.033.369,1.443,1.443,0,0,1-1.033-.369A1.247,1.247,0,0,1,81.752-11.971Zm4.3,7.146a5.731,5.731,0,0,1,1-3.542,3.237,3.237,0,0,1,2.729-1.318,2.913,2.913,0,0,1,2.294,1.037V-13.5h2.549V0H92.332l-.123-1.011A2.989,2.989,0,0,1,89.766.176a3.228,3.228,0,0,1-2.694-1.323A5.916,5.916,0,0,1,86.057-4.825Zm2.54.189a3.754,3.754,0,0,0,.466,2.051,1.517,1.517,0,0,0,1.354.713,1.7,1.7,0,0,0,1.661-.995V-6.625a1.675,1.675,0,0,0-1.644-.995Q88.6-7.62,88.6-4.636Zm7.513-.207a5.64,5.64,0,0,1,.545-2.522,3.989,3.989,0,0,1,1.569-1.714,4.577,4.577,0,0,1,2.377-.606,4.33,4.33,0,0,1,3.142,1.178,4.727,4.727,0,0,1,1.358,3.2l.018.65A4.97,4.97,0,0,1,103.9-1.147,4.247,4.247,0,0,1,100.618.176a4.268,4.268,0,0,1-3.283-1.318,5.058,5.058,0,0,1-1.226-3.586Zm2.54.18a3.555,3.555,0,0,0,.51,2.073,1.682,1.682,0,0,0,1.459.717,1.686,1.686,0,0,0,1.441-.709,3.89,3.89,0,0,0,.519-2.267,3.519,3.519,0,0,0-.519-2.06,1.686,1.686,0,0,0-1.459-.731,1.658,1.658,0,0,0-1.441.726A3.955,3.955,0,0,0,98.65-4.662Z" transform="translate(369 4092.001)"/>
    <path id="Path_832466" data-name="Path 832466" d="M.58-4.825a5.731,5.731,0,0,1,1-3.542A3.237,3.237,0,0,1,4.307-9.686,2.913,2.913,0,0,1,6.6-8.648V-13.5H9.149V0H6.855L6.732-1.011A2.989,2.989,0,0,1,4.289.176,3.228,3.228,0,0,1,1.6-1.147,5.916,5.916,0,0,1,.58-4.825Zm2.54.189a3.754,3.754,0,0,0,.466,2.051,1.517,1.517,0,0,0,1.354.713A1.7,1.7,0,0,0,6.6-2.867V-6.625A1.675,1.675,0,0,0,4.957-7.62Q3.12-7.62,3.12-4.636ZM11.2,0V-12.8h4.482a5.886,5.886,0,0,1,3.533.892,3.05,3.05,0,0,1,1.2,2.615,2.891,2.891,0,0,1-.483,1.657,2.792,2.792,0,0,1-1.345,1.05,2.7,2.7,0,0,1,1.551.993A2.936,2.936,0,0,1,20.7-3.762,3.377,3.377,0,0,1,19.527-.967,5.3,5.3,0,0,1,16.17,0Zm2.637-5.572v3.454h2.259a2.18,2.18,0,0,0,1.455-.444,1.522,1.522,0,0,0,.523-1.226,1.607,1.607,0,0,0-1.819-1.784Zm0-1.863h1.951q2-.035,2-1.591a1.47,1.47,0,0,0-.505-1.252,2.658,2.658,0,0,0-1.6-.382H13.832Z" transform="translate(665.25 4092.001)"/>
    <path id="Path_832473" data-name="Path 832473" d="M10.775-10.661H6.855V0H4.219V-10.661H.352V-12.8H10.775ZM14.7,0H12.153V-9.51H14.7ZM12-11.971a1.251,1.251,0,0,1,.382-.94,1.436,1.436,0,0,1,1.042-.369,1.44,1.44,0,0,1,1.037.369,1.244,1.244,0,0,1,.387.94,1.247,1.247,0,0,1-.391.949,1.443,1.443,0,0,1-1.033.369,1.443,1.443,0,0,1-1.033-.369A1.247,1.247,0,0,1,12-11.971Zm13.261,7.3a5.7,5.7,0,0,1-1,3.52A3.2,3.2,0,0,1,21.573.176a2.963,2.963,0,0,1-2.329-1V3.656H16.7V-9.51h2.355l.088.932a2.985,2.985,0,0,1,2.408-1.107,3.22,3.22,0,0,1,2.733,1.3A5.858,5.858,0,0,1,25.264-4.8Zm-2.54-.185a3.743,3.743,0,0,0-.47-2.048,1.532,1.532,0,0,0-1.367-.721,1.663,1.663,0,0,0-1.644.914v3.894a1.692,1.692,0,0,0,1.661.94Q22.724-1.872,22.724-4.852Zm3.628.009A5.64,5.64,0,0,1,26.9-7.365a3.989,3.989,0,0,1,1.569-1.714,4.577,4.577,0,0,1,2.377-.606,4.33,4.33,0,0,1,3.142,1.178,4.727,4.727,0,0,1,1.358,3.2l.018.65a4.97,4.97,0,0,1-1.222,3.511A4.247,4.247,0,0,1,30.861.176a4.268,4.268,0,0,1-3.283-1.318,5.058,5.058,0,0,1-1.226-3.586Zm2.54.18a3.555,3.555,0,0,0,.51,2.073,1.682,1.682,0,0,0,1.459.717A1.686,1.686,0,0,0,32.3-2.581a3.89,3.89,0,0,0,.519-2.267,3.519,3.519,0,0,0-.519-2.06,1.686,1.686,0,0,0-1.459-.731,1.658,1.658,0,0,0-1.441.726A3.955,3.955,0,0,0,28.892-4.662Zm11.94-.163a5.731,5.731,0,0,1,1-3.542,3.237,3.237,0,0,1,2.729-1.318,2.913,2.913,0,0,1,2.294,1.037V-13.5H49.4V0H47.108l-.123-1.011A2.989,2.989,0,0,1,44.541.176a3.228,3.228,0,0,1-2.694-1.323A5.916,5.916,0,0,1,40.832-4.825Zm2.54.189a3.754,3.754,0,0,0,.466,2.051,1.517,1.517,0,0,0,1.354.713,1.7,1.7,0,0,0,1.661-.995V-6.625a1.675,1.675,0,0,0-1.644-.995Q43.372-7.62,43.372-4.636ZM55.657.176a4.668,4.668,0,0,1-3.406-1.283,4.561,4.561,0,0,1-1.314-3.419v-.246a5.745,5.745,0,0,1,.554-2.562,4.064,4.064,0,0,1,1.569-1.74,4.4,4.4,0,0,1,2.316-.611,3.947,3.947,0,0,1,3.072,1.23,5,5,0,0,1,1.121,3.489v1.037H53.513a2.36,2.36,0,0,0,.743,1.494,2.245,2.245,0,0,0,1.569.563,2.742,2.742,0,0,0,2.294-1.063l1.248,1.4A3.813,3.813,0,0,1,57.819-.277,5.075,5.075,0,0,1,55.657.176Zm-.29-7.813a1.587,1.587,0,0,0-1.226.512,2.651,2.651,0,0,0-.6,1.466h3.533v-.2a1.891,1.891,0,0,0-.457-1.311A1.638,1.638,0,0,0,55.367-7.638ZM70.823,0a2.821,2.821,0,0,1-.255-.853,3.073,3.073,0,0,1-2.4,1.028,3.376,3.376,0,0,1-2.316-.809,2.6,2.6,0,0,1-.918-2.039,2.687,2.687,0,0,1,1.121-2.32,5.529,5.529,0,0,1,3.239-.817h1.169v-.545a1.567,1.567,0,0,0-.338-1.055,1.331,1.331,0,0,0-1.068-.4A1.513,1.513,0,0,0,68.05-7.5a1.045,1.045,0,0,0-.365.844h-2.54a2.551,2.551,0,0,1,.51-1.529,3.37,3.37,0,0,1,1.441-1.1,5.253,5.253,0,0,1,2.092-.4,4.15,4.15,0,0,1,2.791.883,3.09,3.09,0,0,1,1.033,2.483V-2.2a4.546,4.546,0,0,0,.378,2.048V0Zm-2.1-1.767a2.188,2.188,0,0,0,1.037-.25,1.645,1.645,0,0,0,.7-.672V-4.324h-.949q-1.907,0-2.03,1.318l-.009.149a1.017,1.017,0,0,0,.334.782A1.3,1.3,0,0,0,68.722-1.767ZM77.254-9.51l.079,1.063a3.342,3.342,0,0,1,2.733-1.239,2.536,2.536,0,0,1,2.522,1.45,3.265,3.265,0,0,1,2.856-1.45,2.836,2.836,0,0,1,2.3.9A4.141,4.141,0,0,1,88.5-6.073V0H85.956V-6.064a1.811,1.811,0,0,0-.316-1.182,1.4,1.4,0,0,0-1.116-.374,1.585,1.585,0,0,0-1.582,1.09L82.95,0H80.41V-6.056a1.789,1.789,0,0,0-.325-1.2,1.416,1.416,0,0,0-1.107-.369,1.646,1.646,0,0,0-1.564.9V0h-2.54V-9.51ZM98.935-4.667A5.758,5.758,0,0,1,97.959-1.1,3.231,3.231,0,0,1,95.235.176a2.969,2.969,0,0,1-2.47-1.187L92.651,0H90.366V-13.5h2.54v4.843a2.893,2.893,0,0,1,2.312-1.028,3.258,3.258,0,0,1,2.729,1.279,5.767,5.767,0,0,1,.989,3.6Zm-2.54-.185a3.783,3.783,0,0,0-.457-2.1,1.545,1.545,0,0,0-1.362-.664,1.676,1.676,0,0,0-1.67.993v3.753a1.7,1.7,0,0,0,1.688,1A1.568,1.568,0,0,0,96.21-3.085,6.257,6.257,0,0,0,96.395-4.852ZM103.09,0h-2.549V-9.51h2.549Zm-2.7-11.971a1.251,1.251,0,0,1,.382-.94,1.436,1.436,0,0,1,1.042-.369,1.44,1.44,0,0,1,1.037.369,1.244,1.244,0,0,1,.387.94,1.247,1.247,0,0,1-.391.949,1.443,1.443,0,0,1-1.033.369,1.443,1.443,0,0,1-1.033-.369A1.247,1.247,0,0,1,100.392-11.971ZM109.469.176a4.668,4.668,0,0,1-3.406-1.283,4.561,4.561,0,0,1-1.314-3.419v-.246a5.745,5.745,0,0,1,.554-2.562,4.064,4.064,0,0,1,1.569-1.74,4.4,4.4,0,0,1,2.316-.611,3.947,3.947,0,0,1,3.072,1.23,5,5,0,0,1,1.121,3.489v1.037h-6.056a2.36,2.36,0,0,0,.743,1.494,2.245,2.245,0,0,0,1.569.563,2.742,2.742,0,0,0,2.294-1.063l1.248,1.4a3.813,3.813,0,0,1-1.547,1.261A5.075,5.075,0,0,1,109.469.176Zm-.29-7.813a1.587,1.587,0,0,0-1.226.512,2.651,2.651,0,0,0-.6,1.466h3.533v-.2a1.891,1.891,0,0,0-.457-1.311A1.638,1.638,0,0,0,109.179-7.638Zm7.89-1.872.079,1.1a3.32,3.32,0,0,1,2.733-1.274,2.759,2.759,0,0,1,2.25.888,4.142,4.142,0,0,1,.756,2.654V0h-2.54V-6.082A1.648,1.648,0,0,0,120-7.255a1.574,1.574,0,0,0-1.169-.365,1.747,1.747,0,0,0-1.608.914V0h-2.54V-9.51Zm10.694-2.338V-9.51h1.626v1.863h-1.626V-2.9a1.133,1.133,0,0,0,.2.756,1.015,1.015,0,0,0,.773.229,4.051,4.051,0,0,0,.747-.062V-.053a5.229,5.229,0,0,1-1.538.229,2.425,2.425,0,0,1-2.725-2.7V-7.646h-1.389V-9.51h1.389v-2.338ZM135.091.176a4.668,4.668,0,0,1-3.406-1.283,4.561,4.561,0,0,1-1.314-3.419v-.246a5.745,5.745,0,0,1,.554-2.562,4.064,4.064,0,0,1,1.569-1.74,4.4,4.4,0,0,1,2.316-.611,3.947,3.947,0,0,1,3.072,1.23A5,5,0,0,1,139-4.966v1.037h-6.056a2.36,2.36,0,0,0,.743,1.494,2.245,2.245,0,0,0,1.569.563,2.742,2.742,0,0,0,2.294-1.063l1.248,1.4a3.813,3.813,0,0,1-1.547,1.261A5.075,5.075,0,0,1,135.091.176Zm-.29-7.813a1.587,1.587,0,0,0-1.226.512,2.651,2.651,0,0,0-.6,1.466h3.533v-.2a1.891,1.891,0,0,0-.457-1.311A1.638,1.638,0,0,0,134.8-7.638Z" transform="translate(861 4092.001)"/>
    <path id="Path_832485" data-name="Path 832485" d="M8.842-5.546H3.779v3.428H9.721V0H1.143V-12.8H9.7v2.136H3.779v3.05H8.842Zm7.319,2.918a.818.818,0,0,0-.461-.734,5.241,5.241,0,0,0-1.481-.479q-3.393-.712-3.393-2.883a2.613,2.613,0,0,1,1.05-2.114,4.237,4.237,0,0,1,2.747-.848,4.56,4.56,0,0,1,2.9.853A2.687,2.687,0,0,1,18.6-6.618h-2.54a1.229,1.229,0,0,0-.352-.9,1.488,1.488,0,0,0-1.1-.356,1.52,1.52,0,0,0-.993.29.916.916,0,0,0-.352.738.783.783,0,0,0,.4.681,4.114,4.114,0,0,0,1.349.448,11.019,11.019,0,0,1,1.6.426,2.628,2.628,0,0,1,2.013,2.558,2.481,2.481,0,0,1-1.116,2.1,4.815,4.815,0,0,1-2.883.8A5.029,5.029,0,0,1,12.509-.25a3.561,3.561,0,0,1-1.455-1.169,2.716,2.716,0,0,1-.527-1.6h2.408a1.326,1.326,0,0,0,.5,1.037,1.987,1.987,0,0,0,1.248.36,1.839,1.839,0,0,0,1.1-.277A.861.861,0,0,0,16.161-2.628Zm7.97.756a1.666,1.666,0,0,0,1.143-.387,1.355,1.355,0,0,0,.457-1.028h2.382a3.258,3.258,0,0,1-.527,1.771A3.48,3.48,0,0,1,26.165-.268a4.442,4.442,0,0,1-1.991.444,4.129,4.129,0,0,1-3.217-1.3A5.13,5.13,0,0,1,19.78-4.7v-.167a5.071,5.071,0,0,1,1.169-3.507,4.08,4.08,0,0,1,3.208-1.31A4,4,0,0,1,27.018-8.67a3.594,3.594,0,0,1,1.094,2.7H25.73a1.745,1.745,0,0,0-.457-1.206,1.524,1.524,0,0,0-1.16-.464,1.53,1.53,0,0,0-1.34.647,3.749,3.749,0,0,0-.453,2.1v.264a3.8,3.8,0,0,0,.448,2.113A1.549,1.549,0,0,0,24.131-1.872ZM34.983,0a2.821,2.821,0,0,1-.255-.853,3.073,3.073,0,0,1-2.4,1.028,3.376,3.376,0,0,1-2.316-.809,2.6,2.6,0,0,1-.918-2.039,2.687,2.687,0,0,1,1.121-2.32,5.529,5.529,0,0,1,3.239-.817h1.169v-.545a1.567,1.567,0,0,0-.338-1.055,1.331,1.331,0,0,0-1.068-.4A1.513,1.513,0,0,0,32.21-7.5a1.045,1.045,0,0,0-.365.844h-2.54a2.551,2.551,0,0,1,.51-1.529,3.37,3.37,0,0,1,1.441-1.1,5.253,5.253,0,0,1,2.092-.4,4.15,4.15,0,0,1,2.791.883,3.09,3.09,0,0,1,1.033,2.483V-2.2a4.546,4.546,0,0,0,.378,2.048V0Zm-2.1-1.767a2.188,2.188,0,0,0,1.037-.25,1.645,1.645,0,0,0,.7-.672V-4.324h-.949q-1.907,0-2.03,1.318l-.009.149a1.017,1.017,0,0,0,.334.782A1.3,1.3,0,0,0,32.882-1.767ZM41.713,0H39.164V-13.5h2.549Zm7.513,0a2.821,2.821,0,0,1-.255-.853,3.073,3.073,0,0,1-2.4,1.028,3.376,3.376,0,0,1-2.316-.809,2.6,2.6,0,0,1-.918-2.039,2.687,2.687,0,0,1,1.121-2.32A5.529,5.529,0,0,1,47.7-5.81h1.169v-.545a1.567,1.567,0,0,0-.338-1.055,1.331,1.331,0,0,0-1.068-.4,1.513,1.513,0,0,0-1.006.308,1.045,1.045,0,0,0-.365.844h-2.54a2.551,2.551,0,0,1,.51-1.529,3.37,3.37,0,0,1,1.441-1.1,5.253,5.253,0,0,1,2.092-.4,4.15,4.15,0,0,1,2.791.883,3.09,3.09,0,0,1,1.033,2.483V-2.2a4.546,4.546,0,0,0,.378,2.048V0Zm-2.1-1.767a2.188,2.188,0,0,0,1.037-.25,1.645,1.645,0,0,0,.7-.672V-4.324h-.949q-1.907,0-2.03,1.318l-.009.149a1.017,1.017,0,0,0,.334.782A1.3,1.3,0,0,0,47.125-1.767Z" transform="translate(1158 4092.001)"/>
    <path id="Path_823977" data-name="Path 823977" d="M685,5701.6v706.467" transform="translate(-141.5 -1638.598)" fill="none" stroke="#707070" stroke-width="2"/>
    <path id="Path_831874" data-name="Path 831874" d="M685,5701.6v706.467" transform="translate(115.5 -1638.598)" fill="none" stroke="#707070" stroke-width="2"/>
    <path id="Path_831875" data-name="Path 831875" d="M685,5701.6v706.467" transform="translate(372.5 -1638.598)" fill="none" stroke="#707070" stroke-width="2"/>
    <path id="Path_823978" data-name="Path 823978" d="M685,5701.6v705.477" transform="translate(-398.5 -1638.597)" fill="none" stroke="#707070" stroke-width="2"/>
    <path id="Path_823979" data-name="Path 823979" d="M685,5701.6v706.467" transform="translate(630.5 -1638.598)" fill="none" stroke="#707070" stroke-width="2"/>
    <path id="Path_823980" data-name="Path 823980" d="M685,5701.6v1030" transform="translate(-5416.598 4790.907) rotate(-90)" fill="none" stroke="#707070" stroke-width="2"/>
    <path id="Path_831876" data-name="Path 831876" d="M685,5701.6v1030" transform="translate(-5416.598 4841.925) rotate(-90)" fill="none" stroke="#707070" stroke-width="2"/>
    <path id="Path_831877" data-name="Path 831877" d="M685,5701.6v1030" transform="translate(-5416.598 4888.226) rotate(-90)" fill="none" stroke="#707070" stroke-width="2"/>
    <path id="Path_831878" data-name="Path 831878" d="M685,5701.6v1030" transform="translate(-5416.598 4939.959) rotate(-90)" fill="none" stroke="#707070" stroke-width="2"/>
    <path id="Path_831879" data-name="Path 831879" d="M685,5701.6v1030" transform="translate(-5416.598 4986.26) rotate(-90)" fill="none" stroke="#707070" stroke-width="2"/>
    <path id="Path_831880" data-name="Path 831880" d="M685,5701.6v1030" transform="translate(-5416.598 5031.961) rotate(-90)" fill="none" stroke="#707070" stroke-width="2"/>
    <path id="Path_831881" data-name="Path 831881" d="M685,5701.6v1030" transform="translate(-5416.598 5078.878) rotate(-90)" fill="none" stroke="#707070" stroke-width="2"/>
    <path id="Path_831882" data-name="Path 831882" d="M685,5701.6v1030" transform="translate(-5416.598 5124.58) rotate(-90)" fill="none" stroke="#707070" stroke-width="2"/>
    <path id="Path_831883" data-name="Path 831883" d="M685,5701.6v1030" transform="translate(-5416.598 5172.213) rotate(-90)" fill="none" stroke="#707070" stroke-width="2"/>
    <path id="Path_831884" data-name="Path 831884" d="M685,5701.6v1030" transform="translate(-5416.598 5223.947) rotate(-90)" fill="none" stroke="#707070" stroke-width="2"/>
    <path id="Path_831885" data-name="Path 831885" d="M685,5701.6v1030" transform="translate(-5416.599 5268.815) rotate(-90)" fill="none" stroke="#707070" stroke-width="2"/>
    <path id="Path_831886" data-name="Path 831886" d="M685,5701.6v1030" transform="translate(-5416.599 5315.85) rotate(-90)" fill="none" stroke="#707070" stroke-width="2"/>
    <path id="Path_831887" data-name="Path 831887" d="M685,5701.6v1030" transform="translate(-5416.599 5361.434) rotate(-90)" fill="none" stroke="#707070" stroke-width="2"/>
    <path id="Path_831888" data-name="Path 831888" d="M685,5701.6v1030" transform="translate(-5416.599 5408.468) rotate(-90)" fill="none" stroke="#707070" stroke-width="2"/>
    <path id="Path_823981" data-name="Path 823981" d="M0,0V1030" transform="translate(285 4769.469) rotate(-90)" fill="none" stroke="#707070" stroke-width="2"/>
    <g id="Group_1078826" data-name="Group 1078826" transform="translate(656.501 4168.889)">
      <text id="_150" data-name="150" transform="translate(-11 0)" fill="#12263f" font-size="16" font-family="Roboto-Regular, Roboto"><tspan x="16.273" y="15">150</tspan></text>
    </g>
    <g id="Group_1078831" data-name="Group 1078831" transform="translate(656.501 4266.923)">
      <text id="_120" data-name="120" transform="translate(-11 0)" fill="#12263f" font-size="16" font-family="Roboto-Regular, Roboto"><tspan x="16.273" y="15">120</tspan></text>
    </g>
    <g id="Group_1078834" data-name="Group 1078834" transform="translate(656.501 4359.542)">
      <text id="_90" data-name="90" transform="translate(-11 0)" fill="#12263f" font-size="16" font-family="Roboto-Regular, Roboto"><tspan x="20.765" y="15">90</tspan></text>
    </g>
    <g id="Group_1078838" data-name="Group 1078838" transform="translate(656.501 4452.16)">
      <text id="_60" data-name="60" transform="translate(-11 0)" fill="#12263f" font-size="16" font-family="Roboto-Regular, Roboto"><tspan x="20.765" y="15">60</tspan></text>
    </g>
    <g id="Group_1078842" data-name="Group 1078842" transform="translate(656.501 4550.194)">
      <text id="_40" data-name="40" transform="translate(-11 0)" fill="#12263f" font-size="16" font-family="Roboto-Regular, Roboto"><tspan x="20.765" y="15">40</tspan></text>
    </g>
    <g id="Group_1078846" data-name="Group 1078846" transform="translate(656.501 4642.813)">
      <text id="_20" data-name="20" transform="translate(-11 0)" fill="#12263f" font-size="16" font-family="Roboto-Regular, Roboto"><tspan x="20.765" y="15">20</tspan></text>
    </g>
    <g id="Group_1078850" data-name="Group 1078850" transform="translate(656.501 4735.432)">
      <text id="_0" data-name="0" transform="translate(-11 0)" fill="#12263f" font-size="16" font-family="Roboto-Regular, Roboto"><tspan x="25.257" y="15">0</tspan></text>
    </g>
    <g id="Group_1078848" data-name="Group 1078848" transform="translate(656.501 4692.188)">
      <text id="_10" data-name="10" transform="translate(-11 0)" fill="#12263f" font-size="16" font-family="Roboto-Regular, Roboto"><tspan x="20.765" y="15">10</tspan></text>
    </g>
    <g id="Group_1078827" data-name="Group 1078827" transform="translate(882 4168.889)">
      <text id="Insoportable_3" data-name="Insoportable	 
" transform="translate(-11 0)" fill="#12263f" font-size="16" font-family="Roboto-Regular, Roboto"><tspan x="14.886" y="15" xml:space="preserve">Insoportable	 </tspan></text>
    </g>
    <g id="Group_1078830" data-name="Group 1078830" transform="translate(882 4266.923)">
      <text id="Insoportable_4" data-name="Insoportable	 
" transform="translate(-11 0)" fill="#12263f" font-size="16" font-family="Roboto-Regular, Roboto"><tspan x="14.886" y="15" xml:space="preserve">Insoportable	 </tspan></text>
    </g>
    <g id="Group_1078835" data-name="Group 1078835" transform="translate(882 4359.542)">
      <text id="Ruidoso_" data-name="Ruidoso
" transform="translate(-11 0)" fill="#12263f" font-size="16" font-family="Roboto-Regular, Roboto"><tspan x="30.71" y="15">Ruidoso</tspan></text>
    </g>
    <g id="Group_1078839" data-name="Group 1078839" transform="translate(882 4452.16)">
      <text id="Poco_ruidoso_" data-name="Poco ruidoso
" transform="translate(-11 0)" fill="#12263f" font-size="16" font-family="Roboto-Regular, Roboto"><tspan x="12.64" y="15">Poco ruidoso</tspan></text>
    </g>
    <g id="Group_1078843" data-name="Group 1078843" transform="translate(882 4550.194)">
      <text id="Poco_ruidoso_2" data-name="Poco ruidoso
" transform="translate(-11 0)" fill="#12263f" font-size="16" font-family="Roboto-Regular, Roboto"><tspan x="12.64" y="15">Poco ruidoso</tspan></text>
    </g>
    <g id="Group_1078847" data-name="Group 1078847" transform="translate(882 4642.813)">
      <text id="Ansioso_" data-name="Ansioso
" transform="translate(-11 0)" fill="#12263f" font-size="16" font-family="Roboto-Regular, Roboto"><tspan x="30.8" y="15">Ansioso</tspan></text>
    </g>
    <g id="Group_1078851" data-name="Group 1078851" transform="translate(882 4735.432)">
      <text id="_-_" data-name="-
" transform="translate(-11 0)" fill="#12263f" font-size="16" font-family="Roboto-Regular, Roboto"><tspan x="57.542" y="15">-</tspan></text>
    </g>
    <g id="Group_1078849" data-name="Group 1078849" transform="translate(882 4692.188)">
      <text id="Ansioso_2" data-name="Ansioso
" transform="translate(-11 0)" fill="#12263f" font-size="16" font-family="Roboto-Regular, Roboto"><tspan x="30.8" y="15">Ansioso</tspan></text>
    </g>
    <g id="Group_1078841" data-name="Group 1078841" transform="translate(882 4501.535)">
      <text id="Poco_ruidoso_3" data-name="Poco ruidoso
" transform="translate(-11 0)" fill="#12263f" font-size="16" font-family="Roboto-Regular, Roboto"><tspan x="12.64" y="15">Poco ruidoso</tspan></text>
    </g>
    <g id="Group_1078845" data-name="Group 1078845" transform="translate(882 4599.569)">
      <text id="Poco_ruidoso_4" data-name="Poco ruidoso
" transform="translate(-11 0)" fill="#12263f" font-size="16" font-family="Roboto-Regular, Roboto"><tspan x="12.64" y="15">Poco ruidoso</tspan></text>
    </g>
    <g id="Group_1078837" data-name="Group 1078837" transform="translate(882 4408.917)">
      <text id="Ruidoso_2" data-name="Ruidoso
" transform="translate(-11 0)" fill="#12263f" font-size="16" font-family="Roboto-Regular, Roboto"><tspan x="30.71" y="15">Ruidoso</tspan></text>
    </g>
  </g>
</svg>
