<svg xmlns="http://www.w3.org/2000/svg" xmlns:xlink="http://www.w3.org/1999/xlink" width="400" height="339" viewBox="0 0 400 339">
  <defs>
    <clipPath id="clip-path">
      <rect id="Rectangle_381427" data-name="Rectangle 381427" width="400" height="339" transform="translate(180 6286)" fill="#fff" stroke="#707070" stroke-width="1"/>
    </clipPath>
    <clipPath id="clip-path-2">
      <rect id="Rectangle_381426" data-name="Rectangle 381426" width="352.698" height="342.786" fill="none"/>
    </clipPath>
    <clipPath id="clip-path-7">
      <rect id="Rectangle_381423" data-name="Rectangle 381423" width="68.041" height="57.716" fill="none"/>
    </clipPath>
    <clipPath id="clip-path-8">
      <rect id="Rectangle_381424" data-name="Rectangle 381424" width="29.94" height="73.817" fill="none"/>
    </clipPath>
  </defs>
  <g id="Mask_Group_479" data-name="Mask Group 479" transform="translate(-180 -6286)" clip-path="url(#clip-path)">
    <g id="Group_1078898" data-name="Group 1078898" transform="translate(210.292 6281.214)">
      <g id="Group_1078897" data-name="Group 1078897" transform="translate(0)" clip-path="url(#clip-path-2)">
        <g id="Group_1078884" data-name="Group 1078884">
          <g id="Group_1078883" data-name="Group 1078883" clip-path="url(#clip-path-2)">
            <path id="Path_832003" data-name="Path 832003" d="M255.791,221.624l89.19-.834,27.029-.127,7.349.016,1.911.026a4.327,4.327,0,0,1,.651.034,4.078,4.078,0,0,1-.651.041l-1.911.045-7.349.09-27.028.143-89.193.055c-34.811,0-66.336.041-89.156.205-11.41.08-20.645.185-27.027.3-3.191.06-5.668.122-7.349.186A13.957,13.957,0,0,0,129.7,222a13.878,13.878,0,0,0,2.563.163c1.68.046,4.159.084,7.35.112,6.383.056,15.618.069,27.028.036,22.821-.064,54.344-.333,89.154-.684" transform="translate(-129.695 -49.719)" fill="#f5f5f5"/>
            <path id="Path_832004" data-name="Path 832004" d="M255.464,225.966l87.971-14.3,26.681-4.2,7.263-1.091,1.892-.263a3.978,3.978,0,0,1,.649-.063,4.04,4.04,0,0,1-.636.14l-1.88.334-7.246,1.2-26.676,4.225-88.1,13.517c-34.39,5.25-65.524,10.052-88.041,13.661-11.259,1.8-20.365,3.3-26.649,4.385-3.143.542-5.58.978-7.229,1.3a13.58,13.58,0,0,0-2.5.576,13.636,13.636,0,0,0,2.559-.223c1.668-.207,4.122-.543,7.279-1,6.314-.907,15.44-2.288,26.706-4.045,22.534-3.509,53.63-8.539,87.96-14.147" transform="translate(-128.675 -46.424)" fill="#f5f5f5"/>
            <path id="Path_832005" data-name="Path 832005" d="M254.464,230.1l84.555-27.591,25.666-8.236,7-2.188,1.826-.548a3.842,3.842,0,0,1,.631-.16,3.959,3.959,0,0,1-.606.236l-1.8.618-6.959,2.3-25.659,8.256L254.3,229.612c-33.11,10.447-63.079,19.952-84.73,26.962-10.826,3.5-19.575,6.379-25.606,8.411-3.015,1.016-5.352,1.821-6.928,2.388a13.441,13.441,0,0,0-2.375.953,13.413,13.413,0,0,0,2.491-.61c1.614-.459,3.983-1.166,7.027-2.1,6.089-1.862,14.877-4.622,25.718-8.081,21.684-6.914,51.577-16.642,84.569-27.436" transform="translate(-125.758 -43.12)" fill="#f5f5f5"/>
            <path id="Path_832006" data-name="Path 832006" d="M252.8,234.012l79.037-40.172,24.014-12.06,6.553-3.231,1.714-.822a3.9,3.9,0,0,1,.6-.256,4.051,4.051,0,0,1-.56.325l-1.68.885-6.5,3.33-24,12.077-79.41,39.473c-31.005,15.382-59.06,29.355-79.307,39.589-10.125,5.114-18.3,9.291-23.926,12.219-2.814,1.464-4.991,2.615-6.457,3.415a13.531,13.531,0,0,0-2.193,1.3,13.466,13.466,0,0,0,2.36-.986c1.518-.7,3.744-1.762,6.6-3.148,5.711-2.771,13.942-6.841,24.088-11.916,20.294-10.145,48.24-24.321,79.076-40.023" transform="translate(-120.999 -39.987)" fill="#f5f5f5"/>
            <path id="Path_832007" data-name="Path 832007" d="M250.507,237.643l71.6-51.686,21.777-15.56,5.953-4.188,1.561-1.071a3.864,3.864,0,0,1,.548-.344,4.037,4.037,0,0,1-.5.407l-1.518,1.129-5.886,4.277-21.767,15.574L250.2,237.231c-28.15,19.9-53.614,37.966-71.966,51.15-9.177,6.59-16.579,11.957-21.666,15.7-2.543,1.874-4.508,3.342-5.828,4.354a13.3,13.3,0,0,0-1.956,1.619,13.413,13.413,0,0,0,2.173-1.332c1.387-.923,3.415-2.309,6.012-4.111,5.194-3.6,12.67-8.875,21.876-15.428,18.413-13.1,43.736-31.351,71.667-51.544" transform="translate(-114.51 -37.13)" fill="#f5f5f5"/>
            <path id="Path_832008" data-name="Path 832008" d="M247.632,240.891l62.463-61.88,19.022-18.662,5.21-5.037,1.371-1.3a4.057,4.057,0,0,1,.486-.422,3.857,3.857,0,0,1-.429.477l-1.319,1.345-5.13,5.114L310.3,179.2l-63.038,61.326c-24.622,23.917-46.884,45.609-62.9,61.406-8.011,7.9-14.464,14.318-18.89,18.788-2.213,2.235-3.919,3.983-5.06,5.183a13.037,13.037,0,0,0-1.673,1.895,13.421,13.421,0,0,0,1.933-1.645c1.222-1.122,3-2.8,5.28-4.97,4.555-4.346,11.1-10.682,19.141-18.547,16.092-15.727,38.187-37.58,62.547-61.749" transform="translate(-106.452 -34.607)" fill="#f5f5f5"/>
            <path id="Path_832009" data-name="Path 832009" d="M244.267,243.655l51.8-70.57,15.8-21.311,4.341-5.763,1.147-1.487a3.844,3.844,0,0,1,.413-.49,3.941,3.941,0,0,1-.348.536c-.259.363-.619.87-1.087,1.528l-4.249,5.828L296.3,173.247l-52.457,70.11c-20.5,27.347-39.015,52.141-52.311,70.167-6.65,9.013-12,16.33-15.653,21.415-1.828,2.543-3.234,4.526-4.169,5.885a12.829,12.829,0,0,0-1.349,2.125A13.173,13.173,0,0,0,172,341.031c1.029-1.293,2.52-3.217,4.422-5.708,3.8-4.981,9.251-12.229,15.939-21.215,13.38-17.968,31.708-42.9,51.9-70.454" transform="translate(-97.044 -32.453)" fill="#f5f5f5"/>
            <path id="Path_832010" data-name="Path 832010" d="M240.518,245.85l39.806-77.575,12.183-23.45c1.451-2.743,2.581-4.877,3.361-6.352l.894-1.642a3.792,3.792,0,0,1,.33-.548,3.836,3.836,0,0,1-.257.583l-.827,1.675-3.258,6.4c-2.884,5.56-7.036,13.567-12.165,23.458L240.049,245.62c-15.845,30.125-30.148,57.427-40.381,77.253-5.118,9.911-9.222,17.953-12.015,23.53-1.4,2.79-2.466,4.963-3.171,6.446a12.606,12.606,0,0,0-.99,2.3,12.9,12.9,0,0,0,1.318-2.144c.809-1.432,1.972-3.56,3.45-6.308,2.956-5.5,7.171-13.485,12.331-23.376,10.324-19.781,24.416-47.187,39.927-77.475" transform="translate(-86.538 -30.707)" fill="#f5f5f5"/>
            <path id="Path_832011" data-name="Path 832011" d="M236.485,247.426c10.446-32.292,19.9-61.514,26.751-82.7,3.472-10.55,6.283-19.09,8.235-25.021.989-2.931,1.76-5.211,2.292-6.786.266-.757.471-1.34.617-1.759a3.706,3.706,0,0,1,.237-.59,3.721,3.721,0,0,1-.16.614c-.129.424-.311,1.014-.545,1.781-.507,1.583-1.239,3.875-2.181,6.82l-8.215,25.027L235.984,247.27c-10.771,32.173-20.478,61.322-27.374,82.465-3.45,10.571-6.2,19.139-8.056,25.075-.927,2.968-1.631,5.278-2.087,6.851a12.538,12.538,0,0,0-.6,2.427,12.677,12.677,0,0,0,.955-2.318c.566-1.539,1.371-3.818,2.386-6.758,2.03-5.882,4.9-14.414,8.394-24.97,6.994-21.113,16.473-50.333,26.887-82.616" transform="translate(-75.195 -29.421)" fill="#f5f5f5"/>
            <path id="Path_832012" data-name="Path 832012" d="M232.238,248.359c5.089-33.487,9.694-63.791,13.032-85.756,1.721-10.949,3.114-19.813,4.081-25.968.5-3.046.894-5.416,1.164-7.052l.325-1.831a3.688,3.688,0,0,1,.138-.62,3.847,3.847,0,0,1-.059.632c-.059.438-.143,1.048-.251,1.841-.243,1.64-.6,4.016-1.05,7.069-.963,6.156-2.35,15.02-4.062,25.971-3.545,21.934-8.435,52.2-13.839,85.636-5.427,33.419-10.293,63.69-13.68,85.624-1.7,10.967-3.025,19.849-3.9,25.995-.435,3.073-.757,5.462-.953,7.085a12.535,12.535,0,0,0-.2,2.489,12.674,12.674,0,0,0,.567-2.436c.311-1.606.736-3.979,1.261-7.038,1.053-6.119,2.5-14.983,4.246-25.943,3.489-21.919,8.12-52.225,13.18-85.7" transform="translate(-63.262 -28.645)" fill="#f5f5f5"/>
            <path id="Path_832013" data-name="Path 832013" d="M227.066,248.635c-.314-33.848-.6-64.48-.8-86.683-.047-11.076-.087-20.043-.114-26.27.009-3.084.017-5.485.022-7.142.012-.8.021-1.416.027-1.858a3.746,3.746,0,0,1,.036-.633,3.888,3.888,0,0,1,.042.633c.01.441.025,1.057.044,1.857.02,1.657.05,4.057.088,7.142.03,6.226.075,15.193.129,26.27,0,22.2,0,52.836,0,86.686-.026,33.833,0,64.471.156,86.65.075,11.09.178,20.065.3,26.267.06,3.1.123,5.51.187,7.143a12.792,12.792,0,0,0,.192,2.49,12.765,12.765,0,0,0,.169-2.491c.049-1.634.09-4.042.121-7.143.061-6.2.081-15.179.053-26.27-.051-22.179-.309-52.816-.648-86.648" transform="translate(-50.223 -28.401)" fill="#f5f5f5"/>
            <path id="Path_832014" data-name="Path 832014" d="M211.573,248.24l-14.659-85.507L192.6,136.8l-1.118-7.059c-.115-.792-.2-1.4-.269-1.84a3.785,3.785,0,0,1-.064-.631,3.63,3.63,0,0,1,.144.618c.081.435.2,1.04.342,1.828.286,1.634.7,4,1.231,7.041l4.33,25.93c3.548,21.934,8.443,52.2,13.853,85.634,5.38,33.427,10.3,63.689,14,85.576,1.847,10.943,3.385,19.794,4.495,25.9.555,3.055,1,5.424,1.329,7.027a12.7,12.7,0,0,0,.59,2.43,12.5,12.5,0,0,0-.228-2.487c-.212-1.621-.556-4.007-1.02-7.075-.93-6.137-2.345-15.007-4.146-25.958-3.6-21.9-8.752-52.128-14.5-85.5" transform="translate(-26.871 -28.676)" fill="#f5f5f5"/>
            <path id="Path_832015" data-name="Path 832015" d="M196.062,247.189l-28.336-82.2-8.458-24.95c-.971-2.937-1.725-5.222-2.247-6.8-.242-.764-.429-1.353-.562-1.776a3.681,3.681,0,0,1-.165-.613,3.7,3.7,0,0,1,.242.588c.151.417.362,1,.634,1.752.548,1.57,1.34,3.843,2.358,6.765l8.478,24.943,27.552,82.447c10.727,32.187,20.489,61.319,27.688,82.366,3.6,10.524,6.55,19.029,8.638,24.891,1.043,2.931,1.871,5.2,2.452,6.735a12.583,12.583,0,0,0,.979,2.309,12.444,12.444,0,0,0-.627-2.422c-.471-1.568-1.2-3.871-2.153-6.831-1.912-5.919-4.746-14.461-8.3-25-7.1-21.079-17.091-50.138-28.176-82.21" transform="translate(-3.706 -29.484)" fill="#f5f5f5"/>
            <path id="Path_832016" data-name="Path 832016" d="M181.332,245.5l-41.284-76.842-12.393-23.345-3.321-6.371c-.364-.718-.644-1.271-.844-1.667a3.771,3.771,0,0,1-.263-.58,3.759,3.759,0,0,1,.335.545l.909,1.634c.794,1.466,1.944,3.59,3.423,6.321l12.41,23.337,40.564,77.2c15.808,30.144,30.166,57.419,40.683,77.1,5.256,9.843,9.548,17.791,12.558,23.261,1.5,2.735,2.688,4.852,3.51,6.277a13.026,13.026,0,0,0,1.337,2.132,12.7,12.7,0,0,0-1.013-2.295c-.72-1.477-1.81-3.639-3.234-6.415-2.848-5.552-7.03-13.555-12.245-23.419-10.426-19.73-24.994-46.9-41.131-76.878" transform="translate(18.275 -30.8)" fill="#f5f5f5"/>
            <path id="Path_832017" data-name="Path 832017" d="M167.785,243.2l-53.136-69.624-16-21.175-4.306-5.788-1.1-1.518a3.731,3.731,0,0,1-.353-.533,3.884,3.884,0,0,1,.418.487l1.161,1.476,4.4,5.723,16.011,21.165c13.443,17.953,31.988,42.722,52.482,70.091,20.462,27.372,39.031,52.129,52.584,69.974,6.775,8.924,12.293,16.121,16.145,21.068,1.927,2.474,3.436,4.384,4.477,5.667a13.12,13.12,0,0,0,1.665,1.9,12.944,12.944,0,0,0-1.37-2.113c-.948-1.349-2.373-3.32-4.226-5.845-3.705-5.052-9.123-12.321-15.861-21.271-13.47-17.9-32.229-42.526-52.99-69.684" transform="translate(38.5 -32.572)" fill="#f5f5f5"/>
            <path id="Path_832018" data-name="Path 832018" d="M155.728,240.345,92.1,179.6l-19.19-18.5-5.18-5.067L66.4,154.7a3.957,3.957,0,0,1-.435-.473,3.906,3.906,0,0,1,.49.418l1.384,1.282,5.259,4.989L92.3,179.4l63.061,61.3c24.593,23.945,46.9,45.595,63.143,61.174,8.121,7.791,14.723,14.067,19.321,18.371,2.3,2.152,4.095,3.811,5.328,4.922A13.293,13.293,0,0,0,245.1,326.8a13.1,13.1,0,0,0-1.691-1.879c-1.154-1.188-2.876-2.921-5.111-5.135-4.468-4.43-10.984-10.791-19.072-18.614-16.172-15.649-38.643-37.137-63.5-60.827" transform="translate(56.499 -34.75)" fill="#f5f5f5"/>
            <path id="Path_832019" data-name="Path 832019" d="M145.425,237.019,72.847,186.633,50.93,171.258,45,167.036l-1.528-1.116a3.888,3.888,0,0,1-.5-.4,4.2,4.2,0,0,1,.552.339l1.572,1.057,5.993,4.134,21.928,15.359,72.1,51.026c28.126,19.937,53.625,37.951,72.164,50.884,9.269,6.469,16.8,11.67,22.025,15.226,2.615,1.779,4.655,3.146,6.052,4.056a13.391,13.391,0,0,0,2.185,1.313,13.222,13.222,0,0,0-1.972-1.6c-1.329-1-3.309-2.451-5.871-4.3-5.123-3.7-12.577-9-21.818-15.5-18.479-13.015-44.116-30.843-72.459-50.488" transform="translate(71.865 -37.294)" fill="#f5f5f5"/>
            <path id="Path_832020" data-name="Path 832020" d="M137.119,233.329,57.327,194.592l-24.12-11.855-6.534-3.27-1.688-.87a3.782,3.782,0,0,1-.563-.321,4.048,4.048,0,0,1,.6.25l1.722.8,6.585,3.172,24.13,11.837,79.425,39.445c30.987,15.419,59.069,29.337,79.462,39.294,10.195,4.981,18.465,8.975,24.2,11.692,2.869,1.359,5.1,2.4,6.631,3.086a13.553,13.553,0,0,0,2.37.964,13.28,13.28,0,0,0-2.2-1.283c-1.473-.786-3.661-1.918-6.49-3.356-5.654-2.876-13.869-6.978-24.043-12-20.346-10.047-48.536-23.76-79.691-38.854" transform="translate(84.23 -40.168)" fill="#f5f5f5"/>
            <path id="Path_832021" data-name="Path 832021" d="M131.032,229.371l-85.07-26.052L20.223,195.3l-6.981-2.231-1.809-.6a4.089,4.089,0,0,1-.607-.23,3.9,3.9,0,0,1,.633.155l1.831.531,7.016,2.124,25.745,8,84.82,26.81c33.1,10.489,63.083,19.942,84.833,26.657,10.874,3.359,19.689,6.039,25.8,7.845,3.053.9,5.429,1.588,7.047,2.033a13.568,13.568,0,0,0,2.5.589,13.419,13.419,0,0,0-2.384-.93c-1.583-.551-3.927-1.334-6.952-2.322-6.05-1.976-14.827-4.771-25.687-8.174-21.718-6.81-51.778-16.041-84.988-26.184" transform="translate(93.267 -43.314)" fill="#f5f5f5"/>
            <path id="Path_832022" data-name="Path 832022" d="M127.341,225.211l-88.228-12.72L12.4,208.508l-7.256-1.136-1.883-.317a4.076,4.076,0,0,1-.638-.134,4.075,4.075,0,0,1,.65.057l1.895.246,7.273,1.025,26.72,3.964,88.1,13.5c34.382,5.3,65.525,10.045,88.092,13.35,11.283,1.655,20.421,2.952,26.744,3.8,3.162.425,5.62.738,7.289.93a13.745,13.745,0,0,0,2.561.2,13.54,13.54,0,0,0-2.506-.553c-1.652-.3-4.093-.717-7.241-1.23-6.3-1.026-15.415-2.443-26.69-4.143-22.551-3.4-53.73-7.925-88.168-12.863" transform="translate(98.721 -46.622)" fill="#f5f5f5"/>
            <path id="Path_832023" data-name="Path 832023" d="M126.13,220.492l-89.19.726-27.029.1-7.349-.026L.652,221.26A4.152,4.152,0,0,1,0,221.224a4.257,4.257,0,0,1,.652-.04l1.91-.043,7.349-.081,27.029-.109,89.193.052c34.812.046,66.336.039,89.157-.1,11.41-.066,20.645-.16,27.027-.273,3.191-.055,5.668-.115,7.349-.177a13.848,13.848,0,0,0,2.562-.185,13.8,13.8,0,0,0-2.563-.166c-1.68-.049-4.159-.091-7.349-.122-6.383-.064-15.618-.088-27.029-.068-22.821.036-54.345.268-89.155.576" transform="translate(100.471 -49.549)" fill="#f5f5f5"/>
            <path id="Path_832024" data-name="Path 832024" d="M127.386,205.195,39.4,219.387,12.71,223.56l-7.263,1.082-1.893.26a4.018,4.018,0,0,1-.648.062,4,4,0,0,1,.635-.139l1.882-.332,7.246-1.192,26.682-4.192L127.47,205.7c34.4-5.207,65.538-9.971,88.059-13.552,11.262-1.789,20.369-3.277,26.655-4.352,3.143-.538,5.581-.972,7.231-1.288a13.563,13.563,0,0,0,2.5-.572,13.673,13.673,0,0,0-2.56.22c-1.668.205-4.123.538-7.281.988-6.315.9-15.443,2.269-26.711,4.012-22.539,3.481-53.642,8.474-87.979,14.039" transform="translate(98.532 -41.89)" fill="#f5f5f5"/>
            <path id="Path_832025" data-name="Path 832025" d="M131.124,190.12l-84.59,27.487-25.678,8.2-7,2.18-1.827.546a3.876,3.876,0,0,1-.631.16,3.824,3.824,0,0,1,.606-.236l1.8-.616,6.962-2.287,25.67-8.224,84.849-26.725c33.124-10.4,63.105-19.874,84.766-26.858,10.83-3.489,19.583-6.354,25.617-8.379,3.017-1.012,5.354-1.814,6.931-2.378a13.375,13.375,0,0,0,2.377-.951,13.43,13.43,0,0,0-2.492.607c-1.614.457-3.985,1.161-7.03,2.089-6.091,1.854-14.883,4.6-25.729,8.048-21.694,6.888-51.6,16.579-84.6,27.332" transform="translate(92.886 -34.255)" fill="#f5f5f5"/>
            <path id="Path_832026" data-name="Path 832026" d="M137.261,175.829,58.171,215.9l-24.028,12.03-6.557,3.223-1.716.82a3.977,3.977,0,0,1-.6.255,4,4,0,0,1,.561-.325l1.68-.883L34.02,227.7l24.019-12.047L137.5,176.28c31.025-15.344,59.1-29.282,79.358-39.49,10.132-5.1,18.311-9.269,23.942-12.19,2.815-1.461,4.994-2.61,6.461-3.408a13.331,13.331,0,0,0,2.194-1.3,13.526,13.526,0,0,0-2.36.984c-1.52.7-3.746,1.757-6.6,3.139-5.715,2.764-13.951,6.824-24.1,11.886-20.308,10.12-48.272,24.262-79.128,39.926" transform="translate(83.663 -27.012)" fill="#f5f5f5"/>
            <path id="Path_832027" data-name="Path 832027" d="M145.607,162.691l-71.672,51.6-21.8,15.532L46.179,234l-1.563,1.07a3.97,3.97,0,0,1-.549.343,3.974,3.974,0,0,1,.5-.406l1.519-1.128,5.891-4.269,21.787-15.547L145.918,163.1c28.175-19.869,53.662-37.9,72.031-51.062,9.186-6.579,16.6-11.937,21.687-15.678,2.546-1.871,4.513-3.337,5.833-4.348a13.2,13.2,0,0,0,1.958-1.617,13.487,13.487,0,0,0-2.175,1.33c-1.388.921-3.417,2.3-6.017,4.1-5.2,3.6-12.682,8.859-21.9,15.4-18.431,13.081-43.777,31.3-71.734,51.457" transform="translate(71.131 -20.367)" fill="#f5f5f5"/>
            <path id="Path_832028" data-name="Path 832028" d="M155.946,151.012,93.4,212.816,74.357,231.455l-5.217,5.031-1.372,1.293a4.072,4.072,0,0,1-.487.422,3.883,3.883,0,0,1,.431-.476l1.32-1.343,5.136-5.108L93.2,212.621l63.117-61.25c24.653-23.887,46.943-45.552,62.982-61.33,8.022-7.887,14.484-14.3,18.915-18.765,2.216-2.233,3.924-3.978,5.067-5.176a12.957,12.957,0,0,0,1.675-1.893,13.279,13.279,0,0,0-1.934,1.643c-1.224,1.12-3.007,2.794-5.287,4.964-4.561,4.34-11.11,10.668-19.164,18.523-16.113,15.708-38.235,37.533-62.626,61.673" transform="translate(55.616 -14.466)" fill="#f5f5f5"/>
            <path id="Path_832029" data-name="Path 832029" d="M168.033,141.049l-51.889,70.506-15.832,21.291L95.964,238.6l-1.149,1.484a3.848,3.848,0,0,1-.413.49,3.694,3.694,0,0,1,.347-.535c.26-.363.621-.87,1.09-1.527.989-1.351,2.419-3.308,4.257-5.823l15.817-21.3,52.548-70.045c20.531-27.322,39.082-52.093,52.4-70.1,6.661-9,12.018-16.316,15.68-21.4,1.831-2.54,3.24-4.523,4.177-5.88a12.73,12.73,0,0,0,1.352-2.123,13.09,13.09,0,0,0-1.649,1.915c-1.03,1.291-2.523,3.214-4.429,5.7-3.811,4.977-9.267,12.218-15.967,21.2-13.4,17.952-31.762,42.857-51.993,70.39" transform="translate(37.492 -9.428)" fill="#f5f5f5"/>
            <path id="Path_832030" data-name="Path 832030" d="M181.606,133.032,141.7,210.558l-12.213,23.435-3.369,6.348-.9,1.641a3.744,3.744,0,0,1-.33.547,3.743,3.743,0,0,1,.258-.583c.2-.4.472-.953.83-1.673.758-1.485,1.856-3.635,3.267-6.4l12.2-23.443c10.409-19.765,24.768-47.034,40.635-77.167,15.884-30.106,30.224-57.39,40.482-77.2,5.131-9.905,9.246-17.941,12.046-23.516,1.4-2.788,2.472-4.96,3.179-6.442a12.771,12.771,0,0,0,.993-2.3,12.854,12.854,0,0,0-1.322,2.142c-.81,1.432-1.975,3.557-3.457,6.305-2.963,5.494-7.188,13.476-12.362,23.361-10.35,19.768-24.477,47.157-40.028,77.426" transform="translate(17.169 -5.362)" fill="#f5f5f5"/>
            <path id="Path_832031" data-name="Path 832031" d="M196.346,127.179l-26.86,82.663c-3.485,10.545-6.307,19.083-8.267,25.01l-2.3,6.784c-.267.756-.473,1.34-.62,1.758a3.707,3.707,0,0,1-.238.59,3.688,3.688,0,0,1,.16-.614c.13-.423.311-1.013.548-1.78l2.19-6.817c1.955-5.93,4.771-14.468,8.248-25.016,7.08-21.111,16.846-50.236,27.639-82.419,10.814-32.16,20.559-61.3,27.482-82.431,3.464-10.567,6.226-19.132,8.088-25.066.931-2.966,1.638-5.275,2.1-6.847a12.5,12.5,0,0,0,.607-2.427,12.576,12.576,0,0,0-.958,2.318c-.569,1.538-1.376,3.814-2.395,6.754-2.037,5.879-4.918,14.406-8.426,24.96-7.022,21.1-16.539,50.313-27,82.582" transform="translate(-4.878 -2.38)" fill="#f5f5f5"/>
            <path id="Path_832032" data-name="Path 832032" d="M211.858,123.66c-5.132,33.48-9.777,63.778-13.143,85.74-1.735,10.947-3.14,19.809-4.115,25.964-.507,3.044-.9,5.414-1.173,7.05-.141.789-.249,1.4-.327,1.831a3.829,3.829,0,0,1-.139.62,3.644,3.644,0,0,1,.059-.632c.06-.437.144-1.048.253-1.841.246-1.641.6-4.015,1.06-7.068l4.095-25.966c3.574-21.931,8.5-52.186,13.95-85.62,5.472-33.412,10.377-63.677,13.792-85.607,1.71-10.965,3.051-19.845,3.931-25.99.439-3.072.763-5.46.961-7.083a12.629,12.629,0,0,0,.208-2.488A12.57,12.57,0,0,0,230.7,5c-.312,1.606-.741,3.979-1.27,7.037-1.06,6.118-2.524,14.979-4.28,25.937-3.517,21.915-8.188,52.215-13.29,85.682" transform="translate(-28.075 -0.579)" fill="#f5f5f5"/>
            <path id="Path_832033" data-name="Path 832033" d="M227.739,122.552c.27,33.849.514,64.48.691,86.683.034,11.076.061,20.043.081,26.27-.014,3.085-.024,5.485-.031,7.142-.013.8-.023,1.416-.029,1.858a3.893,3.893,0,0,1-.037.633,3.865,3.865,0,0,1-.041-.633c-.01-.442-.024-1.057-.042-1.857-.019-1.658-.045-4.058-.079-7.143-.022-6.226-.055-15.192-.1-26.269.029-22.2.067-52.836.11-86.686.069-33.833.081-64.471-.044-86.651-.06-11.09-.152-20.065-.263-26.268-.056-3.1-.115-5.51-.178-7.142A12.668,12.668,0,0,0,227.591,0a12.771,12.771,0,0,0-.172,2.491c-.051,1.633-.1,4.042-.129,7.143-.07,6.2-.1,15.179-.087,26.269.022,22.18.24,52.817.536,86.649" transform="translate(-51.822 0)" fill="#f5f5f5"/>
            <path id="Path_832034" data-name="Path 832034" d="M231.94,123.843c5.68,33.4,10.82,63.619,14.546,85.526,1.8,10.936,3.262,19.79,4.276,25.938l1.109,7.061c.115.792.2,1.4.267,1.84a3.659,3.659,0,0,1,.063.631,3.821,3.821,0,0,1-.143-.619c-.081-.435-.193-1.04-.339-1.828l-1.222-7.043c-1.019-6.147-2.485-15-4.3-25.936-3.519-21.939-8.374-52.205-13.74-85.651-5.336-33.433-10.217-63.7-13.887-85.593-1.833-10.946-3.358-19.8-4.461-25.909-.552-3.055-1-5.425-1.32-7.029a12.667,12.667,0,0,0-.587-2.431,12.523,12.523,0,0,0,.225,2.488c.21,1.621.55,4.007,1.011,7.077.922,6.139,2.325,15.01,4.111,25.963,3.568,21.908,8.684,52.139,14.388,85.515" transform="translate(-63.882 -0.631)" fill="#f5f5f5"/>
            <path id="Path_832035" data-name="Path 832035" d="M236.2,127.547l28.226,82.231c3.552,10.524,6.428,19.043,8.425,24.96.967,2.938,1.719,5.224,2.238,6.8l.561,1.776a3.681,3.681,0,0,1,.164.614,3.743,3.743,0,0,1-.242-.589c-.15-.417-.359-1-.632-1.753l-2.349-6.768-8.445-24.954L236.7,127.386c-10.684-32.2-20.408-61.344-27.579-82.4-3.584-10.529-6.525-19.037-8.6-24.9-1.04-2.932-1.864-5.2-2.443-6.738a12.6,12.6,0,0,0-.976-2.31,12.464,12.464,0,0,0,.624,2.422c.469,1.57,1.191,3.873,2.144,6.834,1.9,5.922,4.726,14.467,8.265,25.011C215.2,66.39,225.155,95.461,236.2,127.547" transform="translate(-75.797 -2.486)" fill="#f5f5f5"/>
            <path id="Path_832036" data-name="Path 832036" d="M240.255,133.575l41.182,76.893L293.8,233.828l3.313,6.376c.363.718.642,1.272.842,1.668a3.848,3.848,0,0,1,.263.58,3.726,3.726,0,0,1-.334-.545c-.216-.388-.517-.93-.908-1.635-.792-1.468-1.939-3.594-3.414-6.325-2.935-5.534-7.16-13.506-12.38-23.352L240.72,133.342c-15.768-30.163-30.09-57.456-40.581-77.154-5.244-9.849-9.525-17.8-12.527-23.277-1.5-2.738-2.681-4.855-3.5-6.282a12.97,12.97,0,0,0-1.335-2.133,12.78,12.78,0,0,0,1.011,2.3c.718,1.477,1.806,3.642,3.226,6.419,2.84,5.556,7.012,13.563,12.214,23.434,10.4,19.743,24.933,46.931,41.03,76.929" transform="translate(-87.109 -5.519)" fill="#f5f5f5"/>
            <path id="Path_832037" data-name="Path 832037" d="M244.029,141.751l53.045,69.69,15.968,21.2,4.3,5.794,1.1,1.519a3.87,3.87,0,0,1,.352.534,3.926,3.926,0,0,1-.418-.488l-1.159-1.477-4.389-5.729-15.983-21.185-52.39-70.156c-20.425-27.4-38.962-52.178-52.492-70.039-6.764-8.932-12.272-16.137-16.117-21.088-1.924-2.476-3.43-4.388-4.47-5.672a13.154,13.154,0,0,0-1.662-1.9,12.887,12.887,0,0,0,1.367,2.114c.947,1.35,2.369,3.323,4.218,5.851C179,55.766,184.4,63.042,191.13,72c13.447,17.921,32.174,42.567,52.9,69.75" transform="translate(-97.565 -9.631)" fill="#f5f5f5"/>
            <path id="Path_832038" data-name="Path 832038" d="M247.426,151.858l63.551,60.824L330.143,231.2l5.173,5.073,1.33,1.334a3.958,3.958,0,0,1,.434.473,3.923,3.923,0,0,1-.49-.418l-1.381-1.284-5.252-5-19.18-18.51L247.8,151.5c-24.562-23.976-46.839-45.652-63.063-61.251-8.111-7.8-14.7-14.085-19.3-18.395-2.3-2.154-4.09-3.816-5.323-4.928a13.292,13.292,0,0,0-1.946-1.63,13.044,13.044,0,0,0,1.69,1.882c1.151,1.19,2.872,2.924,5.1,5.142,4.463,4.435,10.97,10.8,19.047,18.637,16.151,15.67,38.595,37.185,63.417,60.906" transform="translate(-106.91 -14.711)" fill="#f5f5f5"/>
            <path id="Path_832039" data-name="Path 832039" d="M250.333,163.656l72.512,50.476,21.9,15.4,5.922,4.229,1.527,1.118a3.98,3.98,0,0,1,.5.4,3.9,3.9,0,0,1-.552-.339l-1.57-1.059-5.988-4.141-21.908-15.386L250.64,163.242c-28.1-19.971-53.574-38.017-72.1-50.973-9.26-6.48-16.779-11.692-22-15.254-2.612-1.781-4.651-3.151-6.046-4.063a13.452,13.452,0,0,0-2.183-1.315,13.13,13.13,0,0,0,1.969,1.6c1.328,1,3.306,2.455,5.864,4.308,5.118,3.706,12.565,9.014,21.8,15.532,18.462,13.037,44.076,30.9,72.393,50.577" transform="translate(-114.888 -20.646)" fill="#f5f5f5"/>
            <path id="Path_832040" data-name="Path 832040" d="M252.667,176.89l79.741,38.836,24.105,11.884,6.528,3.279,1.688.872a3.833,3.833,0,0,1,.562.322,4.087,4.087,0,0,1-.6-.251l-1.721-.807-6.581-3.179-24.114-11.867-79.373-39.543c-30.966-15.457-59.03-29.412-79.41-39.394-10.189-4.993-18.454-9-24.188-11.722-2.868-1.363-5.1-2.405-6.627-3.094a13.566,13.566,0,0,0-2.369-.967,13.318,13.318,0,0,0,2.2,1.285c1.473.789,3.659,1.923,6.485,3.364,5.651,2.884,13.861,7,24.028,12.029,20.332,10.072,48.5,23.82,79.639,38.953" transform="translate(-121.292 -27.32)" fill="#f5f5f5"/>
            <path id="Path_832041" data-name="Path 832041" d="M254.371,191.252l85.036,26.158,25.728,8.051,6.978,2.24,1.808.6a4.035,4.035,0,0,1,.607.231,3.9,3.9,0,0,1-.632-.156l-1.831-.534-7.013-2.133-25.735-8.033-84.785-26.916c-33.082-10.531-63.056-20.021-84.8-26.763-10.87-3.373-19.68-6.063-25.785-7.877-3.052-.907-5.427-1.6-7.044-2.042a13.638,13.638,0,0,0-2.5-.592,13.441,13.441,0,0,0,2.383.934c1.582.553,3.925,1.339,6.949,2.331,6.048,1.984,14.821,4.789,25.676,8.206,21.71,6.837,51.757,16.106,84.954,26.29" transform="translate(-125.954 -34.582)" fill="#f5f5f5"/>
            <path id="Path_832042" data-name="Path 832042" d="M255.416,206.358l88.211,12.83,26.711,4.016,7.254,1.144,1.883.319a4.037,4.037,0,0,1,.638.135,3.916,3.916,0,0,1-.65-.057l-1.894-.247-7.272-1.035-26.714-4L255.5,205.853c-34.376-5.339-65.512-10.126-88.075-13.459-11.28-1.669-20.417-2.979-26.739-3.836-3.161-.429-5.617-.746-7.287-.94a13.711,13.711,0,0,0-2.56-.2,13.594,13.594,0,0,0,2.5.556c1.652.3,4.092.723,7.239,1.24,6.294,1.034,15.412,2.462,26.685,4.176,22.546,3.433,53.719,7.991,88.151,12.972" transform="translate(-128.772 -42.222)" fill="#f5f5f5"/>
            <path id="Path_832043" data-name="Path 832043" d="M403.21,212.611l-10.63-.526a40.586,40.586,0,1,0,8.594,11.73l.015.018Z" transform="translate(-303.73 -45.289)" fill="#fff"/>
            <path id="Path_832044" data-name="Path 832044" d="M403.22,212.543s-.022.229-.1.706c-.084.514-.2,1.225-.349,2.14-.329,1.948-.8,4.766-1.42,8.4a.156.156,0,0,1-.18.128.163.163,0,0,1-.093-.053l-.015-.017.26-.171a40.361,40.361,0,0,1,4.172,19.147,41.709,41.709,0,0,1-2.45,12.727,40.754,40.754,0,0,1-7.5,12.68,41.616,41.616,0,0,1-12.931,9.887,39.94,39.94,0,0,1-17.093,4.193,41.775,41.775,0,0,1-18.306-3.928,40.021,40.021,0,0,1-15.17-12.433A41.948,41.948,0,0,1,327,257.208c-.576-1.564-1.176-3.121-1.625-4.709l-.578-2.4-.281-1.2-.162-1.217a41.634,41.634,0,0,1,1.532-18.848,39.828,39.828,0,0,1,9.1-15.254,41.687,41.687,0,0,1,13.391-9.481,40.917,40.917,0,0,1,14.429-3.4l3.447,0c1.129.028,2.23.2,3.315.287a36.707,36.707,0,0,1,6.16,1.215,40.335,40.335,0,0,1,16.96,9.7l-.1-.042,7.931.482,2.026.136a5.9,5.9,0,0,1,.665.061s-.256,0-.726-.009l-2.065-.067-7.846-.3a.158.158,0,0,1-.1-.042,40.443,40.443,0,0,0-16.883-9.447,36.429,36.429,0,0,0-6.091-1.16c-1.071-.081-2.158-.243-3.271-.264l-3.4.016a40.454,40.454,0,0,0-14.2,3.412,41.142,41.142,0,0,0-13.144,9.373,39.2,39.2,0,0,0-8.907,15,40.974,40.974,0,0,0-1.479,18.5l.159,1.194.277,1.174.569,2.358c.441,1.558,1.031,3.085,1.6,4.62a41.29,41.29,0,0,0,4.953,8.579,39.3,39.3,0,0,0,14.878,12.205,41.1,41.1,0,0,0,17.964,3.88,39.31,39.31,0,0,0,16.8-4.081,41.086,41.086,0,0,0,12.753-9.685,40.276,40.276,0,0,0,7.442-12.455A41.4,41.4,0,0,0,405,242.809a40.46,40.46,0,0,0-3.956-18.993.157.157,0,0,1,.26-.171l.015.017-.272.074c.686-3.581,1.216-6.357,1.583-8.275.183-.926.325-1.644.428-2.164.1-.49.164-.754.164-.754" transform="translate(-303.74 -45.221)" fill="#e0e0e0"/>
            <path id="Path_832045" data-name="Path 832045" d="M368.689,227.6l1.477,22.835a3.706,3.706,0,0,0,7.382.163l2.5-22.955a2.907,2.907,0,0,0-2.935-3.223l-5.57.085a2.907,2.907,0,0,0-2.857,3.095" transform="translate(-312.983 -50.565)" fill="#e0e0e0"/>
            <path id="Path_832046" data-name="Path 832046" d="M381.217,273.833a5.578,5.578,0,1,1-3.144-5.335,5.582,5.582,0,0,1,3.144,5.335" transform="translate(-315.216 -60.372)" fill="#e0e0e0"/>
            <path id="Path_832047" data-name="Path 832047" d="M132.738,73.6l6.784-4.423a30.884,30.884,0,1,0-10.533-3.388l-.018,0Z" transform="translate(91.051 -1.75)" fill="#fff"/>
            <path id="Path_832048" data-name="Path 832048" d="M132.66,73.52s-.088-.151-.255-.479l-.741-1.473-2.878-5.812a.118.118,0,0,1,.053-.159.127.127,0,0,1,.081-.009l.017,0-.083.222a30.718,30.718,0,0,1-11.122-9.933,31.745,31.745,0,0,1-4.175-8.935,31.026,31.026,0,0,1-1.043-11.162,31.669,31.669,0,0,1,3.55-11.866A30.394,30.394,0,0,1,124.723,13.7a31.785,31.785,0,0,1,13.033-5.755,30.45,30.45,0,0,1,14.9.885,31.961,31.961,0,0,1,7.014,3.134c1.054.707,2.119,1.4,3.1,2.175l1.43,1.223.708.612.643.677a31.7,31.7,0,0,1,7.474,12.3,30.315,30.315,0,0,1,1.2,13.462,31.712,31.712,0,0,1-4.016,11.822,31.133,31.133,0,0,1-7.371,8.538l-2.126,1.538c-.707.487-1.462.875-2.17,1.3a27.96,27.96,0,0,1-4.338,2,30.684,30.684,0,0,1-14.782,1.6l.079-.018-5.1,3.245-1.308.821a4.4,4.4,0,0,1-.438.26s.156-.118.451-.319l1.3-.882L139.38,69a.12.12,0,0,1,.079-.018,30.782,30.782,0,0,0,14.621-1.72,27.752,27.752,0,0,0,4.271-2.006c.7-.428,1.438-.814,2.133-1.3q1.026-.751,2.087-1.528a30.766,30.766,0,0,0,7.223-8.443,31.31,31.31,0,0,0,3.912-11.644,29.821,29.821,0,0,0-1.214-13.222,31.168,31.168,0,0,0-7.353-12.06l-.631-.665-.7-.6-1.4-1.2c-.967-.762-2.013-1.439-3.047-2.133a31.334,31.334,0,0,0-6.883-3.073,29.911,29.911,0,0,0-14.617-.875,31.272,31.272,0,0,0-12.8,5.633,29.89,29.89,0,0,0-8.529,10.018A31.244,31.244,0,0,0,113,35.829a30.646,30.646,0,0,0,.978,11,31.507,31.507,0,0,0,4.067,8.842A30.784,30.784,0,0,0,128.966,65.6a.119.119,0,0,1-.083.222l-.017,0,.134-.167,2.721,5.8c.3.652.535,1.157.7,1.525.158.346.236.538.236.538" transform="translate(91.129 -1.668)" fill="#e0e0e0"/>
            <path id="Path_832049" data-name="Path 832049" d="M145.226,29.088l.666,17.4a2.82,2.82,0,0,0,5.612.271l2.364-17.411a2.212,2.212,0,0,0-2.168-2.51l-4.239-.046a2.212,2.212,0,0,0-2.235,2.3" transform="translate(86.306 -6.036)" fill="#e0e0e0"/>
            <path id="Path_832050" data-name="Path 832050" d="M155.695,64.453a4.245,4.245,0,1,1-2.285-4.121,4.248,4.248,0,0,1,2.285,4.121" transform="translate(82.939 -13.488)" fill="#e0e0e0"/>
            <path id="Path_832051" data-name="Path 832051" d="M27.7,293.81l1.336,7.15a27.738,27.738,0,1,0,6.435-7.573l.009-.013Z" transform="translate(252.36 -64.689)" fill="#fff"/>
            <path id="Path_832052" data-name="Path 832052" d="M27.585,293.758s.156-.021.485-.047l1.477-.107,5.811-.389a.107.107,0,0,1,.114.1.116.116,0,0,1-.02.07l-.009.012-.155-.146a27.589,27.589,0,0,1,12.066-5.809,28.5,28.5,0,0,1,8.848-.389,27.847,27.847,0,0,1,9.618,2.975,28.426,28.426,0,0,1,8.622,7.027,27.288,27.288,0,0,1,5.5,10.7,28.561,28.561,0,0,1,.291,12.792A27.338,27.338,0,0,1,74.37,332.6a28.68,28.68,0,0,1-5.012,4.74c-.949.631-1.889,1.277-2.873,1.826l-1.506.765-.751.377-.783.3a28.457,28.457,0,0,1-12.771,1.969,27.222,27.222,0,0,1-11.583-3.632,28.517,28.517,0,0,1-8.425-7.4,27.969,27.969,0,0,1-4.547-9.053q-.277-1.164-.545-2.292c-.16-.755-.222-1.514-.335-2.249a25.145,25.145,0,0,1-.168-4.288,27.549,27.549,0,0,1,3.76-12.812l-.012.071-.937-5.348-.231-1.367a3.892,3.892,0,0,1-.065-.452s.044.17.109.483c.069.335.163.794.284,1.384.243,1.226.594,2.993,1.045,5.263a.107.107,0,0,1-.012.071,27.638,27.638,0,0,0-3.6,12.72,24.969,24.969,0,0,0,.194,4.233c.116.725.181,1.474.343,2.216q.27,1.109.549,2.257a27.637,27.637,0,0,0,4.519,8.9,28.107,28.107,0,0,0,8.314,7.251,26.8,26.8,0,0,0,11.386,3.543,28.01,28.01,0,0,0,12.534-1.951l.768-.3.737-.37,1.477-.752c.965-.54,1.887-1.174,2.818-1.793a28.2,28.2,0,0,0,4.918-4.652,26.86,26.86,0,0,0,5.754-11.826,28.064,28.064,0,0,0-.269-12.556,26.837,26.837,0,0,0-5.376-10.521,28.07,28.07,0,0,0-8.46-6.942,27.524,27.524,0,0,0-9.459-2.972,28.286,28.286,0,0,0-8.734.332,27.649,27.649,0,0,0-12,5.64.108.108,0,0,1-.15-.014.109.109,0,0,1,0-.132l.009-.012.093.169-5.752.26-1.506.06c-.342.012-.528.01-.528.01" transform="translate(252.478 -64.638)" fill="#e0e0e0"/>
            <path id="Path_832053" data-name="Path 832053" d="M57.628,306.457l1.77,15.536a2.532,2.532,0,0,0,5.044-.136l.942-15.751a1.986,1.986,0,0,0-2.11-2.1l-3.8.244a1.987,1.987,0,0,0-1.847,2.208" transform="translate(242.676 -68.496)" fill="#e0e0e0"/>
            <path id="Path_832054" data-name="Path 832054" d="M64.616,337.705a3.812,3.812,0,1,1-2.324-3.536,3.815,3.815,0,0,1,2.324,3.536" transform="translate(243.93 -75.226)" fill="#e0e0e0"/>
          </g>
        </g>
        <g id="Group_1078886" data-name="Group 1078886">
          <g id="Group_1078885" data-name="Group 1078885" clip-path="url(#clip-path-2)">
            <path id="Path_832055" data-name="Path 832055" d="M24.272,439.593c0,.112,70.542.2,157.538.2,87.027,0,157.554-.09,157.554-.2s-70.527-.2-157.554-.2c-87,0-157.538.09-157.538.2" transform="translate(-5.47 -99.002)" fill="#263238"/>
          </g>
        </g>
        <path id="Path_832056" data-name="Path 832056" d="M372,54.863,394.81,46.1,387.822,71.23,408,76.145,390.375,89.1l18.365,21.507L381.456,106,374.1,126.271l-16.266-17-22.245,8.275,5.023-22.418-22.58-14.442,23.141-8.405-8.233-23.226,19.314,9.317,7.354-22.655Z" transform="translate(-302.419 -8.048)" fill="#fff"/>
        <g id="Group_1078888" data-name="Group 1078888">
          <g id="Group_1078887" data-name="Group 1078887" clip-path="url(#clip-path-2)">
            <path id="Path_832057" data-name="Path 832057" d="M371.8,54.8s-.271-.443-.807-1.284L368.614,49.8l-9.126-14.2-.107-.167-.062.19c-2.029,6.216-4.526,13.869-7.389,22.642l.181-.077-19.3-9.337-.335-.163.124.352,8.216,23.232.1-.218-23.145,8.392-.352.128.315.2,22.574,14.451-.085-.207c-1.6,7.133-3.3,14.7-5.027,22.417l-.081.359.345-.128L357.7,109.4l-.215-.05,1.157,1.209,15.109,15.789.223.233.11-.3q3.748-10.336,7.351-20.273l-.217.126,27.286,4.6.508.086-.335-.392-18.377-21.5-.029.25,17.614-12.969.27-.2-.325-.079-20.181-4.9.1.167q4.093-14.8,6.951-25.141l.051-.186-.179.07L377.661,52.5,373.288,54.2c-.984.386-1.49.595-1.49.595s.5-.176,1.476-.545l4.372-1.655,17-6.475-.128-.116-7.025,25.121-.038.134.136.033,20.172,4.936-.056-.277L390.073,88.9l-.149.109.121.141L408.4,110.665l.174-.306-27.284-4.617-.161-.027-.056.153-7.359,20.27.333-.07-15.108-15.791-1.157-1.209-.092-.1-.124.046L335.32,117.3l.264.231L340.6,95.107l.029-.133-.115-.074L317.933,80.466l-.036.33,23.136-8.417.16-.059-.057-.16c-2.935-8.261-5.716-16.086-8.251-23.22l-.211.189L352,58.426l.136.065.046-.143,7.32-22.666-.169.022,9.237,14.181,2.407,3.676c.542.826.824,1.237.824,1.237" transform="translate(-302.219 -7.984)" fill="#263238"/>
            <path id="Path_832058" data-name="Path 832058" d="M367.194,79.043l1.081,16.725a2.714,2.714,0,0,0,5.407.119l1.834-16.814a2.13,2.13,0,0,0-2.15-2.36l-4.08.063a2.129,2.129,0,0,0-2.092,2.267" transform="translate(-307.288 -17.285)" fill="#7816c2"/>
            <path id="Path_832059" data-name="Path 832059" d="M376.371,112.907a4.086,4.086,0,1,1-2.3-3.908,4.089,4.089,0,0,1,2.3,3.908" transform="translate(-308.924 -24.468)" fill="#7816c2"/>
          </g>
        </g>
        <g id="Group_1078896" data-name="Group 1078896">
          <g id="Group_1078895" data-name="Group 1078895" clip-path="url(#clip-path-2)">
            <path id="Path_832060" data-name="Path 832060" d="M143.922,267.791s16.134,35.9,16.934,56.88-9.911,28.825-19.442,29.285c-9.3.449-31.534-26.592-31.534-26.592s-5.812-34.072-1.537-38.536,12.268-2.649,12.268-2.649l7.134,9.374-.874-23.934Z" transform="translate(109.085 -60.337)" fill="#ffbf9c"/>
            <path id="Path_832061" data-name="Path 832061" d="M144.71,299.353a1.386,1.386,0,0,0-.063.377c-.028.3-.062.655-.1,1.089-.086.945-.162,2.318-.211,4.016a96.558,96.558,0,0,0,2.931,26.309c.421,1.645.8,2.967,1.089,3.87l.339,1.04a1.378,1.378,0,0,0,.145.354,1.394,1.394,0,0,0-.067-.377c-.072-.287-.16-.637-.266-1.059-.245-.916-.578-2.247-.963-3.9a110.466,110.466,0,0,1-2.923-26.236c.013-1.694.046-3.065.083-4.012.011-.435.019-.8.026-1.092a1.389,1.389,0,0,0-.018-.383" transform="translate(92.072 -67.449)" fill="#ff9b6c"/>
            <path id="Path_832062" data-name="Path 832062" d="M240.084,115.618a8.659,8.659,0,0,0,3.571-16.857,9.008,9.008,0,0,0-7.94-15.144,10.781,10.781,0,0,0-16.306-8.741,12.122,12.122,0,0,0-14.927-.215,8.621,8.621,0,0,0-7.527,14.669" transform="translate(-47.55 -16.267)" fill="#263238"/>
            <path id="Path_832063" data-name="Path 832063" d="M230.611,86.42l1.9-.009a36.738,36.738,0,0,1,36.778,33.617c1.514,17.744,2.957,37.367,2.884,46.89-.153,19.719-19.861,22.876-19.861,22.876l.788,15.459-11.6,9.584-30.767-11.448L201.6,126.318c-1.86-20.465,8.5-38.606,29.009-39.9" transform="translate(-75.493 -19.47)" fill="#ffbf9c"/>
            <path id="Path_832064" data-name="Path 832064" d="M252.69,217.662a47.833,47.833,0,0,1-25.871-7.443s6.142,14.162,25.809,12.3Z" transform="translate(-75.706 -47.366)" fill="#ff9b6c"/>
            <path id="Path_832065" data-name="Path 832065" d="M218.385,153.584a2.815,2.815,0,0,1-2.7,2.853,2.692,2.692,0,0,1-2.914-2.525,2.816,2.816,0,0,1,2.7-2.855,2.7,2.7,0,0,1,2.917,2.527" transform="translate(-30.517 -34.034)" fill="#263238"/>
            <path id="Path_832066" data-name="Path 832066" d="M221.6,141.431c-.347.369-2.487-1.2-5.517-1.178-3.027-.022-5.244,1.548-5.574,1.178-.163-.164.19-.829,1.155-1.538a7.726,7.726,0,0,1,4.461-1.4,7.424,7.424,0,0,1,4.394,1.4c.935.71,1.253,1.374,1.081,1.539" transform="translate(-31.997 -31.205)" fill="#263238"/>
            <path id="Path_832067" data-name="Path 832067" d="M251.458,154.323a2.815,2.815,0,0,1-2.7,2.852,2.693,2.693,0,0,1-2.914-2.525,2.817,2.817,0,0,1,2.7-2.854,2.694,2.694,0,0,1,2.917,2.527" transform="translate(-89.21 -34.201)" fill="#263238"/>
            <path id="Path_832068" data-name="Path 832068" d="M260.046,142.337c-.348.369-2.491-1.2-5.519-1.178-3.027-.022-5.243,1.547-5.574,1.178-.162-.163.188-.828,1.156-1.537a7.724,7.724,0,0,1,4.46-1.4,7.427,7.427,0,0,1,4.395,1.4c.932.71,1.253,1.374,1.082,1.539" transform="translate(-100.223 -31.409)" fill="#263238"/>
            <path id="Path_832069" data-name="Path 832069" d="M226.226,164.792c-.016-.173,1.867-.507,4.917-.911.773-.083,1.505-.241,1.633-.769a3.943,3.943,0,0,0-.527-2.292q-1.1-2.8-2.315-5.881c-3.217-8.374-5.548-15.261-5.21-15.387s3.22,6.558,6.435,14.932q1.161,3.1,2.219,5.917a4.478,4.478,0,0,1,.414,3.034,1.94,1.94,0,0,1-1.266,1.137,5.24,5.24,0,0,1-1.314.188c-3.07.18-4.976.2-4.988.031" transform="translate(-55.303 -31.443)" fill="#263238"/>
            <path id="Path_832070" data-name="Path 832070" d="M257.977,133.816c-.569.653-2.9-.764-5.983-1.613-3.064-.919-5.825-.964-5.922-1.808-.033-.4.68-.937,1.944-1.266a9.6,9.6,0,0,1,4.9.143,9.249,9.249,0,0,1,4.169,2.464c.865.94,1.15,1.765.892,2.08" transform="translate(-95.999 -29.038)" fill="#263238"/>
            <path id="Path_832071" data-name="Path 832071" d="M223.78,121.549c-.471.812-3.068.665-6.009,1.295-2.959.543-5.316,1.674-6.046,1.1-.328-.285-.088-1.046.854-1.926a9.782,9.782,0,0,1,4.626-2.2,9.627,9.627,0,0,1,5.087.27c1.192.456,1.689,1.071,1.487,1.46" transform="translate(-35.038 -26.949)" fill="#263238"/>
            <path id="Path_832072" data-name="Path 832072" d="M278.264,110.292s-5.258-12.324-11.225-15.178c-7.224-3.455-10.291,4.471-17.169,2.582s-13.775-5.2-20.77.139c-7.658,5.847-4.039,9.908-4.473,18.66-1.762,35.479-8.194,45.539-10.113,28.84-.211-1.829-5.3-3.261-6.086-10.991-1.022-10.024-1.463-22.2.742-29.325,1.859-6.008,5.26-10.167,11.372-14.765,9.648-7.256,22.945-7.473,31.981-6.606s26.493,11.179,25.742,26.645" transform="translate(-86.403 -18.767)" fill="#263238"/>
            <path id="Path_832073" data-name="Path 832073" d="M299.082,161.747a5.352,5.352,0,0,0-5.8-5.132c-3.676.366-7.758,2.474-7.481,10.072.493,13.479,13.923,10.2,13.932,9.816.007-.263-.392-9.118-.648-14.756" transform="translate(-168.426 -35.282)" fill="#ffbf9c"/>
            <path id="Path_832074" data-name="Path 832074" d="M296.83,172.282c-.061-.041-.229.174-.62.37a2.344,2.344,0,0,1-1.753.1c-1.443-.47-2.725-2.687-2.879-5.115a7.751,7.751,0,0,1,.535-3.385,2.712,2.712,0,0,1,1.7-1.867,1.2,1.2,0,0,1,1.409.593c.194.37.119.642.191.664.039.033.28-.238.152-.79a1.5,1.5,0,0,0-.561-.825,1.773,1.773,0,0,0-1.311-.3,3.3,3.3,0,0,0-2.377,2.178,7.987,7.987,0,0,0-.677,3.787c.186,2.713,1.669,5.2,3.639,5.7a2.518,2.518,0,0,0,2.134-.435c.405-.349.465-.652.418-.676" transform="translate(-169.288 -36.436)" fill="#ff9b6c"/>
            <path id="Path_832075" data-name="Path 832075" d="M232.528,117.337c1.756,1.187,3.612,2.411,5.722,2.61s4.517-1.023,4.863-3.115c.156-.94-.079-2.027.535-2.755.732-.868,2.092-.6,3.222-.489,3.921.4,8.48-3.952,9.461-7.769a3.519,3.519,0,0,0,4.706.952,12.618,12.618,0,0,0,3.235-2.9c1.177-1.361,2.833-2.581,4.616-2.336,1,.136,1.933.726,2.935.632,1.769-.166,2.624-2.242,2.884-4s.459-3.809,1.954-4.771c1.384-.892,3.188-.388,4.819-.155s3.733-.16,4.143-1.755a3.2,3.2,0,0,0-.614-2.443,8.731,8.731,0,0,0-10.321-3.258,11.833,11.833,0,0,0-21.752-2.194,12.01,12.01,0,0,0-19.177,4.467A8.7,8.7,0,0,0,224,100.763c-2.416,1.4-4.48,3.813-4.517,6.6s2.693,5.558,5.383,4.812a4.821,4.821,0,0,0,8.36,4.77" transform="translate(-103.02 -17.432)" fill="#263238"/>
            <path id="Path_832076" data-name="Path 832076" d="M287.4,93.345a.678.678,0,0,1,0,.247c-.018.162-.026.407-.083.72a8.464,8.464,0,0,1-.967,2.6,9.642,9.642,0,0,1-2.974,3.2,8.98,8.98,0,0,1-5.515,1.6l.227-.3a4.881,4.881,0,0,1-.253,3.723,13.98,13.98,0,0,1-2.292,3.326,10.021,10.021,0,0,1-1.5,1.554,4.714,4.714,0,0,1-2.133.8,4.923,4.923,0,0,1-4.346-1.535l.5-.146a10.115,10.115,0,0,1-4.256,7.015,7.383,7.383,0,0,1-4.42,1.471,13.306,13.306,0,0,1-4.367-.937l.359-.16a10.628,10.628,0,0,1-3.172,4.176,5.656,5.656,0,0,1-4.69,1.3,7.424,7.424,0,0,1-5.744-5.785l.306.141a6.951,6.951,0,0,1-4.63.7,7.554,7.554,0,0,1-3.237-1.425A6.534,6.534,0,0,1,232.7,114a3.234,3.234,0,0,1-.345-.7,8.084,8.084,0,0,0,1.994,2.154,7.467,7.467,0,0,0,3.158,1.286,6.647,6.647,0,0,0,4.368-.737l.252-.144.054.285a7,7,0,0,0,5.435,5.359,5.136,5.136,0,0,0,4.258-1.229,10.13,10.13,0,0,0,2.979-3.961l.105-.25.254.089a12.873,12.873,0,0,0,4.177.892,6.8,6.8,0,0,0,4.082-1.369,9.571,9.571,0,0,0,4.025-6.611l.081-.638.421.491a4.376,4.376,0,0,0,3.839,1.355,4.185,4.185,0,0,0,1.89-.7,9.807,9.807,0,0,0,1.415-1.456,13.618,13.618,0,0,0,2.242-3.183,4.424,4.424,0,0,0,.277-3.37l-.112-.321.339.021a8.672,8.672,0,0,0,5.285-1.451,9.588,9.588,0,0,0,2.957-3.03,10.41,10.41,0,0,0,1.268-3.441" transform="translate(-114.712 -21.032)" fill="#455a64"/>
            <path id="Path_832077" data-name="Path 832077" d="M246.984,178.97a9.057,9.057,0,0,0-5.14-1.931,5.233,5.233,0,0,0-2.675.424A4.058,4.058,0,0,0,237.2,180.1a5.139,5.139,0,0,0,.989,4.931,5.028,5.028,0,0,0,8.376-1.776,11.725,11.725,0,0,0,.61-3.824" transform="translate(-78.06 -39.886)" fill="#ff9b6c"/>
            <path id="Path_832078" data-name="Path 832078" d="M245.3,185.238c-.05-.043-.285.221-.813.522a4.871,4.871,0,0,1-2.434.62,4.547,4.547,0,0,1-3.275-1.439,4.881,4.881,0,0,1,1.766-7.5,5.562,5.562,0,0,1,3.651.007,13.481,13.481,0,0,1,2.371,1.089c.551.3.867.46.9.413s-.224-.288-.727-.676a9.819,9.819,0,0,0-2.352-1.363,5.916,5.916,0,0,0-4.1-.166,5.526,5.526,0,0,0-2.047,8.7,5.008,5.008,0,0,0,3.829,1.5,4.636,4.636,0,0,0,2.6-.93c.517-.413.674-.756.637-.782" transform="translate(-78.278 -39.757)" fill="#263238"/>
            <path id="Path_832079" data-name="Path 832079" d="M168.1,340.885a3.832,3.832,0,0,0,.033-.642q.006-.686.015-1.84c-.005-1.637-.012-3.938-.02-6.763-.056-5.744-.132-13.614-.218-22.308-.131-8.7-.249-16.566-.336-22.309-.062-2.824-.112-5.124-.148-6.761q-.038-1.153-.06-1.838a3.852,3.852,0,0,0-.049-.641,3.8,3.8,0,0,0-.033.641q-.006.686-.015,1.838c.005,1.638.012,3.937.02,6.762.056,5.745.133,13.617.218,22.314.131,8.693.249,16.564.336,22.308.062,2.824.112,5.123.148,6.76q.038,1.153.06,1.838a3.817,3.817,0,0,0,.049.64" transform="translate(54.974 -62.589)" fill="#263238"/>
            <path id="Path_832080" data-name="Path 832080" d="M163.693,301.49,184.181,279.2s-18.465-29.067-25.791-36.128l-8.431,6.541Z" transform="translate(52.346 -54.769)" fill="#d0adea"/>
            <path id="Path_832081" data-name="Path 832081" d="M167.631,392.292H291.28s-.693-10.78-.775-19.433c-.081-8.568-1.736-47.633-2.862-81.815-1.1-33.442-10.894-50.28-11.7-51.036-1.646-1.548-33.431-8.494-33.431-8.494s-.618,6.408-14.219,8.8-27.733-9.1-28.948-10.7-32.85,10.048-32.85,10.048S163,308.9,163.5,311.1s11.113,54.286,9.385,64.076c0,0-8,11.988-5.256,17.117" transform="translate(-65.207 -51.701)" fill="#d0adea"/>
            <path id="Path_832082" data-name="Path 832082" d="M226.345,398.56a2.2,2.2,0,0,0-.342-.346c-.269-.241-.61-.55-1.033-.931-.907-.8-2.2-1.971-3.777-3.445a152.775,152.775,0,0,1-21.924-25.53c-1.219-1.78-2.184-3.237-2.834-4.255l-.765-1.162a2.14,2.14,0,0,0-.29-.39,2.228,2.228,0,0,0,.221.433l.7,1.2c.61,1.043,1.54,2.526,2.731,4.33A135.969,135.969,0,0,0,221,394.047c1.6,1.45,2.929,2.593,3.869,3.354l1.083.875a2.22,2.22,0,0,0,.4.284" transform="translate(-25.005 -81.677)" fill="#263238"/>
            <g id="Group_1078891" data-name="Group 1078891" transform="translate(99.231 261.504)" opacity="0.3">
              <g id="Group_1078890" data-name="Group 1078890">
                <g id="Group_1078889" data-name="Group 1078889" clip-path="url(#clip-path-7)">
                  <path id="Path_832083" data-name="Path 832083" d="M307.4,391.219a20.72,20.72,0,0,1-16.379,3.6c-13.91-3.116-49.4-46.576-49.4-46.576l-2.26-9.079,3.115-1.6Z" transform="translate(-239.356 -337.562)"/>
                </g>
              </g>
            </g>
            <path id="Path_832084" data-name="Path 832084" d="M163.354,198.2a42.4,42.4,0,0,0-5.511,1.922,42.374,42.374,0,0,0-5.365,2.3,42.423,42.423,0,0,0,5.512-1.922,42.447,42.447,0,0,0,5.365-2.3" transform="translate(71.221 -44.655)" fill="#263238"/>
            <path id="Path_832085" data-name="Path 832085" d="M139.148,280.539a3.275,3.275,0,0,0,.667-.494c.411-.339.994-.844,1.693-1.49,1.4-1.286,3.284-3.129,5.265-5.255s3.686-4.135,4.836-5.657c.577-.759,1.017-1.394,1.306-1.842a3.28,3.28,0,0,0,.4-.725c-.052-.034-.725.928-1.933,2.391s-2.934,3.437-4.908,5.558-3.816,3.989-5.166,5.324l-1.6,1.58a3.3,3.3,0,0,0-.562.61" transform="translate(91.582 -59.725)" fill="#ff9b6c"/>
            <path id="Path_832086" data-name="Path 832086" d="M290.307,281.389s-24.95,51.7-42.842,72.476-15.321,23.585-31.368,20.55-54.566-49.31-57.382-55.217,27.336-23.615,32.668-24.4c1.258-.186,24.944,31.786,24.944,31.786l55.96-61.183Z" transform="translate(-60.421 -59.798)" fill="#ffbf9c"/>
            <path id="Path_832087" data-name="Path 832087" d="M253.429,360.971c.108.025,1.039-3.6,2.078-8.089s1.794-8.156,1.686-8.181-1.039,3.6-2.078,8.09-1.793,8.155-1.685,8.18" transform="translate(-100.825 -77.666)" fill="#ff9b6c"/>
            <path id="Path_832088" data-name="Path 832088" d="M328.634,296.289s-12.823-20.717-18.131-33.158c-4.832-11.326-16.1-22.058-18.388-21.178s-15.579,6.321-16.267,24.334c-.565,14.8,6.551,53.463,7.885,53.671s44.9-23.669,44.9-23.669" transform="translate(-189.608 -54.504)" fill="#d0adea"/>
            <path id="Path_832089" data-name="Path 832089" d="M275.458,323.053a.79.79,0,0,0,.191-.079l.541-.267,2.061-1.064,7.543-3.978,24.813-13.257,2.768-1.487.183-.1-.1-.181c-5.125-8.89-9.424-16.986-12.579-22.775l-3.707-6.845-1.015-1.845-.272-.475a.718.718,0,0,0-.1-.156.681.681,0,0,0,.069.174l.238.492.951,1.879,3.6,6.9c3.093,5.825,7.348,13.94,12.473,22.849l.079-.278-2.769,1.486-24.757,13.362-7.483,4.09-2.025,1.13-.521.3a.809.809,0,0,0-.171.115" transform="translate(-174.253 -60.958)" fill="#263238"/>
            <path id="Path_832090" data-name="Path 832090" d="M163.949,145.146,136.5,156.53s-5.328,12.793,1.17,25.073c0,0,5.119,10.094,12.922,10.446l29.571-10.083Z" transform="translate(68.393 -32.704)" fill="#ffae7e"/>
            <path id="Path_832091" data-name="Path 832091" d="M122.013,101.149c-.3,1.167-10.377,19.84-43.6,34.084,0,0-10.73,29.347,15.22,36.914,0,0,29.719-11.483,46.1-5Z" transform="translate(153.933 -22.79)" fill="#ebebeb"/>
            <path id="Path_832092" data-name="Path 832092" d="M121.841,101.149c.435,1.636,7.287,27.449,17.532,66.042l.249-.223a31.134,31.134,0,0,0-9.341-1.9,57.842,57.842,0,0,0-9.931.3,111.857,111.857,0,0,0-20.367,4.37c-2.236.685-4.438,1.415-6.6,2.224l.129-.005a25.727,25.727,0,0,1-10.478-5.725,20.54,20.54,0,0,1-3.628-4.554,23.005,23.005,0,0,1-2.168-5.276,31.572,31.572,0,0,1-.881-10.944A43.372,43.372,0,0,1,78.4,135.293l-.1.1a128.922,128.922,0,0,0,20.265-10.871A93.27,93.27,0,0,0,112.42,113.4a60.058,60.058,0,0,0,7.417-8.726,27.418,27.418,0,0,0,1.582-2.577,5.684,5.684,0,0,0,.332-.694c.045-.124.069-.194.091-.253-.025.054-.055.118-.108.231-.068.17-.2.39-.363.69-.332.6-.868,1.457-1.624,2.541a62,62,0,0,1-7.472,8.639,94.21,94.21,0,0,1-13.863,11.032A129.68,129.68,0,0,1,78.167,135.07l-.072.031-.025.071a43.753,43.753,0,0,0-2.085,10.252,31.936,31.936,0,0,0,.879,11.076,23.277,23.277,0,0,0,2.2,5.369,20.886,20.886,0,0,0,3.694,4.647A26.1,26.1,0,0,0,93.4,172.339l.063.019.066-.025c2.142-.8,4.343-1.532,6.572-2.214a111.97,111.97,0,0,1,20.291-4.362,57.668,57.668,0,0,1,9.865-.3,30.816,30.816,0,0,1,9.228,1.862l.346.132-.1-.355c-10.455-38.535-17.449-64.312-17.893-65.944" transform="translate(154.105 -22.79)" fill="#263238"/>
            <path id="Path_832093" data-name="Path 832093" d="M22.654,136.237c8.437,26.111,28.769,42.918,45.414,37.54s23.3-30.905,14.86-57.016S54.158,73.843,37.514,79.221s-23.3,30.905-14.86,57.016" transform="translate(251.396 -17.624)" fill="#ffae7e"/>
            <path id="Path_832094" data-name="Path 832094" d="M28.063,136.161c7.692,23.8,25.56,39.344,39.909,34.707s19.744-27.693,12.053-51.5S54.464,80.027,40.116,84.663s-19.744,27.693-12.053,51.5" transform="translate(250.144 -18.892)" fill="#e0e0e0"/>
            <g id="Group_1078894" data-name="Group 1078894" transform="translate(274.517 76.716)" opacity="0.3">
              <g id="Group_1078893" data-name="Group 1078893">
                <g id="Group_1078892" data-name="Group 1078892" clip-path="url(#clip-path-8)">
                  <path id="Path_832095" data-name="Path 832095" d="M65.771,139.445c-4.947-15.311-4.473-30.3.308-40.293l.508-.124A88.275,88.275,0,0,1,91.4,172.846c-10.379-4.757-20.373-17.15-25.624-33.4" transform="translate(-62.271 -99.028)"/>
                </g>
              </g>
            </g>
            <path id="Path_832096" data-name="Path 832096" d="M70.959,157.8l20.629-11.31-4.784-14.8-23.206,3.7s2.016,13.2,7.36,22.415" transform="translate(211.84 -29.671)" fill="#ffae7e"/>
            <path id="Path_832097" data-name="Path 832097" d="M81.738,117.239a2.552,2.552,0,0,0-.05.519c-.016.383-.037.878-.064,1.492-.035.648-.039,1.442-.017,2.363s.022,1.972.108,3.13a78.631,78.631,0,0,0,.885,8.1,87.551,87.551,0,0,0,2.237,9.729,78.275,78.275,0,0,0,3.478,9.36c.663,1.385,1.263,2.716,1.938,3.9.328.6.629,1.186.947,1.734l.95,1.556c.584,1,1.2,1.854,1.728,2.613l.737,1.052.671.847.939,1.161a2.478,2.478,0,0,0,.348.387,2.548,2.548,0,0,0-.284-.438l-.877-1.205-.641-.865-.707-1.068c-.5-.768-1.1-1.625-1.67-2.633l-.923-1.562c-.31-.549-.6-1.137-.922-1.736-.659-1.188-1.244-2.519-1.9-3.9a82.22,82.22,0,0,1-3.43-9.322,92.609,92.609,0,0,1-2.257-9.675c-.473-3.018-.836-5.75-.967-8.059-.1-1.152-.139-2.2-.167-3.116s-.062-1.71-.051-2.357c-.005-.614-.009-1.109-.012-1.491a2.518,2.518,0,0,0-.032-.521" transform="translate(192.915 -26.416)" fill="#263238"/>
            <path id="Path_832098" data-name="Path 832098" d="M61.028,140.424c1.321,4.088,4.292,6.789,6.634,6.031s3.172-4.685,1.851-8.773-4.291-6.789-6.634-6.031-3.172,4.685-1.851,8.773" transform="translate(235.766 -29.635)" fill="#ffae7e"/>
            <path id="Path_832099" data-name="Path 832099" d="M60.9,140.373c.039-.012-.132-.535-.311-1.5a10.929,10.929,0,0,1,.007-4.121,4.65,4.65,0,0,1,1.282-2.436,2.537,2.537,0,0,1,1.343-.638,3.044,3.044,0,0,1,1.573.258,6.774,6.774,0,0,1,2.668,2.305,12.781,12.781,0,0,1,2.35,7.27,6.78,6.78,0,0,1-.814,3.432,3.059,3.059,0,0,1-1.126,1.13,2.533,2.533,0,0,1-1.463.268,4.648,4.648,0,0,1-2.466-1.226,10.937,10.937,0,0,1-2.417-3.337c-.421-.891-.589-1.415-.627-1.4a1.488,1.488,0,0,0,.095.388,10.528,10.528,0,0,0,.39,1.078,11.637,11.637,0,0,0,.844,1.61,9.035,9.035,0,0,0,1.525,1.875,4.9,4.9,0,0,0,2.62,1.346,2.864,2.864,0,0,0,1.666-.287,3.4,3.4,0,0,0,1.277-1.249,7.1,7.1,0,0,0,.892-3.624A12.989,12.989,0,0,0,67.777,134a7.088,7.088,0,0,0-2.843-2.415,3.4,3.4,0,0,0-1.766-.266,2.869,2.869,0,0,0-1.519.742,4.9,4.9,0,0,0-1.336,2.625,9.008,9.008,0,0,0-.139,2.412,11.687,11.687,0,0,0,.257,1.8,10.41,10.41,0,0,0,.315,1.1,1.5,1.5,0,0,0,.15.37" transform="translate(235.897 -29.583)" fill="#263238"/>
            <path id="Path_832100" data-name="Path 832100" d="M160.428,191.252a72.633,72.633,0,0,0,7.243-2.462,72.422,72.422,0,0,0,7.1-2.841,72.932,72.932,0,0,0-7.243,2.463,72.74,72.74,0,0,0-7.1,2.84" transform="translate(53.642 -41.896)" fill="#263238"/>
            <path id="Path_832101" data-name="Path 832101" d="M165.23,181.724a72.644,72.644,0,0,0,7.243-2.462,72.4,72.4,0,0,0,7.1-2.841,72.929,72.929,0,0,0-7.243,2.463,72.724,72.724,0,0,0-7.1,2.84" transform="translate(45.12 -39.749)" fill="#263238"/>
            <path id="Path_832102" data-name="Path 832102" d="M167.1,170.935a72.644,72.644,0,0,0,7.243-2.462,72.425,72.425,0,0,0,7.1-2.841,72.682,72.682,0,0,0-7.243,2.463,72.5,72.5,0,0,0-7.1,2.84" transform="translate(41.807 -37.318)" fill="#263238"/>
            <path id="Path_832103" data-name="Path 832103" d="M144.166,252.258s5.149-9.494,6.607-12.945a71.724,71.724,0,0,0,4.095-12.839c.542-3.361-.856-9.328-2.988-9.989L148,209.891s-1.36-3.063-3.139-4.055l-10.495-6.985s-14.549,4.944-16.976,6.789-2.666,10.038-2.666,10.038,11.854,40.386,12.393,40.408,17.052-3.829,17.052-3.829" transform="translate(108.841 -44.804)" fill="#ffbf9c"/>
            <path id="Path_832104" data-name="Path 832104" d="M118.391,199.424l10.522,34.036c1.59,5.143,3.368,10.578,7.48,14.053a6.744,6.744,0,0,0,4.767,1.886,8.469,8.469,0,0,0,4.351-2.263q3.642-2.968,7.041-6.216a10.133,10.133,0,0,0,3.176-4.486,9.731,9.731,0,0,0-.647-5.474c-2.26-6.689-5.676-12.916-8.636-19.327s-5.5-13.171-5.833-20.224" transform="translate(105.072 -43.127)" fill="#fb8e4d"/>
            <path id="Path_832105" data-name="Path 832105" d="M119.55,227.24c.442-1.48,3.106-14.852,5.255-16.816a7.821,7.821,0,0,1,4.59-2.042s6.133-11.342,10.544-13.579,11.028-2.689,12.43-.939-.734,5.054-.734,5.054,4.6-.875,5.06,2.264c.48,3.256-.466,4.325-2.387,5.362s-6.3,4.551-7.316,6.38a17.251,17.251,0,0,0-1.469,3.495s9.219-7.268,12.016-7.892,6.483,1.5,3.842,6.067c0,0-7.544,4.447-8.58,6.65s-2.667,5.127-.423,5.228,10.633-3.082,12.129-3.014,2.3,2.915,1.107,4.547-8.806,4.1-11.592,7.723-11.3,17.856-16,22.329-7.435,6.974-7.435,6.974l-18.018-15.992s4.2-5.995,4.417-6.547,2.562-15.251,2.562-15.251" transform="translate(99.297 -43.439)" fill="#ffbf9c"/>
            <path id="Path_832106" data-name="Path 832106" d="M131.366,213.453a25.613,25.613,0,0,0,1.521-2.545,31.469,31.469,0,0,1,4.094-5.789,14.3,14.3,0,0,1,5.832-3.851,18.347,18.347,0,0,1,2.876-.583,2.544,2.544,0,0,0-.8-.043,8.949,8.949,0,0,0-2.159.353,13.639,13.639,0,0,0-6.043,3.847,27.271,27.271,0,0,0-4.05,5.928c-.428.811-.755,1.477-.971,1.942a3.024,3.024,0,0,0-.3.741" transform="translate(105.243 -45.207)" fill="#ff9b6c"/>
            <path id="Path_832107" data-name="Path 832107" d="M118.487,226.936c.088.085,1.726-1.573,4.022-3.276s4.344-2.813,4.288-2.921a5.022,5.022,0,0,0-1.408.61,25.082,25.082,0,0,0-5.916,4.411,5.035,5.035,0,0,0-.987,1.175" transform="translate(134.111 -49.735)" fill="#ff9b6c"/>
            <path id="Path_832108" data-name="Path 832108" d="M121.694,220.865c.041.042.721-.541,1.893-1.4s2.8-2.037,4.643-3.26a44.842,44.842,0,0,1,4.877-2.863c.325-.156.628-.273.89-.392l.692-.237a2.22,2.22,0,0,0,.61-.156,1.774,1.774,0,0,0-.644,0c-.2.046-.448.1-.732.177-.273.1-.593.2-.931.344a32.83,32.83,0,0,0-4.984,2.788,56.922,56.922,0,0,0-4.6,3.371,9.115,9.115,0,0,0-1.717,1.626" transform="translate(123.127 -47.887)" fill="#ff9b6c"/>
            <path id="Path_832109" data-name="Path 832109" d="M113.98,244.969c.07.1,2.233-1.4,5.018-3.053s5.127-2.849,5.076-2.955a6.693,6.693,0,0,0-1.607.641c-.965.454-2.275,1.135-3.676,1.968s-2.622,1.66-3.481,2.293a6.726,6.726,0,0,0-1.33,1.106" transform="translate(140.326 -53.84)" fill="#ff9b6c"/>
          </g>
        </g>
      </g>
    </g>
  </g>
</svg>
