<svg id="Group_1079099" data-name="Group 1079099" xmlns="http://www.w3.org/2000/svg" xmlns:xlink="http://www.w3.org/1999/xlink" width="401.246" height="488" viewBox="0 0 401.246 488">
  <defs>
    <clipPath id="clip-path">
      <rect id="Rectangle_381554" data-name="Rectangle 381554" width="401.246" height="488" fill="none"/>
    </clipPath>
    <clipPath id="clip-path-5">
      <rect id="Rectangle_381534" data-name="Rectangle 381534" width="8.248" height="27.122" fill="none"/>
    </clipPath>
    <clipPath id="clip-path-6">
      <rect id="Rectangle_381535" data-name="Rectangle 381535" width="5.146" height="3.293" fill="none"/>
    </clipPath>
    <clipPath id="clip-path-9">
      <rect id="Rectangle_381548" data-name="Rectangle 381548" width="104.913" height="70.987" fill="none"/>
    </clipPath>
    <clipPath id="clip-path-10">
      <rect id="Rectangle_381549" data-name="Rectangle 381549" width="4.401" height="20.213" fill="none"/>
    </clipPath>
  </defs>
  <g id="Group_1079098" data-name="Group 1079098" clip-path="url(#clip-path)">
    <rect id="Rectangle_381514" data-name="Rectangle 381514" width="14.467" height="45.693" transform="translate(23.97 413.251)" fill="#ebebeb"/>
    <rect id="Rectangle_381515" data-name="Rectangle 381515" width="14.467" height="45.693" transform="translate(73.062 413.251)" fill="#ebebeb"/>
    <rect id="Rectangle_381516" data-name="Rectangle 381516" width="14.467" height="87.285" transform="translate(48.516 371.658)" fill="#f5f5f5"/>
    <rect id="Rectangle_381517" data-name="Rectangle 381517" width="14.467" height="87.285" transform="translate(97.609 371.658)" fill="#f5f5f5"/>
    <rect id="Rectangle_381518" data-name="Rectangle 381518" width="14.467" height="84.786" transform="translate(122.156 374.157)" fill="#ebebeb"/>
    <rect id="Rectangle_381519" data-name="Rectangle 381519" width="14.467" height="84.786" transform="translate(171.248 374.157)" fill="#ebebeb"/>
    <rect id="Rectangle_381520" data-name="Rectangle 381520" width="14.467" height="84.786" transform="translate(220.341 374.157)" fill="#ebebeb"/>
    <rect id="Rectangle_381521" data-name="Rectangle 381521" width="14.467" height="129.281" transform="translate(146.702 329.662)" fill="#f5f5f5"/>
    <rect id="Rectangle_381522" data-name="Rectangle 381522" width="14.467" height="116.631" transform="translate(195.795 342.313)" fill="#f5f5f5"/>
    <rect id="Rectangle_381523" data-name="Rectangle 381523" width="14.467" height="84.786" transform="translate(292.855 374.157)" fill="#ebebeb"/>
    <rect id="Rectangle_381524" data-name="Rectangle 381524" width="14.467" height="68.515" transform="translate(268.309 390.428)" fill="#f5f5f5"/>
    <rect id="Rectangle_381525" data-name="Rectangle 381525" width="14.467" height="130.035" transform="translate(344.196 328.908)" fill="#ebebeb"/>
    <rect id="Rectangle_381526" data-name="Rectangle 381526" width="14.467" height="68.515" transform="translate(319.649 390.428)" fill="#f5f5f5"/>
    <rect id="Rectangle_381527" data-name="Rectangle 381527" width="14.467" height="68.515" transform="translate(368.771 390.428)" fill="#f5f5f5"/>
    <rect id="Rectangle_381528" data-name="Rectangle 381528" width="14.467" height="98.763" transform="translate(244.888 360.181)" fill="#ebebeb"/>
    <g id="Group_1079077" data-name="Group 1079077">
      <g id="Group_1079076" data-name="Group 1079076" clip-path="url(#clip-path)">
        <path id="Path_832320" data-name="Path 832320" d="M136.927,287.109c0,2.816-1.665,5.1-3.721,5.1s-3.721-2.282-3.721-5.1,1.666-5.1,3.721-5.1,3.721,2.282,3.721,5.1" transform="translate(19.539 42.554)" fill="#e0e0e0"/>
        <path id="Path_832321" data-name="Path 832321" d="M133.605,296.917c-3.728,0-6.759-4.155-6.759-9.261s3.031-9.262,6.759-9.262,6.757,4.155,6.757,9.262-3.031,9.261-6.757,9.261m0-17.777c-3.426,0-6.214,3.82-6.214,8.516s2.787,8.515,6.214,8.515,6.213-3.82,6.213-8.515-2.787-8.516-6.213-8.516" transform="translate(19.14 42.008)" fill="#e0e0e0"/>
        <path id="Path_832322" data-name="Path 832322" d="M135.979,277.2l-.191-10.038,1.829.04-3.416-5.721-3.417,5.774,1.894.016.189,9.9Z" transform="translate(19.735 39.457)" fill="#ebebeb"/>
        <path id="Path_832323" data-name="Path 832323" d="M31.667,341.6c0,2.816-1.666,5.1-3.722,5.1s-3.721-2.283-3.721-5.1,1.666-5.1,3.721-5.1,3.722,2.282,3.722,5.1" transform="translate(3.655 50.776)" fill="#e0e0e0"/>
        <path id="Path_832324" data-name="Path 832324" d="M28.344,351.57c-3.727,0-6.758-4.155-6.758-9.261s3.031-9.262,6.758-9.262S35.1,337.2,35.1,342.308s-3.033,9.261-6.759,9.261m0-17.777c-3.426,0-6.214,3.82-6.214,8.515s2.787,8.516,6.214,8.516,6.214-3.821,6.214-8.516-2.787-8.515-6.214-8.515" transform="translate(3.257 50.255)" fill="#e0e0e0"/>
        <path id="Path_832325" data-name="Path 832325" d="M25.728,313.452l.2,10.438-1.9-.041,3.553,5.949,3.553-6-1.97-.016-.2-10.3Z" transform="translate(3.625 47.298)" fill="#ebebeb"/>
        <path id="Path_832326" data-name="Path 832326" d="M196.819,294.488l.2,10.437-1.9-.041,3.553,5.949,3.553-6-1.97-.016-.2-10.3Z" transform="translate(29.442 44.437)" fill="#ebebeb"/>
        <path id="Path_832327" data-name="Path 832327" d="M271.076,388.441,227.5,332.424c-27.609-18.267-70.238-45.191-75.209-44.811-5.569.45-111.248,57.56-151.5,79.527L0,364.415c5.923-3.233,145.111-79.162,152.164-79.731.048,0,.1-.006.152-.006,7.734,0,69.227,40.547,76.261,45.2l.266.251,42.584,54.74c8.079-5.843,54.391-39.327,55.18-39.806.274-.166,1.009-.575,64.694-.569v2.934c-24.429-.024-61.148.075-63.939.4-2.417,1.679-37.172,26.794-55.61,40.128Z" transform="translate(0 42.956)" fill="#e0e0e0"/>
        <path id="Path_832328" data-name="Path 832328" d="M277.378,324.682a5.1,5.1,0,1,1-5.1-5.1,5.1,5.1,0,0,1,5.1,5.1" transform="translate(40.316 48.223)" fill="#e0e0e0"/>
        <path id="Path_832329" data-name="Path 832329" d="M272.825,334.657a9.262,9.262,0,1,1,9.261-9.261,9.273,9.273,0,0,1-9.261,9.261m0-17.777a8.515,8.515,0,1,0,8.515,8.515,8.526,8.526,0,0,0-8.515-8.515" transform="translate(39.77 47.703)" fill="#e0e0e0"/>
        <rect id="Rectangle_381529" data-name="Rectangle 381529" width="20.099" height="62.774" transform="translate(108.067)" fill="#ebebeb"/>
        <rect id="Rectangle_381530" data-name="Rectangle 381530" width="20.099" height="48.435" transform="translate(138.076 14.339)" fill="#ebebeb"/>
        <rect id="Rectangle_381531" data-name="Rectangle 381531" width="20.099" height="28.763" transform="translate(165.859 34.011)" fill="#ebebeb"/>
        <path id="Path_832330" data-name="Path 832330" d="M41.122,206.664l24.634-19.526A31.434,31.434,0,0,1,16.488,226.19a31.433,31.433,0,0,1,12.144-48.372Z" transform="translate(1.471 26.832)" fill="#f5f5f5"/>
        <path id="Path_832331" data-name="Path 832331" d="M31.2,175.1l8.663,22.79L58.2,182.315s-9.71-10-27-7.214" transform="translate(4.708 26.348)" fill="#e0e0e0"/>
      </g>
    </g>
    <g id="Group_1079079" data-name="Group 1079079">
      <g id="Group_1079078" data-name="Group 1079078" clip-path="url(#clip-path)">
        <path id="Path_832332" data-name="Path 832332" d="M397.274,423.8c0,.166-83.049.3-185.469.3-102.457,0-185.487-.133-185.487-.3s83.03-.3,185.487-.3c102.42,0,185.469.134,185.469.3" transform="translate(3.971 63.903)" fill="#263238"/>
      </g>
    </g>
    <g id="Group_1079087" data-name="Group 1079087">
      <g id="Group_1079086" data-name="Group 1079086" clip-path="url(#clip-path)">
        <path id="Path_832333" data-name="Path 832333" d="M59.8,68.411a21.754,21.754,0,1,0-20.555,30.45l2.2,5.029,17.473-7.629s-1.127-2.868-2.188-5.4A21.749,21.749,0,0,0,59.8,68.411" transform="translate(2.732 8.353)" fill="#ffae7e"/>
        <path id="Path_832334" data-name="Path 832334" d="M50.751,96.2s-.035-.085-.087-.254-.134-.432-.232-.755c-.2-.665-.494-1.646-.839-2.919s-.748-2.837-1.1-4.68a32.189,32.189,0,0,1-.613-6.338,20.667,20.667,0,0,1,.337-3.7,4.006,4.006,0,0,1,.827-1.82,2.244,2.244,0,0,1,1.921-.764,1.48,1.48,0,0,1,.975.513,1.52,1.52,0,0,1,.364,1.06,3.088,3.088,0,0,1-.961,2,5.948,5.948,0,0,1-4.272,1.516,6.024,6.024,0,0,1-4.268-2.1,4.568,4.568,0,0,1-1.122-2.249,1.955,1.955,0,0,1,1.207-2.176,1.406,1.406,0,0,1,1.321.26,1.971,1.971,0,0,1,.7,1.16,4.254,4.254,0,0,1-.537,2.593,6.49,6.49,0,0,1-4.058,3.377A5.654,5.654,0,0,1,35.2,79.74a3.29,3.29,0,0,1-1.189-2.356,1.664,1.664,0,0,1,.489-1.263A1.632,1.632,0,0,1,35.78,75.7,2.17,2.17,0,0,1,37,76.205a3.4,3.4,0,0,1,.8,1.015,6.259,6.259,0,0,1,.693,2.411,6.477,6.477,0,0,1-1.351,4.57,6.592,6.592,0,0,1-3.877,2.369,3.457,3.457,0,0,1-2.21-.168,1.684,1.684,0,0,1-.949-1.873,1.416,1.416,0,0,1,.7-.829,2.059,2.059,0,0,1,1.032-.231,3.155,3.155,0,0,1,1.817.836c.974.862,1.835,1.738,2.679,2.563,3.349,3.323,5.926,6.139,7.685,8.1.879.983,1.55,1.756,2,2.281l.511.6c.114.137.167.212.167.212s-.067-.063-.188-.193-.3-.335-.531-.585c-.474-.523-1.159-1.279-2.039-2.248C42.172,93.1,39.575,90.3,36.213,87c-.845-.816-1.723-1.7-2.678-2.539a2.95,2.95,0,0,0-1.694-.779,1.3,1.3,0,0,0-.677,2.512,3.229,3.229,0,0,0,2.062.143,6.37,6.37,0,0,0,3.73-2.291,6.23,6.23,0,0,0,1.289-4.4,6.033,6.033,0,0,0-.665-2.31,2.364,2.364,0,0,0-1.822-1.385,1.366,1.366,0,0,0-1.075.352,1.394,1.394,0,0,0-.406,1.069,3.026,3.026,0,0,0,1.1,2.161,5.393,5.393,0,0,0,4.866,1.13,6.223,6.223,0,0,0,3.888-3.239,4,4,0,0,0,.516-2.42,1.707,1.707,0,0,0-.6-1,1.139,1.139,0,0,0-1.08-.218,1.52,1.52,0,0,0-.851.753,1.875,1.875,0,0,0-.18,1.141A4.316,4.316,0,0,0,43,77.8a5.787,5.787,0,0,0,4.086,2.019,5.724,5.724,0,0,0,4.095-1.437,2.87,2.87,0,0,0,.9-1.838,1.283,1.283,0,0,0-1.138-1.348,2.03,2.03,0,0,0-1.731.686,3.8,3.8,0,0,0-.787,1.723,20.522,20.522,0,0,0-.35,3.656,32.46,32.46,0,0,0,.571,6.309c.336,1.838.724,3.4,1.053,4.68s.607,2.249.791,2.93c.089.327.157.58.206.762s.062.262.062.262" transform="translate(4.536 11.087)" fill="#263238"/>
        <path id="Path_832335" data-name="Path 832335" d="M55.812,94.528l-15,6.55a1.228,1.228,0,0,1-.983-2.251l15-6.551a1.229,1.229,0,0,1,.983,2.252" transform="translate(5.898 13.908)" fill="#263238"/>
        <path id="Path_832336" data-name="Path 832336" d="M56.056,95.088l-15,6.55a1.229,1.229,0,1,0,.984,2.252l1.646-.719,4,3.205a1.581,1.581,0,0,0,1.619.214l5.361-2.341a1.578,1.578,0,0,0,.943-1.349l.314-5.072,1.119-.489a1.228,1.228,0,1,0-.983-2.251" transform="translate(6.083 14.333)" fill="#263238"/>
        <g id="Group_1079082" data-name="Group 1079082" transform="translate(22.824 71.286)" opacity="0.2">
          <g id="Group_1079081" data-name="Group 1079081">
            <g id="Group_1079080" data-name="Group 1079080" clip-path="url(#clip-path-5)">
              <path id="Path_832337" data-name="Path 832337" d="M21.247,69.01a15.978,15.978,0,0,1,2.834-4.4,11.539,11.539,0,0,1,2.683-2.235c.72-.407,1.182-.523,1.288-.38.244.325-1.032,1.52-2.476,3.77a17.89,17.89,0,0,0-.443,19.363c1.337,2.312,2.558,3.565,2.3,3.879-.113.138-.569,0-1.268-.437a11.576,11.576,0,0,1-2.578-2.355,15.987,15.987,0,0,1-2.63-4.523,16.947,16.947,0,0,1-1.121-6.373" transform="translate(-19.832 -61.94)" fill="#fff"/>
            </g>
          </g>
        </g>
        <g id="Group_1079085" data-name="Group 1079085" transform="translate(33.147 67.289)" opacity="0.2">
          <g id="Group_1079084" data-name="Group 1079084">
            <g id="Group_1079083" data-name="Group 1079083" clip-path="url(#clip-path-6)">
              <path id="Path_832338" data-name="Path 832338" d="M31.867,61.29c-1.269.54-2.534.681-2.957.069a1.127,1.127,0,0,1,.215-1.238A4.366,4.366,0,0,1,32.9,58.495c.575.083.961.338,1.047.7" transform="translate(-28.801 -58.467)" fill="#fff"/>
            </g>
          </g>
        </g>
        <path id="Path_832339" data-name="Path 832339" d="M54.415,102.286c0,.045-.455.037-1.169.132a9.115,9.115,0,0,0-5,2.359,11.756,11.756,0,0,1-.846.817,3.393,3.393,0,0,1,.714-.952,7.968,7.968,0,0,1,5.117-2.412,3.327,3.327,0,0,1,1.189.055" transform="translate(7.151 15.424)" fill="#455a64"/>
        <path id="Path_832340" data-name="Path 832340" d="M55.51,97.487c.03.068-2.659,1.306-6,2.767s-6.081,2.591-6.111,2.523,2.659-1.306,6-2.767,6.081-2.591,6.111-2.523" transform="translate(6.548 14.71)" fill="#455a64"/>
        <path id="Path_832341" data-name="Path 832341" d="M55.1,99.389a9.28,9.28,0,0,1-1.412.8c-.888.457-2.131,1.062-3.521,1.692s-2.663,1.167-3.593,1.535a9.2,9.2,0,0,1-1.528.537,10.319,10.319,0,0,1,1.455-.711l3.556-1.6,3.549-1.619a10.409,10.409,0,0,1,1.494-.625" transform="translate(6.797 14.997)" fill="#455a64"/>
      </g>
    </g>
    <g id="Group_1079089" data-name="Group 1079089">
      <g id="Group_1079088" data-name="Group 1079088" transform="translate(0 1)" clip-path="url(#clip-path)">
        <path id="Path_832342" data-name="Path 832342" d="M201.439,277.461a6.108,6.108,0,0,1-6.108-6.108V217.365a6.108,6.108,0,0,1,6.108-6.108h88.175a6.108,6.108,0,0,1,6.108,6.108v53.988a6.108,6.108,0,0,1-6.108,6.108" transform="translate(-38.158 14.877)" fill="#fff"/>
        <path id="Path_832343" data-name="Path 832343" d="M289.649,277.5c0-.018.284-.012.826-.09a5.85,5.85,0,0,0,2.266-.822,6.074,6.074,0,0,0,2.5-2.946c.638-1.445.365-3.306.413-5.339-.02-8.179-.049-19.989-.085-34.577q-.009-5.476-.018-11.458,0-1.493,0-3.018a18.543,18.543,0,0,0-.122-3.026,5.918,5.918,0,0,0-3.851-4.376,8.588,8.588,0,0,0-3.134-.325l-3.3,0-6.757.007-14.1.012-62.8.021a5.844,5.844,0,0,0-5.713,4.609,9.289,9.289,0,0,0-.132,1.993v2.052q0,2.049,0,4.083,0,8.138,0,16.023c-.006,10.5-.012,20.637-.016,30.289a6.647,6.647,0,0,0,.617,3.386,5.851,5.851,0,0,0,2.294,2.454,5.988,5.988,0,0,0,3.232.8l3.454,0,13.3.013,23.879.033,34.576.086,9.4.051,2.445.026c.551.009.833.028.833.028s-.282.018-.833.028l-2.445.026-9.4.051-34.576.086-23.879.033-13.3.013-3.454,0a6.475,6.475,0,0,1-3.477-.864,6.333,6.333,0,0,1-2.489-2.654,7.157,7.157,0,0,1-.673-3.606c-.006-9.653-.01-19.785-.016-30.289q0-7.879,0-16.023v-6.135a9.675,9.675,0,0,1,.144-2.106,6.379,6.379,0,0,1,6.24-5.036l62.8.021,14.1.011,6.757.007,3.3,0a9,9,0,0,1,3.281.356,6.357,6.357,0,0,1,4.127,4.713,18.413,18.413,0,0,1,.123,3.112q0,1.524,0,3.018-.01,5.977-.017,11.458c-.037,14.589-.066,26.4-.086,34.577q-.007,1.531-.013,2.89a6.412,6.412,0,0,1-.463,2.509,6.17,6.17,0,0,1-2.588,2.981,5.712,5.712,0,0,1-2.316.781,4.68,4.68,0,0,1-.833.036" transform="translate(29.439 31.842)" fill="#263238"/>
        <rect id="Rectangle_381537" data-name="Rectangle 381537" width="3.852" height="15.33" transform="translate(269.798 281.577)" fill="#7816c2"/>
        <rect id="Rectangle_381538" data-name="Rectangle 381538" width="3.852" height="17.551" transform="translate(237.623 279.355)" fill="#7816c2"/>
        <rect id="Rectangle_381539" data-name="Rectangle 381539" width="3.852" height="21.21" transform="translate(245.667 275.698)" fill="#7816c2"/>
        <rect id="Rectangle_381540" data-name="Rectangle 381540" width="3.852" height="20.046" transform="translate(253.71 276.862)" fill="#7816c2"/>
        <rect id="Rectangle_381541" data-name="Rectangle 381541" width="3.852" height="26.829" transform="translate(261.755 270.079)" fill="#7816c2"/>
        <rect id="Rectangle_381542" data-name="Rectangle 381542" width="3.852" height="26.697" transform="translate(277.842 270.21)" fill="#7816c2"/>
        <rect id="Rectangle_381543" data-name="Rectangle 381543" width="3.852" height="17.929" transform="translate(285.887 278.978)" fill="#7816c2"/>
        <rect id="Rectangle_381544" data-name="Rectangle 381544" width="3.852" height="25.521" transform="translate(293.93 271.386)" fill="#7816c2"/>
        <rect id="Rectangle_381545" data-name="Rectangle 381545" width="3.852" height="31.27" transform="translate(301.974 265.637)" fill="#7816c2"/>
        <rect id="Rectangle_381546" data-name="Rectangle 381546" width="3.852" height="25.652" transform="translate(310.019 271.255)" fill="#7816c2"/>
        <path id="Path_832344" data-name="Path 832344" d="M235.292,222.6c0,.166-6.839.3-15.274.3s-15.275-.134-15.275-.3,6.837-.3,15.275-.3,15.274.133,15.274.3" transform="translate(30.895 33.544)" fill="#263238"/>
      </g>
    </g>
    <g id="Group_1079097" data-name="Group 1079097">
      <g id="Group_1079096" data-name="Group 1079096" clip-path="url(#clip-path)">
        <path id="Path_832345" data-name="Path 832345" d="M96.668,371.575,69.985,395.981l30.195,33.353c3.01-3.079-6.215-26.125-6.215-26.125l16.67-16.122Z" transform="translate(10.56 56.069)" fill="#455a64"/>
        <path id="Path_832346" data-name="Path 832346" d="M84.318,389a1.837,1.837,0,0,0-2.408.466,1.766,1.766,0,0,0,.441,2.389,1.939,1.939,0,0,0,2.547-.506,1.832,1.832,0,0,0-.734-2.435" transform="translate(12.317 58.658)" fill="#fff"/>
        <path id="Path_832347" data-name="Path 832347" d="M69.986,393.12l2.786-2.578,27.813,33.18s.685,2.075-.518,2.846Z" transform="translate(10.56 58.931)" fill="#263238"/>
        <path id="Path_832348" data-name="Path 832348" d="M92,399.636c-.168.142-.978-.605-2.228-.932-1.241-.36-2.32-.135-2.392-.343-.1-.178,1.09-.817,2.6-.395s2.206,1.57,2.024,1.67" transform="translate(13.184 60.029)" fill="#fff"/>
        <path id="Path_832349" data-name="Path 832349" d="M93.473,403.7c-.124.181-1.04-.274-2.229-.2-1.191.036-2.062.57-2.2.4-.163-.13.612-1.1,2.092-1.157s2.492.815,2.34.959" transform="translate(13.433 60.771)" fill="#fff"/>
        <path id="Path_832350" data-name="Path 832350" d="M90.82,408.81c-.207-.143.275-1.03,1.71-1.47,1.268-.4,2.316.052,2.242.243-.051.214-.977.152-2.015.488-1.045.311-1.775.886-1.937.739" transform="translate(13.697 61.441)" fill="#fff"/>
        <path id="Path_832351" data-name="Path 832351" d="M95.016,396.491c-.211.066-.662-.884-1.558-1.748-.878-.883-1.836-1.319-1.772-1.531.032-.2,1.268-.047,2.309.985s1.222,2.258,1.022,2.294" transform="translate(13.834 59.322)" fill="#fff"/>
        <path id="Path_832352" data-name="Path 832352" d="M97.783,393.174c-.066.063-.749-.49-1.5-1.678a10.158,10.158,0,0,1-1.045-2.234,10.537,10.537,0,0,1-.359-1.42,2.748,2.748,0,0,1-.063-.86.957.957,0,0,1,.8-.859,1.2,1.2,0,0,1,1.019.376,2.947,2.947,0,0,1,.48.7,8.026,8.026,0,0,1,.584,1.361,7.924,7.924,0,0,1,.384,2.455,3.768,3.768,0,0,1-.467,2.211c-.121-.025.048-.864-.074-2.187a8.991,8.991,0,0,0-.509-2.25,8.43,8.43,0,0,0-.573-1.226c-.227-.437-.5-.741-.735-.689-.09.022-.117.039-.154.206a2.238,2.238,0,0,0,.049.631,11.874,11.874,0,0,0,.295,1.34,12.446,12.446,0,0,0,.842,2.175,15.521,15.521,0,0,1,1.032,1.943" transform="translate(14.304 58.262)" fill="#fff"/>
        <path id="Path_832353" data-name="Path 832353" d="M97.024,392.762c-.077-.035.214-.886,1.214-1.9a7.35,7.35,0,0,1,2.035-1.428,7.48,7.48,0,0,1,1.4-.493,1.863,1.863,0,0,1,1.808.3,1.048,1.048,0,0,1,.166,1.119,3.026,3.026,0,0,1-.457.726,4.989,4.989,0,0,1-1.124,1.02,5.194,5.194,0,0,1-2.371.849,2.907,2.907,0,0,1-2.221-.436,18.641,18.641,0,0,0,2.143-.1,5.2,5.2,0,0,0,2.047-.893,4.606,4.606,0,0,0,.938-.9c.307-.373.473-.764.316-.864a1.289,1.289,0,0,0-1.076-.089,7.4,7.4,0,0,0-1.28.405,8.1,8.1,0,0,0-1.96,1.185c-1.021.841-1.473,1.568-1.578,1.5" transform="translate(14.639 58.673)" fill="#fff"/>
        <path id="Path_832354" data-name="Path 832354" d="M87.572,392.017l.338,36.16,44.991-.191c-.282-4.3-23.593-12.827-23.593-12.827l.733-23.177Z" transform="translate(13.214 59.148)" fill="#455a64"/>
        <path id="Path_832355" data-name="Path 832355" d="M94.534,410.488a1.837,1.837,0,0,0-1.261,2.1,1.766,1.766,0,0,0,2.073,1.268,1.938,1.938,0,0,0,1.324-2.234,1.831,1.831,0,0,0-2.3-1.08" transform="translate(14.068 61.929)" fill="#fff"/>
        <path id="Path_832356" data-name="Path 832356" d="M87.871,424l-.054-3.872,43.27,1.467s2,.876,1.771,2.286Z" transform="translate(13.251 63.396)" fill="#263238"/>
        <path id="Path_832357" data-name="Path 832357" d="M107.627,411.945c-.007.22-1.1.325-2.182,1.035-1.1.684-1.65,1.638-1.853,1.551-.2-.043.12-1.357,1.44-2.195s2.641-.593,2.6-.391" transform="translate(15.623 62.13)" fill="#fff"/>
        <path id="Path_832358" data-name="Path 832358" d="M111.587,413.609c.051.213-.9.59-1.641,1.523-.769.91-.953,1.916-1.172,1.907-.207.036-.365-1.25.58-2.392s2.227-1.248,2.233-1.038" transform="translate(16.39 62.398)" fill="#fff"/>
        <path id="Path_832359" data-name="Path 832359" d="M113.583,418.993c-.2.048-.51-1.048.049-2.255s1.585-1.688,1.678-1.505c.124.18-.54.829-.983,1.825-.467.985-.527,1.912-.745,1.935" transform="translate(17.099 62.651)" fill="#fff"/>
        <path id="Path_832360" data-name="Path 832360" d="M107.34,407.415c-.091.2-1.1-.1-2.342-.008-1.243.064-2.207.485-2.323.3-.128-.159.813-.975,2.275-1.061s2.5.6,2.389.772" transform="translate(15.491 61.359)" fill="#fff"/>
        <path id="Path_832361" data-name="Path 832361" d="M92.43,212.787s-6.3,6.751-9.4,13.22-7.857,20.25-7.857,20.25-5.927,21.049-4.6,30.971,10.19,77.777,10.19,77.777S79.015,408.8,86.6,432.733l1.4,6.348,25.363-4.5,5.619-133.162,15.476-88.042Z" transform="translate(10.619 32.108)" fill="#263238"/>
        <path id="Path_832362" data-name="Path 832362" d="M118.269,218.019c-.107.039-.071-.827-.976-1.459a1.873,1.873,0,0,0-1.738-.176,1.8,1.8,0,0,0,.058,3.366,1.876,1.876,0,0,0,1.731-.237c.882-.663.817-1.526.925-1.494.036,0,.1.185.06.536a2.071,2.071,0,0,1-.716,1.3,2.273,2.273,0,0,1-2.183.43,2.343,2.343,0,0,1-.077-4.429,2.278,2.278,0,0,1,2.2.354,2.071,2.071,0,0,1,.761,1.274c.052.349-.006.537-.041.535" transform="translate(17.174 32.55)" fill="#455a64"/>
        <path id="Path_832363" data-name="Path 832363" d="M151.5,231.024s9.3,84.418,10.64,98.914-51.284,91.81-51.284,91.81l-22.2-26.232,33.875-62.971-11.408-62.723,15.019-56.592,23.351.279Z" transform="translate(13.378 32.175)" fill="#263238"/>
        <path id="Path_832364" data-name="Path 832364" d="M81.1,406.091a17.554,17.554,0,0,0,.181,1.846c.155,1.21.453,2.989.874,5.286C83,417.818,84.365,424.48,86.2,432.8l.038.173.176-.03,25.373-4.447.192-.033.008-.2c.7-17.408,1.548-38.215,2.453-60.528.936-24.009,1.8-46.271,2.516-64.534v.021l4.574-35.294c.532-4.217.947-7.529,1.235-9.811q.2-1.668.306-2.578c.066-.583.082-.886.082-.886s-.064.3-.153.877q-.131.906-.375,2.569c-.317,2.279-.777,5.584-1.363,9.794-1.149,8.484-2.79,20.608-4.774,35.269l0,.01v.01c-.741,18.264-1.643,40.523-2.618,64.531-.871,22.315-1.684,43.123-2.364,60.531l.2-.229L86.351,432.58l.214.142c-1.885-8.308-3.309-14.957-4.213-19.536-.451-2.289-.78-4.06-.969-5.263-.1-.6-.162-1.059-.2-1.367s-.079-.464-.079-.464" transform="translate(12.237 38.427)" fill="#455a64"/>
        <path id="Path_832365" data-name="Path 832365" d="M114.476,246.534a8.851,8.851,0,0,1,1.388.069,6.375,6.375,0,0,0,3.569-.609,3.308,3.308,0,0,0,1.435-1.921,13.41,13.41,0,0,0,.436-2.906c.181-2.106.36-4.422.521-6.856.326-4.868.5-9.282.615-12.478.054-1.5.1-2.768.137-3.786a6.215,6.215,0,0,1,.119-1.389,6.211,6.211,0,0,1,.115,1.39c.032.9.055,2.191.053,3.793,0,3.2-.114,7.63-.44,12.51-.162,2.439-.359,4.759-.57,6.867a13.244,13.244,0,0,1-.516,3.012,3.721,3.721,0,0,1-1.691,2.128,4.755,4.755,0,0,1-2.154.563,9.245,9.245,0,0,1-1.652-.087,4.825,4.825,0,0,1-1.366-.3" transform="translate(17.274 32.692)" fill="#455a64"/>
        <path id="Path_832366" data-name="Path 832366" d="M143.96,230.544a8.911,8.911,0,0,1-2.424-1.283,25.153,25.153,0,0,1-8.664-9.869,8.91,8.91,0,0,1-.959-2.57c.178-.089,1.69,3.859,5.086,7.686,3.354,3.861,7.072,5.872,6.961,6.036" transform="translate(19.904 32.717)" fill="#455a64"/>
        <path id="Path_832367" data-name="Path 832367" d="M72.992,148.5,83.1,185.211l4.469,19.531c0,16.828-4.469,24.5-4.469,24.5l68.81-3.433s1.129-46.564,0-55.372l-8.381-30.487-21.822-5.356-27.242.521Z" transform="translate(11.014 20.309)" fill="#d0adea"/>
        <path id="Path_832368" data-name="Path 832368" d="M155.165,192.994a4.374,4.374,0,0,1-.258-1.813,12.457,12.457,0,0,1,3.014-8.169,4.35,4.35,0,0,1,1.373-1.211,16.511,16.511,0,0,0-4.129,11.192" transform="translate(23.374 27.432)" fill="#263238"/>
        <path id="Path_832369" data-name="Path 832369" d="M180.729,175.293,162.854,185.97l-10.138-25.977a120.882,120.882,0,0,0-5.858-11.138c-5.936-10.419-13.475-9.872-13.475-9.872l-9.092,13.5,9.653,20.679s5.872,38.356,17.265,41.331c17.387,4.541,29.52-39.2,29.52-39.2" transform="translate(18.755 20.971)" fill="#d0adea"/>
        <g id="Group_1079092" data-name="Group 1079092" transform="translate(87.878 201.529)" opacity="0.3">
          <g id="Group_1079091" data-name="Group 1079091">
            <g id="Group_1079090" data-name="Group 1079090" clip-path="url(#clip-path-9)">
              <path id="Path_832370" data-name="Path 832370" d="M76.356,246.093c8.1-.32,16.512-3.765,23.479-7.9s13.284-9.269,19.854-14.013c15.74-11.364,46.981-36.272,61.579-49.07l-4.231.953-98.26,63.592Z" transform="translate(-76.357 -175.106)"/>
            </g>
          </g>
        </g>
        <path id="Path_832371" data-name="Path 832371" d="M143.013,213.334a2.748,2.748,0,0,1-.055-.678c-.01-.51-.024-1.154-.039-1.945-.008-1.769-.021-4.192-.035-7.149.03-6.109.071-14.412.116-23.586.01-2.306.086-4.549-.06-6.7a39.1,39.1,0,0,0-.846-6.152,32.038,32.038,0,0,0-4.226-9.582c-1.54-2.593-2.766-4.718-3.5-6.247-.366-.763-.625-1.367-.786-1.784a3.046,3.046,0,0,1-.211-.647,2.8,2.8,0,0,1,.322.6c.2.4.487.984.883,1.726.788,1.488,2.061,3.565,3.649,6.135a31.558,31.558,0,0,1,4.4,9.676,38.891,38.891,0,0,1,.893,6.239c.155,2.186.084,4.445.073,6.743-.113,9.173-.214,17.475-.291,23.584-.064,2.958-.116,5.379-.157,7.148-.03.791-.054,1.434-.071,1.944a3.109,3.109,0,0,1-.067.677" transform="translate(20.125 22.463)" fill="#263238"/>
        <path id="Path_832372" data-name="Path 832372" d="M140.54,117.135a4.6,4.6,0,0,1-4.319-1.929,5.481,5.481,0,0,0,3.318-.183c1-.512,1.573-1.991.786-2.8-.615-.63-1.627-.52-2.5-.585a5.421,5.421,0,0,1-4.608-3.537c-.742-2.134-.063-4.461.2-6.705a18.467,18.467,0,0,0-7.731-17.045l-14.055-8.124c-5.1,6.524-6.687,15.316-5.629,23.528s4.54,15.93,8.727,23.072a27.427,27.427,0,0,0,4.24,5.835,10.863,10.863,0,0,0,6.317,3.241,6.519,6.519,0,0,0-1.04-5.882,14.177,14.177,0,0,0,10.451-3.744l-3.012-2.31a11,11,0,0,0,8.855-2.834" transform="translate(15.948 11.503)" fill="#263238"/>
        <path id="Path_832373" data-name="Path 832373" d="M88.946,94.151a13.17,13.17,0,0,1,9.557-12.4l17.62-5.035c7.647-1.047,13.037,8.243,13.76,15.926.8,8.537,1.4,17.553.586,23.967-1.643,12.9-11.43,14.832-11.43,14.832,0-.018.166,5.848.267,9.6l-.167,28.631-26-28.085-4.232-47.27c-.012-.22.028.136.04-.158" transform="translate(13.415 11.563)" fill="#ae7461"/>
        <path id="Path_832374" data-name="Path 832374" d="M123,99.249a1.647,1.647,0,0,1-1.536,1.71,1.575,1.575,0,0,1-1.741-1.433,1.645,1.645,0,0,1,1.534-1.709A1.575,1.575,0,0,1,123,99.249" transform="translate(18.065 14.759)" fill="#263238"/>
        <path id="Path_832375" data-name="Path 832375" d="M123.813,95.17c-.2.221-1.473-.663-3.243-.6-1.77.033-3.042.985-3.241.773-.1-.093.1-.487.651-.916a4.529,4.529,0,0,1,2.586-.885,4.336,4.336,0,0,1,2.59.749c.558.4.755.784.657.883" transform="translate(17.701 14.114)" fill="#263238"/>
        <path id="Path_832376" data-name="Path 832376" d="M109.526,99.267a1.647,1.647,0,0,1-1.536,1.709,1.574,1.574,0,0,1-1.741-1.432,1.648,1.648,0,0,1,1.534-1.71,1.576,1.576,0,0,1,1.744,1.433" transform="translate(16.032 14.762)" fill="#263238"/>
        <path id="Path_832377" data-name="Path 832377" d="M109.2,95.587c-.2.221-1.474-.663-3.244-.6-1.77.033-3.042.985-3.241.773-.1-.092.1-.486.653-.916a4.526,4.526,0,0,1,2.586-.885,4.341,4.341,0,0,1,2.59.749c.556.4.754.784.657.883" transform="translate(15.495 14.177)" fill="#263238"/>
        <path id="Path_832378" data-name="Path 832378" d="M113.669,109.255a11.754,11.754,0,0,1,2.861-.608c.45-.061.876-.163.943-.474a2.308,2.308,0,0,0-.343-1.332q-.689-1.621-1.443-3.4c-2.008-4.846-3.477-8.837-3.281-8.916s1.982,3.784,3.99,8.631q.727,1.794,1.388,3.425a2.612,2.612,0,0,1,.289,1.768,1.134,1.134,0,0,1-.723.685,3.13,3.13,0,0,1-.765.13,11.52,11.52,0,0,1-2.915.093" transform="translate(16.959 14.263)" fill="#263238"/>
        <path id="Path_832379" data-name="Path 832379" d="M100.184,120.705s4.429,8.7,17.236,7.1l-.082-3.019a32.356,32.356,0,0,1-17.154-4.081" transform="translate(15.117 18.214)" fill="#6f4439"/>
        <path id="Path_832380" data-name="Path 832380" d="M108.759,90.57c-.16.487-1.935.313-4.005.627-2.077.273-3.733.932-4.022.51-.13-.2.148-.665.811-1.152a7.046,7.046,0,0,1,6.116-.867c.772.284,1.168.65,1.1.882" transform="translate(15.195 13.481)" fill="#263238"/>
        <path id="Path_832381" data-name="Path 832381" d="M123.116,90.491c-.3.412-1.532.032-3,.058-1.469-.026-2.7.353-3-.059-.132-.2.052-.609.582-1.007a4.344,4.344,0,0,1,4.835,0c.531.4.714.807.582,1.007" transform="translate(17.666 13.392)" fill="#263238"/>
        <path id="Path_832382" data-name="Path 832382" d="M107.733,110.568a2.311,2.311,0,0,1,2.337-1.823,2.413,2.413,0,0,1,1.9,1.268,2.965,2.965,0,0,1,.171,2.309l-.032.167a2.632,2.632,0,0,1-2.944.715,2.46,2.46,0,0,1-1.428-2.636" transform="translate(16.251 16.408)" fill="#6f4439"/>
        <path id="Path_832383" data-name="Path 832383" d="M113.307,112.64c-.006-.268-1.794-.131-3.183-1.562s-1.342-3.351-1.594-3.346c-.114-.016-.314.452-.273,1.259a4.465,4.465,0,0,0,1.229,2.8,3.889,3.889,0,0,0,2.661,1.2c.753.009,1.181-.224,1.16-.348" transform="translate(16.335 16.256)" fill="#263238"/>
        <path id="Path_832384" data-name="Path 832384" d="M94.086,75.053c1.983-3.149,6.666-6.437,10.332-7.078,4.178-.73,6.7-.014,9.444,2.5A10.4,10.4,0,0,0,118,72.922c2,.39,3.679.06,6.071,1.282,3.265,1.671,4.7,6.038,6.21,9.379,1.881,4.152,4.56,7.973,5.786,12.364s.574,9.784-3.125,12.447c.707-3.747,1.289-7.916-.769-11.126-1.57-2.448-4.365-3.8-6.378-5.9-2.428-2.532-2.746-5.919-5.29-8.335-5.809-5.516-16.039,4.188-26.423-7.978" transform="translate(14.197 10.216)" fill="#263238"/>
        <path id="Path_832385" data-name="Path 832385" d="M130.55,91.619c-1.511-3.668-3.144-7.361-5.727-10.372a20.166,20.166,0,0,0-26.811-3.437L97,77.9a17.013,17.013,0,0,0,13.228,6.374c3.018-.014,6.292-.788,8.88.763,2.488,1.492,3.431,4.624,5.478,6.679,1.394,1.4,3.264,2.258,4.617,3.7a15.121,15.121,0,0,1,2.857,5.539c.9-3.086-.285-6.356-1.51-9.328" transform="translate(14.637 11.198)" fill="#263238"/>
        <path id="Path_832386" data-name="Path 832386" d="M106.569,80.469l-8.228-7.236c-6.413-.334-10.528,5.727-12.73,10.405-1.637,3.478-2.145,7.369-3.378,11.009-1.266,3.739-3.288,7.194-4.44,10.969s-1.31,8.162.962,11.388l1.436-2.638a15.938,15.938,0,0,0,4.315,9.849q.276-1.374.551-2.749a15.48,15.48,0,0,0,6.191,6.669l3.854,10.3c5.692-17.338-8.963-18.653,11.466-57.969" transform="translate(11.615 11.049)" fill="#263238"/>
        <path id="Path_832387" data-name="Path 832387" d="M104.859,81.939a37.305,37.305,0,0,1-1.932,6.886,13.233,13.233,0,0,1-4.234,5.667c-2.814,2.042-6.439,2.462-9.821,3.274s-6.981,2.374-8.374,5.56a79.774,79.774,0,0,1,2.884-13.8C84.89,84.559,87.064,79.5,91.2,76.367a14.333,14.333,0,0,1,13.508-2.016" transform="translate(12.147 11.087)" fill="#263238"/>
        <path id="Path_832388" data-name="Path 832388" d="M95.114,100.626c-.171-.43-8.156-3.057-8.021,5.346.131,8.163,8.319,6.322,8.329,6.087s-.308-11.433-.308-11.433" transform="translate(13.142 15.074)" fill="#ae7461"/>
        <path id="Path_832389" data-name="Path 832389" d="M92.576,108.663c-.037-.025-.14.1-.379.218a1.419,1.419,0,0,1-1.062.041c-.869-.3-1.62-1.655-1.688-3.125a4.688,4.688,0,0,1,.359-2.044,1.64,1.64,0,0,1,1.048-1.112.722.722,0,0,1,.846.374c.114.226.066.389.109.4.023.02.173-.14.1-.475a.9.9,0,0,0-.331-.505,1.064,1.064,0,0,0-.79-.193,2,2,0,0,0-1.462,1.294,4.844,4.844,0,0,0-.449,2.285c.084,1.645.955,3.167,2.142,3.486a1.522,1.522,0,0,0,1.3-.242c.249-.206.289-.39.26-.4" transform="translate(13.41 15.427)" fill="#6f4439"/>
        <path id="Path_832390" data-name="Path 832390" d="M91.563,109.1a1.608,1.608,0,1,0,.384.11" transform="translate(13.537 16.46)" fill="#fff"/>
        <path id="Path_832391" data-name="Path 832391" d="M91.969,109.217a2.207,2.207,0,0,1,.765,1.075,1.384,1.384,0,0,1-.283,1.29,1.427,1.427,0,0,1-2.532-.727,1.385,1.385,0,0,1,.445-1.243,2.2,2.2,0,0,1,1.22-.505c0-.02-.128-.081-.386-.078a1.663,1.663,0,0,0-1.007.384,1.633,1.633,0,0,0-.612,1.49,1.753,1.753,0,0,0,3.135.9,1.635,1.635,0,0,0,.272-1.588,1.669,1.669,0,0,0-.649-.862c-.218-.138-.361-.157-.368-.137" transform="translate(13.515 16.452)" fill="#263238"/>
        <path id="Path_832392" data-name="Path 832392" d="M103.171,82.5a23.9,23.9,0,0,0-3.19-5.27,23.847,23.847,0,0,0-4.791-3.873,4.55,4.55,0,0,1,1.722.689A13.242,13.242,0,0,1,102.72,80.7a4.54,4.54,0,0,1,.451,1.8" transform="translate(14.363 11.067)" fill="#455a64"/>
        <path id="Path_832393" data-name="Path 832393" d="M286.451,103.493a6.345,6.345,0,0,1,.243.993c.123.658.373,1.618.546,2.881a68.316,68.316,0,0,1,.854,10.747,73.394,73.394,0,0,1-1.65,15.905,66.681,66.681,0,0,1-2.587,9.1A59.461,59.461,0,0,1,274,160.808,71.123,71.123,0,0,1,267.5,167.7a65.649,65.649,0,0,1-13.04,9.258,51.908,51.908,0,0,1-9.964,4.119c-1.211.4-2.19.567-2.839.731a6.664,6.664,0,0,1-1,.193,6.473,6.473,0,0,1,.975-.311c.638-.2,1.6-.4,2.8-.837a55.557,55.557,0,0,0,9.831-4.269,66.972,66.972,0,0,0,12.868-9.291,71.951,71.951,0,0,0,6.41-6.852,59.709,59.709,0,0,0,9.764-17.519,67.576,67.576,0,0,0,2.6-9.017,76.991,76.991,0,0,0,1.1-26.5c-.136-1.263-.349-2.227-.433-2.892a6.434,6.434,0,0,1-.124-1.015" transform="translate(36.314 15.617)" fill="#263238"/>
        <path id="Path_832394" data-name="Path 832394" d="M303.639,97.752a73.248,73.248,0,0,0-130.231,5.092A73.541,73.541,0,0,0,176,169.785a72.8,72.8,0,0,0,44.16,34.579,73.625,73.625,0,0,0,19.774,2.721,73.349,73.349,0,0,0,63.71-109.332M257.626,69.832a65.931,65.931,0,0,1,39.994,31.318,66.593,66.593,0,0,1,2.342,60.627,66.333,66.333,0,1,1-60.245-94.408,66.72,66.72,0,0,1,17.909,2.463" transform="translate(25.137 9.122)" fill="#263238"/>
        <path id="Path_832395" data-name="Path 832395" d="M182.018,151.759a2.4,2.4,0,0,1-.293-.54l-.737-1.6a23.662,23.662,0,0,1-1.043-2.583c-.356-1.025-.825-2.176-1.158-3.5q-.278-.993-.579-2.069c-.194-.722-.322-1.49-.495-2.276-.373-1.569-.572-3.28-.823-5.073a58.7,58.7,0,0,1,2.05-23.332c.56-1.723,1.054-3.372,1.7-4.853.307-.743.566-1.478.885-2.154l.93-1.937c.559-1.25,1.222-2.3,1.752-3.249a23.585,23.585,0,0,1,1.477-2.36l1-1.446a2.3,2.3,0,0,1,.383-.479,2.376,2.376,0,0,1-.283.548c-.242.4-.542.9-.907,1.5a27.577,27.577,0,0,0-1.382,2.4c-.5.958-1.13,2.014-1.661,3.267l-.888,1.938c-.305.676-.551,1.409-.846,2.15-.616,1.475-1.088,3.117-1.627,4.828a60.542,60.542,0,0,0-2.031,23.117c.234,1.778.412,3.477.761,5.036.161.781.276,1.546.458,2.265s.365,1.4.536,2.062c.3,1.327.742,2.478,1.067,3.508a27.579,27.579,0,0,0,.943,2.606c.253.658.462,1.2.631,1.637a2.426,2.426,0,0,1,.183.589" transform="translate(26.638 14.23)" fill="#263238"/>
        <path id="Path_832396" data-name="Path 832396" d="M190.552,155.592c-.073.142-1.245-.35-2.38-1.4s-1.723-2.177-1.588-2.262.914.83,1.995,1.821,2.059,1.693,1.974,1.843" transform="translate(28.152 22.924)" fill="#263238"/>
        <path id="Path_832397" data-name="Path 832397" d="M173.347,97.846a72.212,72.212,0,1,1,2.55,65.993,71.845,71.845,0,0,1-2.55-65.993M299.9,156.78a67.349,67.349,0,1,0-27.956,30.259A67.368,67.368,0,0,0,299.9,156.78" transform="translate(25.137 8.459)" fill="#455a64"/>
        <path id="Path_832398" data-name="Path 832398" d="M239.073,201.914a73.763,73.763,0,0,1-19.8-2.724,72.908,72.908,0,0,1-44.228-34.633,73.651,73.651,0,0,1-2.593-67.044,73.358,73.358,0,1,1,66.625,104.4m-.221-144.555A71.3,71.3,0,1,0,258.036,60a71.461,71.461,0,0,0-19.183-2.637m.215,139.714a68.85,68.85,0,0,1-18.5-2.545,68.557,68.557,0,1,1,78.1-99.738,68.788,68.788,0,0,1,2.42,62.624,68.595,68.595,0,0,1-62.022,39.659M238.859,62.2a66.46,66.46,0,1,0,17.879,2.459A66.6,66.6,0,0,0,238.859,62.2" transform="translate(24.99 8.308)" fill="#455a64"/>
        <path id="Path_832399" data-name="Path 832399" d="M54.429,250.291l-1.3-2.06c-2.782-4.41.375-11.4,3.452-13.342L192.89,148.861c.686-.433,1.746.013,2.367,1l9.13,14.467c.622.984.567,2.133-.119,2.567L68.747,252.422c-3.076,1.942-11.535,2.28-14.318-2.13" transform="translate(7.855 22.437)" fill="#455a64"/>
        <path id="Path_832400" data-name="Path 832400" d="M164.464,181.435l4.134-4.377s-.486-9.971,1.217-12.4l.887-1.47s-.885-4.849,1.723-5.97c.738-1.832,1.687-2.578,2.983-1.558,0,0-.73-3.648,2.675-4.134s4.378,14.956,4.378,14.956,1.7,6.931-2.189,6.931c0,0-2.189,2.432-4.621,2.675,0,0-.73,4.134-4.134,3.891Z" transform="translate(24.817 22.862)" fill="#ae7461"/>
        <path id="Path_832401" data-name="Path 832401" d="M175.192,171.3c.022-.018.2.125.389.494a2.793,2.793,0,0,1,.2,1.71,3.842,3.842,0,0,1-1.277,2.215,7.921,7.921,0,0,1-2.715,1.485,19.38,19.38,0,0,1-5.417,1.075,6.672,6.672,0,0,1-2.283-.121,35.213,35.213,0,0,0,7.521-1.463,8.011,8.011,0,0,0,2.566-1.351,3.621,3.621,0,0,0,1.233-1.919,3.451,3.451,0,0,0-.212-2.126" transform="translate(24.759 25.848)" fill="#6f4439"/>
        <path id="Path_832402" data-name="Path 832402" d="M176.716,168.3c-.166,0-.174-3.1-.92-6.828-.724-3.731-1.894-6.6-1.74-6.667a6.434,6.434,0,0,1,.9,1.832,28.388,28.388,0,0,1,1.9,9.626,6.45,6.45,0,0,1-.139,2.037" transform="translate(26.262 23.36)" fill="#6f4439"/>
        <path id="Path_832403" data-name="Path 832403" d="M174.183,169.752c-.16.012-.453-3.019-1.231-6.676s-1.719-6.553-1.569-6.607a23.968,23.968,0,0,1,2.1,6.5,23.976,23.976,0,0,1,.7,6.788" transform="translate(25.858 23.61)" fill="#6f4439"/>
        <path id="Path_832404" data-name="Path 832404" d="M178.672,167.907c.123-.078.633.877.3,2.082s-1.242,1.777-1.31,1.647c-.1-.117.525-.764.788-1.787.289-1.016.074-1.891.221-1.942" transform="translate(26.807 25.335)" fill="#6f4439"/>
        <path id="Path_832405" data-name="Path 832405" d="M170.343,169.5a20.851,20.851,0,0,1-.312-3.788,20.915,20.915,0,0,1-.157-3.8,15.866,15.866,0,0,1,.468,7.586" transform="translate(25.624 24.432)" fill="#6f4439"/>
        <path id="Path_832406" data-name="Path 832406" d="M92.488,200.864a12.5,12.5,0,0,1,4-3.658c2.714-1.6,8.139-2.235,9.162-4.06s2.693.044,1.792,2.386c-.573,1.493-4.5,4.958-4.5,4.958s3.563,1.622,6.313.645,11.928-1.953,12.635-.566c.8,1.57-1.564,1.611-2.645,1.986-.822.285-7.133,2.093-7.133,2.093s11.587,1.721,12.936,2.534c1.469.885-.4,1.982-1.134,1.877-.46-.066-2.756,1.335-4.393,2.38a5.317,5.317,0,0,1-3.746.761l-2.684-.452,7.973,2.346s1.169,1.542-.909,1.854c-.926.139-26.221-.833-28.152-1.073-3.339-.413-8.72-.564-8.72-.564l4.144-15.093Z" transform="translate(12.567 29.034)" fill="#ae7461"/>
        <path id="Path_832407" data-name="Path 832407" d="M120.259,207.048a17.958,17.958,0,0,1-5.78.656,17.924,17.924,0,0,1-5.773-.712c.024-.158,2.594.163,5.775.171s5.754-.273,5.777-.115" transform="translate(16.403 31.227)" fill="#6f4439"/>
        <path id="Path_832408" data-name="Path 832408" d="M78.054,200.265l11.585-23.882L79.4,145.372a20.8,20.8,0,0,0-7.7,6.691c-3.651,4.949-7.592,15.47-7.592,15.47s-12.628,28.889-14.7,33.2-5.429,12.295,0,16.766,41.764,4.621,41.764,4.621l3.853-16.065Z" transform="translate(7.011 21.936)" fill="#d0adea"/>
        <path id="Path_832409" data-name="Path 832409" d="M75.1,159.465c.158-.051,2.863,8.024,6.043,18.031s5.63,18.166,5.472,18.215-2.863-8.022-6.043-18.033-5.63-18.163-5.473-18.213" transform="translate(11.331 24.062)" fill="#263238"/>
        <path id="Path_832410" data-name="Path 832410" d="M93.1,199.034a6.169,6.169,0,0,1-1.348-.295l-3.608-1.012c-3.042-.868-7.229-2.127-11.89-3.344s-8.951-2.123-12.087-2.024a15.58,15.58,0,0,0-4.944.977,4.636,4.636,0,0,1,1.225-.645,11.7,11.7,0,0,1,3.7-.756c3.22-.209,7.579.659,12.254,1.868s8.85,2.547,11.862,3.518c1.508.486,2.718.9,3.554,1.195a6.088,6.088,0,0,1,1.279.518" transform="translate(8.937 28.957)" fill="#263238"/>
        <g id="Group_1079095" data-name="Group 1079095" transform="translate(88.96 191.423)" opacity="0.3">
          <g id="Group_1079094" data-name="Group 1079094">
            <g id="Group_1079093" data-name="Group 1079093" clip-path="url(#clip-path-10)">
              <path id="Path_832411" data-name="Path 832411" d="M77.4,166.325a119.62,119.62,0,0,0,1.04,20.212L81.7,180c-.532-3.347-2.953-10.069-4.123-13.249" transform="translate(-77.297 -166.325)"/>
            </g>
          </g>
        </g>
        <rect id="Rectangle_381550" data-name="Rectangle 381550" width="15.043" height="54.216" transform="translate(276.971 113.002)" fill="#c1e29a"/>
        <rect id="Rectangle_381551" data-name="Rectangle 381551" width="15.043" height="24.613" transform="translate(229.841 144.907)" fill="#c1e29a"/>
        <rect id="Rectangle_381552" data-name="Rectangle 381552" width="15.043" height="37.996" transform="translate(253.087 131.524)" fill="#c1e29a"/>
        <path id="Path_832412" data-name="Path 832412" d="M256.74,82.62a2.719,2.719,0,0,1-.361.478l-1.116,1.319c-1.032,1.184-2.465,2.827-4.246,4.866l-14.752,16.63-.165.185-.208-.137c-2.9-1.893-6.013-3.928-9.231-6.03l.392-.056-.352.415-19.521,22.9-.129.151-.158-.116-7.34-5.451-1.977-1.507a4.827,4.827,0,0,1-.666-.558,4.546,4.546,0,0,1,.737.46c.516.356,1.195.826,2.044,1.416l7.453,5.3-.287.035L226.243,99.9l.352-.415.171-.2.221.146,9.219,6.048-.373.049L250.746,89.04c1.831-1.993,3.307-3.6,4.37-4.754.489-.516.882-.93,1.188-1.254a2.719,2.719,0,0,1,.436-.411" transform="translate(29.712 12.467)" fill="#263238"/>
        <path id="Path_832413" data-name="Path 832413" d="M250.922,94.165a20.119,20.119,0,0,1-.209-3.46c-.054-2.141-.089-5.1-.09-8.39l.348.3-.3.049c-3.311.547-6.315,1.008-8.494,1.313a21.009,21.009,0,0,1-3.547.369,21.255,21.255,0,0,1,3.478-.788c2.161-.412,5.154-.939,8.466-1.486l.3-.049.349-.058v.353c0,3.288-.036,6.249-.09,8.39a20.105,20.105,0,0,1-.209,3.46" transform="translate(36.008 12.368)" fill="#263238"/>
      </g>
    </g>
  </g>
</svg>
