<svg xmlns="http://www.w3.org/2000/svg" xmlns:xlink="http://www.w3.org/1999/xlink" width="400" height="269" viewBox="0 0 400 269">
  <defs>
    <clipPath id="clip-path">
      <rect id="Rectangle_381180" data-name="Rectangle 381180" width="400" height="269" transform="translate(180 4632)" fill="#fff" stroke="#707070" stroke-width="1"/>
    </clipPath>
    <clipPath id="clip-path-2">
      <rect id="Rectangle_381158" data-name="Rectangle 381158" width="343" height="250" fill="none"/>
    </clipPath>
    <clipPath id="clip-path-6">
      <rect id="Rectangle_381132" data-name="Rectangle 381132" width="35.731" height="17.501" fill="none"/>
    </clipPath>
    <clipPath id="clip-path-7">
      <rect id="Rectangle_381135" data-name="Rectangle 381135" width="35.73" height="17.501" fill="none"/>
    </clipPath>
    <clipPath id="clip-path-14">
      <rect id="Rectangle_381151" data-name="Rectangle 381151" width="35.378" height="44.195" fill="none"/>
    </clipPath>
    <clipPath id="clip-path-16">
      <rect id="Rectangle_381154" data-name="Rectangle 381154" width="11.95" height="1.466" fill="none"/>
    </clipPath>
    <clipPath id="clip-path-17">
      <rect id="Rectangle_381155" data-name="Rectangle 381155" width="4.502" height="3.299" fill="none"/>
    </clipPath>
    <clipPath id="clip-path-18">
      <rect id="Rectangle_381156" data-name="Rectangle 381156" width="20.529" height="2.245" fill="none"/>
    </clipPath>
  </defs>
  <g id="Mask_Group_461" data-name="Mask Group 461" transform="translate(-180 -4632)" clip-path="url(#clip-path)">
    <g id="Group_1078591" data-name="Group 1078591" transform="translate(224 4640)">
      <g id="Group_1078590" data-name="Group 1078590" clip-path="url(#clip-path-2)">
        <rect id="Rectangle_381121" data-name="Rectangle 381121" width="4.14" height="17.041" transform="translate(132.4 232.465)" fill="#ebebeb"/>
        <rect id="Rectangle_381122" data-name="Rectangle 381122" width="4.14" height="17.041" transform="translate(80.156 232.465)" fill="#ebebeb"/>
        <rect id="Rectangle_381123" data-name="Rectangle 381123" width="4.14" height="17.041" transform="translate(104.87 232.465)" fill="#e0e0e0"/>
        <rect id="Rectangle_381124" data-name="Rectangle 381124" width="4.14" height="17.041" transform="translate(60.446 232.465)" fill="#e0e0e0"/>
        <rect id="Rectangle_381125" data-name="Rectangle 381125" width="56.461" height="39.294" transform="translate(80.078 193.171)" fill="#ebebeb"/>
        <rect id="Rectangle_381126" data-name="Rectangle 381126" width="20.363" height="39.294" transform="translate(59.716 193.171)" fill="#e0e0e0"/>
        <g id="Group_1078548" data-name="Group 1078548">
          <g id="Group_1078547" data-name="Group 1078547" clip-path="url(#clip-path-2)">
            <path id="Path_831129" data-name="Path 831129" d="M139.625,328.79a2.177,2.177,0,0,0,.009-.222c0-.155.006-.365.01-.636,0-.57.012-1.392.022-2.453.012-2.143.029-5.254.051-9.184l-.092.095,45.443.061c-.067-.07.153.156-.148-.156v3.2q0,1.589,0,3.154,0,3.128,0,6.145l.148-.153-32.415.07-9.549.044-2.576.02-.671.009c-.152,0-.234.01-.234.01a1.727,1.727,0,0,0,.215.009l.653.01,2.544.02,9.516.044,32.518.069h.147v-.153q0-3.012,0-6.145,0-1.564,0-3.154v-3.2c-.3-.313-.085-.087-.153-.156l-45.443.061h-.092v.1c.021,3.954.039,7.084.051,9.24.01,1.053.017,1.867.022,2.433,0,.264.007.469.01.62a1.587,1.587,0,0,0,.009.2" transform="translate(-54.212 -115.972)" fill="#e0e0e0"/>
            <path id="Path_831130" data-name="Path 831130" d="M173.591,325.067a1.991,1.991,0,1,0,1.99-2.06,2.026,2.026,0,0,0-1.99,2.06" transform="translate(-67.445 -118.497)" fill="#e0e0e0"/>
            <path id="Path_831131" data-name="Path 831131" d="M203.1,281.427l-2.225,3.311s5.006,1.44,5.006,6.047-3.059,5.47-6.4,5.47-6.535-1.007-6.4-5.614a7.367,7.367,0,0,1,4.31-6.335l-2.085-2.88Z" transform="translate(-75.017 -103.243)" fill="#f5f5f5"/>
            <path id="Path_831132" data-name="Path 831132" d="M106.672,291.075v8.437h35.036a4.148,4.148,0,0,0,4.074-4.218h0a4.148,4.148,0,0,0-4.074-4.218" transform="translate(-41.445 -106.783)" fill="#e0e0e0"/>
            <path id="Path_831133" data-name="Path 831133" d="M106.672,298.768h12.835a1.087,1.087,0,0,0,1.068-1.105v-2.689a1.087,1.087,0,0,0-1.068-1.105H106.672Z" transform="translate(-41.445 -107.807)" fill="#fafafa"/>
            <path id="Path_831134" data-name="Path 831134" d="M106.672,278.276v8.437h35.036a4.221,4.221,0,0,0,0-8.437Z" transform="translate(-41.445 -102.087)" fill="#f5f5f5"/>
            <path id="Path_831135" data-name="Path 831135" d="M106.672,285.969h12.835a1.087,1.087,0,0,0,1.068-1.105v-2.689a1.087,1.087,0,0,0-1.068-1.105H106.672Z" transform="translate(-41.445 -103.112)" fill="#e0e0e0"/>
            <rect id="Rectangle_381127" data-name="Rectangle 381127" width="43.323" height="68.229" transform="translate(74.62 61.809)" fill="#e0e0e0"/>
            <rect id="Rectangle_381128" data-name="Rectangle 381128" width="39.614" height="63.447" transform="translate(76.392 64.218)" fill="#fafafa"/>
            <rect id="Rectangle_381129" data-name="Rectangle 381129" width="10.901" height="20.698" transform="translate(90.832 85.592)" fill="#e0e0e0"/>
          </g>
        </g>
        <g id="Group_1078550" data-name="Group 1078550">
          <g id="Group_1078549" data-name="Group 1078549" clip-path="url(#clip-path-2)">
            <path id="Path_831136" data-name="Path 831136" d="M338.017,391.723c0,.091-75.674.165-169,.165C75.658,391.887,0,391.814,0,391.723s75.658-.165,169.017-.165c93.327,0,169,.073,169,.165" transform="translate(0 -143.646)" fill="#263238"/>
          </g>
        </g>
        <g id="Group_1078573" data-name="Group 1078573">
          <g id="Group_1078572" data-name="Group 1078572" clip-path="url(#clip-path-2)">
            <path id="Path_831137" data-name="Path 831137" d="M87.843,41.165H60.235a8.271,8.271,0,0,1-8.123-8.411v-.681a8.271,8.271,0,0,1,8.123-8.411H87.843Z" transform="translate(-20.247 -8.681)" fill="#ffae7e"/>
            <g id="Group_1078553" data-name="Group 1078553" transform="translate(30.652 15.089)" opacity="0.7">
              <g id="Group_1078552" data-name="Group 1078552">
                <g id="Group_1078551" data-name="Group 1078551" clip-path="url(#clip-path-6)">
                  <path id="Path_831138" data-name="Path 831138" d="M87.843,41.165H60.235a8.271,8.271,0,0,1-8.123-8.411v-.681a8.271,8.271,0,0,1,8.123-8.411H87.843Z" transform="translate(-52.112 -23.664)" fill="#fff"/>
                </g>
              </g>
            </g>
            <rect id="Rectangle_381133" data-name="Rectangle 381133" width="35.73" height="17.502" transform="translate(67.596 14.982)" fill="#ffae7e"/>
            <g id="Group_1078556" data-name="Group 1078556" transform="translate(66.383 15.089)" opacity="0.5">
              <g id="Group_1078555" data-name="Group 1078555">
                <g id="Group_1078554" data-name="Group 1078554" clip-path="url(#clip-path-7)">
                  <rect id="Rectangle_381134" data-name="Rectangle 381134" width="35.73" height="17.502" transform="translate(0 -0.001)" fill="#fff"/>
                </g>
              </g>
            </g>
            <rect id="Rectangle_381136" data-name="Rectangle 381136" width="35.73" height="17.502" transform="translate(103.327 14.982)" fill="#ffae7e"/>
            <g id="Group_1078559" data-name="Group 1078559" transform="translate(102.113 15.089)" opacity="0.3">
              <g id="Group_1078558" data-name="Group 1078558">
                <g id="Group_1078557" data-name="Group 1078557" clip-path="url(#clip-path-7)">
                  <rect id="Rectangle_381137" data-name="Rectangle 381137" width="35.73" height="17.502" transform="translate(0 -0.001)" fill="#fff"/>
                </g>
              </g>
            </g>
            <rect id="Rectangle_381139" data-name="Rectangle 381139" width="35.73" height="17.502" transform="translate(139.058 14.982)" fill="#ffae7e"/>
            <g id="Group_1078562" data-name="Group 1078562" transform="translate(137.844 15.089)" opacity="0.1">
              <g id="Group_1078561" data-name="Group 1078561">
                <g id="Group_1078560" data-name="Group 1078560" clip-path="url(#clip-path-6)">
                  <rect id="Rectangle_381140" data-name="Rectangle 381140" width="35.73" height="17.502" transform="translate(0.001 -0.001)" fill="#fff"/>
                </g>
              </g>
            </g>
            <rect id="Rectangle_381142" data-name="Rectangle 381142" width="35.73" height="17.502" transform="translate(174.64 15.089)" fill="#ffb68b"/>
            <rect id="Rectangle_381143" data-name="Rectangle 381143" width="35.73" height="17.502" transform="translate(210.249 14.982)" fill="#ffb68b"/>
            <g id="Group_1078565" data-name="Group 1078565" transform="translate(210.249 15.09)" opacity="0.2">
              <g id="Group_1078564" data-name="Group 1078564">
                <g id="Group_1078563" data-name="Group 1078563" clip-path="url(#clip-path-7)">
                  <rect id="Rectangle_381144" data-name="Rectangle 381144" width="35.73" height="17.502" transform="translate(0 -0.001)"/>
                </g>
              </g>
            </g>
            <rect id="Rectangle_381146" data-name="Rectangle 381146" width="35.73" height="17.502" transform="translate(245.859 14.982)" fill="#ffb68b"/>
            <path id="Path_831139" data-name="Path 831139" d="M487.918,41.165H460.31v-17.5h27.608a8.271,8.271,0,0,1,8.123,8.411v.681a8.271,8.271,0,0,1-8.123,8.411" transform="translate(-178.843 -8.681)" fill="#ffb68b"/>
            <g id="Group_1078568" data-name="Group 1078568" transform="translate(245.858 15.09)" opacity="0.4">
              <g id="Group_1078567" data-name="Group 1078567">
                <g id="Group_1078566" data-name="Group 1078566" clip-path="url(#clip-path-6)">
                  <rect id="Rectangle_381147" data-name="Rectangle 381147" width="35.73" height="17.502" transform="translate(0.001 -0.001)"/>
                </g>
              </g>
            </g>
            <g id="Group_1078571" data-name="Group 1078571" transform="translate(281.467 15.09)" opacity="0.7">
              <g id="Group_1078570" data-name="Group 1078570">
                <g id="Group_1078569" data-name="Group 1078569" clip-path="url(#clip-path-7)">
                  <path id="Path_831140" data-name="Path 831140" d="M487.918,41.165H460.31v-17.5h27.608a8.271,8.271,0,0,1,8.123,8.411v.681a8.271,8.271,0,0,1-8.123,8.411" transform="translate(-460.31 -23.664)"/>
                </g>
              </g>
            </g>
            <path id="Path_831141" data-name="Path 831141" d="M314.2,29.648a12.334,12.334,0,1,1-24.653,0,12.334,12.334,0,1,1,24.653,0" transform="translate(-112.498 -6.194)" fill="#263238"/>
            <path id="Path_831142" data-name="Path 831142" d="M319.338,29.648a12.334,12.334,0,1,1-24.653,0,12.334,12.334,0,1,1,24.653,0" transform="translate(-114.493 -6.194)" fill="#455a64"/>
            <path id="Path_831143" data-name="Path 831143" d="M318.662,30.52a18.118,18.118,0,0,0-.4-2.7,11.163,11.163,0,0,0-3.917-6.052A10.307,10.307,0,0,0,304.3,20.21a9.872,9.872,0,0,0-2.68,1.5,12.141,12.141,0,0,0-1.2,1.059,12.427,12.427,0,0,0-1.037,1.272,11.235,11.235,0,0,0,0,12.964,12.435,12.435,0,0,0,1.037,1.273,12.082,12.082,0,0,0,1.2,1.059,9.839,9.839,0,0,0,2.68,1.5,10.306,10.306,0,0,0,10.047-1.557,11.157,11.157,0,0,0,3.916-6.052,18.106,18.106,0,0,0,.4-2.7.754.754,0,0,1,.007.18c0,.138-.005.313-.01.531a5.287,5.287,0,0,1-.069.86,8.151,8.151,0,0,1-.2,1.161,10.744,10.744,0,0,1-1.167,3,11.011,11.011,0,0,1-2.734,3.209A10.507,10.507,0,0,1,304.2,41.115a10.109,10.109,0,0,1-2.761-1.529A12.387,12.387,0,0,1,300.2,38.5a12.648,12.648,0,0,1-1.071-1.307,11.539,11.539,0,0,1,0-13.347,10.169,10.169,0,0,1,2.308-2.393,10.116,10.116,0,0,1,2.761-1.528,10.508,10.508,0,0,1,10.282,1.656,11.011,11.011,0,0,1,2.734,3.209,10.722,10.722,0,0,1,1.167,3,8.071,8.071,0,0,1,.2,1.161,5.3,5.3,0,0,1,.069.86c0,.218.007.393.01.531a.754.754,0,0,1-.007.18" transform="translate(-115.395 -7.066)" fill="#263238"/>
            <path id="Path_831144" data-name="Path 831144" d="M107.1.091V5.136h-.689V.718h-1.1V.091Z" transform="translate(-40.915 -0.033)" fill="#263238"/>
            <path id="Path_831145" data-name="Path 831145" d="M170.658,4.476V5.1h-3.5v-.49l1.984-1.982a1.56,1.56,0,0,0,.613-1.153c0-.519-.355-.836-1.037-.836a1.505,1.505,0,0,0-1.246.548L167,.764A2.211,2.211,0,0,1,168.778,0c1.016,0,1.671.541,1.671,1.406a2.069,2.069,0,0,1-.8,1.585l-1.489,1.485Z" transform="translate(-64.882)" fill="#263238"/>
            <path id="Path_831146" data-name="Path 831146" d="M226.987,3.652c0,.85-.606,1.542-1.845,1.542a2.7,2.7,0,0,1-1.789-.613l.32-.569a2.151,2.151,0,0,0,1.469.541c.731,0,1.148-.346,1.148-.894s-.369-.879-1.2-.879h-.39v-.5L225.922.718h-2.346V.091h3.216V.582L225.519,2.21a1.42,1.42,0,0,1,1.469,1.442" transform="translate(-86.779 -0.033)" fill="#263238"/>
            <path id="Path_831147" data-name="Path 831147" d="M286.772,3.9h-.926v1.24h-.674V3.9h-2.708v-.5l2.491-3.3h.752L283.32,3.277h1.872v-1.1h.654v1.1h.926Z" transform="translate(-109.745 -0.033)" fill="#263238"/>
            <path id="Path_831148" data-name="Path 831148" d="M342.709,3.623c0,.872-.6,1.571-1.845,1.571a2.727,2.727,0,0,1-1.789-.613l.32-.569a2.145,2.145,0,0,0,1.462.541c.738,0,1.155-.353,1.155-.9,0-.57-.348-.922-1.476-.922h-1.106l.257-2.638h2.749V.718h-2.165L340.141,2.1h.542c1.455,0,2.026.627,2.026,1.521" transform="translate(-131.74 -0.033)" fill="#263238"/>
            <path id="Path_831149" data-name="Path 831149" d="M402.328,3.567A1.6,1.6,0,0,1,400.6,5.16c-1.308,0-2.045-.908-2.045-2.515,0-1.722.939-2.645,2.3-2.645a2.283,2.283,0,0,1,1.211.3l-.265.562a1.645,1.645,0,0,0-.932-.237c-.989,0-1.622.641-1.622,1.9a1.535,1.535,0,0,0,.007.18,1.6,1.6,0,0,1,1.4-.663,1.526,1.526,0,0,1,1.671,1.528m-.675.029a.981.981,0,0,0-1.113-.973,1.024,1.024,0,0,0-1.121.98,1.02,1.02,0,0,0,1.155.973.977.977,0,0,0,1.079-.98" transform="translate(-154.85)" fill="#263238"/>
            <path id="Path_831150" data-name="Path 831150" d="M462.658.091V.582l-1.97,4.554h-.737L461.879.718h-2.228v.9h-.668V.091Z" transform="translate(-178.327 -0.033)" fill="#263238"/>
            <path id="Path_831151" data-name="Path 831151" d="M308.109,38.4a17.035,17.035,0,0,1-2.582-2.088l-.028-.025-.144-.129.147-.124a16.7,16.7,0,0,1,2.606-1.992,16.894,16.894,0,0,1-2.4,2.247l0-.253.027.025a17.225,17.225,0,0,1,2.374,2.338" transform="translate(-118.639 -12.487)" fill="#263238"/>
            <path id="Path_831152" data-name="Path 831152" d="M321.642,34.042a17,17,0,0,1,2.582,2.088l.028.025.144.129-.147.124a16.7,16.7,0,0,1-2.606,1.992,16.977,16.977,0,0,1,2.4-2.247l0,.253-.028-.025a17.219,17.219,0,0,1-2.374-2.338" transform="translate(-124.966 -12.487)" fill="#263238"/>
            <path id="Path_831153" data-name="Path 831153" d="M317.648,37.3a53.711,53.711,0,0,1-5.943.165,53.727,53.727,0,0,1-5.944-.165,107.381,107.381,0,0,1,11.887,0" transform="translate(-118.796 -13.622)" fill="#263238"/>
            <path id="Path_831154" data-name="Path 831154" d="M23.629,32.927a17.71,17.71,0,0,0-.381-2.577,10.639,10.639,0,0,0-3.737-5.77A9.826,9.826,0,0,0,9.932,23.1a9.393,9.393,0,0,0-2.555,1.426,11.549,11.549,0,0,0-1.145,1.009,11.794,11.794,0,0,0-.989,1.213,10.711,10.711,0,0,0,0,12.36,11.794,11.794,0,0,0,.989,1.213,11.576,11.576,0,0,0,1.145,1.01,9.41,9.41,0,0,0,2.555,1.426,9.825,9.825,0,0,0,9.579-1.483,10.642,10.642,0,0,0,3.737-5.77,17.71,17.71,0,0,0,.381-2.576.7.7,0,0,1,.008.172c0,.133-.006.3-.009.507a5.03,5.03,0,0,1-.065.821,7.735,7.735,0,0,1-.194,1.108A10.229,10.229,0,0,1,22.256,38.4a10.49,10.49,0,0,1-2.609,3.063,10.031,10.031,0,0,1-9.815,1.583A9.638,9.638,0,0,1,7.2,41.582a11.721,11.721,0,0,1-1.183-1.037A12,12,0,0,1,4.991,39.3a11.013,11.013,0,0,1,0-12.742,11.937,11.937,0,0,1,1.022-1.247A11.721,11.721,0,0,1,7.2,24.271a9.658,9.658,0,0,1,2.636-1.459,10.032,10.032,0,0,1,9.815,1.582,10.518,10.518,0,0,1,2.609,3.063,10.251,10.251,0,0,1,1.112,2.861,7.72,7.72,0,0,1,.194,1.108,5.03,5.03,0,0,1,.065.821c0,.206.007.374.009.507a.7.7,0,0,1-.008.172" transform="translate(-1.151 -8.137)" fill="#263238"/>
            <path id="Path_831155" data-name="Path 831155" d="M21.337,39.059a37.472,37.472,0,0,1-4.961.165,37.471,37.471,0,0,1-4.961-.165,37.47,37.47,0,0,1,4.961-.165,37.471,37.471,0,0,1,4.961.165" transform="translate(-4.435 -14.269)" fill="#263238"/>
            <path id="Path_831156" data-name="Path 831156" d="M546.987,30.816a17.6,17.6,0,0,0-.381-2.577,10.638,10.638,0,0,0-3.737-5.77,9.826,9.826,0,0,0-9.579-1.482,9.38,9.38,0,0,0-2.555,1.426,11.487,11.487,0,0,0-1.145,1.009,11.729,11.729,0,0,0-.989,1.213,10.711,10.711,0,0,0,0,12.36,11.8,11.8,0,0,0,.989,1.213,11.574,11.574,0,0,0,1.145,1.01,9.411,9.411,0,0,0,2.555,1.426,9.825,9.825,0,0,0,9.579-1.483,10.642,10.642,0,0,0,3.737-5.77,17.609,17.609,0,0,0,.381-2.576.7.7,0,0,1,.008.172c0,.133-.005.3-.009.507a5.035,5.035,0,0,1-.065.821,7.721,7.721,0,0,1-.194,1.107,10.237,10.237,0,0,1-1.112,2.861,10.493,10.493,0,0,1-2.609,3.063,10.031,10.031,0,0,1-9.815,1.583,9.64,9.64,0,0,1-2.637-1.459,11.714,11.714,0,0,1-1.182-1.037,12.067,12.067,0,0,1-1.022-1.247,11.013,11.013,0,0,1,0-12.742,11.933,11.933,0,0,1,1.022-1.247,11.721,11.721,0,0,1,1.183-1.037,9.659,9.659,0,0,1,2.636-1.459,10.032,10.032,0,0,1,9.815,1.582,10.5,10.5,0,0,1,2.609,3.063,10.247,10.247,0,0,1,1.112,2.861,7.728,7.728,0,0,1,.194,1.108,5.035,5.035,0,0,1,.065.821c0,.206.007.374.009.507a.7.7,0,0,1-.008.172" transform="translate(-204.49 -7.362)" fill="#263238"/>
            <path id="Path_831157" data-name="Path 831157" d="M544.7,36.948a37.47,37.47,0,0,1-4.961.165,37.47,37.47,0,0,1-4.962-.165,74.843,74.843,0,0,1,9.922,0" transform="translate(-207.774 -13.494)" fill="#263238"/>
            <path id="Path_831158" data-name="Path 831158" d="M542.787,38.57a38.769,38.769,0,0,1-.159-4.961,38.767,38.767,0,0,1,.159-4.962,38.8,38.8,0,0,1,.159,4.962,38.8,38.8,0,0,1-.159,4.961" transform="translate(-210.826 -10.509)" fill="#263238"/>
          </g>
        </g>
        <g id="Group_1078578" data-name="Group 1078578">
          <g id="Group_1078577" data-name="Group 1078577" clip-path="url(#clip-path-2)">
            <path id="Path_831159" data-name="Path 831159" d="M94.856,308.556c-5.9-5.027-6.683-13.529-5.863-21.048a8.456,8.456,0,0,1,.766-3.649,2.44,2.44,0,0,1,3.116-1.083c.87.513,1.18,1.633,1.617,2.573a7.306,7.306,0,0,0,2.637,3.051,2.641,2.641,0,0,0,2.478.437c1.093-.513,1.331-2,1.419-3.256q.244-3.5.489-7a12.062,12.062,0,0,1,.648-3.688,3.812,3.812,0,0,1,2.555-2.432,2.283,2.283,0,0,1,2.7,1.807,11.971,11.971,0,0,1-.084,1.561,1.333,1.333,0,0,0,.65,1.3,1.435,1.435,0,0,0,1.371-.466,16.631,16.631,0,0,0,3.228-4.276,23.153,23.153,0,0,1,3.045-4.435,6.462,6.462,0,0,1,4.624-2.212,3.955,3.955,0,0,1,3.8,3.091c.3,1.8-.825,3.509-2.016,4.85a27.273,27.273,0,0,1-6.039,5.087,2.257,2.257,0,0,0-1.019.97c-.326.813.375,1.7,1.15,2.043a13.6,13.6,0,0,0,2.8.558,2.737,2.737,0,0,1,2.209,1.657c.4,1.319-.737,2.576-1.82,3.372a22.859,22.859,0,0,1-7.151,3.532,7.657,7.657,0,0,0-2.639,1.072,2.367,2.367,0,0,0-.918,2.6,2.261,2.261,0,0,0,2.4,1.187,15.67,15.67,0,0,0,2.732-.833c1.711-.513,3.847-.22,4.8,1.353a4.1,4.1,0,0,1,.141,3.536,9.147,9.147,0,0,1-2.067,2.944,23.159,23.159,0,0,1-10.473,6.413c-3.958,1.07-7.557,1.154-11.277-.608" transform="translate(-34.47 -97.487)" fill="#c1e29a"/>
            <g id="Group_1078576" data-name="Group 1078576" transform="translate(54.25 168.249)" opacity="0.4">
              <g id="Group_1078575" data-name="Group 1078575">
                <g id="Group_1078574" data-name="Group 1078574" clip-path="url(#clip-path-14)">
                  <path id="Path_831160" data-name="Path 831160" d="M94.856,308.556c-5.9-5.027-6.683-13.529-5.863-21.048a8.456,8.456,0,0,1,.766-3.649,2.44,2.44,0,0,1,3.116-1.083c.87.513,1.18,1.633,1.617,2.573a7.306,7.306,0,0,0,2.637,3.051,2.641,2.641,0,0,0,2.478.437c1.093-.513,1.331-2,1.419-3.256q.244-3.5.489-7a12.062,12.062,0,0,1,.648-3.688,3.812,3.812,0,0,1,2.555-2.432,2.283,2.283,0,0,1,2.7,1.807,11.971,11.971,0,0,1-.084,1.561,1.333,1.333,0,0,0,.65,1.3,1.435,1.435,0,0,0,1.371-.466,16.631,16.631,0,0,0,3.228-4.276,23.153,23.153,0,0,1,3.045-4.435,6.462,6.462,0,0,1,4.624-2.212,3.955,3.955,0,0,1,3.8,3.091c.3,1.8-.825,3.509-2.016,4.85a27.273,27.273,0,0,1-6.039,5.087,2.257,2.257,0,0,0-1.019.97c-.326.813.375,1.7,1.15,2.043a13.6,13.6,0,0,0,2.8.558,2.737,2.737,0,0,1,2.209,1.657c.4,1.319-.737,2.576-1.82,3.372a22.859,22.859,0,0,1-7.151,3.532,7.657,7.657,0,0,0-2.639,1.072,2.367,2.367,0,0,0-.918,2.6,2.261,2.261,0,0,0,2.4,1.187,15.67,15.67,0,0,0,2.732-.833c1.711-.513,3.847-.22,4.8,1.353a4.1,4.1,0,0,1,.141,3.536,9.147,9.147,0,0,1-2.067,2.944,23.159,23.159,0,0,1-10.473,6.413c-3.958,1.07-7.557,1.154-11.277-.608" transform="translate(-88.721 -265.736)"/>
                </g>
              </g>
            </g>
            <path id="Path_831161" data-name="Path 831161" d="M125.629,267.684a.867.867,0,0,1-.127.11l-.384.3c-.338.264-.838.653-1.468,1.173a46.147,46.147,0,0,0-5.009,4.784c-.988,1.086-2.022,2.324-3.109,3.673s-2.236,2.8-3.391,4.377a56.843,56.843,0,0,0-3.388,5.106c-.539.919-1.03,1.886-1.532,2.873s-1.006,1.987-1.518,3a117.273,117.273,0,0,0-5.223,11.694,57.636,57.636,0,0,0-2.794,10.106,42.516,42.516,0,0,0-.651,7.06c0,.838.013,1.49.036,1.931.007.211.013.377.018.5a1.082,1.082,0,0,1,0,.172.949.949,0,0,1-.022-.17c-.009-.124-.023-.29-.04-.5-.039-.441-.065-1.093-.078-1.934a40.629,40.629,0,0,1,.582-7.089A56.655,56.655,0,0,1,100.29,304.7a114.3,114.3,0,0,1,5.217-11.725l1.52-3c.5-.983,1-1.959,1.541-2.882a56.284,56.284,0,0,1,3.413-5.119c1.162-1.573,2.319-3.023,3.411-4.371s2.139-2.579,3.137-3.662a43.63,43.63,0,0,1,5.07-4.742c.638-.509,1.146-.888,1.494-1.139l.4-.284a.875.875,0,0,1,.139-.09" transform="translate(-37.667 -98.202)" fill="#263238"/>
            <path id="Path_831162" data-name="Path 831162" d="M115.595,290.266a2.65,2.65,0,0,1-.078-.543c-.037-.351-.075-.86-.113-1.491-.076-1.26-.124-3-.17-4.927s-.117-3.662-.212-4.917c-.045-.628-.087-1.136-.12-1.487a2.62,2.62,0,0,1-.026-.549,2.588,2.588,0,0,1,.113.537c.059.348.125.855.191,1.483.136,1.256.233,3,.278,4.926.041,1.9.077,3.615.105,4.926.016.592.031,1.092.042,1.492a2.622,2.622,0,0,1-.009.55" transform="translate(-44.63 -101.382)" fill="#263238"/>
            <path id="Path_831163" data-name="Path 831163" d="M131.825,295.516a3.261,3.261,0,0,1-.626.027c-.4,0-.983.007-1.7.035-1.436.043-3.416.174-5.6.419s-4.143.56-5.556.828c-.708.129-1.279.249-1.673.33a3.194,3.194,0,0,1-.618.1,3.281,3.281,0,0,1,.6-.194c.39-.108.956-.253,1.663-.4,1.41-.31,3.377-.648,5.563-.9a53.129,53.129,0,0,1,5.616-.351c.72-.006,1.3.015,1.705.039a3.214,3.214,0,0,1,.623.065" transform="translate(-45.091 -108.374)" fill="#263238"/>
            <path id="Path_831164" data-name="Path 831164" d="M98.783,313.422a.848.848,0,0,1-.092-.205l-.221-.6c-.19-.526-.446-1.293-.75-2.245-.61-1.9-1.372-4.563-2.175-7.508s-1.541-5.608-2.111-7.523l-.682-2.266-.182-.618a.825.825,0,0,1-.049-.221.862.862,0,0,1,.092.205l.221.6c.19.526.446,1.293.75,2.245.61,1.9,1.372,4.563,2.175,7.509s1.541,5.607,2.111,7.522c.281.931.511,1.7.682,2.265l.183.618a.866.866,0,0,1,.049.221" transform="translate(-35.946 -107.208)" fill="#263238"/>
            <path id="Path_831165" data-name="Path 831165" d="M123.939,317.47a.8.8,0,0,1-.212.071l-.616.159-2.268.562c-1.915.475-4.552,1.162-7.465,1.926s-5.56,1.427-7.485,1.861c-.962.218-1.743.386-2.284.489l-.624.117a.8.8,0,0,1-.221.025.8.8,0,0,1,.212-.072l.615-.159,2.268-.562c1.915-.475,4.552-1.162,7.467-1.927s5.559-1.426,7.484-1.861c.962-.217,1.743-.385,2.284-.489l.624-.117a.771.771,0,0,1,.221-.025" transform="translate(-39.927 -116.465)" fill="#263238"/>
            <path id="Path_831166" data-name="Path 831166" d="M61.231,283.775c9.114-7.762,10.318-20.889,9.053-32.5-.211-1.937-.161-4-1.183-5.635s-3.193-2.628-4.811-1.672c-1.342.793-1.822,2.521-2.5,3.972-.9,1.932-12.527,4.261-14.272,5.386-1.146.739,7.607.577,6.376,0-1.689-.793-2.056-3.093-2.191-5.027q-.377-5.406-.755-10.81a18.642,18.642,0,0,0-1-5.694,5.888,5.888,0,0,0-3.946-3.756,3.525,3.525,0,0,0-4.161,2.79,18.573,18.573,0,0,0,.13,2.41,2.059,2.059,0,0,1-1,2.007,2.216,2.216,0,0,1-2.117-.72,25.678,25.678,0,0,1-4.985-6.6,35.769,35.769,0,0,0-4.7-6.849,9.982,9.982,0,0,0-7.14-3.415,6.109,6.109,0,0,0-5.872,4.773c-.47,2.78,1.275,5.418,3.112,7.488a42.126,42.126,0,0,0,9.324,7.855,3.488,3.488,0,0,1,1.574,1.5c.5,1.256-.578,2.631-1.775,3.154a20.978,20.978,0,0,1-4.317.862,4.226,4.226,0,0,0-3.41,2.558c-.615,2.037,1.138,3.978,2.811,5.206a35.268,35.268,0,0,0,11.041,5.453,11.828,11.828,0,0,1,4.075,1.656,3.654,3.654,0,0,1,1.418,4.007,3.492,3.492,0,0,1-3.709,1.834,24.342,24.342,0,0,1-4.219-1.287c-2.641-.793-5.939-.341-7.407,2.088a6.328,6.328,0,0,0-.218,5.46,14.122,14.122,0,0,0,3.192,4.545,35.76,35.76,0,0,0,16.17,9.9c6.112,1.652,11.669,1.781,17.412-.94" transform="translate(-6.247 -79.85)" fill="#c1e29a"/>
            <path id="Path_831167" data-name="Path 831167" d="M20.287,220.669a1.3,1.3,0,0,0,.2.17l.593.467c.523.406,1.293,1.008,2.266,1.811a71.257,71.257,0,0,1,7.733,7.386c1.525,1.678,3.122,3.589,4.8,5.672s3.452,4.329,5.235,6.758a87.812,87.812,0,0,1,5.232,7.883c.832,1.419,1.59,2.912,2.365,4.435s1.552,3.068,2.344,4.631a181.086,181.086,0,0,1,8.064,18.055,89.015,89.015,0,0,1,4.315,15.6,65.667,65.667,0,0,1,1,10.9c0,1.295-.019,2.3-.056,2.981-.012.326-.021.583-.028.776a1.59,1.59,0,0,0,0,.265,1.41,1.41,0,0,0,.034-.263c.015-.191.036-.448.062-.774.059-.681.1-1.687.12-2.985a62.727,62.727,0,0,0-.9-10.945,87.465,87.465,0,0,0-4.26-15.679,176.467,176.467,0,0,0-8.054-18.1l-2.347-4.633c-.774-1.518-1.54-3.025-2.379-4.45a87.078,87.078,0,0,0-5.27-7.9c-1.793-2.429-3.581-4.668-5.267-6.747s-3.3-3.983-4.843-5.655a67.193,67.193,0,0,0-7.828-7.321c-.986-.786-1.77-1.371-2.306-1.759l-.613-.438a1.4,1.4,0,0,0-.215-.139" transform="translate(-7.882 -80.954)" fill="#263238"/>
            <path id="Path_831168" data-name="Path 831168" d="M63.191,255.537a4.065,4.065,0,0,0,.12-.839c.057-.543.116-1.329.174-2.3.117-1.946.191-4.638.262-7.607s.182-5.654.328-7.592c.07-.97.135-1.754.186-2.3a4.028,4.028,0,0,0,.041-.847,3.925,3.925,0,0,0-.174.829c-.092.537-.194,1.319-.3,2.289-.209,1.939-.359,4.633-.429,7.606-.063,2.93-.119,5.581-.162,7.606-.025.915-.047,1.685-.064,2.3a4.014,4.014,0,0,0,.014.848" transform="translate(-24.543 -85.864)" fill="#263238"/>
            <path id="Path_831169" data-name="Path 831169" d="M23.387,263.642a5.01,5.01,0,0,0,.966.04c.62.007,1.517.011,2.625.054,2.217.066,5.275.27,8.64.647s6.4.864,8.579,1.278c1.094.2,1.974.384,2.583.508a4.992,4.992,0,0,0,.955.162,5.018,5.018,0,0,0-.925-.3c-.6-.166-1.477-.391-2.567-.622-2.177-.479-5.213-1-8.589-1.387a82.135,82.135,0,0,0-8.672-.543c-1.112-.009-2.012.024-2.633.061a4.948,4.948,0,0,0-.962.1" transform="translate(-9.086 -96.659)" fill="#263238"/>
            <path id="Path_831170" data-name="Path 831170" d="M83.727,291.289a1.336,1.336,0,0,0,.141-.317c.092-.252.2-.56.342-.932.293-.811.689-2,1.159-3.466.941-2.94,2.118-7.045,3.358-11.592s2.379-8.659,3.26-11.616c.432-1.438.789-2.62,1.053-3.5.113-.381.205-.7.281-.953a1.268,1.268,0,0,0,.076-.341,1.293,1.293,0,0,0-.141.317c-.093.252-.206.559-.342.931-.294.811-.689,2-1.159,3.466-.942,2.94-2.119,7.045-3.359,11.594s-2.379,8.657-3.259,11.614c-.434,1.437-.789,2.62-1.053,3.5-.113.381-.205.7-.282.954a1.261,1.261,0,0,0-.075.341" transform="translate(-32.529 -94.859)" fill="#263238"/>
            <path id="Path_831171" data-name="Path 831171" d="M30.261,297.539a1.3,1.3,0,0,0,.327.109l.951.246,3.5.867c2.956.734,7.029,1.8,11.527,2.974s8.585,2.2,11.557,2.874c1.486.336,2.691.595,3.527.755l.964.18a1.211,1.211,0,0,0,.341.038,1.293,1.293,0,0,0-.327-.109l-.95-.246-3.5-.867c-2.956-.733-7.029-1.795-11.529-2.975s-8.583-2.2-11.555-2.873c-1.486-.336-2.691-.595-3.528-.755l-.964-.18a1.229,1.229,0,0,0-.341-.039" transform="translate(-11.757 -109.152)" fill="#263238"/>
            <path id="Path_831172" data-name="Path 831172" d="M71.508,357.261l.836,23.309H96.6l1.919-23.309Z" transform="translate(-27.783 -131.064)" fill="#263238"/>
            <rect id="Rectangle_381152" data-name="Rectangle 381152" width="32.245" height="7.705" transform="translate(41.383 218.493)" fill="#263238"/>
            <path id="Path_831173" data-name="Path 831173" d="M98.982,356.966c0,.086-6.077.156-13.571.156s-13.573-.07-13.573-.156,6.076-.156,13.573-.156,13.571.07,13.571.156" transform="translate(-27.911 -130.898)" fill="#455a64"/>
          </g>
        </g>
        <g id="Group_1078589" data-name="Group 1078589">
          <g id="Group_1078588" data-name="Group 1078588" clip-path="url(#clip-path-2)">
            <path id="Path_831174" data-name="Path 831174" d="M378.245,314.682,357.773,204.961l.026-.007c-.039-.163-.078-.317-.116-.477l0-.02h0c-3.142-12.9-5.623-16.067-5.623-16.067l-30.622.865c-2.4,4.473-2.708,15.2-2.708,15.2-.329,1.315,4.389,108.051,4.389,108.051l12.692-.039,3.466-101.222,27.387,103.7Z" transform="translate(-123.827 -69.112)" fill="#263238"/>
            <path id="Path_831175" data-name="Path 831175" d="M355.85,219.07c.026.1-3.382,1.107-7.612,2.241s-7.68,1.968-7.706,1.864,3.382-1.107,7.612-2.241,7.68-1.968,7.706-1.864" transform="translate(-132.306 -80.364)" fill="#455a64"/>
            <path id="Path_831176" data-name="Path 831176" d="M327.824,321.3c-.088,0-.857-25.211-1.718-56.309s-1.488-56.321-1.4-56.324.857,25.205,1.718,56.314,1.488,56.316,1.4,56.319" transform="translate(-126.154 -76.553)" fill="#455a64"/>
            <path id="Path_831177" data-name="Path 831177" d="M335.244,319.346c-.088,0-.242-24.823-.344-55.437s-.114-55.444-.026-55.444.242,24.818.344,55.443.114,55.438.026,55.438" transform="translate(-130.084 -76.477)" fill="#455a64"/>
            <path id="Path_831178" data-name="Path 831178" d="M343.148,206.085c.088,0-.248,25.164-.751,56.193s-.982,56.2-1.07,56.194.249-25.159.752-56.2.981-56.19,1.069-56.188" transform="translate(-132.609 -75.604)" fill="#455a64"/>
            <path id="Path_831179" data-name="Path 831179" d="M351.968,217.431a58.517,58.517,0,0,1-.43-6.083,58.475,58.475,0,0,1-.111-6.1,58.51,58.51,0,0,1,.43,6.084,58.473,58.473,0,0,1,.111,6.1" transform="translate(-136.522 -75.297)" fill="#455a64"/>
            <path id="Path_831180" data-name="Path 831180" d="M384.857,320.793c-.086.021-6.147-25.829-13.537-57.731s-13.314-57.791-13.228-57.813,6.145,25.823,13.538,57.736,13.312,57.786,13.227,57.807" transform="translate(-139.128 -75.297)" fill="#455a64"/>
            <path id="Path_831181" data-name="Path 831181" d="M391.718,320.062c-.086.02-5.837-26.058-12.842-58.238s-12.619-58.3-12.533-58.316,5.835,26.052,12.844,58.243,12.617,58.291,12.532,58.311" transform="translate(-142.334 -74.658)" fill="#455a64"/>
            <path id="Path_831182" data-name="Path 831182" d="M397.641,319.41c-.086.018-5.084-25.916-11.162-57.917s-10.937-57.969-10.851-57.986,5.083,25.911,11.163,57.922,10.936,57.963,10.849,57.981" transform="translate(-145.941 -74.658)" fill="#455a64"/>
            <path id="Path_831183" data-name="Path 831183" d="M306.866,86.221l-20.381-18.2.395-25.946.392-.547c.211-.3.454-.632.739-1a4.765,4.765,0,0,1,1.173-1.064,7.1,7.1,0,0,1,1.745-.889c.583-.137.718-.924.227-1.143s-2.1.116-3.647,1.315-.785-1.807-.527-2.907.9-4.538.635-4.878c-.389-.5-.994-.152-1.226.952s-1.156,4.37-1.713,4.216.837-5.734.837-5.734.484-1.149-.154-1.349c-1.15-.36-2.2,5.675-2.285,6.252-.06.4-.671.256-.585-.171s1.508-5.538.341-5.917c-.9-.29-.908,4.958-1.772,5.862s.4-3.988-.463-4.229c-.323-.09-.577-.11-.912,2.8a58.7,58.7,0,0,0-.613,6.059h0l-3.537,31.257,20.519,23.88Z" transform="translate(-107.05 -10.652)" fill="#ffbe9d"/>
            <path id="Path_831184" data-name="Path 831184" d="M325.736,384.507l-1.661,5.737,11.849-.146.527-6.138Z" transform="translate(-125.912 -140.859)" fill="#7816c2"/>
            <path id="Path_831185" data-name="Path 831185" d="M336.346,391.638a7.121,7.121,0,0,1-1.725.141c-1.067.03-2.541.021-4.165-.021l-4.159-.139a8.145,8.145,0,0,1-1.723-.14,7.223,7.223,0,0,1,1.726-.135c1.066-.027,2.54-.017,4.165.025l4.158.135a8.226,8.226,0,0,1,1.724.134" transform="translate(-126.105 -143.562)" fill="#263238"/>
            <path id="Path_831186" data-name="Path 831186" d="M335.281,383.592a17.831,17.831,0,0,1-.276,5.154,17.83,17.83,0,0,1,.276-5.154" transform="translate(-130.122 -140.723)" fill="#263238"/>
            <g id="Group_1078581" data-name="Group 1078581" transform="translate(198.161 247.92)" opacity="0.6">
              <g id="Group_1078580" data-name="Group 1078580">
                <g id="Group_1078579" data-name="Group 1078579" clip-path="url(#clip-path-16)">
                  <path id="Path_831187" data-name="Path 831187" d="M324.074,393.036l11.848-.146.1-1.161-11.751-.158-.2,1.327" transform="translate(-324.072 -391.57)" fill="#fff"/>
                </g>
              </g>
            </g>
            <path id="Path_831188" data-name="Path 831188" d="M337.028,29.7c-.778.464,1.663,4.854.6,4.21s-2.375-5.711-3.169-5.192c-1.033.676,1.6,5.225,1.8,5.627s-.365.692-.522.32c-.227-.534-2.74-6.086-3.762-5.432-.566.363.186,1.344.186,1.344s2.726,5.026,2.233,5.318-2.2-2.6-2.7-3.617-1.17-1.18-1.422-.593c-.172.4,1.3,3.551,1.825,4.545s2,3.7.213,2.949-3.432-.64-3.852-.3a.617.617,0,0,0,.5,1.043,7.005,7.005,0,0,1,1.907.394,4.639,4.639,0,0,1,1.4.716c.366.275.682.531.961.765l.515.424,10.213,26.072-9.28,22.363L349.06,96.2l6.464-29.573-14.818-28.78,0,0a57.955,57.955,0,0,0-2.1-5.693c-1.046-2.72-1.287-2.632-1.576-2.46" transform="translate(-127.542 -10.522)" fill="#ffbe9d"/>
            <path id="Path_831189" data-name="Path 831189" d="M409.346,388.847,409.3,387.6l-12.236.367.106,4.124.757.026c3.366.086,17.124.21,19.351-.508,2.484-.8-7.933-2.757-7.933-2.757" transform="translate(-154.27 -142.192)" fill="#7816c2"/>
            <g id="Group_1078584" data-name="Group 1078584" transform="translate(242.812 246.428)" opacity="0.6">
              <g id="Group_1078583" data-name="Group 1078583">
                <g id="Group_1078582" data-name="Group 1078582" clip-path="url(#clip-path-17)">
                  <path id="Path_831190" data-name="Path 831190" d="M401.6,392.466a4.057,4.057,0,0,0-1.63-2.457,4.227,4.227,0,0,0-2.873-.773l.1,3.277Z" transform="translate(-397.093 -389.213)" fill="#fff"/>
                </g>
              </g>
            </g>
            <g id="Group_1078587" data-name="Group 1078587" transform="translate(242.9 247.784)" opacity="0.6">
              <g id="Group_1078586" data-name="Group 1078586">
                <g id="Group_1078585" data-name="Group 1078585" clip-path="url(#clip-path-18)">
                  <path id="Path_831191" data-name="Path 831191" d="M414.508,391.355s3.658.907,3.223,1.494-14.343.966-20.493.617l.012-.263,16.227-.308s.324-1.492,1.032-1.54" transform="translate(-397.238 -391.355)" fill="#fff"/>
                </g>
              </g>
            </g>
            <path id="Path_831192" data-name="Path 831192" d="M396.944,393.951a1.156,1.156,0,0,0,.21.016l.6.019,2.217.032c1.872.013,4.458,0,7.313-.075s5.44-.2,7.308-.312l2.212-.149.6-.051a.105.105,0,1,0,0-.029l-.6.024-2.214.1c-1.869.087-4.451.194-7.306.27s-5.438.105-7.309.117l-2.216.013-.6.008a1.183,1.183,0,0,0-.21.013" transform="translate(-154.223 -144.321)" fill="#263238"/>
            <path id="Path_831193" data-name="Path 831193" d="M423.781,392.992a4.7,4.7,0,0,1,.383-1.029,4.894,4.894,0,0,1,.731-.836,1.626,1.626,0,0,0-.859.766,1.527,1.527,0,0,0-.256,1.1" transform="translate(-164.64 -143.486)" fill="#263238"/>
            <path id="Path_831194" data-name="Path 831194" d="M417.831,390.881c.035.02.2-.186.371-.46s.279-.513.243-.533-.2.186-.371.46-.279.513-.244.533" transform="translate(-162.336 -143.032)" fill="#263238"/>
            <path id="Path_831195" data-name="Path 831195" d="M416.2,390.311c.028.028.216-.1.421-.287s.347-.362.319-.391-.216.1-.421.287-.348.362-.319.391" transform="translate(-161.702 -142.938)" fill="#263238"/>
            <path id="Path_831196" data-name="Path 831196" d="M415.125,388.937a2.881,2.881,0,1,0,.635-.082,1.487,1.487,0,0,0-.635.082" transform="translate(-161.287 -142.654)" fill="#263238"/>
            <path id="Path_831197" data-name="Path 831197" d="M414.737,387.754a1.853,1.853,0,0,0,1.444.065,54.917,54.917,0,0,1-1.444-.065" transform="translate(-161.136 -142.246)" fill="#263238"/>
            <path id="Path_831198" data-name="Path 831198" d="M418.461,389.188a2.35,2.35,0,0,0,.783-.026,4.8,4.8,0,0,0,.828-.2,2.344,2.344,0,0,0,.471-.2.411.411,0,0,0,.187-.239.293.293,0,0,0-.128-.3,1.467,1.467,0,0,0-1.763.452,1.33,1.33,0,0,0-.241.51c-.028.13-.023.2-.014.2a2.08,2.08,0,0,1,.338-.653,1.416,1.416,0,0,1,.656-.436,1.258,1.258,0,0,1,.935.035c.127.085.083.227-.053.31a2.349,2.349,0,0,1-.435.193,5.621,5.621,0,0,1-.8.224c-.467.092-.766.1-.764.125" transform="translate(-162.583 -142.374)" fill="#263238"/>
            <path id="Path_831199" data-name="Path 831199" d="M418.124,389.041a.718.718,0,0,0,.075-.525,1.205,1.205,0,0,0-.23-.544.788.788,0,0,0-.662-.367.3.3,0,0,0-.231.355.81.81,0,0,0,.142.333,2.319,2.319,0,0,0,.383.446,1.142,1.142,0,0,0,.457.293c.013-.019-.16-.131-.383-.364a2.681,2.681,0,0,1-.341-.443c-.112-.156-.194-.44,0-.48.2-.023.4.159.525.306a1.215,1.215,0,0,1,.235.484,2.646,2.646,0,0,1,.028.508" transform="translate(-162.042 -142.195)" fill="#263238"/>
            <path id="Path_831200" data-name="Path 831200" d="M397.2,389.136c0,.027.348-.042.9.006a4.036,4.036,0,0,1,1.987.726,3.807,3.807,0,0,1,1.276,1.636c.2.5.229.835.256.831a.643.643,0,0,0-.007-.237,2.975,2.975,0,0,0-.151-.629,3.634,3.634,0,0,0-1.285-1.715,3.857,3.857,0,0,0-2.068-.712,3.308,3.308,0,0,0-.67.035.717.717,0,0,0-.238.06" transform="translate(-154.321 -142.722)" fill="#263238"/>
            <path id="Path_831201" data-name="Path 831201" d="M406.908,392.433a10.378,10.378,0,0,0,3.561-.065c0-.041-.8.028-1.78.044s-1.777-.02-1.781.021" transform="translate(-158.095 -143.938)" fill="#263238"/>
            <path id="Path_831202" data-name="Path 831202" d="M403,392.572c-.029.03.07.16.156.334s.136.328.177.324.057-.187-.044-.387-.264-.3-.289-.272" transform="translate(-156.575 -144.016)" fill="#263238"/>
            <path id="Path_831203" data-name="Path 831203" d="M401.477,390.907c-.028.029.054.148.183.268s.257.194.286.165-.054-.148-.184-.268-.257-.194-.286-.165" transform="translate(-155.982 -143.405)" fill="#263238"/>
            <path id="Path_831204" data-name="Path 831204" d="M399.351,390.147c.01.039.172.034.352.089s.312.144.344.117-.075-.186-.3-.252-.409.01-.4.046" transform="translate(-155.158 -143.101)" fill="#263238"/>
            <path id="Path_831205" data-name="Path 831205" d="M397.84,389.844c-.013.037.058.1.16.13s.2.034.21,0-.058-.095-.16-.13-.2-.033-.21,0" transform="translate(-154.571 -143.007)" fill="#263238"/>
            <path id="Path_831206" data-name="Path 831206" d="M344.245,123.863l-3.326,17.926c6.938,10,7.57,18.574,7.57,18.574l-37.333,4.524c.006-7,4.923-18.325,4.923-18.325l-5.991-21.179-10.849-14.626L310,100.71c-.206.565,10.093,6.737,10.093,6.737l14.793.13a12.047,12.047,0,0,1,2.126.437l7.228-19.4a27.827,27.827,0,0,1,5.214,18.935c-1.165,12.246-2.578,9.2-5.214,16.312" transform="translate(-116.262 -32.509)" fill="#d0adea"/>
            <path id="Path_831207" data-name="Path 831207" d="M334.806,169.152c.018.011-.024.132-.131.337a3.517,3.517,0,0,1-.565.8,1.989,1.989,0,0,1-1.313.646,1.509,1.509,0,0,1-.864-.234,8.854,8.854,0,0,1-.73-.537,2.19,2.19,0,0,0-1.5-.456,2.162,2.162,0,0,0-1.206.477,4.2,4.2,0,0,0-.791.99,1.743,1.743,0,0,1,.646-1.169,2.281,2.281,0,0,1,1.326-.6,2.4,2.4,0,0,1,1.707.49c.495.387.915.767,1.4.736a1.838,1.838,0,0,0,1.169-.513c.561-.538.8-1.005.849-.968" transform="translate(-127.321 -62.054)" fill="#fafafa"/>
            <path id="Path_831208" data-name="Path 831208" d="M365,188.071c.018.011-.024.132-.131.337a3.532,3.532,0,0,1-.565.8,1.991,1.991,0,0,1-1.313.645,1.511,1.511,0,0,1-.864-.234,8.864,8.864,0,0,1-.73-.537,2.19,2.19,0,0,0-1.5-.456,2.163,2.163,0,0,0-1.206.477,4.2,4.2,0,0,0-.791.99,1.743,1.743,0,0,1,.646-1.169,2.281,2.281,0,0,1,1.326-.6,2.4,2.4,0,0,1,1.707.49c.495.387.915.767,1.4.736a1.838,1.838,0,0,0,1.169-.513c.561-.538.8-1.005.849-.968" transform="translate(-139.051 -68.994)" fill="#fafafa"/>
            <path id="Path_831209" data-name="Path 831209" d="M349.065,158.215c.017-.013.111.07.26.244a3.551,3.551,0,0,1,.53.828,2.153,2.153,0,0,1,.129,1.5,1.6,1.6,0,0,1-.512.758,8.845,8.845,0,0,1-.74.522,2.319,2.319,0,0,0-.933,1.3,2.355,2.355,0,0,0,.013,1.337,4.253,4.253,0,0,0,.622,1.111c-.005.032-.509-.225-.834-1.033a2.486,2.486,0,0,1-.084-1.5,2.549,2.549,0,0,1,1.037-1.488c.523-.346,1.013-.623,1.153-1.1a2,2,0,0,0-.058-1.312c-.292-.731-.633-1.126-.582-1.161" transform="translate(-134.989 -58.042)" fill="#fafafa"/>
            <path id="Path_831210" data-name="Path 831210" d="M353.1,182.523c-.021,0-.026-.132,0-.363a3.633,3.633,0,0,1,.23-.963,2.064,2.064,0,0,1,.98-1.112,1.5,1.5,0,0,1,.885-.122,8.472,8.472,0,0,1,.872.211,2.178,2.178,0,0,0,1.554-.165,2.235,2.235,0,0,0,.942-.914,4.306,4.306,0,0,0,.371-1.226,1.774,1.774,0,0,1-.172,1.335,2.38,2.38,0,0,1-2.768,1.29,2.277,2.277,0,0,0-1.566-.133,1.9,1.9,0,0,0-.895.931c-.323.717-.374,1.244-.433,1.229" transform="translate(-137.182 -65.253)" fill="#fafafa"/>
            <path id="Path_831211" data-name="Path 831211" d="M356.967,198.906c-.016-.015.05-.125.193-.3a3.437,3.437,0,0,1,.707-.67,1.968,1.968,0,0,1,1.411-.363,1.526,1.526,0,0,1,.8.406c.229.209.414.457.613.676a2.222,2.222,0,0,0,1.381.755,2.137,2.137,0,0,0,1.274-.221,4.114,4.114,0,0,0,.964-.807,1.714,1.714,0,0,1-.857,1.012,2.253,2.253,0,0,1-1.415.317,2.431,2.431,0,0,1-1.58-.831c-.41-.481-.75-.94-1.232-1.009a1.815,1.815,0,0,0-1.243.262c-.652.412-.977.822-1.018.775" transform="translate(-138.69 -72.472)" fill="#fafafa"/>
            <path id="Path_831212" data-name="Path 831212" d="M324.078,200.181c-.012-.018.078-.108.26-.243a3.385,3.385,0,0,1,.849-.462,1.95,1.95,0,0,1,1.453.019,1.566,1.566,0,0,1,.676.6,9.2,9.2,0,0,1,.427.815,2.279,2.279,0,0,0,1.151,1.092,2.134,2.134,0,0,0,1.287.121,3.989,3.989,0,0,0,1.131-.529,1.669,1.669,0,0,1-1.077.755,2.243,2.243,0,0,1-1.446-.064,2.49,2.49,0,0,1-1.325-1.219c-.279-.573-.5-1.105-.945-1.3a1.81,1.81,0,0,0-1.267-.073c-.733.227-1.146.539-1.175.482" transform="translate(-125.913 -73.131)" fill="#fafafa"/>
            <path id="Path_831213" data-name="Path 831213" d="M358.093,150.736c0-.022.113-.066.333-.116a3.285,3.285,0,0,1,.956-.076,1.984,1.984,0,0,1,1.327.615,1.619,1.619,0,0,1,.389.832c.057.31.055.624.08.924a2.362,2.362,0,0,0,.639,1.475,2.176,2.176,0,0,0,1.134.639,3.958,3.958,0,0,0,1.24-.02,1.621,1.621,0,0,1-1.278.25,2.288,2.288,0,0,1-1.3-.653,2.588,2.588,0,0,1-.75-1.663,2.505,2.505,0,0,0-.369-1.58,1.842,1.842,0,0,0-1.135-.587c-.759-.092-1.258.023-1.263-.04" transform="translate(-139.129 -55.225)" fill="#fafafa"/>
            <path id="Path_831214" data-name="Path 831214" d="M375.259,105.318c.016-.015.114.065.27.231a3.532,3.532,0,0,1,.567.8,2.152,2.152,0,0,1,.2,1.492,1.618,1.618,0,0,1-.477.781,8.86,8.86,0,0,1-.716.558,2.331,2.331,0,0,0-.874,1.34,2.36,2.36,0,0,0,.073,1.335,4.217,4.217,0,0,0,.671,1.08c0,.032-.52-.2-.88-.992a2.477,2.477,0,0,1-.151-1.49,2.56,2.56,0,0,1,.969-1.537c.506-.37.983-.67,1.1-1.159a2,2,0,0,0-.117-1.308c-.325-.717-.683-1.095-.634-1.132" transform="translate(-145.265 -38.636)" fill="#fafafa"/>
            <path id="Path_831215" data-name="Path 831215" d="M346.468,144.719c0-.022.113-.066.333-.116a3.286,3.286,0,0,1,.956-.076,1.981,1.981,0,0,1,1.327.615,1.624,1.624,0,0,1,.39.832c.056.31.054.623.079.924a2.362,2.362,0,0,0,.639,1.475,2.175,2.175,0,0,0,1.134.639,3.922,3.922,0,0,0,1.24-.021,1.616,1.616,0,0,1-1.278.251,2.288,2.288,0,0,1-1.3-.653,2.585,2.585,0,0,1-.749-1.663,2.5,2.5,0,0,0-.37-1.58,1.841,1.841,0,0,0-1.135-.587c-.759-.092-1.259.023-1.263-.04" transform="translate(-134.612 -53.018)" fill="#fafafa"/>
            <path id="Path_831216" data-name="Path 831216" d="M368.241,118.556c0-.022.113-.066.333-.116a3.284,3.284,0,0,1,.956-.076,1.984,1.984,0,0,1,1.327.615,1.624,1.624,0,0,1,.389.832c.057.31.055.624.08.924a2.363,2.363,0,0,0,.639,1.475,2.175,2.175,0,0,0,1.134.639,3.96,3.96,0,0,0,1.24-.02,1.621,1.621,0,0,1-1.278.25,2.284,2.284,0,0,1-1.3-.653,2.584,2.584,0,0,1-.749-1.663,2.505,2.505,0,0,0-.37-1.58,1.842,1.842,0,0,0-1.136-.587c-.759-.092-1.258.023-1.263-.04" transform="translate(-143.072 -43.42)" fill="#fafafa"/>
            <path id="Path_831217" data-name="Path 831217" d="M323.942,151.11c.01-.02.129.019.331.118a3.4,3.4,0,0,1,.8.544,2.107,2.107,0,0,1,.688,1.326,1.647,1.647,0,0,1-.182.9,9.135,9.135,0,0,1-.482.782,2.392,2.392,0,0,0-.365,1.572,2.321,2.321,0,0,0,.521,1.224,4.073,4.073,0,0,0,.994.768,1.632,1.632,0,0,1-1.159-.61,2.432,2.432,0,0,1-.646-1.342,2.622,2.622,0,0,1,.388-1.791,2.479,2.479,0,0,0,.64-1.485,1.959,1.959,0,0,0-.552-1.182c-.547-.553-1.01-.778-.977-.831" transform="translate(-125.86 -55.434)" fill="#fafafa"/>
            <path id="Path_831218" data-name="Path 831218" d="M313.265,123.4c0-.022.11-.072.327-.131a3.321,3.321,0,0,1,.952-.118,1.977,1.977,0,0,1,1.351.555,1.621,1.621,0,0,1,.424.814c.069.308.081.62.119.919a2.354,2.354,0,0,0,.7,1.445,2.175,2.175,0,0,0,1.16.588,3.945,3.945,0,0,0,1.238-.076,1.623,1.623,0,0,1-1.266.307,2.278,2.278,0,0,1-1.329-.594,2.579,2.579,0,0,1-.819-1.627,2.5,2.5,0,0,0-.435-1.563,1.836,1.836,0,0,0-1.159-.536c-.762-.058-1.256.08-1.263.017" transform="translate(-121.712 -45.18)" fill="#fafafa"/>
            <path id="Path_831219" data-name="Path 831219" d="M314.851,111.85c0-.022.11-.072.327-.131a3.3,3.3,0,0,1,.952-.118,1.974,1.974,0,0,1,1.351.555,1.618,1.618,0,0,1,.424.814c.069.308.08.62.119.919a2.35,2.35,0,0,0,.7,1.445,2.172,2.172,0,0,0,1.16.588,3.946,3.946,0,0,0,1.238-.076,1.624,1.624,0,0,1-1.266.307,2.278,2.278,0,0,1-1.329-.594,2.579,2.579,0,0,1-.819-1.627,2.5,2.5,0,0,0-.435-1.563,1.838,1.838,0,0,0-1.159-.536c-.763-.058-1.257.08-1.263.017" transform="translate(-122.328 -40.941)" fill="#fafafa"/>
            <path id="Path_831220" data-name="Path 831220" d="M314.57,138.93c0-.022.11-.072.327-.131a3.3,3.3,0,0,1,.952-.118,1.977,1.977,0,0,1,1.351.555,1.618,1.618,0,0,1,.424.814c.069.308.08.621.119.919a2.35,2.35,0,0,0,.7,1.445,2.172,2.172,0,0,0,1.16.588,3.946,3.946,0,0,0,1.238-.076,1.624,1.624,0,0,1-1.266.307,2.278,2.278,0,0,1-1.329-.594,2.579,2.579,0,0,1-.819-1.627,2.5,2.5,0,0,0-.435-1.563,1.838,1.838,0,0,0-1.159-.536c-.762-.058-1.256.08-1.263.017" transform="translate(-122.219 -50.875)" fill="#fafafa"/>
            <path id="Path_831221" data-name="Path 831221" d="M306.877,121.345c.01-.02.129.019.331.118a3.4,3.4,0,0,1,.8.544,2.111,2.111,0,0,1,.689,1.326,1.652,1.652,0,0,1-.183.9,9.136,9.136,0,0,1-.482.782,2.392,2.392,0,0,0-.364,1.572,2.321,2.321,0,0,0,.52,1.224,4.074,4.074,0,0,0,.994.768,1.632,1.632,0,0,1-1.159-.61,2.432,2.432,0,0,1-.646-1.342,2.622,2.622,0,0,1,.388-1.791,2.479,2.479,0,0,0,.64-1.485,1.956,1.956,0,0,0-.552-1.182c-.547-.553-1.01-.778-.977-.831" transform="translate(-119.229 -44.514)" fill="#fafafa"/>
            <path id="Path_831222" data-name="Path 831222" d="M356.371,165.6c0-.021.113-.066.333-.116a3.289,3.289,0,0,1,.956-.075,1.978,1.978,0,0,1,1.327.615,1.625,1.625,0,0,1,.389.832c.057.31.054.624.08.924a2.366,2.366,0,0,0,.638,1.475,2.18,2.18,0,0,0,1.135.639,3.961,3.961,0,0,0,1.24-.02,1.621,1.621,0,0,1-1.278.25,2.288,2.288,0,0,1-1.3-.653,2.588,2.588,0,0,1-.75-1.663,2.5,2.5,0,0,0-.369-1.58,1.842,1.842,0,0,0-1.135-.587c-.759-.092-1.258.023-1.263-.041" transform="translate(-138.46 -60.679)" fill="#fafafa"/>
            <path id="Path_831223" data-name="Path 831223" d="M327.877,190.315c-.019-.01.013-.134.1-.348a3.546,3.546,0,0,1,.493-.852,2.006,2.006,0,0,1,1.251-.767,1.51,1.51,0,0,1,.881.151,8.9,8.9,0,0,1,.774.467,2.177,2.177,0,0,0,2.692-.277,4.233,4.233,0,0,0,.7-1.061,1.754,1.754,0,0,1-.541,1.225,2.3,2.3,0,0,1-1.268.724,2.388,2.388,0,0,1-1.743-.327c-.526-.339-.98-.677-1.46-.6a1.848,1.848,0,0,0-1.118.62c-.512.588-.709,1.077-.761,1.044" transform="translate(-127.387 -68.833)" fill="#fafafa"/>
            <path id="Path_831224" data-name="Path 831224" d="M345.682,196.529c-.02.007-.082-.1-.165-.32a3.6,3.6,0,0,1-.229-.964,2.147,2.147,0,0,1,.368-1.457,1.552,1.552,0,0,1,.729-.534,8.636,8.636,0,0,1,.867-.233,2.246,2.246,0,0,0,1.3-.894,2.337,2.337,0,0,0,.423-1.264,4.329,4.329,0,0,0-.223-1.262,1.746,1.746,0,0,1,.448,1.264,2.478,2.478,0,0,1-1.87,2.476c-.6.143-1.156.232-1.446.637a1.975,1.975,0,0,0-.373,1.256c.036.79.228,1.281.169,1.3" transform="translate(-134.15 -69.556)" fill="#fafafa"/>
            <path id="Path_831225" data-name="Path 831225" d="M335.324,179.4c-.013-.017.064-.118.227-.276a3.405,3.405,0,0,1,.783-.574,1.956,1.956,0,0,1,1.444-.179,1.548,1.548,0,0,1,.747.507c.2.237.357.507.527.75a2.247,2.247,0,0,0,1.28.927,2.133,2.133,0,0,0,1.29-.055,4.068,4.068,0,0,0,1.054-.677c.031.005-.2.534-.972.895a2.248,2.248,0,0,1-1.443.132,2.462,2.462,0,0,1-1.467-1.028c-.349-.531-.632-1.029-1.1-1.16a1.809,1.809,0,0,0-1.265.1c-.7.325-1.069.689-1.1.638" transform="translate(-130.282 -65.414)" fill="#fafafa"/>
            <path id="Path_831226" data-name="Path 831226" d="M331.8,156.522c-.014-.016.061-.119.221-.282a3.416,3.416,0,0,1,.768-.594,1.955,1.955,0,0,1,1.439-.217,1.538,1.538,0,0,1,.759.486c.209.231.369.5.546.736a2.24,2.24,0,0,0,1.3.891,2.129,2.129,0,0,0,1.289-.089,4.056,4.056,0,0,0,1.036-.7c.031,0-.188.539-.95.92a2.246,2.246,0,0,1-1.438.171,2.453,2.453,0,0,1-1.493-.988c-.363-.521-.657-1.011-1.13-1.13a1.808,1.808,0,0,0-1.262.134c-.689.343-1.05.717-1.087.667" transform="translate(-128.912 -57)" fill="#fafafa"/>
            <path id="Path_831227" data-name="Path 831227" d="M328.439,69.065c-3.1,1.457-4.349,5.006-4.654,8.268s.018,6.658-1.2,9.712c-1.024,2.572-3.127,4.92-2.892,7.676.175,2.056,1.653,3.865,1.924,5.914.523,3.964-3.54,7.514-2.8,11.45a7.2,7.2,0,0,0,3.269,4.412,22.82,22.82,0,0,0,5.286,2.352c2.469.853,5.212,1.695,7.634.8,2.153-.793,3.619-2.828,5.849-3.411,2.142-.561,4.411.356,6.645.4a7.336,7.336,0,0,0,5.492-2.163,5.273,5.273,0,0,0,1.136-5.415c-1-2.54-4.056-4.175-4.527-6.837-.426-2.408,1.469-4.794.871-7.174-.666-2.649-4.09-4.043-4.919-6.654-.994-3.13,2.182-6.468.945-9.524-.728-1.8-2.819-2.933-3.383-4.78-.386-1.267.03-2.629-.248-3.92-.48-2.229-2.9-3.671-5.264-4.177a11.975,11.975,0,0,0-8.534,1.276,9.021,9.021,0,0,0-4.452,6.823" transform="translate(-123.834 -24.111)" fill="#263238"/>
            <path id="Path_831228" data-name="Path 831228" d="M342.182,67.02a10.283,10.283,0,0,1,8.786.64,10.963,10.963,0,0,1,5.194,7.365c.476,2.483.122,5.171,1.165,7.461,1.132,2.486,3.789,4.2,4.192,6.913.389,2.626-1.5,5.015-1.9,7.639-.411,2.733.832,5.5.531,8.245a7.28,7.28,0,0,1-4.764,6.016,6.922,6.922,0,0,1-7.252-2.034" transform="translate(-132.947 -24.331)" fill="#263238"/>
            <path id="Path_831229" data-name="Path 831229" d="M355.446,73.029a6.434,6.434,0,0,1,2.973-4.682,6.011,6.011,0,0,1,5.4-.391,4.771,4.771,0,0,1,2.418,2.153,5.49,5.49,0,0,1,.226,3.905,7.024,7.024,0,0,1-3.729,4.562,5.393,5.393,0,0,1-5.627-.724,4.956,4.956,0,0,1-1.322-5.577" transform="translate(-138.087 -24.76)" fill="#263238"/>
            <path id="Path_831230" data-name="Path 831230" d="M358.85,79.936a1.776,1.776,0,0,1-.558.084,12.131,12.131,0,0,1-1.536.028,6.075,6.075,0,0,1-2.247-.505,3.916,3.916,0,0,1-1.989-2.067,4.847,4.847,0,0,1-.246-2.913,5.435,5.435,0,0,1,1.038-2.129,5.728,5.728,0,0,1,1.132-1.09,1.564,1.564,0,0,1,.5-.283,11.375,11.375,0,0,0-1.451,1.516,5.493,5.493,0,0,0-.929,2.053,4.65,4.65,0,0,0,.252,2.714,3.692,3.692,0,0,0,1.82,1.924,6.287,6.287,0,0,0,2.141.548c1.274.1,2.077.062,2.078.12" transform="translate(-136.822 -26.068)" fill="#e8505b"/>
            <path id="Path_831231" data-name="Path 831231" d="M358.764,82.468a5.2,5.2,0,0,0-.672,1.52,5.957,5.957,0,0,0-.117,1.963A10.363,10.363,0,0,0,358.6,88.5c.333.922.849,1.872,1.357,2.926a14.182,14.182,0,0,1,1.3,3.552,5.8,5.8,0,0,1-.7,4.151,5.527,5.527,0,0,1-3.62,2.607l-.2.039.012-.208c.045-.794.093-1.64.142-2.5l.306.07a3.3,3.3,0,0,1-3.718,2.018l-.2-.046.091-.187a15.747,15.747,0,0,0,1.579-4.386,5.918,5.918,0,0,0-.06-2.17,5.444,5.444,0,0,0-.862-1.872c-.772-1.116-1.739-2.01-2.4-3.059a9,9,0,0,1-1.282-3.173,9.492,9.492,0,0,1,.279-4.888,6.628,6.628,0,0,1,.754-1.611,17.444,17.444,0,0,0-.644,1.648,9.614,9.614,0,0,0-.181,4.8,8.824,8.824,0,0,0,1.282,3.073c.652,1.01,1.62,1.889,2.427,3.035a5.74,5.74,0,0,1,.918,1.97,6.209,6.209,0,0,1,.075,2.289,15.929,15.929,0,0,1-1.6,4.486l-.106-.233a2.99,2.99,0,0,0,3.35-1.82l.363-.909-.056.978c-.05.858-.1,1.7-.145,2.5l-.185-.17a5.237,5.237,0,0,0,3.422-2.453,5.5,5.5,0,0,0,.677-3.932,14.111,14.111,0,0,0-1.246-3.491,32.048,32.048,0,0,1-1.331-2.963,10.331,10.331,0,0,1-.6-2.615,5.894,5.894,0,0,1,.171-2.008,4.075,4.075,0,0,1,.512-1.15,2.378,2.378,0,0,1,.268-.339" transform="translate(-136.045 -29.263)" fill="#455a64"/>
            <path id="Path_831232" data-name="Path 831232" d="M364.082,68.1a1.467,1.467,0,0,1,.165.492A7.351,7.351,0,0,1,364.432,70a8.644,8.644,0,0,1-1.08,4.518,8.224,8.224,0,0,1-3.263,3.2,6.709,6.709,0,0,1-1.272.527,1.354,1.354,0,0,1-.495.094c-.018-.057.677-.241,1.659-.825a8.691,8.691,0,0,0,3.1-3.162,9.107,9.107,0,0,0,1.13-4.348c.006-1.173-.182-1.889-.125-1.9" transform="translate(-139.218 -24.984)" fill="#455a64"/>
            <path id="Path_831233" data-name="Path 831233" d="M361.143,77.668a2.6,2.6,0,0,1-1.269.047,5.43,5.43,0,0,1-2.81-1.274,5.739,5.739,0,0,1-1.7-2.641,2.885,2.885,0,0,1-.178-1.3c.053-.007.112.49.39,1.225a6.211,6.211,0,0,0,1.7,2.467,5.906,5.906,0,0,0,2.642,1.3c.747.155,1.231.129,1.233.184" transform="translate(-137.99 -26.596)" fill="#455a64"/>
            <path id="Path_831234" data-name="Path 831234" d="M342.492,119.911a7.292,7.292,0,0,0,1.955-1.193,9.524,9.524,0,0,0,2.908-5.521,14.365,14.365,0,0,0-1.788-9.141,46.517,46.517,0,0,0-3.16-4.607,15.055,15.055,0,0,1-1.5-2.6,8.988,8.988,0,0,1-.739-3.035,13.908,13.908,0,0,1,1.173-5.99c.737-1.832,1.672-3.473,2.432-5.093a18.716,18.716,0,0,0,1.655-4.779,11.992,11.992,0,0,0-.062-4.4,11.833,11.833,0,0,0-2.815-5.632,13.071,13.071,0,0,0-1.76-1.5.567.567,0,0,1,.135.07l.382.234a8.9,8.9,0,0,1,1.332,1.106,11.7,11.7,0,0,1,2.947,5.674,12.149,12.149,0,0,1,.1,4.492,18.824,18.824,0,0,1-1.652,4.864c-.759,1.635-1.686,3.277-2.408,5.084a13.644,13.644,0,0,0-1.143,5.844,10.569,10.569,0,0,0,2.175,5.468,45.854,45.854,0,0,1,3.163,4.646,14.52,14.52,0,0,1,1.753,9.333,9.513,9.513,0,0,1-3.05,5.578,6.293,6.293,0,0,1-1.467.907c-.183.073-.326.116-.421.149a.5.5,0,0,1-.147.039" transform="translate(-132.157 -24.368)" fill="#455a64"/>
            <path id="Path_831235" data-name="Path 831235" d="M332.931,123.859s-.038-.027-.1-.09-.163-.16-.282-.293a4.825,4.825,0,0,1-.773-1.371,5.688,5.688,0,0,1-.284-2.495,5.126,5.126,0,0,1,1.355-3,16.623,16.623,0,0,1,3.325-2.078,3.984,3.984,0,0,0,1.469-1.5,3.824,3.824,0,0,0,.363-2.209,8.005,8.005,0,0,0-2.182-4.348,32.972,32.972,0,0,1-3.586-4.027,6.84,6.84,0,0,1-1.031-2.607,8.85,8.85,0,0,1-.006-2.73,22.921,22.921,0,0,1,1.446-4.886,20.486,20.486,0,0,0,1.266-4.366,8.007,8.007,0,0,0-.357-3.884,5.182,5.182,0,0,0-.845-1.46,7.864,7.864,0,0,0-1.1-1.039,16.733,16.733,0,0,1-1.863-1.6,3.061,3.061,0,0,1-.761-1.375,1.646,1.646,0,0,1-.048-.551c.023,0,.013.192.11.534a3.113,3.113,0,0,0,.788,1.3,17.842,17.842,0,0,0,1.882,1.543,7.929,7.929,0,0,1,1.139,1.046,5.361,5.361,0,0,1,.9,1.512,8.212,8.212,0,0,1,.409,4.008,20.508,20.508,0,0,1-1.253,4.438,22.885,22.885,0,0,0-1.411,4.822,8.566,8.566,0,0,0,.009,2.628,6.518,6.518,0,0,0,.984,2.481,33.479,33.479,0,0,0,3.548,3.989,8.29,8.29,0,0,1,2.247,4.536,4.126,4.126,0,0,1-.41,2.383,4.245,4.245,0,0,1-1.576,1.591,16.856,16.856,0,0,0-3.3,2.011,4.946,4.946,0,0,0-1.336,2.858,5.671,5.671,0,0,0,.223,2.429,5.467,5.467,0,0,0,1.043,1.8" transform="translate(-127.799 -28.597)" fill="#455a64"/>
            <path id="Path_831236" data-name="Path 831236" d="M358.878,126.152a1.292,1.292,0,0,1-.164-.292,3.5,3.5,0,0,1-.3-.919,5.8,5.8,0,0,1-.086-1.538,15.3,15.3,0,0,1,.3-2.006c.147-.734.333-1.53.445-2.392a9.111,9.111,0,0,0,.078-1.337,6.98,6.98,0,0,0-.211-1.387,7.375,7.375,0,0,0-1.415-2.639,25.989,25.989,0,0,0-2.234-2.366,28.382,28.382,0,0,1-2.269-2.388,9.3,9.3,0,0,1-1.571-2.687,10.106,10.106,0,0,1-.246-5.257,24.557,24.557,0,0,1,.928-3.422c.137-.394.246-.7.327-.9a.169.169,0,1,1,.061.022l-.27.921a29.388,29.388,0,0,0-.824,3.423,10.029,10.029,0,0,0,.3,5.109,13.963,13.963,0,0,0,3.783,4.942,25.4,25.4,0,0,1,2.257,2.4,7.627,7.627,0,0,1,1.456,2.761,7.249,7.249,0,0,1,.208,1.463,9.249,9.249,0,0,1-.1,1.382c-.127.88-.326,1.677-.486,2.4a16.225,16.225,0,0,0-.347,1.972,6.021,6.021,0,0,0,.03,1.5,9.065,9.065,0,0,0,.346,1.235" transform="translate(-136.363 -35.332)" fill="#455a64"/>
          </g>
        </g>
      </g>
    </g>
  </g>
</svg>
