<svg xmlns="http://www.w3.org/2000/svg" xmlns:xlink="http://www.w3.org/1999/xlink" width="295" height="242" viewBox="0 0 295 242">
  <defs>
    <clipPath id="clip-path">
      <rect id="Rectangle_381198" data-name="Rectangle 381198" width="295" height="242" transform="translate(1020 7644)" fill="#fff" stroke="#707070" stroke-width="1"/>
    </clipPath>
  </defs>
  <g id="Mask_Group_462" data-name="Mask Group 462" transform="translate(-1020 -7644)" clip-path="url(#clip-path)">
    <g id="Group_1078602" data-name="Group 1078602" transform="translate(1062.385 7659.884)">
      <g id="Group_1078600" data-name="Group 1078600" transform="translate(15.398 3.082)">
        <g id="Group_1078598" data-name="Group 1078598">
          <path id="Path_831280" data-name="Path 831280" d="M69.638,43.4C83.277,42.84,87.876,32.918,88.1,26.653h24.453a12.319,12.319,0,0,0,.2,24.636V63.754h12.319V43.4a16.879,16.879,0,0,0,13.62-.517,24.328,24.328,0,0,0,43.673,13.089,29.252,29.252,0,1,0-3.638-33.215A24.327,24.327,0,0,0,149.106,21.3,18.484,18.484,0,0,0,131.228,7.5H75.8A18.475,18.475,0,0,0,57.333,26.653a12.318,12.318,0,1,0-.014,24.636V63.755H69.638Zm130.325,81.055a12.333,12.333,0,1,0-.835-24.639,16.379,16.379,0,1,0-11.483,12.931A12.334,12.334,0,0,0,199.962,124.459Z" transform="translate(-41.921 -7.502)" fill="#ddddde" fill-rule="evenodd"/>
          <path id="Path_831281" data-name="Path 831281" d="M55.5,229.138H83.833L81.985,204.5H57.349Z" transform="translate(-48.11 -123.613)" fill="#717f98" fill-rule="evenodd"/>
          <path id="Path_831282" data-name="Path 831282" d="M37.5,292.318H80.614l-7.391-98.545H44.892ZM46.74,169.138H71.376V144.5H46.74Z" transform="translate(-37.501 -88.249)" fill="#717f98" fill-rule="evenodd"/>
          <path id="Path_831283" data-name="Path 831283" d="M135.871,416.092h12.318l4.619-61.59H131.252Z" transform="translate(-92.758 -212.023)" fill="#b0c5e0" fill-rule="evenodd"/>
          <path id="Path_831284" data-name="Path 831284" d="M270.87,398.41h80.889V324.5l-42.395,12.113V324.5L266.251,336.82Z" transform="translate(-172.326 -194.341)" fill="#e5ecf5" fill-rule="evenodd"/>
          <path id="Path_831285" data-name="Path 831285" d="M55.5,229.138H64.74L66.587,204.5H57.349Z" transform="translate(-48.11 -123.613)" fill="#717f98" fill-rule="evenodd"/>
          <path id="Path_831286" data-name="Path 831286" d="M37.5,292.318H46.74l7.391-98.545H44.892ZM46.74,169.138h9.239V144.5H46.74Z" transform="translate(-37.501 -88.249)" fill="#717f98" fill-rule="evenodd"/>
          <path id="Path_831287" data-name="Path 831287" d="M37.5,292.318H80.614l-7.391-98.545H44.892Zm55.431,0h43.113l-7.391-98.545H100.323Zm9.239-123.181h24.637V144.5H102.171Zm-55.431,0H71.376V144.5H46.74Z" transform="translate(-37.501 -88.249)" fill="#ffae7e" fill-rule="evenodd"/>
          <path id="Path_831288" data-name="Path 831288" d="M110.932,229.138h28.332L137.416,204.5H112.78Zm-55.431,0H83.833L81.985,204.5H57.349Z" transform="translate(-48.11 -123.613)" fill="#e5ecf5" fill-rule="evenodd"/>
          <path id="Path_831289" data-name="Path 831289" d="M55.5,229.138H64.74L66.587,204.5H57.349Zm55.431,0h9.239l1.848-24.636H112.78Z" transform="translate(-48.11 -123.613)" fill="#717f98" fill-rule="evenodd"/>
          <path id="Path_831290" data-name="Path 831290" d="M37.5,292.318H46.74l7.391-98.545H44.892Zm55.431,0h9.239l7.391-98.545h-9.239Zm9.239-123.181h9.239V144.5h-9.239Zm-55.431,0h9.239V144.5H46.74Z" transform="translate(-37.501 -88.249)" fill="#f98744" fill-rule="evenodd"/>
          <path id="Path_831291" data-name="Path 831291" d="M270.871,412.008h9.239l-4.874-64.157-8.983,2.567Zm38.494,0H318.6V347.573l-9.239,2.639Z" transform="translate(-172.326 -207.939)" fill="#b0c5e0" fill-rule="evenodd"/>
          <path id="Path_831292" data-name="Path 831292" d="M130.432,89.879v9.239h12.318V89.879Zm74.861,26.811a16.383,16.383,0,1,0,0,31.433,16.378,16.378,0,0,1,0-31.433ZM156.37,78.25A24.327,24.327,0,0,0,200.043,91.34,29.257,29.257,0,0,0,250.991,67.5c-3.909,24.643-38.545,29.057-50.948,11.52C191.478,98.445,165.412,96.605,156.37,78.25ZM75,99.119H87.32V89.88H75Z" transform="translate(-59.603 -42.866)" fill="#9a999d" fill-rule="evenodd"/>
        </g>
        <g id="Group_1078599" data-name="Group 1078599" transform="translate(18.477 16.937)">
          <path id="Path_831293" data-name="Path 831293" d="M144.091,103.464h-6.159V97.305h6.159Zm-55.431,0H82.5V97.305H88.66ZM238.838,54.911h-6.159V48.752h6.159Z" transform="translate(-82.501 -48.752)" fill="#fff"/>
        </g>
      </g>
      <g id="Group_1078601" data-name="Group 1078601" transform="translate(0 0.002)">
        <path id="Path_831294" data-name="Path 831294" d="M197.911,204.071V129.16l-42.395,12.113V129.16l-43.4,12.4-4.328-57.706V62.413h6.159V56.254H101.625V43.017a19.52,19.52,0,0,0,8.01-.413,27.476,27.476,0,0,0,26.8,21.677A27.168,27.168,0,0,0,155.972,56.1,32.334,32.334,0,0,0,203.033,12l-4.786,3.876a25.878,25.878,0,0,1,5.824,16.459,26.175,26.175,0,0,1-45.912,17.194l-2.488-2.853-2.287,3.016a21.248,21.248,0,0,1-38.146-11.428l-.285-4.4-4.033,1.783a14.233,14.233,0,0,1-9.295,1.092V31.618H95.466V56.254h-6.16V37.63H83.147v5.629a9.229,9.229,0,0,1-3.4-15.289,9.022,9.022,0,0,1,6.292-2.658h.2l.026-6.159H58.605L58.5,22.122c-.158,4.417-3,11.7-12.306,13.43V29.745H40.034V56.254H33.875V37.63H27.716v5.629a9.229,9.229,0,0,1-3.4-15.289,9.052,9.052,0,0,1,6.461-2.658L34,25.34l-.115-3.217A15.4,15.4,0,0,1,49.272,6.161H104.7a15.4,15.4,0,0,1,14.9,11.494l1.114,4.266,3.622-2.515A21.248,21.248,0,0,1,150.2,20.685l2.884,2.455,1.815-3.324A26.188,26.188,0,0,1,177.894,6.162a25.874,25.874,0,0,1,16.459,5.823L198.23,7.2a32.337,32.337,0,0,0-46.884,6.674A27.428,27.428,0,0,0,124.2,12.344,21.567,21.567,0,0,0,104.7,0H49.272A21.562,21.562,0,0,0,27.819,19.428,15.462,15.462,0,0,0,15.4,34.551,15.423,15.423,0,0,0,27.716,49.638v6.616H15.4v6.159h6.159V83.855l-5.3,70.722,6.142.461,3.251-43.352H48.263l6.929,92.386H18.717l3.217-42.891-6.142-.461-3.251,43.352H0v6.159H210.23v-6.159Zm-6.159-66.746v66.746H155.516V147.678Zm-42.394,0v66.746H116.8l-4.218-56.239Zm-38.734,66.746H74.148l6.929-92.386h22.617ZM83.147,62.413h18.477V80.891H83.147ZM82.925,87.05h18.922l1.386,18.477H81.54ZM46.194,62.413V80.891H27.716V62.413ZM26.108,105.527,27.494,87.05H46.416L47.8,105.527ZM46.194,56.254V41.786c10.813-1.553,16.694-8.955,18.126-16.474h9.6a15.389,15.389,0,0,0,9.23,24.326v6.616H70.829v6.159h6.159V83.855l-4.4,58.626H56.749l-4.4-58.626V62.414h6.159V56.255H46.194ZM57.211,148.64H72.129l-4.157,55.431h-6.6Z" transform="translate(0 -0.002)"/>
        <path id="Path_831295" data-name="Path 831295" d="M372.576,197.523A19.439,19.439,0,1,0,355.279,217a15.419,15.419,0,1,0,17.3-19.474Zm-2.48,24.461a9.242,9.242,0,0,1-9.242-8.782l-.2-3.912L356.9,210.4a13.3,13.3,0,1,1,9.322-10.5l-.657,3.85,3.9-.259a9.254,9.254,0,1,1,.631,18.486Z" transform="translate(-196.658 -105.027)"/>
        <path id="Path_831296" data-name="Path 831296" d="M407,384h6.159V424.24H407Z" transform="translate(-239.886 -226.33)"/>
        <path id="Path_831297" data-name="Path 831297" d="M437,384h6.159V424.24H437Z" transform="translate(-257.568 -226.33)"/>
        <path id="Path_831298" data-name="Path 831298" d="M303.752,384h6.159V424.24h-6.159Z" transform="translate(-179.031 -226.33)"/>
        <path id="Path_831299" data-name="Path 831299" d="M333.752,384h6.159V424.24h-6.159Z" transform="translate(-196.713 -226.33)"/>
      </g>
    </g>
  </g>
</svg>
