<svg xmlns="http://www.w3.org/2000/svg" xmlns:xlink="http://www.w3.org/1999/xlink" width="295" height="242" viewBox="0 0 295 242">
  <defs>
    <clipPath id="clip-path">
      <rect id="Rectangle_381199" data-name="Rectangle 381199" width="295" height="242" transform="translate(1020 7644)" fill="#fff" stroke="#707070" stroke-width="1"/>
    </clipPath>
  </defs>
  <g id="Mask_Group_463" data-name="Mask Group 463" transform="translate(-1020 -7644)" clip-path="url(#clip-path)">
    <g id="Fill_out_line" data-name="Fill out line" transform="translate(1044.819 7641.328)">
      <path id="Path_831300" data-name="Path 831300" d="M216,372.027h43.192v24.907H216Z" transform="translate(-109.484 -194.52)" fill="#1a1e38"/>
      <path id="Path_831301" data-name="Path 831301" d="M101.647,314.629a29.3,29.3,0,0,1-20.263,7.82H59.638C33,322.449,19.657,290.242,38.5,271.4L53.9,256H87.123l3.759,3.759L102.527,271.4C115.568,284.444,113.188,303.893,101.647,314.629Z" transform="translate(-7.997 -129.77)" fill="#809993"/>
      <rect id="Rectangle_381200" data-name="Rectangle 381200" width="46.514" height="9.967" rx="4.984" transform="translate(39.257 112.861)" fill="#ae7d4d"/>
      <path id="Path_831302" data-name="Path 831302" d="M80,189.29v-6.645a6.645,6.645,0,0,1,13.29,0,6.645,6.645,0,1,0,13.29,0,6.645,6.645,0,0,1,13.29,0v6.645a9.967,9.967,0,0,1-9.967,9.967H89.967A9.967,9.967,0,0,1,80,189.29Z" transform="translate(-37.421 -87.588)" fill="#809993"/>
      <path id="Path_831303" data-name="Path 831303" d="M225.384,298.449H203.638c-26.638,0-39.982-32.207-21.143-51.045L197.9,232h33.224l5.706,5.706,9.7,9.7C265.365,266.242,252.022,298.449,225.384,298.449Z" transform="translate(-84.393 -116.665)" fill="#809993"/>
      <rect id="Rectangle_381201" data-name="Rectangle 381201" width="46.514" height="9.967" rx="4.984" transform="translate(106.678 102.244)" fill="#ae7d4d"/>
      <path id="Path_831304" data-name="Path 831304" d="M224,165.29v-6.645a6.645,6.645,0,1,1,13.29,0,6.645,6.645,0,0,0,13.29,0,6.645,6.645,0,1,1,13.29,0v6.645a9.967,9.967,0,0,1-9.967,9.967H233.967A9.967,9.967,0,0,1,224,165.29Z" transform="translate(-114.024 -74.254)" fill="#809993"/>
      <path id="Path_831305" data-name="Path 831305" d="M358.527,343.4l-15.4-15.4H309.9l-15.4,15.4c-18.837,18.837-5.5,51.046,21.144,51.046h21.743C364.023,394.449,377.365,362.24,358.527,343.4Z" transform="translate(-143.664 -168.777)" fill="#809993"/>
      <rect id="Rectangle_381202" data-name="Rectangle 381202" width="46.514" height="9.967" rx="4.984" transform="translate(159.591 144.71)" fill="#ae7d4d"/>
      <path id="Path_831306" data-name="Path 831306" d="M336,261.29v-6.645a6.645,6.645,0,1,1,13.29,0,6.645,6.645,0,0,0,13.29,0,6.645,6.645,0,1,1,13.29,0v6.645a9.967,9.967,0,0,1-9.967,9.967H345.967A9.967,9.967,0,0,1,336,261.29Z" transform="translate(-173.086 -127.59)" fill="#809993"/>
      <path id="Path_831307" data-name="Path 831307" d="M166.865,390.513a13.291,13.291,0,0,1-13.288,13.29H37.29a13.29,13.29,0,1,1,0-26.58c.141,0,.282.008.424.012a13.288,13.288,0,0,1,16.392-16.147,19.935,19.935,0,0,1,39.666,2.845h6.645v16.612h23.257a13.29,13.29,0,0,1,26.276-2.82,13.295,13.295,0,0,1,16.915,12.787Z" transform="translate(-4.678 -178.131)" fill="#ae7d4d"/>
      <path id="Path_831308" data-name="Path 831308" d="M225.224,368v26.58c0,5.5-7.438,9.967-16.612,9.967S192,400.082,192,394.58V368Z" transform="translate(-96.739 -192.165)" fill="#ffae7e"/>
      <ellipse id="Ellipse_5956" data-name="Ellipse 5956" cx="9.967" cy="14.951" rx="9.967" ry="14.951" transform="translate(84.058 138.496)" fill="#efdd9b"/>
      <ellipse id="Ellipse_5957" data-name="Ellipse 5957" cx="16.612" cy="9.967" rx="16.612" ry="9.967" transform="translate(95.261 162.897)" fill="#fb7425"/>
      <path id="Path_831309" data-name="Path 831309" d="M212.726,295.258a36.514,36.514,0,0,0,3.632-54.276l-12.073-12.226a9.033,9.033,0,0,0-2.072-15.761,14.448,14.448,0,0,0,2.256-7.771v-7.2a10.669,10.669,0,1,0-21.336,0,3.556,3.556,0,1,1-7.112,0,10.809,10.809,0,0,0-6.106-9.769,10.555,10.555,0,0,0-11.329,1.423l-4.085-4.137a9.033,9.033,0,0,0-2.072-15.761,14.449,14.449,0,0,0,2.256-7.771v-7.2a10.669,10.669,0,1,0-21.336,0,3.556,3.556,0,1,1-7.112,0,10.669,10.669,0,1,0-21.336,0v7.2a14.449,14.449,0,0,0,2.256,7.771,9.033,9.033,0,0,0-2.072,15.761L93.013,197.765c-.187.189-.362.387-.544.579l-1.976-2a9.033,9.033,0,0,0-2.072-15.761,14.449,14.449,0,0,0,2.256-7.771v-7.2a10.669,10.669,0,1,0-21.336,0,3.556,3.556,0,1,1-7.112,0,10.669,10.669,0,1,0-21.336,0v7.2a14.449,14.449,0,0,0,2.256,7.771,9.033,9.033,0,0,0-2.072,15.761L29,208.569a35.528,35.528,0,0,0-10.382,27.9,37.258,37.258,0,0,0,12.313,24.952,18.158,18.158,0,0,0-.711,5.03c0,.12.009.24.011.36a17.834,17.834,0,0,0-13.078,11.247,18.185,18.185,0,0,0,2.408,17.2H16v7.2H229.363v-7.2ZM160.02,223.23a1.8,1.8,0,0,1,0-3.6h39.117a1.8,1.8,0,0,1,0,3.6Zm-5.334,38.379v1.26a17.836,17.836,0,0,0-13.232-7.2,28.985,28.985,0,0,1,6.373-9.6l15.444-15.641h1.467a52.839,52.839,0,0,0-10.052,31.177Zm-42.673-23.974c8.141,0,14.224,3.8,14.224,7.2s-6.083,7.2-14.224,7.2-14.224-3.8-14.224-7.2S103.872,237.636,112.013,237.636Zm-12.374-4.6a18.207,18.207,0,0,0-6.128,4.532c-3.8-.708-6.39-6.923-6.39-12.536,0-7.428,3.748-12.6,7.112-12.6,4.191,0,7.112,6.643,7.112,12.6a18.571,18.571,0,0,1-1.706,8Zm-1.85,22.622a30,30,0,0,0,28.448,0v17.992c0,3.4-6.083,7.2-14.224,7.2s-14.224-3.8-14.224-7.2ZM161.8,198.021a3.556,3.556,0,1,1,7.112,0,10.669,10.669,0,1,0,21.336,0,3.556,3.556,0,1,1,7.112,0v7.2a7.166,7.166,0,0,1-7.112,7.2H168.91a7.166,7.166,0,0,1-7.112-7.2Zm-51.563-18.007a1.8,1.8,0,0,1,0-3.6h39.117a1.8,1.8,0,0,1,0,3.6Zm1.778-25.21a3.556,3.556,0,1,1,7.112,0,10.669,10.669,0,1,0,21.336,0,3.556,3.556,0,1,1,7.112,0v7.2a7.166,7.166,0,0,1-7.112,7.2H119.125a7.166,7.166,0,0,1-7.112-7.2Zm1.473,32.412h1.486a53.174,53.174,0,0,0-8.168,17.042l6.853,1.929a45.841,45.841,0,0,1,10.531-18.971h7.652a45.625,45.625,0,0,1,11.319,22.309l6.976-1.4a52.94,52.94,0,0,0-9.067-20.907H146.1l8.759,8.871a10.946,10.946,0,0,0-.174,1.933v7.2a14.448,14.448,0,0,0,2.256,7.771,9.033,9.033,0,0,0-2.072,15.761L142.8,240.981a36.146,36.146,0,0,0-9.29,16.1l-.158.067V244.839c0-8.078-9.372-14.405-21.336-14.405a32.665,32.665,0,0,0-4.148.264,27.628,27.628,0,0,0,.591-5.666c0-10.349-5.426-18.606-12.619-19.685a30.975,30.975,0,0,1,2.2-2.489Zm-67.26,3.6a1.8,1.8,0,0,1,0-3.6H85.343a1.8,1.8,0,0,1,0,3.6ZM48,165.608a3.556,3.556,0,1,1,7.112,0,10.669,10.669,0,1,0,21.336,0,3.556,3.556,0,1,1,7.112,0v7.2c0,3.976-7.112,7.2-7.112,7.2H55.117a7.166,7.166,0,0,1-7.112-7.2Zm-22.29,70.323a28.377,28.377,0,0,1,8.318-22.27l15.444-15.641h1.467A52.839,52.839,0,0,0,40.892,229.2v12.04H48V229.2a45.574,45.574,0,0,1,12.177-31.177h7.641a45.435,45.435,0,0,1,8.144,12.3l6.474-2.983a52.819,52.819,0,0,0-5.393-9.312h5.046l5.933,6.008a35.383,35.383,0,0,0-2.918,5.7c-3.133,3.605-5.1,9.076-5.1,15.3a27.6,27.6,0,0,0,.812,6.719,24.494,24.494,0,0,0-7.924-1.317,25.074,25.074,0,0,0-23.864,18.042c-.341-.02-.684-.035-1.028-.035a17.657,17.657,0,0,0-13.594,6.418,29.991,29.991,0,0,1-8.7-18.927Zm8.066,59.326a10.688,10.688,0,0,1-10.244-7.79,10.87,10.87,0,0,1,4.528-12.137,10.563,10.563,0,0,1,12.771,1.018l4.706-5.4a17.665,17.665,0,0,0-8.194-4.132c0-.123-.011-.246-.011-.37a10.784,10.784,0,0,1,7.908-10.436,10.615,10.615,0,0,1,12,5.037l6.156-3.607a17.914,17.914,0,0,0-7.494-7.113,17.754,17.754,0,0,1,34.768,5.315V273.65c0,8.078,9.372,14.405,21.336,14.405s21.336-6.328,21.336-14.405V265.6a10.584,10.584,0,0,1,16.528,2.984,17.907,17.907,0,0,0-7.035,6.864L149,279.054a10.607,10.607,0,0,1,12.888-4.756,10.824,10.824,0,0,1,6.862,12.029,10.708,10.708,0,0,1-10.507,8.931Zm138.676,0a18.186,18.186,0,0,0,2.41-17.2,17.835,17.835,0,0,0-13.068-11.25v-5.2a45.574,45.574,0,0,1,12.177-31.177h7.65A45.574,45.574,0,0,1,193.8,261.61v12.04h7.112V261.61a52.839,52.839,0,0,0-10.052-31.177h5.023l15.444,15.641a29.08,29.08,0,0,1,6.167,31.4,28.447,28.447,0,0,1-26.283,17.785Z" transform="translate(0 -73.466)"/>
      <path id="Path_831310" data-name="Path 831310" d="M91.172,62.278a17.438,17.438,0,0,0,0,24.633l3.322,3.322,4.7-4.7-3.322-3.322a10.786,10.786,0,0,1,0-15.236,17.438,17.438,0,0,0,0-24.633l-4.7,4.7A10.786,10.786,0,0,1,91.172,62.278Z" transform="translate(-40.975 -14.028)"/>
      <path id="Path_831311" data-name="Path 831311" d="M0,0H6.645V9.4H0Z" transform="translate(40.225 23.049) rotate(-45)"/>
      <path id="Path_831312" data-name="Path 831312" d="M166.951,117.9h4.984v-6.645h-4.984a8.306,8.306,0,1,1,0-16.612h18.273V88H166.951a14.951,14.951,0,1,0,0,29.9Z" transform="translate(-74.753 -40.723)"/>
      <path id="Path_831313" data-name="Path 831313" d="M248,88h6.645v6.645H248Z" transform="translate(-128.641 -40.723)"/>
      <path id="Path_831314" data-name="Path 831314" d="M335.327,52.025a8.434,8.434,0,0,1,0,11.914,15.086,15.086,0,0,0,0,21.311l4.984,4.984,4.7-4.7-4.984-4.984a8.434,8.434,0,0,1,0-11.914,15.086,15.086,0,0,0,0-21.311l-4.984-4.984-4.7,4.7Z" transform="translate(-173.887 -14.028)"/>
      <path id="Path_831315" data-name="Path 831315" d="M0,0H6.645V9.4H0Z" transform="translate(145.555 23.059) rotate(-45)"/>
      <path id="Path_831316" data-name="Path 831316" d="M449.231,110.278a17.438,17.438,0,0,0,0,24.633,10.786,10.786,0,0,1,0,15.236l-3.322,3.322,4.7,4.7,3.322-3.322a17.438,17.438,0,0,0,0-24.633,10.786,10.786,0,0,1,0-15.236,17.438,17.438,0,0,0,0-24.633l-4.7,4.7a10.786,10.786,0,0,1,0,15.236Z" transform="translate(-236.313 -39.282)"/>
      <path id="Path_831317" data-name="Path 831317" d="M0,0H6.645V9.4H0Z" transform="translate(202.928 42.997) rotate(-45)"/>
    </g>
  </g>
</svg>
