<svg xmlns="http://www.w3.org/2000/svg" xmlns:xlink="http://www.w3.org/1999/xlink" width="295" height="242" viewBox="0 0 295 242">
  <defs>
    <clipPath id="clip-path">
      <rect id="Rectangle_381206" data-name="Rectangle 381206" width="295" height="242" transform="translate(1020 7644)" fill="#fff" stroke="#707070" stroke-width="1"/>
    </clipPath>
  </defs>
  <g id="Mask_Group_464" data-name="Mask Group 464" transform="translate(-1020 -7644)" clip-path="url(#clip-path)">
    <g id="Group_1078610" data-name="Group 1078610" transform="translate(1064.638 7662.138)">
      <path id="Path_831318" data-name="Path 831318" d="M1,16H204.725V35.715H1Z" transform="translate(0 34.288)" fill="#43525b"/>
      <path id="Path_831319" data-name="Path 831319" d="M1,16H204.725V29.144H1Z" transform="translate(0 34.288)" fill="#69737a"/>
      <path id="Path_831320" data-name="Path 831320" d="M1,22.715H47a6.572,6.572,0,0,1,6.572,6.572V167.294a26.287,26.287,0,0,0,26.287,26.287H204.725V173.866H79.861a6.572,6.572,0,0,1-6.572-6.572V29.287A26.287,26.287,0,0,0,47,3H1Z" transform="translate(0 4.572)" fill="#91989d"/>
      <path id="Path_831321" data-name="Path 831321" d="M73.289,167.294V29.287A26.287,26.287,0,0,0,47,3H1V16.144H53.574a6.572,6.572,0,0,1,6.572,6.572V160.722a26.287,26.287,0,0,0,26.287,26.287H204.725V173.866H79.861A6.572,6.572,0,0,1,73.289,167.294Z" transform="translate(0 4.572)" fill="#aab1b7"/>
      <path id="Path_831322" data-name="Path 831322" d="M204.725,135.721H175.152V1H155.436V135.721H119.292a6.572,6.572,0,0,1-6.572-6.572V116.006A26.287,26.287,0,0,0,86.433,89.719H1v19.715H86.433A6.572,6.572,0,0,1,93,116.006v13.144a26.287,26.287,0,0,0,26.287,26.287h85.433Z" transform="translate(0 0)" fill="#7816c2"/>
      <path id="Path_831323" data-name="Path 831323" d="M175.152,1H162.008V135.721H119.292a6.572,6.572,0,0,1-6.572-6.572V116.006A26.287,26.287,0,0,0,86.433,89.719H1v13.144H93a6.572,6.572,0,0,1,6.572,6.572v13.144a26.287,26.287,0,0,0,26.287,26.287h78.861V135.721H175.152Z" transform="translate(0 0)" fill="#bf9cd9"/>
      <g id="Group_1078609" data-name="Group 1078609" transform="translate(135.721 109.434)">
        <path id="Path_831324" data-name="Path 831324" d="M42,41H55.144V67.287H42Z" transform="translate(-42 -17.999)" fill="#225980"/>
        <path id="Path_831325" data-name="Path 831325" d="M56,41H69.144V67.287H56Z" transform="translate(-9.998 -17.999)" fill="#225980"/>
        <path id="Path_831326" data-name="Path 831326" d="M0,0H13.144V26.287H0Z" transform="translate(42.716 0) rotate(90)" fill="#225980"/>
      </g>
      <path id="Path_831327" data-name="Path 831327" d="M54,54H67.144V80.287H54Z" transform="translate(121.152 121.152)" fill="#43525b"/>
      <path id="Path_831328" data-name="Path 831328" d="M6,2H19.144V28.287H6Z" transform="translate(11.429 2.286)" fill="#43525b"/>
      <path id="Path_831329" data-name="Path 831329" d="M178.438,1h-6.572V106.148H158.722V1h-6.572V47H76.575V33.859A29.606,29.606,0,0,0,47,4.286H33.859A3.286,3.286,0,0,0,30.573,1H17.429a3.286,3.286,0,0,0-3.286,3.286H1v6.572H14.144V24H1v6.572H14.144a3.286,3.286,0,0,0,3.286,3.286H30.573a3.286,3.286,0,0,0,3.286-3.286H47a3.286,3.286,0,0,1,3.286,3.286V47H1v6.572H50.288V66.718H1v6.572H50.288V86.433H1V93H86.433a23.027,23.027,0,0,1,23,23v13.143a9.858,9.858,0,0,0,9.858,9.858h13.144v13.144H119.292a23.027,23.027,0,0,1-23-23V116.006a9.858,9.858,0,0,0-9.858-9.858H1v6.572H50.288v59.146a29.606,29.606,0,0,0,29.573,29.573h92a3.286,3.286,0,0,0,3.286,3.286H188.3a3.286,3.286,0,0,0,3.286-3.286h13.144v-6.572H191.581V181.723h13.144v-6.572H191.581a3.286,3.286,0,0,0-3.286-3.286H175.152a3.286,3.286,0,0,0-3.286,3.286h-92a3.286,3.286,0,0,1-3.286-3.286V112.72h9.858a3.286,3.286,0,0,1,3.286,3.286v13.144a29.606,29.606,0,0,0,29.573,29.573h13.144a3.286,3.286,0,0,0,3.286,3.286h13.144a3.286,3.286,0,0,0,3.286-3.286h26.287a3.286,3.286,0,0,0,3.286,3.286h13.144a3.286,3.286,0,0,0,3.286-3.286h6.572v-6.572h-6.572V139.007h6.572v-6.572h-6.572a3.286,3.286,0,0,0-3.286-3.286H181.723a3.286,3.286,0,0,0-3.286,3.286v-6.572a3.286,3.286,0,0,0,3.286-3.286V109.434a3.286,3.286,0,0,0-3.286-3.286V73.289h26.287V66.718H178.438V53.574h26.287V47H178.438ZM27.287,27.287H20.715V7.572h6.572ZM178.438,178.438h6.572v19.715h-6.572Zm-98.576,3.286h92v13.144h-92a23.027,23.027,0,0,1-23-23V112.72H70v59.146A9.858,9.858,0,0,0,79.861,181.723Zm105.148-46h6.572v19.715h-6.572Zm-9.858-16.429H155.436V112.72h19.715Zm-23-65.718V66.718H76.575V53.574ZM47,24H33.859V10.858H47a23.027,23.027,0,0,1,23,23V86.433H56.86V33.859A9.858,9.858,0,0,0,47,24Zm98.576,131.435h-6.572V135.721h6.572Zm-9.858-26.287a3.286,3.286,0,0,0-3.286,3.286H119.292a3.286,3.286,0,0,1-3.286-3.286V116.006A29.606,29.606,0,0,0,86.433,86.433H76.575V73.289h75.575v32.859a3.286,3.286,0,0,0-3.286,3.286v13.144a3.286,3.286,0,0,0,3.286,3.286v6.572a3.286,3.286,0,0,0-3.286-3.286Zm39.431,9.858h3.286v13.144H152.151V139.007h3.286a3.286,3.286,0,0,0,3.286-3.286v-9.858h13.144v9.858A3.286,3.286,0,0,0,175.152,139.007Z" transform="translate(0 0)"/>
    </g>
  </g>
</svg>
