<svg xmlns="http://www.w3.org/2000/svg" xmlns:xlink="http://www.w3.org/1999/xlink" width="295" height="242" viewBox="0 0 295 242">
  <defs>
    <clipPath id="clip-path">
      <rect id="Rectangle_381207" data-name="Rectangle 381207" width="295" height="242" transform="translate(1020 7644)" fill="#fff" stroke="#707070" stroke-width="1"/>
    </clipPath>
  </defs>
  <g id="Mask_Group_465" data-name="Mask Group 465" transform="translate(-1020 -7644)" clip-path="url(#clip-path)">
    <g id="Group_1078614" data-name="Group 1078614" transform="translate(1053.562 7578.224)">
      <g id="Group_1078612" data-name="Group 1078612" transform="translate(3.335 134.728)">
        <path id="Path_831330" data-name="Path 831330" d="M226.615,201.1h-9.27a5.924,5.924,0,0,1-5.907-5.907v-9.86a5.806,5.806,0,0,1,.341-1.949c-.139-.032-.277-.066-.418-.095l-33.117-6.756a12.4,12.4,0,0,1-3.169-1.115v4.847a5.754,5.754,0,0,1-5.737,5.737h-5.015a5.754,5.754,0,0,1-5.737-5.737v-5.015a5.754,5.754,0,0,1,5.737-5.737h3.35L146.417,151.21a37.338,37.338,0,0,0-15.973-8.1c-15.746-3.63-48.807-8.393-84.6,3.72A37.521,37.521,0,0,0,26.31,162.053L14.981,179.658a23.465,23.465,0,0,0-1.927,3.675l-1.8,14.416v5.6a23.451,23.451,0,0,0,.826,6.167l1.477,6.754H226.636V202c0-.3-.007-.6-.021-.9Z" transform="translate(-9.579 -139.058)" fill="#ffae7e"/>
        <g id="Group_1078611" data-name="Group 1078611" transform="translate(1.673 2.343)">
          <path id="Path_831331" data-name="Path 831331" d="M26.831,205.611v-4.852a17.493,17.493,0,0,1,.122-2.065l1.339-11.257a16.616,16.616,0,0,1,2.245-6.693l.023-.037,11.329-18.5a37.86,37.86,0,0,1,19.536-16q2.85-1.014,5.674-1.878a144.908,144.908,0,0,0-21.252,5.426,37.521,37.521,0,0,0-19.536,15.224L14.982,182.578a23.466,23.466,0,0,0-1.927,3.675l-1.8,14.416v5.6a23.451,23.451,0,0,0,.826,6.167l1.477,6.754H29.133l-1.477-7.1a25.832,25.832,0,0,1-.826-6.482Z" transform="translate(-11.253 -144.323)" fill="#f57427"/>
        </g>
        <path id="Path_831332" data-name="Path 831332" d="M224.719,309.54H11.47a3.976,3.976,0,0,0-3.976,3.976v3.61A3.976,3.976,0,0,0,11.47,321.1H224.719a3.976,3.976,0,0,0,3.976-3.976v-3.61A3.976,3.976,0,0,0,224.719,309.54Z" transform="translate(-7.494 -233.663)" fill="#dfebfa"/>
        <path id="Path_831333" data-name="Path 831333" d="M74.4,317.127v-3.61a3.976,3.976,0,0,1,3.976-3.976H11.47a3.976,3.976,0,0,0-3.976,3.976v3.61A3.976,3.976,0,0,0,11.47,321.1H78.379A3.976,3.976,0,0,1,74.4,317.127Z" transform="translate(-7.494 -233.664)" fill="#b1dbfc"/>
        <path id="Path_831334" data-name="Path 831334" d="M460.578,238.533a5.846,5.846,0,0,0-.542,2.449v9.86a5.924,5.924,0,0,0,5.907,5.907h9.726A19.084,19.084,0,0,0,460.578,238.533Z" transform="translate(-258.622 -194.259)" fill="#ffd301"/>
        <path id="Path_831335" data-name="Path 831335" d="M17.946,238.533H13.055a23.444,23.444,0,0,0-1.8,9.012v5.4h6.693a5.754,5.754,0,0,0,5.737-5.737v-2.941A5.754,5.754,0,0,0,17.946,238.533Z" transform="translate(-9.58 -194.259)" fill="#ffd301"/>
        <path id="Path_831336" data-name="Path 831336" d="M189.521,195.143v-2.8l-19.97-17.2a25.484,25.484,0,0,0-10.858-5.512c-15.116-3.485-45.361-7.678-78.081,3.395a25.663,25.663,0,0,0-13.326,10.386,1.859,1.859,0,0,0,.354,2.4l13.7,11.936a1.866,1.866,0,0,0,1.226.459H190.421a5.685,5.685,0,0,1-.9-3.064Z" transform="translate(-40.514 -153.934)" fill="#23a8fe"/>
        <path id="Path_831337" data-name="Path 831337" d="M78.89,190.126a2.593,2.593,0,0,1-.354-2.9,28.973,28.973,0,0,1,7.227-8.9c-1.71.5-3.425,1.033-5.15,1.617a25.663,25.663,0,0,0-13.326,10.386,1.859,1.859,0,0,0,.354,2.4l13.7,11.936a1.865,1.865,0,0,0,1.226.459h11.25a1.691,1.691,0,0,1-1.226-.555Z" transform="translate(-40.514 -160.846)" fill="#0193fa"/>
        <path id="Path_831338" data-name="Path 831338" d="M352.486,206.49H347.47a6.19,6.19,0,0,0-6.182,6.183v5.015a6.19,6.19,0,0,0,6.182,6.183h5.015a6.19,6.19,0,0,0,6.182-6.183v-5.015A6.19,6.19,0,0,0,352.486,206.49Z" transform="translate(-192.725 -176.478)" fill="#dfebfa"/>
        <path id="Path_831339" data-name="Path 831339" d="M349.978,217.688v-5.015a6.194,6.194,0,0,1,4.345-5.9,6.16,6.16,0,0,0-1.837-.279H347.47a6.19,6.19,0,0,0-6.182,6.183v5.015a6.19,6.19,0,0,0,6.182,6.183h5.015a6.16,6.16,0,0,0,1.837-.279A6.2,6.2,0,0,1,349.978,217.688Z" transform="translate(-192.725 -176.478)" fill="#b1dbfc"/>
        <path id="Path_831340" data-name="Path 831340" d="M129.135,169.135l4.931,29.077h40.374V166.6A145.586,145.586,0,0,0,129.135,169.135Z" transform="translate(-74.996 -153.939)" fill="#60b8fe"/>
        <circle id="Ellipse_5958" data-name="Ellipse 5958" cx="22.831" cy="22.831" r="22.831" transform="translate(11.793 58.69)" fill="#665e68"/>
        <path id="Path_831341" data-name="Path 831341" d="M46.3,293.754a22.837,22.837,0,0,1,16.679-21.986,22.831,22.831,0,1,0,0,43.971A22.836,22.836,0,0,1,46.3,293.754Z" transform="translate(-22.198 -212.233)" fill="#554e56"/>
        <circle id="Ellipse_5959" data-name="Ellipse 5959" cx="11.416" cy="11.416" r="11.416" transform="translate(23.209 70.105)" fill="#dfebfa"/>
        <path id="Path_831342" data-name="Path 831342" d="M71.946,307.988a11.4,11.4,0,0,1,5.263-9.613,11.416,11.416,0,1,0,0,19.226A11.4,11.4,0,0,1,71.946,307.988Z" transform="translate(-36.431 -226.467)" fill="#b1dbfc"/>
        <circle id="Ellipse_5960" data-name="Ellipse 5960" cx="22.831" cy="22.831" r="22.831" transform="translate(154.44 58.69)" fill="#665e68"/>
        <path id="Path_831343" data-name="Path 831343" d="M366.8,293.754a22.837,22.837,0,0,1,16.679-21.986,22.831,22.831,0,1,0,0,43.971A22.836,22.836,0,0,1,366.8,293.754Z" transform="translate(-200.054 -212.233)" fill="#554e56"/>
        <circle id="Ellipse_5961" data-name="Ellipse 5961" cx="11.416" cy="11.416" r="11.416" transform="translate(165.856 70.105)" fill="#dfebfa"/>
        <path id="Path_831344" data-name="Path 831344" d="M392.448,307.988a11.4,11.4,0,0,1,5.263-9.613,11.416,11.416,0,1,0,0,19.226A11.4,11.4,0,0,1,392.448,307.988Z" transform="translate(-214.286 -226.467)" fill="#b1dbfc"/>
      </g>
      <g id="Group_1078613" data-name="Group 1078613" transform="translate(0 131.256)">
        <path id="Path_831345" data-name="Path 831345" d="M386.6,288.8a14.754,14.754,0,1,0,14.754,14.754A14.77,14.77,0,0,0,386.6,288.8Zm0,22.831a8.078,8.078,0,1,1,8.078-8.078A8.087,8.087,0,0,1,386.6,311.629Z" transform="translate(-206.346 -218.68)" fill="#050402"/>
        <path id="Path_831346" data-name="Path 831346" d="M66.9,288.8a14.754,14.754,0,1,0,14.754,14.754A14.771,14.771,0,0,0,66.9,288.8Zm0,22.831a8.078,8.078,0,1,1,8.078-8.078A8.087,8.087,0,0,1,66.9,311.629Z" transform="translate(-28.937 -218.68)" fill="#050402"/>
        <path id="Path_831347" data-name="Path 831347" d="M0,214.46v3.61a7.323,7.323,0,0,0,7.315,7.314H13.49a26.162,26.162,0,0,0,48.946,0H94.994a3.338,3.338,0,1,0,0-6.676H64a26.349,26.349,0,0,0,.026-4.887h90.153a26.321,26.321,0,0,0,.027,4.887H110.572a3.338,3.338,0,1,0,0,6.676h45.207a26.163,26.163,0,0,0,48.946,0h15.838a7.322,7.322,0,0,0,7.314-7.314v-3.61a7.316,7.316,0,0,0-4.144-6.581V197.545a22.4,22.4,0,0,0-17.945-21.975l-33.118-6.756c-.26-.053-.518-.123-.774-.2a9.083,9.083,0,0,0-8.8-6.888h-.426l-10.223-8.8a3.338,3.338,0,0,0-4.357,5.059l5.641,4.858a9.237,9.237,0,0,0-3.7,3.777l-15.478-13.329a28.831,28.831,0,0,0-12.287-6.235c-25.474-5.874-54.047-5.264-79.9,3.486A29.015,29.015,0,0,0,27.3,162.281a5.223,5.223,0,0,0,.97,6.721l13.7,11.935a5.2,5.2,0,0,0,3.419,1.281H151.659a9.044,9.044,0,0,0,6.426,2.674H163.1a9.086,9.086,0,0,0,9.075-9.076v-.29l29.241,5.965v9.7a9.255,9.255,0,0,0,9.245,9.245h6.4v6.711H204.84a26.18,26.18,0,0,0-49.174,0H62.549a26.179,26.179,0,0,0-49.173,0H9.864l-.807-2.958a20.105,20.105,0,0,1-.708-5.289v-2.264H11.7a9.085,9.085,0,0,0,9.075-9.075v-2.941a9.083,9.083,0,0,0-8.312-9.037l10.408-16.174a34.317,34.317,0,0,1,17.8-13.869c34.733-11.755,66.771-7.32,82.778-3.63a33.754,33.754,0,0,1,12.913,6.059,3.338,3.338,0,1,0,4.039-5.316,40.372,40.372,0,0,0-15.452-7.248c-16.7-3.849-50.123-8.473-86.418,3.811a41.014,41.014,0,0,0-21.273,16.579L5.933,173.4a26.835,26.835,0,0,0-4.26,14.492V198.9a26.8,26.8,0,0,0,.943,7.046l.661,2.423A7.309,7.309,0,0,0,0,214.46Zm130.2-56.115,18.81,16.2v1H106.121V150.993a143.823,143.823,0,0,1,14.647,2.562A22.125,22.125,0,0,1,130.2,158.344Zm-96.553,6.484c4.993-6.848,11.705-8.625,21.135-10.965l3.677,21.679H45.944Zm31.583,10.714-3.922-23.125a144.716,144.716,0,0,1,38.138-2.093v25.218Zm97.87,2.674h-5.016a2.422,2.422,0,0,1-2.4-2.4V170.8a2.4,2.4,0,0,1,2.4-2.4H163.1a2.4,2.4,0,0,1,2.4,2.4v5.015A2.4,2.4,0,0,1,163.1,178.215Zm17.153,57.405a19.493,19.493,0,1,1,19.494-19.493A19.52,19.52,0,0,1,180.251,235.621Zm27.84-44.431v-7.852a15.859,15.859,0,0,1,8.5,10.421H210.66a2.572,2.572,0,0,1-2.569-2.569Zm12.3,22.632h.167a.639.639,0,0,1,.638.639v3.61a.639.639,0,0,1-.638.638h-14.27a26.266,26.266,0,0,0,.027-4.887Zm-182.433,21.8a19.493,19.493,0,1,1,19.493-19.493A19.52,19.52,0,0,1,37.962,235.621Zm-26.068-21.8a26.443,26.443,0,0,0,.027,4.887H7.315a.639.639,0,0,1-.639-.638v-3.61a.64.64,0,0,1,.639-.639h4.58Zm2.209-29.2v2.941a2.4,2.4,0,0,1-2.4,2.4H8.35a24.972,24.972,0,0,1,.816-7.74H11.7A2.4,2.4,0,0,1,14.1,184.617Z" transform="translate(0 -131.256)" fill="#050402"/>
        <path id="Path_831348" data-name="Path 831348" d="M253.246,265.832a3.338,3.338,0,1,0,0-6.676h-4.183a3.338,3.338,0,0,0,0,6.676Z" transform="translate(-136.359 -202.231)" fill="#050402"/>
        <path id="Path_831349" data-name="Path 831349" d="M159.253,265.832a3.338,3.338,0,0,0,0-6.676H155.07a3.338,3.338,0,0,0,0,6.676Z" transform="translate(-84.2 -202.231)" fill="#050402"/>
      </g>
    </g>
  </g>
</svg>
