<svg id="Group_1079040" data-name="Group 1079040" xmlns="http://www.w3.org/2000/svg" xmlns:xlink="http://www.w3.org/1999/xlink" width="399.122" height="513.963" viewBox="0 0 399.122 513.963">
  <defs>
    <clipPath id="clip-path">
      <rect id="Rectangle_381476" data-name="Rectangle 381476" width="399.122" height="513.963" fill="none"/>
    </clipPath>
    <clipPath id="clip-path-4">
      <rect id="Rectangle_381449" data-name="Rectangle 381449" width="299.7" height="359.724" fill="none"/>
    </clipPath>
    <clipPath id="clip-path-5">
      <rect id="Rectangle_381450" data-name="Rectangle 381450" width="272.044" height="328.974" fill="none"/>
    </clipPath>
    <clipPath id="clip-path-6">
      <rect id="Rectangle_381451" data-name="Rectangle 381451" width="53.081" height="50.355" fill="#c1e29a"/>
    </clipPath>
    <clipPath id="clip-path-7">
      <rect id="Rectangle_381452" data-name="Rectangle 381452" width="53.078" height="50.357" fill="#c1e29a"/>
    </clipPath>
    <clipPath id="clip-path-8">
      <rect id="Rectangle_381453" data-name="Rectangle 381453" width="53.08" height="50.357" fill="#c1e29a"/>
    </clipPath>
    <clipPath id="clip-path-9">
      <rect id="Rectangle_381454" data-name="Rectangle 381454" width="53.08" height="50.359" fill="#c1e29a"/>
    </clipPath>
    <clipPath id="clip-path-10">
      <rect id="Rectangle_381455" data-name="Rectangle 381455" width="110.361" height="10.969" fill="#c1e29a"/>
    </clipPath>
    <clipPath id="clip-path-11">
      <rect id="Rectangle_381456" data-name="Rectangle 381456" width="91.466" height="10.969" fill="#c1e29a"/>
    </clipPath>
    <clipPath id="clip-path-12">
      <rect id="Rectangle_381457" data-name="Rectangle 381457" width="110.362" height="10.969" fill="#c1e29a"/>
    </clipPath>
    <clipPath id="clip-path-15">
      <rect id="Rectangle_381460" data-name="Rectangle 381460" width="50.973" height="10.969" fill="#c1e29a"/>
    </clipPath>
    <clipPath id="clip-path-16">
      <rect id="Rectangle_381461" data-name="Rectangle 381461" width="32.078" height="10.969" fill="#c1e29a"/>
    </clipPath>
    <clipPath id="clip-path-18">
      <rect id="Rectangle_381463" data-name="Rectangle 381463" width="91.464" height="10.97" fill="#c1e29a"/>
    </clipPath>
    <clipPath id="clip-path-19">
      <rect id="Rectangle_381464" data-name="Rectangle 381464" width="15.488" height="19.248" fill="none"/>
    </clipPath>
    <clipPath id="clip-path-20">
      <rect id="Rectangle_381465" data-name="Rectangle 381465" width="100.837" height="35.95" fill="none"/>
    </clipPath>
    <clipPath id="clip-path-21">
      <rect id="Rectangle_381466" data-name="Rectangle 381466" width="40.895" height="4.858" fill="none"/>
    </clipPath>
    <clipPath id="clip-path-22">
      <rect id="Rectangle_381467" data-name="Rectangle 381467" width="8.659" height="4.858" fill="none"/>
    </clipPath>
    <clipPath id="clip-path-24">
      <rect id="Rectangle_381470" data-name="Rectangle 381470" width="13.605" height="27.455" fill="none"/>
    </clipPath>
    <clipPath id="clip-path-25">
      <rect id="Rectangle_381471" data-name="Rectangle 381471" width="12.648" height="14.357" fill="none"/>
    </clipPath>
    <clipPath id="clip-path-26">
      <rect id="Rectangle_381472" data-name="Rectangle 381472" width="16.48" height="15.917" fill="none"/>
    </clipPath>
    <clipPath id="clip-path-27">
      <rect id="Rectangle_381473" data-name="Rectangle 381473" width="33.875" height="35.482" fill="none"/>
    </clipPath>
    <clipPath id="clip-path-28">
      <rect id="Rectangle_381474" data-name="Rectangle 381474" width="16.954" height="92.345" fill="none"/>
    </clipPath>
  </defs>
  <g id="Group_1079039" data-name="Group 1079039" clip-path="url(#clip-path)">
    <g id="Group_1078962" data-name="Group 1078962">
      <g id="Group_1078961" data-name="Group 1078961" clip-path="url(#clip-path)">
        <path id="Path_832151" data-name="Path 832151" d="M392.552,322.472c0,9.82-87.875,17.779-196.275,17.779S0,332.291,0,322.472s87.875-17.779,196.277-17.779,196.275,7.961,196.275,17.779" transform="translate(0 173.713)" fill="#f5f5f5"/>
      </g>
    </g>
    <g id="Group_1079021" data-name="Group 1079021">
      <g id="Group_1079020" data-name="Group 1079020" clip-path="url(#clip-path)">
        <path id="Path_832152" data-name="Path 832152" d="M95.069,29.283H353.6A9.339,9.339,0,0,1,363,39.311L341.925,378.978a10.852,10.852,0,0,1-10.652,10.028H72.748a9.341,9.341,0,0,1-9.407-10.028L84.418,39.311a10.85,10.85,0,0,1,10.65-10.028" transform="translate(36.101 16.695)" fill="#636363"/>
        <g id="Group_1078965" data-name="Group 1078965" transform="translate(104.122 45.978)" opacity="0.4">
          <g id="Group_1078964" data-name="Group 1078964">
            <g id="Group_1078963" data-name="Group 1078963" clip-path="url(#clip-path-4)">
              <path id="Path_832153" data-name="Path 832153" d="M95.069,29.283H353.6A9.339,9.339,0,0,1,363,39.311L341.925,378.978a10.852,10.852,0,0,1-10.652,10.028H72.748a9.341,9.341,0,0,1-9.407-10.028L84.418,39.311a10.85,10.85,0,0,1,10.65-10.028" transform="translate(-67.321 -29.283)"/>
            </g>
          </g>
        </g>
        <path id="Path_832154" data-name="Path 832154" d="M91.286,29.283H349.814a9.34,9.34,0,0,1,9.4,10.028L338.142,378.978a10.851,10.851,0,0,1-10.652,10.028H68.965a9.341,9.341,0,0,1-9.407-10.028L80.634,39.311A10.852,10.852,0,0,1,91.286,29.283" transform="translate(33.944 16.695)" fill="#809993"/>
        <g id="Group_1078968" data-name="Group 1078968" transform="translate(107.516 61.406)" opacity="0.4">
          <g id="Group_1078967" data-name="Group 1078967">
            <g id="Group_1078966" data-name="Group 1078966" clip-path="url(#clip-path-5)">
              <path id="Path_832155" data-name="Path 832155" d="M68.476,365.065l251.631,3.018L340.521,39.109H88.7Z" transform="translate(-68.476 -39.109)"/>
            </g>
          </g>
        </g>
        <path id="Path_832156" data-name="Path 832156" d="M63.794,363.191H318.622c14.045-128.6,18.353-198.032,20.269-326.635H84.061c-1.914,128.6-6.222,198.032-20.267,326.635" transform="translate(36.371 20.841)" fill="#fff"/>
        <g id="Group_1078971" data-name="Group 1078971" transform="translate(297.71 96.498)" opacity="0.3">
          <g id="Group_1078970" data-name="Group 1078970">
            <g id="Group_1078969" data-name="Group 1078969" clip-path="url(#clip-path-6)">
              <path id="Path_832157" data-name="Path 832157" d="M236.727,111.815H192.85a3.242,3.242,0,0,1-3.234-3.44L192.338,64.5a3.241,3.241,0,0,1,3.234-3.038h43.877a3.242,3.242,0,0,1,3.234,3.44l-2.724,43.876a3.24,3.24,0,0,1-3.233,3.04m-40.431-6.48h37.385L236,67.94H198.618Z" transform="translate(-189.609 -61.458)" fill="#c1e29a"/>
            </g>
          </g>
        </g>
        <g id="Group_1078974" data-name="Group 1078974" transform="translate(293.565 163.332)" opacity="0.3">
          <g id="Group_1078973" data-name="Group 1078973">
            <g id="Group_1078972" data-name="Group 1078972" clip-path="url(#clip-path-7)">
              <path id="Path_832158" data-name="Path 832158" d="M234.084,154.382H190.209a3.242,3.242,0,0,1-3.234-3.44l2.723-43.879a3.239,3.239,0,0,1,3.233-3.038h43.877a3.242,3.242,0,0,1,3.234,3.44l-2.723,43.877a3.243,3.243,0,0,1-3.234,3.04m-40.429-6.48H231.04l2.321-37.4H195.976Z" transform="translate(-186.969 -104.025)" fill="#c1e29a"/>
            </g>
          </g>
        </g>
        <g id="Group_1078977" data-name="Group 1078977" transform="translate(289.416 230.165)" opacity="0.3">
          <g id="Group_1078976" data-name="Group 1078976">
            <g id="Group_1078975" data-name="Group 1078975" clip-path="url(#clip-path-8)">
              <path id="Path_832159" data-name="Path 832159" d="M231.445,196.947H187.568a3.242,3.242,0,0,1-3.234-3.44l2.723-43.879a3.241,3.241,0,0,1,3.234-3.038h43.876a3.242,3.242,0,0,1,3.234,3.44l-2.721,43.877a3.243,3.243,0,0,1-3.234,3.04m-40.431-6.48H228.4l2.319-37.4H193.336Z" transform="translate(-184.327 -146.59)" fill="#c1e29a"/>
            </g>
          </g>
        </g>
        <g id="Group_1078980" data-name="Group 1078980" transform="translate(285.27 296.997)" opacity="0.3">
          <g id="Group_1078979" data-name="Group 1078979">
            <g id="Group_1078978" data-name="Group 1078978" clip-path="url(#clip-path-9)">
              <path id="Path_832160" data-name="Path 832160" d="M228.8,239.513H184.927a3.242,3.242,0,0,1-3.234-3.44l2.723-43.879a3.239,3.239,0,0,1,3.233-3.038h43.877a3.242,3.242,0,0,1,3.234,3.44l-2.723,43.877a3.243,3.243,0,0,1-3.234,3.04m-40.429-6.48h37.385l2.321-37.4H190.694Z" transform="translate(-181.686 -189.154)" fill="#c1e29a"/>
            </g>
          </g>
        </g>
        <g id="Group_1078983" data-name="Group 1078983" transform="translate(158.162 104.969)" opacity="0.3">
          <g id="Group_1078982" data-name="Group 1078982">
            <g id="Group_1078981" data-name="Group 1078981" clip-path="url(#clip-path-10)">
              <path id="Path_832161" data-name="Path 832161" d="M105.887,77.823h99.372a5.936,5.936,0,0,0,5.825-5.484,5.11,5.11,0,0,0-5.145-5.484h-99.37a5.934,5.934,0,0,0-5.825,5.484,5.107,5.107,0,0,0,5.144,5.484" transform="translate(-100.732 -66.854)" fill="#c1e29a"/>
            </g>
          </g>
        </g>
        <g id="Group_1078986" data-name="Group 1078986" transform="translate(175.664 127.416)" opacity="0.3">
          <g id="Group_1078985" data-name="Group 1078985">
            <g id="Group_1078984" data-name="Group 1078984" clip-path="url(#clip-path-11)">
              <path id="Path_832162" data-name="Path 832162" d="M117.034,92.119h80.475a5.935,5.935,0,0,0,5.825-5.484,5.11,5.11,0,0,0-5.145-5.484H117.715a5.934,5.934,0,0,0-5.825,5.484,5.107,5.107,0,0,0,5.144,5.484" transform="translate(-111.879 -81.15)" fill="#c1e29a"/>
            </g>
          </g>
        </g>
        <g id="Group_1078989" data-name="Group 1078989" transform="translate(152.621 194.249)" opacity="0.3">
          <g id="Group_1078988" data-name="Group 1078988">
            <g id="Group_1078987" data-name="Group 1078987" clip-path="url(#clip-path-12)">
              <path id="Path_832163" data-name="Path 832163" d="M103.039,123.716h99.372a5.108,5.108,0,0,1,5.144,5.484,5.935,5.935,0,0,1-5.825,5.484H102.358a5.108,5.108,0,0,1-5.144-5.484,5.935,5.935,0,0,1,5.825-5.484" transform="translate(-97.203 -123.716)" fill="#c1e29a"/>
            </g>
          </g>
        </g>
        <g id="Group_1078992" data-name="Group 1078992" transform="translate(172.91 171.801)" opacity="0.3">
          <g id="Group_1078991" data-name="Group 1078991">
            <g id="Group_1078990" data-name="Group 1078990" clip-path="url(#clip-path-11)">
              <path id="Path_832164" data-name="Path 832164" d="M115.961,109.419h80.475a5.108,5.108,0,0,1,5.144,5.484,5.934,5.934,0,0,1-5.825,5.484H115.28a5.108,5.108,0,0,1-5.144-5.484,5.935,5.935,0,0,1,5.825-5.484" transform="translate(-110.125 -109.419)" fill="#c1e29a"/>
            </g>
          </g>
        </g>
        <g id="Group_1078995" data-name="Group 1078995" transform="translate(149.867 238.635)" opacity="0.3">
          <g id="Group_1078994" data-name="Group 1078994">
            <g id="Group_1078993" data-name="Group 1078993" clip-path="url(#clip-path-12)">
              <path id="Path_832165" data-name="Path 832165" d="M100.6,162.954h99.372a5.936,5.936,0,0,0,5.825-5.484,5.11,5.11,0,0,0-5.145-5.484h-99.37a5.934,5.934,0,0,0-5.825,5.484,5.107,5.107,0,0,0,5.144,5.484" transform="translate(-95.449 -151.985)" fill="#c1e29a"/>
            </g>
          </g>
        </g>
        <g id="Group_1078998" data-name="Group 1078998" transform="translate(207.862 261.082)" opacity="0.3">
          <g id="Group_1078997" data-name="Group 1078997">
            <g id="Group_1078996" data-name="Group 1078996" clip-path="url(#clip-path-15)">
              <path id="Path_832166" data-name="Path 832166" d="M137.541,177.25h39.983a5.936,5.936,0,0,0,5.825-5.484,5.109,5.109,0,0,0-5.145-5.484H138.222a5.934,5.934,0,0,0-5.825,5.484,5.107,5.107,0,0,0,5.144,5.484" transform="translate(-132.386 -166.281)" fill="#c1e29a"/>
            </g>
          </g>
        </g>
        <g id="Group_1079001" data-name="Group 1079001" transform="translate(167.371 261.082)" opacity="0.3">
          <g id="Group_1079000" data-name="Group 1079000">
            <g id="Group_1078999" data-name="Group 1078999" clip-path="url(#clip-path-16)">
              <path id="Path_832167" data-name="Path 832167" d="M111.752,177.25h21.087a5.935,5.935,0,0,0,5.825-5.484,5.109,5.109,0,0,0-5.145-5.484H112.433a5.934,5.934,0,0,0-5.825,5.484,5.107,5.107,0,0,0,5.144,5.484" transform="translate(-106.597 -166.281)" fill="#c1e29a"/>
            </g>
          </g>
        </g>
        <g id="Group_1079004" data-name="Group 1079004" transform="translate(145.72 305.468)" opacity="0.3">
          <g id="Group_1079003" data-name="Group 1079003">
            <g id="Group_1079002" data-name="Group 1079002" clip-path="url(#clip-path-10)">
              <path id="Path_832168" data-name="Path 832168" d="M97.963,205.519h99.372a5.933,5.933,0,0,0,5.824-5.484,5.107,5.107,0,0,0-5.144-5.484H98.644a5.934,5.934,0,0,0-5.825,5.484,5.107,5.107,0,0,0,5.144,5.484" transform="translate(-92.808 -194.55)" fill="#c1e29a"/>
            </g>
          </g>
        </g>
        <g id="Group_1079007" data-name="Group 1079007" transform="translate(163.224 327.914)" opacity="0.3">
          <g id="Group_1079006" data-name="Group 1079006">
            <g id="Group_1079005" data-name="Group 1079005" clip-path="url(#clip-path-18)">
              <path id="Path_832169" data-name="Path 832169" d="M109.111,219.816h80.475a5.936,5.936,0,0,0,5.825-5.484,5.109,5.109,0,0,0-5.145-5.484H109.792a5.934,5.934,0,0,0-5.825,5.484,5.107,5.107,0,0,0,5.144,5.484" transform="translate(-103.956 -208.845)" fill="#c1e29a"/>
            </g>
          </g>
        </g>
        <path id="Path_832170" data-name="Path 832170" d="M211.56,99.341a3.223,3.223,0,0,1-1.825-.565l-16.907-11.55a3.239,3.239,0,0,1,3.655-5.348l14.445,9.867c5.271-6.361,20.317-23.608,32.831-29.189a3.24,3.24,0,0,1,2.636,5.919c-13.662,6.089-32.1,29.394-32.288,29.628a3.237,3.237,0,0,1-2.548,1.237" transform="translate(109.132 35.505)" fill="#c1e29a"/>
        <path id="Path_832171" data-name="Path 832171" d="M205.75,139.127a3.226,3.226,0,0,1-2.248-.908l-14.718-14.186a3.24,3.24,0,0,1,4.5-4.665l12.53,12.076c6.193-5.539,23.579-20.308,36.672-23.889a3.239,3.239,0,1,1,1.708,6.249c-14.323,3.916-36,24.236-36.218,24.441a3.231,3.231,0,0,1-2.222.882" transform="translate(107.066 61.254)" fill="#c1e29a"/>
        <g id="Group_1079010" data-name="Group 1079010" transform="translate(284.34 45.978)" opacity="0.4">
          <g id="Group_1079009" data-name="Group 1079009">
            <g id="Group_1079008" data-name="Group 1079008" clip-path="url(#clip-path-19)">
              <path id="Path_832172" data-name="Path 832172" d="M182.049,48.484l4.78.047a9.617,9.617,0,0,0,9.692-9.523l.061-8.755a.953.953,0,0,0-.966-.97H182.3a1.1,1.1,0,0,0-1.091,1.083l-.119,17.147a.952.952,0,0,0,.955.97" transform="translate(-181.094 -29.283)"/>
            </g>
          </g>
        </g>
        <path id="Path_832173" data-name="Path 832173" d="M140.315,19.166h80.174a7.744,7.744,0,0,1,7.822,9.042L225.9,46.073a10.717,10.717,0,0,1-10.264,9.042H135.462a7.744,7.744,0,0,1-7.822-9.042l2.412-17.865a10.719,10.719,0,0,1,10.264-9.042" transform="translate(72.724 10.927)" fill="#c1e29a"/>
        <g id="Group_1079013" data-name="Group 1079013" transform="translate(200.282 29.277)" opacity="0.6">
          <g id="Group_1079012" data-name="Group 1079012">
            <g id="Group_1079011" data-name="Group 1079011" clip-path="url(#clip-path-20)">
              <path id="Path_832174" data-name="Path 832174" d="M140.315,19.166h80.174a7.744,7.744,0,0,1,7.822,9.042L225.9,46.073a10.717,10.717,0,0,1-10.264,9.042H135.462a7.744,7.744,0,0,1-7.822-9.042l2.412-17.865a10.719,10.719,0,0,1,10.264-9.042" transform="translate(-127.558 -19.166)" fill="#fff"/>
            </g>
          </g>
        </g>
        <g id="Group_1079016" data-name="Group 1079016" transform="translate(252.666 33.872)" opacity="0.5">
          <g id="Group_1079015" data-name="Group 1079015">
            <g id="Group_1079014" data-name="Group 1079014" clip-path="url(#clip-path-21)">
              <path id="Path_832175" data-name="Path 832175" d="M199.387,26.431H163.35a2.429,2.429,0,0,1,0-4.858h36.037a2.429,2.429,0,1,1,0,4.858" transform="translate(-160.921 -21.573)" fill="#fff"/>
            </g>
          </g>
        </g>
        <g id="Group_1079019" data-name="Group 1079019" transform="translate(236.784 33.872)" opacity="0.5">
          <g id="Group_1079018" data-name="Group 1079018">
            <g id="Group_1079017" data-name="Group 1079017" clip-path="url(#clip-path-22)">
              <path id="Path_832176" data-name="Path 832176" d="M157.037,26.431h-3.8a2.429,2.429,0,1,1,0-4.858h3.8a2.429,2.429,0,0,1,0,4.858" transform="translate(-150.807 -21.573)" fill="#fff"/>
            </g>
          </g>
        </g>
      </g>
    </g>
    <path id="Path_832177" data-name="Path 832177" d="M86.458,309.489l15.5,2.957L138.587,140.17l-22.753-4.341Z" transform="translate(49.292 77.439)" fill="#ffae7e"/>
    <path id="Path_832178" data-name="Path 832178" d="M121.148,67.267l18.554-6.1,1.286-6.739L123.7,53.9Z" transform="translate(69.069 30.73)" fill="#263238"/>
    <path id="Path_832179" data-name="Path 832179" d="M129.324,62.413l21.132-6.874L128.739,179.2l-22.751-4.341Z" transform="translate(60.426 31.664)" fill="#ffae7e"/>
    <rect id="Rectangle_381469" data-name="Rectangle 381469" width="6.861" height="21.28" transform="translate(166.051 213.444) rotate(-79.198)" fill="#263238"/>
    <g id="Group_1079038" data-name="Group 1079038">
      <g id="Group_1079037" data-name="Group 1079037" clip-path="url(#clip-path)">
        <path id="Path_832180" data-name="Path 832180" d="M88.249,260.005c-.195,1.021.232,1.961.953,2.1s1.465-.578,1.66-1.6-.232-1.961-.953-2.1-1.465.579-1.66,1.6" transform="translate(50.286 147.313)" fill="#407bff"/>
        <path id="Path_832181" data-name="Path 832181" d="M88.182,266.952l4.613.881,9.159-18.444-15.5-2.957Z" transform="translate(49.292 140.497)" fill="#263238"/>
        <path id="Path_832182" data-name="Path 832182" d="M106.046,143.147a1.957,1.957,0,0,1-1.771-2.781c9.729-20.859,17.631-64.443,18.692-74.809a8.5,8.5,0,0,1,5.09-6.932l5.136-2.212A1.953,1.953,0,1,1,134.738,60L129.6,62.215a4.591,4.591,0,0,0-2.749,3.742c-1.115,10.884-8.961,54.457-19.036,76.062a1.958,1.958,0,0,1-1.773,1.129" transform="translate(59.345 32.071)" fill="#263238"/>
        <path id="Path_832183" data-name="Path 832183" d="M73.173,62.053c-3.913,6.7-7.866,13.808-11.575,20.782q-2.763,5.271-5.346,10.576c-1.653,3.547-3.3,7.092-4.717,10.644l-.267.644c0,.011-.024-.027-.033.016a.906.906,0,0,0-.113.33,7.058,7.058,0,0,0-.105,1.537,22.991,22.991,0,0,0,.663,4.61A78.776,78.776,0,0,0,55.127,121.8c1.4,3.624,3,7.252,4.665,10.884,1.625,3.636,3.446,7.295,5.169,10.837L57.5,148.615a136.943,136.943,0,0,1-14.786-20.832A77.289,77.289,0,0,1,37,115.591a39.107,39.107,0,0,1-1.886-7.4,22.468,22.468,0,0,1-.187-4.605,17.833,17.833,0,0,1,.374-2.7c.086-.462.247-.981.385-1.463l.254-.8a174.928,174.928,0,0,1,9.509-23.883A224.693,224.693,0,0,1,57.669,52.461Z" transform="translate(19.887 29.909)" fill="#ffc3bd"/>
        <path id="Path_832184" data-name="Path 832184" d="M56.222,109.029l7.014,5.461-10.716,8.851s-4.891-4.728-4.136-10.5Z" transform="translate(27.54 62.16)" fill="#ffc3bd"/>
        <path id="Path_832185" data-name="Path 832185" d="M64.563,120.483l-7.138,9.187-6.436-8.314L61.7,112.507Z" transform="translate(29.07 64.143)" fill="#ffc3bd"/>
        <path id="Path_832186" data-name="Path 832186" d="M85.057,17.6c.193.95.854,1.619,1.474,1.493s.969-1,.776-1.95-.853-1.619-1.474-1.493-.969,1-.776,1.95" transform="translate(48.463 8.914)" fill="#263238"/>
        <path id="Path_832187" data-name="Path 832187" d="M85.526,17.928s3.277,5.045,6.194,7.207c-1.363,1.912-4.368,1.776-4.368,1.776Z" transform="translate(48.76 10.221)" fill="#ed847e"/>
        <path id="Path_832188" data-name="Path 832188" d="M82.345,15.02a.569.569,0,0,1-.418-.956,5.647,5.647,0,0,1,4.847-1.886.57.57,0,0,1-.19,1.124,4.521,4.521,0,0,0-3.822,1.534.561.561,0,0,1-.418.184" transform="translate(46.622 6.921)" fill="#263238"/>
        <path id="Path_832189" data-name="Path 832189" d="M68.775,25.4c1.726,8.8,3.446,24.919-2.71,30.792,0,0,2.405,8.925,18.755,8.925,17.978,0,8.592-8.925,8.592-8.925-9.812-2.343-9.559-9.622-7.849-16.458Z" transform="translate(37.665 14.482)" fill="#ffc3bd"/>
        <path id="Path_832190" data-name="Path 832190" d="M63.97,50.488c-1.308-3.106,1.493-12.523,4.473-13.445,3.28-1.014,15.747-.447,21.935,2.14,4.4,4.459,5.671,13.72,5.671,13.72Z" transform="translate(36.283 20.849)" fill="#263238"/>
        <path id="Path_832191" data-name="Path 832191" d="M32.288,308.226c1.207.261,2.415.33,2.994-.165a1.157,1.157,0,0,0,.276-1.322,1.315,1.315,0,0,0-.733-.838c-1.624-.776-5.356.746-5.514.81a.285.285,0,0,0-.016.52,15.146,15.146,0,0,0,2.993,1m1.958-1.922a1.549,1.549,0,0,1,.334.11.767.767,0,0,1,.433.487c.152.513-.038.674-.1.727-.647.55-3.048.044-4.74-.634a9.394,9.394,0,0,1,4.073-.689" transform="translate(16.611 174.276)" fill="#407bff"/>
        <path id="Path_832192" data-name="Path 832192" d="M29.359,308.442a.3.3,0,0,0,.14,0c1.36-.4,4.269-2.464,4.305-3.828a.929.929,0,0,0-.729-.922,1.555,1.555,0,0,0-1.264.1c-1.606.821-2.622,4.151-2.665,4.294a.283.283,0,0,0,.071.281.271.271,0,0,0,.141.079m3.4-4.252a1.222,1.222,0,0,1,.124.035c.353.124.349.3.345.371-.019.806-1.939,2.427-3.348,3.084.352-.961,1.156-2.858,2.186-3.384a1.011,1.011,0,0,1,.692-.105" transform="translate(16.611 173.088)" fill="#407bff"/>
        <path id="Path_832193" data-name="Path 832193" d="M87.862,309.64c1.543,0,3.035-.214,3.534-.906a1.079,1.079,0,0,0-.024-1.245,1.419,1.419,0,0,0-.9-.667c-2-.543-6.205,1.851-6.383,1.953a.285.285,0,0,0,.086.527,21.132,21.132,0,0,0,3.688.338m1.908-2.333a2.078,2.078,0,0,1,.551.066.86.86,0,0,1,.557.4c.2.355.129.529.055.631-.559.777-3.6.794-5.835.479a12.853,12.853,0,0,1,4.671-1.573" transform="translate(47.858 174.881)" fill="#407bff"/>
        <path id="Path_832194" data-name="Path 832194" d="M84.229,310.352a.277.277,0,0,0,.116-.025c1.452-.652,4.327-3.252,4.107-4.611-.052-.32-.278-.718-1.06-.8a2.079,2.079,0,0,0-1.581.488c-1.529,1.256-1.853,4.5-1.867,4.633a.285.285,0,0,0,.284.311m2.935-4.875a1.583,1.583,0,0,1,.171.009c.512.052.545.253.556.32.132.815-1.821,2.859-3.3,3.749.154-.945.583-2.884,1.587-3.709a1.519,1.519,0,0,1,.989-.371" transform="translate(47.858 173.835)" fill="#407bff"/>
        <path id="Path_832195" data-name="Path 832195" d="M75.7,318.308H87.729l1.2-27.852H76.9Z" transform="translate(43.16 165.596)" fill="#ffc3bd"/>
        <path id="Path_832196" data-name="Path 832196" d="M20.422,314.068,32.5,316.613l8.521-25.943-12.077-2.545Z" transform="translate(11.643 164.267)" fill="#ffc3bd"/>
        <path id="Path_832197" data-name="Path 832197" d="M35.889,306.564,22.683,303.7a1.05,1.05,0,0,0-1.174.586l-4.585,9.947a1.769,1.769,0,0,0,1.269,2.462c4.629.92,6.926,1.134,12.734,2.391,3.574.774,11.639,2.738,16.573,3.808,4.827,1.044,6.635-3.671,4.71-4.55-8.628-3.943-12.233-7.414-14.568-10.649a2.924,2.924,0,0,0-1.752-1.135" transform="translate(9.558 173.136)" fill="#263238"/>
        <path id="Path_832198" data-name="Path 832198" d="M89.331,307.307H76.2a1.048,1.048,0,0,0-1.024.821L72.8,318.819a1.752,1.752,0,0,0,1.732,2.14c4.737-.082,11.584-.36,17.538-.36,6.963,0,4.26.38,12.424.38,4.938,0,6.309-4.991,4.242-5.444-9.41-2.058-8.373-2.278-16.505-7.292a5.564,5.564,0,0,0-2.9-.937" transform="translate(41.479 175.203)" fill="#263238"/>
        <path id="Path_832199" data-name="Path 832199" d="M59.818,46.862C48.546,49.448,39.251,78.225,39.251,78.225L61.887,95.476S70.2,87.644,73.894,73.249c3.875-15.083-2.55-29.03-14.076-26.388" transform="translate(22.378 26.532)" fill="#263238"/>
        <g id="Group_1079024" data-name="Group 1079024" transform="translate(83.262 94.558)" opacity="0.2">
          <g id="Group_1079023" data-name="Group 1079023">
            <g id="Group_1079022" data-name="Group 1079022" clip-path="url(#clip-path-24)">
              <path id="Path_832200" data-name="Path 832200" d="M61.624,60.223C55.5,66.281,53.5,77.315,53.029,86.909l1,.769s8.317-7.841,12.016-22.233c.229-.9.425-1.8.59-2.685Z" transform="translate(-53.029 -60.223)"/>
            </g>
          </g>
        </g>
        <path id="Path_832201" data-name="Path 832201" d="M119.73,48.5s12.8,14.459.713,103.956H56.114c-.444-9.876,5.761-58.048-3.764-104.577a167.928,167.928,0,0,1,21.534-2.719c8.22-.4,20.12-.658,27.347,0a120.8,120.8,0,0,1,18.5,3.338" transform="translate(29.846 25.517)" fill="#263238"/>
        <g id="Group_1079027" data-name="Group 1079027" transform="translate(119.437 456.059)" opacity="0.2">
          <g id="Group_1079026" data-name="Group 1079026">
            <g id="Group_1079025" data-name="Group 1079025" clip-path="url(#clip-path-25)">
              <path id="Path_832202" data-name="Path 832202" d="M88.716,290.46,88.1,304.817H76.068l.616-14.357Z" transform="translate(-76.068 -290.46)"/>
            </g>
          </g>
        </g>
        <g id="Group_1079030" data-name="Group 1079030" transform="translate(36.184 452.399)" opacity="0.2">
          <g id="Group_1079029" data-name="Group 1079029">
            <g id="Group_1079028" data-name="Group 1079028" clip-path="url(#clip-path-26)">
              <path id="Path_832203" data-name="Path 832203" d="M27.443,288.13l12.082,2.547-4.4,13.37L23.045,301.5Z" transform="translate(-23.045 -288.13)"/>
            </g>
          </g>
        </g>
        <path id="Path_832204" data-name="Path 832204" d="M64.794,27.219c3.09,11.529,4.313,18.435,11.427,23.228,10.7,7.212,24.028-1.065,24.444-13.285.375-11-4.74-28.006-17.113-30.33A16.281,16.281,0,0,0,64.794,27.219" transform="translate(36.609 3.724)" fill="#ffc3bd"/>
        <path id="Path_832205" data-name="Path 832205" d="M78.782,46.535h-.154A11.688,11.688,0,0,1,69.1,41.689c-3.618-5.034-8.684-13.776-9.265-23.872,4.578-4.841,21.811-8.026,29.482-6.28,6.4,1.456,5.466,19.66-.582,29.492a11.717,11.717,0,0,1-9.956,5.506" transform="translate(34.115 6.302)" fill="#ffc3bd"/>
        <g id="Group_1079033" data-name="Group 1079033" transform="translate(93.953 17.355)" opacity="0.8">
          <g id="Group_1079032" data-name="Group 1079032">
            <g id="Group_1079031" data-name="Group 1079031" clip-path="url(#clip-path-27)">
              <path id="Path_832206" data-name="Path 832206" d="M78.782,46.535h-.154A11.688,11.688,0,0,1,69.1,41.689c-3.618-5.034-8.684-13.776-9.265-23.872,4.578-4.841,21.811-8.026,29.482-6.28,6.4,1.456,5.466,19.66-.582,29.492a11.717,11.717,0,0,1-9.956,5.506" transform="translate(-59.838 -11.053)" fill="#263238"/>
            </g>
          </g>
        </g>
        <path id="Path_832207" data-name="Path 832207" d="M67.883,28.218c-5.419-.388-8.483-3.8-9.465-6.717-1.369-4.078.088-12.691,8.287-12.954s9.072-4.929,6.543-5.888c5.364.393,3.663,4.144,3.663,4.144,1.44.088,2.792-3.837,10.947-3.533S100.071,1.832,99.023,0c3.883.785,2.792,5.5-.479,6.759,0,0,7.763,5.888,9.6,2.661,1.308,2.355-1.266,5.172-11.079,3.894,3.914,5.472-5.351,4.244-9.3,6.73S73.3,28.606,67.883,28.218" transform="translate(33.048)" fill="#263238"/>
        <path id="Path_832208" data-name="Path 832208" d="M77.153,21.428A13.5,13.5,0,0,0,82.006,28.6c3.131,2.328,5.467.036,5.246-3.506-.2-3.187-2.071-8.242-5.524-9.185-3.4-.931-5.472,2.054-4.575,5.514" transform="translate(43.868 8.974)" fill="#ffc3bd"/>
        <path id="Path_832209" data-name="Path 832209" d="M115.635,113.348S101.986,205.262,94.493,239.7C86.286,277.4,42.287,402.163,42.287,402.163L20.757,397.5S51.524,295.833,58.412,243.114c5.29-40.494,15.714-129.766,15.714-129.766Z" transform="translate(11.834 64.622)" fill="#263238"/>
        <path id="Path_832210" data-name="Path 832210" d="M48,294.435c.093.02-4.013,7.786-4.013,7.786l-24.222-5.244L21.81,289.7Z" transform="translate(11.271 165.162)" fill="#7816c2"/>
        <g id="Group_1079036" data-name="Group 1079036" transform="translate(105.441 210.596)" opacity="0.3">
          <g id="Group_1079035" data-name="Group 1079035">
            <g id="Group_1079034" data-name="Group 1079034" clip-path="url(#clip-path-28)">
              <path id="Path_832211" data-name="Path 832211" d="M80.556,134.25c-15.783,3.095-14.112,61.951-12.212,92.221,4.55-21.4,11.214-62.573,15.766-91.8a5.4,5.4,0,0,0-3.553-.426" transform="translate(-67.154 -134.127)"/>
            </g>
          </g>
        </g>
        <path id="Path_832212" data-name="Path 832212" d="M111.073,113.348s1.657,89.924.349,126.6C110.06,278.1,96.734,403.012,96.734,403.012H76.36s-.747-122.685-1.653-160.151c-.989-40.845-5.921-129.513-5.921-129.513Z" transform="translate(39.217 64.622)" fill="#263238"/>
        <path id="Path_832213" data-name="Path 832213" d="M98.743,292.664c.094,0-1.149,8.458-1.149,8.458H72.809l-.67-7.549Z" transform="translate(41.128 166.855)" fill="#7816c2"/>
        <path id="Path_832214" data-name="Path 832214" d="M121.276,47.383c3.158,1.316,6.185,3.654,7.094,11.42.875,7.466-.818,72.827-2.869,93.7a3.02,3.02,0,0,1-2.646,2.862c-12.866.557-52.7-4.825-66.141-2.459-1.542.272-2.922-1.443-2.842-3.015,1.058-20.339-.463-53.144-2.949-73.992C49.3,62.291,49.287,48.051,60.716,45.63c8.444-1.79,48.281-3.363,60.56,1.752" transform="translate(28.594 25.038)" fill="#d0adea"/>
        <path id="Path_832215" data-name="Path 832215" d="M105.145,57.632c.718,3.446,1.5,7.207,2.357,10.787.879,3.607,1.755,7.205,2.757,10.732.98,3.53,2.04,7,3.247,10.317a57.207,57.207,0,0,0,4.005,9.093,18.63,18.63,0,0,0,2.1,3.077c.294.334.529.54.586.612.008.02-.02.137.312.24a8.55,8.55,0,0,0,3.181.4,35.639,35.639,0,0,0,4.649-.5c6.612-1.2,13.911-3.646,20.821-6.127l4.571,7.788a79.138,79.138,0,0,1-21.553,12.31,38.666,38.666,0,0,1-6.687,1.807,24.328,24.328,0,0,1-8.342.13,17.192,17.192,0,0,1-5.1-1.735,20.421,20.421,0,0,1-4-2.9,33.12,33.12,0,0,1-5.032-6.009c-5.054-7.918-7.722-15.583-10.222-23.346-1.182-3.88-2.266-7.75-3.165-11.653-.919-3.935-1.765-7.723-2.437-11.87Z" transform="translate(49.709 32.857)" fill="#ffc3bd"/>
        <path id="Path_832216" data-name="Path 832216" d="M82.646,58.917c-9.769,19.645,13.442,41.847,13.442,41.847l25.876-13.512s-2.735-16.771-8.84-30.336c-7.541-16.756-24.858-9.3-30.478,2" transform="translate(45.75 26.857)" fill="#263238"/>
        <path id="Path_832217" data-name="Path 832217" d="M125.135,85.068l8.777-5.767,3.651,13.129s-3.939,4.593-11.124-.416Z" transform="translate(71.343 45.211)" fill="#ffc3bd"/>
        <path id="Path_832218" data-name="Path 832218" d="M138.37,84.775l-.279,2.754a5.2,5.2,0,0,1-1.793,3.426L134.376,92.6l-3.651-13.129,1.124-.29a5.236,5.236,0,0,1,6.521,5.6" transform="translate(74.529 45.044)" fill="#ffc3bd"/>
      </g>
    </g>
  </g>
</svg>
