<svg xmlns="http://www.w3.org/2000/svg" xmlns:xlink="http://www.w3.org/1999/xlink" width="295" height="214" viewBox="0 0 295 214">
  <defs>
    <clipPath id="clip-path">
      <rect id="Rectangle_381226" data-name="Rectangle 381226" width="295" height="214" transform="translate(1000 7740)" fill="#fff" stroke="#707070" stroke-width="1"/>
    </clipPath>
    <clipPath id="clip-path-2">
      <rect id="Rectangle_381225" data-name="Rectangle 381225" width="221.25" height="215.132" fill="none"/>
    </clipPath>
    <clipPath id="clip-path-6">
      <rect id="Rectangle_381218" data-name="Rectangle 381218" width="32.343" height="3.805" fill="none"/>
    </clipPath>
    <clipPath id="clip-path-8">
      <rect id="Rectangle_381220" data-name="Rectangle 381220" width="76.383" height="18.671" fill="none"/>
    </clipPath>
    <clipPath id="clip-path-9">
      <rect id="Rectangle_381221" data-name="Rectangle 381221" width="12.755" height="76.684" fill="none"/>
    </clipPath>
    <clipPath id="clip-path-10">
      <rect id="Rectangle_381222" data-name="Rectangle 381222" width="6.332" height="14.873" fill="none"/>
    </clipPath>
  </defs>
  <g id="Mask_Group_466" data-name="Mask Group 466" transform="translate(-1000 -7740)" clip-path="url(#clip-path)">
    <g id="Group_1078640" data-name="Group 1078640" transform="translate(1042.143 7740)">
      <g id="Group_1078639" data-name="Group 1078639" clip-path="url(#clip-path-2)">
        <rect id="Rectangle_381208" data-name="Rectangle 381208" width="69.791" height="115.524" transform="translate(151.459 4.713)" fill="#e0e0e0"/>
        <rect id="Rectangle_381209" data-name="Rectangle 381209" width="69.791" height="115.524" transform="translate(149.137 4.713)" fill="#ebebeb"/>
        <rect id="Rectangle_381210" data-name="Rectangle 381210" width="63.847" height="110.838" transform="translate(152.109 7.056)" fill="#fff"/>
        <rect id="Rectangle_381211" data-name="Rectangle 381211" width="39.261" height="82.033" transform="translate(164.265 21.458)" fill="#ebebeb"/>
        <g id="Group_1078618" data-name="Group 1078618">
          <g id="Group_1078617" data-name="Group 1078617" clip-path="url(#clip-path-2)">
            <path id="Path_831350" data-name="Path 831350" d="M324.569,117.6c-.091-7.663,6.8-15.144,14.388-16.214,3.618-.51,7.463.208,10.844-1.178,6.035-2.475,7.955-10.493,14.029-12.871l.277,59.292H324.569Z" transform="translate(-160.304 -43.134)" fill="#e0e0e0"/>
            <rect id="Rectangle_381212" data-name="Rectangle 381212" width="62.698" height="65.358" transform="translate(4.265 11.7)" fill="#e0e0e0"/>
            <rect id="Rectangle_381213" data-name="Rectangle 381213" width="62.698" height="65.358" transform="translate(0.02 11.7)" fill="#fafafa"/>
            <path id="Path_831351" data-name="Path 831351" d="M62.737,88.477H0V23.08H62.737Zm-62.7-.039H62.7V23.119H.039Z" transform="translate(0 -11.399)" fill="#e0e0e0"/>
            <rect id="Rectangle_381214" data-name="Rectangle 381214" width="45.841" height="47.786" transform="translate(8.448 20.486)" fill="#fff"/>
            <path id="Path_831352" data-name="Path 831352" d="M8.526,135.523A7.51,7.51,0,0,1,7.4,136.838c-.732.772-1.761,1.818-2.914,2.954s-2.213,2.148-2.995,2.867a7.3,7.3,0,0,1-1.325,1.1,7.289,7.289,0,0,1,1.125-1.31c.732-.772,1.764-1.82,2.921-2.96s2.218-2.153,3-2.872a7.178,7.178,0,0,1,1.319-1.1" transform="translate(-0.079 -66.933)" fill="#e0e0e0"/>
            <path id="Path_831353" data-name="Path 831353" d="M107.267,135.292a7.512,7.512,0,0,1,1.315,1.131c.773.732,1.818,1.761,2.954,2.914s2.148,2.213,2.867,2.995a7.325,7.325,0,0,1,1.1,1.325,7.294,7.294,0,0,1-1.31-1.125c-.773-.732-1.821-1.764-2.96-2.921s-2.153-2.219-2.872-3a7.172,7.172,0,0,1-1.1-1.319" transform="translate(-52.978 -66.82)" fill="#e0e0e0"/>
            <path id="Path_831354" data-name="Path 831354" d="M107.02,32.687a7.51,7.51,0,0,1,1.131-1.315c.732-.773,1.761-1.818,2.914-2.954s2.213-2.148,2.995-2.867a7.277,7.277,0,0,1,1.325-1.1,7.3,7.3,0,0,1-1.125,1.309c-.732.773-1.764,1.821-2.921,2.96s-2.218,2.153-3,2.872a7.151,7.151,0,0,1-1.319,1.1" transform="translate(-52.856 -12.073)" fill="#e0e0e0"/>
            <path id="Path_831355" data-name="Path 831355" d="M8.4,32.8a7.454,7.454,0,0,1-1.315-1.131c-.772-.732-1.818-1.761-2.954-2.914s-2.148-2.213-2.867-2.995a7.277,7.277,0,0,1-1.1-1.325,7.309,7.309,0,0,1,1.31,1.125c.772.732,1.82,1.764,2.96,2.921s2.153,2.219,2.872,3A7.159,7.159,0,0,1,8.4,32.8" transform="translate(-0.078 -12.066)" fill="#e0e0e0"/>
            <path id="Path_831356" data-name="Path 831356" d="M62.209,88.066a2.166,2.166,0,0,1-.01-.232c0-.163-.006-.382-.01-.667,0-.6-.012-1.461-.02-2.58-.011-2.264-.027-5.557-.047-9.739-.022-8.369-.053-20.292-.09-34.568l.177.177L16.5,40.483h0l.2-.2c-.011,17.539-.021,33.948-.029,47.786l-.174-.174,33.1.089,9.3.046,2.46.02.636.01c.143,0,.218.007.221.01a1.412,1.412,0,0,1-.2.01l-.617.01-2.427.02-9.258.046-33.212.089h-.174v-.175c-.008-13.838-.018-30.247-.029-47.786v-.2H16.5l45.711.026h.177v.177c-.037,14.323-.068,26.285-.09,34.681-.02,4.165-.035,7.445-.047,9.7-.009,1.1-.016,1.955-.021,2.546,0,.276-.008.489-.01.648a1.555,1.555,0,0,1-.01.212" transform="translate(-8.046 -19.794)" fill="#e0e0e0"/>
            <rect id="Rectangle_381215" data-name="Rectangle 381215" width="15.296" height="15.296" transform="translate(23.72 36.731)" fill="#ebebeb"/>
          </g>
        </g>
        <g id="Group_1078620" data-name="Group 1078620">
          <g id="Group_1078619" data-name="Group 1078619" clip-path="url(#clip-path-2)">
            <path id="Path_831357" data-name="Path 831357" d="M219.237,422.723c0,.073-48.02.132-107.243.132-59.243,0-107.253-.059-107.253-.132s48.01-.132,107.253-.132c59.223,0,107.243.059,107.243.132" transform="translate(-2.342 -208.718)" fill="#263238"/>
          </g>
        </g>
        <path id="Path_831358" data-name="Path 831358" d="M27.877,370.546l4.028,26.472h23.4l5.432-26.089-14.582-.17Z" transform="translate(-13.769 -183.013)" fill="#99684b"/>
        <g id="Group_1078625" data-name="Group 1078625">
          <g id="Group_1078624" data-name="Group 1078624" clip-path="url(#clip-path-2)">
            <path id="Path_831359" data-name="Path 831359" d="M60.2,403.934c0,.076-6,.137-13.392.137s-13.393-.061-13.393-.137,6-.137,13.393-.137,13.392.061,13.392.137" transform="translate(-16.505 -199.436)" fill="#fafafa"/>
            <path id="Path_831360" data-name="Path 831360" d="M60.206,401.362c0,.076-6.037.138-13.483.138s-13.484-.062-13.484-.138,6.036-.137,13.484-.137,13.483.061,13.483.137" transform="translate(-16.417 -198.165)" fill="#fafafa"/>
            <path id="Path_831361" data-name="Path 831361" d="M60.115,398.457c0,.076-6.037.137-13.483.137s-13.484-.061-13.484-.137,6.036-.137,13.484-.137,13.483.061,13.483.137" transform="translate(-16.372 -196.73)" fill="#fafafa"/>
            <path id="Path_831362" data-name="Path 831362" d="M40,413.316a42.232,42.232,0,0,1-1.165-6.713A42.385,42.385,0,0,1,40,413.316" transform="translate(-19.171 -200.821)" fill="#fafafa"/>
            <path id="Path_831363" data-name="Path 831363" d="M43.837,412.954a77.512,77.512,0,0,1-.443-6.513,26.006,26.006,0,0,1,.443,6.513" transform="translate(-21.42 -200.741)" fill="#fafafa"/>
            <path id="Path_831364" data-name="Path 831364" d="M49.224,412.751a26.491,26.491,0,0,1-.787-6.72,29.452,29.452,0,0,1,.451,3.353,29.232,29.232,0,0,1,.336,3.366" transform="translate(-23.906 -200.539)" fill="#fafafa"/>
            <path id="Path_831365" data-name="Path 831365" d="M53.715,412.959a27.04,27.04,0,0,1-.221-6.79,94.965,94.965,0,0,1,.221,6.79" transform="translate(-26.36 -200.607)" fill="#fafafa"/>
            <path id="Path_831366" data-name="Path 831366" d="M60.9,413.027a37.819,37.819,0,0,1-.218-6.44,37.821,37.821,0,0,1,.218,6.44" transform="translate(-29.937 -200.814)" fill="#fafafa"/>
            <path id="Path_831367" data-name="Path 831367" d="M66.27,413.1a40.308,40.308,0,0,1,.054-6.651,40.307,40.307,0,0,1-.054,6.651" transform="translate(-32.675 -200.744)" fill="#fafafa"/>
            <path id="Path_831368" data-name="Path 831368" d="M71.233,412.128a44.083,44.083,0,0,1,.673-6.926,44.248,44.248,0,0,1-.673,6.926" transform="translate(-35.169 -200.129)" fill="#fafafa"/>
            <path id="Path_831369" data-name="Path 831369" d="M77.53,412.533a18.251,18.251,0,0,1,1.264-5.81,26.138,26.138,0,0,1-.6,2.912,26.248,26.248,0,0,1-.662,2.9" transform="translate(-38.282 -200.881)" fill="#fafafa"/>
            <path id="Path_831370" data-name="Path 831370" d="M22.571,360.189v4.953a1.95,1.95,0,0,0,1.95,1.95H58.41a1.95,1.95,0,0,0,1.95-1.95v-4.953Z" transform="translate(-11.148 -177.898)" fill="#cc8b64"/>
            <g id="Group_1078623" data-name="Group 1078623" transform="translate(14.362 189.195)" opacity="0.4">
              <g id="Group_1078622" data-name="Group 1078622">
                <g id="Group_1078621" data-name="Group 1078621" clip-path="url(#clip-path-6)">
                  <path id="Path_831371" data-name="Path 831371" d="M28.377,373.829l.281,1.577,31.269,2.228.793-3.805Z" transform="translate(-28.377 -373.829)"/>
                </g>
              </g>
            </g>
            <path id="Path_831372" data-name="Path 831372" d="M21.115,317.376S7.94,302.188,9.4,301.639s13.175,7.869,13.175,7.869S12.515,287,14.528,285.353,27.154,305.3,27.154,305.3s-1.647-31.474,0-31.84,7.685,31.474,7.685,31.474,8.967-29.1,11.528-29.1-2.745,28-2.745,28,10.613-17.933,12.26-15.554-7.5,21.775-7.5,21.775,13.358-11.162,13.907-9.7-14.456,17.018-14.456,17.018Z" transform="translate(-4.589 -135.06)" fill="#c1e29a"/>
            <path id="Path_831373" data-name="Path 831373" d="M29.019,315.042c.091-.041,2.428,4.969,5.219,11.189s4.981,11.3,4.89,11.338-2.428-4.968-5.22-11.19-4.981-11.3-4.889-11.337" transform="translate(-14.331 -155.599)" fill="#263238"/>
            <path id="Path_831374" data-name="Path 831374" d="M50.03,320.573c.1-.007.488,4.409.867,9.862s.606,9.881.507,9.888-.488-4.408-.867-9.863-.606-9.88-.507-9.887" transform="translate(-24.698 -158.331)" fill="#263238"/>
            <path id="Path_831375" data-name="Path 831375" d="M70.071,292.722a1.406,1.406,0,0,1-.077.357l-.289,1c-.276.917-.649,2.157-1.1,3.667-.929,3.1-2.178,7.382-3.45,12.146s-2.324,9.105-3.06,12.253l-.872,3.727-.247,1.012a1.4,1.4,0,0,1-.11.348,1.363,1.363,0,0,1,.039-.362l.181-1.026c.163-.89.422-2.173.76-3.755.674-3.164,1.688-7.518,2.96-12.29s2.563-9.05,3.556-12.129c.5-1.54.91-2.781,1.212-3.634l.354-.98a1.39,1.39,0,0,1,.147-.334" transform="translate(-30.058 -144.575)" fill="#263238"/>
            <path id="Path_831376" data-name="Path 831376" d="M80.1,324.777c.082.057-2.49,3.891-5.744,8.564s-5.959,8.415-6.041,8.358,2.49-3.891,5.744-8.565,5.958-8.414,6.04-8.357" transform="translate(-33.742 -160.407)" fill="#263238"/>
            <path id="Path_831377" data-name="Path 831377" d="M34.9,352.889a5.012,5.012,0,0,1-1.153-.823,32.567,32.567,0,0,1-4.758-4.88,4.992,4.992,0,0,1-.794-1.173c.084-.065,1.453,1.593,3.3,3.485s3.468,3.308,3.4,3.39" transform="translate(-13.922 -170.895)" fill="#263238"/>
            <path id="Path_831378" data-name="Path 831378" d="M57.2,347.679a27.765,27.765,0,0,1,.574,6.3,27.766,27.766,0,0,1-.574-6.3" transform="translate(-28.226 -171.719)" fill="#263238"/>
          </g>
        </g>
        <g id="Group_1078636" data-name="Group 1078636">
          <g id="Group_1078635" data-name="Group 1078635" clip-path="url(#clip-path-2)">
            <path id="Path_831379" data-name="Path 831379" d="M203,6.357a7.17,7.17,0,0,1,5.772-2.707,4.114,4.114,0,0,0,2.613-.331,5.791,5.791,0,0,0,1.11-1.558,3.633,3.633,0,0,1,5.188-.637,4.3,4.3,0,0,0,1.12.912c1.816.74,3.413-2.684,5.22-1.926a4.115,4.115,0,0,0-1.779,1.7,1.867,1.867,0,0,0,.429,2.263c1.751,1.265,4.1-2.164,6.017-1.159,1.031.542,1.322,2.179,2.475,2.343a3.943,3.943,0,0,0,1.323-.225,2.988,2.988,0,0,1,3.405,2.254c.253,1.269-.243,2.9.8,3.661a2.794,2.794,0,0,0,2.318.107,7.78,7.78,0,0,1-.516,3.476,4.681,4.681,0,0,1,2.163,6.122,9.989,9.989,0,0,1,2.951,2.495,3.48,3.48,0,0,1,.376,3.66,3.191,3.191,0,0,0-.422.773,1.756,1.756,0,0,0,.088.941,16.066,16.066,0,0,1,1.078,3.517c.08,1.228-.7,2.658-1.931,2.669-.287,0-.609-.063-.834.116a.813.813,0,0,0-.241.584,8.354,8.354,0,0,0,.426,2.606A3.531,3.531,0,0,1,242,40.6a1.511,1.511,0,0,1-2.241.49q.719,1.994,1.437,3.99a2.506,2.506,0,0,1,.011,2.4c-.7.851-2.153.371-2.828-.5s-.942-2.008-1.64-2.86a6.558,6.558,0,0,1-.848-1.046c-.164-.315-.246-.7-.541-.9-.592-.4-1.364.445-1.222,1.146a3.783,3.783,0,0,0,1.256,1.7,1.818,1.818,0,0,1,.633,1.909c-.147.312-.445.535-.584.851-.48,1.094,1.138,1.958,1.429,3.116a2.88,2.88,0,0,1-.905,2.38c-.688.828-2.1,1.58-2.667.666a9.936,9.936,0,0,1-.337-1.064,2.7,2.7,0,0,0-.937-.9A5.605,5.605,0,0,1,230.1,49.39c1.01,1.03,2.1,2.414,1.584,3.76a5.974,5.974,0,0,1-1.058,1.456c-.736.926-1.138,2.081-1.861,3.017a2.76,2.76,0,0,1-3.075,1.172,2.661,2.661,0,0,1-4.186,3.057,2.336,2.336,0,0,0-.784-.573,1.9,1.9,0,0,0-1.033.126,5.761,5.761,0,0,1-5.759-1.7l1.017-.471a13.413,13.413,0,0,1-6.107-1.18c-1.832-1.014-3.17-3.252-2.454-5.22.31-.853.973-1.761.556-2.567a2.247,2.247,0,0,0-1.572-.91l-7.621-1.891a6.936,6.936,0,0,1-3.422-1.558c-.887-.909-1.119-2.581-.134-3.382A6.8,6.8,0,0,0,191.372,40c-1.3-.619-2.757-.813-4.079-1.373a3.884,3.884,0,0,1-2.633-3.113c-.046-1.435,1.816-2.727,2.9-1.781-.4-2.131-4.244-1.9-4.776-4-.432-1.708,1.7-2.819,2.714-4.259-.29-.579-.943-.906-1.25-1.477-.646-1.2.531-2.568,1.7-3.267s2.6-1.432,2.771-2.782c.174-1.38-1.132-2.8-.526-4.051a1.539,1.539,0,0,1,1.967-.693c.748-2.571,5.589-1.152,6.73-3.575a.965.965,0,0,0,.1-.616,1.024,1.024,0,0,0-.284-.462,10.841,10.841,0,0,0-2.2-1.377,2.107,2.107,0,0,1-1.163-2.135c.232-.838,1.769-.958,1.834-.091a1.912,1.912,0,0,1,2.981.453,2.068,2.068,0,0,1,2.554-.481,6.031,6.031,0,0,1,2.04,1.923" transform="translate(-90.248 0)" fill="#263238"/>
            <path id="Path_831380" data-name="Path 831380" d="M236.142,55.231c-1.189-3.457-4.146-6.019-7.3-7.873a9.352,9.352,0,0,0-4.282-1.534,3.927,3.927,0,0,0-3.788,2.085l.51,2.513c.161,4.071,3.679,7.09,5.611,10.677.841,1.56,1.6,3.463,3.3,3.968a3.8,3.8,0,0,0,2.7-.349c3.289-1.6,4.434-6.03,3.245-9.486" transform="translate(-109.041 -22.63)" fill="#7816c2"/>
            <path id="Path_831381" data-name="Path 831381" d="M197.194,72.776a8.171,8.171,0,0,0-2.111-10.262c1.23-2.058.313-4.855-1.438-6.493s-4.128-2.393-6.419-3.1a11,11,0,0,0-13.774-6.252c-3.377-3.766-9.471-3.608-14.095-1.559a12.926,12.926,0,0,1-3.47,1.261,20.877,20.877,0,0,1-2.716-.011c-4.985,0-9.381,4.1-10.678,8.912a9.146,9.146,0,0,1-.755,2.261,12.37,12.37,0,0,1-2.16,2.258,7.892,7.892,0,0,0-2.218,6.184c.176,1.913,1.052,3.849.484,5.683a28.76,28.76,0,0,0-1.108,2.659c-.555,2.734,2.7,5.015,2.528,7.8-.035.568-.216,1.117-.3,1.68a4.871,4.871,0,0,0,.747,3.333,6.982,6.982,0,0,1,1.388,2.283,7.9,7.9,0,0,1-.13,2.031c-.113,1.664,4.219,7.437,5.736,8.129l41.856-5.245a7.882,7.882,0,0,0,5.141-7.539,2.881,2.881,0,0,1,.183-1.59,3.369,3.369,0,0,1,1.042-.895c2.5-1.807,2.326-5.547,1.633-8.551a3.736,3.736,0,0,1-.148-1.28,4.7,4.7,0,0,1,.776-1.7" transform="translate(-67.503 -21.572)" fill="#263238"/>
            <path id="Path_831382" data-name="Path 831382" d="M189.7,85.762c-.871-7.415-6.654-15.293-14.49-17.924-4.94-1.658-8.556-1.187-11.03-1.144a17.082,17.082,0,0,0-9.581,3.393c-2.232.851-9.637,9.718-8.947,18.167.765,9.386,2.07,20.816,4.181,27.6,4.245,13.633,15.2,13.854,15.2,13.854,0-.022,3.469,15.833,3.469,15.833l14.835,25.469,14.276-32.232Z" transform="translate(-71.915 -32.894)" fill="#cc675f"/>
            <path id="Path_831383" data-name="Path 831383" d="M188.553,151.544a2.97,2.97,0,0,0-1.187-1.734,3.038,3.038,0,0,0-3.688.12,4.068,4.068,0,0,0-1.2,3.941,3.694,3.694,0,0,0,2.772,1.292,4.4,4.4,0,0,0,.5-.028,3.317,3.317,0,0,0,2.149-1.083,2.957,2.957,0,0,0,.654-2.508" transform="translate(-90.075 -73.712)" fill="#9d4841"/>
            <path id="Path_831384" data-name="Path 831384" d="M161.833,126.866c-.254-.2-1.476.984-3.405,1.24-1.924.283-3.473-.518-3.65-.254-.089.119.2.51.872.875a4.966,4.966,0,0,0,2.962.492,4.769,4.769,0,0,0,2.671-1.279c.531-.535.675-.985.552-1.075" transform="translate(-76.437 -62.648)" fill="#263238"/>
            <path id="Path_831385" data-name="Path 831385" d="M175.065,130.092a12.905,12.905,0,0,0-3.21-.11c-.5.021-.978-.01-1.11-.333a2.523,2.523,0,0,1,.116-1.505q.435-1.886.91-3.956c1.245-5.625,2.069-10.222,1.843-10.269s-1.421,4.472-2.665,10.1q-.443,2.078-.845,3.969a2.87,2.87,0,0,0,.025,1.967,1.251,1.251,0,0,0,.914.6,3.384,3.384,0,0,0,.852-.006,12.675,12.675,0,0,0,3.172-.457" transform="translate(-83.93 -56.264)" fill="#263238"/>
            <path id="Path_831386" data-name="Path 831386" d="M183.988,183.772a35.872,35.872,0,0,0,17.965-7.7s-3.048,10.443-17.2,11.167Z" transform="translate(-90.872 -86.962)" fill="#9d4841"/>
            <path id="Path_831387" data-name="Path 831387" d="M162.325,116.6c-.3-.49-1.808-.244-3.54-.473-1.739-.173-3.151-.756-3.554-.347-.181.2-.013.672.567,1.179a5.532,5.532,0,0,0,5.716.661c.676-.361.942-.783.811-1.02" transform="translate(-76.635 -57.112)" fill="#263238"/>
            <path id="Path_831388" data-name="Path 831388" d="M192.75,122.675c.152-.287,1.745.32,3.618-.208,1.878-.5,2.984-1.85,3.252-1.677.129.073.023.545-.454,1.148a4.963,4.963,0,0,1-2.525,1.624,4.771,4.771,0,0,1-2.959-.117c-.7-.281-1.01-.638-.932-.769" transform="translate(-95.193 -59.651)" fill="#263238"/>
            <path id="Path_831389" data-name="Path 831389" d="M189.082,110.167c.2-.548,1.771-.646,3.469-1.259,1.717-.56,3.018-1.448,3.51-1.139.223.156.153.655-.326,1.281a5.881,5.881,0,0,1-5.623,1.932c-.757-.2-1.113-.555-1.03-.816" transform="translate(-93.382 -53.196)" fill="#263238"/>
            <path id="Path_831390" data-name="Path 831390" d="M231.947,126.921c-.148-1.04.7-3.664,1.7-3.974,2.679-.825,7.651-1.323,8.708,5.63,1.445,9.506-8.4,9-8.455,8.726-.045-.211-1.44-6.793-1.953-10.383" transform="translate(-114.551 -60.495)" fill="#cc675f"/>
            <path id="Path_831391" data-name="Path 831391" d="M239.6,136.493c.037-.037.183.091.482.177a1.676,1.676,0,0,0,1.242-.163c.948-.521,1.551-2.244,1.337-3.964a5.541,5.541,0,0,0-.823-2.3,1.933,1.933,0,0,0-1.439-1.081.853.853,0,0,0-.908.6c-.087.285,0,.466-.046.489-.023.028-.228-.128-.211-.531a1.068,1.068,0,0,1,.283-.653,1.267,1.267,0,0,1,.879-.381,2.353,2.353,0,0,1,1.954,1.211,5.688,5.688,0,0,1,.977,2.562c.231,1.925-.477,3.866-1.791,4.472a1.8,1.8,0,0,1-1.553-.021c-.33-.19-.412-.395-.382-.417" transform="translate(-118.158 -63.556)" fill="#9d4841"/>
            <path id="Path_831392" data-name="Path 831392" d="M190.245,78.848a29.821,29.821,0,0,0-5.972-12.26,21.8,21.8,0,0,0-4.042-4.1,29.061,29.061,0,0,0-5.789-3.1,26.512,26.512,0,0,0-8.16-2.535c-5.31-.469-10.376,2.168-14.845,5.074a22.58,22.58,0,0,0-4.728,3.795,20.462,20.462,0,0,0-3.533,6.317,25.486,25.486,0,0,0-2.036,10.239l.142,1.576c1.749-1.48,2.739-3.292,2.292-5.539,1.33.2,2.386-1.634,2.97-2.844s1.415-1.9,1.166-3.22a1.509,1.509,0,0,1-.017-.786c.14-.393.575-.577.951-.757a6.442,6.442,0,0,0,3.557-5.037,13.622,13.622,0,0,0,6.676.133,5.207,5.207,0,0,0,8.667-1.641A4.665,4.665,0,0,0,170.967,66a13.81,13.81,0,0,0,3.978-.356,5.514,5.514,0,0,0,4.486,5.661,1.342,1.342,0,0,1,.962.4,1.391,1.391,0,0,1,.006,1.082,4.34,4.34,0,0,0,3.668,5.053,3.236,3.236,0,0,0,1.015,4.977c.376.159.864.345.869.754a.913.913,0,0,1-.15.436,6.3,6.3,0,0,0-1.046,3.362,2.324,2.324,0,0,0,2.253,2.272A3.08,3.08,0,0,0,186.1,91.9c.105.829,1.064,1.55,1.792,1.141.31-.174,4.914-1.791,5.081-2.1,2.164-4.044-1.807-7.593-2.728-12.086" transform="translate(-69.7 -28.057)" fill="#263238"/>
            <path id="Path_831393" data-name="Path 831393" d="M136.8,74.183a3.675,3.675,0,0,1,.366-1.095c.156-.346.388-.755.59-1.266a4.467,4.467,0,0,0,.278-1.854,13.974,13.974,0,0,0-.38-2.348,10.564,10.564,0,0,1-.33-2.836,8.009,8.009,0,0,1,.821-3.178,7.838,7.838,0,0,1,.977-1.515,11.739,11.739,0,0,1,1.343-1.334,5.976,5.976,0,0,0,1.267-1.455,7.791,7.791,0,0,0,.645-1.921A12.9,12.9,0,0,1,147.442,48a11.461,11.461,0,0,1,2.168-1.189,10.344,10.344,0,0,1,2.461-.641,11.858,11.858,0,0,1,1.3-.082c.435.005.867.035,1.3.049a6.19,6.19,0,0,0,2.544-.361c.828-.29,1.62-.717,2.468-1.062a16.873,16.873,0,0,1,5.415-1.288,14.59,14.59,0,0,1,2.865.114A9.48,9.48,0,0,1,173.2,46.02l.42.418-.16-.038a11.156,11.156,0,0,1,13.956,6.34l-.089-.085a30.478,30.478,0,0,1,3.589,1.284,10.138,10.138,0,0,1,3.072,2.047,6.59,6.59,0,0,1,1.709,3.108,4.538,4.538,0,0,1-.449,3.347l-.031-.158a7.96,7.96,0,0,1,2.89,4.573,8.155,8.155,0,0,1-.314,4.871,7.9,7.9,0,0,1-.5,1.032,10.536,10.536,0,0,0-.534.943,2.054,2.054,0,0,0-.2.982,5.848,5.848,0,0,0,.168.984,15.793,15.793,0,0,1,.415,3.627,7.635,7.635,0,0,1-.544,2.883,4.725,4.725,0,0,1-1.26,1.756c-.445.394-.861.582-1.078.793a2.157,2.157,0,0,0-.305.337,1.115,1.115,0,0,1,.28-.364c.213-.224.628-.425,1.055-.82a4.7,4.7,0,0,0,1.209-1.743,7.576,7.576,0,0,0,.5-2.844,15.768,15.768,0,0,0-.44-3.588,5.977,5.977,0,0,1-.179-1.013,2.235,2.235,0,0,1,.214-1.065,10.432,10.432,0,0,1,.537-.964,7.69,7.69,0,0,0,.478-1.009,7.964,7.964,0,0,0,.282-4.749,7.742,7.742,0,0,0-2.82-4.431l-.087-.065.056-.093a4.3,4.3,0,0,0,.41-3.169,6.341,6.341,0,0,0-1.649-2.98,9.9,9.9,0,0,0-3-1.985,30.356,30.356,0,0,0-3.559-1.265l-.065-.02-.024-.065a10.882,10.882,0,0,0-13.591-6.164l-.088.034-.073-.072-.405-.4a9.2,9.2,0,0,0-5.086-2.4,14.352,14.352,0,0,0-2.8-.113,16.6,16.6,0,0,0-5.324,1.261c-.834.337-1.631.766-2.484,1.064a6.625,6.625,0,0,1-1.312.328,7.915,7.915,0,0,1-1.333.045c-.438-.016-.869-.046-1.294-.052a11.681,11.681,0,0,0-1.26.077,10.076,10.076,0,0,0-2.4.619,11.216,11.216,0,0,0-2.12,1.156,12.685,12.685,0,0,0-4.994,7.223,7.965,7.965,0,0,1-.675,1.971,6.163,6.163,0,0,1-1.317,1.5,11.577,11.577,0,0,0-1.33,1.306,7.7,7.7,0,0,0-.963,1.473,7.863,7.863,0,0,0-.824,3.1,10.491,10.491,0,0,0,.3,2.8,13.849,13.849,0,0,1,.357,2.373,4.537,4.537,0,0,1-.311,1.89c-.214.516-.453.92-.617,1.26a5.706,5.706,0,0,0-.332.79c-.06.184-.079.281-.087.28" transform="translate(-67.565 -21.437)" fill="#455a64"/>
            <path id="Path_831394" data-name="Path 831394" d="M186.985,45.951c-.012.023-.272-.108-.767-.269a6.47,6.47,0,0,0-2.162-.31,6.072,6.072,0,0,0-3.063.9,6.272,6.272,0,0,0-2.48,2.984,5.326,5.326,0,0,0-.32,1.144,1.2,1.2,0,0,0,.212.993l.278.291-.4-.054a3.976,3.976,0,0,0-2.893.77,3.837,3.837,0,0,0-1.363,1.992,4.2,4.2,0,0,0-.148,1.621c.041.383.1.588.08.594s-.03-.046-.065-.143a2.675,2.675,0,0,1-.112-.437,4.017,4.017,0,0,1,1.459-3.82,4.187,4.187,0,0,1,3.081-.855l-.121.237a1.47,1.47,0,0,1-.294-1.225,5.52,5.52,0,0,1,.336-1.213,6.435,6.435,0,0,1,2.609-3.105,6.13,6.13,0,0,1,3.2-.879,6,6,0,0,1,2.2.408,4.209,4.209,0,0,1,.552.258c.121.069.182.109.177.118" transform="translate(-85.802 -22.308)" fill="#455a64"/>
            <path id="Path_831395" data-name="Path 831395" d="M221.511,63.958a1.426,1.426,0,0,1-.284.388,6.217,6.217,0,0,1-.97.9,4.6,4.6,0,0,1-1.817.84,3.433,3.433,0,0,1-2.465-.378l.206-.062-.223.431c-.083.142-.18.279-.271.421a5.823,5.823,0,0,1-2.168,1.818,5.963,5.963,0,0,1-2.227.608,5.3,5.3,0,0,1-1.549-.128,1.9,1.9,0,0,1-.534-.195,8.313,8.313,0,0,0,2.065.119,6.093,6.093,0,0,0,2.125-.642,5.739,5.739,0,0,0,2.051-1.748c.086-.135.178-.264.257-.4l.213-.405.075-.143.131.081a3.235,3.235,0,0,0,2.266.371,4.629,4.629,0,0,0,1.755-.747c.9-.629,1.328-1.17,1.365-1.133" transform="translate(-103.327 -31.588)" fill="#455a64"/>
            <path id="Path_831396" data-name="Path 831396" d="M231.607,79.987c.01,0,.011.062,0,.179a1.634,1.634,0,0,1-.146.49,2.565,2.565,0,0,1-1.388,1.238,4.9,4.9,0,0,1-2.761.092,15.586,15.586,0,0,1-1.587-.379A2.632,2.632,0,0,1,224.24,80.6l-.081-.145.234.036a11.02,11.02,0,0,1-2.582,2.1,4.956,4.956,0,0,1-2.634.657,3.573,3.573,0,0,1-1.754-.514,2.2,2.2,0,0,1-.394-.3c-.081-.08-.12-.124-.113-.132s.192.142.563.339a3.722,3.722,0,0,0,1.7.408,4.882,4.882,0,0,0,2.5-.686,11.288,11.288,0,0,0,2.5-2.066l.135-.14.1.177.068.12a2.381,2.381,0,0,0,1.327.894c.518.167,1.053.277,1.55.386A4.829,4.829,0,0,0,230,81.7a2.552,2.552,0,0,0,1.362-1.1,4.2,4.2,0,0,0,.245-.618" transform="translate(-107.135 -39.506)" fill="#455a64"/>
            <path id="Path_831397" data-name="Path 831397" d="M248.393,9.952c0,.019-.163.03-.441.145a2.19,2.19,0,0,0-.963.837,3,3,0,0,0-.458,1.921,8.782,8.782,0,0,0,.726,2.545l.059.147-.16.018a5.473,5.473,0,0,0-3.148,1.476,4.252,4.252,0,0,0-1.328,3.59,3.943,3.943,0,0,0,1.837,2.973l.356.2-.407.055a4.965,4.965,0,0,0-3.382,2.1,4.757,4.757,0,0,0-.8,3.1,5.156,5.156,0,0,0,.62,2.057c.247.443.43.656.411.671s-.056-.044-.145-.145a3.473,3.473,0,0,1-.349-.478,4.949,4.949,0,0,1-.714-2.088,4.882,4.882,0,0,1,.776-3.247,5.176,5.176,0,0,1,3.545-2.244l-.051.26a4.2,4.2,0,0,1-1.986-3.182,4.32,4.32,0,0,1,.27-2.131,4.852,4.852,0,0,1,1.153-1.693,5.674,5.674,0,0,1,3.316-1.518l-.1.165a8.733,8.733,0,0,1-.7-2.621,3.1,3.1,0,0,1,.538-2.012,2.167,2.167,0,0,1,1.053-.827,1.387,1.387,0,0,1,.346-.076c.08-.006.121-.007.121,0" transform="translate(-118.575 -4.913)" fill="#455a64"/>
            <path id="Path_831398" data-name="Path 831398" d="M271.2,45.146c0,.007-.044.045-.142.114a5.047,5.047,0,0,1-.444.286,6.828,6.828,0,0,1-1.855.709,7.6,7.6,0,0,1-3.041.068,7.286,7.286,0,0,1-3.51-1.643l.214-.049a6.121,6.121,0,0,1-3.866,3.549,4.639,4.639,0,0,1-5.1-1.843l.245-.046a3.843,3.843,0,0,1-.915,1.779,5.128,5.128,0,0,1-1.434,1.107,7.059,7.059,0,0,1-2.854.718,13.9,13.9,0,0,1-1.913-.035,3.663,3.663,0,0,1-.678-.085,4.436,4.436,0,0,1,.682,0,17.81,17.81,0,0,0,1.9-.041,7.079,7.079,0,0,0,2.76-.754,4.165,4.165,0,0,0,2.191-2.738l.067-.336.179.291a4.389,4.389,0,0,0,4.8,1.706,5.888,5.888,0,0,0,3.692-3.376l.073-.171.141.122a7.124,7.124,0,0,0,3.373,1.622,7.635,7.635,0,0,0,2.965-.006,8.942,8.942,0,0,0,2.476-.946" transform="translate(-121.456 -21.906)" fill="#455a64"/>
            <path id="Path_831399" data-name="Path 831399" d="M264.938,69.98c.007,0,0,.076-.087.189a.984.984,0,0,1-.5.317,4.441,4.441,0,0,1-2.153-.049,5.22,5.22,0,0,1-2.71-1.677,5.346,5.346,0,0,1-1.242-3.685v-.03l.228.127a6.248,6.248,0,0,1-3.739,1.071,6.956,6.956,0,0,1-3.07-.835,7.747,7.747,0,0,1-1.734-1.258,2.845,2.845,0,0,1-.518-.589,11.547,11.547,0,0,0,2.345,1.664,6.964,6.964,0,0,0,2.982.75,6.087,6.087,0,0,0,3.567-1.042l.237-.164-.009.292v.028a5.061,5.061,0,0,0,3.716,5.149,4.651,4.651,0,0,0,2.07.138.985.985,0,0,0,.622-.4" transform="translate(-123.183 -31.392)" fill="#455a64"/>
            <path id="Path_831400" data-name="Path 831400" d="M215.19,16.51a8.171,8.171,0,0,0-.013,2.985,6.474,6.474,0,0,0,4.614,5.019,6.588,6.588,0,0,0,2.256.252l.178-.012-.028.175a8.427,8.427,0,0,0,.091,3.123,8.615,8.615,0,0,0,.887,2.338,6.183,6.183,0,0,0,.511.794.722.722,0,0,0,.559.315.48.48,0,0,0,.366-.171c.057-.077.062-.134.073-.132s.02.06-.031.159a.515.515,0,0,1-.4.241.818.818,0,0,1-.673-.319,5.783,5.783,0,0,1-.561-.8,8.339,8.339,0,0,1-.969-2.374,8.448,8.448,0,0,1-.131-3.222l.149.163a6.754,6.754,0,0,1-2.357-.255,6.828,6.828,0,0,1-3.382-2.232,6.732,6.732,0,0,1-1.353-3.027,6.487,6.487,0,0,1-.009-2.235,4.815,4.815,0,0,1,.144-.591c.042-.132.069-.2.078-.2" transform="translate(-106.127 -8.154)" fill="#455a64"/>
            <path id="Path_831401" data-name="Path 831401" d="M181.536,106.955a2.964,2.964,0,0,0,1.339,5.257" transform="translate(-89.102 -52.825)" fill="#cc675f"/>
            <path id="Path_831402" data-name="Path 831402" d="M182.751,112.211a1.7,1.7,0,0,1-.983-.256,2.946,2.946,0,0,1-1.1-4.306,1.693,1.693,0,0,1,.741-.694c.031.035-.282.27-.583.793a2.922,2.922,0,0,0,1.031,4.045c.514.315.9.372.891.418" transform="translate(-88.978 -52.824)" fill="#9d4841"/>
            <path id="Path_831403" data-name="Path 831403" d="M173.4,113.069c-.033-.026.178-.3.407-.8a4.554,4.554,0,0,0-.095-4.088c-.252-.485-.476-.751-.443-.778s.3.2.605.686a4.189,4.189,0,0,1,.1,4.265,1.862,1.862,0,0,1-.573.713" transform="translate(-85.577 -53.047)" fill="#9d4841"/>
            <path id="Path_831404" data-name="Path 831404" d="M189.834,154.4c-.056.18-.693.129-1.671.061a13.274,13.274,0,0,0-3.693.166,7.9,7.9,0,0,0-3.232,1.521c-.734.58-1.113,1.08-1.289.992-.151-.065-.058-.768.623-1.644a6.324,6.324,0,0,1,3.622-2.158,8.336,8.336,0,0,1,4.143.208c1.005.318,1.55.689,1.5.855" transform="translate(-88.846 -75.649)" fill="#263238"/>
            <path id="Path_831405" data-name="Path 831405" d="M168.436,207.212l10.547-2.107,28.447-2.663,10.716.678s-5.082,25.662-31.5,25.223c-14.172-.235-18.215-21.132-18.215-21.132" transform="translate(-83.191 -99.986)" fill="#cc675f"/>
            <path id="Path_831406" data-name="Path 831406" d="M288.286,210.09s7.1-.645,12.578,9.191,7.936,23.828,7.936,23.828l-25.071.136Z" transform="translate(-140.134 -103.759)" fill="#dfc8f1"/>
            <path id="Path_831407" data-name="Path 831407" d="M134.657,313.734h80.737L209.78,280.5l-.984-43.748,4.768-30.5-17.185-4.334s-4.032,19.859-26.285,18.879-20.307-14.7-20.307-14.7l-21.458,8.555s6.234,40.234,12.186,50.15,4.618,16.769,4.618,16.769-7.575,17.157-10.477,32.154" transform="translate(-63.382 -99.729)" fill="#dfc8f1"/>
            <g id="Group_1078628" data-name="Group 1078628" transform="translate(74.531 193.395)" opacity="0.3">
              <g id="Group_1078627" data-name="Group 1078627">
                <g id="Group_1078626" data-name="Group 1078626" clip-path="url(#clip-path-8)">
                  <path id="Path_831408" data-name="Path 831408" d="M147.266,389.474c22.983,12.474,51.558,14.672,76.383,6.454l-1.868-10.745-72.021-3.055Z" transform="translate(-147.266 -382.128)"/>
                </g>
              </g>
            </g>
            <path id="Path_831409" data-name="Path 831409" d="M121.665,226.985s-4.468,1.884-5.316,12.411-1.3,16.781-1.152,16.323,15.305-3.966,15.305-3.966Z" transform="translate(-56.881 -112.108)" fill="#dfc8f1"/>
            <g id="Group_1078631" data-name="Group 1078631" transform="translate(74.531 106.377)" opacity="0.3">
              <g id="Group_1078630" data-name="Group 1078630">
                <g id="Group_1078629" data-name="Group 1078629" clip-path="url(#clip-path-9)">
                  <path id="Path_831410" data-name="Path 831410" d="M157.978,286.873s2.379-6.814,2-11.429-5.623-55.476-5.623-55.476l4.784-9.778-8.111,4.389-3.764,12.07s5.808,56.746,6.514,57.881,4.2,2.344,4.2,2.344" transform="translate(-147.266 -210.189)"/>
                </g>
              </g>
            </g>
            <path id="Path_831411" data-name="Path 831411" d="M287.988,226.313a1.041,1.041,0,0,1,0,.264c-.015.2-.035.449-.058.751-.061.69-.142,1.623-.243,2.757-.2,2.327-.465,5.543-.678,9.1s-.335,6.784-.406,9.118c-.036,1.138-.065,2.073-.086,2.766-.012.3-.023.55-.032.752a1.022,1.022,0,0,1-.028.262.982.982,0,0,1-.025-.263c0-.2-.01-.451-.018-.753-.011-.654-.011-1.6,0-2.769.025-2.338.119-5.567.331-9.13s.5-6.779.755-9.1c.126-1.163.238-2.1.327-2.75.043-.3.077-.545.106-.745a.971.971,0,0,1,.056-.258" transform="translate(-141.455 -111.776)" fill="#263238"/>
            <path id="Path_831412" data-name="Path 831412" d="M211.187,319.083a5.464,5.464,0,0,1-.745-.447c-.471-.3-1.142-.752-1.962-1.322-1.641-1.14-3.863-2.781-6.225-4.711s-4.411-3.785-5.854-5.167c-.722-.69-1.3-1.259-1.685-1.661a5.423,5.423,0,0,1-.586-.641,5.457,5.457,0,0,1,.657.568l1.741,1.6c1.473,1.345,3.538,3.171,5.894,5.1s4.556,3.586,6.166,4.763l1.912,1.389a5.512,5.512,0,0,1,.687.531" transform="translate(-95.881 -150.706)" fill="#263238"/>
            <path id="Path_831413" data-name="Path 831413" d="M297.189,106.859l-10.767,12.8-4.375-6.315-11.489,18.411,10.231-11.272,4.636,6.76L300.056,111.2Z" transform="translate(-133.628 -52.778)" fill="#ffae7e"/>
            <path id="Path_831414" data-name="Path 831414" d="M299.728,163.7l-13.035,1.66.837-5.976-16.438,4.513L283,162.831l-.923,6.373,16.991-1.472Z" transform="translate(-133.893 -78.717)" fill="#ffae7e"/>
            <path id="Path_831415" data-name="Path 831415" d="M55.281,68.693,66.048,81.5l4.375-6.315L81.912,93.591,71.682,82.32l-4.636,6.76L52.414,73.039Z" transform="translate(-25.887 -33.927)" fill="#ffae7e"/>
            <path id="Path_831416" data-name="Path 831416" d="M53.948,124.02l12.788,3.02-.2-6.031L82.4,127.224l-11.732-2.307.248,6.434L54.178,128.1Z" transform="translate(-26.645 -59.766)" fill="#ffae7e"/>
            <path id="Path_831417" data-name="Path 831417" d="M99.088,42.214l3.289,11.032,4.492-2.788,2.208,14.771-3.37-9.919-4.779,3L96.087,44.172Z" transform="translate(-47.458 -20.85)" fill="#ffae7e"/>
            <path id="Path_831418" data-name="Path 831418" d="M150.869,160.418a17.724,17.724,0,0,1-3.82-3.644c-3.1,4.93-3.753,5.737-3.753,5.737l-.63-1.972V151.1s.28-10.169.159-12.53a3.788,3.788,0,0,0-3.509-3.844c-.572.1-2.078,13.415-3.345,16.514s-3.1,7.466-3.1,9.861,1.69,16.2,1.69,16.2l11.551,2.958s3.8-2.254,3.663-10.987a27.219,27.219,0,0,1,1.093-8.855" transform="translate(-65.626 -66.537)" fill="#cc675f"/>
            <g id="Group_1078634" data-name="Group 1078634" transform="translate(73.62 93.491)" opacity="0.3">
              <g id="Group_1078633" data-name="Group 1078633">
                <g id="Group_1078632" data-name="Group 1078632" clip-path="url(#clip-path-10)">
                  <path id="Path_831419" data-name="Path 831419" d="M151.525,199.6a14.822,14.822,0,0,0-6.059-14.873" transform="translate(-145.466 -184.728)"/>
                </g>
              </g>
            </g>
            <path id="Path_831420" data-name="Path 831420" d="M143.711,163.368a3.225,3.225,0,0,0,.832-1.036,2.973,2.973,0,0,0,.281-1.512,5.8,5.8,0,0,0-.124-.97,1.925,1.925,0,0,0-.43-.932l-.051-.048.01-.051,1.5-7.861,0,.014c.076-.851.231-1.719.345-2.608a7.655,7.655,0,0,0-.189-3.846,3.306,3.306,0,0,0-1.007-1.434,5.106,5.106,0,0,0-1.47-.792l.153-.087c-.474,2.372-.872,4.364-1.158,5.8-.143.676-.258,1.22-.344,1.627a3.566,3.566,0,0,1-.146.572,3.761,3.761,0,0,1,.075-.586c.071-.409.164-.958.28-1.639l1.064-5.819.024-.134.129.047a5.281,5.281,0,0,1,1.547.819,3.545,3.545,0,0,1,1.09,1.532,5.224,5.224,0,0,1,.361,1.94,14.863,14.863,0,0,1-.148,2.032c-.115.895-.27,1.765-.348,2.6V151l0,.006c-.6,3.007-1.142,5.718-1.567,7.848l-.041-.1a1.965,1.965,0,0,1,.493,1.056,5.794,5.794,0,0,1,.107,1,3.014,3.014,0,0,1-.34,1.568,2.7,2.7,0,0,1-.633.792.933.933,0,0,1-.294.2" transform="translate(-70.09 -70.147)" fill="#9d4841"/>
            <path id="Path_831421" data-name="Path 831421" d="M122.662,218.862S110.739,267.6,110.739,268.03s-4.618,14.144.866,20.783c0,0,1.01,11.979,13.134,9.093s11.835-12.557,11.979-14.866-2.97-42.288-2.97-42.288l.466-18.932Z" transform="translate(-53.796 -108.096)" fill="#cc675f"/>
            <path id="Path_831422" data-name="Path 831422" d="M140.394,357.077c.878.248,11.69,3.9,11.69,3.9l-6.495,14.144a22.468,22.468,0,0,1-6.206-.866c-4.041-1.01-11.835-5.051-11.835-5.051l-2.02.433s3.864,3.878,1.065,6.787l-5.872-4.775s-1.533-2.963.477-5.027c1.2-1.23,6.495-5.356,6.495-5.356Z" transform="translate(-59.348 -176.361)" fill="#cc675f"/>
            <path id="Path_831423" data-name="Path 831423" d="M118.886,370.692c-.182-.2-.972,1.474-1.285,2.478-.462,1.477.82,3.78,1.285,4.241s10.887,7.241,10.887,7.241,1.971-2.73-.244-5.13l-2.971-2.7.5-1.164-2.076-4.991Z" transform="translate(-58.034 -183.073)" fill="#cc675f"/>
            <path id="Path_831424" data-name="Path 831424" d="M176.9,320.6l53.575-2.645-1.3-42.618h22.024s1.02,20.283,1.466,25.942.6,20.1,0,25.759-3.51,12.656-14.471,14.3c-7.776,1.167-67.784-6.593-67.784-6.593Z" transform="translate(-84.163 -135.991)" fill="#cc675f"/>
            <path id="Path_831425" data-name="Path 831425" d="M141.546,350.092a1.463,1.463,0,0,1-.052.32c-.045.208-.106.516-.2.908a20.573,20.573,0,0,1-1.175,3.217,20,20,0,0,1-2.73,4.283,17.169,17.169,0,0,1-2.105,2.148,14.065,14.065,0,0,1-2.658,1.841,10.511,10.511,0,0,1-6.077,1.134,13.5,13.5,0,0,1-4.89-1.356,8.456,8.456,0,0,1-2.726-2.062,4.042,4.042,0,0,1-.539-.761,1.51,1.51,0,0,1-.153-.286,1.515,1.515,0,0,1,.2.258,4.759,4.759,0,0,0,.571.722,8.768,8.768,0,0,0,2.731,1.962,13.615,13.615,0,0,0,4.828,1.282,10.379,10.379,0,0,0,5.934-1.124,14.03,14.03,0,0,0,2.613-1.8,17.2,17.2,0,0,0,2.087-2.108,20.528,20.528,0,0,0,2.749-4.207,23.326,23.326,0,0,0,1.244-3.164c.1-.366.186-.661.251-.892a1.481,1.481,0,0,1,.1-.308" transform="translate(-58.397 -172.911)" fill="#9d4841"/>
            <path id="Path_831426" data-name="Path 831426" d="M145.926,386.309a.881.881,0,0,1-.248-.012c-.162-.018-.4-.044-.709-.09a19.759,19.759,0,0,1-2.537-.671A57.422,57.422,0,0,1,134.5,382.1c-.711-.364-1.4-.728-2.062-1.094l.09.013-2.022.427.032-.228a4.98,4.98,0,0,1,1.1,1.3c.289.446.535.888.754,1.31a3.253,3.253,0,0,1,.331,2.45,3.862,3.862,0,0,1-.762,1.435,1.688,1.688,0,0,1-.417.4c-.01-.011.134-.153.354-.453a4.07,4.07,0,0,0,.679-1.424,3.121,3.121,0,0,0-.368-2.315c-.224-.415-.474-.847-.763-1.281a5.081,5.081,0,0,0-1.025-1.2l-.229-.172.262-.057,2.019-.439.047-.01.043.024c.658.36,1.348.723,2.056,1.085a66.186,66.186,0,0,0,7.869,3.49,24.669,24.669,0,0,0,2.5.746,7.249,7.249,0,0,1,.937.2" transform="translate(-64.304 -188.058)" fill="#9d4841"/>
            <path id="Path_831427" data-name="Path 831427" d="M120.474,372.7a8.424,8.424,0,0,1-.367.922,6.966,6.966,0,0,0-.095,4.633,8.443,8.443,0,0,1,.329.936,2.461,2.461,0,0,1-.5-.871,6.088,6.088,0,0,1,.1-4.768,2.472,2.472,0,0,1,.54-.85" transform="translate(-58.971 -184.076)" fill="#9d4841"/>
            <path id="Path_831428" data-name="Path 831428" d="M300.2,371c-.061.01-.135-.968-.641-2.442q-.1-.276-.209-.573c-.075-.2-.178-.394-.271-.6a13.248,13.248,0,0,0-.679-1.29,13.832,13.832,0,0,0-4.674-4.683,13.234,13.234,0,0,0-1.289-.681c-.209-.093-.4-.2-.6-.272l-.573-.21c-1.472-.509-2.45-.585-2.44-.646a3.409,3.409,0,0,1,.681.056,5.035,5.035,0,0,1,.79.139,8.4,8.4,0,0,1,1.028.275l.588.2c.2.071.4.172.619.262a12.648,12.648,0,0,1,1.322.673,13.4,13.4,0,0,1,4.758,4.767,12.563,12.563,0,0,1,.67,1.323c.09.215.19.416.261.619l.2.589a8.443,8.443,0,0,1,.273,1.029,5.071,5.071,0,0,1,.137.79,3.365,3.365,0,0,1,.054.681" transform="translate(-142.651 -177.601)" fill="#9d4841"/>
            <path id="Path_831429" data-name="Path 831429" d="M147.8,131.751a2.213,2.213,0,0,1,.092.388l.213,1.12.732,4.128c.3,1.752.664,3.824,1.063,6.123a35.938,35.938,0,0,0,2.19,7.247,18.186,18.186,0,0,0,4.157,6.253,20.858,20.858,0,0,0,5.043,3.539,15.666,15.666,0,0,0,2.2.884,9.4,9.4,0,0,0,1.751.365,10.025,10.025,0,0,0,1.527.009,4.627,4.627,0,0,1-1.536.094,9,9,0,0,1-1.783-.326,15.173,15.173,0,0,1-2.241-.857,20.545,20.545,0,0,1-5.129-3.531,18.192,18.192,0,0,1-4.232-6.325,35.218,35.218,0,0,1-2.186-7.306c-.4-2.31-.723-4.389-1.008-6.137-.271-1.728-.492-3.136-.65-4.141q-.1-.706-.163-1.129a2.256,2.256,0,0,1-.039-.4" transform="translate(-72.999 -65.072)" fill="#9d4841"/>
          </g>
        </g>
        <g id="Group_1078638" data-name="Group 1078638">
          <g id="Group_1078637" data-name="Group 1078637" clip-path="url(#clip-path-2)">
            <path id="Path_831430" data-name="Path 831430" d="M337.114,324.384l-10.125,49.7H239.112a1.755,1.755,0,1,1,0-3.51H256.8l9.387-46.225a1.919,1.919,0,0,1,1.86-1.537l67.163-.733a1.919,1.919,0,0,1,1.9,2.3" transform="translate(-117.231 -159.076)" fill="#e0e0e0"/>
            <path id="Path_831431" data-name="Path 831431" d="M337,324.359s.011-.05.027-.15a1.706,1.706,0,0,0,.009-.451,1.931,1.931,0,0,0-.929-1.453,2,2,0,0,0-.581-.23,3.087,3.087,0,0,0-.691-.043l-1.581.012-3.954.033-25.4.24-17.7.179-9.917.1-5.2.054-2.659.028c-.226.006-.439,0-.68.017A2.023,2.023,0,0,0,266.1,323.9a3.181,3.181,0,0,0-.184.676l-.136.669-.274,1.343-.552,2.714-1.125,5.529L261.5,346.278c-1.584,7.792-3.231,15.9-4.929,24.25l.118-.1h-17.4a3.217,3.217,0,0,0-.684.042,1.878,1.878,0,0,0-.5,3.486,1.9,1.9,0,0,0,.826.223l.811,0h9.589l12.495,0,23.79-.006,41.26-.021h.076l.015-.074,7.356-36.317,2-9.93.514-2.59c.114-.584.167-.885.167-.885s-.07.3-.193.88-.3,1.452-.54,2.585c-.47,2.275-1.159,5.621-2.046,9.92-1.764,8.608-4.308,21.03-7.437,36.3l.091-.074-41.26-.021-23.79-.006H239.739l-.8,0a1.665,1.665,0,0,1-.719-.194,1.634,1.634,0,0,1,.438-3.035,3.029,3.029,0,0,1,.634-.036h17.5l.02-.1c1.694-8.352,3.338-16.459,4.919-24.252q1.185-5.845,2.32-11.445l1.121-5.53.55-2.714.272-1.344.135-.669a3,3,0,0,1,.17-.634,1.82,1.82,0,0,1,.863-.906,1.8,1.8,0,0,1,.607-.176c.205-.018.441-.011.66-.016l2.659-.031,5.2-.059,9.917-.115,17.7-.208,25.395-.313,3.954-.054,1.581-.022a3.034,3.034,0,0,1,.681.036,1.948,1.948,0,0,1,.568.22,1.918,1.918,0,0,1,.93,1.417,2.534,2.534,0,0,1-.014.6" transform="translate(-117.114 -159.051)" fill="#263238"/>
            <path id="Path_831432" data-name="Path 831432" d="M354.454,368.743a2.9,2.9,0,1,0,2.9-2.9,2.9,2.9,0,0,0-2.9,2.9" transform="translate(-175.065 -180.689)" fill="#fff"/>
            <path id="Path_831433" data-name="Path 831433" d="M358.415,327.411s-.1-.008-.3-.01l-.888-.005-3.417,0-12.565.061-41.453.292-6,.048-1.473.012a3.849,3.849,0,0,0-.752.046,2.1,2.1,0,0,0-1.6,1.5c-.11.486-.192.946-.288,1.417-.743,3.744-1.46,7.356-2.142,10.8-1.36,6.88-2.585,13.076-3.614,18.283s-1.844,9.411-2.415,12.33c-.279,1.451-.5,2.58-.645,3.355-.07.378-.123.669-.161.874s-.047.3-.047.3.028-.1.071-.294.106-.493.185-.869c.159-.774.392-1.9.69-3.346l2.491-12.315c1.044-5.2,2.286-11.4,3.665-18.273l2.156-10.794c.095-.464.183-.947.285-1.4a1.861,1.861,0,0,1,1.421-1.326,3.665,3.665,0,0,1,.706-.04l1.473-.011,6-.047,41.453-.363,12.564-.138,3.416-.05.888-.019c.2-.006.3-.015.3-.015" transform="translate(-138.613 -161.701)" fill="#263238"/>
          </g>
        </g>
      </g>
    </g>
  </g>
</svg>
