<svg xmlns="http://www.w3.org/2000/svg" xmlns:xlink="http://www.w3.org/1999/xlink" width="400" height="448" viewBox="0 0 400 448">
  <defs>
    <clipPath id="clip-path">
      <rect id="Rectangle_381509" data-name="Rectangle 381509" width="400" height="448" transform="translate(1020 1348)" fill="#fff" stroke="#707070" stroke-width="1"/>
    </clipPath>
    <clipPath id="clip-path-2">
      <rect id="Rectangle_381508" data-name="Rectangle 381508" width="400" height="402.432" fill="none"/>
    </clipPath>
    <clipPath id="clip-path-5">
      <rect id="Rectangle_381486" data-name="Rectangle 381486" width="10.592" height="10.417" fill="none"/>
    </clipPath>
    <clipPath id="clip-path-7">
      <rect id="Rectangle_381495" data-name="Rectangle 381495" width="285.901" height="18.448" fill="#c1e29a"/>
    </clipPath>
    <clipPath id="clip-path-10">
      <rect id="Rectangle_381499" data-name="Rectangle 381499" width="35.43" height="11.779" fill="none"/>
    </clipPath>
    <clipPath id="clip-path-11">
      <rect id="Rectangle_381500" data-name="Rectangle 381500" width="36.442" height="3.262" fill="none"/>
    </clipPath>
  </defs>
  <g id="Mask_Group_484" data-name="Mask Group 484" transform="translate(-1020 -1348)" clip-path="url(#clip-path)">
    <g id="Group_1079075" data-name="Group 1079075" transform="translate(1020 1385.084)">
      <g id="Group_1079074" data-name="Group 1079074" clip-path="url(#clip-path-2)">
        <g id="Group_1079052" data-name="Group 1079052">
          <g id="Group_1079051" data-name="Group 1079051" clip-path="url(#clip-path-2)">
            <path id="Path_832220" data-name="Path 832220" d="M303.666,459.632c0,.126-67.984.228-151.826.228-83.871,0-151.841-.1-151.841-.228s67.969-.228,151.841-.228c83.842,0,151.826.1,151.826.228" transform="translate(0 -57.427)" fill="#263238"/>
          </g>
        </g>
        <path id="Path_832221" data-name="Path 832221" d="M31.666,39.869V402.281h285.9V379.252L37.542.612Z" transform="translate(-4.192 -0.076)" fill="#9ab47b"/>
        <g id="Group_1079063" data-name="Group 1079063">
          <g id="Group_1079062" data-name="Group 1079062" clip-path="url(#clip-path-2)">
            <path id="Path_832222" data-name="Path 832222" d="M312.821,383.833H38.439V.612H312.821a12.215,12.215,0,0,1,12.163,12.266V371.566a12.215,12.215,0,0,1-12.163,12.267" transform="translate(-5.089 -0.077)" fill="#9ab47b"/>
            <path id="Path_832223" data-name="Path 832223" d="M313.478,384.292H37.9V0h275.58c6.563,0,11.9,6.093,11.9,13.583V370.708c0,7.49-5.339,13.583-11.9,13.583m-274.642-1.07H313.478c6.046,0,10.967-5.614,10.967-12.513V13.584c0-6.9-4.92-12.514-10.967-12.514H38.836Z" transform="translate(-5.017 0)" fill="#263238"/>
            <path id="Path_832224" data-name="Path 832224" d="M295.663,13.137l15.875,30.208V374.03L64.19,371.218,50.647,355.235Z" transform="translate(-6.705 -1.642)" fill="#e0e0e0"/>
            <rect id="Rectangle_381485" data-name="Rectangle 381485" width="245.016" height="343.55" transform="translate(43.942 10.042)" fill="#fff"/>
            <path id="Path_832225" data-name="Path 832225" d="M295.626,354.987c0-2.173-.088-139.223-.218-343.55l.218.248-244.99.031H50.61l.244-.279c-.015,127.093-.029,245.287-.04,343.55l-.2-.233,245.016.233-245.016.232h-.2v-.233c-.011-98.263-.025-216.457-.04-343.55v-.278h.27l244.99.03h.218v.248c-.129,204.327-.216,341.378-.218,343.55" transform="translate(-6.668 -1.395)" fill="#263238"/>
            <path id="Path_832226" data-name="Path 832226" d="M83.613,142.7c0,3.861-2.489,6.991-5.56,6.991S72.5,146.559,72.5,142.7s2.488-6.991,5.559-6.991,5.56,3.13,5.56,6.991" transform="translate(-9.598 -16.964)" fill="#263238"/>
            <g id="Group_1079055" data-name="Group 1079055" transform="translate(33.35 164.638)" opacity="0.3">
              <g id="Group_1079054" data-name="Group 1079054">
                <g id="Group_1079053" data-name="Group 1079053" clip-path="url(#clip-path-5)">
                  <path id="Path_832227" data-name="Path 832227" d="M38.439,198.575H49.031L49,188.158H38.439Z" transform="translate(-38.439 -188.158)"/>
                </g>
              </g>
            </g>
            <path id="Path_832228" data-name="Path 832228" d="M39.205,104.133c-18.427,0-33.419,16.652-33.419,37.12s15.173,37.121,33.6,37.121h5.322l-.077-8.8-5.245.243c-14.675,0-26.794-12.813-26.794-28.562s11.939-28.561,26.614-28.561S65.82,125.5,65.82,141.253c0,2.363,1.524,4.28,3.4,4.28s3.4-1.916,3.4-4.28c0-20.468-14.992-37.12-33.42-37.12" transform="translate(-0.766 -13.017)" fill="#e0e0e0"/>
            <path id="Path_832229" data-name="Path 832229" d="M39.182,104.133s.268,0,.791.016l2.325.1c1.018.1,2.271.334,3.749.591a33,33,0,0,1,16.908,10.133l1.445,1.757c.241.3.5.591.733.908l.672.994c.442.675.933,1.328,1.354,2.053l1.234,2.243a41.282,41.282,0,0,1,3.63,10.521A42.462,42.462,0,0,1,72.7,139.5a10.163,10.163,0,0,1-.109,3.19,4.344,4.344,0,0,1-1.792,2.576,2.967,2.967,0,0,1-2.932.159,4.153,4.153,0,0,1-2.018-2.529,5.914,5.914,0,0,1-.259-1.735q-.04-.841-.082-1.691a27.48,27.48,0,0,0-.382-3.4,29.553,29.553,0,0,0-5.486-12.682,28.456,28.456,0,0,0-7.749-6.933c-.5-.294-1.021-.537-1.533-.81a11.354,11.354,0,0,0-1.573-.731l-1.618-.635c-.548-.185-1.112-.316-1.669-.478a25.848,25.848,0,0,0-3.421-.672,25.1,25.1,0,0,0-7.044.209,25.474,25.474,0,0,0-3.509.841c-.578.185-1.14.438-1.714.654l-.858.338-.829.425a25.524,25.524,0,0,0-6.252,4.358,27.151,27.151,0,0,0-5.01,6.291,27.822,27.822,0,0,0-3.163,7.836,33.667,33.667,0,0,0-.755,4.291,34.241,34.241,0,0,0-.062,4.406A28.7,28.7,0,0,0,27.213,166.35a24.115,24.115,0,0,0,8.593,2.9,14.1,14.1,0,0,0,2.2.215,15.3,15.3,0,0,0,2.2.035l4.385-.2.245-.011,0,.278q.036,4.478.074,8.8l0,.271-.236,0c-1.976-.016-3.93.028-5.877-.035l-2.913-.169-2.857-.487a32.6,32.6,0,0,1-10.533-4.376c-.782-.549-1.6-1.024-2.337-1.628l-2.193-1.814-2.014-2.011a9.59,9.59,0,0,1-.947-1.055l-.9-1.1A37.949,37.949,0,0,1,8.466,156.3c-.387-.838-.613-1.749-.922-2.611l-.433-1.3L6.8,151.05c-.193-.891-.445-1.76-.583-2.649s-.246-1.777-.367-2.656a40.854,40.854,0,0,1,.185-10.258,38.12,38.12,0,0,1,.943-4.742,21.713,21.713,0,0,1,.682-2.227c.256-.721.448-1.466.75-2.146a39.056,39.056,0,0,1,1.84-3.942l1.006-1.828c.35-.587.748-1.125,1.111-1.679a34.878,34.878,0,0,1,9.758-9.684c.413-.269.807-.558,1.214-.8l1.223-.65a19.111,19.111,0,0,1,2.329-1.142l2.188-.88c.705-.236,1.392-.4,2.032-.59a22.18,22.18,0,0,1,3.444-.719c.5-.073.961-.175,1.386-.2l1.155-.053,1.561-.066c.351-.011.529-.006.529-.006s-.179.025-.528.053l-1.556.11-1.15.076c-.423.036-.881.146-1.379.226a22.7,22.7,0,0,0-3.424.758c-.635.194-1.316.366-2.016.607l-2.171.9a19.145,19.145,0,0,0-2.308,1.153l-1.211.655c-.4.241-.793.53-1.2.8a34.826,34.826,0,0,0-9.64,9.662c-.359.551-.751,1.086-1.1,1.669l-.99,1.815A38.87,38.87,0,0,0,8.7,126.525c-.3.674-.485,1.411-.737,2.126a21.565,21.565,0,0,0-.669,2.206,37.945,37.945,0,0,0-.919,4.694,40.5,40.5,0,0,0-.158,10.141q.182,1.3.369,2.622c.137.878.39,1.735.581,2.614l.314,1.317.43,1.285c.309.85.531,1.749.915,2.576a37.557,37.557,0,0,0,5.593,9.538l.893,1.08a9.272,9.272,0,0,0,.937,1.04l1.991,1.982,2.168,1.787c.729.595,1.538,1.061,2.31,1.6a32.2,32.2,0,0,0,10.4,4.3l2.821.476,2.874.164c1.931.06,3.9.015,5.869.027l-.233.27q-.039-4.33-.081-8.8l.246.267-4.393.206a15.5,15.5,0,0,1-2.232-.034,14.267,14.267,0,0,1-2.246-.217A24.537,24.537,0,0,1,27,166.848a29.256,29.256,0,0,1-14.6-24.032,27.982,27.982,0,0,1,.836-8.879,28.372,28.372,0,0,1,3.23-7.993,27.7,27.7,0,0,1,5.107-6.408,26,26,0,0,1,6.366-4.43l.844-.432.873-.343c.584-.22,1.156-.476,1.745-.663a25.949,25.949,0,0,1,3.569-.852,25.494,25.494,0,0,1,7.16-.2,26.236,26.236,0,0,1,3.476.688c.567.165,1.14.3,1.7.488l1.644.648a11.639,11.639,0,0,1,1.6.745c.52.278,1.051.527,1.556.827a28.837,28.837,0,0,1,7.868,7.063,30.035,30.035,0,0,1,5.56,12.913,27.943,27.943,0,0,1,.382,3.459q.04.864.079,1.719a5.438,5.438,0,0,0,.232,1.586,3.736,3.736,0,0,0,1.8,2.278,2.626,2.626,0,0,0,2.6-.135,3.926,3.926,0,0,0,1.621-2.323,9.847,9.847,0,0,0,.1-3.046,42.127,42.127,0,0,0-.656-5.988,40.984,40.984,0,0,0-3.561-10.426q-.617-1.13-1.215-2.229c-.415-.719-.9-1.368-1.335-2.04q-.333-.5-.663-.989c-.23-.316-.485-.6-.723-.9l-1.426-1.75a33.944,33.944,0,0,0-11.818-8.531,34.516,34.516,0,0,0-4.929-1.662c-1.469-.272-2.715-.521-3.728-.641l-2.317-.158c-.522-.039-.79-.073-.79-.073" transform="translate(-0.743 -13.017)" fill="#263238"/>
            <path id="Path_832230" data-name="Path 832230" d="M83.613,258.059c0,3.861-2.489,6.991-5.56,6.991s-5.559-3.13-5.559-6.991,2.488-6.991,5.559-6.991,5.56,3.13,5.56,6.991" transform="translate(-9.598 -31.384)" fill="#263238"/>
            <rect id="Rectangle_381487" data-name="Rectangle 381487" width="188.74" height="9.016" transform="translate(82.401 96.695)" fill="#ffae7e"/>
            <rect id="Rectangle_381488" data-name="Rectangle 381488" width="110.008" height="9.016" transform="translate(82.401 85.643)" fill="#ffae7e"/>
            <rect id="Rectangle_381489" data-name="Rectangle 381489" width="110.008" height="9.016" transform="translate(82.401 290.533)" fill="#ffae7e"/>
            <rect id="Rectangle_381490" data-name="Rectangle 381490" width="188.977" height="13.15" transform="translate(85 66.236)" fill="#ffe3d2"/>
            <rect id="Rectangle_381491" data-name="Rectangle 381491" width="188.977" height="13.15" transform="translate(81.184 186.773)" fill="#ffe3d2"/>
            <rect id="Rectangle_381492" data-name="Rectangle 381492" width="75.368" height="13.15" transform="translate(83.218 122.003)" fill="#ffe3d2"/>
            <rect id="Rectangle_381493" data-name="Rectangle 381493" width="94.228" height="13.15" transform="translate(177.714 122.003)" fill="#ffe3d2"/>
            <path id="Path_832231" data-name="Path 832231" d="M205.24,103.967c0,.154-24.252.278-54.162.278s-54.165-.124-54.165-.278,24.246-.278,54.165-.278,54.162.125,54.162.278" transform="translate(-12.831 -12.961)" fill="#263238"/>
            <path id="Path_832232" data-name="Path 832232" d="M283.94,115.792c0,.154-41.924.278-93.627.278-51.721,0-93.635-.124-93.635-.278s41.915-.278,93.635-.278c51.7,0,93.627.125,93.627.278" transform="translate(-12.8 -14.44)" fill="#263238"/>
            <path id="Path_832233" data-name="Path 832233" d="M283.94,126.994c0,.154-41.924.278-93.627.278-51.721,0-93.635-.124-93.635-.278s41.915-.278,93.635-.278c51.7,0,93.627.125,93.627.278" transform="translate(-12.8 -15.84)" fill="#263238"/>
            <path id="Path_832234" data-name="Path 832234" d="M170.538,163.592c0,.154-16.859.278-37.651.278s-37.656-.124-37.656-.278,16.856-.278,37.656-.278,37.651.125,37.651.278" transform="translate(-12.608 -20.415)" fill="#263238"/>
            <path id="Path_832235" data-name="Path 832235" d="M170.729,175.135c0,.154-16.579.278-37.027.278s-37.029-.124-37.029-.278,16.576-.278,37.029-.278,37.027.125,37.027.278" transform="translate(-12.799 -21.858)" fill="#263238"/>
            <path id="Path_832236" data-name="Path 832236" d="M170.277,186.868c0,.153-16.721.278-37.344.278s-37.348-.125-37.348-.278,16.718-.278,37.348-.278,37.344.125,37.344.278" transform="translate(-12.655 -23.324)" fill="#263238"/>
            <path id="Path_832237" data-name="Path 832237" d="M170.277,198.258c0,.153-16.721.278-37.344.278s-37.348-.125-37.348-.278,16.718-.278,37.348-.278,37.344.125,37.344.278" transform="translate(-12.655 -24.748)" fill="#263238"/>
            <path id="Path_832238" data-name="Path 832238" d="M297.812,166.3c0,.153-17.462.278-39,.278s-39-.125-39-.278,17.459-.278,39-.278,39,.125,39,.278" transform="translate(-29.102 -20.753)" fill="#263238"/>
            <path id="Path_832239" data-name="Path 832239" d="M212.048,169.059a18.231,18.231,0,0,1-.1-1.849c-.037-1.135-.083-2.713-.1-4.592l.2.241-5.37.038c-.052.06.437-.526.232-.277v.439l0,.437c0,.29,0,.577,0,.861q0,.851-.006,1.665c-.007,1.071-.015,2.088-.023,3.038l-.2-.241c1.565.024,2.881.078,3.83.123a10.8,10.8,0,0,1,1.541.118,7.147,7.147,0,0,1-1.414.118c-.933.045-2.3.1-3.956.122l-.2,0,0-.243c-.007-.95-.015-1.967-.023-3.038q0-.814-.005-1.665c0-.284,0-.571,0-.861v-.437l0-.22v-.219c-.206.249.282-.34.233-.279l5.37.038.2,0,0,.239c-.02,1.984-.065,3.627-.1,4.746a12.358,12.358,0,0,1-.1,1.695" transform="translate(-27.325 -20.293)" fill="#263238"/>
            <path id="Path_832240" data-name="Path 832240" d="M297.812,180.438c0,.153-17.462.278-39,.278s-39-.125-39-.278,17.459-.278,39-.278,39,.125,39,.278" transform="translate(-29.102 -22.521)" fill="#263238"/>
            <path id="Path_832241" data-name="Path 832241" d="M212.048,183.2a18.224,18.224,0,0,1-.1-1.848c-.037-1.136-.083-2.714-.1-4.593l.2.241-5.37.038c-.052.06.437-.526.232-.277v.439l0,.437c0,.29,0,.577,0,.861q0,.851-.006,1.665c-.007,1.071-.015,2.088-.023,3.038l-.2-.241c1.565.024,2.881.078,3.83.122a10.8,10.8,0,0,1,1.541.118,7.148,7.148,0,0,1-1.414.118c-.933.045-2.3.1-3.956.123l-.2,0,0-.243c-.007-.95-.015-1.967-.023-3.038q0-.814-.005-1.665c0-.284,0-.571,0-.861V177.2l0-.22v-.22c-.206.248.282-.34.233-.279l5.37.038.2,0,0,.239c-.02,1.984-.065,3.627-.1,4.746a12.357,12.357,0,0,1-.1,1.695" transform="translate(-27.325 -22.06)" fill="#263238"/>
            <path id="Path_832242" data-name="Path 832242" d="M297.812,194.577c0,.153-17.462.278-39,.278s-39-.125-39-.278,17.459-.278,39-.278,39,.125,39,.278" transform="translate(-29.102 -24.288)" fill="#263238"/>
            <path id="Path_832243" data-name="Path 832243" d="M212.048,197.337a18.224,18.224,0,0,1-.1-1.848c-.037-1.136-.083-2.714-.1-4.593l.2.241-5.37.038c-.052.06.437-.526.232-.277v.439l0,.437c0,.29,0,.577,0,.861q0,.851-.006,1.665c-.007,1.071-.015,2.088-.023,3.038l-.2-.241c1.565.024,2.881.078,3.83.123a10.8,10.8,0,0,1,1.541.118,7.147,7.147,0,0,1-1.414.118c-.933.045-2.3.1-3.956.122l-.2,0,0-.243c-.007-.95-.015-1.967-.023-3.038q0-.814-.005-1.665c0-.284,0-.571,0-.861v-.437l0-.22v-.22c-.206.249.282-.339.233-.279l5.37.038.2,0,0,.239c-.02,1.984-.065,3.627-.1,4.746a12.358,12.358,0,0,1-.1,1.695" transform="translate(-27.325 -23.827)" fill="#263238"/>
            <path id="Path_832244" data-name="Path 832244" d="M281.285,302.78s-.01-.361-.016-1.054-.007-1.729-.015-3.08c-.008-2.716-.019-6.723-.034-11.933-.018-10.412-.044-25.622-.078-44.851l.142.171-186.067.107h-.011l.232-.277c0,20.961,0,41.391-.006,60.919l-.226-.271,132.891.123,39.033.077,10.5.036,2.722.017c.613.006.935.018.935.018s-.3.011-.906.018l-2.695.017-10.449.036-38.981.077-133.048.123h-.226v-.272c0-19.528,0-39.958-.006-60.919v-.278h.244l186.067.107h.142v.171c-.033,19.273-.06,34.517-.078,44.954-.015,5.192-.026,9.187-.034,11.895q-.012,2.007-.016,3.049c0,.683-.014,1.021-.014,1.021" transform="translate(-12.574 -30.199)" fill="#263238"/>
            <path id="Path_832245" data-name="Path 832245" d="M281.4,259.383c0,.153-41.542.278-92.775.278-51.25,0-92.783-.125-92.783-.278s41.533-.278,92.783-.278c51.233,0,92.775.125,92.775.278" transform="translate(-12.689 -32.389)" fill="#263238"/>
            <path id="Path_832246" data-name="Path 832246" d="M281.4,276.672c0,.153-41.542.278-92.775.278-51.25,0-92.783-.125-92.783-.278s41.533-.278,92.783-.278c51.233,0,92.775.125,92.775.278" transform="translate(-12.689 -34.55)" fill="#263238"/>
            <path id="Path_832247" data-name="Path 832247" d="M281.4,294.149c0,.153-41.542.278-92.775.278-51.25,0-92.783-.125-92.783-.278s41.533-.278,92.783-.278c51.233,0,92.775.125,92.775.278" transform="translate(-12.689 -36.735)" fill="#263238"/>
            <path id="Path_832248" data-name="Path 832248" d="M120.137,303.339c-.128,0-.232-13.779-.232-30.774s.1-30.777.232-30.777.232,13.777.232,30.777-.1,30.774-.232,30.774" transform="translate(-15.875 -30.224)" fill="#263238"/>
            <path id="Path_832249" data-name="Path 832249" d="M192.662,301.62c-.128,0-.232-13.158-.232-29.386s.1-29.388.232-29.388.232,13.155.232,29.388-.1,29.386-.232,29.386" transform="translate(-25.477 -30.357)" fill="#263238"/>
            <path id="Path_832250" data-name="Path 832250" d="M269.082,304.529c-.128,0-.232-13.572-.232-30.311s.1-30.314.232-30.314.232,13.569.232,30.314-.1,30.311-.232,30.311" transform="translate(-35.594 -30.489)" fill="#263238"/>
            <path id="Path_832251" data-name="Path 832251" d="M277.753,327.088c0,.154-40.632.278-90.741.278-50.127,0-90.75-.124-90.75-.278s40.623-.278,90.75-.278c50.109,0,90.741.125,90.741.278" transform="translate(-12.745 -40.852)" fill="#263238"/>
            <path id="Path_832252" data-name="Path 832252" d="M277.753,337.151c0,.153-40.632.278-90.741.278-50.127,0-90.75-.125-90.75-.278s40.623-.278,90.75-.278c50.109,0,90.741.125,90.741.278" transform="translate(-12.745 -42.11)" fill="#263238"/>
            <path id="Path_832253" data-name="Path 832253" d="M162.3,347.214c0,.154-14.786.278-33.02.278s-33.023-.124-33.023-.278,14.782-.278,33.023-.278,33.02.125,33.02.278" transform="translate(-12.745 -43.368)" fill="#263238"/>
            <g id="Group_1079058" data-name="Group 1079058" transform="translate(33.35 262.437)" opacity="0.3">
              <g id="Group_1079057" data-name="Group 1079057">
                <g id="Group_1079056" data-name="Group 1079056" clip-path="url(#clip-path-5)">
                  <path id="Path_832254" data-name="Path 832254" d="M38.439,310.345H49.031L49,299.929H38.439Z" transform="translate(-38.439 -299.929)"/>
                </g>
              </g>
            </g>
            <path id="Path_832255" data-name="Path 832255" d="M39.205,218.613c-18.427,0-33.419,16.652-33.419,37.12s15.173,37.121,33.6,37.121h5.322l-.077-8.8-5.245.243c-14.675,0-26.794-12.813-26.794-28.562s11.939-28.561,26.614-28.561S65.82,239.985,65.82,255.733c0,2.363,1.524,4.28,3.4,4.28s3.4-1.916,3.4-4.28c0-20.468-14.992-37.12-33.42-37.12" transform="translate(-0.766 -27.327)" fill="#e0e0e0"/>
            <path id="Path_832256" data-name="Path 832256" d="M39.182,218.613s.268,0,.791.016l2.325.1c1.018.1,2.271.334,3.749.591a33,33,0,0,1,16.908,10.133l1.445,1.757c.241.3.5.591.733.908l.672.994c.442.676.933,1.328,1.354,2.053l1.234,2.243a41.282,41.282,0,0,1,3.63,10.521,42.462,42.462,0,0,1,.679,6.052,10.162,10.162,0,0,1-.109,3.19A4.339,4.339,0,0,1,70.8,259.75a2.965,2.965,0,0,1-2.932.16,4.153,4.153,0,0,1-2.018-2.529,5.914,5.914,0,0,1-.259-1.735q-.04-.841-.082-1.691a27.479,27.479,0,0,0-.382-3.4,29.553,29.553,0,0,0-5.486-12.682,28.457,28.457,0,0,0-7.749-6.933c-.5-.294-1.021-.537-1.533-.81a11.354,11.354,0,0,0-1.573-.731l-1.618-.635c-.548-.186-1.112-.316-1.669-.478a25.85,25.85,0,0,0-3.421-.672,25.1,25.1,0,0,0-7.044.209,25.473,25.473,0,0,0-3.509.841c-.578.185-1.14.438-1.714.654l-.858.338-.829.425a25.524,25.524,0,0,0-6.252,4.358,27.151,27.151,0,0,0-5.01,6.291,27.822,27.822,0,0,0-3.163,7.836,33.667,33.667,0,0,0-.755,4.291,34.241,34.241,0,0,0-.062,4.406A28.7,28.7,0,0,0,27.213,280.83a24.115,24.115,0,0,0,8.593,2.9,14.1,14.1,0,0,0,2.2.215,15.309,15.309,0,0,0,2.2.035l4.385-.2.245-.011,0,.278q.036,4.478.074,8.8l0,.271-.236,0c-1.976-.015-3.93.028-5.877-.035l-2.913-.169-2.857-.487a32.6,32.6,0,0,1-10.533-4.376c-.782-.549-1.6-1.024-2.337-1.627l-2.193-1.814L15.961,282.6a9.593,9.593,0,0,1-.947-1.055l-.9-1.1a37.949,37.949,0,0,1-5.646-9.672c-.387-.838-.613-1.75-.922-2.611l-.433-1.3L6.8,265.53c-.193-.891-.445-1.76-.583-2.649s-.246-1.777-.367-2.656a40.854,40.854,0,0,1,.185-10.258,38.12,38.12,0,0,1,.943-4.742A21.714,21.714,0,0,1,7.655,243c.256-.721.448-1.466.75-2.145a39.057,39.057,0,0,1,1.84-3.942l1.006-1.828c.35-.587.748-1.125,1.111-1.679a34.878,34.878,0,0,1,9.758-9.684c.413-.27.807-.558,1.214-.8l1.223-.65a19.112,19.112,0,0,1,2.329-1.142l2.188-.88c.705-.236,1.392-.4,2.032-.59a22.181,22.181,0,0,1,3.444-.719c.5-.073.961-.175,1.386-.2l1.155-.053,1.561-.066c.351-.011.529-.006.529-.006s-.179.025-.528.053l-1.556.11-1.15.076c-.423.036-.881.146-1.379.226a22.7,22.7,0,0,0-3.424.758c-.635.194-1.316.366-2.016.607l-2.171.9a19.141,19.141,0,0,0-2.308,1.153l-1.211.654c-.4.241-.793.53-1.2.8a34.826,34.826,0,0,0-9.64,9.662c-.359.551-.751,1.086-1.1,1.669l-.99,1.815A38.869,38.869,0,0,0,8.7,241c-.3.674-.485,1.411-.737,2.126a21.564,21.564,0,0,0-.669,2.206,37.945,37.945,0,0,0-.919,4.694,40.495,40.495,0,0,0-.158,10.141q.182,1.3.369,2.622c.137.879.39,1.735.581,2.614l.314,1.317.43,1.285c.309.85.531,1.749.915,2.576a37.557,37.557,0,0,0,5.593,9.538l.893,1.08a9.27,9.27,0,0,0,.937,1.04l1.991,1.982,2.168,1.787c.729.6,1.538,1.06,2.31,1.6a32.214,32.214,0,0,0,10.4,4.3l2.821.476,2.874.164c1.931.06,3.9.015,5.869.027l-.233.27q-.039-4.33-.081-8.8l.246.267-4.393.206a15.49,15.49,0,0,1-2.232-.034,14.269,14.269,0,0,1-2.246-.217A24.538,24.538,0,0,1,27,281.328,29.256,29.256,0,0,1,12.4,257.3a27.983,27.983,0,0,1,.836-8.879,28.372,28.372,0,0,1,3.23-7.993,27.7,27.7,0,0,1,5.107-6.408,26,26,0,0,1,6.366-4.43l.844-.432.873-.343c.584-.22,1.156-.476,1.745-.663a25.953,25.953,0,0,1,3.569-.852,25.5,25.5,0,0,1,7.16-.2,26.232,26.232,0,0,1,3.476.688c.567.165,1.14.3,1.7.488l1.644.648a11.637,11.637,0,0,1,1.6.745c.52.278,1.051.527,1.556.827a28.837,28.837,0,0,1,7.868,7.063,30.035,30.035,0,0,1,5.56,12.913,27.943,27.943,0,0,1,.382,3.459q.04.864.079,1.719a5.437,5.437,0,0,0,.232,1.586,3.739,3.739,0,0,0,1.8,2.278,2.626,2.626,0,0,0,2.6-.135,3.926,3.926,0,0,0,1.621-2.323,9.847,9.847,0,0,0,.1-3.046,42.127,42.127,0,0,0-.656-5.988,40.984,40.984,0,0,0-3.561-10.426q-.617-1.13-1.215-2.229c-.415-.719-.9-1.368-1.335-2.04q-.333-.5-.663-.989c-.23-.316-.485-.6-.723-.9l-1.426-1.75a33.945,33.945,0,0,0-11.818-8.531,34.514,34.514,0,0,0-4.929-1.662c-1.469-.272-2.715-.521-3.728-.641l-2.317-.158c-.522-.038-.79-.073-.79-.073" transform="translate(-0.743 -27.327)" fill="#263238"/>
            <g id="Group_1079061" data-name="Group 1079061" transform="translate(27.473 383.756)" opacity="0.3">
              <g id="Group_1079060" data-name="Group 1079060">
                <g id="Group_1079059" data-name="Group 1079059" clip-path="url(#clip-path-7)">
                  <path id="Path_832257" data-name="Path 832257" d="M37.542,438.58l-5.876,18.448h285.9V438.58Z" transform="translate(-31.666 -438.58)" fill="#c1e29a"/>
                </g>
              </g>
            </g>
            <path id="Path_832258" data-name="Path 832258" d="M58.752,365.8s.423-.015,1.249-.017h3.673l14.154.054,52.351.3,175.263,1.206-.245.277c0-8.73,0-18.021,0-27.409.028-85.331.054-162.569.072-218.487.032-27.949.059-50.568.077-66.209.02-7.81.036-13.877.046-18,.01-2.051.018-3.617.024-4.681s.025-1.594.025-1.594.016.54.024,1.594.014,2.63.024,4.681c.01,4.125.026,10.191.046,18,.018,15.641.045,38.26.077,66.209.019,55.918.044,133.156.072,218.487,0,9.389,0,18.679,0,27.409v.279l-.245,0-175.262-1.383-52.35-.472-14.154-.155L60,365.831c-.827-.015-1.249-.036-1.249-.036" transform="translate(-7.778 -3.904)" fill="#263238"/>
            <path id="Path_832259" data-name="Path 832259" d="M54.075,360.144s.422-.017,1.246-.022l3.663-.01,14.12.01,52.236.137,175,.655-.244.277c.008-9.2.016-18.992.025-28.886.1-85.6.2-163.09.269-219.187.058-28.039.1-50.73.137-66.422.027-7.835.049-13.921.063-18.058.012-2.058.022-3.629.029-4.7s.026-1.6.026-1.6.016.542.023,1.6.011,2.638.02,4.7c.007,4.137.017,10.223.03,18.059,0,15.691.01,38.383.018,66.421-.032,56.1-.077,133.582-.126,219.187-.01,9.9-.019,19.681-.028,28.886v.278h-.244l-175-.835L73.1,360.328l-14.119-.11-3.663-.041c-.824-.012-1.246-.032-1.246-.032" transform="translate(-7.159 -2.793)" fill="#263238"/>
            <path id="Path_832260" data-name="Path 832260" d="M62.949,371.459s.423-.015,1.248-.018h3.668l14.139.054,52.274.3,174.841,1.2-.245.276c.027-8.058.056-16.647.084-25.32.313-84.589.6-161.155.8-216.586.127-27.707.228-50.129.3-65.634.046-7.742.082-13.756.106-17.844.017-2.033.03-3.586.04-4.641s.03-1.58.03-1.58.015.535.019,1.581.005,2.607.009,4.64c0,4.089-.008,10.1-.014,17.845-.034,15.506-.083,37.928-.144,65.634-.168,55.432-.4,132-.658,216.588-.029,8.673-.059,17.262-.087,25.32v.278l-.244,0-174.84-1.373L82,371.7l-14.139-.154-3.668-.053c-.826-.015-1.248-.036-1.248-.036" transform="translate(-8.334 -5.208)" fill="#263238"/>
            <path id="Path_832261" data-name="Path 832261" d="M338.237,56.952H361.2l8.181,10.486-7.117,12.491H338.216Z" transform="translate(-44.778 -7.119)" fill="#455a64"/>
          </g>
        </g>
        <g id="Group_1079065" data-name="Group 1079065">
          <g id="Group_1079064" data-name="Group 1079064" clip-path="url(#clip-path-2)">
            <path id="Path_832262" data-name="Path 832262" d="M358.556,141.057l7.713,1a24.7,24.7,0,0,0,43.27-1.075A25.111,25.111,0,0,0,399.17,107.2a24.69,24.69,0,0,0-33.5,10.457,25.075,25.075,0,0,0-2.483,15.979l-.006-.013Z" transform="translate(-47.471 -13.039)" fill="#fff"/>
            <path id="Path_832263" data-name="Path 832263" d="M358.556,141.037s.113-.168.318-.488l.9-1.419,3.471-5.482-.135-.009.006.013a.077.077,0,0,0,.1.039.079.079,0,0,0,.043-.085,25.209,25.209,0,0,1,.967-12.281,24.62,24.62,0,0,1,1.51-3.542,28.181,28.181,0,0,1,2.215-3.466,24.654,24.654,0,0,1,44.093,17.8,25.442,25.442,0,0,1-3.832,10.756,24.349,24.349,0,0,1-7.638,7.519,24.546,24.546,0,0,1-18.251,3.181l-1.03-.245a6.529,6.529,0,0,1-1-.285l-1.92-.668a34.068,34.068,0,0,1-3.447-1.723,24.834,24.834,0,0,1-8.6-8.655.07.07,0,0,0-.054-.036l-5.718-.7-1.488-.177c-.336-.039-.516-.055-.516-.055s.156.027.482.074l1.462.206,5.76.795-.055-.036a24.822,24.822,0,0,0,8.61,8.778,34.15,34.15,0,0,0,3.471,1.755l1.936.683a6.8,6.8,0,0,0,1.01.292l1.039.252a24.7,24.7,0,0,0,9.075.306,24.952,24.952,0,0,0,9.4-3.475,24.63,24.63,0,0,0,7.751-7.606,25.745,25.745,0,0,0,3.9-10.9,25.222,25.222,0,0,0-1.556-12.029,11.142,11.142,0,0,0-.6-1.4l-.649-1.369-.77-1.3a10.288,10.288,0,0,0-.816-1.256q-.441-.6-.882-1.2c-.283-.41-.647-.749-.966-1.125-.335-.361-.645-.745-1-1.085l-1.082-.99a24.532,24.532,0,0,0-9.914-5.385,24.8,24.8,0,0,0-26.419,9.131,28.337,28.337,0,0,0-2.224,3.51,24.712,24.712,0,0,0-1.51,3.584,25.2,25.2,0,0,0-.9,12.383l.146-.046-.005-.012a.077.077,0,0,0-.1-.039.082.082,0,0,0-.034.031l-3.419,5.581q-.565.927-.863,1.418c-.192.317-.28.473-.28.473" transform="translate(-47.471 -13.02)" fill="#263238"/>
            <path id="Path_832264" data-name="Path 832264" d="M384.2,126.767h3.384a2.892,2.892,0,0,1,2.953-2.916,2.739,2.739,0,0,1,2.651,1.762,3.082,3.082,0,0,1-.241,2.764c-.574.954-1.831,1.822-4.112,1.417v7.695h3.346v-4.507a6.574,6.574,0,0,0,4.692-6.439c0-4.99-4.437-6.149-6.336-6.149-1.452,0-6.4.354-6.337,6.374" transform="translate(-50.866 -15.05)" fill="#263238"/>
            <rect id="Rectangle_381497" data-name="Rectangle 381497" width="3.396" height="3.198" transform="translate(337.958 124.024)" fill="#263238"/>
          </g>
        </g>
        <g id="Group_1079073" data-name="Group 1079073">
          <g id="Group_1079072" data-name="Group 1079072" clip-path="url(#clip-path-2)">
            <path id="Path_832265" data-name="Path 832265" d="M300.55,420.009,295.342,438.2s16.587,11.448,15.949,14.9l-35.338-8.916,6.96-28.682Z" transform="translate(-36.535 -51.94)" fill="#455a64"/>
            <path id="Path_832266" data-name="Path 832266" d="M285.933,436.525a1.493,1.493,0,0,0-1.41,1.409,1.436,1.436,0,0,0,1.373,1.422,1.576,1.576,0,0,0,1.485-1.5,1.487,1.487,0,0,0-1.59-1.319" transform="translate(-37.669 -54.565)" fill="#e0e0e0"/>
            <g id="Group_1079068" data-name="Group 1079068" transform="translate(239.417 389.387)" opacity="0.6">
              <g id="Group_1079067" data-name="Group 1079067">
                <g id="Group_1079066" data-name="Group 1079066" clip-path="url(#clip-path-10)">
                  <path id="Path_832267" data-name="Path 832267" d="M275.952,447.878l.814-2.863,33.578,9.619s1.4,1.088.947,2.16Z" transform="translate(-275.952 -445.015)" fill="#fff"/>
                </g>
              </g>
            </g>
            <path id="Path_832268" data-name="Path 832268" d="M298.447,441.347c-.049.172-.931.034-1.919.38-1,.319-1.622.963-1.763.853-.151-.073.364-1.049,1.568-1.446s2.192.063,2.114.214" transform="translate(-39.022 -55.123)" fill="#263238"/>
            <path id="Path_832269" data-name="Path 832269" d="M302.392,444.215c0,.179-.823.286-1.592.874-.785.565-1.13,1.324-1.3,1.273-.169-.013-.036-1.063.934-1.776s2-.538,1.959-.371" transform="translate(-39.644 -55.509)" fill="#263238"/>
            <path id="Path_832270" data-name="Path 832270" d="M303.975,449.574c-.166,0-.191-.933.489-1.774s1.58-1.018,1.617-.854c.062.168-.588.547-1.136,1.247-.564.685-.8,1.407-.971,1.381" transform="translate(-40.232 -55.863)" fill="#263238"/>
            <path id="Path_832271" data-name="Path 832271" d="M299.287,436.346c-.112.14-.843-.3-1.836-.479-.988-.2-1.829-.061-1.882-.233-.069-.151.832-.608,2-.381s1.839.977,1.72,1.092" transform="translate(-39.131 -54.4)" fill="#263238"/>
            <path id="Path_832272" data-name="Path 832272" d="M287.236,425.52l-.82,18.917s18.791,7.193,18.976,10.7l-36.426-.286.079-29.529Z" transform="translate(-35.61 -53.167)" fill="#455a64"/>
            <path id="Path_832273" data-name="Path 832273" d="M275.947,445.238a1.5,1.5,0,0,0-1.042,1.7A1.43,1.43,0,0,0,276.571,448a1.584,1.584,0,0,0,1.094-1.81,1.48,1.48,0,0,0-1.853-.9" transform="translate(-36.392 -55.649)" fill="#e0e0e0"/>
            <g id="Group_1079071" data-name="Group 1079071" transform="translate(233.356 398.712)" opacity="0.6">
              <g id="Group_1079070" data-name="Group 1079070">
                <g id="Group_1079069" data-name="Group 1079069" clip-path="url(#clip-path-11)">
                  <path id="Path_832274" data-name="Path 832274" d="M268.966,458.649l.123-2.976,34.879,1.387s1.615.724,1.424,1.875Z" transform="translate(-268.966 -455.673)" fill="#fff"/>
                </g>
              </g>
            </g>
            <path id="Path_832275" data-name="Path 832275" d="M289.252,446.934c-.007.179-.9.254-1.777.823-.895.547-1.352,1.32-1.515,1.248-.163-.036.11-1.106,1.187-1.777s2.145-.459,2.1-.294" transform="translate(-37.854 -55.847)" fill="#263238"/>
            <path id="Path_832276" data-name="Path 832276" d="M293.779,448.8c.04.174-.733.473-1.343,1.228-.633.735-.791,1.555-.968,1.545-.167.027-.282-1.025.494-1.948s1.815-1,1.818-.825" transform="translate(-38.572 -56.093)" fill="#263238"/>
            <path id="Path_832277" data-name="Path 832277" d="M296.578,453.663c-.162.037-.4-.861.062-1.84s1.3-1.363,1.373-1.213c.1.148-.444.671-.814,1.48-.388.8-.444,1.557-.621,1.572" transform="translate(-39.238 -56.324)" fill="#263238"/>
            <path id="Path_832278" data-name="Path 832278" d="M288.852,441.914c-.076.163-.89-.091-1.9-.03-1.007.04-1.792.375-1.884.22-.1-.13.667-.788,1.852-.844s2.015.513,1.927.654" transform="translate(-37.741 -55.158)" fill="#263238"/>
            <path id="Path_832279" data-name="Path 832279" d="M289.9,441.763a30.845,30.845,0,0,1,.049,4.555l-.145-.224c2.127.815,4.957,1.914,7.962,3.343a42.59,42.59,0,0,1,8.072,4.688,8.7,8.7,0,0,1,2,2.051c.379.59.328,1.04.269,1.019a2.568,2.568,0,0,0-.465-.883,10.13,10.13,0,0,0-2.061-1.841,52.735,52.735,0,0,0-8.07-4.478c-2.985-1.42-5.784-2.568-7.871-3.469l-.155-.067.01-.157a30.986,30.986,0,0,1,.409-4.537" transform="translate(-38.326 -55.222)" fill="#263238"/>
            <path id="Path_832280" data-name="Path 832280" d="M266.634,280.941v13.585l3.618,52.926S268,373.127,266.618,387.62c-1.2,12.587.762,34.506.762,34.506h21.059l7.533-73.1,4.677-45.59,8.136-20.75Z" transform="translate(-35.247 -35.119)" fill="#263238"/>
            <path id="Path_832281" data-name="Path 832281" d="M325.778,283.493l-5.135,73.786-21.3,55.284-.979,3.33-12.581-3.068L295.137,282Z" transform="translate(-37.836 -35.251)" fill="#263238"/>
            <path id="Path_832282" data-name="Path 832282" d="M306.569,295.411a1.745,1.745,0,0,1,.009.334c-.005.242-.012.565-.021.979-.03.885-.074,2.149-.128,3.766-.1,3.27-.363,8-.73,13.838-.77,11.679-2.208,27.794-4.449,45.529-2.207,17.744-4.644,33.756-6.425,45.341-.9,5.773-1.637,10.454-2.148,13.715-.26,1.6-.463,2.851-.606,3.726-.071.409-.128.729-.169.968a1.787,1.787,0,0,1-.074.327,1.82,1.82,0,0,1,.025-.333l.123-.973c.121-.878.3-2.132.518-3.737.475-3.265,1.156-7.952,2-13.733,1.7-11.6,4.079-27.611,6.285-45.349,2.241-17.728,3.731-33.83,4.587-45.5.409-5.835.72-10.56.88-13.828.094-1.615.167-2.878.218-3.761.029-.413.052-.738.069-.978a1.78,1.78,0,0,1,.04-.333" transform="translate(-38.636 -36.927)" fill="#455a64"/>
            <path id="Path_832283" data-name="Path 832283" d="M291.864,126.483l-.03,35.586c-.005,6.052,7.2,16.9,16.685,16.473l.771.012c8.2-1,3.538-10.836,3.536-16.483,0-2.679.005-4.913.023-5.188,0,0,8.983-.845,9.64-9.81.317-4.333.249-13.31.095-21.432a16.682,16.682,0,0,0-15.589-16.383l-.858-.053c-9.289-.028-14.5,7.913-14.273,17.279" transform="translate(-38.637 -13.651)" fill="#ffc09d"/>
            <path id="Path_832284" data-name="Path 832284" d="M314.321,163.1a21.41,21.41,0,0,1-11.373-4.171s2.427,6.729,11.353,6.471Z" transform="translate(-40.109 -19.867)" fill="#ff9b6c"/>
            <path id="Path_832285" data-name="Path 832285" d="M308.99,132.165c-.174.183-1.209-.637-2.7-.661-1.486-.045-2.591.726-2.749.536-.078-.085.1-.418.583-.767a3.7,3.7,0,0,1,2.205-.659,3.567,3.567,0,0,1,2.143.759c.452.371.6.711.516.793" transform="translate(-40.185 -16.327)" fill="#263238"/>
            <path id="Path_832286" data-name="Path 832286" d="M309.693,137a1.209,1.209,0,0,1-1.234,1.152,1.158,1.158,0,0,1-1.172-1.17,1.21,1.21,0,0,1,1.233-1.152A1.157,1.157,0,0,1,309.693,137" transform="translate(-40.683 -16.979)" fill="#263238"/>
            <path id="Path_832287" data-name="Path 832287" d="M314.259,142.62a9.01,9.01,0,0,1,2.245-.267c.351-.014.685-.064.759-.3a1.81,1.81,0,0,0-.169-1.059q-.415-1.309-.869-2.745a46.488,46.488,0,0,1-1.892-7.157,46.444,46.444,0,0,1,2.459,6.987q.432,1.444.825,2.758a2.056,2.056,0,0,1,.1,1.393.878.878,0,0,1-.6.479,2.365,2.365,0,0,1-.6.046,8.822,8.822,0,0,1-2.251-.137" transform="translate(-41.606 -16.387)" fill="#263238"/>
            <path id="Path_832288" data-name="Path 832288" d="M308.175,126.657c-.14.335-1.334.1-2.76.189-1.427.06-2.594.421-2.763.1-.075-.152.144-.462.625-.764a4.466,4.466,0,0,1,2.082-.617,4.419,4.419,0,0,1,2.126.395c.507.25.751.535.691.694" transform="translate(-40.068 -15.696)" fill="#263238"/>
            <path id="Path_832289" data-name="Path 832289" d="M324.512,128.062c-.153.273-1.318-.015-2.725-.042-1.408-.053-2.573.168-2.725-.114-.067-.135.162-.381.651-.6a4.9,4.9,0,0,1,2.077-.371,5.052,5.052,0,0,1,2.075.49c.487.249.715.508.647.639" transform="translate(-42.24 -15.867)" fill="#263238"/>
            <path id="Path_832290" data-name="Path 832290" d="M291.3,136.537c-.148-.075-6-2.2-6.181,3.945s5.976,5.059,5.992,4.883.189-8.828.189-8.828" transform="translate(-37.747 -17.016)" fill="#ffc09d"/>
            <path id="Path_832291" data-name="Path 832291" d="M289.549,143.261c-.026-.021-.108.072-.29.15a1.056,1.056,0,0,1-.795-.007,2.658,2.658,0,0,1-1.146-2.413,3.567,3.567,0,0,1,.342-1.524,1.229,1.229,0,0,1,.822-.8.539.539,0,0,1,.618.311c.077.174.035.3.067.308.016.016.134-.1.092-.354a.685.685,0,0,0-.228-.393.8.8,0,0,0-.583-.173,1.492,1.492,0,0,0-1.137.92,3.665,3.665,0,0,0-.418,1.7,2.787,2.787,0,0,0,1.471,2.7,1.13,1.13,0,0,0,.976-.135c.193-.146.229-.283.208-.294" transform="translate(-37.983 -17.296)" fill="#ff9b6c"/>
            <path id="Path_832292" data-name="Path 832292" d="M282.708,122.55c1.245-2.181,1.51-4.77,2.177-7.2s1.972-4.946,4.313-5.819l.054.023c2.1-.88,4.7-.923,6.452.535.393-3.2,3.139-5.759,6.22-6.613a20.468,20.468,0,0,1,11.02.745c2.3.9,4.539,2.782,7.264,5.55a30.077,30.077,0,0,1,3.152,3.763l2.782,8.337-2.251,4.415c-.134.3-.273.6-.442.9l0-.02-1.969,9.272c-.16-2.521-.079-11.3-.239-13.816a13.9,13.9,0,0,1-9.992-4.513c-1.383-1.51-2.479-3.409-4.316-4.3-2.369-1.147-5.167-.259-7.638.64l.1-.1a11.14,11.14,0,0,0-3.411,2.544,35.245,35.245,0,0,1-1.332,14.815c-.225.718-.843,2.2-1.536,2.479-1.362.549-1.746-.851-2.579-1.588a3.6,3.6,0,0,0-2.5-.589,55.194,55.194,0,0,1-1.745-6.355,5.514,5.514,0,0,1-2.555.2l.764-1.908a2.9,2.9,0,0,1-1.089.512.988.988,0,0,1-1.043-.444c-.237-.469.072-1.016.332-1.472" transform="translate(-37.374 -12.879)" fill="#263238"/>
            <path id="Path_832293" data-name="Path 832293" d="M299.023,112.239a7.7,7.7,0,0,0-.881.832,6.454,6.454,0,0,0-1.33,2.991,11.372,11.372,0,0,0-.2,2.28c.005.825.082,1.708.154,2.638a23.624,23.624,0,0,1,.1,2.937,10.33,10.33,0,0,1-.182,1.553,3.243,3.243,0,0,1-.61,1.51,1.334,1.334,0,0,1-1.249.44,1.992,1.992,0,0,1-1.136-.63,4.667,4.667,0,0,1-.882-2.268l.187.021a7.522,7.522,0,0,1-1.059,1.889,2.643,2.643,0,0,1-1.717.97,1.693,1.693,0,0,1-.918-.151,1.482,1.482,0,0,1-.63-.611,1.556,1.556,0,0,1-.2-.792,1.116,1.116,0,0,1,.278-.7l.1.083a5.736,5.736,0,0,1-1.892,1.467,5.08,5.08,0,0,1-.589.239.979.979,0,0,1-.211.055,1.078,1.078,0,0,1,.2-.088c.131-.056.327-.138.57-.267a5.917,5.917,0,0,0,1.825-1.487l.1.084a1.156,1.156,0,0,0-.044,1.332,1.344,1.344,0,0,0,.569.541,1.538,1.538,0,0,0,.832.126,2.473,2.473,0,0,0,1.594-.921,7.421,7.421,0,0,0,1.019-1.849l.125-.289.062.31a4.516,4.516,0,0,0,.84,2.167,1.788,1.788,0,0,0,1.016.563,1.124,1.124,0,0,0,1.062-.373,3.071,3.071,0,0,0,.563-1.413,10.4,10.4,0,0,0,.181-1.521,24.244,24.244,0,0,0-.088-2.913c-.069-.93-.139-1.817-.137-2.653a11.386,11.386,0,0,1,.229-2.31,6.36,6.36,0,0,1,1.413-3.014,3.623,3.623,0,0,1,.942-.779" transform="translate(-37.885 -14.03)" fill="#455a64"/>
            <path id="Path_832294" data-name="Path 832294" d="M328.616,119.908s-.022.024-.07.062l-.22.165a2.97,2.97,0,0,1-.374.248,4.714,4.714,0,0,1-.537.293,7.825,7.825,0,0,1-3.795.734,10.006,10.006,0,0,1-5.384-1.935,17.524,17.524,0,0,1-4.668-5.3c-.659-1.078-1.2-2.184-1.791-3.2a11.85,11.85,0,0,0-2.016-2.7,6.053,6.053,0,0,0-2.579-1.537,4.32,4.32,0,0,0-1.352-.141,4.742,4.742,0,0,0-1.233.254,5.161,5.161,0,0,0-2.828,2.47,6.258,6.258,0,0,0-.443,1.348.274.274,0,0,1,.006-.094c.01-.074.023-.165.038-.276a4.539,4.539,0,0,1,.326-1.015,5.108,5.108,0,0,1,.979-1.372,5.205,5.205,0,0,1,1.871-1.2,4.822,4.822,0,0,1,1.272-.276,4.423,4.423,0,0,1,1.406.134,6.2,6.2,0,0,1,2.665,1.565,11.94,11.94,0,0,1,2.061,2.74c.6,1.028,1.14,2.132,1.792,3.2a17.559,17.559,0,0,0,4.6,5.252,9.951,9.951,0,0,0,5.282,1.944,7.938,7.938,0,0,0,3.753-.661,12.45,12.45,0,0,0,1.235-.695" transform="translate(-39.894 -13.303)" fill="#455a64"/>
            <path id="Path_832295" data-name="Path 832295" d="M324.633,132.63c-.174.184-1.209-.637-2.7-.661-1.486-.045-2.591.726-2.749.536-.078-.086.1-.418.583-.767a3.7,3.7,0,0,1,2.205-.659,3.567,3.567,0,0,1,2.143.759c.452.371.6.711.516.793" transform="translate(-42.256 -16.385)" fill="#263238"/>
            <path id="Path_832296" data-name="Path 832296" d="M323.551,137a1.21,1.21,0,0,1-1.234,1.152,1.158,1.158,0,0,1-1.172-1.17,1.21,1.21,0,0,1,1.233-1.152A1.157,1.157,0,0,1,323.551,137" transform="translate(-42.518 -16.979)" fill="#263238"/>
            <path id="Path_832297" data-name="Path 832297" d="M328.569,113.869a3.8,3.8,0,0,0,3.163,1.793,9.239,9.239,0,0,0,1.326-.391c.435.267.331,1.769.03,2.182a8.008,8.008,0,0,1-.934.974c1.459.793,2.79.4,4.348-.169a7.7,7.7,0,0,1-4.542,6.171,2.656,2.656,0,0,1-2.453.046,3.116,3.116,0,0,1-1.077-1.929,34.028,34.028,0,0,1-1.084-8.24Z" transform="translate(-43.339 -14.234)" fill="#263238"/>
            <path id="Path_832298" data-name="Path 832298" d="M313.589,148.295c.025.074-.268.271-.822.354a3.291,3.291,0,0,1-2.115-.436,3.344,3.344,0,0,1-1.4-1.655c-.2-.528-.167-.883-.091-.9.162-.056.516,1.259,1.8,2.02a7.06,7.06,0,0,0,2.627.612" transform="translate(-40.923 -18.208)" fill="#263238"/>
            <path id="Path_832299" data-name="Path 832299" d="M339.317,205.4l2.038,19.344,28.393,7.4s.838,10.083,0,10.32-35.353.564-38.447-4.26-.4.88-.769,0-5.646-29.561-5.646-29.561Z" transform="translate(-43.013 -25.676)" fill="#ffc09d"/>
            <path id="Path_832300" data-name="Path 832300" d="M366.711,244.858s7.845.937,9.678.985,7.017-1.27,7.017-1.27,8.47,1.637,8.906,1.184,1.013-.964.492-1.34-6.987-2.5-6.987-2.5l4.427-.061s6.351,1.775,6.839,1.6,1.148-.955.78-1.6l-.369-.64a1.39,1.39,0,0,0-.57-1.752l-.6-.243.171-.538a2.159,2.159,0,0,0-.956-2.137c-1.237-.885-3.835-2.833-3.835-2.833l-8.152-1.273L367.9,234.788" transform="translate(-48.55 -29.056)" fill="#ffc09d"/>
            <path id="Path_832301" data-name="Path 832301" d="M368.116,242.5a10.454,10.454,0,0,0,.949.822,5.66,5.66,0,0,0,3.2.923,12.235,12.235,0,0,0,4.842-1.285,17.655,17.655,0,0,1,6.035-1.893,15.9,15.9,0,0,0,1.61-.024.814.814,0,0,0,.746-.825c-.057-.34-.6-.448-1.089-.564l-1.439-.356L378,238.04l-3.342-.887a6.386,6.386,0,0,1-1.21-.389,6.422,6.422,0,0,1,1.254.206l3.378.738,5,1.154,1.442.34a6.2,6.2,0,0,1,.77.209,1.019,1.019,0,0,1,.671.7,1.274,1.274,0,0,1-1.113,1.4,14.533,14.533,0,0,1-1.681.036,17.9,17.9,0,0,0-5.884,1.82,12.109,12.109,0,0,1-5.021,1.217,5.592,5.592,0,0,1-3.3-1.113,3.713,3.713,0,0,1-.672-.683c-.123-.182-.18-.281-.167-.29" transform="translate(-48.736 -29.595)" fill="#ff9b6c"/>
            <path id="Path_832302" data-name="Path 832302" d="M385.076,237.275c.013-.147,3.091.226,6.846-.234.467-.052.921-.122,1.358-.188l.108-.017.08.066a16.86,16.86,0,0,0,4.769,2.57,3.944,3.944,0,0,1-1.564-.294,10.817,10.817,0,0,1-3.5-1.909l.187.051c-.444.074-.9.147-1.379.2a24.462,24.462,0,0,1-4.9.1,6.627,6.627,0,0,1-2-.342" transform="translate(-50.982 -29.605)" fill="#ff9b6c"/>
            <path id="Path_832303" data-name="Path 832303" d="M393.7,240.388c.06-.13,1.649.555,3.713,1s3.789.5,3.791.643a11.423,11.423,0,0,1-7.5-1.641" transform="translate(-52.123 -30.047)" fill="#ff9b6c"/>
            <path id="Path_832304" data-name="Path 832304" d="M325.572,269.982s-2.167-59.245-3.258-69.524-3.74-28.761-3.74-28.761l-9.193-3.434.034.085c.1,1.147.033,5.76-3.49,6.444-9.44,1.835-17.831-8.758-17.831-8.758l-18.535,9.3,2.074,53.77-5.49,37.972Z" transform="translate(-35.236 -20.755)" fill="#d0adea"/>
            <path id="Path_832305" data-name="Path 832305" d="M312.9,230.479l-36.864-4.014,3.891-24.654-13.3-5.528h-4.76s-2.663,27.054-3.283,32.1c-.656,5.337.02,14.181,11.355,14.69,5.558.249,42.107-2.474,42.107-2.474Z" transform="translate(-34.212 -24.536)" fill="#ffc09d"/>
            <path id="Path_832306" data-name="Path 832306" d="M276.189,177.714c7.9,4.667,5.069,32.584,5.069,32.584l-24.011-.762,3.115-22.152a16.406,16.406,0,0,1,5.057-8.729,10.4,10.4,0,0,1,5.151-2.745,6.458,6.458,0,0,1,5.619,1.8" transform="translate(-34.058 -21.98)" fill="#d0adea"/>
            <path id="Path_832307" data-name="Path 832307" d="M335.482,180.459c-2.507-5.89-9.023-8-9.023-8l2.556,35.293,12.758-.957s-3.1-18.847-6.291-26.34" transform="translate(-43.221 -21.558)" fill="#d0adea"/>
            <path id="Path_832308" data-name="Path 832308" d="M330.4,185.851c.132-.007.6,7.266,1.051,16.242s.7,16.26.572,16.267-.6-7.264-1.051-16.243-.7-16.259-.572-16.266" transform="translate(-43.739 -23.232)" fill="#263238"/>
            <path id="Path_832309" data-name="Path 832309" d="M316.627,244.858s7.845.937,9.678.985,7.018-1.27,7.018-1.27,8.47,1.637,8.906,1.184,1.013-.964.492-1.34-6.987-2.5-6.987-2.5l4.426-.061s6.352,1.775,6.839,1.6,1.148-.955.78-1.6l-.369-.64a1.391,1.391,0,0,0-.57-1.752l-.6-.243.17-.538a2.157,2.157,0,0,0-.955-2.137c-1.237-.885-3.836-2.833-3.836-2.833l-8.152-1.273-15.656,2.348" transform="translate(-41.92 -29.056)" fill="#ffc09d"/>
            <path id="Path_832310" data-name="Path 832310" d="M317.814,234.761a1.064,1.064,0,0,1,.276-.07l.815-.15,3.128-.521,11.41-1.8.027,0,.029,0,8.156,1.243.051.008.045.033,2.837,2.085a13.049,13.049,0,0,1,1.477,1.164,2.345,2.345,0,0,1,.573,1.949v.005l0,.013-.168.539-.134-.289.6.242.009,0,.011.005a1.449,1.449,0,0,1,.742.872,1.909,1.909,0,0,1-.06,1.179l-.014-.209c.149.278.292.466.449.822a1.244,1.244,0,0,1-.172,1.067,1.755,1.755,0,0,1-.787.684.931.931,0,0,1-.324.031l-.246-.025-.461-.081c-1.211-.242-2.409-.556-3.625-.872l-2.354-.637.067.009-4.426.059.07-.465c1.6.531,3.164,1.06,4.683,1.6.765.283,1.491.519,2.255.884a.793.793,0,0,1,.295.249.612.612,0,0,1,.1.445,1.323,1.323,0,0,1-.34.612c-.136.156-.276.293-.407.429a.635.635,0,0,1-.409.143,2.832,2.832,0,0,1-.307.009,39.5,39.5,0,0,1-4.39-.564c-1.394-.235-2.729-.482-4-.731l.083,0a40.544,40.544,0,0,1-6.894,1.234c-2.088-.1-3.847-.352-5.309-.511l-3.365-.431-.878-.13a1.136,1.136,0,0,1-.3-.066,1.237,1.237,0,0,1,.3.007l.884.075,3.375.326c1.455.126,3.247.351,5.283.418a41.629,41.629,0,0,0,6.8-1.3l.042-.01.042.008c1.269.236,2.6.472,4,.7a40.236,40.236,0,0,0,4.328.532,2.558,2.558,0,0,0,.263-.008c.079,0,.173-.04.131-.011.135-.141.27-.274.388-.411a.962.962,0,0,0,.233-.388c.016-.08-.027-.15-.179-.23-.652-.305-1.438-.57-2.182-.839-1.514-.533-3.078-1.058-4.676-1.585l-1.348-.444,1.418-.021,4.426-.065h.033l.035.009,2.348.635c1.209.314,2.41.628,3.593.866l.438.076a1.9,1.9,0,0,0,.332.023,1.3,1.3,0,0,0,.557-.493.772.772,0,0,0,.126-.651c-.083-.191-.279-.5-.411-.74l-.054-.1.039-.111a1.455,1.455,0,0,0,.047-.864.971.971,0,0,0-.506-.589l.019.009-.6-.244-.2-.082.066-.206c.058-.186.117-.371.17-.538l-.005.019a1.9,1.9,0,0,0-.463-1.537,13.4,13.4,0,0,0-1.4-1.1l-2.834-2.1.1.041-8.147-1.3h.056l-11.434,1.632-3.143.42-.823.1a1.089,1.089,0,0,1-.284.014" transform="translate(-41.92 -29.028)" fill="#ff9b6c"/>
            <path id="Path_832311" data-name="Path 832311" d="M337.495,238.582a5.289,5.289,0,0,0,1.954.458,19.974,19.974,0,0,1,4.692.713,24.623,24.623,0,0,1,2.349,1.181,18.056,18.056,0,0,0,2,.88,6.777,6.777,0,0,0,1.936.525c.017-.056-.709-.294-1.834-.781-.562-.245-1.222-.556-1.933-.943a20.355,20.355,0,0,0-2.378-1.228,9.327,9.327,0,0,0-2.644-.517c-.819-.056-1.55-.068-2.162-.106-1.223-.059-1.961-.242-1.977-.183" transform="translate(-44.682 -29.822)" fill="#ff9b6c"/>
            <path id="Path_832312" data-name="Path 832312" d="M338.485,235.977a4.2,4.2,0,0,0,1.754.343,9.373,9.373,0,0,1,4.093.8c1.491.742,2.834,1.455,3.824,1.926a8.111,8.111,0,0,0,1.637.705,8.159,8.159,0,0,0-1.509-.949c-.961-.536-2.278-1.285-3.788-2.036a6.517,6.517,0,0,0-2.31-.674c-.737-.069-1.392-.046-1.936-.053-1.091.009-1.75-.122-1.765-.066" transform="translate(-44.813 -29.496)" fill="#ff9b6c"/>
            <path id="Path_832313" data-name="Path 832313" d="M259.052,211.661a1.478,1.478,0,0,1,.43-.035l1.233-.006,4.53.067c3.824.077,9.106.218,14.938.4l1.32.043-.246.249c-.141-4.5-.271-8.61-.375-11.913l0,.02c-.269-2.475-.364-4.479-.469-5.876-.043-.646-.079-1.178-.108-1.609a2.442,2.442,0,0,1-.015-.568,2.037,2.037,0,0,1,.124.555c.059.367.13.908.208,1.6.169,1.387.322,3.409.63,5.841l0,.011v.009c.133,3.3.3,7.414.479,11.91l.01.258-.257-.008-1.32-.041c-5.833-.185-11.113-.38-14.934-.545l-4.525-.22-1.229-.085a1.462,1.462,0,0,1-.428-.062" transform="translate(-34.297 -24.055)" fill="#263238"/>
            <rect id="Rectangle_381501" data-name="Rectangle 381501" width="7.306" height="88.812" transform="translate(328.351 310.99)" fill="#e0e0e0"/>
            <rect id="Rectangle_381502" data-name="Rectangle 381502" width="3.181" height="6.014" transform="translate(319.196 295.463)" fill="#e0e0e0"/>
            <rect id="Rectangle_381503" data-name="Rectangle 381503" width="3.643" height="2.493" transform="translate(322.126 297.272)" fill="#e0e0e0"/>
            <rect id="Rectangle_381504" data-name="Rectangle 381504" width="13.943" height="86.634" transform="translate(325.032 224.355)" fill="#e0e0e0"/>
            <path id="Path_832314" data-name="Path 832314" d="M388.538,343.007s-.01-.158-.016-.451c0-.31-.01-.738-.016-1.292-.008-1.151-.019-2.816-.033-4.958-.016-4.319-.04-10.557-.069-18.321-.026-15.526-.062-37.148-.1-61.613l.238.239-13.938,0h0l.239-.241c-.051,37.088-.1,69.476-.119,86.634l-.121-.122,10.308.068,2.7.029.694.013a1.87,1.87,0,0,1,.242.011,1.469,1.469,0,0,1-.219.011l-.673.013-2.672.029-10.378.068h-.121v-.122c-.023-17.159-.068-49.547-.119-86.634v-.242h.245l13.938,0h.238v.24c-.042,24.533-.078,46.215-.1,61.784-.029,7.739-.053,13.959-.069,18.264-.014,2.12-.025,3.768-.032,4.905-.007.543-.012.96-.017,1.263-.005.282-.016.418-.016.418" transform="translate(-49.563 -32.017)" fill="#263238"/>
            <rect id="Rectangle_381505" data-name="Rectangle 381505" width="54.666" height="3.948" transform="translate(304.543 398.119)" fill="#e0e0e0"/>
            <rect id="Rectangle_381506" data-name="Rectangle 381506" width="186.494" height="8.407" transform="translate(213.441 215.948)" fill="#455a64"/>
            <path id="Path_832315" data-name="Path 832315" d="M432.467,255.171s-.008-.173-.012-.515-.009-.859-.016-1.545c-.009-1.387-.021-3.48-.038-6.347l.066.067-186.484.175h-.01l.239-.242v8.407l-.239-.242,132.1.1,39.8.073,10.809.034,2.817.017c.636.006.97.018.97.018s-.311.011-.937.017l-2.784.017-10.754.034-39.74.074-132.279.1h-.239v-8.891h.249l186.484.175h.067v.067c-.017,2.885-.03,4.99-.038,6.386-.007.68-.012,1.184-.016,1.53s-.012.491-.012.491" transform="translate(-32.534 -30.816)" fill="#263238"/>
            <path id="Path_832316" data-name="Path 832316" d="M406.327,190.969H354.7a3.351,3.351,0,0,0-3.6,2.75l-6.877,42.522H317.06a1.74,1.74,0,0,0,0,3.465h86.759l5.929-44.384a3.689,3.689,0,0,0-3.421-4.353" transform="translate(-41.767 -23.872)" fill="#e0e0e0"/>
            <path id="Path_832317" data-name="Path 832317" d="M406.311,190.956a4.34,4.34,0,0,1,.887.143,3.472,3.472,0,0,1,2,1.619,3.961,3.961,0,0,1,.532,1.852,6.108,6.108,0,0,1-.087,1.122c-.053.39-.108.8-.167,1.221-.229,1.694-.494,3.645-.791,5.838l-4.972,36.932.087-.077-83.878-.025h-2.87a1.387,1.387,0,0,1-.516-.1,1.509,1.509,0,0,1-.767-.71,1.74,1.74,0,0,1,.274-1.995,1.377,1.377,0,0,1,.933-.43l1.126,0h8.941l17.164,0h.092l.015-.092c2.3-14.267,4.45-27.578,6.376-39.521q.181-1.12.358-2.222c.062-.366.114-.741.185-1.09a2.917,2.917,0,0,1,.431-.971,3.152,3.152,0,0,1,1.694-1.2,4.492,4.492,0,0,1,1.029-.191c.346-.017.705-.007,1.057-.01l8.178-.005,14.536-.014,20.7-.032,5.538-.018,1.431-.01c.321,0,.485-.01.485-.01s-.164-.006-.485-.01l-1.431-.01-5.538-.018-20.7-.031-14.536-.014-8.178-.005c-.354,0-.7-.008-1.067.009a4.681,4.681,0,0,0-1.072.2,3.331,3.331,0,0,0-1.791,1.262,3.134,3.134,0,0,0-.46,1.033c-.076.375-.126.736-.188,1.105q-.18,1.1-.361,2.222c-1.936,11.94-4.093,25.25-6.406,39.514l.108-.092-17.164,0H318.1l-1.137,0a1.609,1.609,0,0,0-1.081.5,1.968,1.968,0,0,0-.313,2.26,1.736,1.736,0,0,0,.882.814,1.6,1.6,0,0,0,.6.117h2.87l83.878-.025h.076l.01-.076c2.055-15.508,3.732-28.162,4.9-36.942.289-2.194.546-4.146.769-5.841q.083-.635.16-1.221a6.1,6.1,0,0,0,.082-1.134,3.99,3.99,0,0,0-.551-1.875,3.476,3.476,0,0,0-2.041-1.618,2.822,2.822,0,0,0-.665-.111c-.152-.007-.228-.007-.228-.007" transform="translate(-41.751 -23.859)" fill="#263238"/>
            <path id="Path_832318" data-name="Path 832318" d="M384.089,219.608A3.582,3.582,0,1,0,387.671,216a3.6,3.6,0,0,0-3.582,3.613" transform="translate(-50.851 -27)" fill="#fff"/>
            <path id="Path_832319" data-name="Path 832319" d="M351.647,239.339c.081.013,1.9-10.7,4.067-23.915s3.855-23.952,3.774-23.966-1.9,10.692-4.067,23.917-3.855,23.95-3.774,23.964" transform="translate(-46.556 -23.933)" fill="#263238"/>
          </g>
        </g>
      </g>
    </g>
  </g>
</svg>
