<svg xmlns="http://www.w3.org/2000/svg" width="109.992" height="121.333" viewBox="0 0 109.992 121.333">
  <g id="Group_1073496" data-name="Group 1073496" transform="translate(-917.869 -383.694)">
    <path id="Union_38" data-name="Union 38" d="M12825.9,11832.6l-37.685-21.453a17.367,17.367,0,0,1-8.747-14.938l-.262-43.365a17.358,17.358,0,0,1,8.563-15.041l37.423-21.909a17.356,17.356,0,0,1,17.31-.107l37.685,21.457a17.347,17.347,0,0,1,8.747,14.938l.266,43.362a17.362,17.362,0,0,1-8.566,15.042l-.161-.271.161.271-37.423,21.909a17.286,17.286,0,0,1-7.835,2.342c-.3.016-.609.024-.914.024A17.31,17.31,0,0,1,12825.9,11832.6Z" transform="translate(-11861.333 -11329.837)" fill="#264100"/>
    <g id="layer1" transform="translate(940.211 411.76)">
      <path id="rect820" d="M8.153,0A4.091,4.091,0,0,0,4.077,4.077v16.97a5.7,5.7,0,0,0-3.092,2.44A7.092,7.092,0,0,0,0,27.158v8.67A20.682,20.682,0,0,0,1.586,42c.384,1.077.763,2.121,1.039,2.993a8.7,8.7,0,0,1,.428,1.865v3.85a3.048,3.048,0,0,0-1.015,2.264v9.167A3.076,3.076,0,0,0,5.092,65.2H19.359a3.074,3.074,0,0,0,3.052-3.062V52.974a3.068,3.068,0,0,0-1.745-2.754c.174-.7.529-1.654.925-2.766A18.134,18.134,0,0,0,22.7,42.792H41.656l4.768,9.541a3.065,3.065,0,0,0-1.594,2.678v7.13A3.074,3.074,0,0,0,47.882,65.2H62.142A3.083,3.083,0,0,0,65.2,62.142v-7.13a3.073,3.073,0,0,0-1.9-2.824,17.465,17.465,0,0,1,.8-1.982A10.482,10.482,0,0,0,65.2,45.845V4.077A4.092,4.092,0,0,0,61.127,0Zm0,2.038H61.127a2.013,2.013,0,0,1,2.038,2.04V33.8a2.829,2.829,0,0,0-1.023-.179,2.668,2.668,0,0,0-1.015.185V7.13a3.066,3.066,0,0,0-3.052-3.052H11.2A3.066,3.066,0,0,0,8.153,7.13v17.7c-.062-.027-.124-.056-.187-.082a3.284,3.284,0,0,0-1.851-.219V4.077a2.013,2.013,0,0,1,2.038-2.04ZM10.19,26.678V7.13A.989.989,0,0,1,11.2,6.115H58.074A.988.988,0,0,1,59.089,7.13V32.785a2.7,2.7,0,0,0-1.015-.183,2.943,2.943,0,0,0-1.51.392A3.029,3.029,0,0,0,54,31.579a3.238,3.238,0,0,0-1.023.177V27.512h3.046a1.02,1.02,0,0,0,0-2.04H52.974a3.057,3.057,0,1,0-6.115,0H37.692a1.02,1.02,0,0,0,0,2.04H46.86v9.436l-1.2-2.081a3.578,3.578,0,0,0-4.867-1.309,3.533,3.533,0,0,0-1.743,3.12H12.787c-.47-.515-.895-.932-1.174-1.272-.318-.386-.408-.593-.408-.764V30.255a7.024,7.024,0,0,0-1.015-3.576ZM49.922,8.152A3.074,3.074,0,0,0,46.859,11.2H37.692a1.02,1.02,0,0,0,0,2.04h9.167a3.057,3.057,0,0,0,6.115,0h3.06a1.02,1.02,0,0,0,0-2.04h-3.06A3.066,3.066,0,0,0,49.922,8.152Zm0,2.038A.988.988,0,0,1,50.937,11.2v2.04a1.02,1.02,0,1,1-2.04,0V11.2A1,1,0,0,1,49.922,10.19ZM23.435,11.2a11.221,11.221,0,0,0-11.2,11.207v4.075a1.019,1.019,0,0,0,1.015,1.025h20.37a1.019,1.019,0,0,0,1.025-1.025V22.412A11.221,11.221,0,0,0,23.435,11.2Zm-1.023,2.1v.967a1.019,1.019,0,0,0,2.038,0V13.3a9.123,9.123,0,0,1,4.71,1.942l-.687.687a1.022,1.022,0,1,0,1.445,1.445l.687-.687a9.119,9.119,0,0,1,1.94,4.71h-.957a1.019,1.019,0,1,0,0,2.038H32.6v2.038H27.512a4.057,4.057,0,0,0-1-2.662L28.226,21.1A1.016,1.016,0,1,0,26.79,19.66L24.8,21.636a4.032,4.032,0,0,0-1.369-.239,4.091,4.091,0,0,0-4.075,4.075H14.267V23.435h1.015a1.019,1.019,0,0,0,0-2.038h-.959a9.122,9.122,0,0,1,1.942-4.71l.687.687a1.019,1.019,0,1,0,1.437-1.445l-.683-.683A9.121,9.121,0,0,1,22.412,13.3Zm19.355,1.982a3.066,3.066,0,0,0-3.052,3.052H37.692a1.02,1.02,0,0,0,0,2.04h1.023a3.057,3.057,0,1,0,6.115,0h11.2a1.02,1.02,0,0,0,0-2.04H44.83A3.074,3.074,0,0,0,41.767,15.282Zm0,2.038a1,1,0,0,1,1.025,1.015v2.04a1.02,1.02,0,1,1-2.04,0v-2.04A.988.988,0,0,1,41.767,17.32ZM4.077,23.242v11.4a1.019,1.019,0,0,0,2.038,0V27.21c0-.49.111-.56.241-.631a1.051,1.051,0,0,1,.842.052c.819.333,1.9,1.449,1.97,3.669v4.34a3.266,3.266,0,0,0,.874,2.067c.445.539.949,1.01,1.421,1.542a6.208,6.208,0,0,1,1.783,4.543,1.019,1.019,0,0,0,2.038,0h5.371a16.5,16.5,0,0,1-.979,3.978,20.825,20.825,0,0,0-.872,3.152H5.092V46.86a8.4,8.4,0,0,0-.519-2.481c-.3-.938-.688-1.985-1.069-3.052a22.736,22.736,0,0,1-1.467-5.5v-8.67a5.23,5.23,0,0,1,.685-2.617,3.439,3.439,0,0,1,1.355-1.3Zm19.357.193a2.022,2.022,0,0,1,2.038,2.038H21.4A2.022,2.022,0,0,1,23.435,23.435Zm27.5,2.038V38.715a1.019,1.019,0,0,0,2.038,0V34.64a1.019,1.019,0,1,1,2.038,0v4.075a1.019,1.019,0,0,0,2.038,0v-3.06a1.02,1.02,0,0,1,2.04,0v3.06a1.019,1.019,0,0,0,2.038,0V36.677a1.019,1.019,0,1,1,2.038,0v9.167a8.534,8.534,0,0,1-.931,3.534,13.227,13.227,0,0,0-.995,2.581H48.513L41.28,37.467a1.55,1.55,0,0,1,.525-2.145,1.507,1.507,0,0,1,2.091.557L47,41.256a1.019,1.019,0,0,0,1.894-.5c0-5.091,0-10.194,0-15.28a1.02,1.02,0,1,1,2.04,0ZM14.275,38.715H39.62l1.017,2.038H15.049a8.2,8.2,0,0,0-.774-2.038ZM5.092,51.959H19.359a.989.989,0,0,1,1.015,1.015v9.167a1,1,0,0,1-1.015,1.023H5.092a1,1,0,0,1-1.015-1.023V52.974a.989.989,0,0,1,1.015-1.015ZM47.882,54H62.142a1,1,0,0,1,1.023,1.015v7.13a1,1,0,0,1-1.023,1.023H47.882a1,1,0,0,1-1.023-1.023v-7.13A1,1,0,0,1,47.882,54Z" transform="translate(-1)" fill="#fff"/>
    </g>
  </g>
</svg>
